<svg xmlns="http://www.w3.org/2000/svg" width="191" height="28.99" viewBox="0 0 191 28.99"><defs><style>.a{fill:none;}.b{fill:#080909;}.c{fill:#060708;}</style></defs><g transform="translate(-4.727 -2.356)"><path class="a" d="M12.243,7.051c-.813,0-1.325.163-1.552.5A2.476,2.476,0,0,0,10.484,8.8L10.443,27.8a1.74,1.74,0,0,0,.538,1.514,3.306,3.306,0,0,0,1.652.276q11.371.029,11.4-11.141.007-5.6-3.084-8.782Q18.488,7.063,12.243,7.051Z" transform="translate(-0.245 -0.201)"/><path class="a" d="M51.454,9.143,46.972,21.519l8.707.017Z" transform="translate(-1.809 -0.291)"/><path class="a" d="M106.052,9.261l-4.484,12.374,8.706.019Z" transform="translate(-4.148 -0.296)"/><path class="a" d="M202.845,3.876a.273.273,0,0,0,.043-.146.239.239,0,0,0-.083-.19.379.379,0,0,0-.262-.075h-.516V4h.46a.671.671,0,0,0,.231-.029A.251.251,0,0,0,202.845,3.876Z" transform="translate(-8.45 -0.047)"/><path class="a" d="M203.406,3.106a1.382,1.382,0,1,0,0,1.961h0a1.386,1.386,0,0,0,0-1.959Zm-.479,1.774-.212-.338c-.063-.1-.116-.17-.154-.222a.591.591,0,0,0-.112-.112.328.328,0,0,0-.1-.042.624.624,0,0,0-.12-.009h-.248l0,.724h-.215l0-1.627.72,0a.984.984,0,0,1,.329.044.355.355,0,0,1,.181.155.461.461,0,0,1,.067.245.415.415,0,0,1-.11.292.576.576,0,0,1-.346.148.538.538,0,0,1,.129.082,1.083,1.083,0,0,1,.177.213l.28.446Z" transform="translate(-8.408 -0.015)"/><path class="b" d="M202.773,4.246a.526.526,0,0,0-.13-.082.572.572,0,0,0,.346-.148.411.411,0,0,0,.111-.292.461.461,0,0,0-.067-.245.355.355,0,0,0-.181-.155.961.961,0,0,0-.329-.044l-.72,0,0,1.626h.215l0-.723h.249a.624.624,0,0,1,.12.009.328.328,0,0,1,.1.042.592.592,0,0,1,.112.112c.039.052.091.126.154.222l.214.339h.268l-.279-.445A1.088,1.088,0,0,0,202.773,4.246Zm-.293-.251h-.461V3.457h.515a.387.387,0,0,1,.263.075.24.24,0,0,1,.082.19.276.276,0,0,1-.043.147.246.246,0,0,1-.125.1.674.674,0,0,1-.231.03Z" transform="translate(-8.441 -0.039)"/><path class="b" d="M180.258,28.88a8.077,8.077,0,0,1-4.586,1,22.285,22.285,0,0,1-4.726-.281,1.468,1.468,0,0,1-.873-1.55l.021-9.379,5.533.011a4.275,4.275,0,0,1,2.795.644,5.312,5.312,0,0,1,.94,2.905h.708l.017-8.4h-.708a5.527,5.527,0,0,1-.882,2.733,4.027,4.027,0,0,1-2.87.737L170.1,17.29l.019-8.672c0-.7.11-1.1.343-1.214a3.425,3.425,0,0,1,1.008-.067l4.859.011q2.869.006,3.742.682c.587.432,1.011,1.51,1.277,3.244l.709,0-.086-5.062-17.309-.037,0,.676a5.071,5.071,0,0,1,2.457.643q.88.712.875,2.87l-.034,16.5a3.553,3.553,0,0,1-.886,2.8,4.914,4.914,0,0,1-2.461.669l0,.674,17.575.036,1.434-6.066-.708,0A8.644,8.644,0,0,1,180.258,28.88Z" transform="translate(-6.848 -0.164)"/><path class="b" d="M197.814,19.179q-2.761-2-5.49-3.962-2.933-2.3-2.927-4.694a3.724,3.724,0,0,1,1.389-3,4.139,4.139,0,0,1,2.633-.9,5.148,5.148,0,0,1,4.146,2.168,10.67,10.67,0,0,1,1.914,4.556l.811,0-.725-7.692h-.742a8.01,8.01,0,0,0-.168.811c-.094.317-.352.471-.78.47a10.693,10.693,0,0,1-1.853-.642,7.9,7.9,0,0,0-2.768-.651,5.5,5.5,0,0,0-4.016,1.579,6.2,6.2,0,0,0-1.8,4.682,5.829,5.829,0,0,0,1.58,4.155A21.605,21.605,0,0,0,192.79,19a24.377,24.377,0,0,1,4.78,3.92A4.911,4.911,0,0,1,198.578,26a4.221,4.221,0,0,1-1.325,3.031,4.646,4.646,0,0,1-3.411,1.411q-4.691-.01-6.631-6.659l-.777,0,1,7.66.743,0c.093-.835.519-1.248,1.285-1.246a7.712,7.712,0,0,1,1.751.607,6.943,6.943,0,0,0,2.936.685,6.645,6.645,0,0,0,5.234-2.148,6.506,6.506,0,0,0,1.633-4.486A8.107,8.107,0,0,0,197.814,19.179Z" transform="translate(-7.782 -0.14)"/><path class="c" d="M39.986,30.72v0l6.179.012v-.673a3.813,3.813,0,0,1-1.422-.274,1.373,1.373,0,0,1-.8-1.419,3.925,3.925,0,0,1,.274-1.486l1.7-4.28,9.442.02,1.21,3.342a7.821,7.821,0,0,1,.57,2.431,1.4,1.4,0,0,1-.849,1.415,6.757,6.757,0,0,1-1.855.266l0,.675,6.559.013,1.44,0,.875,0h.566l6.788.015v-.674A3.714,3.714,0,0,1,68.09,29.2c-.517-.6-.774-1.868-.77-3.779l.037-17.445.235.069L76.152,30.8h.271L85.241,8.046l.341-.2L85.543,26.2a4.854,4.854,0,0,1-.681,3.068,4.334,4.334,0,0,1-2.738.868v.677l8.81.018v0l1.312,0v0l6.179.012,0-.674A3.813,3.813,0,0,1,97,29.9a1.37,1.37,0,0,1-.8-1.418A3.888,3.888,0,0,1,96.476,27l1.7-4.281,9.442.021,1.21,3.341a7.833,7.833,0,0,1,.57,2.432,1.4,1.4,0,0,1-.849,1.415,6.839,6.839,0,0,1-1.856.267l0,.673,8,.017.876,0,7.349.015,0-.674A3.279,3.279,0,0,1,120.316,29q-.742-1.011-.734-3.945l.032-15.148h.34L135.19,31.264h.069l.043-19.871c0-2.074.219-3.385.647-3.948a3.943,3.943,0,0,1,2.23-.738V6.033l-7.356-.015v.675a4.457,4.457,0,0,1,2.566.749c.557.612.837,1.925.832,3.953L134.193,25.8,120.265,6l-4.654-.01V6.66a4.055,4.055,0,0,1,1.45.212,4.794,4.794,0,0,1,1.414,1.62l-.037,16.566a16.1,16.1,0,0,1-.209,3.409,2.785,2.785,0,0,1-2.64,1.74l-.929,0a3.694,3.694,0,0,1-1.731-.57,6.4,6.4,0,0,1-1.613-2.738l-7.951-21.3h-.132L96.376,24.1A23.339,23.339,0,0,1,93.9,29.42a1.469,1.469,0,0,1-.771.576c-.284.067-.569.116-.854.161l-1.4,0A4.625,4.625,0,0,1,88.5,29.48a3.472,3.472,0,0,1-.908-2.8l.036-16.7q0-2.123.922-2.8a5.967,5.967,0,0,1,2.432-.536V6l-6.109-.014L76.9,26.719,69.219,5.955l-5.8-.012v.64a4.424,4.424,0,0,1,2.394.511,5.218,5.218,0,0,1,.472,2.834l-.034,15.489a8.9,8.9,0,0,1-.484,3.776,3.025,3.025,0,0,1-2.151.868l-1.429,0a3.359,3.359,0,0,1-1.511-.538,6.386,6.386,0,0,1-1.613-2.738l-7.952-21.3h-.133L44.116,23.989a23.326,23.326,0,0,1-2.477,5.319,1.484,1.484,0,0,1-.773.576c-.284.067-.57.118-.854.161l-1.217,0a4.738,4.738,0,0,1-2.725-.71,3.471,3.471,0,0,1-1-2.9L35.1,10.237a3.644,3.644,0,0,1,1.015-2.969A5.574,5.574,0,0,1,38.958,6.6V5.925L29.311,5.9v.674a5.365,5.365,0,0,1,2.969.783,3.859,3.859,0,0,1,.835,2.87l-.037,16.191a3.693,3.693,0,0,1-.816,2.767,4.728,4.728,0,0,1-3,.836V30.7l9.651.02ZM102.954,9.1l4.223,12.393-8.707-.019ZM50.7,8.987,54.92,21.382l-8.706-.018Z" transform="translate(-1.051 -0.134)"/><path class="b" d="M146.5,8.195q1.047-.9,3.882-.9l2.022,0-.04,18.794a5.565,5.565,0,0,1-.611,3.1,3.969,3.969,0,0,1-2.9,1.106l0,.674,9.276.02,0-.675a4.448,4.448,0,0,1-2.866-.915,4.269,4.269,0,0,1-.736-2.834L154.563,7.3l1.958,0q2.866.006,3.878.854,1.113.91,1.644,4.051l.742,0L162.6,6.172,144.31,6.134l-.215,6.04.777,0C145.257,10.081,145.8,8.759,146.5,8.195Z" transform="translate(-5.969 -0.162)"/><path class="b" d="M203.623,2.861a1.709,1.709,0,0,0-2.418-.008h0l0,0a1.711,1.711,0,1,0,2.419,0h0ZM203.39,5.05h0a1.387,1.387,0,1,1,0-1.961l0,0a1.388,1.388,0,0,1,0,1.96Z" transform="translate(-8.393 0)"/><path class="b" d="M22.93,9.013q-3.335-3.141-9.374-3.158L4.783,5.838l0,.672a4.985,4.985,0,0,1,2.629.749,3.889,3.889,0,0,1,.7,2.764l-.036,16.5A3.86,3.86,0,0,1,7.4,29.19a4.561,4.561,0,0,1-2.669.8v.675l9.248.019q6.64.014,9.958-4.3a12.94,12.94,0,0,0,2.516-8.021Q26.463,12.261,22.93,9.013ZM12.389,29.536a3.315,3.315,0,0,1-1.652-.276,1.74,1.74,0,0,1-.538-1.514L10.24,8.752A2.476,2.476,0,0,1,10.448,7.5C10.675,7.163,11.187,7,12,7q6.244.013,8.7,2.614,3.093,3.177,3.085,8.781-.023,11.17-11.4,11.141Z" transform="translate(0 -0.149)"/></g></svg>