<svg xmlns="http://www.w3.org/2000/svg" width="44.848" height="64.729" viewBox="0 0 44.848 64.729"><defs><style>.a{fill:#3e3e3e;fill-rule:evenodd;}</style></defs><path class="a" d="M55.3,118.9a1.611,1.611,0,0,0-1.306.047,10.332,10.332,0,0,1-13.972-10.2,9.979,9.979,0,0,1,4.269-8.042,19.818,19.818,0,0,1,3.274-1.464,1.849,1.849,0,0,0,.809-.514,12.845,12.845,0,0,1,9.157-5.75c.777-.128.841-.235.5-.941-.1-.194-.216-.378-.329-.563a.7.7,0,0,0-.98-.344c-.341.124-1,.132-1.121-.058a1.815,1.815,0,0,1-.141-1.317,6.753,6.753,0,0,1,.832-1.635.458.458,0,0,0-.115-.7,8.779,8.779,0,0,1-.826-.841c-.335-.386-.265-.685.19-.956a1.372,1.372,0,0,0,.674-1.71c-.164-.414-.42-.572-.82-.284q-.432.307-.841.647c-.254.209-.5.438-.86.762a4.6,4.6,0,0,1,.662-3.554c.378-.482.811-.92,1.214-1.383.327-.376.231-.628-.226-.794-.48-.175-.952-.374-1.428-.563l.023-.273c.768-.288,1.533-.587,2.305-.86.826-.295.879-.455.333-1.155a3.337,3.337,0,0,1-.563-.753,1.142,1.142,0,0,1-.043-.9,1.075,1.075,0,0,1,.86-.3,6.928,6.928,0,0,1,1.242.382c.275.079.561.126.843.188l.094-.132a3.543,3.543,0,0,0-.271-.384c-.318-.354-.668-.679-.958-1.052a.756.756,0,0,1-.145-.6c.1-.284.277-.587.694-.5a2.227,2.227,0,0,0,.412.041c.386.013.57-.126.406-.54a2.12,2.12,0,0,1-.186-.621c-.013-.213-.011-.523.115-.628a1.1,1.1,0,0,1,.736-.192c.218.019.408.241.63.312a8.2,8.2,0,0,0,1.413.354c.166.021.388-.181.54-.327.107-.1.132-.284.2-.425a1.332,1.332,0,0,1,1.718-.807c.5.12.993.248,1.515.378.3-.64.574-1.217.879-1.87a11.233,11.233,0,0,0,1.063.717,6.094,6.094,0,0,0,1.462.587,1.058,1.058,0,0,0,.785-.367c.1-.111,0-.459-.073-.677-.2-.557-.438-1.1-.709-1.769.948.365,1.7.638,2.435.948.523.218.559.7.589,1.189a5.109,5.109,0,0,0,1.712,3.808,2.159,2.159,0,0,0,.877.307c.4.1.8.158,1.285.25a2.314,2.314,0,0,1-.241.4c-.137.143-.305.252-.45.386-.48.448-1.266.76-1.214,1.5a5.017,5.017,0,0,0,1.212,2.852c.1.122.391.117.591.115.126,0,.248-.12.378-.162.371-.122.771-.309,1.076.1a1.181,1.181,0,0,1-.068,1.5,1.756,1.756,0,0,0-.6,1.737,2.936,2.936,0,0,0,1.383,2.341,1.978,1.978,0,0,1,.438.4c.35.395.275.649-.228.826-.645.226-.741.344-.416.963a31.232,31.232,0,0,0,1.708,2.909c.792,1.178,1.667,2.305,2.51,3.449a1.5,1.5,0,0,0,1.153.634,1.36,1.36,0,0,1,.879.28,2.627,2.627,0,0,1,.6,1.272c.058.506-.463.7-.886.807a8.078,8.078,0,0,1-1.806.3,1.545,1.545,0,0,1-1.048-.427c-1.121-1.223-2.2-2.487-3.255-3.763-1.65-1.994-3.214-4.062-4.928-6a8.363,8.363,0,0,0-4.1-2.5c-.538-.147-.837-.064-.869.557a2.866,2.866,0,0,1-.3.706,1.6,1.6,0,0,0-1.59-1.037c-.5-.013-.61-.608-.292-1.061a4.215,4.215,0,0,0,.354-.841,6.737,6.737,0,0,0-.933.145c-.38.113-.474.408-.429.8a5.165,5.165,0,0,0,1.8,3.123,48.661,48.661,0,0,0,6.356,4.95A14.785,14.785,0,0,1,79.2,98.771a14.949,14.949,0,0,1-3.624,14.858,18.208,18.208,0,0,1-12.322,5.9C60.774,119.876,55.3,118.9,55.3,118.9Zm3.2-3.272a6.1,6.1,0,0,0,.606.3,11.906,11.906,0,0,0,6.826.593,7.175,7.175,0,0,0,5.381-7.319,12.146,12.146,0,0,0-1.929-5.5A18.076,18.076,0,0,0,62.716,97.7a15.578,15.578,0,0,0-7.219-2.13A6.728,6.728,0,0,0,49.8,98.1c-.177.218-.312.47-.555.841,4.457-.083,7.9,1.53,9.972,5.4C61.282,108.181,60.8,111.965,58.5,115.63Zm.263-3.278c-.011-.177-.006-.359-.034-.534a11.657,11.657,0,0,0-.265-1.52,13.8,13.8,0,0,0-9.509-9.68c-.489-.164-.687.032-.8.48a7.6,7.6,0,0,0,.393,4.6,15.417,15.417,0,0,0,4.644,6.5c1.3,1.106,2.785,2,4.194,2.982.378.26.677.166.8-.3A6.247,6.247,0,0,0,58.767,112.352ZM47.4,100.335a9.5,9.5,0,0,0-1.048.117,5.64,5.64,0,0,0-4.5,6.95,13.818,13.818,0,0,0,7.891,9.869,7.83,7.83,0,0,0,3.283.717C46.646,113.564,45.122,107.6,47.4,100.335Z" transform="translate(-40.008 -54.932)"/><path class="a" d="M51.686,73.359c-.222-.472-.4-.807-.538-1.157a.89.89,0,0,1-.1-.563c.224-.561-.068-.943-.361-1.353q-1.754-2.465-3.492-4.943c-.117-.169-.207-.356-.38-.655a3.471,3.471,0,0,1,2.837,2l.7-.589a1.993,1.993,0,0,0,.86,1.831c.476.457.35.963-.043,1.468a2.145,2.145,0,0,0,2.113.446,2.343,2.343,0,0,0,1.6-1.661,1.789,1.789,0,0,1-.544-.175c-.231-.19-.578-.425-.591-.657a2.74,2.74,0,0,0-.8-2.113h.726a11.661,11.661,0,0,1,.028-1.972,5.965,5.965,0,0,1,.647-1.409,5.56,5.56,0,0,1,1.2.975,9.551,9.551,0,0,1,.79,1.735l.739-.2A1.983,1.983,0,0,0,57.2,66.4c.273.617-.169.986-.576,1.332a2.261,2.261,0,0,0,3.855-.482c-.973-.386-.753-1.076-.506-1.855A4.98,4.98,0,0,0,60,63.963l.615.149a3.753,3.753,0,0,1,1.737-2.995c-.038.374-.049.6-.085.828-.32,1.974-.647,3.947-.967,5.919-.077.489-.175.975.329,1.349.117.088.117.363.128.553.019.371,0,.743,0,1.253-.369.115-.86.295-1.364.416a1.4,1.4,0,0,0-1.035.794,1.638,1.638,0,0,1-1.328,1.033c-.762.115-1.5.382-2.258.5a1.592,1.592,0,0,1-1.1-.169,2.4,2.4,0,0,0-2.29-.352A6.052,6.052,0,0,1,51.686,73.359Z" transform="translate(-32.288 -61.118)"/></svg>