<svg xmlns="http://www.w3.org/2000/svg" width="75.639" height="67.553" viewBox="0 0 75.639 67.553"><defs><style>.a,.b{fill:#3e3e3e;}.a{stroke:#f5f4f4;stroke-linecap:round;stroke-linejoin:round;stroke-width:0.5px;}</style></defs><g transform="translate(-431.999 -3545.75)"><g transform="translate(439.787 3546)"><path class="a" d="M741.077,301.186l-3.6,8.6-5.5-1.75Z" transform="translate(-681.013 -287.372)"/><path class="a" d="M693.1,156l3.442,13.814-9.1,6.851-4.684-1.839.02-.032Z" transform="translate(-636.475 -156.005)"/><path class="a" d="M752.33,391.577l1.541,7.6-2.751-1.453-2.724-3.993Z" transform="translate(-695.87 -369.162)"/><path class="a" d="M779.775,457.653l-1.342,5.752-1.409-7.2Z" transform="translate(-721.774 -427.636)"/><path class="a" d="M684.815,455.907l1.409,7.2-11.106-1.3,4.055-5.878,5.554-.058Z" transform="translate(-629.565 -427.343)"/><path class="a" d="M683.806,531.917l-3.294,7.5-8.067-2.715Z" transform="translate(-627.147 -496.148)"/><path class="a" d="M683.806,519.565l-11.36,4.781.254-6.079Z" transform="translate(-627.147 -483.797)"/><path class="a" d="M677.413,156,667.09,174.8l-1.669-14.4Z" transform="translate(-620.791 -156.005)"/><path class="a" d="M737.473,374.933l-3.934,2.156-1.562-3.906Z" transform="translate(-681.013 -352.518)"/><path class="a" d="M720.647,414.231l2.724,3.993-.088-.031-5.554.058Z" transform="translate(-668.121 -389.661)"/><path class="a" d="M590.245,610.69l-11.591,9.439-5.968,2.294,5.5-6.417Z" transform="translate(-536.88 -567.426)"/><path class="a" d="M642.592,584.872l-12.054,5.316,3.988-8.031Z" transform="translate(-589.227 -541.608)"/><path class="a" d="M612.452,261.042l1.562,3.906L604.07,262.1l-4.187-12.851,7.885,9.954Z" transform="translate(-561.489 -240.377)"/><path class="a" d="M653.828,387.155l-2.918,4.021-5.552-2.595-1.474-4.273Z" transform="translate(-601.303 -362.584)"/><path class="a" d="M613.321,431.814l-4.055,5.878-6.925-1.545,1.721-4.691,3.707-2.237Z" transform="translate(-563.714 -403.223)"/><path class="a" d="M609.267,503.575l-.254,6.079-6.671-7.624Z" transform="translate(-563.714 -469.105)"/><path class="a" d="M564.121,502.03l6.671,7.624-8.984,4.924-1.705-4.126Z" transform="translate(-525.493 -469.105)"/><path class="a" d="M587.01,582.157l-3.988,8.031-5-3.107Z" transform="translate(-541.711 -541.608)"/><path class="a" d="M606.119,202.159l1.669,14.4-.02.032-7.885-9.954Z" transform="translate(-561.489 -197.768)"/><path class="a" d="M526.6,177.364l-6.236,4.481-8.362-2v-5.087l7.943.527Z" transform="translate(-481.968 -172.973)"/><path class="a" d="M579.821,384.308l1.474,4.273-8.211,1.586Z" transform="translate(-537.24 -362.584)"/><path class="a" d="M581.3,429.22l-3.707,2.237-1.721,4.691-2.784-5.342Z" transform="translate(-537.24 -403.223)"/><path class="a" d="M523.279,637.018l-5.5,6.417L512,637.052v-2.3l6.283-.845Z" transform="translate(-481.968 -588.437)"/><path class="a" d="M520.362,249.249l4.187,12.851-7.329-4.979L512,255.827Z" transform="translate(-481.968 -240.377)"/><path class="a" d="M524.549,336.96l-6.737,5.859-5.812,1.1,5.22-11.937Z" transform="translate(-481.968 -315.237)"/><path class="a" d="M517.774,673.3H512v-6.383Z" transform="translate(-481.968 -618.306)"/><path class="a" d="M552.962,445.884l2.784,5.342-4.9,1.355Z" transform="translate(-517.118 -418.301)"/><path class="a" d="M555.746,502.03l-4.019,8.423-.881-7.068Z" transform="translate(-517.118 -469.105)"/><path class="a" d="M520.362,230.217,512,236.8v-8.58Z" transform="translate(-481.968 -221.345)"/><path class="a" d="M516.577,590.552l1.705,4.126-6.283.845v-.051Z" transform="translate(-481.968 -549.203)"/><path class="a" d="M517.812,445.884l-2.116,6.7-3.7-5.6Z" transform="translate(-481.968 -418.301)"/><path class="a" d="M517.22,319.678,512,331.615V318.384Z" transform="translate(-481.968 -302.933)"/><path class="a" d="M515.7,516.27l.881,7.068-4.577.744V517.5Z" transform="translate(-481.968 -481.99)"/><path class="a" d="M516.577,590.552,512,595.472V591.3Z" transform="translate(-481.968 -549.203)"/><path class="a" d="M512,457.433l3.7,5.6-3.7,1.232Z" transform="translate(-481.968 -428.751)"/><path class="a" d="M196.382,301.186l3.6,8.6,5.5-1.75Z" transform="translate(-196.382 -287.372)"/><path class="a" d="M199.824,156l-3.442,13.814,9.1,6.851,4.683-1.839-.02-.032Z" transform="translate(-196.382 -156.005)"/><path class="a" d="M219.6,391.577l-1.541,7.6,2.751-1.453,2.724-3.993Z" transform="translate(-216.001 -369.162)"/><path class="a" d="M218.064,457.653l1.342,5.752,1.409-7.2Z" transform="translate(-216.001 -427.636)"/><path class="a" d="M233.574,455.907l-1.409,7.2,11.106-1.3-4.055-5.878-5.554-.058Z" transform="translate(-228.76 -427.343)"/><path class="a" d="M232.165,531.917l3.294,7.5,8.067-2.715Z" transform="translate(-228.76 -496.148)"/><path class="a" d="M232.165,519.565l11.36,4.781-.254-6.079Z" transform="translate(-228.76 -483.797)"/><path class="a" d="M232.556,156,242.878,174.8l1.669-14.4Z" transform="translate(-229.114 -156.005)"/><path class="a" d="M234.259,374.933l3.934,2.156,1.562-3.906Z" transform="translate(-230.655 -352.518)"/><path class="a" d="M249.7,414.231l-2.724,3.993.088-.031,5.554.058Z" transform="translate(-242.161 -389.661)"/><path class="a" d="M266.779,610.69l11.591,9.439,5.968,2.294-5.5-6.417Z" transform="translate(-260.08 -567.426)"/><path class="a" d="M266.779,584.872l12.054,5.316-3.987-8.031Z" transform="translate(-260.08 -541.608)"/><path class="a" d="M277.167,261.042l-1.562,3.906,9.945-2.847,4.187-12.851L281.85,259.2Z" transform="translate(-268.066 -240.377)"/><path class="a" d="M275.6,387.155l2.918,4.021,5.552-2.595,1.474-4.273Z" transform="translate(-268.066 -362.584)"/><path class="a" d="M306.271,431.814l4.055,5.878,6.925-1.545-1.721-4.691-3.706-2.237Z" transform="translate(-295.814 -403.223)"/><path class="a" d="M348.881,503.575l.254,6.079,6.67-7.624Z" transform="translate(-334.371 -469.105)"/><path class="a" d="M358.226,502.03l-6.67,7.624,8.984,4.924,1.706-4.126Z" transform="translate(-336.791 -469.105)"/><path class="a" d="M351.556,582.157l3.987,8.031,5-3.107Z" transform="translate(-336.791 -541.608)"/><path class="a" d="M342.707,202.159l-1.669,14.4.02.032,7.886-9.954Z" transform="translate(-327.273 -197.768)"/><path class="a" d="M358.579,177.364l6.236,4.481,8.362-2v-5.087l-7.943.527Z" transform="translate(-343.145 -172.973)"/><path class="a" d="M366.1,384.308l-1.474,4.273,8.211,1.586Z" transform="translate(-348.612 -362.584)"/><path class="a" d="M364.621,429.22l3.706,2.237,1.721,4.691,2.784-5.342Z" transform="translate(-348.612 -403.223)"/><path class="a" d="M393.461,637.018l5.5,6.417,5.774-6.383v-2.3l-6.283-.845Z" transform="translate(-374.709 -588.437)"/><path class="a" d="M384.3,249.249,380.116,262.1l7.329-4.979,5.22-1.294Z" transform="translate(-362.633 -240.377)"/><path class="a" d="M380.116,336.96l6.737,5.859,5.812,1.1-5.22-11.937Z" transform="translate(-362.633 -315.237)"/><path class="a" d="M451.313,673.3h5.774v-6.383Z" transform="translate(-427.056 -618.306)"/><path class="a" d="M424.442,445.884l-2.784,5.342,4.9,1.355Z" transform="translate(-400.223 -418.301)"/><path class="a" d="M421.658,502.03l4.019,8.423.881-7.068Z" transform="translate(-400.223 -469.105)"/><path class="a" d="M424.117,230.217l8.362,6.578v-8.58Z" transform="translate(-402.448 -221.345)"/><path class="a" d="M447.679,590.552l-1.706,4.126,6.283.845v-.051Z" transform="translate(-422.224 -549.203)"/><path class="a" d="M450.916,445.884l2.116,6.7,3.7-5.6Z" transform="translate(-426.696 -418.301)"/><path class="a" d="M457.143,319.678l5.22,11.937V318.384Z" transform="translate(-432.331 -302.933)"/><path class="a" d="M464.779,516.27l-.881,7.068,4.577.744V517.5Z" transform="translate(-438.444 -481.99)"/><path class="a" d="M463.9,590.552l4.577,4.92V591.3Z" transform="translate(-438.444 -549.203)"/><path class="a" d="M476.85,457.433l-3.7,5.6,3.7,1.232Z" transform="translate(-446.818 -428.751)"/></g><g transform="translate(431.999 3606.444)"><path class="b" d="M121.007,797.385c0,.236-.009.254-.117.315a5.259,5.259,0,0,1-2.177.394c-2.213,0-4.173-1.015-4.173-3.43a3.25,3.25,0,0,1,1.572-2.861,4.492,4.492,0,0,1,2.43-.569,11.2,11.2,0,0,1,1.6.14,6.135,6.135,0,0,0,.714.1c.108.009.126.044.126.1a11.427,11.427,0,0,0-.063,1.435c0,.14-.027.184-.1.184s-.081-.044-.09-.114a1.205,1.205,0,0,0-.307-.726,2.942,2.942,0,0,0-2.014-.683,2.663,2.663,0,0,0-1.789.543,2.563,2.563,0,0,0-.831,2.144,3.079,3.079,0,0,0,3.143,3.29,2.06,2.06,0,0,0,.768-.1.308.308,0,0,0,.172-.324v-.823c0-.437,0-.77-.009-1.033-.009-.3-.09-.437-.388-.5a1.9,1.9,0,0,0-.352-.026c-.081,0-.135-.018-.135-.07,0-.07.063-.088.19-.088.47,0,1.039.026,1.31.026s.759-.026,1.057-.026c.117,0,.181.018.181.088,0,.052-.054.07-.118.07a1.444,1.444,0,0,0-.244.026c-.244.044-.334.193-.343.5-.009.263-.009.613-.009,1.05Z" transform="translate(-114.539 -791.234)"/><path class="b" d="M198.935,808.482c0-1.062,0-1.258-.014-1.482s-.072-.349-.31-.4a1.536,1.536,0,0,0-.281-.021c-.079,0-.123-.014-.123-.063s.05-.063.159-.063c.383,0,.837.021.989.021.245,0,.794-.021,1.018-.021a2.368,2.368,0,0,1,1.328.3,1.2,1.2,0,0,1,.491.958,1.947,1.947,0,0,1-.953,1.566c.642.783,1.14,1.4,1.566,1.838a1.451,1.451,0,0,0,.808.475,1.172,1.172,0,0,0,.2.021c.058,0,.087.021.087.056,0,.056-.05.07-.137.07h-.686a1.51,1.51,0,0,1-.772-.133,3.421,3.421,0,0,1-.989-1.027c-.289-.384-.62-.86-.714-.965a.153.153,0,0,0-.13-.049l-.628-.014c-.036,0-.058.014-.058.056v.1c0,.65,0,1.2.036,1.5.022.2.065.356.281.384a3.362,3.362,0,0,0,.354.028c.058,0,.087.021.087.056s-.051.07-.144.07c-.418,0-.952-.021-1.061-.021-.137,0-.592.021-.88.021-.094,0-.144-.021-.144-.07s.029-.056.115-.056a1.2,1.2,0,0,0,.26-.028c.144-.028.18-.182.209-.384.036-.294.036-.846.036-1.489Zm.852.552c0,.077.015.1.065.126a1.966,1.966,0,0,0,.548.07.739.739,0,0,0,.512-.119,1.214,1.214,0,0,0,.426-1.048,1.133,1.133,0,0,0-1.1-1.279,1.632,1.632,0,0,0-.383.028c-.05.014-.065.042-.065.1Z" transform="translate(-190.245 -805.007)"/><path class="b" d="M254.475,808.166a2.736,2.736,0,0,1,2.98-2.74c1.8,0,2.915,1.014,2.915,2.614a2.809,2.809,0,0,1-2.987,2.866A2.7,2.7,0,0,1,254.475,808.166Zm4.885.133a2.247,2.247,0,0,0-2.114-2.537c-.83,0-1.775.447-1.775,2.188a2.325,2.325,0,0,0,2.215,2.607C258.191,810.556,259.36,810.319,259.36,808.3Z" transform="translate(-241.16 -804.076)"/><path class="b" d="M324.773,808.166a2.736,2.736,0,0,1,2.98-2.74c1.8,0,2.915,1.014,2.915,2.614a2.809,2.809,0,0,1-2.988,2.866A2.7,2.7,0,0,1,324.773,808.166Zm4.885.133a2.247,2.247,0,0,0-2.114-2.537c-.83,0-1.775.447-1.775,2.188a2.325,2.325,0,0,0,2.215,2.607C328.489,810.556,329.658,810.319,329.658,808.3Z" transform="translate(-304.769 -804.076)"/><path class="b" d="M387.647,807.14c-.166-.384-.289-.461-.548-.531a1.154,1.154,0,0,0-.281-.028c-.065,0-.087-.021-.087-.063s.079-.063.188-.063c.383,0,.794.021,1.046.021.18,0,.527-.021.888-.021.086,0,.166.014.166.063s-.043.063-.108.063a.534.534,0,0,0-.281.049.166.166,0,0,0-.072.147,2.031,2.031,0,0,0,.166.538l1.241,3.173h.029c.31-.769,1.248-3.019,1.422-3.481a.836.836,0,0,0,.065-.259.134.134,0,0,0-.094-.133.993.993,0,0,0-.289-.035c-.065,0-.123-.007-.123-.056s.065-.07.2-.07c.361,0,.664.021.758.021.123,0,.462-.021.678-.021.094,0,.152.014.152.063s-.043.063-.116.063a.643.643,0,0,0-.354.084c-.094.063-.2.182-.4.629-.281.657-.476,1.034-.866,1.894-.462,1.02-.8,1.782-.96,2.132-.188.405-.231.517-.332.517s-.137-.1-.274-.426Z" transform="translate(-360.83 -805.007)"/><path class="b" d="M444.814,809.929a1.445,1.445,0,0,0-.166-.734c-.05-.112-1.018-1.649-1.27-2.013a1.736,1.736,0,0,0-.5-.51.754.754,0,0,0-.3-.091c-.058,0-.108-.014-.108-.063s.05-.063.137-.063c.13,0,.671.021.909.021.151,0,.447-.021.772-.021.072,0,.108.021.108.063s-.05.049-.159.077a.127.127,0,0,0-.1.126.633.633,0,0,0,.087.238c.1.21,1.111,1.894,1.227,2.09.072-.168.981-1.706,1.082-1.922a.89.89,0,0,0,.1-.363.168.168,0,0,0-.151-.175c-.065-.014-.13-.028-.13-.07s.036-.063.123-.063c.238,0,.469.021.678.021.159,0,.635-.021.772-.021.079,0,.13.014.13.056s-.058.07-.137.07a.8.8,0,0,0-.318.084,1.063,1.063,0,0,0-.39.343,22.114,22.114,0,0,0-1.378,2.222,1.625,1.625,0,0,0-.108.7v.573c0,.112,0,.405.021.7.015.2.079.356.3.384a3.077,3.077,0,0,0,.361.028c.079,0,.116.021.116.056s-.058.07-.152.07c-.455,0-.909-.021-1.1-.021s-.635.021-.9.021c-.1,0-.159-.014-.159-.07,0-.035.036-.056.115-.056a1.18,1.18,0,0,0,.253-.028c.144-.028.209-.182.224-.384.022-.294.022-.587.022-.7Z" transform="translate(-411.266 -805.007)"/><path class="b" d="M526.161,809.18c0,.671,0,1.2.036,1.489.022.2.065.356.281.384a3.082,3.082,0,0,0,.361.028c.094,0,.123.021.123.056s-.051.07-.159.07c-.455,0-.909-.021-1.1-.021s-.642.021-.916.021c-.1,0-.152-.014-.152-.07,0-.035.029-.056.108-.056a1.2,1.2,0,0,0,.26-.028c.144-.028.18-.182.209-.384.036-.294.036-.818.036-1.489v-1.23c0-1.062,0-1.258-.014-1.482s-.072-.349-.31-.4a1.53,1.53,0,0,0-.281-.021c-.072,0-.123-.014-.123-.056s.058-.07.166-.07c.188,0,.4.007.585.007s.354.014.455.014c.274,0,1.739,0,1.9-.007a1.423,1.423,0,0,0,.3-.028.471.471,0,0,1,.116-.042.057.057,0,0,1,.05.063c0,.049-.036.133-.058.315-.007.07-.022.482-.036.566-.007.056-.022.1-.072.1s-.065-.035-.072-.112a.664.664,0,0,0-.043-.266.526.526,0,0,0-.476-.21l-1.111-.021c-.043,0-.065.021-.065.1v1.747c0,.042.007.063.05.063l.924-.007c.123,0,.224,0,.325-.007a.384.384,0,0,0,.31-.126c.036-.042.051-.07.094-.07s.043.021.043.063-.036.217-.058.433c-.014.14-.029.461-.029.51s0,.133-.072.133c-.043,0-.058-.049-.058-.1a.747.747,0,0,0-.043-.217.422.422,0,0,0-.368-.251c-.18-.021-.945-.021-1.068-.021-.036,0-.05.014-.05.063Z" transform="translate(-485.512 -804.475)"/><path class="b" d="M571.084,808.166a2.736,2.736,0,0,1,2.98-2.74c1.8,0,2.915,1.014,2.915,2.614a2.809,2.809,0,0,1-2.987,2.866A2.7,2.7,0,0,1,571.084,808.166Zm4.885.133a2.247,2.247,0,0,0-2.114-2.537c-.83,0-1.775.447-1.775,2.188a2.325,2.325,0,0,0,2.215,2.607C574.8,810.556,575.969,810.319,575.969,808.3Z" transform="translate(-527.643 -804.076)"/><path class="b" d="M641.962,808.482c0-1.062,0-1.258-.014-1.482s-.072-.349-.31-.4a1.538,1.538,0,0,0-.281-.021c-.079,0-.123-.014-.123-.063s.05-.063.159-.063c.382,0,.837.021.989.021.245,0,.794-.021,1.018-.021a2.367,2.367,0,0,1,1.328.3,1.2,1.2,0,0,1,.491.958,1.946,1.946,0,0,1-.953,1.566c.642.783,1.14,1.4,1.566,1.838a1.45,1.45,0,0,0,.808.475,1.172,1.172,0,0,0,.2.021c.058,0,.086.021.086.056,0,.056-.05.07-.137.07H646.1a1.511,1.511,0,0,1-.772-.133,3.421,3.421,0,0,1-.989-1.027c-.289-.384-.62-.86-.714-.965a.153.153,0,0,0-.13-.049l-.628-.014c-.036,0-.058.014-.058.056v.1c0,.65,0,1.2.036,1.5.022.2.065.356.281.384a3.365,3.365,0,0,0,.354.028c.058,0,.087.021.087.056s-.051.07-.144.07c-.419,0-.953-.021-1.061-.021-.137,0-.592.021-.88.021-.094,0-.144-.021-.144-.07s.029-.056.115-.056a1.2,1.2,0,0,0,.26-.028c.144-.028.18-.182.209-.384.036-.294.036-.846.036-1.489Zm.851.552c0,.077.015.1.065.126a1.967,1.967,0,0,0,.549.07.739.739,0,0,0,.512-.119,1.214,1.214,0,0,0,.426-1.048,1.133,1.133,0,0,0-1.1-1.279,1.632,1.632,0,0,0-.382.028c-.05.014-.065.042-.065.1Z" transform="translate(-591.117 -805.007)"/><path class="b" d="M699.216,807.95c0-1.062,0-1.258-.014-1.482s-.072-.349-.31-.4a1.53,1.53,0,0,0-.281-.021c-.079,0-.123-.014-.123-.063s.05-.063.159-.063c.195,0,.4.007.584.007s.354.014.455.014c.231,0,1.667,0,1.8-.007a2.958,2.958,0,0,0,.31-.042.708.708,0,0,1,.115-.028c.036,0,.043.028.043.063a4.3,4.3,0,0,0-.058.454c-.007.07-.022.378-.036.461-.007.035-.022.077-.072.077s-.065-.035-.065-.1a.73.73,0,0,0-.043-.252c-.051-.126-.123-.21-.483-.252-.123-.014-.881-.028-1.025-.028-.036,0-.05.021-.05.07v1.768c0,.049.007.077.05.077.159,0,.989,0,1.155-.014a.512.512,0,0,0,.346-.1c.051-.056.079-.091.115-.091s.05.014.05.056-.029.154-.058.51c-.007.14-.029.419-.029.468s0,.133-.065.133-.065-.028-.065-.063a1.756,1.756,0,0,0-.029-.252c-.036-.14-.137-.245-.4-.273-.137-.014-.851-.021-1.025-.021-.036,0-.043.028-.043.07v.552c0,.238-.007.881,0,1.083.014.482.13.587.866.587a1.883,1.883,0,0,0,.678-.084c.188-.084.274-.23.325-.517.014-.077.029-.105.079-.105s.058.056.058.126a5.311,5.311,0,0,1-.094.776c-.051.182-.116.182-.39.182-.541,0-.938-.014-1.248-.021s-.534-.021-.75-.021c-.079,0-.238,0-.411.007s-.354.014-.5.014c-.094,0-.144-.021-.144-.07s.029-.056.115-.056a1.2,1.2,0,0,0,.26-.028c.144-.028.18-.182.209-.384.036-.294.036-.846.036-1.489Z" transform="translate(-642.923 -804.475)"/><path class="b" d="M738.76,807.14c-.166-.384-.289-.461-.549-.531a1.153,1.153,0,0,0-.281-.028c-.065,0-.087-.021-.087-.063s.079-.063.188-.063c.382,0,.794.021,1.046.021.18,0,.527-.021.888-.021.087,0,.166.014.166.063s-.043.063-.108.063a.533.533,0,0,0-.281.049.165.165,0,0,0-.072.147,2.027,2.027,0,0,0,.166.538l1.241,3.173h.029c.31-.769,1.248-3.019,1.422-3.481a.836.836,0,0,0,.065-.259.134.134,0,0,0-.094-.133.993.993,0,0,0-.289-.035c-.065,0-.123-.007-.123-.056s.065-.07.2-.07c.361,0,.664.021.758.021.123,0,.462-.021.678-.021.094,0,.152.014.152.063s-.043.063-.116.063a.643.643,0,0,0-.354.084c-.094.063-.2.182-.4.629-.281.657-.476,1.034-.866,1.894-.462,1.02-.8,1.782-.96,2.132-.188.405-.231.517-.332.517s-.137-.1-.274-.426Z" transform="translate(-678.535 -805.007)"/><path class="b" d="M802.428,807.95c0-1.062,0-1.258-.014-1.482s-.072-.349-.31-.4a1.53,1.53,0,0,0-.281-.021c-.079,0-.123-.014-.123-.063s.05-.063.159-.063c.195,0,.4.007.585.007s.354.014.455.014c.231,0,1.667,0,1.8-.007a2.96,2.96,0,0,0,.31-.042.71.71,0,0,1,.116-.028c.036,0,.043.028.043.063a4.334,4.334,0,0,0-.057.454c-.007.07-.022.378-.036.461-.007.035-.022.077-.072.077s-.065-.035-.065-.1a.73.73,0,0,0-.043-.252c-.051-.126-.123-.21-.484-.252-.123-.014-.88-.028-1.025-.028-.036,0-.05.021-.05.07v1.768c0,.049.007.077.05.077.159,0,.989,0,1.155-.014a.513.513,0,0,0,.346-.1c.05-.056.079-.091.115-.091s.05.014.05.056-.029.154-.058.51c-.007.14-.029.419-.029.468s0,.133-.065.133-.065-.028-.065-.063a1.756,1.756,0,0,0-.029-.252c-.036-.14-.137-.245-.4-.273-.137-.014-.852-.021-1.025-.021-.036,0-.043.028-.043.07v.552c0,.238-.007.881,0,1.083.014.482.13.587.866.587a1.883,1.883,0,0,0,.678-.084c.188-.084.274-.23.325-.517.014-.077.029-.105.079-.105s.058.056.058.126a5.3,5.3,0,0,1-.094.776c-.05.182-.115.182-.39.182-.541,0-.938-.014-1.249-.021s-.534-.021-.75-.021c-.08,0-.238,0-.411.007s-.353.014-.5.014c-.094,0-.144-.021-.144-.07s.029-.056.115-.056a1.2,1.2,0,0,0,.26-.028c.144-.028.18-.182.209-.384.036-.294.036-.846.036-1.489Z" transform="translate(-736.314 -804.475)"/><path class="b" d="M850.355,808.482c0-1.062,0-1.258-.015-1.482s-.072-.349-.31-.4a1.535,1.535,0,0,0-.281-.021c-.079,0-.123-.014-.123-.063s.05-.063.159-.063c.382,0,.837.021.989.021.245,0,.794-.021,1.017-.021a2.367,2.367,0,0,1,1.328.3,1.2,1.2,0,0,1,.491.958,1.947,1.947,0,0,1-.953,1.566c.642.783,1.14,1.4,1.566,1.838a1.451,1.451,0,0,0,.808.475,1.174,1.174,0,0,0,.2.021c.058,0,.086.021.086.056,0,.056-.05.07-.137.07H854.5a1.511,1.511,0,0,1-.772-.133,3.421,3.421,0,0,1-.989-1.027c-.289-.384-.62-.86-.714-.965a.153.153,0,0,0-.13-.049l-.628-.014c-.036,0-.058.014-.058.056v.1c0,.65,0,1.2.036,1.5.022.2.065.356.281.384a3.357,3.357,0,0,0,.354.028c.058,0,.087.021.087.056s-.051.07-.144.07c-.419,0-.953-.021-1.061-.021-.137,0-.592.021-.88.021-.094,0-.144-.021-.144-.07s.029-.056.115-.056a1.194,1.194,0,0,0,.26-.028c.144-.028.18-.182.209-.384.036-.294.036-.846.036-1.489Zm.851.552c0,.077.015.1.065.126a1.965,1.965,0,0,0,.548.07.739.739,0,0,0,.512-.119,1.215,1.215,0,0,0,.426-1.048,1.133,1.133,0,0,0-1.1-1.279,1.631,1.631,0,0,0-.382.028c-.051.014-.065.042-.065.1Z" transform="translate(-779.681 -805.007)"/></g></g></svg>