<svg xmlns="http://www.w3.org/2000/svg" width="89.896" height="75.92" viewBox="0 0 89.896 75.92"><defs><style>.a{fill:#3e3e3e;}</style></defs><g transform="translate(-565 -3541)"><g transform="translate(591.776 3541)"><path class="a" d="M58.859,33.54l-.664-.664-.08.077v0l-.712.7s-3.1,3.194-5.821,1.315-4.78-5.356-2.087-8.11c1.195-1.223,3.686-3.777,6.089-6.241v7.159h5.844V14.624l.037-.038V6.82l-5.79,5.692h-.091v.09l-9.407,9.247s-7,7.642-1.009,14.78S57.772,40.795,61.4,37.662l.806-.773-.01-.01.718-.739A16.173,16.173,0,0,1,58.859,33.54Z" transform="translate(-42.744 -4.204)"/><path class="a" d="M81.307,15.677,68.746,3.328V11.21c2.958,3.034,7.493,7.685,9.244,9.476,2.694,2.755.635,6.231-2.088,8.111s-5.821-1.315-5.821-1.315l-.794-.778-4.014,4.012.806.773c3.632,3.133,10.25,6.106,16.236-1.032S81.307,15.677,81.307,15.677Z" transform="translate(-48.396 -3.328)"/></g><g transform="translate(565 3587.242)"><path class="a" d="M18.514,78.885l-1.949-4.278H11.4l-1.95,4.278H7l6.3-13.733h1.366l6.26,13.733ZM15.593,72.5l-1.621-3.55L12.35,72.5Z" transform="translate(-7 -65.08)"/><path class="a" d="M27.972,78.915V65.273h2.27V76.79h6.083v2.126Z" transform="translate(-12.261 -65.11)"/><path class="a" d="M45.912,79.024a7.388,7.388,0,0,1-5.26-1.959,7.014,7.014,0,0,1,0-10.014,7.238,7.238,0,0,1,5.206-1.995,9.238,9.238,0,0,1,2.254.3,10.274,10.274,0,0,1,1.173.357,10.562,10.562,0,0,1,1.139.508l.234.121v2.633l-.654-.4a9.108,9.108,0,0,0-1.171-.611c-.348-.145-.707-.278-1.068-.394a6.527,6.527,0,0,0-2.069-.322A4.954,4.954,0,0,0,43.8,67.6a4.852,4.852,0,0,0-1.542,1.029,5.026,5.026,0,0,0-.037,6.856,4.8,4.8,0,0,0,3.526,1.34,6.342,6.342,0,0,0,2.214-.37c.364-.13.715-.273,1.051-.429s.726-.357,1.146-.591l.641-.356v2.478l-.214.125a8.272,8.272,0,0,1-1.122.551c-.372.149-.76.286-1.151.409A8.591,8.591,0,0,1,45.912,79.024Z" transform="translate(-14.915 -65.056)"/><path class="a" d="M67.428,78.885l-1.949-4.278H60.311l-1.949,4.278H55.914l6.3-13.733h1.366l6.26,13.733ZM64.507,72.5l-1.621-3.55L61.264,72.5Z" transform="translate(-19.271 -65.08)"/><path class="a" d="M87.8,78.915l-8.379-9.673v9.673H77.151V65.273H78.92l.129.154c.817.973,1.618,1.92,2.381,2.814s1.551,1.791,2.338,2.662c.716.787,1.441,1.6,2.154,2.425.461.531.927,1.073,1.391,1.618V65.273h2.271V78.915Z" transform="translate(-24.599 -65.11)"/><path class="a" d="M104.85,79.024a7.386,7.386,0,0,1-5.26-1.959,7.012,7.012,0,0,1,0-10.014,7.236,7.236,0,0,1,5.206-1.995,9.242,9.242,0,0,1,2.254.3,10.307,10.307,0,0,1,1.172.357,10.506,10.506,0,0,1,1.139.508l.234.121v2.633l-.655-.4a9.153,9.153,0,0,0-1.17-.611c-.348-.145-.707-.278-1.068-.394a6.532,6.532,0,0,0-2.07-.322,4.957,4.957,0,0,0-1.894.347,4.868,4.868,0,0,0-1.542,1.029,5.027,5.027,0,0,0-.036,6.856,4.793,4.793,0,0,0,3.525,1.34,6.339,6.339,0,0,0,2.214-.37c.364-.13.716-.273,1.052-.429s.725-.357,1.145-.591l.641-.356v2.478l-.214.125a8.323,8.323,0,0,1-1.123.551c-.372.149-.759.286-1.151.409A8.586,8.586,0,0,1,104.85,79.024Z" transform="translate(-29.701 -65.056)"/><path class="a" d="M116.09,78.915V65.273h8.047v2.108h-5.776V71h3.971V73.1h-3.971V76.79h5.9v2.126Z" transform="translate(-34.367 -65.11)"/></g><g transform="translate(591.642 3605.969)"><path class="a" d="M44.934,99.656a1.837,1.837,0,0,1-.395.772,1.956,1.956,0,0,1-.6.467,1.471,1.471,0,0,1-.754.144l-.526-.024-.1-.909.562.06a.786.786,0,0,0,.718-.395,1.932,1.932,0,0,0,.2-.551,3.5,3.5,0,0,0,.072-.754V90.2h.933v8.4A4.244,4.244,0,0,1,44.934,99.656Z" transform="translate(-42.565 -90.09)"/><path class="a" d="M48.985,98.669V90.2h4.761v.826H49.918v2.967H52.55v.826H49.918v3.015H53.83v.838Z" transform="translate(-44.176 -90.09)"/><path class="a" d="M65.123,98.649l-1.292-2.836H60.038l-1.292,2.836h-.993l3.912-8.531H62.2l3.888,8.531Zm-3.194-6.987-1.519,3.326h3.038Z" transform="translate(-46.375 -90.07)"/><path class="a" d="M78.518,98.669l-5.97-6.892v6.892h-.933V90.2h.754q.814.97,1.58,1.867t1.555,1.77q.718.79,1.423,1.6T78.351,97.1V90.2h.933v8.471Z" transform="translate(-49.853 -90.09)"/><path class="a" d="M89.808,96.407a2.165,2.165,0,0,1-.73,1.639,2.42,2.42,0,0,1-1.723.694A3.132,3.132,0,0,1,86,98.453q-.3-.131-.532-.251a2.425,2.425,0,0,1-.413-.264V96.826q.478.36.772.539a4.826,4.826,0,0,0,.533.287,2.216,2.216,0,0,0,.885.2,1.611,1.611,0,0,0,1.136-.431,1.368,1.368,0,0,0,.455-1.053,1.232,1.232,0,0,0-.419-1.005,4.986,4.986,0,0,0-1.435-.718,4.608,4.608,0,0,1-.9-.389,2.945,2.945,0,0,1-.622-.461,1.972,1.972,0,0,1-.515-1.459,2.1,2.1,0,0,1,.73-1.6,2.469,2.469,0,0,1,1.747-.682,3.573,3.573,0,0,1,1.28.216,3.822,3.822,0,0,1,.766.371l.024,1.041c-.208-.12-.385-.217-.533-.294s-.3-.153-.461-.233a2.315,2.315,0,0,0-1-.215,1.747,1.747,0,0,0-.617.1,1.6,1.6,0,0,0-.5.3,1.284,1.284,0,0,0-.454.969,1.142,1.142,0,0,0,.347.9,4.472,4.472,0,0,0,1.291.658,7.665,7.665,0,0,1,1.065.473,2.5,2.5,0,0,1,.682.521A2.211,2.211,0,0,1,89.808,96.407Z" transform="translate(-53.198 -90.054)"/></g></g></svg>