<svg xmlns="http://www.w3.org/2000/svg" width="130.984" height="18.125" viewBox="0 0 130.984 18.125"><defs><style>.a{fill:#3e3e3e;}</style></defs><g transform="translate(-713 -3570)"><path class="a" d="M250.265,72.038H237.284v.333c.6.049.79.79.79.79v15.9a1.41,1.41,0,0,0-.79,1.1h4.664c0-.525-.886-1.1-.886-1.1V82.245l8.224.12s5.737.1,5.953-4.924C255.484,71.746,250.265,72.038,250.265,72.038Zm.049,8.128H241.23V74.525h8.414a2.573,2.573,0,0,1,2.918,2.341A3.112,3.112,0,0,1,250.315,80.166Z" transform="translate(475.716 3497.966)"/><path class="a" d="M259.1,73.235a.69.69,0,0,1,.405-.837v-.363h-5l.023.363s1.076.094.431,1.146-7.364,15.97-7.364,15.97a1.411,1.411,0,0,1-.645.122v.525h4.326s.167-.621-.574-.6l1.673-4.3h9.658l1.746,3.944s.073.478-.86.455v.5h4.948v-.5H267.2Zm-5.786,9.754,3.718-8.034,3.718,8.034Z" transform="translate(486.682 3497.965)"/><path class="a" d="M271.658,72.038H258.677v.333c.6.049.79.79.79.79v15.9a1.41,1.41,0,0,0-.79,1.1h4.662c0-.525-.884-1.1-.884-1.1V82.245l8.224.12s5.737.1,5.953-4.924C276.875,71.746,271.658,72.038,271.658,72.038Zm-.094,7.985h-9.084V74.38H270.9a2.573,2.573,0,0,1,2.916,2.344A3.112,3.112,0,0,1,271.565,80.023Z" transform="translate(499.984 3497.966)"/><path class="a" d="M280.464,73.235a.691.691,0,0,1,.406-.837v-.363h-5l.026.363s1.076.094.429,1.146-7.364,15.97-7.364,15.97a1.411,1.411,0,0,1-.645.122v.525h4.326s.169-.621-.574-.6l1.673-4.3h9.66l1.744,3.944s.073.478-.86.455v.5h4.948v-.5h-.668Zm-5.786,9.754,3.718-8.034,3.718,8.034Z" transform="translate(510.922 3497.965)"/><path class="a" d="M309.1,89.659,301,73.235a.69.69,0,0,1,.406-.837v-.363h-5l.026.363s1.076.094.429,1.146-7.364,15.97-7.364,15.97a1.411,1.411,0,0,1-.645.122v.525h4.326s.169-.621-.574-.6l1.673-4.3h9.66l1.744,3.944s.073.478-.86.455v.5h4.95v-.5Zm-13.891-6.67,3.718-8.034,3.718,8.034Z" transform="translate(534.214 3497.965)"/><path class="a" d="M293.384,72.445s.7.2.717.376l-5.406,7.37-5.387-7.135a1.233,1.233,0,0,1,.751-.593v-.427h-5.074v.517l.143.06s.574-.047,1.244.958l6.6,8.988V89.2s-.006.329-.615.418v.538h4.393v-.484s-.79-.179-.79-.61V82.594l7.782-9.983h.521v-.576h-4.877Z" transform="translate(523.022 3497.965)"/></g></svg>