<svg xmlns="http://www.w3.org/2000/svg" width="135.504" height="14.672" viewBox="0 0 135.504 14.672"><defs><style>.a{fill:#3e3e3e;}</style></defs><g transform="translate(-900.999 -3572)"><path class="a" d="M361.257,84.241c.092-1.125.066-7.6-.023-8.215a1.5,1.5,0,0,0-.882-.107q-3.519-.01-7.037,0c-.22,0-.442,0-.662-.013a.731.731,0,0,1-.657-.429,2.22,2.22,0,0,1-.019-2.07.805.805,0,0,1,.715-.489c.22-.011.44-.011.662-.011H371.9c.164,0,.331.009.5,0a.893.893,0,0,1,.948.647,2.31,2.31,0,0,1-.092,1.925.733.733,0,0,1-.657.431c-.22.006-.442.009-.662.009q-3.477,0-6.954,0c-.3,0-.6.017-.937.03a2.319,2.319,0,0,0-.081.42q-.006,3.768,0,7.534a1.47,1.47,0,0,0,.036.239c.209.211.472.139.709.139,2.4.006,4.8,0,7.2,0,.222,0,.442,0,.662,0a.74.74,0,0,1,.623.348,2.3,2.3,0,0,1,.006,2.286.731.731,0,0,1-.617.359c-.192,0-.386,0-.578,0h-18.8c-.081,0-.164,0-.248,0-.706-.013-.924-.181-1.129-.843a2.23,2.23,0,0,1,.047-1.462.887.887,0,0,1,.988-.694c.5-.011.992,0,1.49,0q3.022,0,6.045,0C360.675,84.279,360.944,84.256,361.257,84.241Z" transform="translate(617.849 3499.221)"/><path class="a" d="M341.117,72.887c2.124,0,4.25.03,6.375-.011a3.285,3.285,0,0,1,3.022,1.673,7.678,7.678,0,0,1,.992,2.529,13.515,13.515,0,0,1-.252,6.95,6.6,6.6,0,0,1-.939,1.927,3.267,3.267,0,0,1-2.809,1.471q-6.5-.013-13,0A3.276,3.276,0,0,1,331.7,85.95a7.305,7.305,0,0,1-1.15-2.726,13.316,13.316,0,0,1,.188-6.711,6.749,6.749,0,0,1,1.029-2.154,3.353,3.353,0,0,1,2.892-1.481C336.81,72.906,338.964,72.887,341.117,72.887Zm-.1,11.528h4.3c.717,0,1.434-.023,2.149,0a1.542,1.542,0,0,0,1.575-.978,6.475,6.475,0,0,0,.414-1.165,10.019,10.019,0,0,0,.111-3.7,4.861,4.861,0,0,0-.606-1.876,1.531,1.531,0,0,0-1.417-.822q-6.451.019-12.9,0a1.526,1.526,0,0,0-1.469.871,4.148,4.148,0,0,0-.4.992,11.882,11.882,0,0,0-.284,1.71,8.185,8.185,0,0,0,.438,3.584,1.71,1.71,0,0,0,1.97,1.377Q337.956,84.419,341.015,84.415Z" transform="translate(593.435 3499.192)"/><path class="a" d="M394.5,87.433a11.712,11.712,0,0,1-2.047,0,1.952,1.952,0,0,1-.1-.928c0-2.813,0-5.628-.006-8.442A5.571,5.571,0,0,0,392.252,77a1.4,1.4,0,0,0-1.464-1.3c-.192-.015-.386-.015-.578-.015q-5.753,0-11.5,0c-.111,0-.222.006-.333,0a2.276,2.276,0,0,0-2.107,1.219,5.166,5.166,0,0,0-.685,1.938,7.827,7.827,0,0,0,.241,3.761,5.234,5.234,0,0,0,.525,1.116,1.964,1.964,0,0,0,1.793.98c2.565-.021,5.131-.009,7.7-.009.745,0,1.492.034,2.235-.009a1.054,1.054,0,0,1,1.165,1.02A1.973,1.973,0,0,1,389.081,87a.832.832,0,0,1-.783.512c-.137,0-.275,0-.414,0q-5,0-10.012,0a5.25,5.25,0,0,1-1.067-.094,3.665,3.665,0,0,1-2.113-1.362,6.475,6.475,0,0,1-1.18-2.26,11.9,11.9,0,0,1-.015-7.007,6.955,6.955,0,0,1,.907-1.942A4.1,4.1,0,0,1,378,72.858c3.669.015,7.338,0,11.007-.009.8,0,1.6.009,2.4.019a2.768,2.768,0,0,1,2.977,2.519,8,8,0,0,1,.162,1.477c.015,3.336.011,6.674.011,10.012C394.553,87.036,394.523,87.2,394.5,87.433Z" transform="translate(641.949 3499.161)"/><path class="a" d="M329.156,75.757a5.137,5.137,0,0,0-.6-.073q-2.565-.006-5.131,0c-.111,0-.22,0-.331.011a1.021,1.021,0,0,0-1,.832,5.018,5.018,0,0,0-.126,1.144c-.011,2.538,0,5.076,0,7.613,0,.222,0,.442-.006.664a2.5,2.5,0,0,1-.053.491,1.167,1.167,0,0,1-1.059.9,1.094,1.094,0,0,1-1.125-.8,2.327,2.327,0,0,1-.113-.728q-.006-4.553,0-9.1a6.851,6.851,0,0,1,.333-2.117,2.528,2.528,0,0,1,.8-1.232,2.022,2.022,0,0,1,1.131-.467c.329-.026.659-.036.99-.036q7.2,0,14.4,0c.25,0,.5,0,.745.013a2.591,2.591,0,0,1,2.079,1.18,4.25,4.25,0,0,1,.719,1.919,12.838,12.838,0,0,1,.117,1.565q.016,3.973,0,7.946a4.083,4.083,0,0,1-.1.982,1.069,1.069,0,0,1-1.14.877,1.146,1.146,0,0,1-1.033-1.018,6.115,6.115,0,0,1-.038-.907c0-2.593,0-5.187-.006-7.78a6.107,6.107,0,0,0-.07-.988,1.039,1.039,0,0,0-.943-.9,4.275,4.275,0,0,0-.66-.056q-2.481-.006-4.965,0a3.739,3.739,0,0,0-.474.053,1.511,1.511,0,0,0-.113.909q-.01,4.345,0,8.689c0,.25.006.5-.011.745-.051.749-.478,1.246-1.063,1.257s-1.039-.474-1.1-1.217c-.021-.248-.013-.5-.013-.745q0-4.345,0-8.689C329.186,76.389,329.169,76.092,329.156,75.757Z" transform="translate(581.399 3499.167)"/><path class="a" d="M364.9,75.713V76.7q0,4.345,0,8.689a6.79,6.79,0,0,1-.034.909,1.17,1.17,0,0,1-1.18,1.054,1.188,1.188,0,0,1-1.161-1.08,4.894,4.894,0,0,1-.028-.662q0-5.5,0-11a3.987,3.987,0,0,1,.092-.984.917.917,0,0,1,1.016-.775c.111,0,.22,0,.331,0q7.655.013,15.31.026a7.647,7.647,0,0,1,1.968.194,3.022,3.022,0,0,1,2.277,2.175,7.613,7.613,0,0,1,.245,1.3,9.495,9.495,0,0,1,.043,1.157q.006,3.928,0,7.861a5.068,5.068,0,0,1-.036.743,1.215,1.215,0,0,1-.96,1.016,1.231,1.231,0,0,1-1.332-.615,2.307,2.307,0,0,1-.2-.788,9.6,9.6,0,0,1-.011-.993c0-2.4,0-4.8-.007-7.2a5.714,5.714,0,0,0-.122-1.144,1.1,1.1,0,0,0-.973-.89,4.761,4.761,0,0,0-.738-.06q-6.871.006-13.737.026C365.448,75.653,365.235,75.685,364.9,75.713Z" transform="translate(630.059 3499.156)"/><path class="a" d="M352.947,72.855h8.109c.22,0,.442.011.662,0a.93.93,0,0,1,.98.721,1.992,1.992,0,0,1,.043,1.221c-.179.638-.5.911-1.116.884-.22-.009-.442,0-.662,0l-15.391,0c-.275,0-.551.013-.826.034a1.1,1.1,0,0,0-1.025.828,3.355,3.355,0,0,0-.152.724c-.034.412-.043.826-.045,1.24,0,2.288,0,4.578,0,6.866a4.894,4.894,0,0,1-.075.986,1.231,1.231,0,0,1-2.393.079,2.655,2.655,0,0,1-.1-.732q-.006-4.3,0-8.606a6.486,6.486,0,0,1,.3-1.957,3.045,3.045,0,0,1,2.922-2.271c.3-.017.606-.015.909-.015Z" transform="translate(605.622 3499.166)"/></g></svg>