<svg xmlns="http://www.w3.org/2000/svg" width="164.672" height="24.059" viewBox="0 0 164.672 24.059"><defs><style>.a{fill:#3e3e3e;fill-rule:evenodd;}</style></defs><path class="a" d="M48.651,109.435H49.68l10.889,24.053-4.044-.009-3.411-8.059-9.7,0-3.786,8.075-2.181,0ZM44.108,123.9l4.161-9.232,3.868,9.234ZM84.2,109.435l0,24.053h16.024v-1.523H88.1v-10.9h8.255v-1.653l-8.255,0v-8.28l12.126.021,0-1.721Zm75.423,0v24.053h4.264V122.217h2.467l7.787,11.271H178.8l-8.182-11.271c7.4-1.859,8.022-11.877-1.84-12.784Zm4.264,1.719v9.59l2.4,0c7.576,0,7.176-9.588.761-9.593ZM58.251,109.435l10.974,24.048,1.76,0,10.29-24.044h-2.1l-7.91,19.089-8.5-19.089Zm86.737,0h1.029l10.889,24.053-4.042-.009-3.413-8.059-9.7,0-3.788,8.072-2.179,0ZM140.445,123.9l4.161-9.232,3.868,9.234ZM190.2,109.435h1.029l10.887,24.053-4.042-.009-3.413-8.059-9.7,0-3.786,8.072-2.179,0ZM185.656,123.9l4.161-9.232,3.866,9.234Zm-71.2-14.469,0,24.053h4.268l0-11.271h2.467l7.787,11.271h4.657l-8.184-11.271c7.4-1.859,8.024-11.877-1.836-12.784Zm4.266,1.719v9.59l2.4,0c7.576,0,7.181-9.588.766-9.593Zm0,0" transform="translate(-37.442 -109.433)"/></svg>