<svg xmlns="http://www.w3.org/2000/svg" width="163.234" height="56.393" viewBox="0 0 163.234 56.393"><defs><style>.a{fill:#3e3e3e;}</style></defs><path class="a" d="M221.9,443.068c-4.925.334-10.735-.843-13.264-1.278l-1.11-.417c-.453-.076-.141.571-.063.119s.525-.428.977-.35l.539-.087c3.133.539,11.4,1.249,16.291-.216,5.631-1.684,10.65-7.223,15.345-16.934a.831.831,0,0,1,1.5.723c-4.91,10.154-10.262,15.977-16.364,17.8a17.863,17.863,0,0,1-3.847.637" transform="translate(-175.737 -409.792)"/><path class="a" d="M38.967,522.749a22.788,22.788,0,0,1-6.055-.557c-4.661-.942-10.163-1.494-16.626,1.771a.665.665,0,0,1-.6-1.187c6.843-3.456,12.634-2.513,17.514-1.526,2.878.583,3.467,1.046,5.766,1.5" transform="translate(-15.322 -490.772)"/><path class="a" d="M481.75,365.6a1,1,0,0,0-1.335-.455c-6.065,2.985-16.141,4.79-19.488,1.264a4.7,4.7,0,0,1-.5-1.3c-.225-.928-.309-1.89-.5-2.83a5.529,5.529,0,0,0-2.308-3.769c-1.062-.647-4.542-.563-5.457.309a7.9,7.9,0,0,0-1.773,2.538,12.679,12.679,0,0,1-2.344,3.9,3.1,3.1,0,0,1-5.146-.719c-.4-.722-.442-1.224.371-1.714,1.728-1.04,2.813-1.882,2.966-3.648a3.17,3.17,0,0,0-1.487-2.91,2.782,2.782,0,0,0-3.333,1.007,6.723,6.723,0,0,0-1.105,2.769c-.4,2.011-1.069,1.075-1.271.992-1.151-.473-2.115-.178-3.714,3.417-.159.358-.645,2.258-1.2,2.382-.653.145-1.956-3.073-2.735-4.225-1.385-2.047-3.32,1.781-3.918,2.743-.348.56-.918,1.794-1.749,1.517-.793-.266-.639-1.415-.622-2.229.025-1.348.127-2.7.157-4.045.012-.526-.057-1.122-.665-1.294-.639-.181-.954.318-1.159.816a1.316,1.316,0,0,1-.9.87,25.946,25.946,0,0,1-4.35.864,1.438,1.438,0,0,1-1.726-.991,4.623,4.623,0,0,0-2.568-2.252,2.046,2.046,0,0,0-2.358.673,1.835,1.835,0,0,0,.051,2.308,5.027,5.027,0,0,0,2.743,1.9c.422.148.859.236.923.78a5.421,5.421,0,0,1-.225,2.832,1.386,1.386,0,0,1-2.42.482,3.591,3.591,0,0,1-.886-1.579c-.348-1.077-.625-2.181-1.035-3.233-.675-1.738-1.678-2.062-3.279-1.11a9.392,9.392,0,0,0-2.663,2.842c-.787,1.1-3.065,4.453-4.617,3.047-1.894-1.716-2.818-5.055-1.883-6.829a39.476,39.476,0,0,0,3.782-10.133,11.771,11.771,0,0,0,.122-5.819,2.676,2.676,0,0,0-2.255-2.095,2.648,2.648,0,0,0-2.672,1.282,8.16,8.16,0,0,0-1.24,3.275,36.892,36.892,0,0,0-.441,10.81c.285,3.126-.938,5.37-2.9,7.471-.417.446-.85.876-1.281,1.308a9.448,9.448,0,0,1-4.65,2.238c-1.124.279-1.72-.142-1.811-1.346-.235-3.083-.517-6.162-.785-9.242a4.57,4.57,0,0,1,.512-2.518,40.328,40.328,0,0,0,2.822-7.307c.572-2.05,1.18-4.136.682-6.3-.465-2.021-2.354-2.562-3.874-1.15a6.133,6.133,0,0,0-1.631,3.216,40.049,40.049,0,0,0-.713,10.791c.032,1.04.168,2.606.373,4.781-.272-2.891.539,5.569.813,8.246.06.594-.1.811-.724.634a2.29,2.29,0,0,1-1.911-1.9c-.083-.561-.233-1.064-.9-1.074s-1,.461-1.2,1.027a2.485,2.485,0,0,0,.62,2.4,4.917,4.917,0,0,0,3.2,1.624,2.1,2.1,0,0,1,.6.16c-.973,2.953-3.2,11.085-1.071,18.458,1.293,4.482,2.868,6.835,4.814,7.191a2.746,2.746,0,0,0,.474.043c.868,0,1.7-1.187,1.949-2.065.724-2.542.217-6.891-3.349-22.539-.213-.931.18-1.219,1.005-1.4a13.711,13.711,0,0,0,8.227-5.182c.368-.479.733-.959,1.221-1.6a30.448,30.448,0,0,0,1.68,3.342c1.468,2.156,2.752,2.521,4.01,2.559,1.806.057,4.442-4.3,5.13-5.092,1.362-1.567,1.8-1.487,2.5.428a13.657,13.657,0,0,0,1.435,3.211,3.546,3.546,0,0,0,3.733,1.612c1.53-.254,2.06-1.484,2.376-2.8a7.111,7.111,0,0,0,.264-2.067c-.079-1.209.464-1.583,1.587-1.687a12.55,12.55,0,0,0,3.175-.718c.931-.347,1.215-.245,1.145.788a11.7,11.7,0,0,0,.547,4.516c.7,2.1,1.739,2.372,3.284.829a13.818,13.818,0,0,0,1.335-1.6c.675-.911,1.67-2.729,2.148-2.75.6-.026,1.021,2.3,1.929,3.407,1.823,2.23,2.827,1.986,3.928-.671.4-.965.741-1.961,1.218-2.888.794-1.543,1.17-2.311,2.338-1.205a7.989,7.989,0,0,1,1.158,1.608,7.673,7.673,0,0,0,1.284,1.8,5.019,5.019,0,0,0,7.05-.07,18.449,18.449,0,0,0,2.925-4.473,2.905,2.905,0,0,1,4.083-1.467c1.33.567,1.464,2.186,1.572,2.969a10.67,10.67,0,0,0,.92,3.254c.011.024.343.6.476.782,1.435,1.987,4.28,2.735,7.987,2.735q.975,0,2.038-.089a35.367,35.367,0,0,0,11.981-3.338,1,1,0,0,0,.455-1.335m-38.719-6.551c.294-.786.784-1.439,1.221-1.526s.894.673.642,1.932c-.294,1.47-1.562,2.1-1.863,1.906s-.524-.916,0-2.312m-58.663-13.529a6.364,6.364,0,0,1,.388-1.245c.225-.489.558-1.2,1.088-1.067.466.117.414.942.357,1.476a26.429,26.429,0,0,1-2.244,8.26,24.8,24.8,0,0,1,.411-7.424m2.823,48.859a.323.323,0,0,1-.234.061c-.541-.1-1.778-1.374-2.975-5.525-1.3-4.513-.624-10.569.132-14.155,1.527,3.752,4.274,19.234,3.077,19.619m10.3-36.164a31.329,31.329,0,0,1,.523-11.618,3.139,3.139,0,0,1,.312-.714c.239-.42.51-.882,1.074-.8.645.1.74.646.784,1.188a22.493,22.493,0,0,1-1.2,8.325,17.949,17.949,0,0,1-1.49,3.616m18.205,4.087c-.318.336-2.371-.278-2.8-1.259-.413-.95-.095-1.573.344-1.619.7-.077,2.726,2.624,2.452,2.878" transform="translate(-318.618 -340.411)"/><path class="a" d="M130.635,405.59c-1.412-2.256-4.2-2.463-5.03-2.473l-.759,0,.37-.522c.276-.389.532-.8.78-1.189l.2-.31a37.375,37.375,0,0,0,2.708-5.1.427.427,0,0,0-.342-.595,18.71,18.71,0,0,0-5.668.159l-.431.084.043-.437a16.943,16.943,0,0,0-.214-4.966.426.426,0,0,0-.239-.3l-.073-.022a.768.768,0,0,0-.12-.011.383.383,0,0,0-.185.045,16.722,16.722,0,0,0-3.631,2.664l-.4.382-.143-.534a22.459,22.459,0,0,0-3.85-7.873,1.907,1.907,0,0,0-1.281-.8c-1.63,0-3.78,4.534-4.613,8.588l-.118.577-.428-.4a20.153,20.153,0,0,0-3.691-2.791.431.431,0,0,0-.4-.013l-.02-.014,0,.024-.016.009a.434.434,0,0,0-.2.372,36.109,36.109,0,0,0,.439,4.812l.071.448-.448-.072a12.341,12.341,0,0,0-5.429.33.426.426,0,0,0-.275.569,20.426,20.426,0,0,0,3.574,5.8l.49.562-1.006-.025v0a6.017,6.017,0,0,0-4.918,2.359l-.087.15a.422.422,0,0,0,.034.388.429.429,0,0,0,.353.2h.018l.018,0c.076-.008.139-.007.222-.012a12.523,12.523,0,0,1,3.423,1.1c2.227.912,5,2.046,7.77,2.077l1.281-.008c.15,0,.353,0,.59,0,.336,0,.74.008,1.158.008l.915.017a3.116,3.116,0,0,0,1.318,2.113.654.654,0,0,0,.3.119l.055,0a.678.678,0,0,0,.315-.085,2.789,2.789,0,0,0,1.375-2.045c.187.008-.129.023.02.007l.041,0,.057.008c.276.047.263.056.6.1.609.077,1.449.1,2.428.132.316.008.628.017.96.03l.377.005a22.073,22.073,0,0,0,7.643-1.884l.081-.032a12.6,12.6,0,0,1,3.406-1.011,1.235,1.235,0,0,1,.2.014l.048,0a.424.424,0,0,0,.419-.576Zm-17.009,2.317-.1-.016a.266.266,0,0,1-.047-.013l-.218-.08,0-.232c0-.254,0-.528-.019-.811l-.009-.154.112-.1a15.177,15.177,0,0,0,4.34-7.784l.053-.163.1-.06a16.071,16.071,0,0,1,3.04-1.486l.557-.2-.126.579a17.86,17.86,0,0,1-5.61,9.826c-.04.035-.081.068-.132.107l-.037.03-.062.025c-.569.184-1.169.36-1.781.522Zm1.142-20.05a23.7,23.7,0,0,1,2.136,5.735l.034.159-.108.124a22.141,22.141,0,0,0-4.27,7.454l-.411,1.219-.222-1.269a15.087,15.087,0,0,0-1.726-5.052,15.843,15.843,0,0,0-1.734-2.374l-.1-.112.02-.148a22.207,22.207,0,0,1,1.689-5.8c.8-1.8,1.586-2.946,2.154-3.133l.128-.042.121.06C113.109,385,114.105,386.589,114.767,387.858Zm1.6,12.405a14.259,14.259,0,0,1-2.805,4.8l-.431.48-.133-.631c-.063-.3-.143-.615-.236-.933l-.02-.066.012-.092c.054-.255.114-.514.184-.791l.012-.048.036-.059a14.809,14.809,0,0,1,2.865-3.026l.893-.723Zm-5.131,2.181c.059.446.109.911.148,1.384l.007.075-.04.1c-.17.338-.325.688-.461,1.042l-.258.669-.337-.635a13.691,13.691,0,0,1-1.233-3.635c-.1-.5-.209-1.028-.307-1.558l-.208-1.112.769.828a11.573,11.573,0,0,1,1.89,2.741Zm.809,2.162a8.085,8.085,0,0,1,.428,3.016l-.308-.046-.9-1.074A8.33,8.33,0,0,1,112.045,404.605Zm5.1-7.947c-.037.408-.092.822-.162,1.23l-.048.167-.2.133a20.182,20.182,0,0,0-1.929,1.474l-1.177,1.024.667-1.412a21.026,21.026,0,0,1,2.289-3.771l.559-.733.029.922A7.81,7.81,0,0,1,117.146,396.658Zm-6.826,1.851.525,1.446-1.068-1.107a11.742,11.742,0,0,0-1.138-1.035l-.24-.212-.012-.111c-.059-.545-.1-1.052-.113-1.55l-.033-1.092.629.893c.214.305.415.615.6.921A11.008,11.008,0,0,1,110.32,398.509Zm-2.094,3.1c.092.448.2.876.308,1.272l.369,1.314-.926-1c-.6-.648-1.079-1.191-1.388-1.568a11.47,11.47,0,0,1-1.965-4.481l-.15-.6.583.219a11.34,11.34,0,0,1,2.41,1.249l.135.116.016.119C107.761,399.287,107.965,400.345,108.226,401.611Zm-.742-7.566-.014.149c-.028.3-.046.566-.051.8-.011.448,0,.917.02,1.394l.032.586-.516-.282a12.415,12.415,0,0,0-2.463-1.02l-.2-.058-.035-.2a37.519,37.519,0,0,1-.46-3.832l-.048-.69.564.4a21.086,21.086,0,0,1,3.065,2.643Zm-3.878,2.471a13.458,13.458,0,0,0,2.323,5.652c.74.9,2.683,3,4.175,4.451l1.091,1.061-1.431-.518a20.324,20.324,0,0,1-7.34-4.665,19.8,19.8,0,0,1-4.052-5.785l-.169-.372.4-.085a11.684,11.684,0,0,1,4.75.01l.208.043Zm-.052,8.127a21.493,21.493,0,0,0,4.4,2.7l1.264.576-2.033.055a21.3,21.3,0,0,1-7.512-2.018A26.7,26.7,0,0,0,97.115,405l-.637-.182.533-.4a5.81,5.81,0,0,1,3.391-1.011h.11a4.719,4.719,0,0,1,1.842.352l.048.024C102.785,404.1,103.157,404.375,103.554,404.643Zm9.728,4.072.379.093a1.99,1.99,0,0,1-.877,1.416,2.359,2.359,0,0,1-.881-1.406A8.414,8.414,0,0,0,113.282,408.715Zm8.282-17.738.063.515a17.113,17.113,0,0,1-.021,4.169l-.027.212-.2.061a16.025,16.025,0,0,0-2.906,1.207l-.538.287.065-.688a10.351,10.351,0,0,0-.127-2.566l-.025-.162.112-.119a16.908,16.908,0,0,1,3.171-2.637Zm1.6,12.609a18.99,18.99,0,0,1-3.557,2.152c-.258.12-.523.24-.79.356l-1.193.525.8-1.026a20.307,20.307,0,0,0,3.859-8.818l.038-.213.21-.048a16.53,16.53,0,0,1,4.871-.359l.481.03-.205.436a36.647,36.647,0,0,1-2.208,4.022l-.191.3A9.741,9.741,0,0,1,123.164,403.586Zm-6.026,4.106c.945-.35,1.9-.747,2.829-1.181a19.868,19.868,0,0,0,3.633-2.183l.1-.059a4.747,4.747,0,0,1,1.8-.306h.071a5.833,5.833,0,0,1,3.444,1.088l.523.407-.641.168a25.846,25.846,0,0,0-2.551.887,21.78,21.78,0,0,1-7.47,1.859l-3.292-.105Z" transform="translate(-82.121 -376.661)"/></svg>