<svg xmlns="http://www.w3.org/2000/svg" width="133" height="47.96" viewBox="0 0 133 47.96"><defs><style>.a{fill:#040405;}</style></defs><g transform="translate(-316 -3645)"><g transform="translate(425.335 3657.331)"><path class="a" d="M621.007,81.58c-.53.47-1.029.99-1.586,1.44a1.318,1.318,0,0,1-.911.146c-.911-.089-1.792-.265-2.675-.295a6.073,6.073,0,0,0-2.722.765,24.717,24.717,0,0,0-8.023,6.083,4.134,4.134,0,0,0-1.116,2.262,3.08,3.08,0,0,0,.354,1.705,7.8,7.8,0,0,0,1.764,2.556c.47.441.53.441,1.086.089a47.744,47.744,0,0,1,11.9-5.378,3.48,3.48,0,0,1,.794-.176,57.442,57.442,0,0,0-12.636,6.407c.146.248.265.411.381.589.146.248.324.441.47.676a1.544,1.544,0,0,1-.307,2.162l-.018.013a13.332,13.332,0,0,1-1.98,1.411,14.072,14.072,0,0,1-4.408,1.792,1.739,1.739,0,0,1-.381.059,7.063,7.063,0,0,0-2.351.265c-.248.089-.53-.059-.794-.089.116-.265.146-.589.324-.765.765-.742,1.557-1.44,2.381-2.146,1.146-.94,2.321-1.881,3.5-2.791.265-.206.295-.354.089-.589-.559-.705-1.146-1.381-1.675-2.086a3.813,3.813,0,0,1-.794-2.722,5.049,5.049,0,0,1,1.116-2.41,17.8,17.8,0,0,1,3.586-3.381,38.145,38.145,0,0,1,8.414-4.907,19.954,19.954,0,0,1,5.2-1.351.99.99,0,0,1,1.029.324Zm-15.9,17.251a3.138,3.138,0,0,0-.381.248c-1.292,1.059-2.616,2.116-3.88,3.175a3.59,3.59,0,0,0-.589.742c-.176.265-.059.47.248.47a5.4,5.4,0,0,0,.97-.089,14.671,14.671,0,0,0,3.937-1.705,1.56,1.56,0,0,0,.354-.295,1.009,1.009,0,0,0,.205-1.351,7.929,7.929,0,0,0-.864-1.193Z" transform="translate(-597.557 -80.671)"/><path class="a" d="M597.244,103.524a1.666,1.666,0,0,1-.407-.069,1.767,1.767,0,0,0-.241-.051l-.273-.031.111-.252a2.332,2.332,0,0,0,.092-.269,1.253,1.253,0,0,1,.275-.559c.835-.81,1.677-1.544,2.392-2.155,1.2-.982,2.374-1.923,3.5-2.8.136-.106.144-.151.145-.156s0-.041-.085-.139c-.222-.279-.441-.547-.66-.813-.342-.417-.7-.849-1.025-1.285a4,4,0,0,1-.835-2.863,5.266,5.266,0,0,1,1.163-2.522,18.01,18.01,0,0,1,3.624-3.415,38.371,38.371,0,0,1,8.452-4.929,20.183,20.183,0,0,1,5.252-1.365,1.174,1.174,0,0,1,1.211.4l.048.059-.014.5-.066.058c-.2.179-.4.366-.6.554-.319.3-.647.611-1,.893a1.525,1.525,0,0,1-1.078.187c-.33-.031-.677-.078-1.021-.125a15.941,15.941,0,0,0-1.622-.166,5.893,5.893,0,0,0-2.616.739,24.4,24.4,0,0,0-7.969,6.039,3.919,3.919,0,0,0-1.068,2.159,2.854,2.854,0,0,0,.332,1.579A7.6,7.6,0,0,0,605,95.237c.375.352.375.354.837.063a47.954,47.954,0,0,1,11.954-5.4,3.632,3.632,0,0,1,.831-.183l.089.393a57.282,57.282,0,0,0-12.431,6.276c.061.1.116.179.171.259l.105.159a3.939,3.939,0,0,0,.243.353c.079.106.159.212.23.327a1.746,1.746,0,0,1-.357,2.431,13.723,13.723,0,0,1-2.017,1.437,14.242,14.242,0,0,1-4.466,1.814,1.918,1.918,0,0,1-.416.064,6.864,6.864,0,0,0-2.3.257A.648.648,0,0,1,597.244,103.524Zm-.355-.474.048.012a.757.757,0,0,0,.407.038,7.356,7.356,0,0,1,2.431-.276,1.527,1.527,0,0,0,.316-.053A13.86,13.86,0,0,0,604.446,101a13.223,13.223,0,0,0,1.954-1.392,1.352,1.352,0,0,0,.294-1.9c-.075-.12-.147-.216-.219-.313a4.255,4.255,0,0,1-.263-.382l-.1-.146c-.086-.129-.178-.264-.284-.443l-.1-.165.159-.107a57.626,57.626,0,0,1,7.674-4.356,47.562,47.562,0,0,0-7.515,3.842c-.632.4-.8.39-1.333-.112a7.972,7.972,0,0,1-1.812-2.625,3.244,3.244,0,0,1-.369-1.8,4.316,4.316,0,0,1,1.172-2.386,24.749,24.749,0,0,1,8.082-6.125,6.283,6.283,0,0,1,2.8-.784,16.448,16.448,0,0,1,1.678.169c.339.046.68.092,1.025.126a1.134,1.134,0,0,0,.79-.12c.31-.254.633-.559.945-.854.18-.17.359-.339.541-.5l0-.173a.788.788,0,0,0-.77-.2,19.919,19.919,0,0,0-5.175,1.344,37.973,37.973,0,0,0-8.367,4.881,17.612,17.612,0,0,0-3.551,3.347,4.858,4.858,0,0,0-1.076,2.318,3.6,3.6,0,0,0,.754,2.563c.325.432.677.86,1.017,1.274.22.268.441.537.658.811a.594.594,0,0,1,.176.437.671.671,0,0,1-.3.438c-1.127.873-2.3,1.811-3.493,2.788-.706.6-1.543,1.333-2.368,2.134a.982.982,0,0,0-.17.386C596.905,103,596.9,103.023,596.889,103.05Zm2.38-.241a.519.519,0,0,1-.483-.243.5.5,0,0,1,.067-.542,3.726,3.726,0,0,1,.617-.776c.818-.686,1.65-1.361,2.482-2.037.471-.383.944-.766,1.411-1.149a3.369,3.369,0,0,1,.412-.269l.3-.165v.27a8.165,8.165,0,0,1,.835,1.165,1.216,1.216,0,0,1-.253,1.613,1.6,1.6,0,0,1-.376.309,14.867,14.867,0,0,1-3.99,1.728A5.63,5.63,0,0,1,599.268,102.81Zm4.558-4.576q-.109.069-.213.147c-.462.379-.935.763-1.407,1.146-.83.674-1.66,1.348-2.466,2.023a3.383,3.383,0,0,0-.544.691c-.056.084-.056.128-.053.134a.19.19,0,0,0,.126.029,5.235,5.235,0,0,0,.934-.086,14.448,14.448,0,0,0,3.867-1.678,1.357,1.357,0,0,0,.31-.257.825.825,0,0,0,.189-1.1A7.815,7.815,0,0,0,603.827,98.233Z" transform="translate(-596.322 -79.812)"/></g><g transform="translate(316 3645)"><path class="a" d="M53.68,45.115c-.411-.53-.794-1.029-1.176-1.529-2.44-3.086-4.88-6.172-7.261-9.258a10.069,10.069,0,0,1-2-4.143A6.03,6.03,0,0,1,45.065,24.4,19.2,19.2,0,0,1,49.738,21.1a32.724,32.724,0,0,1,11.2-3.616,31.27,31.27,0,0,1,5.731-.324,7.534,7.534,0,0,1,4.291,1.381A4.791,4.791,0,0,1,72.9,21.6a8.047,8.047,0,0,1-.324,4.415,5.111,5.111,0,0,1-.44.765c-.059-.03-.089-.03-.146-.059.059-.47.089-.911.146-1.381a6.781,6.781,0,0,0-.765-4.351,5.573,5.573,0,0,0-3.9-2.591,14.951,14.951,0,0,0-3.959-.265,31.131,31.131,0,0,0-8.523,1.381A22.87,22.87,0,0,0,46.6,24.189a5.833,5.833,0,0,0-1.824,6.877A13.589,13.589,0,0,0,47.3,35.273c2.646,3.118,5.232,6.286,7.847,9.431a.5.5,0,0,0,.381.146c.881-.059,1.765-.176,2.646-.248.742-.059,1.47-.089,2.205-.146.03.059.03.089.059.146a1.756,1.756,0,0,1-.324.176c-.99.146-1.98.295-2.97.411-.411.059-.824.119-1.294.176.146.295.265.559.411.824a7.6,7.6,0,0,1-.146,7.583,8.925,8.925,0,0,1-3.41,3.116,22.811,22.811,0,0,1-7.523,2.675,23.078,23.078,0,0,1-5.318.411,12.332,12.332,0,0,1-5.113-1.116,3.791,3.791,0,0,1-2.262-2.881,3.856,3.856,0,0,1,.824-2.97,8.374,8.374,0,0,1,2.7-2.242,47.531,47.531,0,0,1,11.52-4.378c1.911-.441,3.821-.824,5.732-1.205A.785.785,0,0,0,53.68,45.115ZM40.19,59.191a22.22,22.22,0,0,0,8.993-1.851,13.09,13.09,0,0,0,5.056-3.465,6.011,6.011,0,0,0,.354-7.424c-.589-.824-.295-.765-1.381-.53-2.027.47-4.056.97-6.053,1.53a38.684,38.684,0,0,0-10.2,4.207,10.64,10.64,0,0,0-3,2.48,2.536,2.536,0,0,0,.411,3.821,5.511,5.511,0,0,0,1.529.824A13.734,13.734,0,0,0,40.19,59.191Z" transform="translate(-32.248 -16.943)"/><path class="a" d="M39.91,59.348q-.449,0-.9-.017A12.442,12.442,0,0,1,33.823,58.2a3.971,3.971,0,0,1-2.378-3.033,4.069,4.069,0,0,1,.867-3.13,8.533,8.533,0,0,1,2.766-2.294,47.732,47.732,0,0,1,11.567-4.395c1.845-.426,3.615-.783,5.739-1.207l.031-.006.031,0,.032,0c-.337-.436-.658-.856-.978-1.274l-.036-.046c-2.387-3.019-4.856-6.141-7.224-9.211A10.33,10.33,0,0,1,42.2,29.385,6.247,6.247,0,0,1,44.086,23.4,19.364,19.364,0,0,1,48.8,20.079a32.792,32.792,0,0,1,11.264-3.635,31.5,31.5,0,0,1,5.766-.326,7.7,7.7,0,0,1,4.4,1.418,4.966,4.966,0,0,1,2.023,3.186,8.235,8.235,0,0,1-.334,4.521,5.319,5.319,0,0,1-.464.811l-.1.144-.156-.078a1.252,1.252,0,0,1-.149-.061l-.125-.065.017-.14c.031-.244.053-.479.076-.716.021-.219.042-.438.07-.665a6.615,6.615,0,0,0-.741-4.228A5.358,5.358,0,0,0,66.6,17.756a14.737,14.737,0,0,0-3.916-.263,30.962,30.962,0,0,0-8.476,1.372A22.507,22.507,0,0,0,45.888,23.5a5.63,5.63,0,0,0-1.77,6.649,13.359,13.359,0,0,0,2.491,4.149c1.791,2.111,3.582,4.278,5.314,6.373Q53.19,42.2,54.46,43.73a.283.283,0,0,0,.213.073c.49-.033.984-.084,1.477-.135.387-.04.776-.08,1.163-.112s.768-.054,1.148-.077c.353-.021.7-.042,1.058-.069l.137-.011.061.123a.9.9,0,0,1,.039.1l.084.161-.132.147a2.013,2.013,0,0,1-.361.2l-.293.049c-.895.132-1.82.268-2.731.375-.324.047-.653.094-1.011.141l.01.021c.089.186.174.363.271.539a7.818,7.818,0,0,1-.15,7.785,9.136,9.136,0,0,1-3.49,3.192,22.921,22.921,0,0,1-7.583,2.695A23.294,23.294,0,0,1,39.91,59.348ZM52.435,44.542c-2.108.42-3.868.776-5.7,1.2A47.312,47.312,0,0,0,35.268,50.1a8.125,8.125,0,0,0-2.639,2.189,3.662,3.662,0,0,0-.783,2.815,3.568,3.568,0,0,0,2.141,2.723,12.058,12.058,0,0,0,5.034,1.1,22.893,22.893,0,0,0,5.28-.407,22.53,22.53,0,0,0,7.461-2.652,8.729,8.729,0,0,0,3.34-3.049,7.412,7.412,0,0,0,.14-7.375c-.1-.183-.189-.366-.282-.559l-.26-.531.285-.034c.468-.057.88-.116,1.289-.175.578-.068,1.159-.147,1.735-.23-.219.014-.439.029-.661.046-.384.031-.77.071-1.155.111-.5.051-1,.1-1.493.137A.692.692,0,0,1,54.16,44c-.86-1.033-1.7-2.054-2.55-3.076-1.731-2.094-3.521-4.259-5.308-6.366a13.749,13.749,0,0,1-2.563-4.267,6.037,6.037,0,0,1,1.887-7.106,22.9,22.9,0,0,1,8.46-4.709,31.329,31.329,0,0,1,8.578-1.39,15.165,15.165,0,0,1,4.005.269A5.759,5.759,0,0,1,70.7,20.04a7.024,7.024,0,0,1,.793,4.489c-.026.216-.047.431-.067.647l-.019.193q.076-.139.143-.282a7.831,7.831,0,0,0,.309-4.288A4.563,4.563,0,0,0,70,17.867a7.3,7.3,0,0,0-4.175-1.343,31.115,31.115,0,0,0-5.7.322,32.408,32.408,0,0,0-11.134,3.594A18.978,18.978,0,0,0,44.362,23.7,5.841,5.841,0,0,0,42.6,29.3a9.911,9.911,0,0,0,1.96,4.06c2.37,3.072,4.837,6.193,7.223,9.211l.039.048c.383.5.766,1,1.176,1.531l.157.2-.232.106A1,1,0,0,1,52.435,44.542ZM38.483,58.577A13.929,13.929,0,0,1,35,58.135a5.71,5.71,0,0,1-1.6-.859,2.689,2.689,0,0,1-.308-.249,2.74,2.74,0,0,1-.128-3.872,10.771,10.771,0,0,1,3.052-2.519A38.867,38.867,0,0,1,46.266,46.41c1.778-.5,3.7-.985,6.057-1.531l.33-.074c.622-.145.721-.134,1.031.342.059.091.132.2.231.342a6.2,6.2,0,0,1-.366,7.675,13.355,13.355,0,0,1-5.137,3.521,22.267,22.267,0,0,1-8.949,1.865h-.111C39.063,58.567,38.772,58.577,38.483,58.577ZM53.077,45.139a1.786,1.786,0,0,0-.333.061c-.094.022-.2.047-.332.075-2.343.544-4.264,1.029-6.041,1.527a38.485,38.485,0,0,0-10.15,4.187,10.412,10.412,0,0,0-2.95,2.435,2.334,2.334,0,0,0,.371,3.524,5.321,5.321,0,0,0,1.48.8,13.539,13.539,0,0,0,4.212.4h.129a21.884,21.884,0,0,0,8.8-1.834,12.958,12.958,0,0,0,4.986-3.415,5.791,5.791,0,0,0,.339-7.171c-.1-.144-.179-.261-.241-.356C53.236,45.2,53.194,45.139,53.077,45.139Z" transform="translate(-31.405 -16.098)"/></g><g transform="translate(344.679 3645.484)"><path class="a" d="M181,60.359a.839.839,0,0,1-.295-1.03,3.909,3.909,0,0,1,.295-.824c2.616-5.672,5.348-11.255,8.434-16.662A157.833,157.833,0,0,1,203.007,21.71c.5-.616.99-1.265,1.53-1.851a.759.759,0,0,1,.616-.205c.146.03.295.265.354.47a.721.721,0,0,1-.176.47c-.824,1.059-1.675,2.086-2.5,3.145a129.5,129.5,0,0,0-8.788,13.02c-3.465,5.692-6.682,11.52-9.758,17.427-.411.794-.794,1.557-1.205,2.351a.438.438,0,0,0-.03.205c.089-.089.176-.146.265-.247.705-.794,1.411-1.616,2.146-2.381a80.759,80.759,0,0,1,9.023-8.347,14.317,14.317,0,0,1,3.465-2.086,2.558,2.558,0,0,1,1.557-.176.905.905,0,0,1,.705,1.294,5.717,5.717,0,0,1-.705,1.146,34.041,34.041,0,0,0-4.821,8.847,4.7,4.7,0,0,0-.354,2.2.99.99,0,0,0,1.03.911,3.944,3.944,0,0,0,1.91-.495,18.1,18.1,0,0,0,4.556-3.027c.53-.47,1.059-.94,1.646-1.381a1.627,1.627,0,0,1-.176.247,31.516,31.516,0,0,1-6.023,4.967,6.185,6.185,0,0,1-2.94,1.029,2.475,2.475,0,0,1-2.509-2.44,2.508,2.508,0,0,1,.012-.282,17.194,17.194,0,0,1,.824-2.351,39.083,39.083,0,0,1,4.143-7.112c.059-.089.119-.146.176-.248a.764.764,0,0,0,.146-.851.7.7,0,0,0-.794-.265,2.242,2.242,0,0,0-.911.324c-1.116.851-2.292,1.675-3.321,2.616a119,119,0,0,0-9.669,9.963A20.841,20.841,0,0,0,181,60.359Z" transform="translate(-180.428 -19.445)"/><path class="a" d="M180.2,59.79l-.162-.111a1.044,1.044,0,0,1-.366-1.278,3.923,3.923,0,0,1,.3-.832c3.134-6.8,5.738-11.94,8.441-16.674A158.564,158.564,0,0,1,202,20.737l.325-.407c.388-.487.788-.991,1.215-1.455a.96.96,0,0,1,.789-.269.844.844,0,0,1,.524.615l.008.056a.918.918,0,0,1-.226.6c-.4.511-.807,1.022-1.217,1.533-.426.532-.853,1.064-1.272,1.6a129.574,129.574,0,0,0-8.773,13c-3.18,5.224-6.369,10.921-9.753,17.417-.2.382-.389.757-.58,1.132l-.159.312c.515-.584,1.047-1.186,1.589-1.75a81.224,81.224,0,0,1,9.043-8.365,14.526,14.526,0,0,1,3.511-2.114,2.754,2.754,0,0,1,1.676-.188,1.106,1.106,0,0,1,.951,1.232,1.155,1.155,0,0,1-.1.348,5.96,5.96,0,0,1-.729,1.184,33.791,33.791,0,0,0-4.791,8.791,4.536,4.536,0,0,0-.341,2.119.784.784,0,0,0,.784.725h.035a3.763,3.763,0,0,0,1.821-.47,17.927,17.927,0,0,0,4.518-3c.53-.471,1.069-.949,1.659-1.393l.3.263a1.88,1.88,0,0,1-.2.278,31.8,31.8,0,0,1-6.069,5.006,6.4,6.4,0,0,1-3.032,1.06h-.04a2.683,2.683,0,0,1-2.689-2.64,2.643,2.643,0,0,1,.013-.306,17.121,17.121,0,0,1,.84-2.412A39.373,39.373,0,0,1,195.8,46.1c.021-.033.048-.067.075-.1a1,1,0,0,0,.088-.126l.031-.042a.56.56,0,0,0,.107-.626.5.5,0,0,0-.545-.157,2.168,2.168,0,0,0-.867.3c-.254.194-.525.4-.8.6-.846.632-1.72,1.285-2.494,1.992a119.386,119.386,0,0,0-9.652,9.946,20.684,20.684,0,0,0-1.425,1.741ZM204.211,19a.562.562,0,0,0-.38.157c-.408.444-.8.942-1.186,1.424l-.325.408A157.988,157.988,0,0,0,188.762,41.1c-2.7,4.724-5.3,9.858-8.427,16.647a3.753,3.753,0,0,0-.281.786.67.67,0,0,0,.069.68c.41-.548.851-1.081,1.314-1.589a119.694,119.694,0,0,1,9.682-9.976c.79-.722,1.672-1.381,2.525-2.018.272-.2.543-.406.811-.61a2.478,2.478,0,0,1,1.008-.364.887.887,0,0,1,.987.351.97.97,0,0,1-.149,1.089,1.476,1.476,0,0,1-.109.154c-.021.027-.042.053-.063.084A38.984,38.984,0,0,0,192,53.412a16.9,16.9,0,0,0-.814,2.321c0,.053-.006.14,0,.225a2.275,2.275,0,0,0,2.271,2.241h.032a5.989,5.989,0,0,0,2.83-.995q1.172-.744,2.271-1.586a18.309,18.309,0,0,1-2.075,1.131,4.269,4.269,0,0,1-2.048.515,1.186,1.186,0,0,1-1.18-1.1,4.93,4.93,0,0,1,.368-2.3,34.162,34.162,0,0,1,4.847-8.891,5.534,5.534,0,0,0,.683-1.109.722.722,0,0,0,.067-.226.7.7,0,0,0-.613-.782,2.358,2.358,0,0,0-1.449.16,14.133,14.133,0,0,0-3.42,2.059,80.81,80.81,0,0,0-9,8.328c-.563.586-1.116,1.213-1.649,1.818l-.494.56a1.578,1.578,0,0,1-.174.167c-.033.028-.066.056-.1.089l-.3.3L182,55.916a.634.634,0,0,1,.044-.3c.22-.429.426-.831.632-1.234.192-.375.384-.751.582-1.134,3.388-6.505,6.581-12.21,9.765-17.439a130.1,130.1,0,0,1,8.8-13.038c.421-.542.849-1.076,1.277-1.609.409-.51.818-1.019,1.22-1.537a.529.529,0,0,0,.132-.318.592.592,0,0,0-.193-.3A.463.463,0,0,0,204.211,19Z" transform="translate(-179.582 -18.598)"/></g><g transform="translate(389.55 3665.591)"><path class="a" d="M422.275,124.062a4.193,4.193,0,0,1-.354.616,44.222,44.222,0,0,0-5.261,8.582,2.11,2.11,0,0,0-.176.851c0,.381.248.47.589.324a.916.916,0,0,0,.324-.265,74.147,74.147,0,0,1,5.445-5.526,31.6,31.6,0,0,1,5.142-4.115,6.511,6.511,0,0,1,2.262-.99,2.84,2.84,0,0,1,.705.03c.295.03.351.248.248.47a2.426,2.426,0,0,1-.411.646,29.109,29.109,0,0,0-4.172,6.758c-1.205,2.586-2.381,5.172-3.5,7.788a17.011,17.011,0,0,0-1.176,4.351,6.438,6.438,0,0,0,.248,3.086,3.465,3.465,0,0,0,3,2.292,7.058,7.058,0,0,0,5.467-1.851,2.033,2.033,0,0,1,.589-.381,3.306,3.306,0,0,1-.354.53,7.83,7.83,0,0,1-4.586,2.722,6.752,6.752,0,0,1-3.586,0,3.9,3.9,0,0,1-2.851-3.351,11.82,11.82,0,0,1,.616-5.056,41.12,41.12,0,0,1,4.5-9.553c.911-1.529,1.94-3,2.91-4.5.059-.119.146-.205.205-.324a.718.718,0,0,0,.059-.765.8.8,0,0,0-.824-.295,3.161,3.161,0,0,0-1.557.794c-1.116.911-2.262,1.851-3.351,2.821a56.487,56.487,0,0,0-6.877,7.642,4.015,4.015,0,0,1-2.675,1.411c-.381.059-.47-.03-.354-.411a16.916,16.916,0,0,1,.765-2.027,60.183,60.183,0,0,1,7.053-11.015,8.922,8.922,0,0,1,1.205-1.146,1.758,1.758,0,0,1,.589-.248A.136.136,0,0,1,422.275,124.062Z" transform="translate(-412.266 -123.328)"/><path class="a" d="M423.67,149.585a6.97,6.97,0,0,1-1.85-.25,4.073,4.073,0,0,1-3-3.525,12.09,12.09,0,0,1,.627-5.144,41.357,41.357,0,0,1,4.516-9.594c.606-1.018,1.279-2.029,1.929-3.007.33-.5.659-.991.983-1.49a1.226,1.226,0,0,1,.108-.17.95.95,0,0,0,.086-.135.54.54,0,0,0,.061-.579.6.6,0,0,0-.6-.192,2.96,2.96,0,0,0-1.465.745c-1.158.944-2.277,1.863-3.355,2.824a56.475,56.475,0,0,0-6.849,7.612,4.2,4.2,0,0,1-2.818,1.491.568.568,0,0,1-.537-.11.584.584,0,0,1-.03-.562,17.165,17.165,0,0,1,.774-2.051,60.391,60.391,0,0,1,7.08-11.059,9.141,9.141,0,0,1,1.237-1.178,1.967,1.967,0,0,1,.671-.287.342.342,0,0,1,.384.242l.021.073-.032.068a4.43,4.43,0,0,1-.372.646A44.158,44.158,0,0,0,416,132.505a1.882,1.882,0,0,0-.156.764c0,.107.025.161.048.176s.117.024.258-.037a.713.713,0,0,0,.243-.2,74.672,74.672,0,0,1,5.468-5.552,31.832,31.832,0,0,1,5.17-4.137,6.675,6.675,0,0,1,2.327-1.017,2.981,2.981,0,0,1,.784.027.5.5,0,0,1,.4.241.552.552,0,0,1-.007.515,2.637,2.637,0,0,1-.443.695,28.912,28.912,0,0,0-4.139,6.706c-1.413,3.033-2.522,5.506-3.5,7.786a16.816,16.816,0,0,0-1.161,4.3,6.258,6.258,0,0,0,.239,2.995,3.264,3.264,0,0,0,2.82,2.154,6.891,6.891,0,0,0,5.314-1.8,2.213,2.213,0,0,1,.647-.419l.53-.225-.272.507a3.554,3.554,0,0,1-.376.562,8.048,8.048,0,0,1-4.7,2.793A6.872,6.872,0,0,1,423.67,149.585Zm3-24.511a1.01,1.01,0,0,1,.8.4.931.931,0,0,1-.058,1.009.915.915,0,0,1-.1.158,1.072,1.072,0,0,0-.086.135c-.335.521-.666,1.018-1,1.515-.647.974-1.317,1.981-1.922,3a40.982,40.982,0,0,0-4.478,9.511,11.693,11.693,0,0,0-.607,4.974,3.667,3.667,0,0,0,2.7,3.175,6.552,6.552,0,0,0,3.479,0,7.669,7.669,0,0,0,3.784-1.913,7.3,7.3,0,0,1-4.866,1.291,3.67,3.67,0,0,1-3.168-2.426,6.662,6.662,0,0,1-.257-3.187,17.186,17.186,0,0,1,1.19-4.4c.975-2.285,2.087-4.762,3.5-7.8a29.281,29.281,0,0,1,4.2-6.8,2.25,2.25,0,0,0,.381-.6.193.193,0,0,0,.025-.147c-.008-.015-.041-.034-.107-.04a2.711,2.711,0,0,0-.668-.029,6.28,6.28,0,0,0-2.164.955,31.48,31.48,0,0,0-5.115,4.093,74.463,74.463,0,0,0-5.436,5.517,1.1,1.1,0,0,1-.387.312.658.658,0,0,1-.651.007.569.569,0,0,1-.23-.513,2.3,2.3,0,0,1,.192-.932,44.514,44.514,0,0,1,5.287-8.627,3.783,3.783,0,0,0,.206-.333,1.655,1.655,0,0,0-.316.16,8.812,8.812,0,0,0-1.163,1.109,60.007,60.007,0,0,0-7.025,10.972,16.606,16.606,0,0,0-.752,2,.88.88,0,0,0-.038.165.86.86,0,0,0,.166-.014,3.8,3.8,0,0,0,2.551-1.34,56.846,56.846,0,0,1,6.895-7.66c1.087-.969,2.21-1.891,3.361-2.83a3.347,3.347,0,0,1,1.646-.836A.986.986,0,0,1,426.672,125.074Z" transform="translate(-411.422 -122.487)"/></g><g transform="translate(369.484 3664.701)"><path class="a" d="M318.243,143.258a11.041,11.041,0,0,1,.059-3.116,25.493,25.493,0,0,1,2.086-7.612,44.571,44.571,0,0,1,3.086-5.378c.44-.705.824-1.411,1.237-2.146a.99.99,0,0,0,.146-.495c-.44.495-.911.99-1.351,1.5a68.042,68.042,0,0,1-5.692,5.939,60.576,60.576,0,0,1-6.682,5.291,3.834,3.834,0,0,1-.765.411,1.042,1.042,0,0,1-1.47-.765,3.91,3.91,0,0,1,.116-2.175,13.82,13.82,0,0,1,2.056-3.908,39.745,39.745,0,0,1,8.758-8.993,24.2,24.2,0,0,1,2.646-1.586,6.475,6.475,0,0,1,3.937-.5,6.184,6.184,0,0,0,1.646-.059,2.429,2.429,0,0,0,.94-.495c.248-.176.441-.354.705-.119s.03.441-.089.616c-1.792,2.851-3.672,5.643-5.407,8.553a50.142,50.142,0,0,0-5,10.728A27.746,27.746,0,0,0,318.243,143.258Zm5.056-22.364h-.354c-.059,0-.146.03-.205.03a6.361,6.361,0,0,0-2.762,1.322,19.7,19.7,0,0,0-3.41,3.41,36.5,36.5,0,0,0-4.467,6.907,3.543,3.543,0,0,0-.381,1.98.742.742,0,0,0,1.146.705,3.338,3.338,0,0,0,.559-.295c.824-.616,1.646-1.237,2.44-1.91a56.426,56.426,0,0,0,6.613-6.907c.94-1.116,1.821-2.292,2.7-3.465.354-.47.265-.824-.176-1.205a2.441,2.441,0,0,0-1.7-.574Z" transform="translate(-308.592 -118.741)"/><path class="a" d="M317.6,142.438l-.4,0a11.271,11.271,0,0,1,.06-3.173,25.644,25.644,0,0,1,2.1-7.663,44.864,44.864,0,0,1,3.1-5.407c.3-.477.569-.953.846-1.449-.166.183-.331.367-.491.554a68.524,68.524,0,0,1-5.708,5.956,61.073,61.073,0,0,1-6.705,5.31,4.039,4.039,0,0,1-.8.431,1.222,1.222,0,0,1-.941.04,1.239,1.239,0,0,1-.705-.642,1.226,1.226,0,0,1-.1-.317,4.1,4.1,0,0,1,.124-2.276,14.032,14.032,0,0,1,2.087-3.963,39.88,39.88,0,0,1,8.8-9.034,24.5,24.5,0,0,1,2.674-1.6,6.654,6.654,0,0,1,4.068-.514,5.935,5.935,0,0,0,1.574-.06,2.238,2.238,0,0,0,.843-.449l.073-.053c.226-.163.535-.385.9-.063a.54.54,0,0,1,0,.809l-.054.073c-.649,1.033-1.314,2.064-1.98,3.1-1.141,1.77-2.321,3.6-3.422,5.447a50.069,50.069,0,0,0-4.978,10.688A27.83,27.83,0,0,0,317.6,142.438Zm6.631-19.322-.013.552a1.189,1.189,0,0,1-.177.6l-.222.4c-.337.6-.654,1.17-1.016,1.749a44.7,44.7,0,0,0-3.076,5.359,25.292,25.292,0,0,0-2.068,7.547,11.22,11.22,0,0,0-.125,1.177c.176-.826.39-1.644.638-2.447a50.538,50.538,0,0,1,5.018-10.775c1.1-1.851,2.285-3.684,3.428-5.457.665-1.03,1.328-2.06,1.98-3.1.024-.035.047-.066.07-.1.14-.185.128-.2.056-.26-.1-.093-.139-.095-.392.088l-.062.044a2.615,2.615,0,0,1-1,.525,6.391,6.391,0,0,1-1.718.066,6.259,6.259,0,0,0-3.832.477,24.19,24.19,0,0,0-2.616,1.57,39.455,39.455,0,0,0-8.707,8.943,13.609,13.609,0,0,0-2.03,3.855,3.71,3.71,0,0,0-.111,2.065.879.879,0,0,0,.07.225.839.839,0,0,0,1.117.4,3.718,3.718,0,0,0,.735-.394,60.679,60.679,0,0,0,6.66-5.274,68.021,68.021,0,0,0,5.675-5.921c.262-.3.533-.6.8-.9.185-.2.371-.406.551-.608Zm-12.615,11.608a1.075,1.075,0,0,1-.111-.006.945.945,0,0,1-.83-1.048,3.655,3.655,0,0,1,.4-2.05,36.758,36.758,0,0,1,4.489-6.942,19.9,19.9,0,0,1,3.443-3.442,6.57,6.57,0,0,1,2.845-1.36.682.682,0,0,0,.1-.015.782.782,0,0,1,.144-.019l.353,0a2.641,2.641,0,0,1,1.838.616.963.963,0,0,1,.208,1.482l-.109.144c-.835,1.108-1.7,2.255-2.6,3.329a56.7,56.7,0,0,1-6.634,6.929c-.8.676-1.615,1.295-2.453,1.921a3.6,3.6,0,0,1-.6.319A.875.875,0,0,1,311.611,134.723ZM322.1,120.247a.4.4,0,0,0-.063.011.782.782,0,0,1-.143.019,6.191,6.191,0,0,0-2.633,1.275,19.531,19.531,0,0,0-3.38,3.379,36.356,36.356,0,0,0-4.445,6.872,3.33,3.33,0,0,0-.361,1.87.585.585,0,0,0,.112.44.535.535,0,0,0,.361.2.518.518,0,0,0,.359-.085,3.607,3.607,0,0,0,.56-.295c.822-.615,1.634-1.229,2.419-1.9a56.374,56.374,0,0,0,6.586-6.879c.9-1.07,1.761-2.211,2.592-3.315l.109-.144c.273-.364.236-.6-.146-.93a2.231,2.231,0,0,0-1.557-.525l-.028.009.01-.006Z" transform="translate(-307.745 -117.892)"/></g><g transform="translate(409.556 3658.542)"><path class="a" d="M527.235,104.751a3.083,3.083,0,0,1-.235.324,16.049,16.049,0,0,1-5.907,3.38,4.108,4.108,0,0,1-5.1-2.788q-.043-.147-.075-.3a6.72,6.72,0,0,1,.265-3.232,24,24,0,0,1,3.291-6.613,29.857,29.857,0,0,1,6.083-6.682,8.167,8.167,0,0,1,2.722-1.556,2.368,2.368,0,0,1,3.232,2,3.153,3.153,0,0,1-1.116,3,9.28,9.28,0,0,1-3.38,2.027c-1.94.705-3.937,1.294-5.907,1.98a1.4,1.4,0,0,0-.765.5,16.5,16.5,0,0,0-3.232,6.788,7.092,7.092,0,0,0-.03,2.086,2.089,2.089,0,0,0,2.19,1.982l.037,0a7.543,7.543,0,0,0,3.321-.765c1.116-.495,2.227-1.116,3.321-1.675.294-.146.559-.295.851-.44a1.793,1.793,0,0,1,.381-.089A.129.129,0,0,0,527.235,104.751Zm-6.053-9.258.089.089a13.194,13.194,0,0,0,7.494-3.232,5.485,5.485,0,0,0,1.732-2.616c.294-1.03-.295-1.675-1.322-1.351a6.009,6.009,0,0,0-1.675.851A29.98,29.98,0,0,0,522.417,94c-.413.5-.824,1.027-1.235,1.5Z" transform="translate(-515.631 -86.915)"/><path class="a" d="M519.1,107.973a4.319,4.319,0,0,1-4.141-3.1c-.03-.1-.056-.208-.079-.313a6.973,6.973,0,0,1,.27-3.339,24.173,24.173,0,0,1,3.319-6.665,29.993,29.993,0,0,1,6.121-6.722,8.322,8.322,0,0,1,2.785-1.591A2.571,2.571,0,0,1,530.7,87.69a2.586,2.586,0,0,1,.171.728,3.349,3.349,0,0,1-1.189,3.171,9.4,9.4,0,0,1-3.444,2.062c-1.089.4-2.218.762-3.311,1.117-.865.281-1.732.563-2.594.863a1.224,1.224,0,0,0-.672.428,16.4,16.4,0,0,0-3.193,6.706,6.872,6.872,0,0,0-.027,2.017,1.91,1.91,0,0,0,1.979,1.806,7.472,7.472,0,0,0,3.279-.746c.792-.351,1.588-.77,2.357-1.174.322-.169.642-.337.96-.5.154-.076.3-.152.44-.227s.272-.143.415-.214a1.948,1.948,0,0,1,.446-.109l.192-.024.028.162.126.1-.1.158a3.256,3.256,0,0,1-.251.346,16.138,16.138,0,0,1-6,3.444A4.305,4.305,0,0,1,519.1,107.973Zm9.213-21.5a2.167,2.167,0,0,0-.8.153,7.95,7.95,0,0,0-2.664,1.521,29.623,29.623,0,0,0-6.046,6.641,23.786,23.786,0,0,0-3.267,6.562,6.545,6.545,0,0,0-.258,3.138c.018.086.043.18.07.274a3.911,3.911,0,0,0,4.845,2.65,15.737,15.737,0,0,0,5.75-3.267l-.3.156c-.146.077-.292.154-.446.231-.315.161-.635.328-.954.5-.776.407-1.577.829-2.375,1.182a7.778,7.778,0,0,1-3.39.782h-.013a2.3,2.3,0,0,1-2.431-2.172,7.238,7.238,0,0,1,.033-2.13,16.808,16.808,0,0,1,3.274-6.882,1.612,1.612,0,0,1,.874-.565c.453-.158.914-.313,1.376-.465q-.567.1-1.147.156l-.094.009-.292-.29.125-.143c.255-.292.51-.606.765-.922.155-.192.311-.384.467-.572a30.23,30.23,0,0,1,5.119-4.8,6.21,6.21,0,0,1,1.733-.881,1.293,1.293,0,0,1,1.342.2,1.379,1.379,0,0,1,.238,1.4,5.678,5.678,0,0,1-1.8,2.716,13.367,13.367,0,0,1-2.908,1.953c.322-.111.644-.224.962-.339a9.035,9.035,0,0,0,3.311-1.984,2.959,2.959,0,0,0,1.055-2.814,2.247,2.247,0,0,0-.147-.631,2.172,2.172,0,0,0-2.013-1.369Zm.522,1.179a1.477,1.477,0,0,0-.441.075,5.807,5.807,0,0,0-1.618.822,29.808,29.808,0,0,0-5.046,4.728c-.154.185-.309.376-.463.566-.179.221-.357.441-.535.653a12.906,12.906,0,0,0,7.056-3.148,5.274,5.274,0,0,0,1.672-2.523,1,1,0,0,0-.132-1A.689.689,0,0,0,528.837,87.65Z" transform="translate(-514.791 -86.065)"/></g><g transform="translate(423.533 3684.634)"><path class="a" d="M589.013,226.851v2.569h-.955v-7.454a11.067,11.067,0,0,1,3.3.22,2.452,2.452,0,0,1,.99,3.927,2.361,2.361,0,0,1-.478.366,3.949,3.949,0,0,1-.552.247c.294.478.586.918.844,1.359s.552.881.881,1.4a10.279,10.279,0,0,1-1.064,0c-.109,0-.248-.146-.332-.248-.4-.586-.807-1.176-1.175-1.8a.876.876,0,0,0-1.027-.552A1.51,1.51,0,0,0,589.013,226.851Zm0-1.027h1.4a1.423,1.423,0,0,0,.22-2.826,12.332,12.332,0,0,0-1.653,0C589.013,223.916,589.013,224.832,589.013,225.824Z" transform="translate(-587.855 -221.725)"/><path class="a" d="M591.671,228.854c-.181,0-.363,0-.543-.014h0c-.14,0-.3-.1-.476-.321-.386-.559-.81-1.176-1.193-1.825a.69.69,0,0,0-.805-.458l-.046.011-.045-.01a1.311,1.311,0,0,0-.19-.028v2.569h-1.361v-7.843l.186-.015a11.273,11.273,0,0,1,3.364.224,2.655,2.655,0,0,1,1.1,4.259,2.6,2.6,0,0,1-.528.408q-.175.094-.353.171l.211.334c.177.28.35.551.508.822.187.321.395.642.621.992l.444.691-.349.018C592.033,228.849,591.852,228.854,591.671,228.854Zm-2.862-3.042a1.079,1.079,0,0,1,1.013.709c.362.6.781,1.214,1.152,1.754.117.14.178.161.179.161.226.011.456.015.686.011l-.062-.1c-.23-.355-.441-.681-.63-1.007-.156-.267-.326-.534-.5-.81-.112-.177-.227-.358-.342-.545l-.131-.212.235-.085a3.773,3.773,0,0,0,.524-.235,2.18,2.18,0,0,0,.432-.333,2.25,2.25,0,0,0-.917-3.592,10.851,10.851,0,0,0-3.031-.223v7.063h.549v-2.554l.188-.014a1.832,1.832,0,0,1,.45.027A1.074,1.074,0,0,1,588.809,225.812Zm-.64-.629h-.2v-.2c0-.979,0-1.9-.037-2.818l-.008-.2.2-.013a12.548,12.548,0,0,1,1.68,0,1.626,1.626,0,0,1-.232,3.232Zm.2-.406h1.193a1.22,1.22,0,0,0,.186-2.424,12.452,12.452,0,0,0-1.409-.009C588.369,223.138,588.372,223.938,588.372,224.777Z" transform="translate(-587.011 -220.88)"/></g><g transform="translate(416.52 3684.712)"><path class="a" d="M551.859,222.331h.953v4.588a1.948,1.948,0,0,0,3.818.552,2.376,2.376,0,0,0,.074-.742v-4.4h.99c0,.109.037.22.037.332v4.222a2.956,2.956,0,0,1-5.912-.037V222.7A1.133,1.133,0,0,0,551.859,222.331Z" transform="translate(-551.617 -222.128)"/><path class="a" d="M553.932,229.181h-.021A3.158,3.158,0,0,1,550.774,226l.007-4.2a.913.913,0,0,0,.032-.3l-.012-.214h1.37v4.791a1.745,1.745,0,0,0,1.735,1.755h.01a1.751,1.751,0,0,0,1.675-1.26,2.149,2.149,0,0,0,.067-.675v-4.612h1.4v.2a.745.745,0,0,0,.016.13,1.221,1.221,0,0,1,.022.2v4.222a3.159,3.159,0,0,1-3.159,3.14Zm-2.753-7.3V226a2.753,2.753,0,0,0,2.736,2.772h.017a2.753,2.753,0,0,0,2.753-2.736v-4.221a.785.785,0,0,0-.015-.129h-.606v4.195a2.536,2.536,0,0,1-.082.794,2.158,2.158,0,0,1-2.066,1.557H553.9a2.15,2.15,0,0,1-2.138-2.162V221.69h-.552A1.306,1.306,0,0,1,551.179,221.882Z" transform="translate(-550.774 -221.284)"/></g><g transform="translate(435.684 3684.675)"><path class="a" d="M650.89,222.14h4.148v.99H651.88v2.227h2.349v.99H651.88v2.277h3.158v.99h-4.185C650.89,227.134,650.89,224.674,650.89,222.14Z" transform="translate(-650.647 -221.937)"/><path class="a" d="M654.382,228.971h-4.593l0-.206c.037-2.478.037-4.9.037-7.471v-.2h4.553v1.4h-3.157v1.821h2.348v1.4h-2.348v1.871h3.157Zm-4.181-.406h3.775v-.584h-3.157V225.3h2.348v-.584h-2.348v-2.633h3.157V221.5h-3.741C650.235,223.92,650.234,226.221,650.2,228.565Z" transform="translate(-649.789 -221.091)"/></g><g transform="translate(409.595 3684.629)"><path class="a" d="M522.221,222.846c-.248.22-.478.441-.7.661a2.754,2.754,0,0,0-3.87.44l-.057.074a2.819,2.819,0,0,0,.109,3.524,2.784,2.784,0,0,0,3.781.4c.22.22.478.441.7.661a3.673,3.673,0,0,1-4.949-.111,3.826,3.826,0,0,1-.183-5.4A3.729,3.729,0,0,1,522.221,222.846Z" transform="translate(-515.826 -221.718)"/><path class="a" d="M518.937,228.859a3.864,3.864,0,0,1-2.675-1.078,4.036,4.036,0,0,1-.191-5.683,3.92,3.92,0,0,1,5.451-.269l.174.151-.172.153c-.244.218-.471.435-.689.653l-.128.128-.141-.113a2.554,2.554,0,0,0-3.586.408l-.052.068a2.587,2.587,0,0,0,3.6,3.646l.141-.106.125.124c.108.107.224.215.341.323s.245.225.357.338l.154.154-.164.143A3.867,3.867,0,0,1,518.937,228.859Zm0-7.6a3.516,3.516,0,0,0-2.568,1.115,3.63,3.63,0,0,0,.174,5.111,3.451,3.451,0,0,0,4.506.247l-.184-.171c-.077-.072-.155-.143-.23-.214a2.993,2.993,0,0,1-4.032-4.313l.062-.08a2.959,2.959,0,0,1,4.009-.58c.132-.129.266-.257.406-.386A3.515,3.515,0,0,0,518.935,221.26Z" transform="translate(-514.993 -220.854)"/></g><g transform="translate(440.37 3684.634)"><path class="a" d="M675.1,227.993c.109-.037.22-.037.332-.074a.7.7,0,0,1,.881.22,1.238,1.238,0,0,0,1.908-.111.935.935,0,0,0-.183-1.4,8.078,8.078,0,0,0-.99-.44,8.11,8.11,0,0,1-.99-.441,1.915,1.915,0,0,1-.918-2.277,2.084,2.084,0,0,1,2.019-1.542,2.121,2.121,0,0,1,2.056,1.433v.146c-.294.074-.586.146-.918.22a1.171,1.171,0,0,0-2.227.248.918.918,0,0,0,.552,1.027,5.313,5.313,0,0,0,1.064.4,2.682,2.682,0,0,1,1.616,1.284,2.138,2.138,0,0,1-1.762,2.863A2.247,2.247,0,0,1,675.1,227.993Z" transform="translate(-674.848 -221.729)"/><path class="a" d="M676.4,228.933a2.443,2.443,0,0,1-2.335-1.727l-.058-.188.186-.064a1.2,1.2,0,0,1,.2-.045.88.88,0,0,0,.135-.029.888.888,0,0,1,1.11.295,1.026,1.026,0,0,0,.7.311,1.066,1.066,0,0,0,.742-.274,1.036,1.036,0,0,0,.134-.15.74.74,0,0,0-.055-1.048.765.765,0,0,0-.078-.059,8.041,8.041,0,0,0-.947-.418,8.308,8.308,0,0,1-1.014-.452,2.117,2.117,0,0,1-1.017-2.519,2.286,2.286,0,0,1,2.205-1.682c.023,0,.043,0,.064,0a2.312,2.312,0,0,1,2.192,1.571l.011.066v.3l-.154.039c-.3.075-.59.147-.923.221l-.165.037-.066-.155a.968.968,0,0,0-1.841.2.717.717,0,0,0,.429.8,5.178,5.178,0,0,0,1.038.4,2.906,2.906,0,0,1,1.743,1.383,2.34,2.34,0,0,1-1.916,3.163A2.456,2.456,0,0,1,676.4,228.933Zm-1.869-1.637a2.034,2.034,0,0,0,2.143,1.213,1.948,1.948,0,0,0,.451-.107,1.937,1.937,0,0,0,1.147-2.485,2.491,2.491,0,0,0-1.481-1.16,5.457,5.457,0,0,1-1.1-.418,1.118,1.118,0,0,1-.659-1.247,1.374,1.374,0,0,1,2.536-.441c.206-.047.4-.094.59-.142a1.91,1.91,0,0,0-1.787-1.222h-.052a1.885,1.885,0,0,0-1.822,1.392,1.715,1.715,0,0,0,.818,2.045,7.934,7.934,0,0,0,.964.429,8.274,8.274,0,0,1,1.015.452,1.266,1.266,0,0,1,.136.1,1.141,1.141,0,0,1,.1,1.608,1.283,1.283,0,0,1-.175.2,1.469,1.469,0,0,1-1.033.381,1.432,1.432,0,0,1-1-.461.5.5,0,0,0-.642-.176A1.047,1.047,0,0,1,674.529,227.3Z" transform="translate(-674.002 -220.882)"/></g><g transform="translate(428.544 3684.628)"><path class="a" d="M614.437,222.014a6.4,6.4,0,0,1,.844,0,.818.818,0,0,1,.332.366l1.762,4.3a4.322,4.322,0,0,0,.22.478c.22-.515.4-.918.586-1.359.44-1.064.918-2.128,1.322-3.232.146-.441.4-.661.844-.552a1.7,1.7,0,0,0,.441,0c-1.064,2.534-2.094,4.994-3.2,7.563C616.531,227.008,615.5,224.548,614.437,222.014Z" transform="translate(-614.14 -221.765)"/><path class="a" d="M616.351,229.184l-.185-.445c-1.061-2.566-2.091-5.026-3.155-7.559l-.11-.262.284-.019a6.668,6.668,0,0,1,.871,0l.089.027a1.012,1.012,0,0,1,.414.457l1.766,4.3.025.063.078-.18c.114-.262.221-.507.329-.765.127-.308.258-.616.388-.925.317-.747.645-1.52.93-2.3a.846.846,0,0,1,1.083-.679,1.538,1.538,0,0,0,.365,0l.35-.045-.544,1.3c-.922,2.2-1.827,4.353-2.787,6.592Zm-2.853-7.893c.963,2.293,1.9,4.531,2.859,6.848.889-2.082,1.735-4.1,2.6-6.147l.284-.678c-.051,0-.1-.007-.156-.014-.245-.061-.472-.047-.625.414-.291.8-.621,1.573-.939,2.325-.131.308-.261.615-.387.921-.109.26-.216.507-.332.772l-.422.976-.2-.37a4.57,4.57,0,0,1-.231-.5l-1.761-4.293a.6.6,0,0,0-.207-.244C613.819,221.291,613.661,221.288,613.5,221.291Z" transform="translate(-612.901 -220.852)"/></g></g></svg>