<svg xmlns="http://www.w3.org/2000/svg" width="102.694" height="55.173" viewBox="0 0 102.694 55.173"><defs><style>.a{fill:#3e3e3e;}</style></defs><g transform="translate(-495 -3641)"><path class="a" d="M175.256,41.918c-.324.43-.574.763-.826,1.1A33.166,33.166,0,0,1,163.9,52.269a9.383,9.383,0,0,1-2.648.959c-1.486.291-2.287-.338-2.325-1.862a16.6,16.6,0,0,1,.393-2.993c.061-.381.2-.749.362-1.342-.7.607-1.193,1.119-1.766,1.523-1.81,1.278-3.61,2.581-5.5,3.737a6.974,6.974,0,0,1-2.6.793c-1.545.225-2.479-.557-2.338-2.094a17.933,17.933,0,0,1,.925-4.284c.634-1.8,1.514-3.516,2.268-5.22a14.452,14.452,0,0,0-6.881-.468,2.017,2.017,0,0,0-1.111.635,24.747,24.747,0,0,0-4.1,8.084,5.988,5.988,0,0,0,.01,2.31c.068.536.159,1.074-.447,1.2-.478.1-1.283.08-1.47-.2a3.592,3.592,0,0,1-.608-2.06A15.786,15.786,0,0,1,138.3,44.45c.494-.916,1.051-1.8,1.7-2.9-1.2.268-2.238.447-3.246.737-2.1.6-4.2,1.231-6.273,1.93a2.574,2.574,0,0,0-1.231,1,46.519,46.519,0,0,1-6.74,8.884,14.053,14.053,0,0,1-3.374,2.477,7.728,7.728,0,0,1-3.388.666,1.884,1.884,0,0,1-1.972-2.511,9.645,9.645,0,0,1,1.75-3.531,23.972,23.972,0,0,1,8.681-6.423,6.505,6.505,0,0,0,3.585-3.719c1.006-2.551,2.255-5.006,3.236-7.566a9.691,9.691,0,0,0,.527-3.443c-.006-1.388-.927-1.939-2.281-1.607-.579.141-1.3.541-1.572-.286-.06-.179.737-.8,1.225-.972a17.136,17.136,0,0,1,3.129-.781c2.3-.341,3.886.963,3.664,3.265a20.833,20.833,0,0,1-1.327,5.382c-.793,2.064-1.911,4-2.892,6-.155.315-.328.623-.58,1.1,1.317-.348,2.466-.683,3.631-.952,1.941-.447,3.883-.9,5.842-1.249a2.026,2.026,0,0,0,1.417-.871A83.655,83.655,0,0,1,154.1,25.634a13.311,13.311,0,0,1,1.975-1.439,4.786,4.786,0,0,1,1.3-.339l.22.342a11.016,11.016,0,0,1-1.287,1.468,64.775,64.775,0,0,0-11.827,13.289,2.822,2.822,0,0,0-.156.3c2.7.332,5.5-.812,8.239.6a8.988,8.988,0,0,1,1.5-.4,3.988,3.988,0,0,1,1.18.221,4.262,4.262,0,0,1-.259,1.085c-.4.747-.932,1.426-1.319,2.179-1.134,2.2-2.259,4.414-3.3,6.66a5.682,5.682,0,0,0-.2,1.78,5.569,5.569,0,0,0,1.921-.363,21.515,21.515,0,0,0,3.878-2.8c2.536-2.491,4.89-5.166,7.386-7.7a5.81,5.81,0,0,1,2.239-1.4c.757-.249,1.03.22.657.941a12.161,12.161,0,0,1-.75,1.149,28.792,28.792,0,0,0-3.747,7.517,7.488,7.488,0,0,0-.309,2.018c-.016.771.472,1.054,1.185.8a5.707,5.707,0,0,0,1.309-.655,38.3,38.3,0,0,0,10.037-9.54,3.926,3.926,0,0,0,.576-1.685,6.8,6.8,0,0,1,3.547-5.224,1.8,1.8,0,0,1,1.612-.082,1.89,1.89,0,0,1,.3,1.665c-.374,1.064-1.04,2.022-1.495,3.063a2.612,2.612,0,0,0-.221,1.512,24.2,24.2,0,0,0,.916,2.685c1.18,3.336.96,4.992-1.226,8.064a11.8,11.8,0,0,0,2.044-.87c2.169-1.508,4.275-3.1,6.441-4.616a6.38,6.38,0,0,0,2.085-2.962c2.239-5.151,4.435-10.325,6.873-15.381a34.928,34.928,0,0,1,4.127-6.289,9.52,9.52,0,0,1,3.3-2.507c1.79-.862,3.083.182,2.641,2.118A26.394,26.394,0,0,1,203.69,26.1a48.435,48.435,0,0,1-8.976,12.673,25.152,25.152,0,0,0-4.581,7.555l.277.271a1.951,1.951,0,0,1,.28-.643c2.685-2.625,5.323-5.3,8.112-7.813a15.491,15.491,0,0,1,3.692-2.175,2.167,2.167,0,0,1,2.5.1,2.2,2.2,0,0,1,.423,2.471c-.526,1.646-1.135,3.266-1.721,4.892s-1.236,3.233-1.763,4.879c-.373,1.163.122,1.687,1.3,1.3a17.617,17.617,0,0,0,3.075-1.478,7.655,7.655,0,0,1,4.171-1.22,3.379,3.379,0,0,1,3.243,2.1,2.954,2.954,0,0,1-1.556,3.485,11.134,11.134,0,0,1-4.1,1.458c-9.141.872-18.288,1.735-27.45,2.343-12.036.8-24.1,1.228-36.131,2.061a138.116,138.116,0,0,0-29.532,4.97,8.613,8.613,0,0,1-2.9.264c-.92-.054-1.209-.821-.523-1.421a7.816,7.816,0,0,1,2.623-1.612,93.608,93.608,0,0,1,16.581-3.446c12.664-1.657,25.411-2.023,38.156-2.45,7.482-.251,14.971-.459,22.44-.944,5.209-.338,10.4-1.056,15.578-1.739a11.394,11.394,0,0,0,3.525-1.365c.353-.181.733-1.053.585-1.305a2.079,2.079,0,0,0-1.417-.907,3.626,3.626,0,0,0-1.737.557c-1.432.715-2.8,1.567-4.261,2.211a11.788,11.788,0,0,1-3.01.8c-1.082.16-1.626-.313-1.664-1.413a7.119,7.119,0,0,1,.275-2.414c.925-2.821,1.947-5.611,2.926-8.415.18-.516.33-1.042.593-1.876a5.964,5.964,0,0,0-1.342.51,22.956,22.956,0,0,0-2.712,2.251c-3.189,3.325-6.309,6.718-9.487,10.055a10,10,0,0,1-2.292,1.933c-1.089.6-1.945-.082-1.687-1.3a35.831,35.831,0,0,1,1.092-3.455c-.558.454-1.043.852-1.531,1.246A19.564,19.564,0,0,1,169.7,53.613a4.817,4.817,0,0,1-1.644-.572c-.455-.243-.99-.7-.518-1.228.245-.274.909-.292,1.361-.239a20.354,20.354,0,0,0,3.418.525,4.264,4.264,0,0,0,4.121-3.9A10.956,10.956,0,0,0,175.256,41.918Zm18.191-4.7.307.18A58.87,58.87,0,0,0,202.8,24.23a17.25,17.25,0,0,0,.9-2.476,7.172,7.172,0,0,0,.156-1.311l-.28-.22a6.79,6.79,0,0,0-1.5,1.185,45.7,45.7,0,0,0-3.312,5.066C196.9,30.009,195.211,33.633,193.447,37.22ZM125.21,46.181a21.9,21.9,0,0,0-8.186,6.363c-.413.558-1.2,1.322-.553,1.96.7.7,1.578.01,2.166-.5A34.136,34.136,0,0,0,125.21,46.181Z" transform="translate(383.847 3622.586)"/><path class="a" d="M147.189,69.767c-.086.215-.112.5-.262.606a1.054,1.054,0,0,1-.771.239.8.8,0,0,1-.4-.641c.025-1.044.127-2.086.193-3.129.1-1.6.155-3.2.321-4.789.035-.339.444-.878.72-.9.637-.058.723.471.657,1.029-.114.97-.188,1.945-.289,3.028.852-.224,1.664-.32,2.1.612a3.294,3.294,0,0,1-.273,3.353A1.547,1.547,0,0,1,147.189,69.767Zm.535-.655a2.993,2.993,0,0,0,.424-3.306A2.284,2.284,0,0,0,147.724,69.112Z" transform="translate(383.847 3622.586)"/><path class="a" d="M152.533,73.587l.177-3.942c-.49.1-1.087.424-1.368.246a1.966,1.966,0,0,1-.736-1.33c-.1-1.068-.024-2.153-.031-3.231a.8.8,0,0,1,.908-.9c.635.007.579.481.552.918q-.105,1.724-.2,3.447l.4.062c.224-1.016.4-2.046.7-3.041.092-.311.495-.529.756-.789.195.238.562.479.558.714-.037,2.123-.145,4.245-.22,6.368C154,72.991,153.587,73.489,152.533,73.587Z" transform="translate(383.847 3622.586)"/><g transform="translate(383.847 3622.586)"><path class="a" d="M197.742,66.525a12.124,12.124,0,0,0-.44,1.67,4.357,4.357,0,0,0,.106.984,4.405,4.405,0,0,0,.489.756c.219-.211.577-.391.632-.638a18.109,18.109,0,0,0,.385-2.652c.017-.248-.284-.519-.439-.779C198.222,66.082,197.85,66.251,197.742,66.525Z"/><path class="a" d="M188.492,65.91a.761.761,0,0,0-.612.325c-.274.679-.464,1.392-.686,2.092l.112.041a3.793,3.793,0,0,0,.085.866,3.338,3.338,0,0,0,.438.7c.215-.168.579-.307.617-.508.191-1,.315-2.014.41-3.027C188.871,66.239,188.623,65.913,188.492,65.91Z"/><path class="a" d="M180.091,71.866c-2.94-1.259-5.892-2.492-8.841-3.734-.249-.105-.492-.225-.96-.441l.872-.173a10.939,10.939,0,0,0,4.751-1.969c2.6-2.052,2.311-4.947-.632-6.428a8.25,8.25,0,0,0-1.36-.549,18.474,18.474,0,0,0-8.238-.612,10.045,10.045,0,0,0-6.135,2.98,5.4,5.4,0,0,0-.592,1.051l.257.221a6.475,6.475,0,0,0,1.11-.5,14.584,14.584,0,0,1,10.368-2.369,15.34,15.34,0,0,1,4.485,1.239,2.169,2.169,0,0,1,.6,3.676,6.06,6.06,0,0,1-2.6,1.641,46.457,46.457,0,0,1-5.388.838,2.381,2.381,0,0,1-.679-.119c.126-1.162.281-2.26.355-3.364.055-.83-.246-1.467-1.2-1.575-.074.109-.162.183-.177.269-.227,1.348-.444,2.7-.662,4.04l-1.189.155c.164.275.215.489.325.526,1.019.34.95,1.162.948,1.987a9.261,9.261,0,0,0,.142,1.558,8.872,8.872,0,0,0,.332,1.11l.4,0c.239-1.145.479-2.29.757-3.618,1.208.442,2.425.793,3.561,1.32,2.4,1.114,4.738,2.349,7.134,3.467a6.283,6.283,0,0,0,2.067.468c.268.025.569-.318.856-.493A2.846,2.846,0,0,0,180.091,71.866Z"/><path class="a" d="M200.673,69.076l-.381-.084c.061-.854.173-1.708.157-2.56a1.4,1.4,0,0,0-.472-1,2.546,2.546,0,0,0-1.387-.465,2.788,2.788,0,0,0-1.573.443c-.377.281-.518.874-.77,1.326-.347.621-.7,1.239-1.05,1.859l-.293-.116c0-.537.019-1.074-.008-1.61a6.135,6.135,0,0,0-.164-.87,2.988,2.988,0,0,0-1.063.3,5.5,5.5,0,0,0-.849,1.21,12.491,12.491,0,0,0,.259-1.594,2.674,2.674,0,0,0-.26-.825,2.783,2.783,0,0,0-1,.392c-.193.187-.142.609-.237.916-.276.894-.571,1.782-.859,2.672l-.365-.088a18.23,18.23,0,0,1,.013-1.9c.094-.9.436-1.882-1.1-1.692-.07.009-.152-.11-.235-.159-1.036-.606-1.993-.46-2.389.651a8.069,8.069,0,0,0-.392,3.311,2.287,2.287,0,0,0,1.245,1.539c.775.326,1.272-.4,1.632-1.062.021-.039.1-.045.157-.067,1.041.69,1.158.665,2.13-.368.308.233.635.656.869.61.3-.058.585-.463.755-.783a6.205,6.205,0,0,0,.386-1.153c.341.539.565,1.315,1.025,1.5.427.169,1.1-.3,1.442-.406.52.587.955,1.466,1.612,1.688.477.162,1.249-.545,1.985-.913a2.3,2.3,0,0,0,1.034.205c.926-.2,1.9-2.609,1.388-3.765Zm-12.227.351c-.038.2-.4.34-.617.508a3.338,3.338,0,0,1-.438-.7,3.793,3.793,0,0,1-.085-.866l-.112-.041c.222-.7.412-1.413.686-2.092a.761.761,0,0,1,.612-.325c.131,0,.379.329.364.49C188.761,67.413,188.637,68.427,188.446,69.427Zm10.083-.13c-.055.247-.413.427-.632.638a4.405,4.405,0,0,1-.489-.756,4.357,4.357,0,0,1-.106-.984,12.124,12.124,0,0,1,.44-1.67c.108-.274.48-.443.733-.659.155.26.456.531.439.779A18.109,18.109,0,0,1,198.529,69.3Z"/><path class="a" d="M209.077,65.281c-.391-.191-1.045.127-1.571.269-.147.04-.248.247-.334.338-.338-.274-.591-.643-.887-.682-.445-.058-1.11-.043-1.336.228a1.826,1.826,0,0,0-.419,1.539c.671,1.267,1.552,2.423,2.467,3.792a24.672,24.672,0,0,0,1.878-2.107,5,5,0,0,0,.932-1.99A1.665,1.665,0,0,0,209.077,65.281Z"/><path class="a" d="M185.629,65.637c-.093-.5-.462-.707-1.039-.483-.662.257-1.376.377-2.05.609-.268.092-.7.341-.684.491a1.38,1.38,0,0,0,.5.8,22.036,22.036,0,0,1,1.769,1.442c.191.205.031.735.031,1.118l-.363.048a2.062,2.062,0,0,1-.289-.736c.019-.536-.026-.971-.708-.806-.622.15-.924.678-.605,1.189.289.464.872,1.044,1.321,1.039a2.616,2.616,0,0,0,1.809-.847,1.906,1.906,0,0,0-.143-1.665c-.269-.475-.9-.744-1.444-1.154a5.934,5.934,0,0,0,1.261-.329C185.268,66.211,185.666,65.837,185.629,65.637Z"/><path class="a" d="M179.472,64.836c-1.035,0-1.936,1.234-1.937,2.651a1.818,1.818,0,0,0,1.842,2.054A2.233,2.233,0,0,0,181.4,67.11,2.069,2.069,0,0,0,179.472,64.836Zm.494,3.572c-.316.465-.585.263-.811-.088a2.755,2.755,0,0,1,.286-2.771A2.614,2.614,0,0,1,179.966,68.408Z"/></g></g></svg>