<svg xmlns="http://www.w3.org/2000/svg" width="85.136" height="58.213" viewBox="0 0 85.136 58.213"><defs><style>.a{fill:#3e3e3e;}</style></defs><g transform="translate(-1013 -3640)"><path class="a" d="M262.126,149.12a.861.861,0,0,0-.576-.219.77.77,0,0,0-.4.112,8.129,8.129,0,0,0-.785.549c-.745.556-1.212.892-1.411,1.006a1.4,1.4,0,0,1-.681.256.386.386,0,0,1-.432-.442,2.282,2.282,0,0,1,.306-.854c.025-.05.045-.094.065-.134l.07-.129c.025-.045.047-.087.064-.127a1.721,1.721,0,0,0,.082-.174c.037-.072.062-.137.087-.2l.4-.842a2.876,2.876,0,0,0,.32-.991.738.738,0,0,0-.258-.576.952.952,0,0,0-.648-.219.965.965,0,0,0-.73.293,3.585,3.585,0,0,0-.663,1.051l-.378.807a6.371,6.371,0,0,0-.367.822l-.112.271a8.43,8.43,0,0,1-1.137,1.135,1.6,1.6,0,0,1-.916.355.543.543,0,0,1-.479-.233.916.916,0,0,1-.181-.6,2.943,2.943,0,0,1,.6-1.589,6.3,6.3,0,0,1,1.577-1.6,7.934,7.934,0,0,1,.673-.45,9.379,9.379,0,0,1,1.868-.82,2.468,2.468,0,0,0,.944-.442.7.7,0,0,0,.2-.633c-.057-.586-.457-.839-1.2-.767a6.583,6.583,0,0,0-1.244.3l-.007.01c-.079.03-.169.06-.256.094a10.4,10.4,0,0,0-1.371.658,8.56,8.56,0,0,0-2.826,2.531,6.6,6.6,0,0,0-.529.879c-.1.2-.194.4-.271.594a.059.059,0,0,1-.017.032,3.957,3.957,0,0,1-1.768,2.039.325.325,0,0,1-.445-.34,17.52,17.52,0,0,1,.884-1.967,5.442,5.442,0,0,0,.713-2.367,1.594,1.594,0,0,0-.482-1.212,1.84,1.84,0,0,0-1.3-.462,3.343,3.343,0,0,0-1.234.3,3.3,3.3,0,0,0-1.09.69v-.089a.837.837,0,0,0-.263-.651.973.973,0,0,0-.705-.246.937.937,0,0,0-.7.271,3.971,3.971,0,0,0-.626,1.033l-1.649,3.546c-.211.452-.6,1.5-1.122,1.589-.263,0-.442-.151-.392-.432a17.862,17.862,0,0,1,.889-1.967,5.511,5.511,0,0,0,.713-2.367,1.58,1.58,0,0,0-.487-1.212,1.826,1.826,0,0,0-1.284-.462,3.323,3.323,0,0,0-1.242.3,3.491,3.491,0,0,0-.944.561.988.988,0,0,0-.216-.472c-.842-1.008-2.483.129-3.189.616-.584.4-1.12.752-1.619,1.063a3.065,3.065,0,0,0-.256-.767,2.4,2.4,0,0,0-.976-.969,3.3,3.3,0,0,0-1.522-.33,4.091,4.091,0,0,0-1.855.454,5.262,5.262,0,0,0-1.644,1.3,6.363,6.363,0,0,0-1.13,1.845,6.522,6.522,0,0,0-.31,1.048.854.854,0,0,0-.258.087,5.073,5.073,0,0,0-.656.464c-.817.6-1.3.944-1.45,1.033a1.079,1.079,0,0,1-.576.209.346.346,0,0,1-.248-.114.294.294,0,0,1-.129-.231,2.436,2.436,0,0,1,.288-.944l3.832-8.223a2.75,2.75,0,0,0,.3-.921.758.758,0,0,0-.233-.589.912.912,0,0,0-.631-.231.822.822,0,0,0-.611.216,3.855,3.855,0,0,0-.569.946l-1.609,3.422a9.466,9.466,0,0,0-3.532,1.172,8.7,8.7,0,0,0-1.468,1.028,6.448,6.448,0,0,0-1.113,1.239,4.707,4.707,0,0,0-.961,2.781,2.344,2.344,0,0,0,.594,1.674,2.007,2.007,0,0,0,1.53.648,4.164,4.164,0,0,0,2.476-.991,1.434,1.434,0,0,0,.5.75,1.38,1.38,0,0,0,.832.241,3.634,3.634,0,0,0,1.4-.305,8.708,8.708,0,0,0,1.786-1.026c.194-.137.363-.266.522-.392a2.5,2.5,0,0,0,.666,1.177,2.816,2.816,0,0,0,2.074.79,4.219,4.219,0,0,0,2.429-.812,5.909,5.909,0,0,0,1.88-2.141,6,6,0,0,0,.482-1.207c.569-.328,1.192-.73,1.833-1.155l-1.555,3.34a3.011,3.011,0,0,0-.343,1.041.836.836,0,0,0,.281.663.932.932,0,0,0,.688.271.961.961,0,0,0,.705-.258,4.255,4.255,0,0,0,.626-1.048l1.217-2.528c1.177-2.27,2.315-2.578,2.921-2.57.241,0,.37.117.37.355a5.324,5.324,0,0,1-.579,1.383,9.3,9.3,0,0,0-.693,1.478,3.976,3.976,0,0,0-.266,1.232,1.874,1.874,0,0,0,.569,1.418,2.029,2.029,0,0,0,1.448.539,2.962,2.962,0,0,0,3.005-1.478c.825-1.455,1.227-2.357,1.227-2.357,1.113-2.282,2.28-2.578,2.881-2.57.241,0,.37.117.37.355a5.322,5.322,0,0,1-.579,1.383,11.426,11.426,0,0,0-.7,1.478,4.048,4.048,0,0,0-.266,1.232,1.855,1.855,0,0,0,.579,1.418,2,2,0,0,0,1.443.539,3.212,3.212,0,0,0,.541-.052c.035-.01.074-.015.114-.022v0a4.678,4.678,0,0,0,2.031-1.125.968.968,0,0,0,.2.258l.01.007a1.588,1.588,0,0,0,.2.191v0a2.3,2.3,0,0,0,1.5.494,3,3,0,0,0,1.167-.219,7.11,7.11,0,0,0,1.331-.847,1.225,1.225,0,0,0,1.383,1.065,3.837,3.837,0,0,0,1.49-.305,10.332,10.332,0,0,0,1.885-1.078c1.023-.7,1.53-1.3,1.53-1.8a.766.766,0,0,0-.243-.544m-40.965.661a6,6,0,0,1-1.033.857,1.781,1.781,0,0,1-.864.33.608.608,0,0,1-.492-.219.79.79,0,0,1-.191-.544,2.58,2.58,0,0,1,.591-1.537,6.081,6.081,0,0,1,1.572-1.445,7.079,7.079,0,0,1,2.034-.921Zm9.946-.139c-.6,1.055-1.187,1.585-1.768,1.585a.869.869,0,0,1-.666-.273,1.009,1.009,0,0,1-.256-.73,5.061,5.061,0,0,1,.606-2.106,4.9,4.9,0,0,1,.946-1.359,1.462,1.462,0,0,1,.983-.442.8.8,0,0,1,.641.263,1.172,1.172,0,0,1,.211.762,4.755,4.755,0,0,1-.7,2.3" transform="translate(835.473 3500.285)"/><path class="a" d="M215.342,149.664q-1.777,0-3.261,3.144l-7.381,15.74a7.79,7.79,0,0,0-.827,2.488,2.072,2.072,0,0,0,2.372,2.315,2.325,2.325,0,0,0,1.721-.653,9.793,9.793,0,0,0,1.54-2.551l7.376-15.738a7.343,7.343,0,0,0,.832-2.491q0-2.254-2.372-2.255" transform="translate(816.542 3515.044)"/><path class="a" d="M220.8,151.568a2.569,2.569,0,1,0-2.57-2.57,2.572,2.572,0,0,0,2.57,2.57" transform="translate(837.833 3510.247)"/><path class="a" d="M244.907,179.144c-3.919,2.012-7.232,2.349-9.852,1.011-4.391-2.253-6.288-8.556-6.921-11.315l.152,0a18.335,18.335,0,0,0,7.416-5.667,12.515,12.515,0,0,0,2.789-7.738,10.813,10.813,0,0,0-4.182-8.717,16.037,16.037,0,0,0-10.53-3.437,24.56,24.56,0,0,0-15.981,5.633q-6.907,5.633-6.909,12.986a11.264,11.264,0,0,0,2.106,6.733q2.1,2.935,4.835,2.935a2.442,2.442,0,0,0,1.748-.713,2.23,2.23,0,0,0,.743-1.659,2.43,2.43,0,0,0-1.07-1.957l-1.123-.889a5.423,5.423,0,0,1-2.019-4.505q0-5.223,5.28-9.489a18.268,18.268,0,0,1,11.8-4.274,11.791,11.791,0,0,1,7.207,2.049,6.434,6.434,0,0,1,2.754,5.429,8.481,8.481,0,0,1-1.9,5.215,11.884,11.884,0,0,1-5.1,3.8l-1.6.651a2.328,2.328,0,0,0-1.624,1.758,2.622,2.622,0,0,0-.144,1.3c.072.5,1.907,12.325,9.914,16.443a12.56,12.56,0,0,0,5.814,1.391,19.271,19.271,0,0,0,8.739-2.4,2.567,2.567,0,0,0-2.344-4.567" transform="translate(812.113 3505.566)"/><path class="a" d="M261.782,165.769a29.217,29.217,0,0,0-3.606.243,33.856,33.856,0,0,0-3.777.683,19.239,19.239,0,0,0-3.238,1.083,5.2,5.2,0,0,0-1.825-.914A39.054,39.054,0,0,0,256,162.352c3.532-2.68,5.022-4.336,5.022-6.268a2.994,2.994,0,0,0-.395-1.49,2.276,2.276,0,0,0-1.063-1,7.225,7.225,0,0,0-2.836-.368H250.5a8.164,8.164,0,0,0-2.739.305,2.382,2.382,0,0,0-1.008.9,2.355,2.355,0,0,0-.363,1.237,1.889,1.889,0,0,0,.976,1.736,5.823,5.823,0,0,0,2.615.392h4.5c-6.022,5.737-23.923,15.311-20.374,6.393l2.682-6.609h3.38a7.988,7.988,0,0,0,2.672-.3,2.182,2.182,0,0,0,1.244-2.074c0-1.3-1.13-1.957-3.38-1.957h-1.9l1.13-2.372a6.352,6.352,0,0,0,.77-2.372,1.988,1.988,0,0,0-.623-1.453,2.134,2.134,0,0,0-1.572-.621q-1.658,0-3.027,2.963l-1.778,3.854h-1.835a7.464,7.464,0,0,0-2.61.3,2.061,2.061,0,0,0-1.306,2.017,1.775,1.775,0,0,0,.946,1.661,5.605,5.605,0,0,0,2.5.353h.233l-2.235,5.563a9.757,9.757,0,0,1-1.932,2.615c-2.128,2.051-5.7,1.89-6.487,1.89-.594,0-.889-.313-.889-.946a5.388,5.388,0,0,1,.594-1.781l3.2-7a6.765,6.765,0,0,0,.767-2.374q0-2.071-2.193-2.074-1.658,0-3.027,2.963l-3.142,6.77a12.277,12.277,0,0,0-1.423,4.92,4.267,4.267,0,0,0,1.217,3.2,4.508,4.508,0,0,0,3.291,1.185,20.137,20.137,0,0,0,8.563-2.389c.072-.042.137-.087.209-.127,2.4,2.772,5.928,2.628,7.359,2.516a23.187,23.187,0,0,0,8.747-2.881,7.674,7.674,0,0,1,2.131.5,18.72,18.72,0,0,0-4.614,3.365,17.558,17.558,0,0,0-3.32,4.431,9.894,9.894,0,0,0-1.2,4.475,5.28,5.28,0,0,0,1.656,3.988,5.875,5.875,0,0,0,4.222,1.584,10.016,10.016,0,0,0,4.49-1.1,13.809,13.809,0,0,0,3.974-3,14.34,14.34,0,0,0,2.757-4.249,12.271,12.271,0,0,0,.986-4.811,6.883,6.883,0,0,0-.755-3.258,30.78,30.78,0,0,1,6.482-1.033,9.789,9.789,0,0,0,3.137-.517,2.174,2.174,0,0,0,1.1-2.069c0-1.445-1.167-2.163-3.507-2.163M247.84,181.084q-2.164,2.377-4.048,2.374a1.421,1.421,0,0,1-1.127-.5,1.876,1.876,0,0,1-.427-1.267q0-1.762,2.223-4.291a20.23,20.23,0,0,1,5.3-4.262,4.321,4.321,0,0,1,.641,2.25,8.31,8.31,0,0,1-2.56,5.7" transform="translate(832.847 3510.247)"/></g></svg>