<svg xmlns="http://www.w3.org/2000/svg" width="114.191" height="42.15" viewBox="0 0 114.191 42.15"><defs><style>.a{fill:#3e3e3e;}</style></defs><g transform="translate(-1143 -3648)"><g transform="translate(1143 3648)"><path class="a" d="M329.043,177.465a4.813,4.813,0,0,1,.634-3.808c2.02-3.785,3.9-7.682,6.121-11.307,3.583-5.852,7.347-11.56,11.139-17.237a11.3,11.3,0,0,1,2.907-2.542c.373-.276.944-.2,1.424-.28l.206.453a17.322,17.322,0,0,0-1.388,1.392,81.2,81.2,0,0,0-10.3,15.817,11.569,11.569,0,0,0-.733,1.881,1.131,1.131,0,0,0,.19.908.779.779,0,0,0,.813-.008,8.636,8.636,0,0,0,1.289-1.228,73.776,73.776,0,0,1,17.365-14.65,15.1,15.1,0,0,1,4.459-1.645c2.039-.44,3.033.891,2.245,3.1-1.321,3.7-2.879,7.286-4.32,10.93a6.82,6.82,0,0,0-.552,1.94c-.086,1.18.718,1.742,1.635,1.188a5.881,5.881,0,0,0,1.055-.952c6.056-6.155,12.291-12.036,19.282-16.767,1.517-1.026,3.1-1.932,4.67-2.846.691-.4,1.5-.668,2.041.2a2.151,2.151,0,0,1-.345,2.542,28.5,28.5,0,0,0-2.13,3.762q-5.172,10.746-10.283,21.532a10.357,10.357,0,0,0-.8,1.976,1.909,1.909,0,0,0,.162,1.4c.227.255.817.211,1.215.116a7.057,7.057,0,0,0,1.466-.651,159.278,159.278,0,0,1,34.848-12.756,46.669,46.669,0,0,1,15.874-1.418c4.385.466,8.375,1.969,11.53,5.679a9.765,9.765,0,0,1,2.069,8.575c-.461,2.384-2.365,4.286-4.322,4.122.335-.434.565-.786.84-1.078a10.007,10.007,0,0,0,1.744-9.432,9.514,9.514,0,0,0-3.865-4.386,18.121,18.121,0,0,0-11.9-2.431,112.686,112.686,0,0,0-36.55,10.277A86.436,86.436,0,0,0,368.6,182.55a2.319,2.319,0,0,1-1.182.659,1.373,1.373,0,0,1-1.1-.594,1.708,1.708,0,0,1,.154-1.255,4.308,4.308,0,0,1,.929-1.119,4.081,4.081,0,0,0,1.475-3.511,3.463,3.463,0,0,1,.769-1.917,87.942,87.942,0,0,0,11.341-21.934,11.163,11.163,0,0,0,.6-2.738c.118-1.8-.977-2.625-2.42-1.915a4.444,4.444,0,0,0-1.064.714c-5.972,5.519-11.905,11.092-17.127,17.578a4.211,4.211,0,0,0-.592.777c-1.654,3.473-4.729,4.6-7.6,6.037a1.333,1.333,0,0,1-1.331-.428,1.894,1.894,0,0,1,.036-1.548,91.922,91.922,0,0,0,7.046-14.555c.594-1.67,1.1-3.385,1.582-5.106a2.9,2.9,0,0,0-.465-3c-.853-.819-1.858-.421-2.631.164a66.015,66.015,0,0,0-5.586,4.569c-6.479,6.09-12.464,12.725-17.093,20.832a4.561,4.561,0,0,1-1.769,1.489C331.463,176.378,330.3,176.862,329.043,177.465Z" transform="translate(-328.873 -141.43)"/></g><g transform="translate(1196.744 3685.093)"><path class="a" d="M354.7,159.1c.411.029.83.059,1.017.059a6.066,6.066,0,0,0,.8-.059c.373,1.057.9,2.256,1.211,2.966.447-1,.8-1.885,1.2-2.966a6.413,6.413,0,0,0,.784.059c.246,0,.632-.03,1.017-.059v.105l-.577.251c-.1.044-.112.08-.112.244a31.391,31.391,0,0,0,.385,3.488c.034.215.048.268.185.326l.495.23v.1c-.432-.029-.872-.059-1.319-.059-.385,0-.765.029-1.148.059v-.1l.535-.244c.091-.038.152-.1.152-.162,0-.385-.185-2.182-.289-3.069h-.015c-.495,1.184-1.009,2.365-1.443,3.579h-.3c-.419-1.169-.927-2.3-1.394-3.438h-.013c-.112.937-.27,2.395-.27,2.86,0,.162.042.206.173.259l.5.215v.1c-.331-.029-.659-.059-1-.059a8.661,8.661,0,0,0-.887.059v-.1l.447-.215c.131-.067.158-.118.213-.518.234-1.7.358-2.846.358-3.3,0-.133-.015-.209-.249-.312l-.459-.2Z" transform="translate(-354.388 -158.977)"/><path class="a" d="M361.732,159.039a2.287,2.287,0,0,1,2.378,2.439,2.368,2.368,0,0,1-2.53,2.544,2.24,2.24,0,0,1-2.323-2.462A2.4,2.4,0,0,1,361.732,159.039Zm-.061,4.586c1.2,0,1.23-1.51,1.23-1.908,0-1.11-.227-2.277-1.224-2.277s-1.209,1.034-1.209,1.936C360.468,162.618,360.79,163.625,361.671,163.625Z" transform="translate(-349.001 -159.039)"/><path class="a" d="M364.1,163.74l.562-.238c.158-.065.185-.118.2-.257a8.177,8.177,0,0,0,.034-.88v-1.79c0-.316-.021-.634-.021-.946h-.556c-.632,0-.653,0-.741.236l-.206.577h-.1V159.1c.638.029,1.54.059,2.144.059.716,0,1.43-.03,2.144-.059v1.346h-.095l-.206-.577c-.091-.236-.112-.236-.744-.236h-.556c-.006.312-.021.63-.021.946v1.569a6.677,6.677,0,0,0,.063,1.234c.013.051.067.095.246.162l.489.2v.1c-.495-.029-.908-.059-1.321-.059s-.824.029-1.319.059Z" transform="translate(-344.556 -158.977)"/><path class="a" d="M367.717,163.74l.565-.238c.158-.065.185-.118.2-.257a8.183,8.183,0,0,0,.034-.88v-1.79c0-.316-.019-.634-.019-.946h-.558c-.632,0-.653,0-.741.236l-.206.577h-.1V159.1c.64.029,1.54.059,2.144.059.716,0,1.43-.03,2.146-.059v1.346h-.1l-.206-.577c-.088-.236-.11-.236-.741-.236h-.558c-.006.312-.021.63-.021.946v1.569a6.681,6.681,0,0,0,.063,1.234c.013.051.067.095.246.162l.489.2v.1c-.5-.029-.908-.059-1.321-.059s-.824.029-1.319.059Z" transform="translate(-340.555 -158.977)"/><path class="a" d="M371.2,160.574c0-.878,0-1.049-.213-1.146l-.5-.228V159.1c.413.029.824.059,1.236.059s.826-.03,1.236-.059v.105l-.5.228c-.213.1-.213.268-.213,1.146v1.664a8.66,8.66,0,0,0,.055,1.036c.021.154.063.177.179.236l.48.23v.1c-.411-.029-.824-.059-1.236-.059s-.824.029-1.236.059v-.1l.5-.23c.213-.1.213-.265.213-1.146Z" transform="translate(-336.578 -158.977)"/><path class="a" d="M373.181,159.1c.411.029.83.059,1.243.059s.819-.03,1.224-.059v.105l-.516.221a.141.141,0,0,0-.095.141c0,.08.666,2.024.866,2.483l.179.413a28.738,28.738,0,0,0,1.024-2.9.182.182,0,0,0-.131-.156l-.434-.2V159.1c.331.029.653.059.984.059a8.056,8.056,0,0,0,.853-.059v.105l-.449.221c-.122.059-.158.11-.308.487-.476,1.169-1.217,2.892-1.6,4.126H375.5c-.4-1.2-1.236-3.387-1.689-4.407-.063-.133-.084-.171-.187-.221l-.438-.206Z" transform="translate(-333.595 -158.977)"/><path class="a" d="M377.883,160.574c0-.982-.027-1.093-.192-1.161l-.522-.213V159.1c.543.038,1.087.059,1.628.059.771,0,1.548-.021,2.344-.059v1.258h-.095l-.282-.628c-.063-.141-.166-.141-1.081-.141h-.729c-.019.51-.027,1.072-.027,1.517h1.19c.316,0,.364-.061.44-.267l.152-.413h.095c-.013.3-.034.6-.034.923s.021.645.034.977h-.095l-.215-.51a.354.354,0,0,0-.377-.223h-1.19c0,.518.008,1.169.027,1.746.31.021.626.021.944.021.838,0,.872-.029.975-.265l.267-.6h.124l-.055,1.354c-.921-.015-1.816-.059-2.709-.059-.447,0-.887.029-1.333.059v-.1l.556-.253c.145-.065.158-.109.158-1.123Z" transform="translate(-329.183 -158.977)"/></g></g></svg>