<svg xmlns="http://www.w3.org/2000/svg" width="148.637" height="54.581" viewBox="0 0 148.637 54.581"><defs><style>.a{fill:#3e3e3e;}</style></defs><g transform="translate(-108 -3735)"><g transform="translate(108 3777.038)"><path class="a" d="M26.967,181.934A7.2,7.2,0,0,1,32,183.624a5.828,5.828,0,0,1,1.858,4.531,5.534,5.534,0,0,1-1.968,4.338,6.614,6.614,0,0,1-4.538,1.615H19.266V181.934Zm.553,10.358a4.035,4.035,0,0,0,2.986-1.174,4.087,4.087,0,0,0,1.17-3.014,4.167,4.167,0,0,0-1.255-3.157,4.561,4.561,0,0,0-3.287-1.2h-5.85v8.544Z" transform="translate(-19.266 -181.934)"/><path class="a" d="M60.13,194.107H58.112V181.934H60.13Z" transform="translate(-36.843 -181.934)"/><path class="a" d="M105.859,183.749h-5.818v10.358H98.024V183.749H92.2v-1.815h13.654Z" transform="translate(-52.269 -181.934)"/><path class="a" d="M141.416,194.107h-2.347l-3.294-4.64H129.63v4.64h-2.017V181.934h9.6a4.193,4.193,0,0,1,3.006,1.033,3.665,3.665,0,0,1,1.1,2.8,3.462,3.462,0,0,1-.894,2.489,3.844,3.844,0,0,1-2.269,1.11Zm-4.506-6.456q2.339,0,2.336-1.882,0-2.019-2.521-2.02H129.63v3.9Z" transform="translate(-68.29 -181.934)"/><path class="a" d="M169.182,183.669l-5.525,10.438h-2.206l6.439-12.173h2.539l6.442,12.173h-2.208Z" transform="translate(-83.6 -181.934)"/><path class="a" d="M208.247,190.206a3.786,3.786,0,0,1-1.4,3.169,6.563,6.563,0,0,1-4.112,1.1,5.911,5.911,0,0,1-3.791-1.076,4.058,4.058,0,0,1-1.439-3.129h2.053a2.431,2.431,0,0,0,.907,1.839,4.152,4.152,0,0,0,2.389.55,4.621,4.621,0,0,0,2.588-.555,2.151,2.151,0,0,0,.791-1.885v-8.286h2.017Z" transform="translate(-99.912 -181.934)"/><path class="a" d="M234.745,183.669l-5.524,10.438h-2.206l6.438-12.173h2.539l6.442,12.173h-2.208Z" transform="translate(-113.266 -181.934)"/><path class="a" d="M279.313,194.107H276.8l-9.293-9.982v9.982h-2.018V181.934H268l9.3,9.988v-9.988h2.018Z" transform="translate(-130.676 -181.934)"/></g><path class="a" d="M223.607,111.932l.3-6.775c-4.421-.042-5.549,3.7-5.41,8.295.006.153-.028.224-.3.245-.186.018-.742.04-.742.04l.03.655s.537,0,.713.009a.4.4,0,0,1,.368.384c.245,2.595-.006,6.9-7.182,10.666a20.606,20.606,0,0,1-14.642,1.384c-.227-.075-.214-.156.027-.122,5.355.791,12.109-1.219,13.752-1.93.036-.016.036-.026.032-.03s-.017,0-.043,0a13.565,13.565,0,0,1-7.017.151,107.635,107.635,0,0,0,10.512-8.841c.321-.328-.149-.912-.619-.406a103.222,103.222,0,0,1-10.866,9.008h0c-.869.686-1.934,1.386-1.934,1.386s1.337-1.441.5-1.833a28.416,28.416,0,0,1-4.237-1.911c-4.267-2.336-4.995-7.85-5.154-8.685-.061-.3-.315-.214-.268.043a25.778,25.778,0,0,1,.476,5.652c.044,2.008-.683,3.549.052,4.8.217.452,1.7,2.588,2.051,3.373a1.464,1.464,0,0,0,.213.371,21.458,21.458,0,0,0,2.44.987c-1.13.765-2.226,1.477-3.276,2.131a.555.555,0,0,0-.1-.028c-.162,0-.273.049-.738.349a28.413,28.413,0,0,1-6.329,3.084c-.094.039-.377.153.018.354s2.2.8,2.8.519a46.8,46.8,0,0,0,4.387-2.672c.854-.537,1.323-.963.959-1.084.923-.639,2.035-1.418,3.272-2.3a44.392,44.392,0,0,0,7.74,2.154c3.619.294,8.036-1.514,10.98-.976.02,0,.02.015.005.015-4.2.649-8.714,2.907-11.622,2.815-.034,0-.088.011-.07.038.278.4,2.671,3.448,8.833.463,6.064-2.938,8.811-2.263,9.417-2.043.057.022.06,0,.022-.034a7.014,7.014,0,0,0-4.526-1.413c-.008,0-.008-.016,0-.022a25.07,25.07,0,0,0,3.061-3.421,1.416,1.416,0,0,0,.264-1.183c-.453-1.661-2.531-6.424-2.531-10.714,0-.464.385-.43.385-.43v0h1.929l.042-.93s-1.629.125-2.169.125c-.218,0-.214-.266-.222-.391,0-.1,0-.113,0-.232C219.123,109.956,222.8,111.584,223.607,111.932Z" transform="translate(13.28 3629.844)"/></g></svg>