<svg xmlns="http://www.w3.org/2000/svg" width="239.089" height="43.1" viewBox="0 0 239.089 43.1"><defs><style>.a,.b{fill:#3e3e3e;}.b{fill-rule:evenodd;}</style></defs><g transform="translate(-286 -3741)"><path class="a" d="M193.479,198.509v1.569h5.645v1.74H191.5V193.7h7.411v1.754h-5.436v1.371h3.642v1.685h-3.642m-15.9,3.308h-1.809V193.7h1.977v8.118Zm-21.224-4.938h2.752a3.833,3.833,0,0,0,.554-.032,1.357,1.357,0,0,0,.365-.093l.009,0a.6.6,0,0,0,.3-.217.676.676,0,0,0,.1-.374.777.777,0,0,0-.067-.339.472.472,0,0,0-.2-.194v0a1.274,1.274,0,0,0-.4-.125,3.8,3.8,0,0,0-.652-.046h-2.752Zm0,1.743v3.2h-1.977V193.7h4.714c.322,0,.612.009.864.026a4.871,4.871,0,0,1,.649.081,3.075,3.075,0,0,1,.51.151,2.751,2.751,0,0,1,.458.241l.006,0a1.849,1.849,0,0,1,.641.792,2.855,2.855,0,0,1,.209,1.139,2.825,2.825,0,0,1-.13.893h0a1.83,1.83,0,0,1-.4.693,2.174,2.174,0,0,1-.745.5,5.2,5.2,0,0,1-.873.27l2.317,3.334h-2.259l-.052-.072-2.157-3.126Zm-20.754-.113v1.569h5.642v1.74h-7.617V193.7h7.408v1.754H135.6v1.371h3.642v1.685Zm-17.263.3H115.85v-1.5h4.088v3.6l-.084.049a7.358,7.358,0,0,1-1.888.768,8.586,8.586,0,0,1-2.131.255,5.021,5.021,0,0,1-3.16-.939h0a3.7,3.7,0,0,1-.6-.586,4.044,4.044,0,0,1-.461-.7,4.107,4.107,0,0,1-.357-.945,4.178,4.178,0,0,1-.119-1.009,4.258,4.258,0,0,1,.212-1.354,4.119,4.119,0,0,1,.644-1.195v0a4.207,4.207,0,0,1,1.667-1.29,5.73,5.73,0,0,1,2.288-.429,6.212,6.212,0,0,1,1.957.272h0a7.137,7.137,0,0,1,.792.328,6.992,6.992,0,0,1,.771.429l.122.075-.684,1.641-.165-.1a6.34,6.34,0,0,0-1.357-.6,5.533,5.533,0,0,0-1.38-.238,3.7,3.7,0,0,0-1.128.165,2.713,2.713,0,0,0-.893.493h0a2.156,2.156,0,0,0-.62.789,2.467,2.467,0,0,0-.206,1.026,2.366,2.366,0,0,0,.186.963h0a2.071,2.071,0,0,0,.56.745,2.566,2.566,0,0,0,.925.49h0a4.375,4.375,0,0,0,1.261.165,6.425,6.425,0,0,0,1.267-.119,4.765,4.765,0,0,0,.983-.319Zm-26.965-1.9v4.9H89.564V193.7h1.679l.049.046,4.9,4.729V193.7H98v8.118H96.473l-.049-.046Zm-15.735,4.9H73.828V193.7H75.8v8.118Zm-19.626-1.74h5.06v1.74H54.037V193.7h1.975Z" transform="translate(279.557 3582.117)"/><path class="a" d="M268.811,186.337a4.528,4.528,0,0,1,1.795.374,4.65,4.65,0,0,1,1.464,1.012,4.749,4.749,0,0,1,.989,1.487,4.627,4.627,0,0,1,0,3.6,4.687,4.687,0,0,1-2.453,2.485,4.577,4.577,0,0,1-1.795.371,4.627,4.627,0,0,1-1.8-.371,4.732,4.732,0,0,1-2.485-2.485,4.56,4.56,0,0,1,0-3.6,4.788,4.788,0,0,1,1-1.487,4.725,4.725,0,0,1,1.482-1.012,4.578,4.578,0,0,1,1.8-.374m7.9,4.677a7.941,7.941,0,0,0-.406-2.5,7.987,7.987,0,0,0-2.841-3.877,7.908,7.908,0,0,0-7.144-1.119,7.9,7.9,0,0,0-4.987,5,7.934,7.934,0,0,0-.4,2.5,7.876,7.876,0,0,0,5.387,7.478,7.915,7.915,0,0,0,8.855-2.821,7.714,7.714,0,0,0,1.131-2.166A7.856,7.856,0,0,0,276.711,191.014Zm-38.661,7.666h3.181V188.019h.044l3.372,6.822h2.586l3.392-6.93h.043V198.68h3.14V183.455h-4.422l-3.459,6.715-3.523-6.715h-4.355Zm-11.479.02h3.352V183.455h-3.352Zm-15.045,0h3.352V186.273h4.8v-2.818h-13v2.8h4.848Zm-14.3,0h2.841V183.415h-2.841v9.507l-6.811-9.507h-3.842V198.7H189.5V188.167Zm-42.749-12.363a4.5,4.5,0,0,1,1.792.374,4.63,4.63,0,0,1,1.467,1.012,4.748,4.748,0,0,1,.989,1.487,4.661,4.661,0,0,1,0,3.6,4.679,4.679,0,0,1-2.456,2.485,4.552,4.552,0,0,1-1.792.371,4.628,4.628,0,0,1-1.8-.371,4.763,4.763,0,0,1-1.482-1,4.715,4.715,0,0,1-1-1.482,4.56,4.56,0,0,1,0-3.6,4.741,4.741,0,0,1,1-1.487,4.692,4.692,0,0,1,1.482-1.012A4.578,4.578,0,0,1,154.478,186.337Zm7.9,4.677a7.889,7.889,0,0,0-14.259-4.671,7.885,7.885,0,0,0,1.7,11.029,7.859,7.859,0,0,0,2.163,1.119,7.917,7.917,0,0,0,8.858-2.821,7.827,7.827,0,0,0,1.534-4.656Zm-29.093-4.952a6.4,6.4,0,0,1,1.131.078,2.562,2.562,0,0,1,.934.319,1.637,1.637,0,0,1,.629.69,2.74,2.74,0,0,1,.232,1.2,2.693,2.693,0,0,1-.232,1.18,1.723,1.723,0,0,1-.629.7,2.816,2.816,0,0,1-.934.339,6.671,6.671,0,0,1-1.131.084h-2.607v-4.59Zm2.583,7a4.854,4.854,0,0,0,1.641-.678,4.329,4.329,0,0,0,1.128-1.111,4.851,4.851,0,0,0,.649-1.395,5.6,5.6,0,0,0,.212-1.534,5.738,5.738,0,0,0-.186-1.461,4.524,4.524,0,0,0-.58-1.328,4.129,4.129,0,0,0-1.018-1.093,4.825,4.825,0,0,0-1.5-.736,7.116,7.116,0,0,0-2.03-.273H127.3V198.7h3.372v-5.465h1.644l3.845,5.465h4.1l-4.271-5.636ZM116.188,198.7h3.352V183.455h-3.352Zm-15.857-12.639h2.6a6.237,6.237,0,0,1,1.11.081,2.774,2.774,0,0,1,.939.331,1.682,1.682,0,0,1,.655.693,2.974,2.974,0,0,1,0,2.357,1.7,1.7,0,0,1-.655.693,2.654,2.654,0,0,1-.939.328,6.217,6.217,0,0,1-1.11.087h-2.6ZM96.979,198.7h3.352v-5.465h3.523a7.041,7.041,0,0,0,2.018-.27,4.773,4.773,0,0,0,1.49-.736,4.29,4.29,0,0,0,1.012-1.093,4.665,4.665,0,0,0,.571-1.331,5.925,5.925,0,0,0,0-2.92,4.58,4.58,0,0,0-.571-1.328,4.106,4.106,0,0,0-1.012-1.093,4.711,4.711,0,0,0-1.49-.736,7.033,7.033,0,0,0-2.018-.273H96.979Zm-19.786-5.054a5.6,5.6,0,0,0,.348,2,4.625,4.625,0,0,0,.954,1.525,5.314,5.314,0,0,0,1.427,1.064,7.162,7.162,0,0,0,1.777.621,10.16,10.16,0,0,0,4.732-.165,5.816,5.816,0,0,0,1.986-1.026,4.348,4.348,0,0,0,1.2-1.548,4.644,4.644,0,0,0,.406-1.943,4.191,4.191,0,0,0-.258-1.5,3.554,3.554,0,0,0-.664-1.116,4.319,4.319,0,0,0-.919-.783,5.76,5.76,0,0,0-1.009-.522,8.9,8.9,0,0,0-.948-.319c-.29-.081-.536-.142-.728-.186-.763-.18-1.409-.345-1.94-.484s-.971-.273-1.313-.4a3.318,3.318,0,0,1-.794-.389,1.092,1.092,0,0,1-.394-.446,1.356,1.356,0,0,1-.107-.586A1.518,1.518,0,0,1,81.7,186.1a2.5,2.5,0,0,1,.745-.293,3.66,3.66,0,0,1,.809-.09,8.019,8.019,0,0,1,.855.035,3.465,3.465,0,0,1,.893.217,1.981,1.981,0,0,1,.768.548,2.369,2.369,0,0,1,.5,1.032l3.244.47a4.983,4.983,0,0,0-.331-1.861,4.093,4.093,0,0,0-.9-1.389,4.9,4.9,0,0,0-1.351-.945,7.087,7.087,0,0,0-1.664-.542,9.979,9.979,0,0,0-1.859-.168,7.7,7.7,0,0,0-1.65.177,6.506,6.506,0,0,0-1.545.539,5.032,5.032,0,0,0-1.293.913,4.185,4.185,0,0,0-.884,1.293,4.257,4.257,0,0,0-.328,1.685,3.868,3.868,0,0,0,.391,1.792,3.47,3.47,0,0,0,1.026,1.221,6.153,6.153,0,0,0,1.453.8,13.775,13.775,0,0,0,1.667.528c.571.145,1.128.281,1.664.412a11.874,11.874,0,0,1,1.456.455,2.926,2.926,0,0,1,1.029.647,1.381,1.381,0,0,1,.386.989,1.569,1.569,0,0,1-.194.792,1.649,1.649,0,0,1-.51.548,2.629,2.629,0,0,1-.71.336,4.679,4.679,0,0,1-.789.174,6.543,6.543,0,0,1-.763.046,6.442,6.442,0,0,1-1-.075,3.529,3.529,0,0,1-1.021-.313,2.385,2.385,0,0,1-.855-.69,2.688,2.688,0,0,1-.5-1.2Zm-6.846-10.191H67v9.481a4.863,4.863,0,0,1-.29,1.87,2.016,2.016,0,0,1-.989,1.09,4.207,4.207,0,0,1-1.882.348,4.165,4.165,0,0,1-1.635-.281,2.3,2.3,0,0,1-.954-.745,2.844,2.844,0,0,1-.441-1.061,6.033,6.033,0,0,1-.11-1.221v-9.481H57.344v9.481a6.981,6.981,0,0,0,.768,3.436,4.72,4.72,0,0,0,2.206,2.03,8.451,8.451,0,0,0,3.517.661,8.281,8.281,0,0,0,3.5-.673,4.828,4.828,0,0,0,2.23-2.035,6.861,6.861,0,0,0,.783-3.418ZM37.622,193.647a5.6,5.6,0,0,0,.351,2,4.578,4.578,0,0,0,.954,1.525,5.269,5.269,0,0,0,1.427,1.064,7.141,7.141,0,0,0,1.774.621,10.173,10.173,0,0,0,4.735-.165,5.828,5.828,0,0,0,1.983-1.026,4.316,4.316,0,0,0,1.2-1.548,4.644,4.644,0,0,0,.406-1.943,4.193,4.193,0,0,0-.255-1.5,3.615,3.615,0,0,0-.667-1.116,4.235,4.235,0,0,0-.916-.783,5.784,5.784,0,0,0-1.012-.522,8.682,8.682,0,0,0-.948-.319c-.29-.081-.536-.142-.728-.186-.763-.18-1.409-.345-1.94-.484s-.971-.273-1.313-.4a3.29,3.29,0,0,1-.792-.389,1.08,1.08,0,0,1-.4-.446,1.4,1.4,0,0,1-.107-.586,1.518,1.518,0,0,1,.751-1.342,2.532,2.532,0,0,1,.745-.293,3.686,3.686,0,0,1,.812-.09,7.967,7.967,0,0,1,.852.035,3.409,3.409,0,0,1,.893.217,1.981,1.981,0,0,1,.768.548,2.338,2.338,0,0,1,.5,1.032l3.244.47a4.984,4.984,0,0,0-.331-1.861,4.087,4.087,0,0,0-.9-1.389,4.954,4.954,0,0,0-1.354-.945,7.043,7.043,0,0,0-1.664-.542,9.979,9.979,0,0,0-1.859-.168,7.724,7.724,0,0,0-1.65.177,6.507,6.507,0,0,0-1.545.539,4.968,4.968,0,0,0-1.29.913,4.144,4.144,0,0,0-.887,1.293,4.309,4.309,0,0,0-.328,1.685,3.942,3.942,0,0,0,.391,1.792,3.448,3.448,0,0,0,1.029,1.221,6.041,6.041,0,0,0,1.453.8,13.569,13.569,0,0,0,1.664.528q.861.217,1.664.412a11.717,11.717,0,0,1,1.456.455,2.874,2.874,0,0,1,1.029.647,1.4,1.4,0,0,1,.389.989,1.569,1.569,0,0,1-.2.792,1.67,1.67,0,0,1-.507.548,2.689,2.689,0,0,1-.713.336,4.618,4.618,0,0,1-.789.174,6.5,6.5,0,0,1-1.763-.029,3.556,3.556,0,0,1-1.021-.313,2.376,2.376,0,0,1-.852-.69,2.625,2.625,0,0,1-.5-1.2Z" transform="translate(248.378 3562.34)"/><path class="b" d="M88.616,198.506H85.264V188.015l3.353-4.8v15.287" transform="translate(338.87 3562.535)"/><path class="b" d="M88.616,181.579H85.264v4.8l3.353-4.8" transform="translate(338.87 3559.421)"/></g></svg>