<svg xmlns="http://www.w3.org/2000/svg" width="172.056" height="28.322" viewBox="0 0 172.056 28.322"><defs><style>.a{fill:#3e3e3e;}</style></defs><path class="a" d="M306.332,206.988H284.7V184.456H306.13V188H289.5v5.24h10.231v3.195H289.5v6.232h16.832Zm-27.8-1.6c0,.475-.368.855-1.1,1.152a7.267,7.267,0,0,1-2.782.445l-16.039-.074a7.5,7.5,0,0,1-2.761-.445c-.719-.3-1.072-.683-1.072-1.155V184.379h4.8v17.984l14.139.077V184.456h4.81Zm-34.937-2.72V187.846h-16.57v14.825h7.821l-2.319-5.175,4.445-.039,2.663,5.214Zm4.516,2.833c-.413.784-1.58,1.179-3.524,1.179h-3.132l2.348,5.882-4.9-.009-2.361-5.873H226.059a7.332,7.332,0,0,1-2.764-.448c-.719-.3-1.075-.68-1.075-1.152V186.053c0-.466.356-.855,1.075-1.149a7.274,7.274,0,0,1,2.764-.448h18.53a6.343,6.343,0,0,1,2.553.33c.707.3,1.256.8,1.256,1.268V203.5ZM215.6,206.988h-3.313l-17.158-16.57v16.57H190.6V184.456h3.6l16.716,14.661.154-14.661H215.6ZM177.821,197.5l-4.433-8.806-4.071,8.806Zm10.534,9.486h-4.762l-2.53-4.935-14.225-.077-2.595,5.012h-4.78v-.056l11.571-22.69h5.039Zm-42.443-18.444h-6.68l-.151,13.818h6.392C157.711,202.362,157.934,188.544,145.912,188.544Zm.742,18.444H134.276V184.456h12.378C163.029,184.456,164.053,206.988,146.654,206.988Z" transform="translate(-134.276 -184.242)"/></svg>