<svg xmlns="http://www.w3.org/2000/svg" width="99.592" height="36.464" viewBox="0 0 99.592 36.464"><defs><style>.a{fill:#3e3e3e;}</style></defs><g transform="translate(-756 -3744)"><path class="a" d="M214.645,203.859l-1.771,3.334v11.2h-5.73V181.929h5.73v15.888l7.5-15.888h5.73l-7.97,16.254,7.97,20.21h-5.887Z" transform="translate(548.856 3562.071)"/><path class="a" d="M234.99,218.393h-5.784l-.988-6.616h-7.033l-.989,6.616h-5.262l5.833-36.464h8.387ZM221.913,206.83h5.522l-2.76-18.439Z" transform="translate(561.119 3562.071)"/><path class="a" d="M230.267,206.31l-7.239-24.38h5.99l4.374,16.617,4.376-16.617h5.47L236,206.31v12.083h-5.73Z" transform="translate(573.861 3562.071)"/><path class="a" d="M231.769,181.929h5.73v31.256h9.427v5.208H231.769Z" transform="translate(587.621 3562.071)"/><path class="a" d="M258.1,218.393h-5.782l-.991-6.616h-7.033l-.988,6.616h-5.262l5.833-36.464h8.387ZM245.022,206.83h5.522l-2.762-18.439Z" transform="translate(597.495 3562.071)"/></g></svg>