<svg xmlns="http://www.w3.org/2000/svg" width="87.726" height="84.376" viewBox="0 0 87.726 84.376"><defs><style>.a{fill:#3e3e3e;fill-rule:evenodd;}</style></defs><path class="a" d="M142.037,284.852c-.066-.04-.51.143-.4.358a8.518,8.518,0,0,1-.372,4.764c-1.861,4.557-4.852,9.34-7.607,14.242-2.442,4.339-5.061,8.6-7.092,12.578a19.723,19.723,0,0,0-10.431,5.048,31.446,31.446,0,0,0-6.017,7.057c-1.85,3.073-2.447,5.348-1.523,6.659.855,1.263,2.731.794,4.634-.425,3.705-2.715,6.184-6.168,8.461-8.74-2.739,5.305-3.44,8.1-2.986,10.006.35,2.014,2.362,2.8,4.262,2.787,2.288.109,5.287-1.375,7.676-3.979,2.588,2.829,8.35-.332,12.084-6.107,1.709,1.062,3.66,1.12,6.062.045-2.1,4.764-.642,7.041,3.368,6.694a13.448,13.448,0,0,0,6.4-2.479,38.958,38.958,0,0,0,7.378-6.577l-4.483,7.368c-1.4.194-1.367.422-1.423.82a.788.788,0,0,0,.5.884c-5.982,9.69-16.875,27.271-18.207,28.792a14.3,14.3,0,0,1-5.13,3.976c-.369.109-.382.7.5.587,4.268-.51,6.927-1.569,7.761-3.251l2.529-4.708a211.4,211.4,0,0,1,13.788-25.341,53.816,53.816,0,0,0,15.2-4.2,28.608,28.608,0,0,0,10.027-7.7c-.024,1.078.91,2.622,1.831,3.931a5.866,5.866,0,0,1,.99,2.827c.191,3.18-1.76,4.5-4.825,4.793-2.529.072-4.162-1.21-4.987-3.721-.066-.151-.13-.3-.2-.448a9.358,9.358,0,0,1-1.861,1.372c.263,2.121,1.861,3.249,4.682,3.479a9.9,9.9,0,0,0,6.871-1.794c2.835-2.272,3.684-5.284,1.969-8.1l-2.352-3.6a2.472,2.472,0,0,1,1.316-3.456c1.457-.637,3.156-.868,3.981.374l.22.377a.236.236,0,0,0,.318-.08l.141-.321.687-1.518c.311-.6-.1-1.024-.825-1.1a7.621,7.621,0,0,0-5.332,2.245,9,9,0,0,0-2.654,3.981,30.217,30.217,0,0,1-10.4,7.779,32.029,32.029,0,0,1-11.259,2.837,37.793,37.793,0,0,0,5.64-3.291,34.631,34.631,0,0,0,3.3-2.779l2.827-3.06c2.322-2.787,3-4.889,3.145-6.542.066-2.314-1.784-2.986-4.594-1.4l-5.13,4.671,2.614-3.575a62.871,62.871,0,0,1,7.67-8.4c.2-.226.276-.719-.146-.653-1.224.133-3.57.273-4.313,1.449a113.488,113.488,0,0,0-9.18,14.566c-.541.13-.855.831-1.3,1.316-5.329,5.767-10.234,8.96-13.209,8.612-1.55-.366-2.022-1.032-1.89-3.472,1.412-5.321,4.684-9.913,7.177-14.4,17.14-9.425,24.051-25.869,24.707-29,.4-1.287-.191-1.969-2.243-1.762-2.72.273-5.1,1.648-7.355,4.292-4.09,3.833-16.561,25.065-23.645,37.438-1.762,1.5-4.438,1.635-5.669-.311,1.879-3.687,4.483-7.585,2.574-9.9-.775-.908-2.6-.969-5.223.411-2.829,1.462-5.223,3.235-8.541,8.443-1.765,3.15-2.588,5.868-2.166,8-2.243,2.415-4.584,3.907-7.092,3.917-3.209-.1-3.525-2.46-1.876-6.357a94.225,94.225,0,0,1,7.243-15.447l1.614-3.095,3.66-6.6,5.608-9.117,3.365-5.133a4.2,4.2,0,0,0,.39-3.96l-1.245-3.891Zm-16.07,33.258-4.093,6.778a56.239,56.239,0,0,1-7.057,8.023c-2.524,2.3-4.432,1.391-2.206-3.089,1.709-3.246,3.763-6.622,6.2-8.679a10.816,10.816,0,0,1,7.158-3.034Zm15.224,1.027a8.126,8.126,0,0,1,2.3-1.468c3.955-1.391,2.7,4.2-.342,9.045-1.287-1.8-1.744-4.5-1.961-7.577Zm-2.513,2.824c.528,2.975,1.348,5.568,3.214,6.779a21.547,21.547,0,0,1-3.413,4.414c-4.454,3.96-5.982,1.168-3.806-4.053a32.458,32.458,0,0,1,4.005-7.14Zm24.11,12.153c2.845-5.674,6-10.72,10.027-14.037,3.718-3.023,4.645-1.149,3.408,1.765a21.779,21.779,0,0,1-13.435,12.272Zm-4.278-18.143c5-7.676,9.4-15.55,15-23.022a37.391,37.391,0,0,1,2.344-2.986c2.07-2.211,3.891-2.635,3.6.38-.09.963-.029,1.088-.979,3.583C175.659,299.437,172.628,306.892,158.508,315.972Z" transform="translate(-108.17 -284.847)"/></svg>