<svg xmlns="http://www.w3.org/2000/svg" width="51.278" height="61.352" viewBox="0 0 51.278 61.352"><defs><style>.a{fill:#3e3e3e;stroke:rgba(0,0,0,0);fill-rule:evenodd;}</style></defs><g transform="translate(-1000.499 -3731.499)"><path class="a" d="M354.14,336.755a18.287,18.287,0,0,1,9.019-4.6c.606-.115.653-.238.645-.915-.022-2.545-.224-5.823.041-6.779.019-1.024,6.061-.617,7.956-.623.729.06,1.038-.011,1.055-.535.1-2.824.614-7.563.382-7.926.057-1.193-14.113-.737-16.186-.336-2.759.737-11.9,8.716-9.937,8.7l7.025-.027S354.151,335.392,354.14,336.755Z" transform="translate(654.159 3417.521)"/><path class="a" d="M394.762,340.654l.022,21c.869-1.442,4.433-6.195,8.784-6.97.4-.071,1.011-.131.989-.53l-.079-7.309c.008-.6.087-.683.729-.557,4.6,1.115,13.4,3.42,13.8,3.346,3.174.363,18.628-6.938,18.74-10.191l-.03-18.819c.008-.374.025-.494-.273-.757l-7.02-5.916c-.3-.287-.574-.265-.593.109l-.839,23.443c-.005.639-.328,1.049-1.065.836a144.753,144.753,0,0,0-17.016-2.191,41.853,41.853,0,0,0-6.413-.169A17.833,17.833,0,0,0,394.762,340.654Z" transform="translate(613.532 3418.249)"/><path class="a" d="M412.621,533.8c.434.743.464.934.623-.1l1.4-5.859a1.206,1.206,0,0,1,.817-1.03l7.831-3.283a.567.567,0,0,1,.694.082l3.813,4.187c.229.221.273.2.41-.15.475-1.194.12-5.826.358-6.4a1,1,0,0,1,.363-.4c3.1-1.636,7.408-3.78,8.9-6.394v23.236c-.06.374-.59.628-.811.762l-7.9,3.474a.716.716,0,0,1-.732-.232L423,535.964a.29.29,0,0,0-.5.137l-2.475,7.711c-.115.3-.115.445-.661.418l-11.281.025c-.314,0-.36-.074-.437-.254-4.594-10.865-12.736-6.943-12.78-7.2-.164-.964,4.783-6.919,8.882-7.582C407.754,528.576,410.7,530.226,412.621,533.8Z" transform="translate(613.448 3248.097)"/></g></svg>