<svg xmlns="http://www.w3.org/2000/svg" xmlns:xlink="http://www.w3.org/1999/xlink" width="183.969" height="39.022" viewBox="0 0 183.969 39.022"><defs><style>.a{fill:#3e3e3e;}.b{clip-path:url(#a);}</style><clipPath id="a"><rect class="a" width="183.969" height="39.022"/></clipPath></defs><g transform="translate(0 0)"><g class="b"><path class="a" d="M22.939,4.339c-.082.217-1.708,7.208-3.658,15.554-1.923,8.347-3.631,15.528-3.74,15.988l-.244.813-.163-.678c-.108-.379-1.761-7.153-3.685-15.04C9.525,13.065,7.817,6.1,7.655,5.45c-.3-1.11-.352-1.138-1.409-1.138H5.135l.189,1c.109.569,1.9,7.967,3.957,16.476,2.086,8.482,4.065,16.585,4.39,17.939a10.974,10.974,0,0,0,.731,2.52,11.785,11.785,0,0,0,.7-2.52c.325-1.355,2.3-9.917,4.417-19,2.113-9.052,3.794-16.558,3.712-16.639-.082-.054-.217.027-.3.244Zm0,0" transform="translate(-5.168 -4.079)"/><path class="a" d="M115.333,4.339c-.082.217-1.708,7.208-3.658,15.554-1.923,8.347-3.631,15.528-3.74,15.988l-.244.813-.163-.678c-.108-.379-1.761-7.153-3.685-15.04-1.924-7.913-3.632-14.877-3.794-15.528-.3-1.084-.352-1.138-1.383-1.138-.6,0-1.084.135-1.084.3,0,.3,2.873,12.248,6.856,28.48,1.219,5.04,2.276,9.159,2.357,9.159a11.81,11.81,0,0,0,.7-2.52c.325-1.355,2.3-9.917,4.417-19,2.113-9.052,3.794-16.558,3.712-16.639-.082-.054-.217.027-.3.244Zm0,0" transform="translate(-62.875 -4.079)"/><path class="a" d="M275.333,4.339c-.082.217-1.708,7.208-3.659,15.554-1.923,8.347-3.63,15.528-3.74,15.988l-.243.813-.163-.678c-.108-.379-1.762-7.153-3.685-15.04-1.924-7.913-3.632-14.877-3.794-15.528-.3-1.11-.352-1.138-1.409-1.138h-1.112l.189,1c.109.569,1.9,7.967,3.957,16.476,2.086,8.482,4.065,16.585,4.39,17.939a11,11,0,0,0,.731,2.52,11.8,11.8,0,0,0,.705-2.52c.325-1.355,2.3-9.917,4.417-19,2.113-9.052,3.794-16.558,3.712-16.639-.082-.054-.217.027-.3.244Zm0,0" transform="translate(-162.715 -4.079)"/><path class="a" d="M327.122,4.257l-2.385.109V42.819l8.347-.054,8.319-.054-7.181-.163a54.852,54.852,0,0,1-7.1-.352c.028-.108.054-5.745.054-12.52V17.346l7.127-.081,7.1-.054-7.1-.081-7.127-.054V4.61h7.073c4.633,0,6.992-.082,6.883-.271-.162-.244-8.1-.3-14.01-.082Zm0,0" transform="translate(-204.667 -4.106)"/><path class="a" d="M391.638,4.43C386.678,6,384.05,11.557,386.3,15.7c1.084,1.979,2.981,3.577,7.452,6.233,4.607,2.764,6.45,4.445,7.588,6.91a6.225,6.225,0,0,1,.731,4.146c-.243,5.312-3.469,8.889-8.265,9.214a5.533,5.533,0,0,1-3.658-.7,10.932,10.932,0,0,1-4.336-3.577c-.407-.514-.813-.867-.895-.785-.243.244,1.789,2.71,2.927,3.577a8.648,8.648,0,0,0,7.723,1.708,10.061,10.061,0,0,0,5.338-3.17,10.922,10.922,0,0,0,1.436-13.306c-1.327-2.114-3.929-4.282-8.076-6.721-5.908-3.5-7.588-5.446-7.235-8.427.514-4.2,4.715-7.237,8.564-6.206a9.043,9.043,0,0,1,4.336,4.039c.325.7.839,1.164.839.7a8.229,8.229,0,0,0-1.843-2.9,6.841,6.841,0,0,0-7.289-2Zm0,0" transform="translate(-242.22 -4.088)"/></g></g><path class="a" d="M443.722,4.438a21.631,21.631,0,0,0,4.2.217h4.2V42.864h2.168V4.655h4.2a21.633,21.633,0,0,0,4.2-.217,92.226,92.226,0,0,0-9.485-.244,92.668,92.668,0,0,0-9.484.244Zm0,0" transform="translate(-278.94 -4.151)"/><g transform="translate(0 0)"><g class="b"><path class="a" d="M73.064,23.939v19.24H75.5V26.026c0-9.457-.082-18.1-.162-19.24L75.15,4.7H73.064Zm0,0" transform="translate(-47.57 -4.466)"/><path class="a" d="M163.08,8.634c-.3,1.383-2.276,9.891-4.39,18.889-3.278,14.036-3.929,17.18-3.441,16.53.054-.055.624-2.358,1.247-5.122.65-2.764,1.6-6.8,2.113-9.024l.948-3.983h6.856l2.2,9,2.194,9.024,1.139.082c.785.054,1.11-.027,1.11-.271,0-.867-9.025-37.613-9.214-37.613a10.37,10.37,0,0,0-.759,2.493Zm1.436,9.458c.841,3.5,1.572,6.557,1.654,6.8.135.434-.136.488-3.116.488a14.115,14.115,0,0,1-3.279-.189c0-.434,3.09-13.631,3.17-13.55.028.054.759,2.954,1.572,6.45Zm0,0" transform="translate(-98.781 -5.366)"/></g></g></svg>