<svg xmlns="http://www.w3.org/2000/svg" width="148.444" height="31.364" viewBox="0 0 148.444 31.364"><defs><style>.a{fill:#3e3e3e;fill-rule:evenodd;}</style></defs><g transform="translate(-108 -3840)"><path class="a" d="M346.145,447.807v.015a4.514,4.514,0,0,0,.921,0c.045.006.06.039.09.06.164.012.395-.036.49.045.123,0,.266-.018.329.045.23-.018.323.1.55.09.066.045.176.048.236.1.194-.021.248.1.43.09.078.111.278.093.359.194h.12a.485.485,0,0,0,.176.1,4.366,4.366,0,0,0,.565.266c.021.045.069.06.09.1.093-.024.069.072.164.045.015.108.173.075.194.179a1.687,1.687,0,0,1,.49.341h.072c.03.081.12.1.149.179.039.027.045-.006.09.015.335.359.679.708,1.04,1.04-.021.126.111.1.1.209.057.057.1.128.179.161a.138.138,0,0,0,.1.149c-.024.123.1.1.09.209a.231.231,0,0,0,.09.072c.03.03,0,.039,0,.075.111.024.084.185.194.209.027.17.117.212.15.356.039.015.033.075.087.075.03.2.188.269.194.49a.669.669,0,0,1,.135.314c0,.042.042.036.06.06.009.045-.015.054-.015.087.06.021.042.117.1.134-.03.123.06.126.042.239.057.054.036.182.1.221,0,.036-.024.057-.015.1-.009.057.057.033.06.075-.03.149.072.164.045.311.072.051.024.215.09.269v.194c0,.048.045.042.06.072a.764.764,0,0,0-.015.209c-.012.057.057.033.06.075a2.451,2.451,0,0,1-.015.4c.009.042.063.039.06.09v.685a4.011,4.011,0,0,1,0,.685c-.012.048-.009.06-.06.09a1.69,1.69,0,0,1,.015.356c.012.057-.057.033-.06.075.006.078-.015.185.015.236.006.057-.048.054-.06.09.03.179-.075.224-.045.4-.06.045-.021.188-.1.209a.289.289,0,0,1,.015.12c.012.057-.057.033-.06.075s-.018.1.015.1c-.081.087-.069.266-.147.356v.135c-.009.045-.069.042-.045.117-.093.015-.018.1-.1.12-.018.042.027.09,0,.09-.039.042-.03.129-.09.149v.12c-.063.033-.063.108-.09.161s-.066.09-.09.135-.042.117-.075.179-.063.114-.087.176c-.036.027-.057.039-.03.09-.048.015-.048.072-.1.075.027.1-.069.081-.045.179-.111.024-.084.185-.194.209.012.084-.036.111-.09.131.015.122-.1.117-.1.224-.051.024-.072.078-.12.1a.118.118,0,0,0-.015.09c-.09.03-.12.12-.194.161v.075c-.123.108-.3.221-.341.386a5.314,5.314,0,0,0-.52.52h-.075c-.081.128-.224.194-.3.329-.164.018-.2.161-.356.191-.036.051-.087.084-.12.134a.111.111,0,0,0-.075.015c-.042.087-.173.084-.206.179-.063-.036-.081.039-.09.045s-.045-.009-.06,0c-.042.024-.06.075-.1.1-.006,0-.03-.006-.045,0s-.027.021-.045.03a.418.418,0,0,0-.06.015c-.015.006-.024.033-.045.045s-.084.027-.117.042a.389.389,0,0,0-.045.03c-.03.018-.054.006-.075.015s-.015.039-.03.045a.285.285,0,0,1-.06.015,1.158,1.158,0,0,1-.1.06.549.549,0,0,0-.206.12c-.167-.03-.2.12-.329.09-.042,0-.039.048-.075.06a.268.268,0,0,0-.221.09c-.075-.012-.126,0-.15.045a.521.521,0,0,0-.341.1.239.239,0,0,0-.209.045h-.149c-.048-.012-.018.051-.06.045-.2-.015-.287.078-.505.045-.048-.012-.018.051-.06.045h-.3c.024.134.156.161.179.3.057.036.09.1.147.135-.021.122.117.084.09.209.084.036.117.122.194.161a.4.4,0,0,0,.179.284c.054.161.2.23.251.4.033.024.057.054.09.075v.075c.063.018.069.09.135.1-.027.1.108.1.1.221.132.1.182.275.326.359-.027.09.066.063.045.149.054.039.081.1.149.131-.03.129.111.09.087.209.066.024.078.1.149.12-.024.122.1.093.09.206.054.033.075.093.135.12-.024.1.1.093.1.209.051.036.075.1.134.12,0,.1.1.182.194.236a.435.435,0,0,0,.194.3c-.024.117.1.081.087.191.03.063.123.057.1.164.06.021.069.09.135.1v.075c.06.027.081.1.149.117-.018.147.141.12.134.254.036.027.063.066.1.09-.015.111.1.087.09.191.1.072.111.23.239.269-.006.108.069.141.135.179-.027.1.1.1.1.224.06.024.075.093.135.117-.018.129.126.093.1.224.081.027.093.123.179.146a.358.358,0,0,0,.191.284c-.027.126.131.114.09.209.057.036.093.1.149.131-.021.123.114.084.09.209.063.027.075.1.146.12,0,.108.069.138.134.179-.021.134.129.1.1.236.057.042.135.066.135.164.021.027.09.009.1.045v.1c.048.039.072.1.132.12-.027.125.138.111.09.209.06.027.078.1.149.12-.012.131.122.126.1.221.054.03.075.093.132.12v.075c.069.012.075.087.135.1-.018.1.1.09.1.206.042.045.069.1.135.12-.036.09.06.1.1.149v.06a.552.552,0,0,0,.132.132v.06c.036.054.12.06.1.164.066.012.072.087.135.1v.075c.12.045.1.221.239.254v.072a1.578,1.578,0,0,0,.146.135c-.042.072.066.057.045.15.045.066.143.075.135.191.063.027.081.1.149.12-.036.1.075.114.09.135s-.012.048,0,.06a.376.376,0,0,0,.147.135c-.024.122.1.093.09.206.051.036.084.087.135.12-.021.1.111.1.1.224.054.024.072.087.132.1.027.012-.006.06,0,.075s.084.042.1.075c.009.015-.009.048,0,.06a1.149,1.149,0,0,1,.239.341c.042.066.143.075.134.194.063.027.081.1.147.12-.033.1.078.114.09.134s-.009.045,0,.057c.081.111.2.194.239.344a1.7,1.7,0,0,0,.135.119c0,.1.1.1.1.206a.348.348,0,0,0,.134.12c.027.03,0,.036,0,.075.111.06.126.212.239.269-.018.108.1.087.1.176-.012.015-.054.006-.042.045h-4.759c0-.093-.009-.188.06-.206-.009-.078.006-.126.045-.149-.021-.2.027-.422,0-.61-.009-.063-.072-.114-.045-.179-.063-.057-.06-.1-.1-.179,0-.03-.084-.114-.09-.191a.285.285,0,0,0-.09-.09c.039-.1-.1-.084-.042-.149-.108-.063-.111-.227-.239-.266.024-.132-.117-.1-.1-.224-.054-.024-.066-.093-.135-.1.024-.131-.117-.1-.1-.221-.057-.03-.078-.093-.134-.12V476.4c-.066-.024-.078-.1-.15-.12.021-.149-.146-.111-.134-.251-.075-.045-.1-.135-.191-.165.027-.1-.063-.078-.045-.164-.048-.069-.152-.087-.149-.206-.06-.021-.078-.084-.135-.1v-.075c-.06-.018-.066-.09-.132-.1a.084.084,0,0,1-.015-.075c-.042-.042-.072-.1-.134-.12.012-.152-.152-.123-.15-.266-.048-.057-.131-.078-.134-.179-.054-.036-.093-.1-.149-.132v-.075c-.06-.018-.066-.093-.132-.1,0-.117-.081-.149-.149-.194.027-.054-.021-.072-.045-.1s-.024-.063-.045-.09c-.057-.078-.143-.1-.149-.221-.057-.045-.14-.066-.132-.179-.06-.021-.078-.084-.134-.1-.018-.015-.018-.051-.015-.087-.063-.018-.069-.093-.135-.1a.108.108,0,0,1,0-.075c-.06-.03-.075-.1-.149-.12.006-.108-.066-.141-.132-.179,0-.1-.078-.146-.149-.206.021-.123-.114-.084-.09-.209-.072-.036-.1-.114-.179-.15-.015-.057-.012-.078-.057-.117l-.045-.03c-.009-.015.009-.048,0-.06a.381.381,0,0,0-.149-.134v-.075c-.143-.084-.137-.23-.284-.311v-.075c-.081-.039-.117-.123-.191-.164.021-.117-.108-.081-.09-.191a.381.381,0,0,0-.15-.134c.006-.108-.069-.14-.134-.179.006-.123-.093-.144-.147-.209v-.072c-.066-.015-.072-.087-.134-.1V470.3c-.066-.024-.081-.1-.15-.12.024-.072-.024-.078-.06-.117s-.018-.063-.03-.078a.637.637,0,0,0-.191-.176c.024-.125-.1-.1-.09-.209-.054-.066-.155-.084-.149-.209-.066-.012-.072-.084-.134-.1v-.075c-.063-.027-.081-.1-.147-.12v-.075c-.155-.093-.152-.26-.329-.341v-.075c-.1-.057-.1-.209-.221-.254a.084.084,0,0,1-.015-.075c-.006-.033-.081,0-.09-.027v-.1a.571.571,0,0,0-.134-.12.094.094,0,0,1-.015-.075c-.039-.045-.069-.1-.134-.117.015-.155-.152-.129-.146-.269-.051-.036-.084-.087-.135-.12v-.075c-.063-.015-.075-.084-.135-.1a.254.254,0,0,0-.149-.191c-.027-.03,0-.039,0-.075-.06-.03-.078-.1-.147-.12.033-.126-.141-.114-.09-.209-.069-.045-.111-.117-.179-.161a.1.1,0,0,1-.015-.075c-.057-.039-.093-.1-.149-.134v-.075c-.057-.021-.075-.081-.132-.1.03-.123-.141-.114-.09-.206-.078-.045-.108-.134-.194-.164.024-.138-.126-.1-.1-.239-.066-.012-.072-.084-.131-.1.006-.111-.087-.122-.135-.179H338.5a1.084,1.084,0,0,0-.015.326c0,3.665.012,7.452-.015,11.108,0,.042.063.024.057.072v.595c-.012.051.051.021.045.06-.033.248.06.368.045.595,0,.048.048.045.06.075-.072.128.1.185.03.311.108.09.06.329.15.433v.134c.057.036.042.146.06.221h-4.609c.006-.078-.021-.191.045-.206v-.134c.063-.042.024-.185.1-.209a.156.156,0,0,1,.045-.194.37.37,0,0,1-.015-.147c-.021-.051.045-.033.06-.075s-.012-.1,0-.134.045-.027.042-.075v-.194c-.021-.039.036-.039.045-.072a2.4,2.4,0,0,0,0-.254c.087-.132.03-.407.045-.61-.018-.069.054-.045.06-.09-.027-8.394-.015-17.083-.015-25.6a2.618,2.618,0,0,0,.015-.386.835.835,0,0,0-.236-.269c-.03-.018-.066-.012-.09-.03-.081-.063-.126-.146-.194-.206a.118.118,0,0,0-.09-.015c-.021-.069-.087-.093-.117-.149-.087.012-.1-.048-.134-.09-.152-.018-.176-.147-.3-.135-.036-.057-.1-.09-.134-.146-.1-.009-.147-.081-.236-.1a.186.186,0,0,1-.09-.09c-.149-.012-.2-.123-.356-.134-.027-.093-.173-.063-.209-.149h-.12c-.039-.072-.167-.057-.206-.132h-.09c-.069-.072-.164-.027-.224-.1a.12.12,0,0,1-.131-.045.6.6,0,0,1-.284-.09h-.12c-.069-.033-.075-.072-.176-.045-.06,0-.048-.063-.1-.06-.1-.006-.161.012-.239,0s-.125-.078-.221-.045v-.936Zm1.961,2.484h0c-.087-.132-.3-.129-.386-.269-.039.03-.063-.024-.075-.03s-.051,0-.075-.015-.027-.036-.045-.045-.054,0-.075-.015l-.042-.03a.219.219,0,0,1-.06-.03c-.03-.015-.09-.03-.1-.072h-.12c-.051-.078-.179-.078-.236-.149-.057.048-.1-.027-.149-.045s-.069.006-.1-.03l-.03-.015a.933.933,0,0,1-.284-.09c-.14.024-.161-.075-.311-.045-.03-.015-.024-.066-.075-.06-.149.018-.191-.075-.356-.045-.039,0-.015-.063-.075-.045h-.239c-.057.015-.024-.063-.087-.042h-.329a.587.587,0,0,0-.1-.045c-.272-.054-.676.039-.98,0a.445.445,0,0,0-.1-.045,4.335,4.335,0,0,0-.711,0h-4.938v13.6a.175.175,0,0,1,.045.165c.045.012.057.054.09.075-.021.069.078.06.06.164a2.215,2.215,0,0,1,.239.236.917.917,0,0,1,.3.149c.087-.033.158.036.224.045a6.776,6.776,0,0,0,.816,0h5.635c.057.006.039-.06.1-.045h.284c.063.009.027-.081.1-.06.051.009.137-.018.164.015.057,0,.057-.063.12-.06.129.039.134-.078.3-.045.03-.006.012-.057.06-.045h.12a1.233,1.233,0,0,1,.164-.09h.117c.03-.039.09-.048.135-.072a.29.29,0,0,1,.224-.075.893.893,0,0,1,.266-.15.784.784,0,0,1,.3-.134c.006-.048.048-.06.075-.09.084.021.057-.069.147-.042.039-.057.1-.1.134-.149.132.006.108-.141.239-.135.06-.066.1-.143.206-.164.236-.233.46-.481.715-.7-.021-.1.066-.084.045-.179.045-.021.051.012.09-.015-.012-.114.09-.117.135-.179-.006-.114.12-.1.1-.221.063,0,.051-.072.1-.075-.015-.09.045-.1.09-.134-.021-.1.066-.081.045-.179.129-.039.09-.176.194-.251v-.12c.081-.027.054-.066.1-.15.03-.045.051-.033.03-.12.075-.048.06-.161.149-.221-.027-.132.072-.138.045-.269.078,0,.021-.125.1-.12-.06-.117.087-.123.03-.236.012-.033.063-.027.06-.075-.024-.143.075-.161.045-.311.075,0,.021-.108.045-.179.012-.042.048-.012.045-.06V458.3c0-.042.069-.018.057-.075-.057-.1.024-.182.045-.251-.012-.215.078-.329.045-.565-.006-.051.066-.024.045-.09v-.655a.8.8,0,0,0,0-.565v-.655c.015-.057-.063-.024-.045-.087v-.3c-.06-.042-.042-.164-.045-.266a.231.231,0,0,1-.045-.239c.012-.06-.069-.027-.057-.09v-.135c-.078-.015-.027-.117-.045-.176s-.054-.012-.045-.06v-.135c-.069-.036-.033-.176-.1-.209.051-.093-.093-.111-.03-.221-.021-.018-.066-.015-.06-.06.021-.081-.027-.093-.045-.134v-.09c-.078-.093-.114-.233-.194-.326-.009-.206-.147-.29-.176-.475a.753.753,0,0,1-.1-.09c.021-.087-.072-.057-.045-.149-.042-.036-.1-.054-.09-.149-.051-.012-.066-.063-.1-.087.024-.117-.117-.072-.087-.194-.143-.084-.185-.272-.329-.356a.091.091,0,0,0-.015-.075c-.2-.191-.4-.392-.595-.595-.117-.027-.167-.122-.236-.194-.122-.006-.131-.14-.239-.119-.012-.066-.087-.072-.1-.132h-.075l.009-.024-.024.009Z" transform="translate(-222.64 3392.204)"/><path class="a" d="M344.722,447.807h23.34a1.97,1.97,0,0,1,.015.505c-.006.371-.009.81,0,1.19a1.705,1.705,0,0,1-.015.49c-.266-.06-.532-.129-.819-.179a.714.714,0,0,0-.1-.027l-.1-.015a16.345,16.345,0,0,0-2.589-.135H352.557c-.012,0-.015.015-.03.015v9.305c0,.147-.009.293,0,.43s.036.248.045.374c0,.042-.006.078,0,.117s.024.045.03.075c.009.069,0,.132.015.194,0,.024.036.039.042.06.018.042-.012.1,0,.134a.331.331,0,0,1,.06.087c.021.066.024.126.045.179s.054.09.075.135a1.773,1.773,0,0,0,.149.266,1.858,1.858,0,0,0,1.294.819c.027.006.072-.009.1,0s.036.042.06.045c.057.006.129-.018.194-.015,1.913.063,3.994.015,5.9.015H367.3c.027.714.027,1.53,0,2.245-.066.027-.129-.012-.191-.03-.242-.066-.493-.137-.759-.194-.066-.012-.138-.015-.209-.03-.024,0-.051-.039-.072-.045-.039-.006-.084.009-.12,0a8.571,8.571,0,0,0-1.085-.1c-.108-.006-.215,0-.344-.015-.03-.006-.06-.03-.09-.03-.149-.006-.308.015-.46.015-3.745,0-7.715.012-11.431-.015-.03,3.5-.015,7.114-.015,10.689a6.708,6.708,0,0,0,.03.861c.018.146.009.281.03.415,0,.03.024.057.03.09a2.09,2.09,0,0,0,.042.284,1.8,1.8,0,0,0,.269.595,2.3,2.3,0,0,0,1.919.711c4.107,0,8.376-.012,12.456.015.009.015.015.027.03.03.054.284.084.592.12.924.009.066.033.144.045.221s0,.143.015.209c.027.159.09.332.03.445H348.363a.414.414,0,0,1,.09-.341,1.529,1.529,0,0,1,.075-.374c.069-.233.084-.517.164-.741-.045-.117.03-.227.042-.344.018-.132,0-.269.015-.4a6.766,6.766,0,0,0,.03-.816V450.766a4.537,4.537,0,0,0-.936-.789c-.027-.018-.048-.042-.075-.06-.1-.063-.206-.087-.266-.176a9.319,9.319,0,0,0-1.59-.729c-.17-.06-.371-.114-.508-.164-.027-.009-.039.009-.075,0-.2-.045-.413-.09-.652-.12.009-.29-.021-.622.015-.891.015,0,.021-.015.03-.03Z" transform="translate(-194.724 3392.204)"/><path class="a" d="M370.99,447.814h6.7c.547.96,1.088,1.9,1.65,2.855a3.307,3.307,0,0,1,.179.3c.009.015,0,.054.015.072.021.033.069.054.09.09s.036.093.06.135a1.9,1.9,0,0,1,.191.356,1.058,1.058,0,0,1,.179.269c.012.021,0,.042.015.06s.039.018.045.03c.039.063.054.143.09.206s.084.1.117.164c.317.553.637,1.118.968,1.68v.045a1.53,1.53,0,0,1,.209.326.533.533,0,0,0,.117.164.454.454,0,0,0,.075.164c.093.155.191.332.3.505.134.221.251.457.386.685.033.054.072.1.1.161.152.278.326.559.49.849.03.054.072.108.1.161s.039.134.1.164c.206.413.442.8.667,1.2.1.185.218.365.329.565l.03.015c.015.03.012.054.03.09.09.17.224.362.326.55.018.033.048.057.075.1.072.12.14.251.209.386.051.1.123.215.191.326.3.472.58,1.01.879,1.5.158.245.386.685.711.771.487.135.726-.311.924-.565.012-.015.033-.027.042-.042s.006-.057.018-.075.036-.018.045-.03c.245-.4.541-.921.786-1.279q3.17-5.089,6.349-10.169a5,5,0,0,1,.269-.43c.042-.072.072-.152.117-.224.021-.033.069-.054.09-.09s.024-.081.045-.117.03-.021.045-.045c.1-.191.23-.383.356-.58.087-.137.149-.188.1-.389-.006-.024-.027-.033-.03-.057-.039-.287-.167-.562-.194-.834v-.03h2.855a2.278,2.278,0,0,1,.4,0v.03c-.245.422-.532.816-.789,1.235-.212.344-.424.682-.655,1.025-.17.26-.347.544-.52.816-.72,1.148-1.483,2.32-2.215,3.479-.445.676-.858,1.369-1.309,2.054-.146.221-.278.457-.445.67-.117.224-.263.43-.4.652-.06.1-.137.206-.209.314-.009.015,0,.03-.015.045a3.052,3.052,0,0,0-.191.281c-.155.245-.311.514-.475.774-.057.084-.123.164-.179.251s-.1.182-.149.269l-.045.015a5.905,5.905,0,0,1-.371.61c-.057.084-.1.164-.164.251-.323.49-.646,1.037-.981,1.53-.048.072-.072.114-.12.194-.081.135-.188.3-.281.445-.027.042-.066.078-.09.12s-.033.1-.06.149c-.051.084-.126.152-.179.239-.227.359-.475.765-.729,1.16-.024.039-.06.075-.087.117-.054.084-.093.176-.15.269l-.045.015a.767.767,0,0,1-.045.1,2.212,2.212,0,0,0-.236.389,4.054,4.054,0,0,0,0,.714c0,3.106,0,6.155,0,9.246,0,.475-.039.96,0,1.411.006.111.036.218.045.329a9.2,9.2,0,0,0,.1.98c.009.051.036.1.045.149.03.137.051.3.09.445a1.877,1.877,0,0,1,.134.55v.03h-4.579c-.075-.108.078-.167.045-.326.057-.021.033-.081.045-.12.042-.155.1-.38.132-.52.009-.036.006-.075.015-.119a.815.815,0,0,0,.045-.12c.012-.06-.018-.108.015-.164a18.648,18.648,0,0,0,.12-2.941v-9.264c-1.226-2.03-2.445-4.1-3.656-6.125-.054-.09-.114-.2-.164-.266s-.093-.161-.135-.224c-.063-.1-.108-.191-.164-.281-.556-.9-1.1-1.835-1.635-2.738-.084-.143-.179-.287-.266-.43-.135-.218-.26-.466-.386-.67-.141-.221-.272-.433-.4-.652-.3-.511-.607-1.037-.906-1.533-.218-.362-.472-.708-.7-1.07-.242-.3-.466-.619-.729-.906a7.947,7.947,0,0,0-.726-.7c-.021-.018-.027-.045-.045-.06s-.051-.012-.075-.03c-.158-.117-.3-.236-.475-.341a5.715,5.715,0,0,0-.52-.3,6.4,6.4,0,0,0-1.219-.416c-.2-.045-.538-.075-.789-.12.012-.3-.018-.643.015-.921Z" transform="translate(-142.408 3392.197)"/><path class="a" d="M373.339,447.807v.015c.281.042.679-.012.966.03a1.786,1.786,0,0,0,.209.03c.152.006.281.027.43.045.039.006.081-.009.12,0,.012,0,.039.042.06.045.072.012.152,0,.221.015a2.992,2.992,0,0,1,.389.09c.027.006.045.036.072.045s.072-.009.1,0a5.268,5.268,0,0,1,.535.161,1.513,1.513,0,0,0,.209.075c.066.018.194.1.281.134a7.155,7.155,0,0,1,1.994,1.264c.084.075.182.131.266.206s.147.161.224.239a7.5,7.5,0,0,1,.906,1.085,1.317,1.317,0,0,0,.12.176.722.722,0,0,1,.135.209c.012.039.051.051.075.09s.042.114.072.164c.081.138.176.287.254.445.1.209.179.421.284.64a4.6,4.6,0,0,1,.191.52c.018.054.042.108.06.161.078.239.117.484.191.729.012.048-.009.087,0,.135.009.033.039.045.048.075.012.069,0,.141.015.209,0,.009.024.018.03.042.039.257.054.544.087.834a8.407,8.407,0,0,1-.03,1.426c-.006.152-.039.3-.057.448s-.063.275-.093.4c-.009.042.012.093,0,.135,0,.024-.036.048-.042.072-.009.042,0,.078-.015.12-.03.1-.066.266-.1.389-.012.036-.006.072-.015.1s-.051.042-.06.075.009.063,0,.09a5.017,5.017,0,0,1-.206.535c-.1.23-.191.454-.3.67a8.376,8.376,0,0,1-.756,1.234,9.793,9.793,0,0,1-.939,1.055c-.084.084-.182.155-.269.239a5.109,5.109,0,0,1-.547.445,1.7,1.7,0,0,0-.15.1c-.045.033-.075.087-.12.117-.027.018-.072.012-.1.03-.06.039-.143.1-.221.15-.257.152-.523.308-.8.445-.054.027-.12.036-.179.06s-.108.069-.161.09c-.018.006-.042-.006-.06,0s-.072.042-.12.06a3.253,3.253,0,0,0-.359.135c-.263.06-.532.152-.816.206-.147.03-.3.054-.445.075a2.863,2.863,0,0,1-.344.045c-.015,0-.087-.024-.087.03.036.066.051.012.057.09a3.4,3.4,0,0,0,.254.326c.332.481.655.965,1.01,1.429.206.263.377.574.61.831-.018.06.048.084.075.12.078.1.159.224.239.344a4.118,4.118,0,0,1,.311.457,4.021,4.021,0,0,1,.341.448c.111.149.215.3.329.445s.2.311.311.46l.329.445c.439.6.852,1.217,1.306,1.8.221.362.478.69.729,1.025.021.027.021.045.045.075.1.126.209.3.311.445a4.12,4.12,0,0,1,.359.52c.119.078.158.221.236.329.042.054.1.1.135.149.185.254.371.553.565.816.439.592.861,1.184,1.294,1.785.144.2.308.433.46.655.212.308.472.643.7.966.036.054.066.11.1.164.078.1.2.2.209.341h-4.741c-.015-.012-.009-.042-.03-.045.024-.069.036-.15.057-.221.012-.036.036-.06.048-.09.042-.146-.015-.4.015-.61-.069-.048-.054-.129-.075-.194-.009-.015-.027-.012-.033-.045-.009-.063-.027-.036-.042-.09a2.99,2.99,0,0,0-.416-.7c-.347-.514-.75-1-1.1-1.533-.3-.35-.553-.732-.831-1.1-.206-.275-.4-.559-.625-.831s-.407-.55-.61-.834c-.135-.188-.278-.371-.416-.55-.281-.362-.538-.738-.819-1.1-.14-.182-.275-.368-.416-.55s-.263-.377-.4-.565c-.036-.048-.084-.084-.12-.135-.018-.024-.024-.048-.045-.072-.218-.269-.454-.589-.67-.879-.069-.093-.123-.2-.191-.3-.194-.269-.419-.541-.625-.819s-.406-.547-.61-.831a.924.924,0,0,1-.194-.284,8.06,8.06,0,0,1-.58-.744c-.021-.024-.027-.054-.045-.072s-.033.009-.042-.015a.41.41,0,0,0-.093-.164,7.265,7.265,0,0,0-.46-.58c-1.614.036-3.294.006-4.935.015-.027,3.3-.015,6.768-.015,10.14a14.567,14.567,0,0,0,.03,1.665c.03.254.03.5.075.744s.108.457.15.681c.033.114.063.236.087.359s.108.218.075.341h-4.576c-.072-.111.063-.2.042-.356.072-.081.069-.23.1-.344a1.469,1.469,0,0,0,.075-.386,4.487,4.487,0,0,0,.135-.729,3.793,3.793,0,0,0,.015-.415c0-.129.036-.26.045-.386.039-.553,0-1.148,0-1.725V450.766a6.847,6.847,0,0,0-1.784-1.294,7.726,7.726,0,0,0-1.085-.46.324.324,0,0,0-.075-.03c-.162-.027-.347-.1-.52-.15-.111-.027-.23-.024-.341-.045-.051-.009-.1-.036-.15-.045s-.114.03-.149-.03c.012-.293-.021-.682.015-.906Zm-8.119,1.369h0v11.966a6.91,6.91,0,0,0,.06,1.65c0,.012.024.021.03.045a.994.994,0,0,0,.61.64c.015.006.018.027.03.03.042.012.1,0,.146.015s.078.039.12.045a9.279,9.279,0,0,0,1,0h5.04a3.26,3.26,0,0,0,.487-.015c.111-.015.242-.009.344-.03.03-.006.054-.039.09-.045.114-.021.23-.024.326-.045.033-.006.057-.036.09-.045.111-.024.215-.036.311-.06.036-.006.057-.033.09-.042.066-.021.135-.027.194-.048.027-.006.048-.033.075-.045s.042.009.06,0l.03-.042c.063-.027.135-.036.191-.06a5.871,5.871,0,0,0,2.753-2.544,8.226,8.226,0,0,0,.607-1.411c.048-.152.09-.311.134-.475,0-.015.027-.018.03-.045s-.006-.051,0-.075c.009-.042.036-.078.045-.12.018-.084.024-.176.045-.266.057-.26.078-.553.12-.819a2.023,2.023,0,0,0,.015-.269,14.494,14.494,0,0,0,0-1.486c-.021-.251-.072-.535-.1-.8a3.155,3.155,0,0,0-.12-.508.806.806,0,0,0-.075-.311c-.015-.054-.015-.108-.03-.164,0-.015-.039-.024-.045-.045s.009-.081,0-.1-.036-.027-.042-.045c-.078-.17-.072-.377-.209-.475.024-.129-.075-.221-.12-.329-.009-.018.006-.042,0-.06a.66.66,0,0,0-.09-.149c-.09-.146-.146-.29-.236-.43a6.519,6.519,0,0,0-1.65-1.755c-.14-.1-.3-.194-.43-.281-.054-.033-.1-.078-.149-.1s-.126-.033-.179-.06c-.006,0-.012-.021-.03-.03l-.12-.06a10.592,10.592,0,0,0-1.055-.415c-.209,0-.3-.111-.52-.1-.042-.075-.131-.033-.191-.045-.039-.006-.042-.033-.075-.045s-.093.009-.135,0c-.069-.009-.141-.033-.209-.042s-.167.006-.251,0-.141-.039-.209-.045c-.084-.009-.167,0-.254,0-2.074-.078-4.412-.036-6.525-.045-.018,0-.015.024-.015.045Z" transform="translate(-168.438 3392.204)"/></g></svg>