<svg xmlns="http://www.w3.org/2000/svg" width="223.048" height="28.366" viewBox="0 0 223.048 28.366"><defs><style>.a{fill:#3e3e3e;}</style></defs><g transform="translate(-283 -3841)"><path class="a" d="M8.733,35.371V9.071h3.126V32.389h9.934v2.982Z" transform="translate(274.267 3832.971)"/><path class="a" d="M45.032,35.371V9.071H58.9v2.856H48.158v7.545H58.9v2.91H48.158V32.461H58.9v2.91Z" transform="translate(254.747 3832.971)"/><path class="a" d="M96.1,35.183l-8.174-18.9L84.618,34.159H81.564L86.9,6.817l9.2,21.755,9.2-21.755,5.336,27.342h-3.054l-3.342-17.875Z" transform="translate(235.102 3834.183)"/><path class="a" d="M178.7,21.586a13.66,13.66,0,0,1-1.043,5.318,13.272,13.272,0,0,1-3.037,4.437,14.282,14.282,0,0,1-19.918,0,13.381,13.381,0,0,1-4.117-9.755,13.621,13.621,0,0,1,1.052-5.326,13.432,13.432,0,0,1,3.065-4.464,13.959,13.959,0,0,1,4.566-2.964,14.454,14.454,0,0,1,10.777,0,13.943,13.943,0,0,1,4.575,2.964,13.249,13.249,0,0,1,3.037,4.446A13.77,13.77,0,0,1,178.7,21.586ZM164.643,32.436a10.524,10.524,0,0,0,4.108-.818,10.9,10.9,0,0,0,3.515-2.38,10.653,10.653,0,0,0,3.164-7.653,10.975,10.975,0,0,0-.818-4.2,10.711,10.711,0,0,0-9.97-6.683,10.783,10.783,0,0,0-4.153.808,10.3,10.3,0,0,0-3.47,2.354,10.95,10.95,0,0,0,3.515,17.767A10.541,10.541,0,0,0,164.643,32.436Z" transform="translate(197.985 3833.66)"/><path class="a" d="M222.446,34.159V6.817l19.24,21.019V7.859h2.982V35.183L225.428,14.4V34.159Z" transform="translate(159.341 3834.183)"/><path class="a" d="M304.064,14.627A12.72,12.72,0,0,0,300.04,11.6a11.212,11.212,0,0,0-4.725-.979,10.591,10.591,0,0,0-7.509,3.2,10.5,10.5,0,0,0-2.264,3.494,11.633,11.633,0,0,0-.754,4.267,12.074,12.074,0,0,0,.449,3.377,9.69,9.69,0,0,0,1.347,2.839,10.947,10.947,0,0,0,3.889,3.458,10.92,10.92,0,0,0,9.656.171,12.237,12.237,0,0,0,3.934-3.108v4.15a14.989,14.989,0,0,1-8.875,2.874,13.484,13.484,0,0,1-4.06-.619,13.776,13.776,0,0,1-3.7-1.806,13.365,13.365,0,0,1-5.91-11.3,14.5,14.5,0,0,1,1.015-5.524,13.293,13.293,0,0,1,3.1-4.518,13.51,13.51,0,0,1,4.456-2.9,14.449,14.449,0,0,1,5.335-.961,14.276,14.276,0,0,1,4.419.692,16,16,0,0,1,4.222,2.147Z" transform="translate(127.574 3833.702)"/><path class="a" d="M367.346,21.586A13.66,13.66,0,0,1,366.3,26.9a13.272,13.272,0,0,1-3.037,4.437,14.282,14.282,0,0,1-19.918,0,13.382,13.382,0,0,1-4.117-9.755,13.62,13.62,0,0,1,1.052-5.326,13.432,13.432,0,0,1,3.065-4.464,13.964,13.964,0,0,1,4.566-2.964,14.454,14.454,0,0,1,10.777,0,13.938,13.938,0,0,1,4.575,2.964,13.249,13.249,0,0,1,3.037,4.446A13.77,13.77,0,0,1,367.346,21.586ZM353.288,32.436a10.524,10.524,0,0,0,4.108-.818,10.9,10.9,0,0,0,3.515-2.38,10.653,10.653,0,0,0,3.164-7.653,10.965,10.965,0,0,0-.818-4.2,10.711,10.711,0,0,0-9.97-6.683,10.781,10.781,0,0,0-4.153.808,10.308,10.308,0,0,0-3.47,2.354,10.95,10.95,0,0,0,3.515,17.767A10.541,10.541,0,0,0,353.288,32.436Z" transform="translate(96.539 3833.66)"/><path class="a" d="M411.091,35.371V9.071h3.126V32.389h9.934v2.982Z" transform="translate(57.896 3832.971)"/><path class="a" d="M451.506,6.817l11.965,27.342h-3.4l-3.413-8.066H446.386l-3.413,8.066h-3.4Zm0,6.917-4.186,9.683h8.372Z" transform="translate(42.577 3834.183)"/></g></svg>