<svg xmlns="http://www.w3.org/2000/svg" width="184.055" height="24.807" viewBox="0 0 184.055 24.807"><defs><style>.a{fill:#3e3e3e;}</style></defs><path class="a" d="M370.644,234.193l-8.131,12.5h8.136l4.655-7.706,4.652,7.706h8.183l-8.026-12.37,7.334-11.618h-7.942l-4.059,7.378-4.17-7.378h-8.023Zm-18.307,12.5h7.3V222.7h-7.3Zm-31.444,0h5.966V228.4l4.585,18.3h5.4l4.6-18.3v18.3H347.4V222.707h-9.572l-3.667,14.6-3.693-14.6h-9.578ZM301.25,229.5a4.377,4.377,0,0,1,3.536-1.59,4.558,4.558,0,0,1,3.641,1.563q1.338,1.565,1.342,4.952,0,4.027-1.287,5.579a4.959,4.959,0,0,1-7.241-.032q-1.325-1.591-1.328-5.222,0-3.666,1.337-5.251m-6.994,12.225a10.029,10.029,0,0,0,4.234,4.091,14.887,14.887,0,0,0,6.6,1.29,13.093,13.093,0,0,0,6.55-1.5,10.013,10.013,0,0,0,4.019-4.19,14.991,14.991,0,0,0,1.392-6.9q0-5.788-3.185-9.008T304.8,222.3q-5.736,0-8.953,3.272t-3.217,9.148a13.771,13.771,0,0,0,1.624,7.006m-12.178-1.377a4.631,4.631,0,0,1-6.5-.285q-1.19-1.478-1.189-5.466a8.735,8.735,0,0,1,1-4.725,4.369,4.369,0,0,1,7.267-.259,5.743,5.743,0,0,1,.706,1.6l6.431-1.456A10.772,10.772,0,0,0,286,224.131a11.785,11.785,0,0,0-7-1.834q-5.693,0-8.8,3.2t-3.112,9.15a13.738,13.738,0,0,0,1.77,7.326,10.016,10.016,0,0,0,4.2,4,14.907,14.907,0,0,0,6.279,1.136,12.638,12.638,0,0,0,5.216-.933,8.825,8.825,0,0,0,3.432-2.763,12.088,12.088,0,0,0,2.025-4.568l-6.381-1.964a7.464,7.464,0,0,1-1.552,3.47m-26.661,6.349h7.3V222.7h-7.3Zm-18.49-19.144h3.2a4.307,4.307,0,0,1,2.717.622,2.458,2.458,0,0,1,.264,3.173,1.917,1.917,0,0,1-1.18.753,10.9,10.9,0,0,1-1.93.328h-3.072Zm0,19.144V236.96h.642a3.018,3.018,0,0,1,1.787.555,5.64,5.64,0,0,1,1.319,1.851l3.891,7.328H252.8l-3.528-6.951a9.521,9.521,0,0,0-1.02-1.491,7.433,7.433,0,0,0-1.165-1.261,7.191,7.191,0,0,0-1.895-.883,8.7,8.7,0,0,0,2.557-.95,6.562,6.562,0,0,0,2.3-2.348,7.462,7.462,0,0,0-.256-7.331,5.508,5.508,0,0,0-2.877-2.185,17.37,17.37,0,0,0-5.161-.587H229.613v23.988Zm-32.842-18.066h7.427v18.066h7.282V228.629h7.427v-5.922H204.085Z" transform="translate(-204.085 -222.297)"/></svg>