<svg xmlns="http://www.w3.org/2000/svg" width="154.124" height="43.134" viewBox="0 0 154.124 43.134"><defs><style>.a{fill:#3e3e3e;}</style></defs><path class="a" d="M75.79,264.453c-3.907-2.584-11.846-3.529-17.144,1.539a8.461,8.461,0,0,0-5.5-3.373,18.655,18.655,0,0,0-7.64.233c-3.854.971-8.122,4.049-7.874,9.95.239,5.724.05,11.465.053,17.2,0,.449.044.895.065,1.338h5.8v-1.5c0-5.39-.027-10.783.009-16.172.027-3.8,1.988-6.016,5.576-6.456a5.792,5.792,0,0,1,6.633,4.359,11.215,11.215,0,0,1,.31,2.794c.03,5.219.015,10.44.015,15.659v1.317h5.735v-1.506c0-5.393-.021-10.783.024-16.175a7.514,7.514,0,0,1,.493-2.611,6.23,6.23,0,0,1,6.843-3.8,6.065,6.065,0,0,1,4.666,5.567q-.031,8.731-.035,17.457c0,.369.05.738.074,1.1h5.744v-1.586c0-5.989-.159-11.988.065-17.968A7.778,7.778,0,0,0,75.79,264.453Z" transform="translate(-37.623 -249.128)"/><path class="a" d="M98.367,259.726V258.2H91.946v1.512q0,11.877,0,23.751a17.107,17.107,0,0,1-1.6,7.324,7.34,7.34,0,0,1-6.143,4.439,19.068,19.068,0,0,1-3.074.056A9.411,9.411,0,0,1,71.692,287a9.3,9.3,0,0,1,9.929-10.806,81.145,81.145,0,0,1,8.355,1.781c0-1.19-.062-2.6.021-4a1.585,1.585,0,0,0-1.2-1.807,19.3,19.3,0,0,0-10.978-.948c-5.337,1.128-9.6,3.954-11.361,9.421a19.349,19.349,0,0,0-.6,5.7,13.536,13.536,0,0,0,10.292,13.225,40.112,40.112,0,0,0,8.644.777,11.664,11.664,0,0,0,7.466-2.667A15.664,15.664,0,0,0,98.4,284.5C98.266,276.247,98.367,267.986,98.367,259.726Z" transform="translate(17.532 -257.206)"/><path class="a" d="M111.715,274.95c0-.47,0-.942-.021-1.412a3.527,3.527,0,0,0-.1-.632,12.566,12.566,0,0,0-8.4-9.279,23.624,23.624,0,0,0-12.779-.783c-7.516,1.388-12.33,7.747-11.775,15.514a14.227,14.227,0,0,0,13.881,13.512c3.382.118,6.787.195,9.867-1.592.348-.2.883-.52.895-.8.077-2.056.041-4.114.041-6.4-.538.419-.856.626-1.125.886-4.12,4-9.74,3.169-13.644.895-5.171-3.012-4.882-10.254-1.982-13.449,3.246-3.577,7.3-4.232,11.837-3.582a7.757,7.757,0,0,1,6.979,8.328c-.219,4.315-.047,8.644-.047,12.968v2.247h6.376Z" transform="translate(42.409 -249.143)"/><path class="a" d="M86.5,266.761c2.147-.346,3.287-2.315,3.119-4.752a3.977,3.977,0,0,0-3.644-3.954,47.489,47.489,0,0,0-4.982-.1c-.278.006-.78.425-.786.662-.056,2.761-.035,5.523-.035,8.517A59.431,59.431,0,0,0,86.5,266.761ZM81.8,259.083c1.17,0,2.236-.047,3.3.012a3,3,0,0,1,2.947,3.219c.068,1.946-.868,3.263-2.62,3.494-1.167.154-2.357.136-3.624.2Z" transform="translate(45.488 -257.72)"/><path class="a" d="M75.848,267.311c2.971-.325,4.77-1.9,4.9-4.294.168-3.172-1.911-5.133-5.44-5.13-3.021,0-5.092,1.539-5.384,4C69.525,265.229,72.236,267.71,75.848,267.311Zm-.511-8.355a3.636,3.636,0,1,1,.089,7.265,3.58,3.58,0,0,1-3.963-3.464A3.544,3.544,0,0,1,75.337,258.956Z" transform="translate(25.391 -257.815)"/><path class="a" d="M45.718,264.6c-.5-.966-1.022-.759-1.716-.4a2.665,2.665,0,0,0,2.156,2.49,16.326,16.326,0,0,0,4.533.177,2.647,2.647,0,0,0,2.413-2.457c.009-1.1-.774-1.917-2.336-2.366-.735-.213-1.5-.316-2.25-.5a10.058,10.058,0,0,1-1.961-.564c-.718-.346-.836-.951-.239-1.559,1.01-1.025,3.984-.842,4.637.414.467.895.986.709,1.74.549a2.1,2.1,0,0,0-1.663-2.174,17.83,17.83,0,0,0-4.64-.171,2.085,2.085,0,0,0-1.94,2.2c0,1.264.907,1.766,1.92,2.1.729.236,1.5.345,2.242.535a12.975,12.975,0,0,1,2.209.632,1.047,1.047,0,0,1,.3,1.861C49.864,266.516,46.489,266.1,45.718,264.6Z" transform="translate(-25.161 -257.656)"/><path class="a" d="M73.051,264.346c-.851-.378-1.423-.5-1.917.493a2.961,2.961,0,0,1-2.956,1.421,3.186,3.186,0,0,1-3.42-2.658,3.546,3.546,0,0,1,1.645-4.176,3.837,3.837,0,0,1,4.743.913c.316.34,1,.34,1.509.5l.3-.54a8.9,8.9,0,0,0-1.613-1.618,6.134,6.134,0,0,0-5.9-.115,3.986,3.986,0,0,0-2.416,3.774,4.492,4.492,0,0,0,2.2,4.332c1,.588,2,1.158,3,1.737l-.074.337c-.351.077-.706.139-1.048.242-.319.094-.62.236-1.252.484,1.955.538,3.447.3,3.579-.532.071-.464-.446-1.022-.679-1.5C71.742,266.694,72.289,266.325,73.051,264.346Z" transform="translate(12.001 -257.863)"/><path class="a" d="M93.036,265.986c-1.952-.015-3.907-.006-5.88-.006v-3.066h6.057c-.012-1.093-.012-1.113-.924-1.122-1.7-.018-3.4-.006-5.112-.006v-2.744h6.483l.216-.416c-.331-.23-.656-.653-.989-.662-2.4-.056-4.79-.03-7.307-.03V267h8.269C93.937,266.01,93.937,265.992,93.036,265.986Z" transform="translate(56.052 -257.734)"/><path class="a" d="M45.2,265.97c-1.994.029-3.987.009-6.031.009v-3.057h6.084c.34-1.051-.189-1.149-.892-1.143-1.731.015-3.461.006-5.183.006v-2.723h6.536l.216-.372c-.289-.251-.573-.715-.868-.721-2.431-.059-4.864-.035-7.4-.035v9.061h8.252C46.214,266.215,45.96,265.958,45.2,265.97Z" transform="translate(-37.547 -257.732)"/><path class="a" d="M59.4,260.487a2.572,2.572,0,0,0-2.626-2.472c-1.955-.112-3.919-.027-6-.027V267l1.462-.065v-3.47c1.66-.106,3.193-.127,4.7-.325A2.648,2.648,0,0,0,59.4,260.487Zm-3.1,1.574c-1.3.1-2.614.027-4.022.027v-3.027c1.359,0,2.667-.065,3.966.024a1.421,1.421,0,0,1,1.465,1.465A1.394,1.394,0,0,1,56.306,262.061Z" transform="translate(-11.927 -257.678)"/><path class="a" d="M58.6,266.057a1.989,1.989,0,0,1,2.614-1.674,3.427,3.427,0,0,0,1.152,0,1.894,1.894,0,0,1,2.442,1.562c.319,1.214,1.14,1.358,2.265.978-1.444-2.832-2.835-5.614-4.276-8.37a1.292,1.292,0,0,0-2.247.024c-1.353,2.752-2.67,5.526-4.052,8.4C57.548,267.238,58.337,267.188,58.6,266.057Zm3.057-6.731,1.84,3.9H59.914Z" transform="translate(-0.76 -257.772)"/><path class="a" d="M82.118,266.544a19.07,19.07,0,0,0-16.385-3.916c-7.053,1.429-11.784,6.483-12.274,13.1-.49,6.657,3.012,14.084,10.954,15.792,1.952.419,3.963.561,5.948.83,9.152-.162,15.5-5.688,16.125-14.418C86.8,273.529,85.742,269.447,82.118,266.544Zm-2.2,13.3c-.777,4.294-3.78,6.778-8.6,7.147-.552.041-1.11,0-1.666,0-4.711.038-7.543-1.846-9.117-6.013a10.338,10.338,0,0,1,2.481-11.426,5.1,5.1,0,0,1,1.462-1.025c4.312-1.692,8.568-1.686,12.448,1.045,2.546,1.793,3.269,4.6,3.249,7.59A15.673,15.673,0,0,1,79.915,279.843Z" transform="translate(-6.777 -249.429)"/></svg>