<svg xmlns="http://www.w3.org/2000/svg" width="149.403" height="42.383" viewBox="0 0 149.403 42.383"><defs><style>.a{fill:#3e3e3e;}</style></defs><g transform="translate(-933 -3834)"><path class="a" d="M338.933,257.523c.268-.014.491-.033.715-.033q6.064,0,12.125,0a9.952,9.952,0,0,1,4.189.922c5.417,2.495,5.273,8.416,2.8,11.645a9.026,9.026,0,0,1-2.177,2c-.229.155-.453.309-.759.519.367.146.648.265.933.37a9.325,9.325,0,0,1,3.474,2.213,7.2,7.2,0,0,1,2.014,4.556,9.365,9.365,0,0,1-7.991,9.976,4.247,4.247,0,0,1-.676.041q-7.037,0-14.076,0c-.166,0-.334-.019-.48-.03-.041-.039-.061-.055-.08-.077s-.047-.041-.052-.066a1.932,1.932,0,0,1-.044-.334q0-15.688.006-31.372A1.892,1.892,0,0,1,338.933,257.523Zm3.5,28.955a4.117,4.117,0,0,0,.535.075c2.936,0,5.872.025,8.808-.008a7.9,7.9,0,0,0,4.537-1.421,5.284,5.284,0,0,0,2.221-3.1,5.656,5.656,0,0,0-2.332-6.167,8.624,8.624,0,0,0-4.821-1.647c-2.823-.077-5.646-.058-8.469-.075a2.4,2.4,0,0,0-.48.1Zm0-25.779v10.238c.3.022.546.052.795.052,2.544,0,5.088.019,7.633-.005a6.238,6.238,0,0,0,5.348-2.6,4.692,4.692,0,0,0-2.627-7.415,8.621,8.621,0,0,0-1.841-.235c-2.826-.033-5.651-.028-8.477-.033C343.011,260.7,342.76,260.7,342.432,260.7Z" transform="translate(621.483 3576.514)"/><path class="a" d="M369.034,273.345H351.867c.066.552.1.994.179,1.429a9.524,9.524,0,0,0,2.881,5.34,6.554,6.554,0,0,0,10.149-2.2,2.52,2.52,0,0,1,.24-.541c.108-.143.281-.326.433-.328.924-.03,1.852-.016,2.828-.016a4.85,4.85,0,0,1-.53,1.929,9.5,9.5,0,0,1-8.527,5.734c-5.671.422-9.644-3.736-10.85-8.579a13.674,13.674,0,0,1,.709-9.272,9.908,9.908,0,0,1,7.144-5.96c5.767-1.189,10.883,1.829,12.258,7.942A14.48,14.48,0,0,1,369.034,273.345Zm-17.106-2.881c1.093.2,12.892.146,13.48-.05a6.622,6.622,0,0,0-6.468-6.694A6.965,6.965,0,0,0,351.928,270.464Z" transform="translate(637.912 3582.028)"/><path class="a" d="M389.286,273.324H372.139c.061.541.083.977.163,1.4a9.461,9.461,0,0,0,2.917,5.411c2.757,2.558,8.24,1.882,10.022-2.042a5.639,5.639,0,0,1,.32-.69c.1-.152.265-.359.408-.362.949-.033,1.9-.016,2.917-.016a8.794,8.794,0,0,1-2.591,4.876,9.776,9.776,0,0,1-6.725,2.787c-4.606.146-7.776-2.094-9.7-6.1a13.464,13.464,0,0,1-.2-11.8,9.809,9.809,0,0,1,6.672-5.811c5.685-1.443,11.286,1.393,12.713,7.884a15.494,15.494,0,0,1,.306,3.877C389.358,272.91,389.322,273.07,389.286,273.324Zm-17.106-2.873c.919.193,12.845.163,13.475-.022a6.6,6.6,0,0,0-6.352-6.706A6.97,6.97,0,0,0,372.18,270.452Z" transform="translate(673.491 3582.027)"/><path class="a" d="M375.69,260.773c1.244,0,2.34,0,3.435,0,.408,0,.475.326.577.621q1.225,3.522,2.456,7.042,1.772,5.083,3.543,10.163a1.371,1.371,0,0,0,.411.624q3.175-9.177,6.369-18.4H396.1a6.7,6.7,0,0,1-.168.684q-4.843,13.746-9.694,27.493a9.866,9.866,0,0,1-2.183,3.687,5.042,5.042,0,0,1-5.7.913v-2.947c.461.116.872.2,1.272.326a1.98,1.98,0,0,0,2.37-.85,13.493,13.493,0,0,0,1.209-2.412c.356-.888.568-1.832.9-2.735a2.1,2.1,0,0,0-.052-1.548q-4.032-10.845-8.033-21.7C375.922,261.476,375.839,261.212,375.69,260.773Z" transform="translate(686.307 3582.296)"/><path class="a" d="M378.51,266.948h-3.485c-.077-.232-.163-.464-.237-.7a2.807,2.807,0,0,0-1.609-1.857,8.041,8.041,0,0,0-5.709-.287,3.8,3.8,0,0,0-1.173.66,2.381,2.381,0,0,0,.036,3.86,14.4,14.4,0,0,0,2.732,1.512c1.349.58,2.771.982,4.123,1.554a28.548,28.548,0,0,1,3.328,1.661,7.717,7.717,0,0,1,1.6,1.377,3.833,3.833,0,0,1,1.024,2.621,6.42,6.42,0,0,1-1.2,4.316,6.619,6.619,0,0,1-3.049,2.213,13.071,13.071,0,0,1-8.565.3,7.169,7.169,0,0,1-5.273-6.129,4.659,4.659,0,0,1-.047-.59,2.165,2.165,0,0,1,.066-.381h3.46a3.558,3.558,0,0,1,.121.522c.262,2.779,2,3.607,3.858,3.938a9.531,9.531,0,0,0,4.2-.237,4.439,4.439,0,0,0,2.105-1.209,2.73,2.73,0,0,0-.334-4.216,17.649,17.649,0,0,0-2.989-1.576c-1.007-.436-2.075-.731-3.115-1.09a14.785,14.785,0,0,1-4.233-2.105,5.2,5.2,0,0,1-2.3-3.786,5.306,5.306,0,0,1,2.323-5.127,9.089,9.089,0,0,1,4.534-1.509,13.235,13.235,0,0,1,5.036.455,6.006,6.006,0,0,1,4.512,4.382C378.358,265.952,378.411,266.4,378.51,266.948Z" transform="translate(660.467 3582.026)"/><path class="a" d="M359.629,258.294H363.1c.1,2.243-.008,4.465.063,6.8h3.54a23.065,23.065,0,0,1,.022,3.022h-3.5c-.033.312-.083.549-.083.789q-.008,6.954,0,13.908c0,.2.017.395.033.591a2.252,2.252,0,0,0,2.674,2.337c.419-.022.839-.077,1.369-.13a26.811,26.811,0,0,1,.025,2.828,7.033,7.033,0,0,1-1.184.246,16.571,16.571,0,0,1-3.118-.036,3.758,3.758,0,0,1-3.284-3.99q-.008-7.715,0-15.434v-1.065h-3.546a23.6,23.6,0,0,1-.074-2.966c1.2-.16,2.359,0,3.6-.116Z" transform="translate(651.704 3577.937)"/><path class="a" d="M336.385,264.456l.455-.4a3.677,3.677,0,0,1,5.693.844,4.316,4.316,0,0,1-.259,4.923,23.091,23.091,0,0,1-3.888,3.632c-.458.375-.938.723-1.413,1.079a.845.845,0,0,1-1.093.047,27.994,27.994,0,0,1-5.375-4.752,4.229,4.229,0,0,1,1.261-6.339,3.514,3.514,0,0,1,3.963.395c.113.083.207.19.315.284S336.25,264.343,336.385,264.456Z" transform="translate(605.188 3586.303)"/><path class="a" d="M340.688,263.48c.706-1.242,1.333-2.346,1.962-3.447.35-.61.353-.607,1.209-.494-.121.237-.221.461-.345.671-.665,1.118-1.319,2.241-2.014,3.339a2.624,2.624,0,0,0-.433,1.595c.033.731.008,1.465.008,2.279l-.844.066c0-.864-.019-1.65.008-2.437a2.411,2.411,0,0,0-.406-1.432c-.748-1.2-1.457-2.417-2.18-3.626-.9.541-1.9.058-2.881.378v7.053H333.9V260.3h-2.555l-.113-.7c.127-.058.2-.124.273-.124,2.119-.011,4.239-.006,6.358-.025a.747.747,0,0,1,.726.464c.513.911,1.04,1.813,1.567,2.718C340.293,262.867,340.448,263.1,340.688,263.48Z" transform="translate(608.083 3579.967)"/><path class="a" d="M328.943,267.479v-7.928a3.554,3.554,0,0,1,.566-.094c.792-.011,1.581-.008,2.373,0a3.521,3.521,0,0,1,.591.041,1.91,1.91,0,0,1,1.145,3.342c-.1.1-.2.193-.337.323a1.47,1.47,0,0,0,.24.224,1.977,1.977,0,0,1,1.167,2.29,2.244,2.244,0,0,1-2.014,1.791C331.468,267.528,330.251,267.479,328.943,267.479Zm.883-.74c.6,0,1.159.036,1.711-.008a4.728,4.728,0,0,0,1.551-.29,1.339,1.339,0,0,0,.312-2.252,2.054,2.054,0,0,0-.8-.453,8.334,8.334,0,0,0-2.776-.1Zm0-3.907a21.673,21.673,0,0,0,2.254-.022,1.9,1.9,0,0,0,1.032-.513,1.145,1.145,0,0,0-.569-1.973,10.178,10.178,0,0,0-2.718-.011Z" transform="translate(604.057 3579.969)"/></g></svg>