<svg xmlns="http://www.w3.org/2000/svg" width="148.849" height="29.717" viewBox="0 0 148.849 29.717"><defs><style>.a{fill:#3e3e3e;}</style></defs><g transform="translate(-1109 -3839)"><path class="a" d="M278.168,173.535a1.18,1.18,0,0,1-2.355,0c0-9.246-2.354-16.183-6.724-20.553a20.257,20.257,0,0,0-13.828-5.424v25.977a1.179,1.179,0,0,1-1.095,1.095,1.215,1.215,0,0,1-1.26-1.095v-27.28c0-1.009,1.26-1.05,1.26-1.05,3.657,0,10.93.713,16.352,6.178a22.867,22.867,0,0,1,5.3,8.156V146.256a1.184,1.184,0,0,1,1.262-1.05,1.171,1.171,0,0,1,1.093,1.05Z" transform="translate(856.094 3693.794)"/><path class="a" d="M287.421,159.778v8.912a1.172,1.172,0,0,1-1.219,1.3,1.3,1.3,0,0,1-1.219-1.3v-2.86a10.423,10.423,0,0,1-8.156,3.953,10.509,10.509,0,1,1,10.594-10.634Zm-2.438,0v-.63a8.155,8.155,0,1,0-16.309,0,8.161,8.161,0,0,0,16.309.63Z" transform="translate(874.502 3698.725)"/><path class="a" d="M302.1,159.086v9.582a1.189,1.189,0,0,1-1.135,1.135,1.232,1.232,0,0,1-1.3-1.135v-9.582a8.224,8.224,0,0,0-8.111-8.113l.041,17.738a1.325,1.325,0,0,1-1.219,1.345,1.472,1.472,0,0,1-1.3-1.262l-.041-17.738a8.11,8.11,0,0,0-8.282,8.029l.043,9.582a1.244,1.244,0,0,1-1.345,1.135,1.15,1.15,0,0,1-1.093-1.135v-9.582c0-5.844,4.539-10.427,11.77-10.427C297.393,148.659,302.1,152.612,302.1,159.086Z" transform="translate(891.348 3698.578)"/><path class="a" d="M292.859,148.624a1.176,1.176,0,0,1,1.135,1.219v19.043a1.26,1.26,0,0,1-1.135,1.176,1.159,1.159,0,0,1-1.219-1.176V149.843A1.108,1.108,0,0,1,292.859,148.624Z" transform="translate(909.756 3698.529)"/><path class="a" d="M316.916,159.111v9.418a1.219,1.219,0,0,1-1.135,1.133,1.257,1.257,0,0,1-1.3-1.133v-9.418a8.113,8.113,0,0,0-16.226,0l-.167,9.585a1.079,1.079,0,0,1-1.135,1.135,1.187,1.187,0,0,1-1.133-1.135v-9.585a10.551,10.551,0,0,1,21.1,0Z" transform="translate(915.543 3698.676)"/><path class="a" d="M324.408,151.184a14.571,14.571,0,0,1,1.555,1.682,1.252,1.252,0,0,1,.293.756,1.724,1.724,0,0,1-.293.716s-11.813,9.919-13.282,11.221a8.266,8.266,0,0,0,11.39-1.133,1.132,1.132,0,0,1,1.639-.169,1.456,1.456,0,0,1,.253,1.639,10.532,10.532,0,0,1-18.537-5.546,10.362,10.362,0,0,1,2.438-7.693,9.333,9.333,0,0,1,6.934-3.7A10.021,10.021,0,0,1,324.408,151.184Zm-13.241,12.7c1.3-1.345,10.8-9.122,12.316-10.467-.21-.167-.379-.167-.546-.336a7.776,7.776,0,0,0-6.011-1.892,7.866,7.866,0,0,0-5.379,2.984,7.294,7.294,0,0,0-1.849,5.045A8.858,8.858,0,0,0,311.166,163.879Z" transform="translate(931.593 3698.87)"/></g></svg>