<svg xmlns="http://www.w3.org/2000/svg" width="145.58" height="88.244" viewBox="0 0 145.58 88.244"><defs><style>.a{fill:#3e3e3e;}</style></defs><g transform="translate(0 48.299)"><path class="a" d="M305.584,248.748v-.9c2.571-.28,2.663-.436,2.633-3.751l-.094-12.735H308l-7.714,17.2H299.6L292.506,231.8h-.062l-.466,8.893c-.124,2.571-.124,3.966-.091,5.207.062,1.486.8,1.7,2.913,1.952v.9h-7.436v-.9c1.828-.248,2.477-.619,2.7-1.89.186-1.117.372-2.512.619-5.794l.433-6.446c.31-4.09.124-4.246-2.757-4.523v-.932h5.328l7.221,15.619,7.28-15.619H313.7v.932c-2.76.248-2.975.339-2.881,3.5l.31,11.373c.091,3.344.186,3.5,2.91,3.78v.9Z" transform="translate(-287.364 -227.494)"/><path class="a" d="M309.931,249.054v-.9c2.014-.28,2.294-.557,1.861-1.766-.4-1.241-.991-2.884-1.675-4.774H303.3c-.5,1.457-.932,2.728-1.333,4-.714,1.952-.466,2.294,1.982,2.542v.9h-7v-.9c2.046-.31,2.48-.528,3.627-3.285l6.6-16.486,1.053-.277c2.014,5.485,4.122,11.279,6.168,16.792.991,2.728,1.424,3.037,3.5,3.255v.9Zm-3.067-16.7H306.8c-1.053,2.636-2.014,5.361-2.943,7.932h5.762Z" transform="translate(-268.688 -227.8)"/><path class="a" d="M322.653,243.807c-.248,1.209-.8,4.184-1.147,5.452H304.867l-.31-.463c4.523-6.26,8.987-12.426,13.416-18.839h-5.484c-3.438,0-3.966.31-4.523,1.144a9.935,9.935,0,0,0-1.085,2.789l-.958-.029c.153-2.046.307-4.432.372-5.856h.773c.4.743.743.773,1.675.773h12.921l.215.434c-4.4,6.2-8.8,12.3-13.169,18.685,1.056.124,2.946.186,5.145.186,3.9,0,5.175-.218,6.071-1.147a9.659,9.659,0,0,0,1.766-3.314Z" transform="translate(-253.861 -228.005)"/><path class="a" d="M324.13,249.054v-.9c2.014-.28,2.291-.557,1.858-1.766-.4-1.241-.991-2.884-1.672-4.774H317.5c-.5,1.457-.929,2.728-1.333,4-.714,1.952-.466,2.294,1.984,2.542v.9h-7v-.9c2.043-.31,2.477-.528,3.624-3.285l6.6-16.486,1.053-.277c2.014,5.485,4.119,11.279,6.166,16.792.991,2.728,1.424,3.037,3.5,3.255v.9Zm-3.07-16.7H321c-1.053,2.636-2.014,5.361-2.943,7.932h5.765Z" transform="translate(-241.02 -227.8)"/><path class="a" d="M337.729,249c-.4,0-.775,0-1.147-.029a5.813,5.813,0,0,1-5.234-2.851c-1.117-1.548-2.232-3.5-3.161-5.019-.557-.9-1.117-1.271-2.727-1.271H324.5v4.957c0,2.633.28,2.851,2.851,3.07v.9h-8.489v-.9c2.571-.218,2.848-.436,2.848-3.07V232.2c0-2.666-.248-2.819-2.725-3v-.932h7.994c2.415,0,3.933.28,5.142,1.085a4.653,4.653,0,0,1,2.138,4.152c0,2.7-1.734,4.337-4.057,5.331.557,1.053,1.89,3.161,2.819,4.553a24.416,24.416,0,0,0,2.571,3.317,4.873,4.873,0,0,0,2.262,1.486Zm-11.774-10.223a5.221,5.221,0,0,0,3.471-.9,4.528,4.528,0,0,0,1.7-3.9c0-3.379-2.232-4.618-4.585-4.618a3.175,3.175,0,0,0-1.7.31c-.248.156-.342.5-.342,1.365v7.746Z" transform="translate(-225.988 -227.494)"/><path class="a" d="M325.608,248.748v-.9c2.6-.218,2.848-.4,2.848-3.07V232.265c0-2.7-.248-2.881-2.848-3.067v-.932h8.551v.932c-2.6.186-2.851.372-2.851,3.067v12.517c0,2.7.248,2.851,2.851,3.07v.9Z" transform="translate(-212.84 -227.494)"/><path class="a" d="M351.561,229.2c-1.766.091-2.509.463-2.663,1.89-.094.958-.186,2.385-.186,5.3v12.673H347.69l-13.7-16.453h-.062v7.811c0,2.881.094,4.367.186,5.3.186,1.58.867,2.014,3.066,2.138v.9h-7.56v-.9c1.8-.094,2.6-.528,2.789-2.046.094-1.023.186-2.509.186-5.39v-6.85c0-2.291-.062-2.477-.619-3.223a3.606,3.606,0,0,0-2.851-1.144v-.932h4.836l13.322,15.678h.094v-7.56a47.109,47.109,0,0,0-.218-5.234c-.153-1.427-.929-1.828-3.161-1.952v-.932h7.56Z" transform="translate(-205.981 -227.494)"/></g><g transform="translate(9.088 77.369)"><path class="a" d="M294.4,244.277a3.6,3.6,0,0,1-1.9.554q-2.057,0-2.055-1.725v-2.418a1.89,1.89,0,0,1,.6-1.489,2.285,2.285,0,0,1,1.578-.531,2.129,2.129,0,0,1,1.527.525,1.927,1.927,0,0,1,.548,1.46v1.415l-3.718.2v.849a1.072,1.072,0,0,0,.436.964,1.769,1.769,0,0,0,.994.289,3.723,3.723,0,0,0,1.781-.507Zm-3.423-3.588v1.062l3.187-.165v-.991a1.273,1.273,0,0,0-.484-1.129,1.924,1.924,0,0,0-1.126-.336,1.72,1.72,0,0,0-1.112.377A1.438,1.438,0,0,0,290.977,240.689Z" transform="translate(-290.446 -236.295)"/><path class="a" d="M293.077,237.908h.531v8.265h-.531Z" transform="translate(-285.319 -237.778)"/><path class="a" d="M298.392,244.277a3.6,3.6,0,0,1-1.9.554q-2.057,0-2.055-1.725v-2.418a1.89,1.89,0,0,1,.6-1.489,2.285,2.285,0,0,1,1.577-.531,2.129,2.129,0,0,1,1.527.525,1.927,1.927,0,0,1,.548,1.46v1.415l-3.718.2v.849a1.072,1.072,0,0,0,.436.964,1.769,1.769,0,0,0,.994.289,3.722,3.722,0,0,0,1.781-.507Zm-3.423-3.588v1.062l3.188-.165v-.991a1.274,1.274,0,0,0-.484-1.129,1.924,1.924,0,0,0-1.126-.336,1.72,1.72,0,0,0-1.112.377A1.438,1.438,0,0,0,294.969,240.689Z" transform="translate(-282.667 -236.295)"/><path class="a" d="M300.861,239.483l-.035-.708h.531v6.67a1.574,1.574,0,0,1-1.262,1.725l-.144-.413a1.286,1.286,0,0,0,.876-1.324v-1.51a1.823,1.823,0,0,1-1.66.908,2.3,2.3,0,0,1-1.681-.566,2.211,2.211,0,0,1-.581-1.654v-1.757a2.108,2.108,0,0,1,.613-1.613,2.414,2.414,0,0,1,1.707-.572A1.837,1.837,0,0,1,300.861,239.483Zm-3.423,1.43v1.8a1.563,1.563,0,0,0,.442,1.2,1.634,1.634,0,0,0,1.174.419,1.917,1.917,0,0,0,1.25-.419,1.477,1.477,0,0,0,.522-1.224v-2.182a1.332,1.332,0,0,0-.557-1.029,1.987,1.987,0,0,0-1.144-.33,1.839,1.839,0,0,0-1.174.407A1.631,1.631,0,0,0,297.438,240.913Z" transform="translate(-277.862 -236.295)"/><path class="a" d="M301.981,244.8q-2.587,0-2.586-2.114v-.979a1.569,1.569,0,0,1,.826-1.569,1.982,1.982,0,0,1,.864-.2,3.777,3.777,0,0,1,2.324.663A1.489,1.489,0,0,0,303,239.51a2.09,2.09,0,0,0-1.492-.413h-.059l.035-.425a3.373,3.373,0,0,1,1.415.224,4.072,4.072,0,0,1,.436.259.9.9,0,0,1,.295.342c.074.141.13.265.18.371a1.476,1.476,0,0,1,.091.433c.027.274.038.56.038.861v3.518Q302.712,244.8,301.981,244.8Zm-2.067-3.058v1.026a1.5,1.5,0,0,0,.277.935,1.312,1.312,0,0,0,.752.484,5.841,5.841,0,0,0,2.465.047v-3.2a4.96,4.96,0,0,0-2.135-.613h-.106a1.323,1.323,0,0,0-.882.313A1.251,1.251,0,0,0,299.914,241.743Z" transform="translate(-273.008 -236.288)"/><path class="a" d="M304.252,239.157a3.467,3.467,0,0,0-1.663.4v5.125h-.531v-5.915h.531v.318a3.141,3.141,0,0,1,1.687-.413,2.571,2.571,0,0,1,1.135.224,1.707,1.707,0,0,1,1,1.7v4.084h-.519v-4.06a1.4,1.4,0,0,0-.36-1.011,1.426,1.426,0,0,0-.879-.43A3.691,3.691,0,0,0,304.252,239.157Z" transform="translate(-267.819 -236.288)"/><path class="a" d="M304.7,237.908h.531v2.35h1.548l-.236.507h-1.312v3.851a1.211,1.211,0,0,0,.876,1.286l-.153.425a1.71,1.71,0,0,1-.958-.6,1.886,1.886,0,0,1-.295-1.109Z" transform="translate(-262.67 -237.778)"/><path class="a" d="M310.308,244.277a3.6,3.6,0,0,1-1.9.554q-2.052,0-2.052-1.725v-2.418a1.89,1.89,0,0,1,.6-1.489,2.282,2.282,0,0,1,1.575-.531,2.132,2.132,0,0,1,1.53.525,1.927,1.927,0,0,1,.548,1.46v1.415l-3.718.2v.849a1.066,1.066,0,0,0,.436.964,1.769,1.769,0,0,0,.994.289,3.723,3.723,0,0,0,1.781-.507Zm-3.423-3.588v1.062l3.187-.165v-.991a1.281,1.281,0,0,0-.484-1.129,1.933,1.933,0,0,0-1.129-.336,1.718,1.718,0,0,0-1.109.377A1.438,1.438,0,0,0,306.885,240.689Z" transform="translate(-259.447 -236.295)"/><path class="a" d="M314.6,244.277a3.6,3.6,0,0,1-1.9.554q-2.057,0-2.055-1.725v-2.418a1.9,1.9,0,0,1,.6-1.489,2.285,2.285,0,0,1,1.577-.531,2.129,2.129,0,0,1,1.527.525,1.929,1.929,0,0,1,.551,1.46v1.415l-3.721.2v.849a1.072,1.072,0,0,0,.436.964,1.769,1.769,0,0,0,.994.289,3.723,3.723,0,0,0,1.781-.507Zm-3.423-3.588v1.062l3.188-.165v-.991a1.274,1.274,0,0,0-.484-1.129,1.924,1.924,0,0,0-1.126-.336,1.72,1.72,0,0,0-1.112.377A1.438,1.438,0,0,0,311.173,240.689Z" transform="translate(-251.091 -236.295)"/><path class="a" d="M317.265,237.911l-.082.46a2.06,2.06,0,0,0-.295-.024,1.319,1.319,0,0,0-.885.318,1.419,1.419,0,0,0-.366,1.112v.566h1.474l-.224.507h-1.25v5.408h-.531v-6.481a2.346,2.346,0,0,1,.2-1.017,1.307,1.307,0,0,1,.507-.6,2.063,2.063,0,0,1,1.038-.295A1.9,1.9,0,0,1,317.265,237.911Z" transform="translate(-242.391 -237.864)"/><path class="a" d="M320.593,244.277a3.615,3.615,0,0,1-1.9.554q-2.057,0-2.055-1.725v-2.418a1.9,1.9,0,0,1,.6-1.489,2.285,2.285,0,0,1,1.577-.531,2.137,2.137,0,0,1,1.53.525,1.927,1.927,0,0,1,.549,1.46v1.415l-3.721.2v.849a1.067,1.067,0,0,0,.439.964,1.759,1.759,0,0,0,.991.289,3.733,3.733,0,0,0,1.784-.507Zm-3.426-3.588v1.062l3.19-.165v-.991a1.275,1.275,0,0,0-.487-1.129,1.918,1.918,0,0,0-1.126-.336,1.706,1.706,0,0,0-1.109.377A1.43,1.43,0,0,0,317.167,240.689Z" transform="translate(-239.411 -236.295)"/><path class="a" d="M319.8,239.558v5.125h-.531v-5.915h.531l-.047.354a3.686,3.686,0,0,1,1.731-.436,1.806,1.806,0,0,1,1.409.578,3.975,3.975,0,0,1,1.937-.59,1.676,1.676,0,0,1,1.321.542,1.994,1.994,0,0,1,.484,1.383v4.084h-.519v-4.048a1.686,1.686,0,0,0-.236-.935,1.342,1.342,0,0,0-1.2-.566,2.434,2.434,0,0,0-1.053.248l-.5.248a2.3,2.3,0,0,1,.177,1.017v4.037h-.519v-4.166a1.323,1.323,0,0,0-.33-.958,1.527,1.527,0,0,0-1.156-.4A3.062,3.062,0,0,0,319.8,239.558Z" transform="translate(-234.284 -236.288)"/><path class="a" d="M323.034,238.416a.318.318,0,0,1-.1-.23.31.31,0,0,1,.1-.224.336.336,0,0,1,.233-.094.322.322,0,0,1,.318.318.323.323,0,0,1-.094.23.3.3,0,0,1-.224.1A.318.318,0,0,1,323.034,238.416Zm-.041,1.92h.534v5.915h-.534Z" transform="translate(-227.139 -237.856)"/><path class="a" d="M326.649,239.157a3.471,3.471,0,0,0-1.666.4v5.125h-.531v-5.915h.531v.318a3.152,3.152,0,0,1,1.69-.413,2.558,2.558,0,0,1,1.132.224,1.7,1.7,0,0,1,1,1.7v4.084h-.519v-4.06a1.392,1.392,0,0,0-.36-1.011,1.419,1.419,0,0,0-.879-.43A3.68,3.68,0,0,0,326.649,239.157Z" transform="translate(-224.181 -236.288)"/><path class="a" d="M327.331,238.416a.306.306,0,0,1-.1-.23.3.3,0,0,1,.1-.224.334.334,0,0,1,.23-.094.31.31,0,0,1,.224.094.315.315,0,0,1,.094.224.324.324,0,0,1-.094.23.294.294,0,0,1-.224.1A.316.316,0,0,1,327.331,238.416Zm-.041,1.92h.531v5.915h-.531Z" transform="translate(-218.766 -237.856)"/><path class="a" d="M330.945,239.157a3.487,3.487,0,0,0-1.666.4v5.125h-.531v-5.915h.531v.318a3.159,3.159,0,0,1,1.69-.413,2.558,2.558,0,0,1,1.132.224,1.7,1.7,0,0,1,1.006,1.7v4.084h-.519v-4.06a1.393,1.393,0,0,0-.363-1.011,1.411,1.411,0,0,0-.879-.43A3.638,3.638,0,0,0,330.945,239.157Z" transform="translate(-215.809 -236.288)"/><path class="a" d="M333.949,244.8q-2.587,0-2.586-2.114v-.979a1.569,1.569,0,0,1,.826-1.569,1.983,1.983,0,0,1,.864-.2,3.777,3.777,0,0,1,2.324.663,1.489,1.489,0,0,0-.407-1.088,2.09,2.09,0,0,0-1.492-.413h-.059l.035-.425a3.372,3.372,0,0,1,1.415.224,4.069,4.069,0,0,1,.436.259.9.9,0,0,1,.295.342c.074.141.13.265.18.371a1.471,1.471,0,0,1,.091.433c.027.274.038.56.038.861v3.518Q334.68,244.8,333.949,244.8Zm-2.067-3.058v1.026a1.5,1.5,0,0,0,.277.935,1.313,1.313,0,0,0,.752.484,5.841,5.841,0,0,0,2.465.047v-3.2a4.961,4.961,0,0,0-2.135-.613h-.106a1.322,1.322,0,0,0-.882.313A1.251,1.251,0,0,0,331.882,241.743Z" transform="translate(-210.714 -236.288)"/></g><g transform="translate(41.511)"><path class="a" d="M301.634,221.3c3.468,1.359,6.935,2.722,10.577,4.152-.716-3.488-1.415-6.891-2.161-10.533.519.236.855.374,1.174.54,4.276,2.191,8.563,4.361,12.812,6.6.926.487,1.4.333,1.955-.522,1.94-3,3.951-5.965,5.936-8.94.192-.286.4-.557.7-.976.286.351.516.59.7.861,2.046,3.061,4.113,6.11,6.107,9.206.5.77.867.944,1.722.486,4.27-2.276,8.575-4.488,12.871-6.717.348-.18.722-.321,1.309-.581-.772,3.706-1.489,7.15-2.256,10.833,3.724-1.471,7.209-2.848,10.9-4.311-.687,1.928-1.291,3.63-1.9,5.328-2.032,5.679-4.081,11.352-6.074,17.046a1.328,1.328,0,0,1-1.507,1.053q-21.575-.04-43.15,0a1.875,1.875,0,0,1-2.111-1.474c-2.45-6.979-4.989-13.932-7.5-20.891-.106-.295-.2-.593-.295-.891l.192-.274m15.536,9.509c-.094.245-.15.313-.139.366.658,3.229,1.33,6.455,1.976,9.683.147.74.64.811,1.247.811q12.362,0,24.721.018a1.314,1.314,0,0,0,1.495-1.247c.218-1.206.466-2.409.708-3.612.4-1.979.8-3.957,1.247-6.124-1.545.6-2.913,1.112-4.261,1.675a1.426,1.426,0,0,1-2.1-.619c-.787-1.362-1.731-2.636-2.551-3.984a.987.987,0,0,0-1.554-.413c-1.321.722-2.7,1.353-4,2.1a2.352,2.352,0,0,1-2.568,0c-1.244-.714-2.548-1.327-3.8-2.026a1.2,1.2,0,0,0-1.846.484c-.725,1.159-1.507,2.282-2.268,3.417-1,1.483-1.05,1.489-2.73.831-1.185-.466-2.383-.905-3.571-1.356m41.16-3.936c-1.911.728-3.588,1.336-5.231,2.026a1.6,1.6,0,0,0-.858.935c-.82,3.618-1.58,7.251-2.329,10.886a.961.961,0,0,0,.236.814,2.482,2.482,0,0,0,3.208-.941c.655-1.7,1.262-3.414,1.881-5.128,1.008-2.789,2.008-5.582,3.093-8.592m-51.23.032c.1.369.142.56.206.746q2.211,6.179,4.435,12.358c.569,1.572.749,1.672,2.468,1.663,1.247-.006,1.374-.142,1.132-1.33-.7-3.429-1.4-6.859-2.147-10.279a1.618,1.618,0,0,0-.7-1.056c-1.722-.737-3.485-1.371-5.393-2.1m25.571-9.371c-.817,1.174-1.536,2.2-2.247,3.232s-1.412,2.064-2.1,3.072c2.344,2.8,5.85,2.86,8.749.159-1.424-2.094-2.857-4.2-4.4-6.463m9.214,7.905c.731,1.085,1.318,2.043,2.005,2.922a1.134,1.134,0,0,0,1,.28c1.232-.4,2.436-.89,3.639-1.374.245-.1.6-.268.649-.466.445-1.855.837-3.721,1.306-5.88l-8.6,4.517m-27.015-4.506c.4,1.961.717,3.674,1.109,5.369a1.436,1.436,0,0,0,.687.826,20.673,20.673,0,0,0,2.5,1.088c1.94.7,2.247.557,3.232-1.271a5.97,5.97,0,0,1,.534-.9c.371-.469.333-.79-.218-1.073-2.551-1.3-5.092-2.621-7.843-4.04" transform="translate(-301.442 -211.625)"/><path class="a" d="M349.994,223.48v1.961H304.387a2.917,2.917,0,0,1-.121-.54c-.068-1.421-.065-1.421,1.4-1.421h44.327Z" transform="translate(-295.981 -188.524)"/></g></svg>