<svg xmlns="http://www.w3.org/2000/svg" width="108.116" height="108.15" viewBox="0 0 108.116 108.15"><defs><style>.a{fill:#bababa;}.a,.b{fill-rule:evenodd;}.b{fill:#3e3e3e;}</style></defs><g transform="translate(-10 -8.925)"><path class="a" d="M66.539,38.519l3.917-4.031c2.806-2.755,18-17.406,19.011-19.475-4.094-.813-3.371,2.966-7.547,4.832-.16-7.017.984-8.285-1.9-8.365l-.095,10.711c-.7.761-2.531,2.953-3.525,3.453l-.043-12.429c.075-2.456.607-2.906-1.674-3.154-.952,1.866-.169,14.384-.462,17.791A12.8,12.8,0,0,1,70.9,31.064L70.749,9.242,69.089,9.07c-.995,4.285-.192,18.535-.3,23.972a13.256,13.256,0,0,1-3.477,3.73l-.108-24.98A9.061,9.061,0,0,0,65.2,9.759a1.012,1.012,0,0,0-1.256-.776,1.409,1.409,0,0,0-.694,1.44l.019,23.562c-.016.977.072,3.432-.058,4.2a3.018,3.018,0,0,1-.324.965,35.263,35.263,0,0,1,3.655-.634Zm2.953,78.239c.952-.4,1.3.455,1.268-3.032l.028-26.339a16.434,16.434,0,0,1-2.1.258c.038.945.13,2.3.125,4.367l0,16.512c0,2.083-.557,6.536.682,8.233Zm9.732-75.075q-.818-.614-1.694-1.154L92.09,25.9c1.346-1.446,4.276-4.992,6.137-5.121C99,22.5,97.672,23.2,96.551,24.244L81.694,39.111c-.882.823-1.7,1.745-2.469,2.572ZM59.751,40.028c.033-.969-.146-2.622-.145-5.571,0-4.45.459-23.847-.492-25.345-2.228.331-1.429.9-1.444,6.946l.049,24.508.038.192q.987-.4,1.995-.73ZM74.364,86.31q0,14.17,0,28.34c0,1.91,1.821,1.994,1.831-.7l.108-28.583a19.86,19.86,0,0,1-1.941.938Zm-20.317-43.8c.008-.335,0-.789.013-1.426L53.925,10.62c0-.96.09-.819-.971-.632-1.388.245-.837.7-.852,7.014l0,17.927c0,1.882-.389,6.391.2,8.537.6-.333,1.182-.65,1.745-.951ZM109.13,92.976c.994-2.34-.448-2.651-4.587-6.766L92.268,73.964c-.857-.9-2.571-2.856-4.151-4.259q-.306,1.1-.71,2.2a42.245,42.245,0,0,1,3.034,2.94c1.1,1.2,1.954,1.878,3.08,3.047,2.356,2.449,14.063,14.53,15.609,15.087Zm8.83-34.93c-.313-2.144-.735-1.55-6.951-1.557-2.831,0-5.661.014-8.491.007-4.062-.009-9.571-.276-14.034-.044q.224,1.021.371,2.065c.844-.037,1.916-.086,3.283-.07,4.212.05,24.4.433,25.822-.4ZM43.98,49.22c-.1-.088-.194-.18-.295-.278-3.094-3-19.313-20.227-21.34-20.554-1.031,1.948.7,2.732,4.364,6.392L38.532,46.527c1.035,1,2.508,2.856,3.976,4.221A19.784,19.784,0,0,1,43.98,49.22Zm-13.5,56.217c1.5-.255,6.091-5.611,8.635-7.965L50.924,85.7c1.068-1.081,1.676-1.607,2.019-1.927q-.981-.541-1.889-1.142c-1.164.738-2.321,2.308-4.439,4.447L31.75,101.932c-1.574,1.509-2.607,1.724-1.269,3.505Zm3.839,2.891c-.021-1.637,1.41-2.32,2.408-3.321,1.141-1.144,1.887-1.924,3.051-3.082L52.06,89.679a58.109,58.109,0,0,1,4.279-4.328q.93.357,1.876.65c-3.2,4.248-15.207,15.436-17.075,17.292-1.081,1.074-2.067,1.911-3.091,3.052-1.068,1.19-1.517,2.511-3.729,1.984ZM87.494,53.04c.9-.052,1.841-.147,2.756-.148,6.989-.007,21.465.426,26.861-.087-.18-2.081.053-1.821-2.287-1.906-1.528-.056-3.212,0-4.759,0l-23.417.08q.465,1.007.846,2.057ZM106.18,97.1c-2.465.259-5.247-3.721-6.54-5.042L87.832,80.28c-1.17-1.165-2.263-2.155-3.1-3q.568-.893,1.061-1.806c4.543,3.83,14.244,13.957,15.592,15.321,2.641,2.674,5.024,4.15,4.8,6.312ZM11.109,73.614c.314,2.461.758,1.551,6.961,1.591l25.5-.045q-.66-.995-1.221-2.029c-1,.024-2.424.076-4.467.066-4.695-.023-25.15-.429-26.775.417Zm28.95-6.1c-.99,0-2.114.122-3.118.123-5.772.007-23.263-.382-26.6.129-.255,2.952,2.837,1.863,5.842,1.875,4.917.018,18.842.267,24.582.016q-.4-1.065-.706-2.143ZM74.1,38.833a11.711,11.711,0,0,0-2.441-.471c4.5-4.845,13.64-13.572,15.54-15.431,2.7-2.642,4.312-5.62,6.663-5.3.408,1.868.673.836-.694,2.271L76.323,36.588c-.941.867-1.577,1.566-2.222,2.245ZM40.645,53.506a16.375,16.375,0,0,0-.923,2.138c-5.221-4.818-15.5-15.607-18.914-18.751-3.056-2.818-2.266-2.343-2.1-3.731,2.07-.327,2.591,1.1,3.851,2.467L38.136,51.191c.933.889,1.791,1.638,2.509,2.316Zm-1.018,57.587c-.3-.824-1.119,1.163-.022-1.241L59.03,90.512c1.324-1.344,2.343-2.564,3.3-3.5.994.188,2,.344,3.02.478a48.221,48.221,0,0,0-.184,4.994v16.984c0,3.644.582,6.7-.867,7.606-1.341-.608-1.06.123-1.108-2.381l-.054-25.319a13,13,0,0,0-3.532,3.582l0,18.871c0,1.616.021,2.684.031,3.39.036,2.538-1.879,1.591-1.921.657-.011-.26-.027-.634-.063-1.175l.016-8.533c0-3.43.242-7.921-.217-11.334L54.034,98.1l-.13,17.921c-2.633-.252-1.8-.836-1.8-3.719l-.177-11.669c-1.784,1.04-3.466,2.736-3.517,5.039-.033,1.514.014,3.212.03,4.742.03,2.895.291,2.625-.645,4.056-1.938-.751-1.358-1.109-1.335-3.574.016-1.63.014-3.166-.079-4.8-3.594,2.427-4.353,5.941-6.75,5ZM46.42,19.925c.136-5.546-.587-7.236.614-8.083.929-.656,1.133-.035,1.348.884l-.092,33.159c-.687.454-1.363.928-2.017,1.421.025-.535.37-.26-4.389-5.058L30.553,30.933c-2.849-2.9-5.093-4.077-4.923-6.368,2.243-.19,1.832.464,3.244,1.918l7.332,7.294c1.538,1.67,8.294,8.785,10.3,9.744L46.439,38.5l-8.791-8.545c-1.675-1.782-7.663-7.021-8.155-8.673,2.034-1.264,1.95-.2,4.882,2.529L46.282,35.737c.575-3.409.409-4.7-1.329-6.46l-9.54-9.347c-2.463-2.361-.946-2.029-.905-2.076,1.693-.946,2.031.263,3.3,1.573l8.61,8.325,0-4.619c-2.023-2.509-6.273-5.228-7.508-8.124,3.366-1.25,3.266,2.476,7.51,4.915ZM84.567,47.3a24.251,24.251,0,0,0-2.675-3.276l.233-.238c1.071-1.1,1.776-1.731,2.825-2.845L99.086,26.778c.742-.817,1.174-1.333,1.446-1.657.577-.687,1.057-.739,1.575-.446.951.537.667.755.065,1.554-1.873,2.486-7.449,7.713-8.77,9.019L83.645,45.325l4.719-.084c.9-.38,15.74-16.139,16.669-16.4,5.143-1.42-4.823,7.52-5.777,8.472-2.861,2.855-5.765,5.089-7.715,8.046l4.843-.166c2.356-.948,10.627-11.959,13-11.938.58,2.009-.618,2.467-1.725,3.5l-8.326,8.528,5.167-.029a24.809,24.809,0,0,1,3.522-3.883l2.92-2.814c2.073-1.127,1.739.706,1.155,1.69a12.677,12.677,0,0,1-1.914,1.872,23.95,23.95,0,0,0-2.973,3.162c7.126.338,7.979-1.019,8.493,1.919-7.906.482-21.834.018-31.138.1Zm27.771,40.424c-2.046.071-2.753-1.408-3.9-2.583l-16.516-16.5c-1.094-1.182-2.133-2.1-3.009-2.95a27.5,27.5,0,0,0,.2-3.711c.862.238,1.611.093,4.435.087l16.984.012c2.859,0,6.183-.441,7.579.675-.36,1.649.01,1.258-2.352,1.287l-25.18.038a8.885,8.885,0,0,0,3.44,3.535l23.773.134c.224,2.566-.893,1.913-3.477,1.886L96.309,69.7c.74,1.548,1.794,2.286,2.811,3.43,3.37.068,12.688-.3,16.63.178,1.114.135,1.357-.037,1.132.93-.38,1.626-.436.952-6.817.947-2.77,0-5.6-.047-8.365.062.991,1.854,2.027,2.206,3.11,3.491,2.179.061,8.125-.25,9.905.166.777.391.949.59.284,1.522-.691.968-2.118.139-7.377.39,1.064,3.266,4.952,3.68,4.715,6.905ZM21.157,45.135c-4.169-4.121-5.635-4.694-5.153-7.448,2.183.733,5.762,4.895,7.337,6.585,1.2,1.283,1.961,2.151,3.261,3.346L36.661,57.849c.879.821,1.659,1.5,2.334,2.1a25.456,25.456,0,0,0,.191,3.164q.053.469.124.941a25.5,25.5,0,0,0-2.841-.034l-17.928.03c-3.323,0-7.576.6-8.541-.821.451-1.062-.171-.671.991-1.1L37.7,62.013c-.435-1.144-2.277-2.719-3.116-3.53l-21.244.039c-2.727.069-2.754-.092-2.859-.524-.281-1.158-.184-1.269.85-1.419a5.964,5.964,0,0,1,.939-.091l20.208-.052c-1.324-1.188-2.025-2.2-3.555-3.5L10.986,52.8c.24-2.144-.117-1.857,2.325-1.913l13.312.012a16.865,16.865,0,0,0-3.364-3.585c-1.293-.46-8.339.748-10.7-.594.55-1.89-.564-1.163,1.683-1.418,1.065-.121,4.147.323,6.917-.17Zm-.2,35.684c-7.023-.516-8.072,1.305-8.447-1.917,4.3-.54,23.019-.18,29.619-.135,1.983.014,3.274-.077,4.212-.108a26.391,26.391,0,0,0,2.251,2.133c-1.551.491-.694-.136-2.336,1.662L31.6,97.053c-2.439,2.324-3.667,3.554-4.309,4.16-.9.856-1.983.083-1.473-1.133.4-.958.912-1.029,2.028-2.065l7.337-7.292c3.255-3.169,6.681-6.517,9.607-9.811-5.3-.476-4.422-.328-7.178,2.341C35.7,85.108,26.087,95.287,23.142,97.174c-.9.579-1.43-.256-1.062-.952.731-1.386,2.448-2.775,3.473-3.8,1.975-1.983,10.478-9.8,11.067-11.713-5.936.248-3.315-.885-10.963,6.626-3.3,3.238-5.112,6.088-6.8,5.249C18.107,90.046,26.58,84.83,29,80.722l-4.857.089a85.681,85.681,0,0,1-7.1,6.94c-.529.423-1.411.845-1.453-.285-.057-1.519,1.172-1.808,2.4-3.088a21.99,21.99,0,0,0,2.971-3.559ZM79.921,93.9c0-2.847-.362-7.188-.139-10.919a23.709,23.709,0,0,0,2.86-2.849c.186.222.43.484.752.8l8.521,8.455c1.783,1.728,10.544,10.281,10.891,11.436-2.075,1.481-1.479.553-5.714-3.38-1.781-1.654-3.546-3.383-5.22-5.159-1.107-1.174-9.568-9.353-9.813-9.9-.761,4.5.03,5.111,2.167,7.152,2.111,2.017,14.068,13.287,14.345,15.011l-.771.656c-2.682-.8-11.358-11.783-15.721-14.8-.579,2.872-.358,4.341,1.1,5.843,2.339,2.4,10.231,9.171,10.9,11.829-2.328.814-2.023.146-3.661-1.6-1.091-1.162-1.76-1.978-2.724-2.941-.6-.595-4.763-4.886-5.767-5.216-.007,5.178-.354,4.371,2.634,7.384l3.9,3.752c1.475,2.249.159,1.586.121,1.691-2.326.579-4.325-3.907-6.628-4.935-.2,6.829.921,7.567-1.6,8.122C79.384,112.381,79.918,96.824,79.921,93.9Z" transform="translate(0 0)"/><path class="b" d="M225.585,234.527v6.328h6.329a2.857,2.857,0,0,0,1.039-.195c.875-.354.842-1.637.608-2.355a1.229,1.229,0,0,0-.671-.716c.7-.336.693-.949.572-1.639a2.008,2.008,0,0,0-.347-.872,1.388,1.388,0,0,0-1.132-.551Zm17.484,1.7c0-1.326-.627-1.7-1.917-1.7H235.18v6.328h1.985v-1.629H240a1.515,1.515,0,0,1,.857.132c.3.185.257.407.266.87v.627h1.944V239.68a1.26,1.26,0,0,0-.216-.915,4.944,4.944,0,0,0-.5-.462c.094-.108.217-.228.333-.353.525-.57.388-.978.388-1.721Zm-5.9-.166c.4,0,2.384-.042,3.3.011.535.03.725.146.725.736a.728.728,0,0,1-.789.814h-3.232v-1.561Zm23.126,3.194a1.413,1.413,0,0,0-.061-.757c-.093-.157-.391-.129-.551-.139-.577-.036-1.007-.023-1.576-.037-.708-.018-1.624-.01-2.306-.078a1.367,1.367,0,0,1-1.244-.638,2.442,2.442,0,0,1-.268-1.4,2.545,2.545,0,0,1,.187-.876,1.332,1.332,0,0,1,1.2-.838,15.875,15.875,0,0,1,2.009-.084,15.078,15.078,0,0,1,3.135.206,1.469,1.469,0,0,1,1.069.882,2.561,2.561,0,0,1,.153.95h-1.867a.724.724,0,0,0-.469-.573,21.083,21.083,0,0,0-2.988-.045.792.792,0,0,0-.366.093.448.448,0,0,0-.237.456c.042.461.212.463.615.507.5.054,1.245.072,1.474.077.492.011,1.225,0,1.941.073.3.029.893.073,1.169.137.882.2,1.052.811,1.052,1.633a2.7,2.7,0,0,1-.1,1.107,1.73,1.73,0,0,1-1.264.861,24.32,24.32,0,0,1-5.048.072c-1.427-.192-1.629-.6-1.722-2.023h1.8a.686.686,0,0,0,.577.641,15.558,15.558,0,0,0,2.811.107c.223-.019.824.018.871-.311Zm7.392,1.6v-6.328h1.951v4.7h4.445v1.629Zm-36.618-4.861a.467.467,0,0,1,.458.475c0,.29-.143.535-.458.535h-3.555v-1.01Zm-3.555,3.393v-1.01h3.877a.425.425,0,0,1,.39.458c0,.249-.174.551-.45.551Zm21.217-3.088-2.655,4.564h-2.053l3.58-6.337h2.274l3.588,6.337H251.4l-2.672-4.564Zm15.365-1.773h1.951v6.328h-1.951Z" transform="translate(-167.026 -174.691)"/><path class="b" d="M61.1,238.05H64.33a.728.728,0,0,0,.789-.814c0-.59-.191-.705-.725-.736-.912-.052-2.9-.011-3.3-.011v1.561Zm19.79.73H85.91v-1.374H80.888v-.95H85.91v-1.5H78.869v6.328h2.019v-2.5Zm-21.775-3.826h5.972c1.29,0,1.917.375,1.917,1.7,0,.743.137,1.151-.389,1.721-.115.125-.238.245-.332.353a4.944,4.944,0,0,1,.5.462,1.261,1.261,0,0,1,.216.915v1.176H65.059v-.627c-.01-.463.033-.685-.266-.87a1.515,1.515,0,0,0-.857-.132H61.1v1.629H59.113v-6.328Zm13.792,1.773-2.655,4.564H68.2l3.58-6.337h2.274l3.588,6.337H75.578l-2.672-4.564Zm17.544,0-2.655,4.564H85.741l3.58-6.337h2.274l3.588,6.337H93.121Z" transform="translate(-38.051 -175.118)"/></g></svg>