<svg xmlns="http://www.w3.org/2000/svg" width="227" height="52.9" viewBox="0 0 227 52.9"><defs><style>.a{fill:#3e3e3e;fill-rule:evenodd;}</style></defs><g transform="translate(-18.401 -14.401)"><path class="a" d="M234.976,14.406a7.96,7.96,0,0,0,.243,2.271,5.966,5.966,0,0,0,3.243,3.926,9.657,9.657,0,0,0,3.241.9,19.053,19.053,0,0,0,3.616.019.443.443,0,0,1,.036.029c.01.009.023.02.025.031a2.379,2.379,0,0,1,.02.242q0,19.1,0,38.248c-.163,0-.306.006-.448,0a17.792,17.792,0,0,0-3.739.167,10.773,10.773,0,0,0-2.618.742,5.686,5.686,0,0,0-3.616,5.858c0,.121.011.241.019.394q-103.1.184-206.16.068c-.036-.5-.043-.954-.1-1.4a6.055,6.055,0,0,0-4.079-5.1A9.439,9.439,0,0,0,21.6,60.16c-.976-.04-1.955,0-2.932,0H18.4V21.612l.341.018a15.94,15.94,0,0,0,5.173-.458,8.323,8.323,0,0,0,2.206-.933A5.454,5.454,0,0,0,28.8,15.693c.013-.2.009-.408.011-.612,0-.188,0-.376,0-.608.171-.008.328-.02.485-.02q6.381,0,12.761,0Q88.8,14.427,135.54,14.4q28.52-.01,57.039,0,20.916,0,41.831,0ZM131.663,65.01V65h15.983l41.262,0,23.567,0c.815,0,1.631-.008,2.446-.011q7.074-.026,14.147-.052,1.3-.006,2.607-.049c.561-.018.708-.191.759-.741a3.588,3.588,0,0,1,.163-.833,7.037,7.037,0,0,1,1.636-2.648,9.65,9.65,0,0,1,3.753-2.3,10.877,10.877,0,0,1,3.451-.732c.433-.008.605-.206.617-.641.007-.258,0-.516,0-.774.022-3.792.052-7.583.066-11.375.016-4.335.009-8.671.026-13.006.009-2.256.041-4.512.078-6.767.015-.955-.15-.976-.951-1.011a10.338,10.338,0,0,1-1.574-.185,8.9,8.9,0,0,1-6.97-5.895,3.32,3.32,0,0,1-.167-.827c-.035-.329-.079-.391-.422-.407-.068,0-.136,0-.2,0q-3.343-.009-6.686-.016Q217.623,16.7,210,16.694q-46.828,0-93.655,0-35.248.008-70.5.042-6.442,0-12.883.037c-.325,0-.652.029-.976.062-.438.045-.551.165-.622.607-.009.054-.01.109-.022.161a7.667,7.667,0,0,1-.23.983,7.177,7.177,0,0,1-2.58,3.335,11.2,11.2,0,0,1-3.55,1.687,9.441,9.441,0,0,1-2.518.45c-.59.007-.752.219-.746.821,0,.122,0,.244,0,.367q-.04,9.806-.081,19.611-.023,5.382-.051,10.764c0,.448-.039.9-.034,1.344.006.493.18.625.671.667a16.362,16.362,0,0,1,2.059.243A8.894,8.894,0,0,1,30.982,63.5a2.442,2.442,0,0,1,.265,1.139c-.019.236.078.305.318.326.095.008.19,0,.285,0q18.49.023,36.981.043Q100.247,65.018,131.663,65.01Z" transform="translate(0)"/><path class="a" d="M194.7,69.279v-.446c.175-.038.343-.072.512-.109a1.133,1.133,0,0,0,1-1.071,14.764,14.764,0,0,0,.078-1.545c-.029-1.127-.086-2.253-.148-3.379-.1-1.8-.213-3.607-.32-5.411q-.125-2.116-.249-4.231a1.29,1.29,0,0,0-.121-.5c-.064.17-.129.34-.191.51l-5.7,15.611c-.019.051-.039.1-.058.152-.169.436-.354.541-.81.432a.383.383,0,0,1-.209-.166,1.976,1.976,0,0,1-.155-.375q-2.726-7.828-5.45-15.658a1.781,1.781,0,0,0-.242-.5c-.02.12-.047.238-.057.358q-.138,1.686-.271,3.372c-.18,2.234-.366,4.468-.535,6.7-.072.962-.123,1.926-.148,2.889a3.451,3.451,0,0,0,.145,1.043,2.383,2.383,0,0,0,1.741,1.722c.129.036.255.078.388.119.007.1.016.181.017.26s-.01.13-.018.217h-5.41V68.7c.067-.029.149-.071.235-.1a3.015,3.015,0,0,0,1.761-1.656,5.8,5.8,0,0,0,.5-1.924c.175-1.866.337-3.734.5-5.6.158-1.841.32-3.681.454-5.524a13.474,13.474,0,0,0-.017-1.666.8.8,0,0,0-.717-.776,8.01,8.01,0,0,0-1.052-.075c-.133-.007-.267,0-.445,0,.015-.177.026-.316.04-.478H184.4c1.853,4.937,3.711,9.89,5.6,14.933l5.564-14.935h4.718l.059.464c-.277.006-.529,0-.781.019a6.254,6.254,0,0,0-.929.081.8.8,0,0,0-.7.785,7.416,7.416,0,0,0-.035.894q.119,1.87.269,3.739.258,3.189.536,6.376a33.966,33.966,0,0,0,.478,4c.017.08.04.158.053.238a1.42,1.42,0,0,0,1.31,1.248c.134.022.266.051.424.082v.455Z" transform="translate(-81.99 -18.691)"/><path class="a" d="M92.873,69.287v-.551c.207-.029.406-.05.6-.085a4.542,4.542,0,0,0,.555-.124.959.959,0,0,0,.706-.768,8.467,8.467,0,0,0,.157-1.046c.043-.678.075-1.357.076-2.036.008-3.016.013-6.033,0-9.048,0-.827-.059-1.656-.142-2.479a1.291,1.291,0,0,0-1.45-1.313c-.159,0-.318,0-.5,0v-.661a3.34,3.34,0,0,1,.333-.047c2.348-.091,4.7-.205,7.045-.26a14.3,14.3,0,0,1,4.307.562,8.473,8.473,0,0,1,4.361,2.781,8.3,8.3,0,0,1,1.744,3.9,12.064,12.064,0,0,1-.214,5.291,7.343,7.343,0,0,1-5.637,5.466,13.219,13.219,0,0,1-3.385.427c-2.69-.017-5.38-.005-8.07-.005ZM97.615,51.6c-.011.14-.025.232-.025.324q.009,7.253.023,14.5a6.029,6.029,0,0,0,.065.811,1.331,1.331,0,0,0,1.1,1.253,6.421,6.421,0,0,0,.841.139,14.381,14.381,0,0,0,2.846-.083,5.336,5.336,0,0,0,3.835-2.134,8.064,8.064,0,0,0,1.336-3.033,13.752,13.752,0,0,0,.132-5.1,9.224,9.224,0,0,0-1.47-3.933,6.191,6.191,0,0,0-3.812-2.6A17.86,17.86,0,0,0,97.615,51.6Z" transform="translate(-38.141 -18.675)"/><path class="a" d="M384.293,61.038c0,.875,0,1.7,0,2.53,0,.665.013,1.331.035,2s.05,1.33.1,1.993c.058.751.342,1.033,1.084,1.133.215.029.431.051.679.08v.516h-6.064v-.563c.281-.037.548-.063.812-.107a.941.941,0,0,0,.873-.92c.048-.581.13-1.163.127-1.745-.012-2.4-.055-4.809-.076-7.213-.011-1.331.012-2.663-.007-3.993a19.667,19.667,0,0,0-.128-1.99,1.1,1.1,0,0,0-1.189-1.04c-.283-.012-.566-.035-.877-.055v-.566c.114-.016.23-.04.347-.045,1.8-.085,3.608-.2,5.413-.24a11.2,11.2,0,0,1,3.656.512,6.378,6.378,0,0,1,3.139,2.091,4.281,4.281,0,0,1,.528,4.451,4.131,4.131,0,0,1-2.018,1.827,17.49,17.49,0,0,1-1.685.6c-.127.043-.259.068-.453.119.178.053.291.093.407.121a4.549,4.549,0,0,1,2.9,2.007c.291.458.574.923.829,1.4.313.587.574,1.2.889,1.786a7.392,7.392,0,0,0,1.82,2.377,3.407,3.407,0,0,0,1.582.735c.008.14.014.257.02.374a.5.5,0,0,1-.132.044c-1.1,0-2.2.01-3.3,0a.829.829,0,0,1-.409-.144,5.217,5.217,0,0,1-1.587-1.671c-.616-.99-1.175-2.017-1.736-3.041a6.618,6.618,0,0,0-3.706-3.252A3.9,3.9,0,0,0,385.135,61,7.469,7.469,0,0,0,384.293,61.038Zm-.15-9.408c-.113,2.926-.064,5.82.061,8.728.417,0,.8.018,1.172,0a9.707,9.707,0,0,0,2.673-.484,2.919,2.919,0,0,0,2.094-2.766,7.44,7.44,0,0,0-.281-2.578,3.58,3.58,0,0,0-3.178-2.8c-.671-.084-1.35-.108-2.026-.148A3.494,3.494,0,0,0,384.142,51.63Z" transform="translate(-185.024 -18.646)"/><path class="a" d="M148.407,51.385v-.524h6.427c.009.091.023.18.026.27s-.007.159-.013.265c-.252.021-.493.033-.731.063a1.131,1.131,0,0,0-1.155,1.1,16.782,16.782,0,0,0-.159,2.15q-.022,5.238,0,10.476a19.583,19.583,0,0,0,.162,2.354,1.15,1.15,0,0,0,1.217,1.078c.256.018.513.025.77.039.012,0,.022.014.051.033v.521H150.4V67.138a1.8,1.8,0,0,0-.228.167,6.3,6.3,0,0,1-3.853,1.938,10.048,10.048,0,0,1-4.2-.231,5.138,5.138,0,0,1-3.9-4.559,14.882,14.882,0,0,1-.086-1.707c0-2.636.018-5.272,0-7.908a19.726,19.726,0,0,0-.156-2.313A1.181,1.181,0,0,0,136.71,51.4c-.148-.009-.3,0-.5,0-.009-.178-.017-.333-.025-.483.3-.092,5.714-.122,6.414-.04v.506c-.146.006-.292.007-.437.021a3.781,3.781,0,0,0-.562.073,1.057,1.057,0,0,0-.86.921,10.425,10.425,0,0,0-.15,1.416q-.028,4.708-.02,9.416a8.175,8.175,0,0,0,.312,2.171,3.848,3.848,0,0,0,3.05,2.9,6.152,6.152,0,0,0,4.639-.676,4.761,4.761,0,0,0,1.6-1.541,1.2,1.2,0,0,0,.2-.685q-.019-3.363-.017-6.726c0-1.277.021-2.554,0-3.831-.015-.772-.07-1.546-.161-2.313a1.039,1.039,0,0,0-.99-1.02C148.96,51.45,148.7,51.427,148.407,51.385Z" transform="translate(-60.327 -18.655)"/><path class="a" d="M265.269,52.383c-.013.224-.026.353-.026.482q0,6.6,0,13.207a5.794,5.794,0,0,0,.091,1.011,1.7,1.7,0,0,0,1.3,1.417c.258.074.522.129.8.2.007.121.018.228.017.334s-.013.186-.022.306h-5.078c-.012-.1-.03-.206-.033-.308s.008-.214.015-.339c.287-.064.562-.127.837-.187a1.5,1.5,0,0,0,1.277-1.392,14.763,14.763,0,0,0,.14-1.662c.012-3.506.017-7.012-.005-10.517-.005-.8-.115-1.6-.2-2.391a1.085,1.085,0,0,0-1.006-1.013c-.454-.075-.912-.12-1.4-.183V50.8c.14-.008.272-.021.4-.022,1.481,0,2.962.007,4.443-.007a.69.69,0,0,1,.632.334q4.98,6.91,9.974,13.81c.079.11.161.217.282.378a2.064,2.064,0,0,0,.051-.3q0-5.5-.006-11.006a5.325,5.325,0,0,0-.093-.93,1.756,1.756,0,0,0-1.452-1.512c-.158-.035-.316-.068-.5-.106v-.661h5.011c.01.157.022.262.021.367s-.015.185-.024.292c-.21.045-.409.082-.6.131a1.851,1.851,0,0,0-1.635,1.856,11.661,11.661,0,0,0-.07,1.26q-.007,7.032,0,14.063v.532a4.561,4.561,0,0,1-.755-.012.627.627,0,0,1-.33-.258c-.756-1.029-1.5-2.066-2.25-3.1l-9.46-13.076C265.519,52.7,265.421,52.58,265.269,52.383Z" transform="translate(-124.746 -18.625)"/><path class="a" d="M54.872,68.694v.632H49.781v-.64c.213-.046.436-.09.657-.141a1.59,1.59,0,0,0,1.5-1.649,11.18,11.18,0,0,0,.095-1.381c.007-3.534.012-7.067,0-10.6a16.983,16.983,0,0,0-.162-2.15c-.108-.809-.38-1.06-1.2-1.2-.4-.066-.8-.084-1.23-.127v-.6h.407c1.467,0,2.936.011,4.4-.008a.715.715,0,0,1,.665.344q4.97,6.869,9.958,13.725c.086.119.178.234.311.408a2.707,2.707,0,0,0,.047-.323q0-5.443,0-10.886a5.259,5.259,0,0,0-.082-.892,1.807,1.807,0,0,0-1.587-1.625c-.131-.027-.262-.052-.4-.078v-.644h5.008V51.5c-.1.024-.208.056-.322.078A2,2,0,0,0,65.9,53.743c-.025.338-.026.679-.026,1.018q0,6.993,0,13.985v.522c-.283,0-.524-.006-.764,0-.192.007-.247-.148-.331-.262q-1.25-1.712-2.494-3.429L53.036,52.852a.991.991,0,0,0-.332-.32c0,.1-.014.2-.014.306q0,6.666.005,13.332a4.858,4.858,0,0,0,.132,1.046,1.61,1.61,0,0,0,1.165,1.246C54.275,68.55,54.566,68.614,54.872,68.694Z" transform="translate(-15.893 -18.659)"/><path class="a" d="M228.656,51.476V50.9h12.936c.084.9.167,1.814.257,2.781-.316,0-.6.015-.874,0-.066,0-.134-.07-.193-.119a.273.273,0,0,1-.054-.108A2.948,2.948,0,0,0,238,51.574c-1.446-.081-2.9-.019-4.38-.019v8.076c.133.011.251.03.368.028,1.1-.017,2.2-.025,3.3-.063a11.209,11.209,0,0,0,1.252-.152,1.577,1.577,0,0,0,1.443-1.222h.532v4.347l-.34.031a.576.576,0,0,1-.07-.121c-.057-.252-.091-.509-.166-.755a1.437,1.437,0,0,0-1.088-1.053,7.435,7.435,0,0,0-1.363-.227c-1.221-.05-2.444-.054-3.667-.074a1.176,1.176,0,0,0-.209.037c-.008.119-.021.225-.021.331,0,1.427-.017,2.854.011,4.28a20.472,20.472,0,0,0,.174,2.272c.114.859.393,1.145,1.242,1.257a13.963,13.963,0,0,0,3.819-.013,3.955,3.955,0,0,0,2.945-1.967c.222-.367.232-.361.736-.26l-1.014,2.949H228.323v-.581c.361-.028.723-.054,1.085-.085.121-.011.242-.033.362-.055a1.161,1.161,0,0,0,1.053-1.116c.055-.567.145-1.135.147-1.7q.021-5.727,0-11.454a15.911,15.911,0,0,0-.148-1.662,1.042,1.042,0,0,0-.968-.991C229.469,51.55,229.079,51.522,228.656,51.476Z" transform="translate(-107.513 -18.695)"/><path class="a" d="M358.137,68.668v.586c-.3.08-5.951.1-6.507.025v-.626c.158,0,.3,0,.45,0a5.418,5.418,0,0,0,.69-.044.989.989,0,0,0,.855-1.247,7.006,7.006,0,0,0-.235-.863q-.722-2.163-1.457-4.322c-.035-.1-.079-.2-.123-.312h-6.3a1.837,1.837,0,0,0-.095.206c-.388,1.2-.793,2.4-1.149,3.607a4.54,4.54,0,0,0-.141,1.248,1.661,1.661,0,0,0,1.558,1.722,1.276,1.276,0,0,1,.213.042v.565c-.3.081-4.37.1-4.9.023-.01-.1-.026-.2-.029-.3s.008-.187.015-.3l.382-.129a2.564,2.564,0,0,0,1.545-1.307,9.5,9.5,0,0,0,.5-1.158q2.548-7.435,5.083-14.875c.04-.115.086-.227.139-.366h1.9c.043.12.094.256.142.394q2.637,7.62,5.275,15.239c.128.371.293.73.455,1.088a1.691,1.691,0,0,0,1.225.982C357.783,68.578,357.94,68.619,358.137,68.668Zm-6.55-7.5-2.894-8.5-.078,0-2.867,8.5Z" transform="translate(-165.204 -18.662)"/><path class="a" d="M442.7,50.713h1.811c.049.14.1.289.155.441q2.522,7.6,5.046,15.192c.124.373.283.734.437,1.1a1.711,1.711,0,0,0,1.284,1.025c.119.027.237.058.377.093v.623h-6.238v-.613c.137-.005.281-.006.424-.017a5.333,5.333,0,0,0,.767-.077.9.9,0,0,0,.748-.938,1.638,1.638,0,0,0-.07-.521c-.549-1.747-1.107-3.492-1.669-5.26h-6.047a.285.285,0,0,0-.063.082c-.385,1.231-.781,2.458-1.143,3.7a4.288,4.288,0,0,0-.144,1.086,1.726,1.726,0,0,0,1.7,1.959v.607h-4.7c-.007-.109-.018-.2-.017-.293,0-.107.01-.214.016-.321a1.088,1.088,0,0,1,.16-.073,2.64,2.64,0,0,0,1.791-1.593c.119-.274.238-.549.331-.832q2.452-7.47,4.9-14.941C442.6,50.995,442.649,50.857,442.7,50.713Zm2.83,10.332c-.926-2.841-1.839-5.651-2.764-8.456l-.093.008c-.908,2.807-1.817,5.614-2.735,8.448Z" transform="translate(-213.546 -18.598)"/><path class="a" d="M309.5,69.1v-.566c.214-.037.424-.07.634-.108a1.061,1.061,0,0,0,.985-.978c.044-.391.114-.78.132-1.172.032-.705.044-1.412.045-2.119q.006-5.828,0-11.656v-.548c-.156-.013-.273-.03-.39-.031q-1.467,0-2.934,0a4.707,4.707,0,0,0-.61.034,2.056,2.056,0,0,0-1.688,1.187c-.145.3-.263.623-.412.979h-.774V50.528a1.767,1.767,0,0,1,.293.106c.127.077.24.178.366.257a2.628,2.628,0,0,0,1.454.424q5.828-.031,11.656,0a2.916,2.916,0,0,0,1.77-.593c.1-.073.212-.136.405-.26.038,1.273.032,2.444.064,3.637h-.788c-.107-.261-.207-.525-.323-.782a2.123,2.123,0,0,0-1.262-1.252,1.766,1.766,0,0,0-.514-.108c-1.236-.019-2.472-.025-3.708-.033a1.732,1.732,0,0,0-.244.04v.4c0,4.1-.006,8.205.006,12.308,0,.827.076,1.654.117,2.481,0,.054.009.108.017.162a1.1,1.1,0,0,0,1.078,1.118c.133.025.265.053.417.083a2.765,2.765,0,0,1,.029.278c0,.092-.013.185-.023.3Z" transform="translate(-146.521 -18.47)"/><path class="a" d="M32.9,51.579V51h6.058v.574l-.663.007c-.8,0-1.2.321-1.263,1.12-.079.932-.134,1.87-.138,2.805q-.023,4.808,0,9.616c0,.855.062,1.71.132,2.562.061.747.365,1.029,1.1,1.11.268.029.538.042.831.063v.554H32.9c-.006-.107-.015-.2-.014-.29s.013-.158.022-.264c.215-.014.416-.02.614-.043a4,4,0,0,0,.56-.1.851.851,0,0,0,.68-.727,10.314,10.314,0,0,0,.143-1.17c.036-.95.06-1.9.06-2.851q0-4.747-.022-9.494c0-.61-.049-1.222-.11-1.829a1.062,1.062,0,0,0-1.187-1.065C33.4,51.576,33.16,51.579,32.9,51.579Z" transform="translate(-7.416 -18.743)"/><path class="a" d="M418.386,51.538V51c.312-.082,5.446-.11,6.052-.034.012.083.029.173.036.263s0,.162,0,.3c-.238,0-.462.019-.685.006a1.1,1.1,0,0,0-1.274,1.114c-.064.934-.13,1.87-.135,2.806q-.023,4.767,0,9.536c0,.867.064,1.737.135,2.6.059.713.37,1,1.092,1.075.269.03.54.042.837.064v.522c-.28.075-5.551.094-6.058.016v-.536c.223-.016.437-.022.648-.049a3.526,3.526,0,0,0,.6-.114.805.805,0,0,0,.6-.657,9.759,9.759,0,0,0,.153-1.21c.038-.977.06-1.955.061-2.933q0-4.666-.021-9.332c0-.61-.048-1.222-.11-1.829a1.069,1.069,0,0,0-1.221-1.073C418.868,51.536,418.64,51.538,418.386,51.538Z" transform="translate(-204.856 -18.702)"/><path class="a" d="M358.289,37.174h1.491l-2.835,5.675h-.411Z" transform="translate(-173.178 -11.663)"/></g></svg>