<svg xmlns="http://www.w3.org/2000/svg" width="152.559" height="77.999" viewBox="0 0 152.559 77.999"><defs><style>.a,.b{fill:#3e3e3e;}.a{fill-rule:evenodd;}</style></defs><path class="a" d="M54.028,307.389l-7.583,17.431-7.607-17.431h-1.4L45.9,326.831h1.083l8.462-19.441Z" transform="translate(-37.442 -249.094)"/><path class="a" d="M55.442,315.857c-1.483,0-3.977-.363-3.977-2.8,0-2,2.116-2.717,3.928-2.717,1.045,0,2.888.189,3.518,1.446l.165.328,1.234-.549-.264-.383c-1.028-1.5-2.421-2.139-4.653-2.139-2.6,0-5.228,1.242-5.228,4.015,0,2.6,1.925,4.093,5.277,4.093,1.626,0,4.348.348,4.348,2.665,0,2.227-2.668,2.822-4.241,2.822a6.533,6.533,0,0,1-4.525-1.869l-.253-.235-.97.839.293.293a7.576,7.576,0,0,0,5.454,2.27c2.758,0,5.539-1.271,5.539-4.119C61.088,317.338,58.978,315.857,55.442,315.857Z" transform="translate(-13.924 -245.94)"/><rect class="b" width="1.298" height="2.407" transform="translate(58.882 58.295)"/><rect class="b" width="1.298" height="14.364" transform="translate(58.882 63.372)"/><path class="a" d="M74.581,307.208h-1.3v5.55H71.315v1.3h1.968V325.74a1.377,1.377,0,0,0,1.318,1.437l.4.017.012-1.306h-.389a.288.288,0,0,1-.046-.148V314.056H77.87v-1.3H74.581Z" transform="translate(27.011 -249.439)"/><path class="a" d="M57.7,307.208H56.4v5.55H54.43v1.3H56.4V325.74a1.377,1.377,0,0,0,1.318,1.437l.4.017.009-1.306h-.386a.273.273,0,0,1-.044-.148V314.056h3.286v-1.3H57.7Z" transform="translate(-5.118 -249.439)"/><path class="a" d="M90.69,322.641a3.366,3.366,0,0,1-3.507-3.269c0-2.2,2.54-2.978,4.714-2.978a12.4,12.4,0,0,1,4.189.7v2.441a1.657,1.657,0,0,1-.334.868c-1.06,1.655-3.39,2.241-5.062,2.241Zm6.749-.238a.582.582,0,0,1-.055-.2v-7.512c0-3.428-2.113-5.646-5.382-5.646a8.9,8.9,0,0,0-4.949,1.855l-.334.229.784,1.042.3-.215A7.685,7.685,0,0,1,92,310.345c2.444,0,4.084,1.748,4.084,4.348v1.013a14.1,14.1,0,0,0-4.189-.61c-2.993,0-6.015,1.321-6.015,4.276a4.641,4.641,0,0,0,4.807,4.566,7.849,7.849,0,0,0,5.4-1.971v.273a1.36,1.36,0,0,0,1.318,1.437l.4.017v-.929l.023-.363Z" transform="translate(54.731 -245.94)"/><path class="a" d="M72.879,322.349a6.006,6.006,0,1,1,6.006-6.006,6.012,6.012,0,0,1-6.006,6.006Zm0-13.257a7.25,7.25,0,1,0,7.248,7.251A7.26,7.26,0,0,0,72.879,309.092Z" transform="translate(16.196 -245.854)"/><path class="a" d="M50.992,310.337a5.975,5.975,0,0,1,5.977,5.419H45.018a5.972,5.972,0,0,1,5.974-5.419Zm7.243,5.419h-.017a7.249,7.249,0,1,0-1.2,4.618l.238-.357-1.106-.58-.194.284a6,6,0,0,1-10.923-2.665H58.244Z" transform="translate(-25.451 -245.854)"/><path class="a" d="M66.681,325.934a6.006,6.006,0,1,1,5.53-8.346v4.679a5.985,5.985,0,0,1-5.53,3.666Zm6.827-.194V307.208h-1.3v8.038a7.248,7.248,0,1,0,0,9.364v1.129a1.374,1.374,0,0,0,1.315,1.437l.4.017.012-1.306h-.389A.273.273,0,0,1,73.509,325.74Z" transform="translate(4.396 -249.439)"/><path class="a" d="M87.509,310.337a6.016,6.016,0,0,1,4.912,2.552l.168.238,1.213-.421-.282-.415a7.249,7.249,0,1,0-.247,8.447l.322-.424-1.231-.43-.171.212a6,6,0,1,1-4.685-9.759Z" transform="translate(44.034 -245.854)"/><path class="a" d="M81.4,310.337a5.975,5.975,0,0,1,5.977,5.419H75.423a5.975,5.975,0,0,1,5.977-5.419Zm7.243,5.419h-.02a7.249,7.249,0,1,0-1.2,4.618l.241-.354-1.106-.583-.194.284a6,6,0,0,1-10.926-2.665H88.649Z" transform="translate(32.41 -245.854)"/><path class="a" d="M80.706,336.187a23.206,23.206,0,1,1,23.2-23.208,23.233,23.233,0,0,1-23.2,23.208Zm0-48.88a25.674,25.674,0,1,0,25.672,25.672A25.7,25.7,0,0,0,80.706,287.307Z" transform="translate(-3.974 -287.307)"/><path class="a" d="M87.444,292.021,70.631,299.2l.958,2.4,16.831-7.2a.245.245,0,0,1,.131.07c.1.1.1.354-.026.656L78.2,321.345c-.052.134-.192.441-.345.444a.334.334,0,0,1-.163-.047h0L66.64,296.462a4.791,4.791,0,0,0-2.763-2.618,5.159,5.159,0,0,0-3.774.133,5.005,5.005,0,0,0,1.573,9.576l.8.07-.006-2.581-.647-.076a2.414,2.414,0,0,1-1.971-3.286,2.385,2.385,0,0,1,1.286-1.332,2.358,2.358,0,0,1,3.129,1.144l11.054,25.289a2.763,2.763,0,0,0,2.528,1.6v-.331l.044,0,.006.334a3,3,0,0,0,2.708-2.084l10.328-26.212a3.093,3.093,0,0,0-.589-3.469A2.867,2.867,0,0,0,87.444,292.021Z" transform="translate(-0.053 -278.671)"/></svg>