<svg xmlns="http://www.w3.org/2000/svg" width="136.523" height="86.094" viewBox="0 0 136.523 86.094"><defs><style>.a,.b,.c{fill:#3e3e3e;}.a{fill-rule:evenodd;}.b,.c{stroke:#000;stroke-miterlimit:22.926;}.b{stroke-width:0.567px;}.c{stroke-width:0.216px;}</style></defs><g transform="translate(-935.892 -3908.492)"><path class="a" d="M138.179,85.465c-.524-.86-1.518-1.044-2.788-1.771-1.48-.847-1.063-2.528-.152-3.651a6.715,6.715,0,0,1,5.692-2.1,3.427,3.427,0,0,1,3.02,1.847,3.74,3.74,0,0,1-.221,3.3,6.034,6.034,0,0,1-2.531,2.826,17.689,17.689,0,0,1-1.682.838C137.921,87.456,138.958,86.741,138.179,85.465Z" transform="translate(836.927 3848.705)"/><path class="b" d="M138.179,85.465c-.524-.86-1.518-1.044-2.788-1.771-1.48-.847-1.063-2.528-.152-3.651a6.715,6.715,0,0,1,5.692-2.1,3.427,3.427,0,0,1,3.02,1.847,3.74,3.74,0,0,1-.221,3.3,6.034,6.034,0,0,1-2.531,2.826,17.689,17.689,0,0,1-1.682.838C137.921,87.456,138.958,86.741,138.179,85.465Z" transform="translate(836.927 3848.705)"/><path class="a" d="M333.812,83.084a4.13,4.13,0,0,0,.232,1.224.712.712,0,0,0,.906.465,6.2,6.2,0,0,0,1.292-.805,37.6,37.6,0,0,0,3.256-2.652c.952-1.009,1.631-2.187.889-3.492-.768-1.353-2.755-1.658-4.918-1.416a7.139,7.139,0,0,0-3.663,1.562,2.291,2.291,0,0,0-.95,2.168C331.027,81.616,332.58,82.562,333.812,83.084Z" transform="translate(696.263 3849.847)"/><path class="b" d="M333.812,83.084a4.13,4.13,0,0,0,.232,1.224.712.712,0,0,0,.906.465,6.2,6.2,0,0,0,1.292-.805,37.6,37.6,0,0,0,3.256-2.652c.952-1.009,1.631-2.187.889-3.492-.768-1.353-2.755-1.658-4.918-1.416a7.139,7.139,0,0,0-3.663,1.562,2.291,2.291,0,0,0-.95,2.168C331.027,81.616,332.58,82.562,333.812,83.084Z" transform="translate(696.263 3849.847)"/><path class="a" d="M226.743,18.97c.005-.433.489-.954,1.2-1.713,1.531-1.645,4.624-3.019,6.755-1.615a2.574,2.574,0,0,1,1.071,3.333,8.478,8.478,0,0,1-1.713,3.361c-2,2.226-3.915,2.3-5.439,1.269a4.885,4.885,0,0,1-1.849-2.136c-.1-.3-.267-.715-.023-.9C227.625,19.88,226.727,20.226,226.743,18.97Z" transform="translate(770.9 3893.725)"/><path class="b" d="M226.743,18.97c.005-.433.489-.954,1.2-1.713,1.531-1.645,4.624-3.019,6.755-1.615a2.574,2.574,0,0,1,1.071,3.333,8.478,8.478,0,0,1-1.713,3.361c-2,2.226-3.915,2.3-5.439,1.269a4.885,4.885,0,0,1-1.849-2.136c-.1-.3-.267-.715-.023-.9C227.625,19.88,226.727,20.226,226.743,18.97Z" transform="translate(770.9 3893.725)"/><path class="a" d="M152.9,117.633l3.322,7.622,3.7,8.056c1.47,3.22,3.008,7.15,4.783,10.16,1.533,2.6,4.452,1.245,3.209-.961l-1.61-2.855-7.783-16.424-3.447-6.819C152.908,112.588,151.688,114.856,152.9,117.633Z" transform="translate(824.034 3822.595)"/><path class="b" d="M152.9,117.633l3.322,7.622,3.7,8.056c1.47,3.22,3.008,7.15,4.783,10.16,1.533,2.6,4.452,1.245,3.209-.961l-1.61-2.855-7.783-16.424-3.447-6.819C152.908,112.588,151.688,114.856,152.9,117.633Z" transform="translate(824.034 3822.595)"/><path class="a" d="M164.169,77.746c2.593,2.012,4.579,3.534,6.786,4.1,4.743,1.221,6.507-.8,9.444-3.776.286-.289.588-.564,1.006-.92-.21,3.749-.236,7.195-.095,10.625.112,2.731,1.216,15.427,2.636,17.057,2.041,2.342,4.2.668,4.042-1.514-.174-2.473-1.224-7.217-1.211-12.856.015-6.458-.224-14.012-.466-19.576-.2-4.481-.318-7.8-.3-8.541.049-1.876-2.591-2.047-3.7-.5a5.749,5.749,0,0,0-.753,3.085l-.7,4.437c-1.017,4.066-3.094,9.066-8.211,9.213-1.978.057-3.945-1.034-6.705-2.52-.9-.483-1.994-.685-2.413-.2C162.922,76.561,163.629,77.326,164.169,77.746Z" transform="translate(816.245 3860.97)"/><path class="b" d="M164.169,77.746c2.593,2.012,4.579,3.534,6.786,4.1,4.743,1.221,6.507-.8,9.444-3.776.286-.289.588-.564,1.006-.92-.21,3.749-.236,7.195-.095,10.625.112,2.731,1.216,15.427,2.636,17.057,2.041,2.342,4.2.668,4.042-1.514-.174-2.473-1.224-7.217-1.211-12.856.015-6.458-.224-14.012-.466-19.576-.2-4.481-.318-7.8-.3-8.541.049-1.876-2.591-2.047-3.7-.5a5.749,5.749,0,0,0-.753,3.085l-.7,4.437c-1.017,4.066-3.094,9.066-8.211,9.213-1.978.057-3.945-1.034-6.705-2.52-.9-.483-1.994-.685-2.413-.2C162.922,76.561,163.629,77.326,164.169,77.746Z" transform="translate(816.245 3860.97)"/><path class="a" d="M250.02,80.778c.7,5.421,1.578,8.778,4.458,10.945a11.692,11.692,0,0,0,8.045,2.226,64,64,0,0,0,7.1-1.04l-.311.856-8.64,13.544c-1.276,2.3-2.514,4.614-3.827,6.889-2.564,4.445.076,6.893,3.391,1.575l13.435-21.541a37.808,37.808,0,0,0,2.8-4c.8-1.357-.121-1.283-1.787-1.164-4.084.292-9.663,2.3-14.73,1.807-2.774-.268-4.27-1.325-4.958-4.164-.745-3.073-.54-5.531-1.437-7.255C252.251,76.94,249.563,77.238,250.02,80.778Z" transform="translate(754.177 3848.792)"/><path class="b" d="M250.02,80.778c.7,5.421,1.578,8.778,4.458,10.945a11.692,11.692,0,0,0,8.045,2.226,64,64,0,0,0,7.1-1.04l-.311.856-8.64,13.544c-1.276,2.3-2.514,4.614-3.827,6.889-2.564,4.445.076,6.893,3.391,1.575l13.435-21.541a37.808,37.808,0,0,0,2.8-4c.8-1.357-.121-1.283-1.787-1.164-4.084.292-9.663,2.3-14.73,1.807-2.774-.268-4.27-1.325-4.958-4.164-.745-3.073-.54-5.531-1.437-7.255C252.251,76.94,249.563,77.238,250.02,80.778Z" transform="translate(754.177 3848.792)"/><path class="a" d="M145.661,255.338h-2.629V239.244h2.629Zm.557-20.622c0,.674-.641,1.015-1.922,1.015-1.214,0-1.82-.341-1.82-1.015s.607-.987,1.82-.987C145.576,233.729,146.217,234.056,146.217,234.716Zm-9.246,15.59v-2.172a6.479,6.479,0,0,0-2.966-5.48q-3.325-2.389-9.363-2.39a20.036,20.036,0,0,0-8.25,1.525q-4.146,1.889-4.146,5.5,0,3.667,4.121,5.535a20.228,20.228,0,0,0,8.276,1.491,21.258,21.258,0,0,0,5.52-.681A15.769,15.769,0,0,0,136.972,250.307Zm2.629,5.031h-2.629v-3a17.149,17.149,0,0,1-6.792,2.737,27.186,27.186,0,0,1-5.52.545,24.8,24.8,0,0,1-9.927-1.811q-5.171-2.247-5.167-6.515,0-4.33,5.048-6.563a24.658,24.658,0,0,1,9.919-1.777q7.926,0,12.439,3.554v-3.268H139.6Zm-32.91-14.583h-.186c.2,0-.961-.081-3.5-.245A11.882,11.882,0,0,0,95.8,242.5a6.6,6.6,0,0,0-2.865,5.637v7.2H90.41V239.244h2.528V242.4q3.627-3.237,10.441-3.234.531.041,3.312.286ZM86.98,255.338H84.35V239.244H86.98Zm.556-20.622c0,.674-.641,1.015-1.921,1.015-1.214,0-1.82-.341-1.82-1.015s.606-.987,1.82-.987C86.9,233.729,87.536,234.056,87.536,234.716Zm-9.3,12.574q0-3.584-4.13-5.487a19.878,19.878,0,0,0-8.225-1.539,19.869,19.869,0,0,0-8.251,1.539q-4.171,1.889-4.172,5.487t4.172,5.487a19.869,19.869,0,0,0,8.251,1.539,19.519,19.519,0,0,0,8.183-1.573Q78.232,250.834,78.232,247.29Zm2.68.007q0,4.228-5.166,6.495a24.526,24.526,0,0,1-9.868,1.831,24.529,24.529,0,0,1-9.894-1.845q-5.208-2.277-5.208-6.481c0-2.8,1.736-4.97,5.208-6.5a24.533,24.533,0,0,1,9.894-1.845,24.321,24.321,0,0,1,9.886,1.845Q80.908,243.08,80.912,247.3Zm-33.028,8.04H45.1V233.157q0-.531-.682-.531a.946.946,0,0,0-.835.531L32.5,253.227a3.842,3.842,0,0,1-3.607,2.151,3.844,3.844,0,0,1-3.6-2.145L14.216,233.157a.945.945,0,0,0-.834-.531c-.463,0-.691.177-.691.531v22.222H9.91V233.2q0-1.879,3.422-1.879,2.68,0,3.565,1.586l11.226,20.417a.919.919,0,0,0,.792.545.856.856,0,0,0,.75-.518l11.284-20.43q.872-1.6,3.6-1.6,3.337,0,3.337,1.866Z" transform="translate(926.09 3738.855)"/><path class="c" d="M145.661,255.338h-2.629V239.244h2.629Zm.557-20.622c0,.674-.641,1.015-1.922,1.015-1.214,0-1.82-.341-1.82-1.015s.607-.987,1.82-.987C145.576,233.729,146.217,234.056,146.217,234.716Zm-9.246,15.59v-2.172a6.479,6.479,0,0,0-2.966-5.48q-3.325-2.389-9.363-2.39a20.036,20.036,0,0,0-8.25,1.525q-4.146,1.889-4.146,5.5,0,3.667,4.121,5.535a20.228,20.228,0,0,0,8.276,1.491,21.258,21.258,0,0,0,5.52-.681A15.769,15.769,0,0,0,136.972,250.307Zm2.629,5.031h-2.629v-3a17.149,17.149,0,0,1-6.792,2.737,27.186,27.186,0,0,1-5.52.545,24.8,24.8,0,0,1-9.927-1.811q-5.171-2.247-5.167-6.515,0-4.33,5.048-6.563a24.658,24.658,0,0,1,9.919-1.777q7.926,0,12.439,3.554v-3.268H139.6Zm-32.91-14.583h-.186c.2,0-.961-.081-3.5-.245A11.882,11.882,0,0,0,95.8,242.5a6.6,6.6,0,0,0-2.865,5.637v7.2H90.41V239.244h2.528V242.4q3.627-3.237,10.441-3.234.531.041,3.312.286ZM86.98,255.338H84.35V239.244H86.98Zm.556-20.622c0,.674-.641,1.015-1.921,1.015-1.214,0-1.82-.341-1.82-1.015s.606-.987,1.82-.987C86.9,233.729,87.536,234.056,87.536,234.716Zm-9.3,12.574q0-3.584-4.13-5.487a19.878,19.878,0,0,0-8.225-1.539,19.869,19.869,0,0,0-8.251,1.539q-4.171,1.889-4.172,5.487t4.172,5.487a19.869,19.869,0,0,0,8.251,1.539,19.519,19.519,0,0,0,8.183-1.573Q78.232,250.834,78.232,247.29Zm2.68.007q0,4.228-5.166,6.495a24.526,24.526,0,0,1-9.868,1.831,24.529,24.529,0,0,1-9.894-1.845q-5.208-2.277-5.208-6.481c0-2.8,1.736-4.97,5.208-6.5a24.533,24.533,0,0,1,9.894-1.845,24.321,24.321,0,0,1,9.886,1.845Q80.908,243.08,80.912,247.3Zm-33.028,8.04H45.1V233.157q0-.531-.682-.531a.946.946,0,0,0-.835.531L32.5,253.227a3.842,3.842,0,0,1-3.607,2.151,3.844,3.844,0,0,1-3.6-2.145L14.216,233.157a.945.945,0,0,0-.834-.531c-.463,0-.691.177-.691.531v22.222H9.91V233.2q0-1.879,3.422-1.879,2.68,0,3.565,1.586l11.226,20.417a.919.919,0,0,0,.792.545.856.856,0,0,0,.75-.518l11.284-20.43q.872-1.6,3.6-1.6,3.337,0,3.337,1.866Z" transform="translate(926.09 3738.855)"/></g></svg>