<svg xmlns="http://www.w3.org/2000/svg" width="140.819" height="60.868" viewBox="0 0 140.819 60.868"><defs><style>.a{fill:#3e3e3e;}</style></defs><path class="a" d="M368.266,190.742c.968-.073,1.737-.15,2.509-.184a11.106,11.106,0,0,1,1.277.107c-1.179,5.036-2.355,9.958-3.48,14.892-1.094,4.791-.778,5.2,3.933,5.526-2.974,3.4-7.131,2.867-8.971-1.345a23.4,23.4,0,0,1-2.974,1.951A15.557,15.557,0,0,1,356,213.344c-3.464.41-5.51-1.633-5.048-5.112.383-2.895,1.244-5.728,1.893-8.589.132-.588.251-1.182.386-1.77,1.014-4.447.659-4.987-4.071-5.483,2.27-1.6,4.389-2.254,6.73-1.718,1.85.426,2.034,2.071,1.758,3.55-.662,3.565-1.489,7.1-2.294,10.638-.469,2.058-1.231,4.466.855,5.722,2.184,1.314,4.594.273,6.441-1.332a6.218,6.218,0,0,0,1.856-2.922C365.837,201.227,366.995,196.084,368.266,190.742Z" transform="translate(-312.25 -155.533)"/><path class="a" d="M380.616,212.015c-1.874.505-3.685,1.329-5.526,1.4-2.386.092-3.605-2-2.974-4.64.809-3.357,1.731-6.69,2.558-10.044.481-1.948,1.1-4.157-.864-5.492-1.923-1.311-4.163-.619-5.752.809a10.677,10.677,0,0,0-3.091,4.438,97.724,97.724,0,0,0-2.8,11.836c-.463,2.607-1.639,3.375-4.368,2.478l2.8-12.47c.15-.677.291-1.351.435-2.028,1.051-4.931,1.048-4.935-3.6-5.786,3.706-2.983,6.981-2.432,8.73,1.648a29.972,29.972,0,0,1,3.875-2.441,13.578,13.578,0,0,1,4.647-1.329,3.861,3.861,0,0,1,4.352,4.552,79.105,79.105,0,0,1-1.746,8.35c-.3,1.348-.692,2.677-.974,4.028-.634,3.029-.1,3.7,2.971,3.847a9.655,9.655,0,0,1,1.026.123C380.356,211.3,380.377,211.439,380.616,212.015Z" transform="translate(-295.188 -155.738)"/><path class="a" d="M381.016,203.882c-.04,4.977,1.669,7.474,5.036,7.74,3.575.285,5.927-2.006,8.285-4.316-1.335,4.362-6.99,7.207-11.5,6.267-4.04-.845-6.193-4.052-6.043-9.008.242-8.04,6.38-14.476,13.566-14.188,2.374.095,4.521.75,5.425,3.228a5.281,5.281,0,0,1-2.674,6.429,60.956,60.956,0,0,1-8.7,3.146A28.9,28.9,0,0,1,381.016,203.882Zm.2-1.237c2.162-.469,3.856-.735,5.489-1.213,2.515-.735,4.735-2.061,5.164-4.852.224-1.458.119-3.921-.686-4.359a5.547,5.547,0,0,0-4.766.285C383.043,194.653,381.552,198.093,381.212,202.645Z" transform="translate(-255.257 -155.78)"/><path class="a" d="M370.163,192.839c4.628-3.25,7.783-2.607,9.125,1.786,1.562-1.161,3-2.371,4.576-3.354,1.636-1.02,3.725-1.55,4.928.184a5.994,5.994,0,0,1,.358,4.515c-.211.757-2.049,1.62-3,1.47-1.584-.248-1.7-1.669-1.026-3.081a10.073,10.073,0,0,0,.475-1.7,8.114,8.114,0,0,0-7.48,5.8c-.98,4.025-2.065,8.04-2.726,12.123-.426,2.631-1.645,3.13-4.288,2.38.76-3.544,1.522-7.115,2.291-10.687.309-1.433.652-2.861.937-4.3C375.26,193.252,375.122,193.074,370.163,192.839Z" transform="translate(-268.924 -155.868)"/><path class="a" d="M375.889,212.22a31.1,31.1,0,0,1-5.783,1.286c-2.352.086-3.47-1.927-2.836-4.723.836-3.7,1.813-7.37,2.711-11.057a11.262,11.262,0,0,0,.334-2.037c.15-2.72-.343-3.186-3.057-3.023a2.042,2.042,0,0,1-1.225-.248c1.878-1.458,3.942-2.408,6.328-1.914,1.884.392,2.4,1.948,2.068,3.63-.717,3.544-1.593,7.054-2.4,10.577-.1.42-.233.833-.325,1.253-1.072,4.772-.649,5.357,3.964,5.477Z" transform="translate(-277.446 -155.772)"/><circle class="a" cx="3.473" cy="3.473" r="3.473" transform="translate(90.82 23.487)"/><path class="a" d="M337.111,179.076s22.663,5.731,26.137,15.628,1.152,12.745,1.152,12.745l3.075-8.221S371.062,181.5,337.111,179.076Z" transform="translate(-337.111 -179.076)"/><path class="a" d="M368.3,185.2s-14.154,7.033-19.625,31.607c0,0-2.778,13.634,2.257,22.143,0,0-11.079-7.382-3.02-31.693s15.784-27.7,15.784-27.7A6.233,6.233,0,0,1,368.3,185.2Z" transform="translate(-320.889 -178.082)"/></svg>