<svg xmlns="http://www.w3.org/2000/svg" width="154.025" height="44.292" viewBox="0 0 154.025 44.292"><defs><style>.a{fill:#3e3e3e;}</style></defs><path class="a" d="M73.466,56.283l-.147,25.4-.365.062a2.91,2.91,0,0,0-1.756,1l8.372.139a5.115,5.115,0,0,0-2.244-1.153l-.352-.079.414-25.135.095-.119a19.369,19.369,0,0,0,2.035-2.055h-8.7a23.571,23.571,0,0,0,2.5,1.8Z" transform="translate(21.195 -53.438)"/><g transform="translate(103.87 0.273)"><path class="a" d="M117.243,83.053h9.118a6.49,6.49,0,0,0-1.879-1.615l-.117-.07-12.423-27.3a8.5,8.5,0,0,0-.929.015c-.048.242-.088,1.254-.106,1.432l-.007.073-11.455,26-1.329-.02.345-25.584.141-.13c.521-.477,1.626-.6,1.978-1.2H93.9c.341.592,1.446.772,2.038,1.254l.158.13.295,20.1L81.557,54.915H76.4c.385.579,1.195.836,1.773,1.221l.2.132L78.1,81.506l-.022.064c-.273.821-1.56.625-1.872,1.754H82.4c-.332-.911-1.809-.7-2.174-1.747l-.024-.07V61.01l16.637,21.9,6.982-.059c-.334-.891-1.965-.576-2.291-1.6l-.055-.172,4-7.853,10.63.356,3.675,7.758-.466.161A3.186,3.186,0,0,0,117.243,83.053ZM105.871,71.816l4.7-10.568,5.2,10.727Z" transform="translate(-76.206 -54.059)"/></g><g transform="translate(0 0.54)"><path class="a" d="M38.215,72.849c8.113.444,13.638-2.126,13.336-10.9a7.13,7.13,0,0,0-1.873-4.526c-3.809-3.945-14.2-3.195-19.315-3.175-.455,0-.909,0-1.364,0,.018,2.55,3.666,1.853,3.679,4.154l.139,22.923-.464-.022A1.519,1.519,0,0,0,30.69,82.59h9.186a1.423,1.423,0,0,0-1.659-1.283l-.466.026V72.825Zm-.524-1.217.288-15.222h.431c5.059,0,9.413,1.118,9.371,7.074-.042,5.917-4.2,8.163-9.642,8.15Z" transform="translate(-29 -54.18)"/></g><g transform="translate(14.536 0)"><path class="a" d="M87.222,60.048a10.045,10.045,0,0,0-2.442-2.372c-2.772-1.9-6.473-2.385-9.75-2.6-4.4-.295-8.839-.209-13.255-.429.471,1.347,1.476,1.208,2.508,2.262l.128.13V82.278l-.365.064c-1.382.24-3.191-4.443-3.587-5.373C58.831,73.146,57.4,69.194,55.948,65.3c-1.408-3.791-2.8-7.637-4.381-11.363h-.618A167.711,167.711,0,0,1,38.508,81.316l-.07.121-.125.057c-.935.431-2.183.849-2.706,1.785a40.711,40.711,0,0,1,8.773-.145c-.766-1.245-1.747-.805-2.7-1.721L41.45,81.2l3.771-8.124,9.019.216,3.648,7.736-.279.216a18.081,18.081,0,0,0-2.346,1.705c3.087-.55,6.632-.092,9.763-.262h.033l.031,0c4.055.363,14.954,1.23,18.344-1.518C89.3,76.06,92.142,66.741,87.222,60.048ZM45.835,71.432,50,62.824l3.958,8.731Zm35.648,6.423c-3.444,3.21-8.1,3.928-12.606,3.085l-.367-.068L69,56.679l.411-.02c4.062-.2,8.392.491,11.666,3.069a11.3,11.3,0,0,1,4.3,7.978A12.474,12.474,0,0,1,81.483,77.855Z" transform="translate(-35.606 -53.935)"/></g><g transform="translate(68.314 1.063)"><path class="a" d="M131.385,83.577c-9.426,13.9-22.323,15.345-36.759,7.637a39,39,0,0,1-10.942-7.8l-.057-.059,0,0-.145-.152-.557-.563.02,0A48.164,48.164,0,0,1,75.282,71.6l-.194-.383.374-.207c2.858-1.567,5.061-3.884,5.457-7.239.517-4.363-3.875-8.938-8.163-9.046l-12.351-.312c.2,1.285,1.718.948,2.379,1.714l.108.125L62.6,81.782l-.447-.009a2.99,2.99,0,0,0-2.106,1.294c2.953-.04,5.855-.334,8.808-.088a2.546,2.546,0,0,0-2.26-1.107l-.427-.031.427-9.932h4.167l.112.273a36.571,36.571,0,0,0,8.487,13.039A46,46,0,0,0,99.2,96.278c13.779,3.818,24.206-.394,32.193-12l.026-.04.037-.035A.358.358,0,0,0,131.385,83.577ZM66.9,70.465l-.4-.04V56.658l.411-.026c5.017-.334,9.913.5,9.906,6.6C76.812,69.812,72.635,71.006,66.9,70.465Z" transform="translate(-60.047 -54.418)"/></g></svg>