<svg xmlns="http://www.w3.org/2000/svg" width="139" height="33.115" viewBox="0 0 139 33.115"><defs><style>.a{fill:#3e3e3e;}</style></defs><g transform="translate(-299 -4044)"><path class="a" d="M34.361,77.107l-2.393,1.487a10.02,10.02,0,0,0-8.458-4.115A9.785,9.785,0,0,0,16.4,77.234a8.987,8.987,0,0,0-2.83,6.691,9.5,9.5,0,0,0,1.3,4.819,9.126,9.126,0,0,0,3.572,3.508,10.8,10.8,0,0,0,13.524-2.867l2.394,1.572a11.285,11.285,0,0,1-4.521,3.925,14.422,14.422,0,0,1-6.452,1.4,12.748,12.748,0,0,1-9.221-3.532,11.5,11.5,0,0,1-3.663-8.6,12.284,12.284,0,0,1,1.713-6.325,12.071,12.071,0,0,1,4.708-4.556,13.733,13.733,0,0,1,6.7-1.638,14.307,14.307,0,0,1,4.492.71A12.5,12.5,0,0,1,31.787,74.2,10.108,10.108,0,0,1,34.361,77.107Z" transform="translate(288.5 3980.811)"/><path class="a" d="M59.359,57.722h3.014V70.973A12.813,12.813,0,0,1,66.4,67.363a9.81,9.81,0,0,1,4.761-1.195,8.319,8.319,0,0,1,4.665,1.33,7.977,7.977,0,0,1,3.005,3.588,19.022,19.022,0,0,1,.971,7.056V90.207H76.788V79.036a28.563,28.563,0,0,0-.319-5.415,6.116,6.116,0,0,0-2.035-3.5,6.025,6.025,0,0,0-3.867-1.173,7.451,7.451,0,0,0-4.9,1.809,8.479,8.479,0,0,0-2.853,4.481,30.975,30.975,0,0,0-.431,6.383v8.6H59.364Z" transform="translate(269.298 3986.278)"/><path class="a" d="M122.687,87.9l2.543,1.33a13.857,13.857,0,0,1-2.888,3.965,11.469,11.469,0,0,1-3.687,2.3,12.86,12.86,0,0,1-4.636.8,11.2,11.2,0,0,1-8.971-3.758,12.684,12.684,0,0,1-3.234-8.511,12.53,12.53,0,0,1,2.739-7.95,11.2,11.2,0,0,1,9.293-4.439,11.563,11.563,0,0,1,9.575,4.545,12.7,12.7,0,0,1,2.588,8.013H104.915a9.549,9.549,0,0,0,2.609,6.7,8.324,8.324,0,0,0,6.234,2.611,10.01,10.01,0,0,0,3.484-.622,9.152,9.152,0,0,0,2.88-1.652A14.029,14.029,0,0,0,122.687,87.9Zm0-6.311a10,10,0,0,0-1.758-3.857,8.332,8.332,0,0,0-3.053-2.327,9.362,9.362,0,0,0-3.99-.883,8.6,8.6,0,0,0-5.934,2.219,10.027,10.027,0,0,0-2.739,4.849Z" transform="translate(252.613 3980.816)"/><path class="a" d="M169.931,87.9l2.543,1.33a13.865,13.865,0,0,1-2.888,3.965,11.466,11.466,0,0,1-3.686,2.3,12.865,12.865,0,0,1-4.636.8,11.2,11.2,0,0,1-8.971-3.758,12.684,12.684,0,0,1-3.234-8.511,12.53,12.53,0,0,1,2.739-7.95,11.2,11.2,0,0,1,9.293-4.439,11.563,11.563,0,0,1,9.575,4.545,12.692,12.692,0,0,1,2.588,8.013H152.162a9.543,9.543,0,0,0,2.609,6.7A8.325,8.325,0,0,0,161,93.493a10.007,10.007,0,0,0,3.484-.622,9.148,9.148,0,0,0,2.881-1.652A14.045,14.045,0,0,0,169.931,87.9Zm0-6.311a10,10,0,0,0-1.758-3.857A8.332,8.332,0,0,0,165.12,75.4a9.362,9.362,0,0,0-3.99-.883,8.592,8.592,0,0,0-5.931,2.219,10.018,10.018,0,0,0-2.739,4.849Z" transform="translate(234.045 3980.816)"/><path class="a" d="M196.293,72.22h3.077v3.426a10.813,10.813,0,0,1,2.909-3.027,5.738,5.738,0,0,1,3.192-1,5.509,5.509,0,0,1,2.659.8l-1.571,2.543a4.191,4.191,0,0,0-1.6-.41,4.363,4.363,0,0,0-2.91,1.239,7.834,7.834,0,0,0-2.127,3.846,36.864,36.864,0,0,0-.561,8.1v7.928h-3.08Z" transform="translate(215.484 3980.818)"/><path class="a" d="M230.394,74.8l-1.939,2a6.968,6.968,0,0,0-4.731-2.348,3.573,3.573,0,0,0-2.516.971,2.994,2.994,0,0,0-1.048,2.263,3.347,3.347,0,0,0,.865,2.175,12.126,12.126,0,0,0,3.627,2.479,13.523,13.523,0,0,1,4.577,3.362,6.116,6.116,0,0,1,1.189,3.684,6.612,6.612,0,0,1-2.029,4.891,6.915,6.915,0,0,1-5.07,2,8.858,8.858,0,0,1-3.873-.883,8.4,8.4,0,0,1-3.053-2.433l1.9-2.154a6.594,6.594,0,0,0,4.9,2.606,4.415,4.415,0,0,0,3.088-1.162,3.6,3.6,0,0,0,1.274-2.737,3.513,3.513,0,0,0-.843-2.306,13.568,13.568,0,0,0-3.8-2.5,12.154,12.154,0,0,1-4.319-3.231,6.088,6.088,0,0,1-1.144-3.641,5.922,5.922,0,0,1,1.825-4.439,6.354,6.354,0,0,1,4.607-1.766A9.55,9.55,0,0,1,230.394,74.8Z" transform="translate(207.581 3980.811)"/></g></svg>