<svg xmlns="http://www.w3.org/2000/svg" width="144.338" height="31.693" viewBox="0 0 144.338 31.693"><defs><style>.a{fill:#3e3e3e;}</style></defs><g transform="translate(-474.999 -4044)"><path class="a" d="M184.572,326.447V310.356l-9.473,14.13-9.518-14.13v16.091h-4.737V294.754L175.1,315.992l14.252-21.238v31.693Z" transform="translate(314.155 3749.246)"/><path class="a" d="M174.01,325.583v-30.3h4.737v30.3Z" transform="translate(335.829 3750.11)"/><path class="a" d="M199.375,325.583h-5.351l-7.637-10.251h-3.474v10.251h-4.737v-30.3h8.986a9.632,9.632,0,0,1,7.555,3.022,11.232,11.232,0,0,1,0,14.006,8.477,8.477,0,0,1-3.511,2.329Zm-12.212-14.5a5.567,5.567,0,0,0,4.369-1.635,7.041,7.041,0,0,0,0-8.29,5.559,5.559,0,0,0-4.369-1.593h-4.25v11.519Z" transform="translate(342.688 3750.11)"/><path class="a" d="M205.6,319.953H194.82l-2.572,6.494h-5.226l13.191-31.693,13.149,31.693h-5.186Zm-1.717-4.247-3.673-9.23-3.676,9.23Z" transform="translate(357.249 3749.246)"/><path class="a" d="M221.935,314.146v8.208l-1.064.736c-.04,0-.04,0-.079.042a.324.324,0,0,1-.164.079c-.042.042-.082.085-.124.085a.208.208,0,0,1-.161.079.538.538,0,0,1-.164.122c-.042.042-.082.042-.122.085s-.082.04-.124.079c-.079.042-.122.042-.2.082-.04.042-.079.042-.122.082a.306.306,0,0,1-.2.082c-.042.04-.042.04-.082.082h-.082a.853.853,0,0,1-.2.122c-.082.042-.2.082-.286.122l-.042.042a15.348,15.348,0,0,1-5.43,1.307H212.5a14.427,14.427,0,0,1-4.776-.778h-.042c-.164-.04-.286-.122-.45-.161l-.611-.246a8.213,8.213,0,0,1-1.471-.736,13.3,13.3,0,0,1-3.347-2.53,15.011,15.011,0,0,1-3.268-4.821,14.691,14.691,0,0,1-1.1-4.369c-.04-.492-.082-1.021-.082-1.511v-.775a16.077,16.077,0,0,1,1.185-5.147,15.485,15.485,0,0,1,3.268-4.821,15.167,15.167,0,0,1,10.7-4.409h.778a1.148,1.148,0,0,1,.365.04,14.941,14.941,0,0,1,5.107,1.268.039.039,0,0,0,.04.04l.246.122h.04v5.6a9.643,9.643,0,0,0-2.04-1.307,11.513,11.513,0,0,0-1.881-.693.148.148,0,0,1-.122-.042h-.122c-.04-.042-.082-.042-.161-.042a.13.13,0,0,1-.085-.04c-.161-.04-.365-.04-.532-.082h-.079c-.042,0-.122-.04-.164-.04h-.082a.256.256,0,0,1-.164-.04h-.365c-.042,0-.082-.042-.122-.042H212.5a10.122,10.122,0,0,0-5.348,1.471,1.056,1.056,0,0,1-.206.122,8.85,8.85,0,0,0-1.8,1.471,6.672,6.672,0,0,0-.532.529s0,.042-.04.042a8.5,8.5,0,0,0-.532.733l-.079.082-.246.368a.31.31,0,0,0-.082.164,9.736,9.736,0,0,0-1.265,3.1c-.042.04-.042.04-.042.082-.079.407-.164.815-.2,1.225v.45a2.6,2.6,0,0,0-.042.572,2.451,2.451,0,0,0,.042.532,10.684,10.684,0,0,0,.368,2.286,10.432,10.432,0,0,0,10.005,7.6h.286a.15.15,0,0,0,.124-.042h.611c0-.042.04-.042.082-.042h.246c.283-.04.611-.122.9-.161.04,0,.04,0,.079-.04a.24.24,0,0,0,.164-.042h.122a.145.145,0,0,1,.122-.042.253.253,0,0,1,.164-.04.14.14,0,0,0,.082-.04,8.453,8.453,0,0,0,1.675-.654h.04v-5.6H211.48v-4.287h10.455Z" transform="translate(374.245 3750.11)"/><path class="a" d="M213.261,307.613h11.066V311.9H213.261v9.394H226.7v4.289H208.522v-30.3H226.7v4.247H213.261Z" transform="translate(392.641 3750.11)"/></g></svg>