<svg xmlns="http://www.w3.org/2000/svg" width="169.317" height="33.984" viewBox="0 0 169.317 33.984"><defs><style>.a{fill:#3e3e3e;}</style></defs><g transform="translate(-656 -4043)"><path class="a" d="M248.754,300.637v-2.044h-5.193v23.67h6.045V305.491s5.234-2.81,5.746-4.468-1.725-3.381-2.556-3.227C251.564,298.026,248.754,300.637,248.754,300.637Z" transform="translate(441.301 3753.942)"/><path class="a" d="M250.95,308.67v17.888h6.555V308.166h2.726v-4.342H257V295.4h-5.619v8.516h-3.066v4.254h2.639Z" transform="translate(449.833 3749.648)"/><g transform="translate(712.298 4052.434)"><path class="a" d="M264.164,298.14c-14.048,1.448-15.111,23.888,1.149,23.966,0,0,8.215-.33,11.112-5.014l-3.747-3.669s-9.082,9.166-13.623-2.17h17.538S278.212,296.694,264.164,298.14Zm-5.109,8.688A7.16,7.16,0,0,1,265.7,302.4c4.343-.028,5.788,4.429,5.788,4.429Z" transform="translate(-253.373 -298.039)"/></g><rect class="a" width="5.618" height="23.243" transform="translate(780.646 4052.962)"/><path class="a" d="M278.821,294.665" transform="translate(504.635 3748.335)"/><path class="a" d="M284.817,298.519a3.671,3.671,0,1,1-3.674-3.672A3.673,3.673,0,0,1,284.817,298.519Z" transform="translate(502.215 3748.664)"/><g transform="translate(656 4052.786)"><path class="a" d="M251.971,298.342v2.81c-1.619-1.96-5.481-3.081-7.494-2.981-4.026.2-11.241,3.148-11.238,11.562,0,9.007,5.7,12.191,11.151,12.362a10.315,10.315,0,0,0,8.176-3.238v2.385h4.767v-22.9Zm-6.3,18.855c-3.526,0-6.387-3.213-6.387-7.172s2.861-7.169,6.387-7.169,6.387,3.207,6.387,7.169S249.194,317.2,245.668,317.2Z" transform="translate(-233.239 -298.165)"/></g><path class="a" d="M303.718,302.088s-2.178-3.943-8.344-4.119c-6.384-.182-11.579,9.23,1.194,15.782,0,0,4.449,2.645.249,3.417-3.4.621-5.785-2.651-5.785-2.651l-2.894,4.426s1.023,3.238,7.664,3.753c6.462.5,11.917-7.838,4.768-13.114-1.706-1.258-6.473-2.911-6.045-5.288s6.3,1.286,6.3,1.286Z" transform="translate(521.369 3754.266)"/><path class="a" d="M269.234,306.873v14.982h-5.886V298.613H268.6V301a9.8,9.8,0,0,1,7.79-2.81,8.193,8.193,0,0,1,6.77,4.259s3.576-5.1,9.2-4.356,6.126,5.039,6.126,5.039v18.729h-5.36V306.873s-.766-3.747-3.959-3.747c-3.017,0-4.471,3.148-4.471,3.148v15.58h-6.512V306.873s0-3.534-4.214-3.747A4.365,4.365,0,0,0,269.234,306.873Z" transform="translate(476.842 3754.35)"/><path class="a" d="M296.961,302.088s-2.178-3.943-8.344-4.119c-6.386-.182-11.579,9.23,1.191,15.782,0,0,4.449,2.645.252,3.417-3.4.621-5.785-2.651-5.785-2.651l-2.9,4.426s1.023,3.238,7.664,3.753c6.465.5,11.917-7.838,4.768-13.114-1.7-1.258-6.47-2.911-6.045-5.288s6.3,1.286,6.3,1.286Z" transform="translate(509.227 3754.266)"/></g></svg>