<svg xmlns="http://www.w3.org/2000/svg" width="189.254" height="22.771" viewBox="0 0 189.254 22.771"><defs><style>.a{fill:#3e3e3e;}</style></defs><path class="a" d="M479.44,319.3V300.626h20.037v3.312H484.03V308h9v3.223h-9v4.588H499.7V319.3ZM467.224,304.07h-14.21v11.649h14.21v-3.97H459.81v-3.312h11.87v6.445c0,1.706-.329,2.869-1,3.484s-1.951.928-3.849.928H453.314c-1.9,0-3.177-.31-3.846-.928s-1-1.779-1-3.484v-9.848q0-2.551,1-3.479c.669-.618,1.949-.928,3.846-.928h13.519q2.826,0,3.833.9a4.3,4.3,0,0,1,1.015,3.29v.486l-4.456.748Zm-40.816,7.722h8.556l-4.348-7.781Zm-8.834,7.5,11.079-18.669h4.375L444.275,319.3h-5.1l-2.354-4.105H424.475l-2.353,4.105Zm-28.59,0V300.626h3.128l15.851,12.394V300.626h4.1V319.3h-3.139L393.132,306.7V319.3Zm-12.842,0V300.626h4.545V319.3Zm-31.988-14.256c0-1.706.332-2.861.993-3.484s1.941-.928,3.854-.928h14.445q2.891,0,3.87.928c.653.623.977,1.779.977,3.484v9.843c0,1.706-.329,2.869-1,3.484s-1.949.928-3.849.928H349c-1.914,0-3.193-.31-3.854-.928s-.993-1.779-.993-3.484Zm4.545,10.68h15.049V304.07H348.7Zm-18.661-15.136h-14.3v14.431h14.3v-4.9l5.3,1.1v2.691q0,3.121-1.177,4.251t-4.467,1.134H316.088q-3.324,0-4.48-1.134c-.772-.75-1.163-2.17-1.163-4.251V301.9c0-2.059.391-3.479,1.163-4.237s2.264-1.139,4.48-1.139h13.605q3.3,0,4.467,1.139c.785.758,1.177,2.178,1.177,4.237v2.162l-5.3.845Z" transform="translate(-310.444 -296.524)"/></svg>