<svg xmlns="http://www.w3.org/2000/svg" width="169.894" height="26.362" viewBox="0 0 169.894 26.362"><defs><style>.a,.b{fill:#3e3e3e;}.b{fill-rule:evenodd;}</style></defs><g transform="translate(-1088 -4047)"><path class="a" d="M210.82,360.715a15.379,15.379,0,0,0,.53-3.417,8.04,8.04,0,0,1-7.029,4.073c-6.581,0-9.793-6.333-9.793-12.816s3.212-12.816,9.793-12.816a8.445,8.445,0,0,1,7.029,3.982s-.179-2.767-.267-3.66c-.352-.49-1.791-.688-6.762-.688-7.77,0-12.885,5.784-12.885,13.181s5.115,13.181,12.885,13.181C208.224,361.736,210.117,361.285,210.82,360.715Z" transform="translate(896.563 3711.626)"/><path class="a" d="M222.033,358.891c-2.423-6.165-9.2-23.448-9.2-23.448h-1.783s-6.858,19.381-8.506,23.973a19.1,19.1,0,0,1-1.658,1.916h4.758s-2.865-.968-2.578-1.919c.73-2.079,2.156-6.4,2.156-6.4h11.259s1.415,3.817,2.271,6.12c.472,1.519-2.01,2.2-2.01,2.2h7.4A6.884,6.884,0,0,1,222.033,358.891Zm-16.688-6.24L210.58,337.9h.077l5.67,14.756Z" transform="translate(912.308 3711.741)"/><path class="a" d="M213.078,361.2c2.244,0,3.63.533,7.823.533,5.907,0,9-2.855,9-7.138,0-8.6-15.262-6.629-15.262-14.207,0-2.6,1.583-4.651,5.549-4.651,3.924,0,6.368,2.031,7.954,6.424a30.89,30.89,0,0,0-.794-5.859,20.512,20.512,0,0,0-7.159-.93c-5.472,0-8.287,2.674-8.287,6.48,0,8.57,15.342,6.445,15.342,14.1,0,3.588-2.5,5.419-6.541,5.419-4.638,0-7.533-2.343-9.039-6.48A37.825,37.825,0,0,0,213.078,361.2Z" transform="translate(930.252 3711.626)"/><path class="a" d="M243.618,335.54h-6.344s1.85,1.026,1.85,2.442v10.251H225.117V337.982a2.465,2.465,0,0,1,1.85-2.442h-6.344a2.465,2.465,0,0,1,1.85,2.442v20.993c0,1.525-1.85,2.2-1.85,2.2h6.344s-1.85-.672-1.85-2.2V348.721h14.007V358.73c0,1.525-1.85,2.442-1.85,2.442h6.344s-1.853-.794-1.853-2.442V337.982C241.765,336.614,243.618,335.54,243.618,335.54Z" transform="translate(945.171 3711.903)"/><path class="a" d="M254.295,358.242a2.933,2.933,0,0,1-1.85,2.442H240.552V348.966h6.589c.5,0,1.338.975,1.338.975V347.5s-.832.978-1.322.978h-6.605V335.785h11.318a4.241,4.241,0,0,1,1.9,2.439V335.54H235.794s1.85.57,1.85,1.954V358.73c0,1.629-1.85,2.442-1.85,2.442h18.5Z" transform="translate(970.438 3711.903)"/><path class="a" d="M266.29,359.71c.528.634-4.694-6.525-5.7-8.138s-1.706-2.49-4-2.892c4.875-.474,7.159-3.217,7.159-6.549,0-4.028-2.775-6.592-8.721-6.592H244.718s1.85.626,1.85,1.954v21.481c0,1.341-1.85,2.2-1.85,2.2h6.608s-1.85-.856-1.85-2.2V348.966h3.7c2.538,0,3.438.96,4.441,2.719s5.867,9.486,5.867,9.486h4.23S265.762,359.076,266.29,359.71Zm-16.814-11.232V335.785H254.5c4.638,0,6.077,2.538,6.077,6.347,0,3.4-1.439,6.346-6.077,6.346Z" transform="translate(985.3 3711.903)"/><path class="a" d="M235.826,337.982a2.465,2.465,0,0,1,1.85-2.442h-6.344a2.465,2.465,0,0,1,1.85,2.442v20.993c0,1.525-1.85,2.2-1.85,2.2h6.344s-1.85-.672-1.85-2.2Z" transform="translate(963.006 3711.903)"/><path class="b" d="M255.784,335.832a2.442,2.442,0,1,0,2.442,2.442A2.441,2.441,0,0,0,255.784,335.832Zm0,4.761a2.353,2.353,0,1,1,1.954-2.319A2.16,2.16,0,0,1,255.784,340.593Z" transform="translate(999.668 3712.389)"/><path class="a" d="M256.026,338.547c.053.059-.474-.624-.576-.776a.5.5,0,0,0-.405-.275c.493-.045.722-.306.722-.624,0-.384-.28-.629-.88-.629h-1.04s.187.059.187.187v2.044c0,.128-.187.211-.187.211h.666s-.187-.083-.187-.211v-.952h.373a.44.44,0,0,1,.448.259c.1.168.592.9.592.9h.426S255.972,338.486,256.026,338.547Zm-1.7-1.072v-1.207h.506c.469,0,.613.24.613.605a.543.543,0,0,1-.613.6Z" transform="translate(1000.506 3713.075)"/></g></svg>