<svg xmlns="http://www.w3.org/2000/svg" width="163.234" height="23.176" viewBox="0 0 163.234 23.176"><defs><style>.a{fill:#3e3e3e;}</style></defs><path class="a" d="M33.179,53.118H29V76.293h3.458s.056-.56.056-4.51v-5.4h.665c7.341,0,12.21-.791,12.21-6.616C45.389,53.909,40.52,53.118,33.179,53.118Zm0,12.84h-.665V53.547h.665c4.316,0,8.19-.033,8.19,6.222C41.369,65.857,37.679,65.958,33.179,65.958Z" transform="translate(-29 -53.118)"/><path class="a" d="M81.3,57.995" transform="translate(40.661 -46.622)"/><rect class="a" width="3.458" height="23.175" transform="translate(27.192 0)"/><path class="a" d="M80.148,53.289" transform="translate(39.125 -52.89)"/><path class="a" d="M89.7,53.289" transform="translate(51.853 -52.89)"/><path class="a" d="M87.575,53.606v-.488H71.823V76.293H87.575v-.488H75.281V64.733h7.684v-.488H75.281V53.606Z" transform="translate(28.037 -53.118)"/><path class="a" d="M102.977,53.118H80.693v.488H90.3V76.293h3.458V53.606h9.221Z" transform="translate(39.851 -53.118)"/><path class="a" d="M110,74.616a10.066,10.066,0,0,1-.772-1.418s-4.5-10.228-8.962-19.835l-.112-.245h-.406l-.205.5-1.4,3.4v0L90.164,76.269h.583l2.861-6.9h9.773l.175.413,1.066,2.362a9.113,9.113,0,0,1,.527,1.4l1.154,2.724,2.134.023h2.332ZM93.811,68.884l4.636-11.17,4.274,10.095.462,1.045h-.021l.014.03Z" transform="translate(52.466 -53.118)"/><g transform="translate(67.984 0.03)"><path class="a" d="M75.044,53.131V71.454l-15.9-18.324h-.994V76.276H58.7V58.261L74.357,76.276h1.178v-.023h.056V53.131Z" transform="translate(-58.154 -53.131)"/></g><path class="a" d="M65.472,74.616A10.068,10.068,0,0,1,64.7,73.2S60.2,62.97,55.741,53.363l-.114-.245h-.406l-.205.5-1.4,3.4,0,0L45.632,76.269h.583l2.864-6.9h9.773l.175.413,1.063,2.362a9.387,9.387,0,0,1,.529,1.4l1.152,2.724,2.134.023h2.332ZM49.279,68.884l4.636-11.17,4.274,10.095.462,1.045h-.019l.012.03Z" transform="translate(-6.848 -53.118)"/></svg>