<svg xmlns="http://www.w3.org/2000/svg" width="169.282" height="24.662" viewBox="0 0 169.282 24.662"><defs><style>.a{fill:#3e3e3e;}</style></defs><g transform="translate(-1513.214 -116.597)"><path class="a" d="M2283.557,136.905c.25-.419.428-.7.587-.988q4.171-7.592,8.339-15.187c.486-.885.49-.883,1.672-.715l2.749,23.709H2292.8c-.582-4.994-.754-10.108-1.558-15.185a161.51,161.51,0,0,0-7.806,14.9c-.222.019-.4.042-.582.046-.152,0-.3-.013-.468-.022l-7.521-14.86-.221.04c-.375,2.481-.606,4.982-.873,7.476s-.425,4.983-.638,7.57h-3.2a2.531,2.531,0,0,1,0-1.414c1.063-5.8,1.769-11.658,2.541-17.5.208-1.571.408-3.143.617-4.761l.629-.091a1,1,0,0,1,1.131.666q3.015,5.87,6.1,11.706C2281.745,133.8,2282.627,135.267,2283.557,136.905Z" transform="translate(-687.158 -3.002)"/><path class="a" d="M2625.316,128.47a12.15,12.15,0,0,1-11.573,12.715,14.639,14.639,0,0,1-6.246-.668,10.932,10.932,0,0,1-7.721-9.649,13.046,13.046,0,0,1,.416-5.542c1.567-4.883,5.046-7.573,9.971-8.5a13.9,13.9,0,0,1,6.539.38,11.305,11.305,0,0,1,8.058,7.467A12.337,12.337,0,0,1,2625.316,128.47Zm-4.312.079c-.054-.63-.084-1.457-.2-2.271a7.906,7.906,0,0,0-5.744-6.994,8.077,8.077,0,0,0-3.357-.277,7.608,7.608,0,0,0-6.639,4.772,13.959,13.959,0,0,0-.709,8.894,7.886,7.886,0,0,0,5.8,6.145,8.165,8.165,0,0,0,9.462-4.154A13.441,13.441,0,0,0,2621,128.549Z" transform="translate(-986.713)"/><path class="a" d="M1812.919,134.743c-.062-5.268.125-10.537-.146-15.881.533.039,1.1.115,1.667.111s1.144-.086,1.725-.134c-.5,7.941-.781,15.865-.583,23.83a1.475,1.475,0,0,1-1.79-.456q-7.246-7.979-14.548-15.906c-.136-.149-.292-.28-.6-.576-.044,5.7-.135,11.177.246,16.642h-3.421c.564-7.911.482-15.9.474-23.88a1.8,1.8,0,0,1,2.034.551q7.01,7.573,14.083,15.089c.207.221.416.441.625.661Z" transform="translate(-256.341 -1.628)"/><path class="a" d="M2928.288,118.573a1.842,1.842,0,0,1,2.052.578c4.691,5.073,9.422,10.111,14.14,15.16.186.2.362.407.654.735a5.268,5.268,0,0,0,.126-.731c0-4.22,0-8.44-.017-12.66,0-.879-.093-1.757-.148-2.714.594.044,1.161.121,1.727.116s1.134-.09,1.685-.138c-.476,7.976-.814,15.9-.593,23.844a1.519,1.519,0,0,1-1.814-.518q-7.187-7.908-14.426-15.769a2.323,2.323,0,0,0-.54-.543,16.7,16.7,0,0,0-.18,3.281c-.009,1.1,0,2.2,0,3.3,0,1.131,0,2.263.015,3.394.012,1.1.019,2.2.063,3.3s.129,2.18.2,3.244H2927.8C2928.379,134.557,2928.288,126.585,2928.288,118.573Z" transform="translate(-1284.732 -1.71)"/><path class="a" d="M1535.6,143.086h-4.553l-3.371-8.674a46.8,46.8,0,0,0-7.686-.013l-3.218,8.7h-3.553l10.709-23.9h1.424Zm-11.647-17.406-.2.006c-.844,2.021-1.762,4.011-2.554,6.1h5.394Z" transform="translate(0 -2.36)"/><path class="a" d="M2084.662,123.866h12.719v3.03c-2.748-.142-5.617-.393-8.61-.338-.052,2.393-.1,4.7-.152,7.069,2.741.232,5.374-.21,7.99-.172V136.5c-1.271-.076-2.6-.185-3.922-.226-1.306-.039-2.615-.009-3.979-.009v8.392a40.162,40.162,0,0,0,4.372-.092c1.456-.087,2.911-.181,4.457-.277V147.3c-2.106.041-4.257-.079-6.408-.093-2.133-.014-4.267,0-6.491,0C2084.91,139.446,2084.97,131.677,2084.662,123.866Z" transform="translate(-518.969 -6.602)"/><path class="a" d="M3216.816,123.866h12.718v3l-8.583-.376c-.042,2.444-.242,4.769-.136,7.15,2.685.21,5.293-.2,7.919-.189v3l-7.767-.258a52.05,52.05,0,0,0-.031,8.5,71.019,71.019,0,0,0,8.725-.471v3.035h-12.9C3217.136,139.425,3217.113,131.674,3216.816,123.866Z" transform="translate(-1547.166 -6.602)"/></g></svg>