<svg xmlns="http://www.w3.org/2000/svg" width="160.616" height="51.918" viewBox="0 0 160.616 51.918"><defs><style>.a{fill:#3e3e3e;}</style></defs><g transform="translate(0 10.577)"><path class="a" d="M113.416,375.8V335h1.274v2.625a7.611,7.611,0,0,1,2.188-1.872A5.58,5.58,0,0,1,119.7,335a5.933,5.933,0,0,1,4.454,1.909,6.32,6.32,0,0,1,1.829,4.531V375.8h-1.274V341.443a5.1,5.1,0,0,0-1.47-3.619,4.821,4.821,0,0,0-7.078,0,5.1,5.1,0,0,0-1.47,3.619V375.8Z" transform="translate(-113.182 -334.769)"/><path class="a" d="M126.368,376.182h-1.741V341.595a4.879,4.879,0,0,0-1.408-3.457,4.431,4.431,0,0,0-3.368-1.476,4.486,4.486,0,0,0-3.368,1.476,4.879,4.879,0,0,0-1.408,3.457v34.587h-1.741V334.921h1.741v2.228a7.965,7.965,0,0,1,1.838-1.442,5.836,5.836,0,0,1,2.938-.786,6.19,6.19,0,0,1,4.622,1.98,6.579,6.579,0,0,1,1.895,4.693Zm-1.274-.467h.806v-34.12a6.118,6.118,0,0,0-1.764-4.368,5.735,5.735,0,0,0-4.286-1.838,5.351,5.351,0,0,0-2.7.724,7.385,7.385,0,0,0-2.123,1.809l-.416.53v-3.063H113.8v40.326h.806v-34.12a5.335,5.335,0,0,1,1.536-3.778,5.049,5.049,0,0,1,7.414,0,5.335,5.335,0,0,1,1.536,3.778Z" transform="translate(-113.334 -334.921)"/></g><g transform="translate(18.448 10.657)"><path class="a" d="M131.183,375.825V373.28a6.22,6.22,0,0,1-9.463.675,6.292,6.292,0,0,1-1.829-4.574V357.853a6.331,6.331,0,0,1,1.829-4.534,5.937,5.937,0,0,1,4.454-1.909,5.756,5.756,0,0,1,2.864.715,6.743,6.743,0,0,1,2.146,1.909V341.471a5.1,5.1,0,0,0-1.47-3.619,4.818,4.818,0,0,0-7.075,0,5.09,5.09,0,0,0-1.473,3.619v4.214H119.89v-4.214a6.32,6.32,0,0,1,1.829-4.531,6.15,6.15,0,0,1,8.908,0,6.32,6.32,0,0,1,1.829,4.531v34.354Zm-8.546-2.784a4.9,4.9,0,0,0,7.075,0,5.058,5.058,0,0,0,1.47-3.659V357.853a5.09,5.09,0,0,0-1.47-3.619,4.812,4.812,0,0,0-7.075,0,5.081,5.081,0,0,0-1.473,3.619v11.529a5.049,5.049,0,0,0,1.473,3.659" transform="translate(-119.656 -334.797)"/><path class="a" d="M132.842,376.21H131.1v-2.126a6.145,6.145,0,0,1-4.776,2.126,6.246,6.246,0,0,1-4.619-1.941,6.531,6.531,0,0,1-1.9-4.736V358a6.591,6.591,0,0,1,1.895-4.7,6.19,6.19,0,0,1,4.622-1.98,5.984,5.984,0,0,1,2.978.747,6.869,6.869,0,0,1,1.8,1.453V341.622a4.878,4.878,0,0,0-1.408-3.456,4.434,4.434,0,0,0-3.368-1.479,4.493,4.493,0,0,0-3.368,1.479,4.878,4.878,0,0,0-1.408,3.456v4.448h-1.741v-4.448a6.579,6.579,0,0,1,1.895-4.693,6.383,6.383,0,0,1,9.244,0,6.579,6.579,0,0,1,1.895,4.693Zm-1.274-.467h.806v-34.12a6.117,6.117,0,0,0-1.764-4.368,5.912,5.912,0,0,0-8.568,0,6.12,6.12,0,0,0-1.767,4.368v3.984h.806v-3.984a5.348,5.348,0,0,1,1.536-3.778,5.049,5.049,0,0,1,7.414,0,5.336,5.336,0,0,1,1.536,3.778V354.9l-.422-.576a6.512,6.512,0,0,0-2.072-1.844,5.531,5.531,0,0,0-2.75-.687,5.734,5.734,0,0,0-4.283,1.838A6.131,6.131,0,0,0,120.275,358v11.529a6.084,6.084,0,0,0,1.764,4.411,5.794,5.794,0,0,0,4.286,1.8,5.707,5.707,0,0,0,4.824-2.454l.419-.558Zm-5.243-.806a5,5,0,0,1-3.7-1.582h0a5.3,5.3,0,0,1-1.539-3.821V358a5.338,5.338,0,0,1,1.536-3.779,5.043,5.043,0,0,1,7.414,0A5.326,5.326,0,0,1,131.568,358v11.529a5.291,5.291,0,0,1-1.539,3.821A5.006,5.006,0,0,1,126.325,374.936Zm0-21.867a4.494,4.494,0,0,0-3.368,1.476A4.885,4.885,0,0,0,121.549,358v11.529a4.851,4.851,0,0,0,1.4,3.5h0a4.554,4.554,0,0,0,3.371,1.439,4.5,4.5,0,0,0,3.371-1.439,4.851,4.851,0,0,0,1.4-3.5V358a4.869,4.869,0,0,0-1.408-3.456A4.428,4.428,0,0,0,126.325,353.069Z" transform="translate(-119.808 -334.949)"/></g><g transform="translate(36.898 10.577)"><path class="a" d="M126.364,375.8V335h1.274v2.625a7.611,7.611,0,0,1,2.188-1.872,5.58,5.58,0,0,1,2.821-.752,5.928,5.928,0,0,1,4.454,1.909,6.32,6.32,0,0,1,1.829,4.531V375.8h-1.274V341.443a5.1,5.1,0,0,0-1.47-3.619,4.818,4.818,0,0,0-7.075,0,5.09,5.09,0,0,0-1.473,3.619V375.8Z" transform="translate(-126.133 -334.769)"/><path class="a" d="M139.314,376.182h-1.741V341.595a4.879,4.879,0,0,0-1.408-3.457,4.431,4.431,0,0,0-3.368-1.476,4.49,4.49,0,0,0-3.368,1.476,4.879,4.879,0,0,0-1.408,3.457v34.587h-1.738V334.921h1.738v2.228a7.965,7.965,0,0,1,1.838-1.442,5.828,5.828,0,0,1,2.938-.786,6.19,6.19,0,0,1,4.622,1.98,6.579,6.579,0,0,1,1.895,4.693Zm-1.274-.467h.806v-34.12a6.118,6.118,0,0,0-1.764-4.368,5.736,5.736,0,0,0-4.286-1.838,5.368,5.368,0,0,0-2.7.721,7.385,7.385,0,0,0-2.12,1.812l-.419.53v-3.063h-.806v40.326h.806v-34.12a5.347,5.347,0,0,1,1.536-3.778,5.049,5.049,0,0,1,7.414,0,5.335,5.335,0,0,1,1.536,3.778Z" transform="translate(-126.283 -334.921)"/></g><g transform="translate(55.346 10.657)"><path class="a" d="M144.133,375.825V373.28a6.22,6.22,0,0,1-9.463.675,6.3,6.3,0,0,1-1.832-4.574V357.853a6.334,6.334,0,0,1,1.832-4.534,5.926,5.926,0,0,1,4.451-1.909,5.749,5.749,0,0,1,2.864.715,6.783,6.783,0,0,1,2.148,1.909V341.471a5.1,5.1,0,0,0-1.473-3.619,4.818,4.818,0,0,0-7.075,0,5.09,5.09,0,0,0-1.473,3.619v4.214h-1.274v-4.214a6.323,6.323,0,0,1,1.832-4.531,6.146,6.146,0,0,1,8.9,0,6.32,6.32,0,0,1,1.829,4.531v34.354Zm-8.549-2.784a4.9,4.9,0,0,0,7.075,0,5.061,5.061,0,0,0,1.473-3.659V357.853a5.093,5.093,0,0,0-1.473-3.619,4.812,4.812,0,0,0-7.075,0,5.081,5.081,0,0,0-1.473,3.619v11.529a5.049,5.049,0,0,0,1.473,3.659" transform="translate(-132.607 -334.797)"/><path class="a" d="M145.788,376.21H144.05v-2.126a6.155,6.155,0,0,1-4.779,2.126,6.246,6.246,0,0,1-4.619-1.941,6.529,6.529,0,0,1-1.895-4.736V358a6.588,6.588,0,0,1,1.892-4.7,6.194,6.194,0,0,1,4.622-1.98,6,6,0,0,1,2.981.747,6.963,6.963,0,0,1,1.8,1.453V341.622a4.89,4.89,0,0,0-1.408-3.456,4.444,4.444,0,0,0-3.371-1.479,4.5,4.5,0,0,0-3.368,1.479,4.878,4.878,0,0,0-1.408,3.456v4.448h-1.738v-4.448a6.576,6.576,0,0,1,1.892-4.693,6.383,6.383,0,0,1,9.244,0,6.579,6.579,0,0,1,1.895,4.693Zm-1.274-.467h.806v-34.12a6.113,6.113,0,0,0-1.764-4.368,5.912,5.912,0,0,0-8.568,0,6.12,6.12,0,0,0-1.767,4.368v3.984h.806v-3.984a5.347,5.347,0,0,1,1.536-3.778,5.049,5.049,0,0,1,7.414,0,5.336,5.336,0,0,1,1.536,3.778V354.9l-.419-.573a6.52,6.52,0,0,0-2.074-1.844,5.531,5.531,0,0,0-2.75-.687,5.734,5.734,0,0,0-4.283,1.838A6.131,6.131,0,0,0,133.221,358v11.529a6.1,6.1,0,0,0,1.764,4.411,5.794,5.794,0,0,0,4.286,1.8,5.7,5.7,0,0,0,4.824-2.454l.419-.558Zm-5.243-.806a5,5,0,0,1-3.7-1.582h0a5.3,5.3,0,0,1-1.539-3.821V358a5.338,5.338,0,0,1,1.536-3.779,5.043,5.043,0,0,1,7.414,0A5.326,5.326,0,0,1,144.514,358v11.529a5.3,5.3,0,0,1-1.536,3.821A5.012,5.012,0,0,1,139.271,374.936Zm0-21.867a4.494,4.494,0,0,0-3.368,1.476A4.885,4.885,0,0,0,134.5,358v11.529a4.851,4.851,0,0,0,1.4,3.5h0a4.553,4.553,0,0,0,3.371,1.439,4.5,4.5,0,0,0,3.371-1.439,4.842,4.842,0,0,0,1.408-3.5V358a4.881,4.881,0,0,0-1.408-3.456A4.438,4.438,0,0,0,139.271,353.069Z" transform="translate(-132.757 -334.949)"/></g><g transform="translate(73.874 10.577)"><path class="a" d="M139.34,375.8V335h1.274v2.625a7.611,7.611,0,0,1,2.188-1.872,5.58,5.58,0,0,1,2.821-.752,5.64,5.64,0,0,1,3.34,1.071,7.179,7.179,0,0,1,2.308,2.664,6.711,6.711,0,0,1,2.305-2.7,6.082,6.082,0,0,1,5.844-.519,6.26,6.26,0,0,1,1.989,1.393,7.01,7.01,0,0,1,1.351,2.066,6.143,6.143,0,0,1,.519,2.465V375.8h-1.274V341.443a5.1,5.1,0,0,0-1.47-3.619A4.706,4.706,0,0,0,157,336.277a4.778,4.778,0,0,0-3.616,1.547,5.09,5.09,0,0,0-1.473,3.619V375.8h-1.274V341.443a5.1,5.1,0,0,0-1.47-3.619,4.818,4.818,0,0,0-7.075,0,5.09,5.09,0,0,0-1.473,3.619V375.8Z" transform="translate(-139.109 -334.769)"/><path class="a" d="M163.662,376.182h-1.741V341.595a4.879,4.879,0,0,0-1.408-3.457,4.494,4.494,0,0,0-3.368-1.476,4.581,4.581,0,0,0-3.448,1.476,4.879,4.879,0,0,0-1.408,3.457v34.587h-1.741V341.595a4.879,4.879,0,0,0-1.408-3.457,4.431,4.431,0,0,0-3.368-1.476,4.49,4.49,0,0,0-3.368,1.476A4.879,4.879,0,0,0,141,341.595v34.587h-1.738V334.921H141v2.228a8.041,8.041,0,0,1,1.838-1.442,5.93,5.93,0,0,1,6.411.328,7.508,7.508,0,0,1,2.168,2.354,6.933,6.933,0,0,1,2.18-2.394,6.315,6.315,0,0,1,6.069-.539,6.547,6.547,0,0,1,2.063,1.445,7.307,7.307,0,0,1,1.4,2.134,6.434,6.434,0,0,1,.539,2.559Zm-1.274-.467h.806v-34.12a5.939,5.939,0,0,0-.5-2.371,6.793,6.793,0,0,0-1.308-2,6.071,6.071,0,0,0-1.915-1.342,5.858,5.858,0,0,0-5.614.5,6.482,6.482,0,0,0-2.228,2.61l-.205.433-.214-.427a7,7,0,0,0-2.234-2.579,5.432,5.432,0,0,0-3.206-1.029,5.351,5.351,0,0,0-2.7.724,7.3,7.3,0,0,0-2.12,1.809l-.419.53v-3.063h-.806v40.326h.806v-34.12a5.347,5.347,0,0,1,1.536-3.778,5.049,5.049,0,0,1,7.414,0,5.335,5.335,0,0,1,1.536,3.778v34.12h.806v-34.12a5.325,5.325,0,0,1,1.536-3.778,5.029,5.029,0,0,1,3.787-1.621,4.942,4.942,0,0,1,3.707,1.621,5.335,5.335,0,0,1,1.536,3.778Z" transform="translate(-139.259 -334.921)"/></g><g transform="translate(103.691)"><path class="a" d="M149.8,331.291h1.274v6.44H149.8Zm0,10.577h1.274v40.794H149.8Z" transform="translate(-149.571 -331.057)"/><path class="a" d="M151.464,383.047h-1.741V341.786h1.741Zm-1.274-.467H151V342.254h-.806Zm1.274-44.464h-1.741v-6.907h1.741Zm-1.274-.467H151v-5.973h-.806Z" transform="translate(-149.723 -331.209)"/></g><g transform="translate(110.769 10.577)"><path class="a" d="M152.289,375.8V335h1.274v2.625a7.612,7.612,0,0,1,2.188-1.872,5.572,5.572,0,0,1,2.821-.752,5.933,5.933,0,0,1,4.454,1.909,6.32,6.32,0,0,1,1.829,4.531V375.8h-1.274V341.443a5.1,5.1,0,0,0-1.47-3.619,4.818,4.818,0,0,0-7.075,0,5.09,5.09,0,0,0-1.473,3.619V375.8Z" transform="translate(-152.055 -334.769)"/><path class="a" d="M165.241,376.182H163.5V341.595a4.884,4.884,0,0,0-1.408-3.457,4.435,4.435,0,0,0-3.368-1.476,4.485,4.485,0,0,0-3.368,1.476,4.879,4.879,0,0,0-1.408,3.457v34.587h-1.741V334.921h1.741v2.228a8.011,8.011,0,0,1,1.835-1.442,5.846,5.846,0,0,1,2.941-.786,6.19,6.19,0,0,1,4.622,1.98,6.579,6.579,0,0,1,1.895,4.693Zm-1.274-.467h.806v-34.12a6.13,6.13,0,0,0-1.764-4.368,5.736,5.736,0,0,0-4.286-1.838,5.361,5.361,0,0,0-2.707.724,7.41,7.41,0,0,0-2.12,1.809l-.416.53v-3.063h-.806v40.326h.806v-34.12a5.335,5.335,0,0,1,1.536-3.778,5.049,5.049,0,0,1,7.414,0,5.335,5.335,0,0,1,1.536,3.778Z" transform="translate(-152.207 -334.921)"/></g><g transform="translate(128.983 10.577)"><path class="a" d="M158.708,375.8l11.133-39.521H159.105V335h12.406l-11.134,39.521h10.656V375.8Z" transform="translate(-158.398 -334.769)"/><path class="a" d="M171.467,376.182H158.6l11.133-39.52h-10.66v-1.741H172.02l-11.133,39.52h10.58Zm-12.25-.467H171v-.806H160.272l11.133-39.52H159.539v.806H170.35Z" transform="translate(-158.599 -334.921)"/></g><g transform="translate(147.585 10.577)"><path class="a" d="M175.943,373.967a6.333,6.333,0,0,1-8.9,0,6.251,6.251,0,0,1-1.829-4.613V341.443a6.32,6.32,0,0,1,1.829-4.531,6.146,6.146,0,0,1,8.9,0,6.32,6.32,0,0,1,1.829,4.531v12.563H166.48v15.348a5.061,5.061,0,0,0,1.473,3.659,4.9,4.9,0,0,0,7.075,0,5.061,5.061,0,0,0,1.473-3.659v-4.212h1.271v4.212a6.251,6.251,0,0,1-1.829,4.613m-9.463-21.152H176.5V341.443a5.1,5.1,0,0,0-1.473-3.619,4.818,4.818,0,0,0-7.075,0,5.1,5.1,0,0,0-1.473,3.619Z" transform="translate(-164.975 -334.769)"/><path class="a" d="M171.644,376.182a6.312,6.312,0,0,1-4.619-1.9,6.506,6.506,0,0,1-1.9-4.779V341.595a6.567,6.567,0,0,1,1.895-4.693,6.38,6.38,0,0,1,9.241,0,6.567,6.567,0,0,1,1.895,4.693v12.8H166.865v15.114a4.842,4.842,0,0,0,1.408,3.5,4.665,4.665,0,0,0,6.739,0,4.842,4.842,0,0,0,1.408-3.5V365.06h1.738v4.445a6.506,6.506,0,0,1-1.9,4.779h0A6.31,6.31,0,0,1,171.644,376.182Zm0-40.794a5.736,5.736,0,0,0-4.286,1.838,6.118,6.118,0,0,0-1.764,4.368v27.911a6.054,6.054,0,0,0,1.761,4.448,6.1,6.1,0,0,0,8.574,0h0a6.054,6.054,0,0,0,1.761-4.448v-3.978h-.8v3.978a5.3,5.3,0,0,1-1.539,3.821,5.132,5.132,0,0,1-7.412,0,5.3,5.3,0,0,1-1.536-3.821V353.924h11.29v-12.33a6.118,6.118,0,0,0-1.764-4.368A5.734,5.734,0,0,0,171.644,335.388Zm5.243,17.812H166.4V341.595a5.335,5.335,0,0,1,1.536-3.778,5.046,5.046,0,0,1,7.412,0,5.338,5.338,0,0,1,1.539,3.778Zm-10.022-.467h9.554V341.595a4.891,4.891,0,0,0-1.408-3.457,4.44,4.44,0,0,0-3.368-1.476,4.5,4.5,0,0,0-3.371,1.476,4.891,4.891,0,0,0-1.408,3.457Z" transform="translate(-165.127 -334.921)"/></g></svg>