<svg xmlns="http://www.w3.org/2000/svg" width="141.171" height="43.798" viewBox="0 0 141.171 43.798"><defs><style>.a{fill:#3e3e3e;}</style></defs><path class="a" d="M435.1,362.7a100.006,100.006,0,0,1,28.375-22.165,4.157,4.157,0,0,1,6.1,3.048c.022.144-.158.32-.3.592-1.719-1.274-3.518-.845-5.27-.274a44.568,44.568,0,0,0-11.365,6.052,1.388,1.388,0,0,0-.451,1.144c1.315,7.25,4.009,13.84,9.317,19.15,2.043,2.043,4.189,3.892,7.34,4.083-1.782,1.978-4.726,2.282-7.41.807a19.9,19.9,0,0,1-6.992-7.046,47.348,47.348,0,0,1-5.685-13.612c-.125-.456-.266-.91-.44-1.5-6.438,4.531-11.33,10.357-15.657,16.678-2.23-.935-2.689-2.1-1.82-4.591a44.1,44.1,0,0,1,7.236-12.528,87.014,87.014,0,0,1,15.475-15.3c.481-.369.943-.763,1.415-1.143l-.13-.486c-3.184.424-6.405.66-9.537,1.32-4.637.975-9.206,2.255-13.807,3.4-.646.16-1.073.391-1.144,1.2a4.655,4.655,0,0,1-.682,1.518,6.844,6.844,0,0,0-1.9-.78c-4.159-.236-8.328-.3-12.479-.6a5.987,5.987,0,0,0-5.56,2.551c-3.833,4.751-7.856,9.347-11.77,14.035a22.265,22.265,0,0,0-1.565,2.426l.353.3c.25-.071.584-.06.736-.22,1.863-1.953,3.77-3.871,5.52-5.919s3.2-4.392,5.058-6.343c2-2.1,2.828-2.043,5.367-.63.633.35,1.247.736,1.95,1.152.312-.283.627-.565.937-.853.725-.674,1.489-.948,2.276-.12a1.624,1.624,0,0,1,.057,2.51c-2.415,3.007-4.678,6.139-6.826,9.371,2.3-1.407,3.713-3.827,5.984-5.2l.454.424a10.931,10.931,0,0,1-.978,1.4c-1.972,2.073-3.95,4.142-5.99,6.144-.413.4-1.385.872-1.624.69a2.655,2.655,0,0,1-1.078-1.855,20.351,20.351,0,0,1,.807-3.64c-1.91,1.556-3.914,3.26-6,4.849a9.2,9.2,0,0,1-2.238.918,22.276,22.276,0,0,1-.467-2.581,7.574,7.574,0,0,1,.31-1.771c-1.187,1.163-2.282,2.3-3.45,3.347a8.288,8.288,0,0,1-2.018,1.361c-1.445.666-2.494-.122-2.35-1.73a11.38,11.38,0,0,0,.228-2.173c-.791.856-1.529,1.768-2.393,2.545-.44.4-1.483.9-1.6.769a3.656,3.656,0,0,1-1.141-2.135,15.673,15.673,0,0,1,.875-3.431c-2.078,1.673-4.262,3.474-6.506,5.194a6.243,6.243,0,0,1-1.768.638,9.711,9.711,0,0,1-.546-2.007,13.506,13.506,0,0,1,.323-2.472c-1.3,1.317-2.4,2.428-3.488,3.539-1.48,1.51-1.749,1.494-3.031-.331l-2.4,2.722c1.1.179,2.024.3,2.936.486,2.523.5,3.1,1.611,2.211,4.156-1.521-1.988-3.822-2.407-6.055-2.893-.312-.068-.812.4-1.122.72-1.241,1.29-2.369,2.7-3.678,3.917s-4.213.426-4.87-1.228a1.765,1.765,0,0,1,.913-2.339c1.912-1.084,3.868-2.092,5.769-3.194a9.045,9.045,0,0,0,1.423-1.3c-.2-.076-.288-.147-.35-.13-.7.187-1.393.388-2.092.584a8.9,8.9,0,0,1-.435-2.355c.274-2.982,1.806-5.487,3.327-7.967.649-1.057,1.418-2.046,2.141-3.078-2.583-.924-2.958-.967-4.5,1.005-3.165,4.034-6.218,8.16-9.225,12.316a11.805,11.805,0,0,0-1.019,3.026,7.1,7.1,0,0,1-2.445-1.271,2.56,2.56,0,0,1,.1-2.38c2.494-3.74,5.126-7.391,7.733-11.055.581-.815,1.255-1.559,2.176-2.692-3.268.149-6.144.272-9.021.426a1.641,1.641,0,0,0-.774.359c-6.967,4.906-13.976,9.757-20.856,14.782-1.535,1.119-2.621,2.855-3.925,4.322-2.181-1.817-2.249-2.841-.16-5.08,4.447-4.77,9.985-8.108,15.323-11.713a10.387,10.387,0,0,0,1.98-1.554c-1.369.3-2.754.546-4.1.918-2.423.666-4.865,1.3-7.22,2.154-2.662.967-5.107,2.328-6.158,5.384-1.959-3.786-.954-7.1,2.779-8.263a85.444,85.444,0,0,1,11.167-2.445c2.667-.454,5.406-.475,8.1-.763a5.242,5.242,0,0,0,1.877-.668q13.4-7.269,26.775-14.584c1.087-.592,2.032-.823,2.9.348.915,1.233.386,2.17-.524,3.053q-5.228,5.056-10.469,10.1c-.557.535-1.179,1.005-1.888,1.6l2.695,1.279c2.458-3.417,5.164-1.872,7.823.157.4-.353.733-.63,1.049-.926a1.507,1.507,0,0,1,2.317-.076,1.553,1.553,0,0,1,.1,2.42c-1.831,2-3.675,4-5.387,6.106a29.9,29.9,0,0,0-2.181,3.547l.6.424c1.695-1.885,3.447-3.724,5.066-5.672,1.853-2.225,3.436-4.691,5.414-6.791,1.779-1.888,2.654-1.815,4.881-.595.755.416,1.5.853,2.274,1.3.285-.261.546-.475.777-.717.717-.742,1.486-1.16,2.366-.28.853.856.815,1.578,0,2.621-2.282,2.936-4.376,6.019-6.535,9.051-.035.052.027.168.06.329,5.8-5.036,9.513-11.8,14.848-17.173l-.277-.3q-.583.412-1.165.818c-.611-2.385-.147-3.132,2.238-3.607,2.771-.551,4-1.782,4.36-4.365,1.776.638,2.632,1.82,2.485,3.458h8.019l.649-3.208.369-.1c.513,2.7,2.523,2.271,4.221,2.048,4.751-.619,9.469-1.5,14.225-2.086,4.71-.576,9.45-.921,14.179-1.336a3.016,3.016,0,0,1,2.879,2.138c.331,1.168-.494,1.744-1.306,2.328a80.677,80.677,0,0,0-21.788,22.945C435.493,361.943,435.3,362.324,435.1,362.7Zm-56.834-26.639-.239-.244-19.017,11.7c1.562.293,3.021.166,4.444.326a4.477,4.477,0,0,0,4.509-1.825,22.2,22.2,0,0,1,2.556-2.575Q374.382,339.737,378.263,336.057ZM402.9,361.509l11.482-10.92c-1.592-1.369-2.323-1.508-3.428-.435A34.642,34.642,0,0,0,402.9,361.509Zm-8.823-10.925c-1.706-1.453-2.513-1.573-3.7-.155-2.233,2.662-4.308,5.46-6.372,8.255a18.129,18.129,0,0,0-1.388,2.695l.179.054ZM368.62,361.517l.152.063,11.238-10.92c-1.66-1.323-2.276-1.486-3.433-.2-2.089,2.325-4.009,4.811-5.875,7.32A30.768,30.768,0,0,0,368.62,361.517Zm-3.74,6.079-2.689,1.915.378.516C363.727,369.725,364.246,368.536,364.879,367.6Z" transform="translate(-328.398 -332.257)"/></svg>