<svg xmlns="http://www.w3.org/2000/svg" width="122.836" height="32.408" viewBox="0 0 122.836 32.408"><defs><style>.a{fill:#3e3e3e;}</style></defs><g transform="translate(-29 -54.766)"><path class="a" d="M53.309,80.854,36,80.861l0-8.033,10.974,0a1.441,1.441,0,0,1,1.165,1.348h.593l0-7.418h-.612a1.4,1.4,0,0,1-1.062,1.307l-11.1.005,0-7.031,16.943-.005c.96.019,1,1.409,1,1.409h.633l0-7.665h-.633c-.326,1.432-1.062,1.349-1.062,1.349L29,56.134v.756c1.349.223,1.248,1.142,1.248,1.142s.132,24.709.011,25.834a1.5,1.5,0,0,1-1.248,1.288l0,.572,23.972-.009a1.571,1.571,0,0,1,1.328,1.449h.614l0-7.623h-.572C54.209,80.873,53.309,80.854,53.309,80.854Z" transform="translate(0 0.006)"/><path class="a" d="M67.965,56.2a1.7,1.7,0,0,1,1.379,1.134c.246.981.007,18.18.007,18.18L54.446,57.923s-.737-1.409.612-1.655v-.737l-8.892,0v.676s1.135.519,1.135,1.134L47.313,83.1a1.372,1.372,0,0,1-1.134,1.441v.735l7.663,0v-.86s-1.011-.03-1.165-.735L52.67,65.005,68.005,82.841s.981,1.288-.367,1.748v.674l8.184,0v-.583s-1.288-.521-1.227-1.011l-.011-26.334s.553-1.1,1.227-1.074v-.735l-7.849,0Z" transform="translate(12.958 0.572)"/><path class="a" d="M88.93,80.855l-14.1.007L90.146,57.525l.061-1.348s-17.29.16-23.176-.084c-.412-.016-.981-.388-.983-1.327h-.735l0,7.644.858,0s0-1.5,1.379-1.5L80.523,60.9s.214-.03-.184.644-14.889,22.63-14.889,22.63v1.657L88.4,85.7a1.75,1.75,0,0,1,1.541,1.441l.49,0,0-7.54h-.614S89.6,80.793,88.93,80.855Z" transform="translate(27.41 0)"/><path class="a" d="M96.836,55.2a15.451,15.451,0,1,0,15.456,15.444A15.451,15.451,0,0,0,96.836,55.2Zm-.077,25.752c-5.249,0-9.507-4.6-9.513-10.292s4.245-10.3,9.493-10.309,9.507,4.6,9.513,10.292S102.007,80.945,96.759,80.951Z" transform="translate(39.544 0.327)"/></g></svg>