<svg xmlns="http://www.w3.org/2000/svg" width="192.514" height="21.278" viewBox="0 0 192.514 21.278"><defs><style>.a{fill:#3e3e3e;}</style></defs><path class="a" d="M341.68,386.555c1.17-2.89,2.3-5.633,3.392-8.389,1.735-4.38,2.262-4.682,7.228-3.91v19.935h-5.276V377.044l-.5-.1c-2.358,5.8-4.716,11.608-7.345,18.076-2.784-6.278-5.326-12.013-7.87-17.746l-.62.1v16.66l-.56-.023V374.338c4.8-1.065,5.819-.574,7.6,3.578q1.729,4.022,3.452,8.045A4.139,4.139,0,0,0,341.68,386.555Z" transform="translate(-244.486 -373.744)"/><path class="a" d="M321.232,393.948c-5.236.973-5.8.691-7.784-3.653a25.115,25.115,0,0,0-1.742-3.728,9.96,9.96,0,0,0-2.31-1.863l-.668.576v8.832H303.29c-.063-.647-.188-1.337-.19-2.026-.017-5.263.054-10.526-.044-15.787-.031-1.754.409-2.508,2.3-2.381,2.9.2,5.829.1,8.736.271,3.151.192,5.488,2.316,5.71,4.973.184,2.216-1.644,4.371-4.542,5.3-.952.3-1.932.522-3.112.837,2.126.6,4.561.574,5.635,1.769C319.413,388.892,320.1,391.559,321.232,393.948Zm-12.4-9.818c2.084.167,3.619-.092,4.5-2,.977-2.109,1.011-4.24-.466-5.931-.829-.95-2.433-1.228-4.037-1.969Z" transform="translate(-273.957 -373.689)"/><path class="a" d="M359.759,394.556V374.125c4.724-.3,9.325-.568,13.721,1.216a9.548,9.548,0,0,1,5.965,9.44,9.785,9.785,0,0,1-8.323,8.9C367.476,394.274,363.736,394.274,359.759,394.556Zm5.827-19.6v18.283c4.6.148,6.424-1.042,7.166-5.29a22.4,22.4,0,0,0,.033-7.448C372.054,376.171,370.264,374.97,365.586,374.958Z" transform="translate(-212.234 -373.688)"/><path class="a" d="M355.8,373.805a10.512,10.512,0,0,1,10.582,10.447,10.713,10.713,0,0,1-10.564,10.566A10.838,10.838,0,0,1,345.2,384.273,10.594,10.594,0,0,1,355.8,373.805Zm-4.59,10.505c.395,2.314.725,4.8,1.264,7.237a2.776,2.776,0,0,0,3.429,2.343c1.213-.307,2.824-1.305,3.177-2.356a23.759,23.759,0,0,0,.28-14.124,3.546,3.546,0,0,0-3.659-2.962,3.606,3.606,0,0,0-3.507,3.168C351.718,379.736,351.547,381.927,351.213,384.31Z" transform="translate(-228.086 -373.799)"/><path class="a" d="M389.589,373.988c0,4.854.246,9.557-.075,14.221-.278,4.041-4.373,6.84-8.818,6.581-4.286-.251-6.865-2.744-7.017-7.157s-.031-8.82-.031-13.229l.641,0c0,3.454-.044,6.909.021,10.361a22.319,22.319,0,0,0,.455,4.574,4.791,4.791,0,0,0,5.184,3.83c2.483-.232,3.926-1.713,4.068-4.6.165-3.319.094-6.648.119-9.973C384.173,373.867,384.658,373.439,389.589,373.988Z" transform="translate(-197.165 -373.802)"/><path class="a" d="M308.466,394.393c-.127.006-.2.015-.284.015-1.366,0-2.732.006-4.1,0a2.237,2.237,0,0,1-2.2-1.385c-.971-2.093-1.959-4.177-2.938-6.266-.042-.088-.086-.173-.155-.315-.132.28-.246.516-.357.754q-1.4,2.976-2.8,5.95a2.029,2.029,0,0,1-1.861,1.243c-1.512.042-3.026.013-4.54.013a.551.551,0,0,1-.109-.031l4.252-9.022H289.13v-.725h.284c1.343,0,2.684,0,4.027.006a.376.376,0,0,0,.4-.261q2.406-5.119,4.822-10.236c.029-.065.067-.127.125-.238.063.123.113.211.155.3q2.4,5.094,4.8,10.19a.357.357,0,0,0,.388.24c1.349-.008,2.7,0,4.05-.008.217,0,.322.046.29.282a3.847,3.847,0,0,0,0,.441H304.2Z" transform="translate(-289.122 -373.696)"/><path class="a" d="M335.475,394.393c-.127.006-.2.015-.284.015-1.366,0-2.732.006-4.1,0a2.237,2.237,0,0,1-2.2-1.385c-.971-2.093-1.957-4.177-2.938-6.266-.042-.088-.086-.173-.152-.315-.134.28-.249.516-.359.754q-1.4,2.976-2.8,5.95a2.029,2.029,0,0,1-1.861,1.243c-1.512.042-3.026.013-4.54.013a.55.55,0,0,1-.109-.031l4.252-9.022h-4.244v-.725h.284c1.343,0,2.684,0,4.027.006a.376.376,0,0,0,.4-.261q2.406-5.119,4.822-10.236c.031-.065.067-.127.125-.238.063.123.113.211.154.3q2.4,5.094,4.8,10.19a.357.357,0,0,0,.388.24c1.349-.008,2.7,0,4.05-.008.217,0,.322.046.29.282a3.846,3.846,0,0,0,0,.441H331.21Z" transform="translate(-259.723 -373.696)"/></svg>