<svg xmlns="http://www.w3.org/2000/svg" width="153.025" height="44.294" viewBox="0 0 153.025 44.294"><defs><style>.a,.b{fill:#3e3e3e;}.a{fill-rule:evenodd;}</style></defs><g transform="translate(-108 -4221)"><path class="a" d="M103.763,370.4a.645.645,0,0,1,1.289,0v14.712a5.974,5.974,0,0,1-1.474,4.1,5.1,5.1,0,0,1-3.846,1.57H97.719a.646.646,0,0,1,0-1.292h2.014a3.833,3.833,0,0,0,2.9-1.156,4.7,4.7,0,0,0,1.129-3.223V370.4Zm-62.7,19.091H48.37a.646.646,0,1,1,0,1.292H40.418a.645.645,0,0,1-.647-.647V370.4a.646.646,0,0,1,1.292,0v19.091ZM62.51,371.05v6.966h6a.646.646,0,1,1,0,1.292h-6v10.187h7.31a.646.646,0,0,1,0,1.292H61.865a.645.645,0,0,1-.645-.647V370.4a.644.644,0,0,1,.645-.645H69.82a.646.646,0,0,1,0,1.292ZM140.9,389.494h7.31a.646.646,0,0,1,0,1.292h-7.954a.645.645,0,0,1-.645-.647V370.4a.645.645,0,0,1,1.289,0v19.091Zm18.42-19.091a.646.646,0,0,1,1.292,0v19.736a.646.646,0,1,1-1.292,0V370.4Zm14.232.647v6.966h6a.646.646,0,0,1,0,1.292h-6v10.187h7.31a.646.646,0,0,1,0,1.292h-7.954a.647.647,0,0,1-.647-.647V370.4a.648.648,0,0,1,.647-.645h7.954a.646.646,0,0,1,0,1.292Zm-46.518,11.733c0-.031-.007-.063-.007-.095V370.4a.646.646,0,0,1,1.292,0v12.252a10.316,10.316,0,0,1-.424,4.111,5.587,5.587,0,0,1-5.759,4.021H122.1a5.6,5.6,0,0,1-5.773-4.018,10.376,10.376,0,0,1-.422-4.113V370.4a.645.645,0,0,1,1.289,0v12.286a.5.5,0,0,1,0,.09,8.992,8.992,0,0,0,.351,3.531,4.876,4.876,0,0,0,9.147,0,9.013,9.013,0,0,0,.351-3.526Z" transform="translate(73.873 3851.242)"/><path class="b" d="M58.857,388.343l-.211.075H175.557l-5.305-4.176c-.4-.4-.72-1.045.417-.7l19.8,5.468-19.8,5.465c-1.137.342-.812-.305-.417-.7l5.305-4.176H58.646l.211.078c-1.328,1.364-2.676,2.7-4.014,4.045-.63.637-.923.749-.33-.182.846-1.326,1.791-2.639,2.7-3.941H54.458l.211.078c-1.326,1.364-2.676,2.7-4.014,4.045-.63.637-.921.749-.33-.182.846-1.326,1.791-2.639,2.707-3.941H50.27l.211.078c-1.326,1.364-2.676,2.7-4.014,4.045-.63.637-.921.749-.327-.182.846-1.326,1.789-2.639,2.7-3.941H46.082l.213.078c-1.326,1.364-2.676,2.7-4.016,4.045-.628.637-.921.749-.327-.182.846-1.326,1.791-2.639,2.7-3.941H41.9l.211.078c-1.326,1.364-2.676,2.7-4.014,4.045-.63.637-.921.749-.33-.182.846-1.326,1.791-2.639,2.707-3.941h0v-1.175c-.914-1.3-1.859-2.615-2.7-3.941-.591-.928-.3-.819.33-.182,1.338,1.35,2.688,2.681,4.014,4.047l-.211.075h2.761c-.914-1.3-1.859-2.615-2.7-3.941-.594-.928-.3-.819.327-.182,1.34,1.35,2.69,2.681,4.016,4.047l-.211.075h2.761c-.916-1.3-1.859-2.615-2.7-3.941-.594-.928-.3-.819.327-.182,1.338,1.35,2.688,2.681,4.014,4.047l-.208.075h2.761c-.916-1.3-1.861-2.615-2.707-3.941-.591-.928-.3-.819.33-.182,1.338,1.35,2.688,2.681,4.014,4.047l-.211.075h2.761c-.914-1.3-1.859-2.615-2.7-3.941-.594-.928-.3-.819.33-.182,1.338,1.35,2.685,2.681,4.014,4.047Z" transform="translate(70.558 3870.726)"/></g></svg>