<svg xmlns="http://www.w3.org/2000/svg" width="206.283" height="27.655" viewBox="0 0 206.283 27.655"><defs><style>.a{fill:#3e3e3e;}</style></defs><g transform="translate(-2.946 -1.879)"><g transform="translate(2.946 1.879)"><path class="a" d="M4.229,29.585v-.876A6.415,6.415,0,0,0,5.3,27.992a1.187,1.187,0,0,0,.17-.493q.093-.559.162-2.374T5.7,22.359V11.129Q5.7,9.3,5.6,6.846a7.612,7.612,0,0,0-.217-1.918.7.7,0,0,0-.324-.354,5.63,5.63,0,0,0-2.117-.28V3.121q.51.038,1.283.038l3.215.093,5.688-.167a8.625,8.625,0,0,1,3.478.558,4.084,4.084,0,0,1,1.909,1.814,5.728,5.728,0,0,1,.688,2.8,6.444,6.444,0,0,1-.41,2.307,6.116,6.116,0,0,1-2.628,3.154,10.284,10.284,0,0,1-2.2.9,13.258,13.258,0,0,1,2.922.606,4.719,4.719,0,0,1,1.862,1.193,5.2,5.2,0,0,1,1.136,1.929,7.858,7.858,0,0,1,.386,2.535,8.611,8.611,0,0,1-1.383,4.855,8.457,8.457,0,0,1-3.563,3.1,9.155,9.155,0,0,1-3.849.746L7,29.435Q6.269,29.435,4.229,29.585ZM8.65,14.09q.879.056,1.543.056a9.618,9.618,0,0,0,2.954-.353,4.068,4.068,0,0,0,1.612-.929,4.452,4.452,0,0,0,.949-1.561A6.423,6.423,0,0,0,16.085,9a4.157,4.157,0,0,0-1.226-3.355,5.443,5.443,0,0,0-3.587-1.032,10.71,10.71,0,0,0-2.483.279Q8.65,6.432,8.65,9.666ZM8.7,27.666A8.692,8.692,0,0,0,11.134,28a6.3,6.3,0,0,0,3.286-.754,4.842,4.842,0,0,0,1.921-2.281,8.631,8.631,0,0,0,.671-3.5,7.637,7.637,0,0,0-.632-3.286A4.143,4.143,0,0,0,14.489,16.2a9.721,9.721,0,0,0-4.142-.643q-.664,0-1.7.074v7.058Q8.65,23.718,8.7,27.666Z" transform="translate(-2.946 -2.581)"/><path class="a" d="M51.025,29.636v-.968a4.89,4.89,0,0,0,1.221-.857.941.941,0,0,0,.216-.428,12.29,12.29,0,0,0,.185-2.235q.061-2.551.062-3.035V12.093q0-2.533-.046-4.954a6.973,6.973,0,0,0-.225-2.095,1.082,1.082,0,0,0-.572-.484,9.207,9.207,0,0,0-2.234-.2V3.172q3.771.15,4.668.149.989,0,4.437-.149V4.364a9.213,9.213,0,0,0-2.234.2A1.035,1.035,0,0,0,55.956,5,5.622,5.622,0,0,0,55.724,6.8q-.016.373-.062,5.289V24.608q0,1.955.062,3.184,1.762.131,3.494.131a19.143,19.143,0,0,0,6.106-.67,10,10,0,0,0,.355-1.285l.618-3.092h1.036q-.34,2.776-.665,6.519a8.121,8.121,0,0,1-1,.186q-.8.056-2.473.056l-9.15-.149Q52.555,29.486,51.025,29.636Z" transform="translate(-30.142 -2.632)"/><path class="a" d="M95.878,29.272V28.005a6.748,6.748,0,0,0,1.523-.121,1.3,1.3,0,0,0,.556-.391,6.3,6.3,0,0,0,.734-1.5q.279-.689,2.009-5.234l3.865-10.5q.633-1.732,2.7-7.71h1l6.6,18.679q1.608,4.545,2.133,5.7a1.841,1.841,0,0,0,.642.857,3.817,3.817,0,0,0,1.569.223v1.267q-2.411-.185-3.37-.186l-4.977.186V28.005a14.092,14.092,0,0,0,2.1-.13.873.873,0,0,0,.5-.27.714.714,0,0,0,.132-.438,3.555,3.555,0,0,0-.216-1.061l-1.9-5.7h-8.95l-1.685,4.786a6.519,6.519,0,0,0-.448,1.881.7.7,0,0,0,.124.428.886.886,0,0,0,.525.335,9.579,9.579,0,0,0,2.01.167v1.267q-2.613-.168-3.911-.168Q97.655,29.1,95.878,29.272Zm7.188-10.447h7.805l-3.864-11.23Z" transform="translate(-57.08 -2.269)"/><path class="a" d="M176.656,25.586l-.6,1.732a14.5,14.5,0,0,1-3.54,1.592,13.734,13.734,0,0,1-3.772.494,13.291,13.291,0,0,1-4.452-.726A10.89,10.89,0,0,1,160.7,26.6a12.135,12.135,0,0,1-2.512-3.027,14.4,14.4,0,0,1-1.483-3.64,17.127,17.127,0,0,1-.511-4.312,14.337,14.337,0,0,1,3.44-9.842,11.876,11.876,0,0,1,9.39-3.9,16.209,16.209,0,0,1,2.6.2,21.22,21.22,0,0,1,2.922.745q1.723.55,2.11.643a13.815,13.815,0,0,0-.51,2.011,33.729,33.729,0,0,0-.34,3.668h-.974l-.015-2.2a3.293,3.293,0,0,0-1.677-2.719,8.948,8.948,0,0,0-4.46-.894,10.073,10.073,0,0,0-3.725.68,7.1,7.1,0,0,0-2.7,2.03,11.067,11.067,0,0,0-1.909,3.519,16.747,16.747,0,0,0-.757,5.354,13.732,13.732,0,0,0,2.859,9.079,9.345,9.345,0,0,0,7.559,3.436,10.671,10.671,0,0,0,3.926-.708,8.72,8.72,0,0,0,2.458-1.527Z" transform="translate(-92.213 -1.879)"/><path class="a" d="M218.252,28.444v1.192l-4.668-.149q-.479,0-4.374.149V28.444a9.227,9.227,0,0,0,2.226-.2,1.035,1.035,0,0,0,.557-.438A5.622,5.622,0,0,0,212.224,26q.016-.391.062-5.289V12.093q0-2.533-.046-4.954a6.972,6.972,0,0,0-.225-2.095,1.082,1.082,0,0,0-.572-.484,9.213,9.213,0,0,0-2.234-.2V3.172q3,.112,4.591.112,1.577,0,4.451-.112V4.364a9.214,9.214,0,0,0-2.225.2.959.959,0,0,0-.541.438,5.191,5.191,0,0,0-.247,1.806q0,.373-.062,5.289v3.836a9.985,9.985,0,0,0,1.978-1.881l1.948-2.272,3.447-4.153q1.994-2.4,2.458-3.091V3.172q1.837.075,2.891.075,1.128,0,2.427-.075V4.383a8.466,8.466,0,0,0-1.979.149,2.825,2.825,0,0,0-1,.559q-.989.875-3.031,3.129l-6.167,6.8,9.274,10.466q2.24,2.534,2.551,2.757a2.279,2.279,0,0,0,1.189.242v1.155q-1.515-.075-2.025-.075c-.381,0-1.186.025-2.411.075q-.358-.428-2.582-3l-1.592-1.844-7.018-7.933-.356.242v3.613q0,2.533.062,4.936a6.941,6.941,0,0,0,.209,2.1,1.062,1.062,0,0,0,.58.493A9.213,9.213,0,0,0,218.252,28.444Z" transform="translate(-123.098 -2.632)"/><path class="a" d="M283.333,4.313V3.121q3.107.112,4.915.112,1.205,0,2.567-.038l2.427-.093q.4-.019.741-.019a9.367,9.367,0,0,1,3.864.652,4.749,4.749,0,0,1,2.195,2.077,6.6,6.6,0,0,1,.789,3.25,8.6,8.6,0,0,1-.657,3.259,7.364,7.364,0,0,1-1.908,2.747,7.861,7.861,0,0,1-2.613,1.611,6.151,6.151,0,0,1-2.1.335,9.607,9.607,0,0,1-2.133-.261l-.324-1.4a8.829,8.829,0,0,0,2.164.373,3.976,3.976,0,0,0,2.2-.679,4.391,4.391,0,0,0,1.622-2.045,7.649,7.649,0,0,0,.58-3.021,7.154,7.154,0,0,0-.564-2.891,4.1,4.1,0,0,0-1.716-1.961,5.466,5.466,0,0,0-2.79-.67,9,9,0,0,0-3.153.633q-.138,1.974-.139,6.183v9.386q0,2.533.046,4.936a7.1,7.1,0,0,0,.224,2.1,1.067,1.067,0,0,0,.572.493,9.205,9.205,0,0,0,2.234.2v1.192q-2.861-.15-4.2-.149-.525,0-4.838.149V28.392a9.231,9.231,0,0,0,2.226-.2,1.036,1.036,0,0,0,.556-.438,5.629,5.629,0,0,0,.232-1.806q.014-.391.061-5.289V12.042q0-2.533-.046-4.954a6.979,6.979,0,0,0-.224-2.095,1.086,1.086,0,0,0-.572-.484A9.2,9.2,0,0,0,283.333,4.313Z" transform="translate(-166.276 -2.581)"/><path class="a" d="M337.978,28.444v1.192q-3.292-.15-4.329-.149l-4.776.149V28.444a9.231,9.231,0,0,0,2.226-.2,1.036,1.036,0,0,0,.556-.438A5.629,5.629,0,0,0,331.888,26q.014-.391.061-5.289V12.093q0-2.533-.046-4.954a6.963,6.963,0,0,0-.224-2.095,1.084,1.084,0,0,0-.572-.484,9.205,9.205,0,0,0-2.234-.2V3.172q2.953.131,4.561.131,1.546,0,4.544-.131V4.364a9.208,9.208,0,0,0-2.234.2A1.039,1.039,0,0,0,335.2,5a5.635,5.635,0,0,0-.232,1.806q-.016.373-.062,5.289v8.622q0,2.533.047,4.936a7.035,7.035,0,0,0,.224,2.1,1.067,1.067,0,0,0,.572.493A9.208,9.208,0,0,0,337.978,28.444Z" transform="translate(-192.803 -2.632)"/><path class="a" d="M354.617,29.636V28.462a5.332,5.332,0,0,0,2.134-.3.634.634,0,0,0,.309-.354,7.846,7.846,0,0,0,.217-1.956q.092-2.457.093-4.245V6.431a3.211,3.211,0,0,0-.061-.8,2.634,2.634,0,0,0-.557-.8,1.257,1.257,0,0,0-.642-.381,10.006,10.006,0,0,0-1.615-.1V3.172q2.581.075,3.246.075,1.128,0,2.242-.075,1.313,2.068,1.932,3.055l3.2,4.749,4.669,6.778q2.24,3.241,3.6,5.1.865,1.228,1.452,1.936V11.18q0-1.825-.108-4.283a8.569,8.569,0,0,0-.2-1.918.706.706,0,0,0-.325-.354,5.629,5.629,0,0,0-2.117-.28V3.172q1.824.075,3.694.075,1.762,0,3.2-.075V4.346a5.634,5.634,0,0,0-2.117.28.64.64,0,0,0-.309.372,7.626,7.626,0,0,0-.216,1.955q-.093,2.459-.092,4.227v8.958q0,2.718.077,10.149l-1.592-.558-.372-.093a.533.533,0,0,1-.169-.112,7.061,7.061,0,0,1-.588-.745q-1.283-1.75-1.885-2.644L369.719,23.1,358.76,7.326V21.609q0,1.825.109,4.3a8.152,8.152,0,0,0,.2,1.9.7.7,0,0,0,.324.372,5.625,5.625,0,0,0,2.118.279v1.174q-1.36-.131-3-.131Q356.719,29.505,354.617,29.636Z" transform="translate(-207.728 -2.632)"/><path class="a" d="M426.626,28.444v1.192l-4.668-.149q-.48,0-4.374.149V28.444a9.238,9.238,0,0,0,2.226-.2,1.038,1.038,0,0,0,.557-.438A5.6,5.6,0,0,0,420.6,26q.016-.391.062-5.289V12.093q0-2.533-.046-4.954a6.986,6.986,0,0,0-.224-2.095,1.086,1.086,0,0,0-.572-.484,9.2,9.2,0,0,0-2.233-.2V3.172q3,.112,4.591.112,1.576,0,4.452-.112V4.364a9.225,9.225,0,0,0-2.226.2.961.961,0,0,0-.541.438,5.18,5.18,0,0,0-.247,1.806q0,.373-.062,5.289v3.836a9.986,9.986,0,0,0,1.979-1.881l1.948-2.272,3.446-4.153q2-2.4,2.458-3.091V3.172q1.839.075,2.891.075,1.128,0,2.427-.075V4.383a8.467,8.467,0,0,0-1.979.149,2.84,2.84,0,0,0-1,.559q-.989.875-3.03,3.129l-6.167,6.8,9.274,10.466q2.24,2.534,2.55,2.757a2.281,2.281,0,0,0,1.189.242v1.155q-1.515-.075-2.024-.075-.572,0-2.412.075-.356-.428-2.582-3l-1.592-1.844-7.017-7.933-.355.242v3.613q0,2.533.062,4.936a6.925,6.925,0,0,0,.209,2.1,1.063,1.063,0,0,0,.579.493A9.225,9.225,0,0,0,426.626,28.444Z" transform="translate(-244.479 -2.632)"/></g><g transform="translate(201.673 1.879)"><g transform="translate(2.085 1.475)"><path class="a" d="M483.951,9.691V5.413h1.819a3.109,3.109,0,0,1,1,.115.981.981,0,0,1,.5.41,1.231,1.231,0,0,1,.187.674,1.143,1.143,0,0,1-.284.795,1.356,1.356,0,0,1-.846.4,1.982,1.982,0,0,1,.463.359,4.957,4.957,0,0,1,.493.694l.521.835h-1.033l-.625-.931a6.084,6.084,0,0,0-.455-.63.665.665,0,0,0-.261-.177,1.389,1.389,0,0,0-.435-.048h-.175V9.691Zm.864-2.469h.64a3.289,3.289,0,0,0,.775-.053.469.469,0,0,0,.243-.181.556.556,0,0,0,.087-.321.514.514,0,0,0-.116-.349.526.526,0,0,0-.325-.168c-.07-.009-.279-.014-.63-.014h-.674Z" transform="translate(-483.951 -5.413)"/></g><path class="a" d="M486.512,5.657a3.778,3.778,0,1,1-3.778-3.778A3.778,3.778,0,0,1,486.512,5.657Zm-3.778,3.192a3.192,3.192,0,1,0-3.192-3.192,3.195,3.195,0,0,0,3.192,3.192Z" transform="translate(-478.956 -1.879)"/></g></g></svg>