<svg xmlns="http://www.w3.org/2000/svg" width="176.999" height="39.65" viewBox="0 0 176.999 39.65"><defs><style>.a{fill:#3e3e3e;}</style></defs><g transform="translate(-630 -4223)"><path class="a" d="M9.439,28.124v15.97h2.313v.551H2.5v-.551H4.813V6.647H2.5V6.1h9.252C18,6.1,22.16,10.061,22.16,14.907v4.406c0,4.846-4.163,8.811-10.408,8.811Zm0-21.478V27.573h2.313c3.18,0,5.782-3.689,5.782-8.26V14.907c0-4.571-2.6-8.261-5.782-8.261Z" transform="translate(627.5 4217.904)"/><path class="a" d="M66.7,44.645v-.551h2.313V6.647H66.7V6.1h9.252v.551H73.639V44.095h5.493c2.082,0,3.759-3.194,3.759-7.159h.578v7.71Z" transform="translate(586.256 4217.904)"/><path class="a" d="M116.184,43.105c1.85,0,2.949-.826,3.238-2.093l8.1-36.457h.925l8.9,38.549h2.313v.551h-9.367v-.551h2.313l-2.429-10.739h-8.269l-2.371,10.739h2.2v.551h-5.551Zm5.84-11.289h8.038L125.956,14.3Z" transform="translate(554.466 4218.444)"/><path class="a" d="M192.878,6.1l10.755,27.425V6.647H201.32V6.1h5.493v.551c-1.85,0-2.6.716-2.6,1.652V44.645h-.925L189.871,10.336V44.095h2.313v.551h-5.493v-.551c1.85,0,2.6-.716,2.6-1.652V8.3c0-.936-.752-1.652-2.6-1.652V6.1Z" transform="translate(509.171 4217.904)"/><path class="a" d="M271.286,35.4v8.261h-.578c0-1.322-.694-1.982-1.5-1.982a6.7,6.7,0,0,1-5.435,2.533A8.75,8.75,0,0,1,255.1,35.4V13.367a8.75,8.75,0,0,1,8.674-8.811A6.542,6.542,0,0,1,269.2,7.089c.81,0,1.5-.661,1.5-1.982h.578v8.261h-.578c0-4.736-2.949-8.261-6.361-8.261-2.891,0-4.626,3.69-4.626,8.261V35.4c0,4.571,1.735,8.261,4.626,8.261,3.412,0,6.361-3.525,6.361-8.261Z" transform="translate(465.227 4218.444)"/><path class="a" d="M333.182,6.1v.551h-2.313V44.095h2.313v.551H323.93v-.551h2.313V25.646h-8.1V44.095h2.313v.551h-9.252v-.551h2.313V6.647h-2.313V6.1h9.252v.551h-2.313V25.1h8.1V6.647H323.93V6.1Z" transform="translate(429.177 4217.904)"/><path class="a" d="M399.939,13.806h-.579c0-3.965-1.677-7.159-3.758-7.159h-5.493V25.1h3.469c1.272,0,2.313-1.982,2.313-4.406h.578v9.362h-.578c0-2.423-1.041-4.406-2.313-4.406h-3.469V44.095H395.6c2.082,0,3.758-3.194,3.758-7.159h.579v7.71H383.17v-.551h2.313V6.647H383.17V6.1h16.769Z" transform="translate(382.948 4217.904)"/><path class="a" d="M460.1,6.1v7.71h-.578c0-3.965-1.677-7.159-3.759-7.159H452V44.095h2.313v.551h-9.252v-.551h2.313V6.647H443.62c-2.082,0-3.758,3.194-3.758,7.159h-.579V6.1Z" transform="translate(346.899 4217.904)"/></g></svg>