<svg xmlns="http://www.w3.org/2000/svg" width="223.317" height="22.377" viewBox="0 0 223.317 22.377"><defs><style>.a{fill:#3e3e3e;}</style></defs><g transform="translate(-197 -4361)"><g transform="translate(197 4361)"><path class="a" d="M14.494,4.524q0-1.382-1.634-1.383T11.227,4.524V19.206q0,3.426-5.013,3.426h-1.9a1.32,1.32,0,1,0,.016,2.64H6.213q8.3,0,8.3-6.268l-.017-.02Z" transform="translate(-3 -3.072)"/><path class="a" d="M38.294,22.638H24.3q-5.346,0-5.345-2.8V15.719H38.292q1.133.029,1.132-1.321t-1.132-1.35H18.96V8.711q0-2.211,4.145-2.7c.5-.059,1.023-.1,1.579-.116h13.12q1.132,0,1.132-1.254,0-1.353-1.132-1.353H24.492a12.79,12.79,0,0,0-6.631,1.366,4.484,4.484,0,0,0-2.2,4.07V20q0,5.282,8.519,5.282H38.294q1.2,0,1.194-1.321T38.294,22.638Z" transform="translate(-1.382 -3.056)"/><path class="a" d="M68.752,23.108,56.083,4.247a2.414,2.414,0,0,0-.928-.882,2.476,2.476,0,0,0-2.294,0,2.634,2.634,0,0,0-.961.882L39.3,23.141a1.715,1.715,0,0,0-.222.836,1.324,1.324,0,0,0,.5,1.053,1.751,1.751,0,0,0,1.162.417,1.42,1.42,0,0,0,.63-.17,1.624,1.624,0,0,0,.6-.519l3.649-5.432H62.458l.006-.025,3.614,5.378a1.89,1.89,0,0,0,.644.518,1.591,1.591,0,0,0,.677.176,1.824,1.824,0,0,0,1.145-.38,1.253,1.253,0,0,0,.488-1.037,2.083,2.083,0,0,0-.045-.392A1,1,0,0,0,68.752,23.108ZM47.337,16.657l6.727-10.5,6.573,10.5Z" transform="translate(1.612 -3.08)"/><path class="a" d="M92.811,3.159q-1.7,0-1.7,1.384v16.35L71.895,3.882a1.945,1.945,0,0,0-.786-.488,2.852,2.852,0,0,0-.881-.142,2.243,2.243,0,0,0-1.384.473,1.761,1.761,0,0,0-.627,1.508V24.064q.005,1.382,1.6,1.383t1.6-1.383V7.463l19.4,17.353a1.987,1.987,0,0,0,.752.488,2.39,2.39,0,0,0,.785.142,2.012,2.012,0,0,0,1.383-.535,2.091,2.091,0,0,0,.6-1.634h.012V4.543Q94.353,3.159,92.811,3.159Z" transform="translate(5.338 -3.07)"/><path class="a" d="M172.169,4.509q0-1.353-1.571-1.353-1.729,0-1.729,1.353V24.064q-.039,1.353,1.633,1.353t1.671-1.353h0Z" transform="translate(18.209 -3.07)"/><path class="a" d="M169.349,8.958q0-5.657-9.117-5.657H144.388a1,1,0,0,0-.266,0,.944.944,0,0,0-.8,1.067V24.046q0,1.384,1.7,1.384,1.6,0,1.6-1.384v-7.7l19.019,8.9a1.342,1.342,0,0,0,.627.188,1.276,1.276,0,0,0,1.037-.5,1.7,1.7,0,0,0,.417-1.1,1.241,1.241,0,0,0-.2-.677,1.339,1.339,0,0,0-.677-.519l-13.864-6.067H161q8.356,0,8.356-5.251h0Zm-3.234,2.666q0,2.326-4.809,2.327H146.624V5.9h14.114q5.378,0,5.378,2.863Z" transform="translate(14.941 -3.053)"/><path class="a" d="M118.09,3.3H102.354q-7.522-.005-7.521,5.185v2.2q0,4.622,8.582,4.622h6.631q5.378,0,5.378,2.861v1.885q0,2.578-4.5,2.578H95.885q-1.228-.059-1.228,1.291t1.228,1.349h14.587q8.207,0,8.206-5.06l.009,0V17.858q0-5.126-9.088-5.126h-6.727q-4.781,0-4.781-2.357V8.7q0-2.8,3.761-2.8H118.09a1.059,1.059,0,0,0,.3,0,1.1,1.1,0,0,0,.924-1.25Q119.314,3.3,118.09,3.3Z" transform="translate(8.72 -3.052)"/><path class="a" d="M204.35,23.56a.987.987,0,0,0-.235-.456L191.447,4.243a2.413,2.413,0,0,0-.928-.882,2.483,2.483,0,0,0-2.294,0,2.649,2.649,0,0,0-.956.882l-12.606,18.9a1.7,1.7,0,0,0-.221.835,1.325,1.325,0,0,0,.5,1.053,1.76,1.76,0,0,0,1.162.418,1.441,1.441,0,0,0,.632-.171,1.643,1.643,0,0,0,.6-.519l3.649-5.432h16.85l-.008-.025,3.614,5.378a1.864,1.864,0,0,0,.644.518,1.575,1.575,0,0,0,.677.176,1.823,1.823,0,0,0,1.149-.38,1.256,1.256,0,0,0,.488-1.037A2.084,2.084,0,0,0,204.35,23.56ZM182.7,16.653l6.728-10.5L196,16.653Z" transform="translate(18.921 -3.08)"/><path class="a" d="M142.066,22.621h-13.99q-5.344,0-5.344-2.8V15.7h19.333q1.132.029,1.132-1.321t-1.132-1.35H122.732V8.711q0-2.211,4.145-2.7.743-.088,1.579-.116h13.119q1.133,0,1.132-1.254,0-1.353-1.132-1.353H128.268a12.8,12.8,0,0,0-6.635,1.366,4.485,4.485,0,0,0-2.2,4.07V19.98q0,5.282,8.519,5.282h14.115q1.194,0,1.194-1.321T142.066,22.621Z" transform="translate(11.887 -3.056)"/></g></g></svg>