<svg xmlns="http://www.w3.org/2000/svg" width="186.572" height="32.313" viewBox="0 0 186.572 32.313"><defs><style>.a{fill:#3e3e3e;}</style></defs><g transform="translate(-849 -4227)"><path class="a" d="M270.305,411.451c-7.525,0-13.663,6.736-13.663,15.415,0,8.891,6.138,15.845,13.663,15.845s13.666-6.953,13.666-15.845c0-8.679-6.135-15.415-13.666-15.415m0,29.448c-6.6,0-11.924-6.133-11.924-14.033,0-7.688,5.326-13.6,11.924-13.6s11.929,5.916,11.929,13.6c0,7.9-5.326,14.033-11.929,14.033" transform="translate(615.117 3816.124)"/><path class="a" d="M261.088,411.368H247.847v1.827h.023v.008h.639c1.216,0,1.853.091,2.306,1.02v29.1h1.964V429.174h6.485c1.78,0,2.37.228,3.333,2.1l4.792,9.632c1.048,2.148,1.685,2.419,4.381,2.419h.642v-1.827h-.642c-1.232,0-1.871-.091-2.326-1.046l-5.2-10.454a3.044,3.044,0,0,0-.913-1.1V428.8c3.923-.823,6.573-4.016,6.573-8.578a8.422,8.422,0,0,0-8.811-8.858m-8.309,15.977v-14.15H261c4.2,0,6.852,2.691,6.852,7.031s-2.65,7.119-6.852,7.119Z" transform="translate(601.153 3815.992)"/><path class="a" d="M289.2,411.366h-.691a1.924,1.924,0,0,0-.378.049l-.023.008a2.056,2.056,0,0,0-.929.52l-.013.015a2.068,2.068,0,0,0-.217.233l-.018.021a3.658,3.658,0,0,0-.481.789l-10.3,27.489c-.318.869-.869,1-1.736,1h-.5v1.83h.549c2.282,0,2.922-.414,3.739-2.65l3.152-8.4H294.9l3.147,8.4c.825,2.236,1.459,2.65,3.75,2.65h.541v-1.83h-.5c-.864,0-1.416-.135-1.736-1Zm-7.16,19.082,4.834-12.964c.5-1.371,1.19-3.835,1.19-3.835h.091s.727,2.464,1.229,3.835l4.883,12.964Z" transform="translate(642.532 3815.989)"/><path class="a" d="M324.224,411.331h-.681a1.837,1.837,0,0,0-.391.049l-.021.005a1.974,1.974,0,0,0-.916.52l-.026.018a2.913,2.913,0,0,0-.21.23l-.021.021a3.983,3.983,0,0,0-.486.813l-10.229,27.44c-.321.867-.864,1-1.726,1h-.5v1.829h.546c2.267,0,2.911-.414,3.724-2.647l3.128-8.392h13.477l3.131,8.392c.82,2.233,1.454,2.647,3.724,2.647h.546v-1.829h-.5c-.862,0-1.41-.132-1.723-1ZM317.1,430.39l4.816-12.949c.492-1.369,1.177-3.83,1.177-3.83h.091s.725,2.461,1.224,3.83l4.855,12.949Z" transform="translate(698.277 3815.933)"/><path class="a" d="M326.733,411.285h-2.112c-1.731,0-2.448.774-2.448,2.634v22.3c0,1.589.212,4,.212,4H322.3s-1.434-2.541-2.407-4l-16.846-24.938h-.525a.733.733,0,0,1-.155.016h-.008c-.665,0-.942.781-1,.989v27.976c0,.681-.336,1-.924,1h-1.822v1.819h2.109c1.736,0,2.451-.776,2.451-2.634v-22.3c0-1.594-.212-4-.212-4h.088s1.434,2.544,2.407,4L322.3,443.083h1.692V414.1c0-.683.331-1,.921-1h1.819Z" transform="translate(681.753 3815.86)"/><path class="a" d="M289.554,411.622h-.616v1.8h1.418a1.56,1.56,0,0,1,1.447.983l.005.01V442.55h1.9V428.072h7.46V426.31h-7.46V413.42h11.068l.049-.008h.013c.8,0,1.058-1.009,1.058-1.009v-.748h-15.19c-.334-.026-.717-.034-1.152-.034" transform="translate(666.394 3816.395)"/><path class="a" d="M303.157,412.628h-3.55a.761.761,0,0,1-.106.01h-.01c-.8,0-1.058,1.009-1.058,1.009l-.008-.018v.766h.01v24.788h-2.826v1.77h3.5a.7.7,0,0,1,.173-.018h0c.8,0,1.063-1.012,1.063-1.012l0,.026v-.766h-.021V414.4h2.823Z" transform="translate(676.986 3817.992)"/><path class="a" d="M276.048,411.82c-5.31,0-8.55,2.834-8.576,6.622-.062,9.1,17.646,3.571,16.486,15.555-.448,4.65-4.6,6.549-8.244,6.549a10.841,10.841,0,0,1-7.82-3.623l-1.077,1.55a12.046,12.046,0,0,0,8.811,3.843c5.23,0,9.758-2.432,10.193-8.19,1.03-13.635-16.737-8.995-16.466-15.726.114-2.777,2.388-4.808,6.736-4.808,3.053,0,5.921,1.527,5.729,4.585v.215h1.8v-.655c.021-4.516-5.02-5.918-7.574-5.918" transform="translate(631.273 3816.709)"/><path class="a" d="M298.547,411.229a1.441,1.441,0,1,0,1.441,1.441,1.441,1.441,0,0,0-1.441-1.441" transform="translate(679.366 3815.771)"/></g></svg>