<svg xmlns="http://www.w3.org/2000/svg" width="171.254" height="45.852" viewBox="0 0 171.254 45.852"><defs><style>.a{fill:#3e3e3e;}.b{fill:#fff;}.c{fill:#040505;}</style></defs><g transform="translate(-108 -4313.999)"><rect class="a" width="54.3" height="45.111" rx="6.967" transform="translate(108 4314.74)"/><path class="b" d="M80.11,11.011a10.348,10.348,0,0,1,.256-2.3A10.348,10.348,0,0,0,80.11,11.011Z" transform="translate(90.636 4309.547)"/><path class="b" d="M14.991,44.39H43.319c2.768,0,4.908-3.524,4.908-3.524l1.89-9.443H37.654s-2.14,7.051-2.644,9.443C34,43,33.625,43.257,29.344,43.129c-4.658.758-4.91-2.264-4.91-2.264s6.421-22.033,7.178-24.8,2.894-2.393,5.664-2.393c6.8-.629,4.534,2.266,4.534,2.266L39.164,26.06H52.007s1.51-4.081,2.895-8.235c0-5.329-3.41-5.541-3.955-5.541h-28.4c-2.646,0-3.4,3.778-3.4,3.778s-4.91,15.61-6.8,21.4S14.991,44.39,14.991,44.39Z" transform="translate(101.866 4308.959)"/><path class="a" d="M175.019,5.859a2.071,2.071,0,0,0,0-2.246h-8.563s-1.545,0-1.545,2.246v41.27s-.07,1.842,1.545,1.842h8.563s1.054-1.842-1.262-1.842h-7.3v-20H172.7s2.246-.982.351-1.825h-6.6V5.859Z" transform="translate(76.676 4310.386)"/><path class="a" d="M89.308,38.918s.789,7.9-3.423,7.9-3.422-7.9-3.422-7.9V10.2c0-2.363-.158-4.656,3.422-4.656S89.308,10.2,89.308,10.2V13.65c.841,1.509,1.753,0,1.753,0V10.2s.774-6.376-5.176-6.376-5.44,6.376-5.44,6.376V38.918c0,3.332-.895,9.737,5.44,9.737s5.176-8.159,5.176-9.737C90.149,37.477,89.308,38.918,89.308,38.918Z" transform="translate(90.588 4310.352)"/><path class="a" d="M150.137,48.99c.79,0,.79-1.842.79-1.842V32.409c0-.982,1.14-.351,1.14-.351s5.369,15.09,6.492,16.932c2.246.93,1.492-1.842,1.492-1.842l-9.124-20.284s7.632-17.828,9.124-20.986c.287-1.72-.084-2.149-.53-2.149a1.906,1.906,0,0,0-.962.429S152.7,19,152.068,20.126c0,1.053-1.14.7-1.14.7V5.878s0-1.72-.79-1.72-.789,1.72-.789,1.72v41.27S149.348,48.99,150.137,48.99Z" transform="translate(79.238 4310.367)"/><path class="a" d="M132.116,38.918c0,3.332-.9,9.737,5.439,9.737s5.176-8.159,5.176-9.737c-.912-1.44-1.754,0-1.754,0s.789,7.9-3.422,7.9-3.422-7.9-3.422-7.9V10.2c0-2.363-.158-4.656,3.422-4.656s3.422,4.656,3.422,4.656V13.65c.842,1.509,1.754,0,1.754,0V10.2s.774-6.376-5.176-6.376-5.439,6.376-5.439,6.376V38.918Z" transform="translate(82.082 4310.352)"/><path class="a" d="M89.907,52.909a7.451,7.451,0,0,0,.432-1.29A7.451,7.451,0,0,1,89.907,52.909Z" transform="translate(89.023 4302.484)"/><path class="a" d="M105.9,3.823h-5.879c-2.175,0-1.93,1.72-1.93,1.72V48.655a1.567,1.567,0,0,0,1.93,0V28.565c0-.353-.088-1.317,3.422-1.317s3.859,1.667,3.859,1.667v19.74a1.864,1.864,0,0,0,1.845,0V28.213s-1.845-1.544-1.845-2.105S109.151,24,109.151,24V7.155C109.151,4.56,105.9,3.823,105.9,3.823Zm1.4,17.722c0,3.229-1.4,3.422-1.4,3.422h-5.879V5.543H103.8a4.713,4.713,0,0,1,.986-.113,2.471,2.471,0,0,1,2.522,1.725Z" transform="translate(87.677 4310.352)"/><path class="a" d="M188.661,3.959h-5.877c-2.177,0-1.931,1.719-1.931,1.719V48.791a1.569,1.569,0,0,0,1.931,0V28.7c0-.35-.089-1.317,3.42-1.317s3.86,1.667,3.86,1.667v19.74a1.859,1.859,0,0,0,1.843,0V28.35s-1.843-1.545-1.843-2.107,1.843-2.105,1.843-2.105V7.293C191.907,4.7,188.661,3.959,188.661,3.959Zm1.4,17.722c0,3.229-1.4,3.422-1.4,3.422h-5.877V5.678h3.773c2.946-.632,3.508,1.615,3.508,1.615Z" transform="translate(74.054 4310.329)"/><path class="a" d="M120.847,3.823s-5,.088-5,3.95V44.181s-.351,4.474,5,4.474,5.353-4.474,5.353-4.474V7.773S125.847,3.823,120.847,3.823Zm3.683,40.358s-.35,2.632-3.683,2.632-3.334-2.632-3.334-2.632V7.773s.351-2.23,3.334-2.23a3.626,3.626,0,0,1,3.683,2.23Z" transform="translate(84.754 4310.352)"/><path class="c" d="M201.718,13.115a2.287,2.287,0,0,0,1.828-1.548,15.035,15.035,0,0,0,.554-1.612c.1-.335.2-.68.321-1.014a5.691,5.691,0,0,1,.55-1.224.668.668,0,0,1,.552-.337l.045,0a.706.706,0,0,1,.565.456,3.3,3.3,0,0,1,.233,1.028,4.82,4.82,0,0,1-.983,3.078.915.915,0,0,0-.156.748.87.87,0,0,0,.528.506.915.915,0,0,0,1.134-.3,4.739,4.739,0,0,0,1.134-3.786,4.407,4.407,0,0,0-1.845-3.171,1.7,1.7,0,0,0-2.281.193,3.031,3.031,0,0,0-.714,1.028c-.193.506-.353,1.041-.507,1.557-.107.356-.217.723-.337,1.081a15.013,15.013,0,0,1-.586,1.413.4.4,0,0,1-.271.264.392.392,0,0,1-.339-.137,2.435,2.435,0,0,1-.583-1.734,2.437,2.437,0,0,1,.586-1.733,1.187,1.187,0,0,0,.269-1.184c-.157-.433-.5-.474-.845-.457a1.359,1.359,0,0,0-1.281.889,6.549,6.549,0,0,0-.5,1.84,4.811,4.811,0,0,0,.879,2.883A2.309,2.309,0,0,0,201.718,13.115Z" transform="translate(71.101 4310.062)"/><path class="a" d="M199.579,17.287a7.5,7.5,0,0,0,.863-.048c1.439-.079,2.877.083,4.316.005l.063.174a7.271,7.271,0,0,1-.621.668c-1.019.86-2.053,1.7-3.078,2.555-.575.478-1.153.952-1.708,1.453a.891.891,0,0,0-.266,1.077c.183.422.484.485.946.5.431.015.864-.048,1.3-.057q2.331-.046,4.663-.076a12.432,12.432,0,0,0,1.3.013c.564-.066.835-.292.76-.936-.06-.527-.368-.758-.958-.711-.128.01-.286.045-.38.062a27.585,27.585,0,0,1-4.458.151,1.433,1.433,0,0,1,.339-.368c.682-.606,1.667-1.593,2.14-2.088.608-.636,1.364-1.525,2.2-2.4.672-.71,1.183-1.366.434-1.535a10.7,10.7,0,0,0-2-.156c-1.729-.055-3.459-.089-5.189-.133a5.788,5.788,0,0,0-.625-.014,1.119,1.119,0,0,0-.938,1.146C198.67,17.106,199.017,17.252,199.579,17.287Z" transform="translate(71.119 4308.443)"/><g transform="translate(269.789 4332.322)"><path class="a" d="M208.067,34.444a1.609,1.609,0,0,0-.636-.772,10.08,10.08,0,0,0-1.3-.606c-.266-.122-.855-.338-.862-.7-.025-1.307-.079-2.614-.125-4,.363-.138,1.212-.49,1.567-.66a4.483,4.483,0,0,0,1.024-.609.925.925,0,0,0,.312-1.142c-.185-.468-.587-.452-1.1-.352a2.665,2.665,0,0,0-.562.161c-2.29,1.007-4.578,2.258-6.864,3.275a1.513,1.513,0,0,0-.333.23c-.619.518-.7.783-.168,1.413A4.168,4.168,0,0,0,200,31.5c2.038,1.26,4.082,2.509,6.138,3.727a2.837,2.837,0,0,0,1.2.368C207.951,35.643,208.288,35.12,208.067,34.444Zm-6.481-3.854c0-.063,0-.6,0-.662.609-.3,1.456-.6,2.149-.935.059.836.113,2.053.177,2.954C203.134,31.441,202.241,31.015,201.586,30.59Z" transform="translate(-198.67 -25.546)"/></g><path class="a" d="M208.071,38.448a1.033,1.033,0,0,0-1.093-.869c-.854-.031-.882.426-.9,1.295-.018,1.153-.005,2.306-.006,3.459a1.187,1.187,0,0,1-1.322,1.248c-.411.009-.532-.585-.525-.954.024-1.137.018-2.275,0-3.413a3.414,3.414,0,0,0-.123-.923.821.821,0,0,0-.89-.576c-.436.013-.525.19-.6.617a4.057,4.057,0,0,0-.08.693c0,.951.01,1.9.012,2.851,0,1.239-.236,1.7-1.584,1.65-.351-.014-.665-.61-.662-.9.013-1.262.008-2.525,0-3.786a2.116,2.116,0,0,0-.1-.641c-.109-.331-.134-.5-.526-.52a.788.788,0,0,0-.859.464,1.953,1.953,0,0,0-.136.728c-.013,1.62-.012,3.24-.008,4.861,0,1.061.715,1.469,1.894,1.475.962.005,1.926,0,2.888,0,.928,0,1.856,0,2.785,0,1.389,0,1.886-.213,1.892-1.484.008-1.543,0-3.085,0-4.628A3.62,3.62,0,0,0,208.071,38.448Z" transform="translate(71.119 4304.795)"/><path class="a" d="M204.8,47.8a47.934,47.934,0,0,0-5.047-.1,1.146,1.146,0,0,0-1.212,1.251c.023.663.486.595,1.311.622.723.024,1.449.005,2.174.005,0,.022.325-.031.325-.009.893,0,1.464.024,2.351.09.872.064,1.372,1.1,1.455,1.92a2.343,2.343,0,0,1-1.012,2.341,1.8,1.8,0,0,0-.32.3.784.784,0,0,0-.03,1.082.914.914,0,0,0,1.149.114,2.879,2.879,0,0,0,.4-.293,4.476,4.476,0,0,0,1.119-5.319A3.087,3.087,0,0,0,204.8,47.8Z" transform="translate(71.14 4303.132)"/></g></svg>