<svg xmlns="http://www.w3.org/2000/svg" width="175.66" height="27.118" viewBox="0 0 175.66 27.118"><defs><style>.a{fill:#3e3e3e;}</style></defs><g transform="translate(-314 -4323)"><path class="a" d="M264.762,469.666a1.159,1.159,0,0,1-.351.628,11.33,11.33,0,0,1-8.929,4.179,10.9,10.9,0,0,1-8.873-4.049,15.813,15.813,0,0,1,.055-18.892,10.928,10.928,0,0,1,8.893-4.1,10.519,10.519,0,0,1,8.669,3.789,1.166,1.166,0,0,1,.3.645,6.556,6.556,0,0,1-.979,1.86q-.982,1.541-1.184,1.542-.242,0-1.128-.9a9.949,9.949,0,0,0-2.05-1.665,6.979,6.979,0,0,0-3.513-.9,6.647,6.647,0,0,0-5.7,2.791,10.416,10.416,0,0,0-1.809,6.284,10.75,10.75,0,0,0,1.793,6.34,6.562,6.562,0,0,0,5.673,2.866,7.271,7.271,0,0,0,3.493-.9,10.5,10.5,0,0,0,2.257-1.682,6.378,6.378,0,0,1,1.054-.907,8.661,8.661,0,0,1,1.22,1.47A9.371,9.371,0,0,1,264.762,469.666Z" transform="translate(70.495 3875.608)"/><path class="a" d="M278.077,460.982a13.746,13.746,0,0,1-3.513,9.446,12.147,12.147,0,0,1-18.189.019,14.423,14.423,0,0,1,.036-18.909,12.03,12.03,0,0,1,18.134,0A13.7,13.7,0,0,1,278.077,460.982Zm-4.456-.055a9.478,9.478,0,0,0-2.254-6.3,7.4,7.4,0,0,0-5.933-2.849,7.284,7.284,0,0,0-5.88,2.885,10.089,10.089,0,0,0,0,12.624,7.284,7.284,0,0,0,5.88,2.885,7.382,7.382,0,0,0,5.95-2.885A9.647,9.647,0,0,0,273.621,460.926Z" transform="translate(83.651 3875.585)"/><path class="a" d="M287.313,460.5a14.177,14.177,0,0,1-2.957,8.984,10.009,10.009,0,0,1-8.245,4.121q-.96,0-2.892-.075t-2.892-.074c-.58,0-1.451.026-2.618.074s-2.036.075-2.615.075a.408.408,0,0,1-.462-.462q0-2.017.159-6.082t.156-6.1q0-2.144-.149-6.451t-.147-6.453c0-.257.159-.387.481-.387.455,0,1.136,0,2.043.019s1.586.017,2.043.017q.628,0,1.922-.017c.861-.014,1.516-.019,1.958-.019q6.413,0,9.557,2.42a11.3,11.3,0,0,1,3.494,4.677A14.47,14.47,0,0,1,287.313,460.5Zm-4.528,0a9.331,9.331,0,0,0-2.274-6.508,8.127,8.127,0,0,0-6.323-2.606,17.851,17.851,0,0,1-2.642-.036c-1.444.072-2.163.339-2.163.794q0,1.422-.065,4.261t-.065,4.261q0,1.4.065,4.215t.065,4.213q0,.7,2.218.813-.3-.018,2.7-.017a10.438,10.438,0,0,0,3.383-.445,6.424,6.424,0,0,0,2.791-2.052A10.482,10.482,0,0,0,282.785,460.5Z" transform="translate(100.2 3875.943)"/><path class="a" d="M280.388,473.215c0,.257-.18.387-.537.387-.224,0-.561-.019-1.018-.055s-.794-.055-1.018-.055-.577.017-1.035.055-.794.055-1.015.055q-.462,0-.462-.426,0-2.108.193-6.349t.195-6.369q0-2.05-.195-6.164t-.193-6.164c0-.308.14-.462.424-.462.236,0,.592.019,1.073.055s.845.055,1.09.055c.224,0,.556-.019,1-.055s.777-.055,1-.055c.32,0,.481.123.481.37q0,2.068-.149,6.21t-.147,6.21q0,2.126.156,6.378T280.388,473.215Z" transform="translate(115.205 3875.943)"/><path class="a" d="M303.861,469.666a1.159,1.159,0,0,1-.351.628,11.33,11.33,0,0,1-8.929,4.179,10.9,10.9,0,0,1-8.873-4.049,15.8,15.8,0,0,1,.055-18.892,10.928,10.928,0,0,1,8.893-4.1,10.519,10.519,0,0,1,8.669,3.789,1.167,1.167,0,0,1,.3.645,6.556,6.556,0,0,1-.979,1.86q-.982,1.541-1.184,1.542-.242,0-1.128-.9a9.951,9.951,0,0,0-2.05-1.665,6.979,6.979,0,0,0-3.513-.9,6.647,6.647,0,0,0-5.7,2.791,10.417,10.417,0,0,0-1.809,6.284,10.75,10.75,0,0,0,1.792,6.34,6.562,6.562,0,0,0,5.673,2.866,7.271,7.271,0,0,0,3.493-.9,10.5,10.5,0,0,0,2.257-1.682,6.38,6.38,0,0,1,1.054-.907,8.659,8.659,0,0,1,1.22,1.47A9.373,9.373,0,0,1,303.861,469.666Z" transform="translate(125.466 3875.608)"/><path class="a" d="M317.175,460.982a13.746,13.746,0,0,1-3.513,9.446,12.147,12.147,0,0,1-18.189.019,14.423,14.423,0,0,1,.036-18.909,12.03,12.03,0,0,1,18.134,0A13.7,13.7,0,0,1,317.175,460.982Zm-4.456-.055a9.479,9.479,0,0,0-2.254-6.3,7.406,7.406,0,0,0-5.936-2.849,7.283,7.283,0,0,0-5.878,2.885,10.09,10.09,0,0,0,0,12.624,7.283,7.283,0,0,0,5.878,2.885,7.383,7.383,0,0,0,5.952-2.885A9.646,9.646,0,0,0,312.719,460.926Z" transform="translate(138.623 3875.585)"/><path class="a" d="M326.411,460.5a14.177,14.177,0,0,1-2.957,8.984,10.012,10.012,0,0,1-8.245,4.121q-.96,0-2.892-.075t-2.894-.074c-.578,0-1.451.026-2.615.074s-2.035.075-2.615.075a.408.408,0,0,1-.462-.462q0-2.017.156-6.082t.159-6.1q0-2.144-.149-6.451t-.147-6.453c0-.257.159-.387.481-.387.455,0,1.136,0,2.04.019s1.588.017,2.045.017q.628,0,1.922-.017c.861-.014,1.513-.019,1.958-.019q6.413,0,9.557,2.42a11.3,11.3,0,0,1,3.493,4.677A14.47,14.47,0,0,1,326.411,460.5Zm-4.528,0a9.331,9.331,0,0,0-2.274-6.508,8.126,8.126,0,0,0-6.323-2.606,17.8,17.8,0,0,1-2.642-.036c-1.444.072-2.163.339-2.163.794q0,1.422-.065,4.261t-.065,4.261q0,1.4.065,4.215t.065,4.213q0,.7,2.218.813-.3-.018,2.7-.017a10.438,10.438,0,0,0,3.383-.445,6.424,6.424,0,0,0,2.791-2.052A10.483,10.483,0,0,0,321.883,460.5Z" transform="translate(155.172 3875.943)"/><path class="a" d="M319.484,473.215c0,.257-.178.387-.534.387-.224,0-.563-.019-1.018-.055s-.794-.055-1.018-.055-.578.017-1.035.055-.794.055-1.015.055q-.462,0-.462-.426,0-2.108.192-6.349t.195-6.369q0-2.05-.195-6.164t-.192-6.164c0-.308.139-.462.423-.462.236,0,.592.019,1.073.055s.845.055,1.09.055c.221,0,.556-.019,1-.055s.777-.055,1-.055c.32,0,.481.123.481.37q0,2.068-.149,6.21t-.147,6.21q0,2.126.156,6.378T319.484,473.215Z" transform="translate(170.177 3875.943)"/></g></svg>