<svg xmlns="http://www.w3.org/2000/svg" width="165" height="30.769" viewBox="0 0 165 30.769"><defs><style>.a{fill:#3e3e3e;}</style></defs><g transform="translate(-525 -4322)"><path class="a" d="M229.213,52.024c3.169,0,6.25-.175,9.328.043a6.588,6.588,0,0,1,6.519,6.578,5.1,5.1,0,0,1-1.25,3.716c-.385.431-.331.706.056,1.1a6.218,6.218,0,0,1,1.459,7.375,6.456,6.456,0,0,1-4.713,3.838,10.653,10.653,0,0,1-2.256.206c-3.019.022-6.041,0-9.131,0Zm6.4,9.437A14.457,14.457,0,0,0,238,61.434a4.71,4.71,0,0,0,2.231-.794,2.713,2.713,0,0,0-1.2-4.672,49.452,49.452,0,0,0-5.856-.047V71.074h5.975a2.972,2.972,0,0,0,.909-5.766A9.717,9.717,0,0,0,238.4,65.2c-.237-.022-.581-.069-.681-.225-.687-1.075-1.325-2.188-2.106-3.513Z" transform="translate(345.443 4277.532)"/><path class="a" d="M360.337,65.877l5.362,9.106c-1.484,0-2.794.031-4.1-.028-.235,0-.516-.353-.666-.606-2.234-3.75-4.447-7.525-6.781-11.478h2.7a3.415,3.415,0,0,0,3.537-3.262,3.2,3.2,0,0,0-2.728-3.525,57.936,57.936,0,0,0-5.938-.047V74.915H347.84V52.184c.269-.019.522-.053.778-.053,2.731,0,5.466-.094,8.191.022A7.259,7.259,0,0,1,363.9,57.18a6.947,6.947,0,0,1-2.781,8.153C360.881,65.492,360.65,65.664,360.337,65.877Z" transform="translate(253.541 4277.426)"/><path class="a" d="M657.421,52.357a1.027,1.027,0,0,1,.231-.05c1.047.081,2.369-.19,3.063.35s.869,1.9,1.25,2.91q3.55,9.225,7.091,18.438c.125.312.225.653.394,1.137-1.337,0-2.581.031-3.822-.031-.206,0-.469-.394-.572-.656-.6-1.488-1.153-2.99-1.741-4.534-2.716,0-5.412-.019-8.106.028-.26,0-.625.369-.75.653-.513,1.25-.963,2.5-1.409,3.775a.966.966,0,0,1-1.075.784c-1.05-.053-2.106,0-3.391,0Zm1.6,6.269-2.813,7.534h5.719Z" transform="translate(20.551 4277.261)"/><path class="a" d="M118.474,75.136c-1.269,0-2.437.028-3.6-.025-.219,0-.516-.312-.625-.559-.565-1.341-1.056-2.712-1.637-4.044a1.09,1.09,0,0,0-.778-.572q-3.75-.066-7.5,0a1.091,1.091,0,0,0-.791.562c-.538,1.25-1.034,2.544-1.469,3.844a1.038,1.038,0,0,1-1.222.812h0c-1.016-.05-2.037,0-3.219,0,.725-1.85,1.4-3.547,2.053-5.25,2.188-5.691,4.375-11.385,6.6-17.066.094-.241.469-.375.719-.547.041-.028.116,0,.175,0,2.547-.038,2.5,0,3.4,2.388,2.006,5.294,4.081,10.559,6.122,15.837C117.3,71.989,117.852,73.486,118.474,75.136Zm-7.5-9-2.866-7.572-2.875,7.572Z" transform="translate(447.382 4277.282)"/><path class="a" d="M542.031,58.064a7.5,7.5,0,0,0-7.169-2.956,7.6,7.6,0,0,0-5,2.641,8.547,8.547,0,0,0,.587,11.019,8.044,8.044,0,0,0,11.363-.532q.171-.188.331-.387l2.647,2.76a10.245,10.245,0,0,1-6.006,3.75,11.562,11.562,0,0,1-10.266-2.219,11.294,11.294,0,0,1-4.225-10.5,11.032,11.032,0,0,1,3.169-6.856,10.768,10.768,0,0,1,5.981-3.238,13.643,13.643,0,0,1,5.719.16A11.476,11.476,0,0,1,544.3,54.73a.6.6,0,0,1,0,.575C543.6,56.208,542.843,57.092,542.031,58.064Z" transform="translate(116.928 4278.026)"/><path class="a" d="M12.548,75.2H8.8V52.418H24.476v3.669H12.6v6.075h9.338v3.75H12.564Z" transform="translate(516.202 4277.175)"/><path class="a" d="M465.58,75.3V52.488h3.769c.019.26.056.541.056.819q0,10.519.016,21.041c0,.713-.172,1-.938.937C467.564,75.254,466.627,75.3,465.58,75.3Z" transform="translate(162.326 4277.121)"/><path class="a" d="M150.782,22.527h-6.947l1.513-3.816h5.434Z" transform="translate(411.587 4303.289)"/></g></svg>