<svg xmlns="http://www.w3.org/2000/svg" width="157.902" height="48.76" viewBox="0 0 157.902 48.76"><defs><style>.a{fill:#3e3e3e;}</style></defs><g transform="translate(-725 -4318)"><path class="a" d="M199.724,34.224h-17.7c-.7,0-.941.313-.693.985a7.424,7.424,0,0,0,6.63,5.243,10.345,10.345,0,0,0,1.127.054h6.42v2.75a2.018,2.018,0,0,1-.238.025c-2.3,0-4.612.051-6.907-.022a10.1,10.1,0,0,1-10.072-8.79,11.685,11.685,0,0,1,.662-6.566,9.7,9.7,0,0,1,6.923-5.893,11.408,11.408,0,0,1,9.632,1.607,9.7,9.7,0,0,1,4.1,6.722c.038.223.084.446.126.666Zm-10.8-2.776h7.168c.54,0,.82-.292.726-.772a7.224,7.224,0,0,0-2.612-4.449,8.526,8.526,0,0,0-6.157-1.755,7.575,7.575,0,0,0-6.939,6.047c-.138.653.082.942.745.942Z" transform="translate(683.172 4309.416)"/><path class="a" d="M73.35,57.349v-35.7a.531.531,0,0,1,.12-.038c1.843,0,3.692-.043,5.528.051a10.024,10.024,0,0,1,9.488,8.012,11.382,11.382,0,0,1-1.633,9.24,9.684,9.684,0,0,1-6.816,4.166c-.352.056-.707.084-1.061.122h-.339V40.53a22.791,22.791,0,0,0,2.471-.628,7.127,7.127,0,0,0,4.5-4.819,8.24,8.24,0,0,0-1.322-7.811,7.357,7.357,0,0,0-5.491-2.845c-.666-.056-1.341-.034-2.009-.037a.606.606,0,0,0-.666.539.657.657,0,0,0,0,.088V57.336Z" transform="translate(705.218 4309.411)"/><path class="a" d="M45.751,43.264H42.978V27.4a5.4,5.4,0,0,1,2.139-4.6,6.221,6.221,0,0,1,7.353.144c.5.405.628.405,1.137,0a6.056,6.056,0,0,1,8.5,1.067l.041.054a5.684,5.684,0,0,1,.942,3.24V42.981a1.938,1.938,0,0,1-.016.292H60.312V27.368a2.8,2.8,0,0,0-1.862-2.716,3.058,3.058,0,0,0-3.375.853,3.02,3.02,0,0,0-.644,2.019v15.74H51.644V27.4a2.7,2.7,0,0,0-1.535-2.609,2.964,2.964,0,0,0-3.184.235,2.724,2.724,0,0,0-1.149,2.386V42.834Z" transform="translate(711.613 4309.396)"/><path class="a" d="M123.023,40.5v2.744a.452.452,0,0,1-.116.028c-2.389,0-4.779.054-7.168-.021a10.075,10.075,0,0,1-6.86-2.77,10.322,10.322,0,0,1-3.045-5.821,11.727,11.727,0,0,1,.756-7.035,9.706,9.706,0,0,1,6.769-5.6,11.423,11.423,0,0,1,9.657,1.6,9.418,9.418,0,0,1,4.082,6.66,36.524,36.524,0,0,1,.179,3.786.744.744,0,0,1-.035.148H109.316a.578.578,0,0,0-.572.583.588.588,0,0,0,.035.192,7.368,7.368,0,0,0,5.8,5.312,9.874,9.874,0,0,0,1.934.182c2.031.022,4.065,0,6.1,0Zm-6.536-9.061h7.167c.524,0,.776-.279.681-.772a7.184,7.184,0,0,0-2.643-4.462,8.477,8.477,0,0,0-6.194-1.717,7.535,7.535,0,0,0-6.873,6.044c-.138.628.078.91.726.91Z" transform="translate(698.429 4309.414)"/><path class="a" d="M5.5,39.8V37.042h.361c3.14,0,6.28.028,9.419,0a6.867,6.867,0,0,0,5-1.99A6.476,6.476,0,0,0,21.895,31.6a5.964,5.964,0,0,0-1.57-5.68,16.266,16.266,0,0,0-2.151-1.673c-2.311-1.645-4.644-3.259-6.951-4.911a34.072,34.072,0,0,1-2.9-2.248A7.186,7.186,0,0,1,7.139,6.993c.089-.114.183-.225.279-.333a4.552,4.552,0,0,1,3.438-1.525c3.583-.032,7.168,0,10.75,0h.2V7.859H11.823a3.474,3.474,0,0,0-2.433.854,3.559,3.559,0,0,0-1.03,2.546A4.4,4.4,0,0,0,9.782,14.65a20.575,20.575,0,0,0,3.359,2.669c2.684,1.884,5.381,3.74,8.035,5.651A9.011,9.011,0,0,1,24.36,33.108a9.4,9.4,0,0,1-1.686,3.369,9.206,9.206,0,0,1-5.554,3.115,11.754,11.754,0,0,1-2.091.182c-3.048.019-6.1,0-9.149,0Z" transform="translate(719.5 4312.879)"/><path class="a" d="M177.807,17.033h-4.634c-.527,0-.747.216-.75.737V39.824h-2.779V11.746a6.15,6.15,0,0,1,3.319-5.777,5.319,5.319,0,0,1,2.427-.675c.794-.025,1.589,0,2.411,0V8.016l-.349.015a18.491,18.491,0,0,0-2.163.066,3.353,3.353,0,0,0-2.866,3.41v2.041c0,.5.232.722.741.722h4.644Z" transform="translate(684.951 4312.845)"/><path class="a" d="M146.693,5.249v31.02c0,.534.214.747.741.747h5.6V39.8h-9.086V5.262Z" transform="translate(690.357 4312.852)"/><path class="a" d="M97.334,5.241h2.735v34.6H97.334Z" transform="translate(700.17 4312.854)"/><path class="a" d="M163.2,43.246h-2.754V21.7H163.2Z" transform="translate(686.886 4309.389)"/><path class="a" d="M34.57,21.689h2.721V43.255H34.57Z" transform="translate(713.381 4309.392)"/><path class="a" d="M37.307,5.241V7.988H34.57V5.241Z" transform="translate(713.381 4312.854)"/><path class="a" d="M163.163,7.991h-2.735V5.253h2.735Z" transform="translate(686.889 4312.852)"/></g></svg>