<svg xmlns="http://www.w3.org/2000/svg" xmlns:xlink="http://www.w3.org/1999/xlink" width="152" height="67.987" viewBox="0 0 152 67.987"><defs><style>.a{fill:#3e3e3e;}.b{clip-path:url(#a);}</style><clipPath id="a"><rect class="a" width="152" height="67.987"/></clipPath></defs><g transform="translate(-1113 -4303)"><path class="a" d="M7.964,43.774v23.7h4.959a11.436,11.436,0,0,0,8.369-3.461,11.846,11.846,0,0,0,0-16.772,11.438,11.438,0,0,0-8.369-3.463H7.964m4.959,24.657H7V42.81h5.922a12.344,12.344,0,0,1,9.048,3.765,12.8,12.8,0,0,1,0,18.094,12.335,12.335,0,0,1-9.048,3.763" transform="translate(1106 4284.563)"/><path class="a" d="M30.859,43.64a12.123,12.123,0,0,0-12.1,12.1,12.126,12.126,0,0,0,12.1,12.1,12.123,12.123,0,0,0,12.1-12.1,12.12,12.12,0,0,0-12.1-12.1m0,25.156a12.534,12.534,0,0,1-9.224-3.835,13.012,13.012,0,0,1,0-18.449,12.541,12.541,0,0,1,9.224-3.835,12.548,12.548,0,0,1,9.226,3.835,13.012,13.012,0,0,1,0,18.449A12.541,12.541,0,0,1,30.859,68.8" transform="translate(1115.219 4284.448)"/><path class="a" d="M50.312,68.431H48.8L34.058,43.774V68.431h-.964V42.81h1.5L49.348,67.486V42.81h.963V68.431" transform="translate(1128.275 4284.563)"/><path class="a" d="M60.49,43.292l-11.009,17.4H60.49v-17.4m.945,25.139H60.49V61.652H48.875l-4.282,6.779H43.451l4.8-7.581v-.161h.089L59.652,42.81h1.783V68.431" transform="translate(1137.117 4284.563)"/><path class="a" d="M81.026,71.285H77.745L70.275,56.9H62.647V71.262H59.722V39.448H71.161a8.746,8.746,0,0,1,8.714,8.736,8.713,8.713,0,0,1-6.453,8.423l7.6,14.677M71.161,53.97a5.8,5.8,0,0,0,0-11.595H62.647V53.97Z" transform="translate(1151.007 4281.693)"/><path class="a" d="M76.258,69.76a16.189,16.189,0,0,1,0-22.946A16.218,16.218,0,0,1,103.948,58.3,16.209,16.209,0,0,1,76.258,69.76M78.319,48.9a13.273,13.273,0,0,0,0,18.8,13.3,13.3,0,0,0,22.7-9.4,13.293,13.293,0,0,0-22.7-9.4ZM85.346,36.04l-2.925,5.01h3.392l1.906-3.281,1.907,3.281h3.392l-2.927-5.01Z" transform="translate(1161.052 4278.784)"/><path class="a" d="M24.173,69.493a2.542,2.542,0,0,1-1.162-.328,1.738,1.738,0,0,1-.812-.908l.235-.089a1.5,1.5,0,0,0,.717.792,2.365,2.365,0,0,0,1.031.285,2.046,2.046,0,0,0,1.411-.426,1.326,1.326,0,0,0,.552-1.012q.047-1.093-1.856-1.626a3.806,3.806,0,0,1-1.546-.76,1.37,1.37,0,0,1-.493-1.1,1.566,1.566,0,0,1,.769-1.355,2.5,2.5,0,0,1,1.457-.323,2.274,2.274,0,0,1,1.64.7l-.187.174a2.031,2.031,0,0,0-1.463-.623,2.308,2.308,0,0,0-1.316.285,1.329,1.329,0,0,0-.647,1.153q-.047,1.079,1.856,1.613a3.738,3.738,0,0,1,1.546.764,1.381,1.381,0,0,1,.493,1.11,1.591,1.591,0,0,1-.652,1.2A2.237,2.237,0,0,1,24.3,69.5l-.122-.006" transform="translate(1118.975 4301.489)"/><path class="a" d="M36.789,62.673v.253H34.718V69.4h-.253V62.926H32.393v-.253h4.4" transform="translate(1127.677 4301.519)"/><path class="a" d="M42.995,68.491A3.415,3.415,0,1,1,45.417,69.5a3.295,3.295,0,0,1-2.423-1.008m.18-4.668a3.166,3.166,0,1,0,2.243-.932A3.047,3.047,0,0,0,43.174,63.823Z" transform="translate(1135.868 4301.488)"/><path class="a" d="M57.726,69.4l-1.674-3.22H54.019V69.4h-.252V62.673h2.365a1.759,1.759,0,0,1,1.754,1.757,1.757,1.757,0,0,1-1.557,1.742L58.008,69.4h-.282M54.019,65.93h2.113a1.5,1.5,0,0,0,0-3H54.019Z" transform="translate(1145.923 4301.519)"/><g transform="translate(1113 4303)"><g class="b"><path class="a" d="M67.582,62.673v.253H64.4V65.9h2.564v.248H64.4v3h3.187V69.4h-3.44v-6.73h3.44" transform="translate(41.78 -1.481)"/><path class="a" d="M38.768,41.635c-.033-.146-.067-.293-.1-.437a.936.936,0,0,1,.534-.46,2.538,2.538,0,0,0,.484-.271,17.486,17.486,0,0,0,3.12-2.6c.334-.343.437-.369.836-.187.243.4.222.551-.087.893a17.453,17.453,0,0,1-2.045,1.88c.135,0,.211.052.308.022.986-.3,2.024-.354,3.014-.675.866-.278,1.757-.493,2.627-.767.441-.137.868-.315,1.3-.476.491-.184.971-.41,1.476-.549a7.12,7.12,0,0,1,3.307-.009,2.4,2.4,0,0,0,2.195-.4,7.873,7.873,0,0,1,1.008-.69,5.628,5.628,0,0,1,2.415-.956c1.11-.095,2.219-.195,3.322-.332.884-.109,1.75-.341,2.63-.476.843-.13,1.633-.484,2.475-.63a.269.269,0,0,0,.232-.185,22.786,22.786,0,0,1-5.47-2.026,17.9,17.9,0,0,0-4.219-1.507,4.325,4.325,0,0,0-1.527-.061,2.453,2.453,0,0,0-1.813,1.52,2.438,2.438,0,0,1-.424.769,1.289,1.289,0,0,1-1.909-.1,2.722,2.722,0,0,0-1.572-.749,3.035,3.035,0,0,0-2.158.79,18.471,18.471,0,0,0-3.4,3.522c-.326.419-.528.488-.964.289-.232-.393-.195-.513.093-.886.421-.547.868-1.066,1.324-1.579A13.724,13.724,0,0,1,48.4,31.915c.365-.245.773-.4,1.155-.615l.751-.172c.159.128.313-.02.478-.013a3.973,3.973,0,0,1,2.48,1.118c.226.2.326.182.437-.1A4.183,4.183,0,0,1,55.027,30.3c.245-.187.547-.26.784-.45l.814-.189c.336,0,.671-.015,1,.011a14.665,14.665,0,0,1,4.434,1.331c.758.317,1.5.686,2.241,1.036a19.248,19.248,0,0,0,2.5.947,11.869,11.869,0,0,0,2.934.58c.337.017.728-.085,1.021.208.033.146.067.293.1.437-.119.061-.117.2-.2.293a24.348,24.348,0,0,0-2.7,3.44c-.185.3-.4.638-.866.489a.553.553,0,0,1-.158-.89c.513-.769,1.055-1.518,1.672-2.284a1.3,1.3,0,0,0-.235.056,12.794,12.794,0,0,1-1.767.517,13.455,13.455,0,0,1-1.9.415c-.888.159-1.774.33-2.666.46-.447.065-.9.089-1.349.133-.532.052-1.073.069-1.6.165a5.836,5.836,0,0,0-2.3,1.123,4.85,4.85,0,0,1-1.666.916,4.93,4.93,0,0,1-2.024-.07,5.764,5.764,0,0,0-2.56.009c-.656.184-1.277.484-1.92.712a27.714,27.714,0,0,1-3.118.971,1.771,1.771,0,0,0-.341.087,6.94,6.94,0,0,1-1.917.478,11.812,11.812,0,0,1-1.939.334c.675.374,1.34.73,2.008,1.088a13.728,13.728,0,0,1,1.831,1.2,12.025,12.025,0,0,0,2.517,1.587,6.191,6.191,0,0,0,3.755.376,35.753,35.753,0,0,0,4.237-1.168A15.046,15.046,0,0,1,58,44.188c.336-.054.665-.133,1-.176a13.443,13.443,0,0,0,3.127-.743,6.794,6.794,0,0,0,3.522-3.338c.263-.488.347-.541.881-.432a.727.727,0,0,1,.091.843,12.662,12.662,0,0,1-1.279,1.889,7.125,7.125,0,0,1-2.436,1.813,3.629,3.629,0,0,0-.83.373l-2.814.651-.072-.043c-.719.163-1.453.245-2.178.369-1.023.174-1.98.6-2.992.821-.044.009-.076.03-.074.082l-2.816.651c-.213-.1-.424.017-.632.03a7.248,7.248,0,0,1-4.111-.984c-1.372-.78-2.508-1.915-3.932-2.617-.552-.272-1.1-.564-1.653-.836-.669-.323-1.385-.538-2.035-.9" transform="translate(20.034 -29.662)"/></g></g></g></svg>