<svg xmlns="http://www.w3.org/2000/svg" width="172" height="32.911" viewBox="0 0 172 32.911"><defs><style>.a{fill:#3e3e3e;}</style></defs><g transform="translate(-7.289 -9.55)"><path class="a" d="M7.289,41.939c0-.489.419-.8,1.013-.8,2.935,0,3.844-2.585,3.844-7.687v-22.6a.923.923,0,0,1,1.048-.908.952.952,0,0,1,1.013.908V33.728c0,5.555-1.817,8.979-5.9,8.979C7.708,42.707,7.289,42.428,7.289,41.939Z" transform="translate(0 -0.246)"/><path class="a" d="M42.965,74.989A2,2,0,0,1,44.851,73a1.978,1.978,0,0,1,0,3.948A1.987,1.987,0,0,1,42.965,74.989Z" transform="translate(-22.75 -40.458)"/><path class="a" d="M66.132,35.615l-8.7-24.631c-.21-.629.245-1.048.838-1.048a1.136,1.136,0,0,1,1.153.838l8.14,23.094L75.74,10.774a1.164,1.164,0,0,1,1.153-.838.761.761,0,0,1,.8,1.048L69,35.615a1.508,1.508,0,0,1-1.4.908A1.379,1.379,0,0,1,66.132,35.615Z" transform="translate(-31.942 -0.246)"/><path class="a" d="M129.2,35.929a.952.952,0,0,1-1.013.909.924.924,0,0,1-1.048-.909V10.844a.924.924,0,0,1,1.048-.908.952.952,0,0,1,1.013.908Z" transform="translate(-76.424 -0.246)"/><path class="a" d="M149.8,23.77c0,7.3,3.354,11.355,9.084,11.355a8.006,8.006,0,0,0,7.826-5.45c.209-.559.384-.873.943-.873.489,0,.768.314.768.873a3,3,0,0,1-.14.838c-.873,2.9-3.913,6.254-9.328,6.254-6.6,0-11.18-4.507-11.18-13,0-8.735,4.856-14.22,11.18-14.22,5.974,0,7.651,3.109,8.385,5.625a2.728,2.728,0,0,1,.139.769.88.88,0,0,1-.943.943c-.629,0-.838-.349-1.083-1.153-.524-1.817-1.712-4.542-6.463-4.542C153.569,11.192,149.8,16.433,149.8,23.77Z" transform="translate(-89.581)"/><path class="a" d="M218.95,13.161v23.2a.952.952,0,0,1-1.013.909.924.924,0,0,1-1.048-.909v-23.2h-7.3a.879.879,0,1,1,0-1.747h12.123a9.445,9.445,0,0,0,4.262-.734c.1-.035-.314-.07.384-.07a.894.894,0,0,1,.908.874c0,.8-1.712,1.677-5.555,1.677Z" transform="translate(-128.376 -0.677)"/><path class="a" d="M285.758,23.071c0,8.525-4.193,13.7-11.564,13.7-7.2,0-11.494-5.17-11.494-13.7,0-8.735,4.891-13.521,11.564-13.521S285.758,14.336,285.758,23.071Zm-20.928,0c0,7.337,3.04,12.054,9.4,12.054s9.4-4.717,9.4-12.054c0-7.3-3.669-11.879-9.4-11.879C268.464,11.192,264.83,15.769,264.83,23.071Z" transform="translate(-162.868)"/><path class="a" d="M344.823,29.417c0-.664.42-.839.944-.943C349.889,27.74,356,25.329,356,19.46c0-4.192-2.76-6.918-8.56-6.918h-4.3v24a.963.963,0,0,1-1.048.909.912.912,0,0,1-1.013-.909V11.983A1.036,1.036,0,0,1,342.2,10.9h5.45c6.6,0,10.377,3.145,10.377,8.63,0,4.821-3.459,8-7.442,9.573a27.741,27.741,0,0,1,3.6,4.053c1.048,1.328,2.061,2.236,3.738,2.236,1.013,0,1.4.314,1.4.874,0,.524-.384.838-1.432.838a6.2,6.2,0,0,1-5.276-2.62c-2.655-3.389-3.319-4.577-4.787-4.577a15.076,15.076,0,0,0-1.817.28C345.487,30.221,344.823,30.115,344.823,29.417Z" transform="translate(-212.853 -0.861)"/><path class="a" d="M408.033,35.929a.952.952,0,0,1-1.013.909.924.924,0,0,1-1.048-.909V10.844a.924.924,0,0,1,1.048-.908.952.952,0,0,1,1.013.908Z" transform="translate(-254.23 -0.246)"/><path class="a" d="M437.4,10.879l8.7,24.911a.772.772,0,0,1-.8,1.048A1.206,1.206,0,0,1,444.106,36L442.5,31.423H429.362L427.79,36a1.1,1.1,0,0,1-1.118.839c-.629,0-1.048-.42-.838-1.048l8.7-24.911a1.444,1.444,0,0,1,1.432-.943A1.5,1.5,0,0,1,437.4,10.879Zm-7.477,18.9h12.018l-6.009-17.4Z" transform="translate(-266.86 -0.246)"/></g></svg>