<svg xmlns="http://www.w3.org/2000/svg" width="118.884" height="57.309" viewBox="0 0 118.884 57.309"><defs><style>.a,.b,.c{fill:#3e3e3e;}.b{stroke:#100e0c;stroke-width:0.536px;}.c{fill-rule:evenodd;}</style></defs><g transform="translate(-11.732 -12.789)"><path class="a" d="M12,169.64v-.05h3.134V146.281H12v-.048h9.663v.048H18.529V169.59h4.865c5.419,0,7.459-1.355,7.851-8.765h.049l-.36,8.815Z" transform="translate(0 -100.266)"/><path class="a" d="M12,169.64v-.05h3.134V146.281H12v-.048h9.663v.048H18.529V169.59h4.865c5.419,0,7.459-1.355,7.851-8.765h.049l-.36,8.815Z" transform="translate(0 -100.266)"/><path class="b" d="M12,169.64v-.05h3.134V146.281H12v-.048h9.663v.048H18.529V169.59h4.865c5.419,0,7.459-1.355,7.851-8.765h.049l-.36,8.815Z" transform="translate(0 -100.266)"/><path class="a" d="M132.458,146.281v-.048h9.663v.048h-3.133V164.53c0,3.624,1.68,5.518,5.189,5.518,4.489,0,7.819-2.317,7.819-7.036V146.281h-3.33v-.048h6.709v.048h-3.33v16.731c0,4.832-3.51,7.084-7.868,7.084q-8.593,0-8.585-7.573V146.281Z" transform="translate(-90.508 -100.266)"/><path class="a" d="M132.457,146.281v-.048h9.663v.048h-3.133V164.53c0,3.624,1.68,5.518,5.189,5.518,4.489,0,7.819-2.317,7.819-7.036V146.281h-3.329v-.048h6.709v.048h-3.33v16.731c0,4.832-3.51,7.084-7.868,7.084q-8.593,0-8.585-7.573V146.281Z" transform="translate(-90.508 -100.266)"/><path class="b" d="M132.457,146.281v-.048h9.663v.048h-3.133V164.53c0,3.624,1.68,5.518,5.189,5.518,4.489,0,7.819-2.317,7.819-7.036V146.281h-3.329v-.048h6.709v.048h-3.33v16.731c0,4.832-3.51,7.084-7.868,7.084q-8.593,0-8.585-7.573V146.281Z" transform="translate(-90.508 -100.266)"/><path class="a" d="M276.853,169.59h2.024v.05H267.124v-.05h5.6l-7.068-11.149-7.084,11.149h5.419v.05h-8.978v-.05h3.494l7.116-11.2-7.672-12.113h-2.938v-.048H266.7v.048h-4.619l5.6,8.863,5.632-8.863h-4.326v-.048h7.965v.048h-3.574l-5.664,8.913Z" transform="translate(-182.592 -100.265)"/><path class="a" d="M276.852,169.59h2.024v.05H267.123v-.05h5.6l-7.068-11.149-7.084,11.149h5.419v.05h-8.978v-.05h3.494l7.116-11.2-7.672-12.112h-2.938v-.048H266.7v.048H262.08l5.6,8.863,5.632-8.863h-4.326v-.048h7.965v.048h-3.574l-5.664,8.913Z" transform="translate(-182.591 -100.266)"/><path class="b" d="M276.852,169.59h2.024v.05H267.123v-.05h5.6l-7.068-11.149-7.084,11.149h5.419v.05h-8.978v-.05h3.494l7.116-11.2-7.672-12.112h-2.938v-.048H266.7v.048H262.08l5.6,8.863,5.632-8.863h-4.326v-.048h7.965v.048h-3.574l-5.664,8.913Z" transform="translate(-182.591 -100.266)"/><path class="a" d="M408.894,144.391c6.757,0,11.23,5.976,11.23,12.242,0,6.58-4.734,12.079-11.23,12.079-6.775,0-11.23-5.811-11.23-12.079,0-6.513,4.652-12.242,11.23-12.242m0,24.273c5.582,0,7.41-4.635,7.41-12.031,0-5.141-1.11-12.192-7.41-12.192s-7.411,7.034-7.411,12.192C401.483,164.029,404.045,168.664,408.894,168.664Z" transform="translate(-289.776 -98.882)"/><path class="a" d="M408.894,144.391c6.757,0,11.23,5.976,11.23,12.242,0,6.58-4.734,12.079-11.23,12.079-6.775,0-11.23-5.811-11.23-12.079C397.664,150.12,402.316,144.391,408.894,144.391Zm0,24.273c5.582,0,7.41-4.635,7.41-12.031,0-5.141-1.11-12.192-7.41-12.192s-7.411,7.034-7.411,12.192C401.483,164.029,404.045,168.664,408.894,168.664Z" transform="translate(-289.776 -98.882)"/><path class="b" d="M408.894,144.391c6.757,0,11.23,5.976,11.23,12.242,0,6.58-4.734,12.079-11.23,12.079-6.775,0-11.23-5.811-11.23-12.079C397.664,150.12,402.316,144.391,408.894,144.391Zm0,24.273c5.582,0,7.41-4.635,7.41-12.031,0-5.141-1.11-12.192-7.41-12.192s-7.411,7.034-7.411,12.192C401.483,164.029,404.045,168.664,408.894,168.664Z" transform="translate(-289.776 -98.882)"/><path class="a" d="M108.482,227.039l2.077-2.076,2.078,2.076-2.078,2.078Zm.519,0,1.558,1.56,1.556-1.56-1.556-1.555Zm.607,0,.951-.951.951.951-.951.954Z" transform="translate(-72.494 -159.421)"/><path class="a" d="M226.092,227.039l2.078-2.076,2.077,2.076-2.077,2.078Zm.519,0,1.56,1.56,1.556-1.56-1.556-1.555Zm.609,0,.951-.951.951.951-.951.954Z" transform="translate(-160.862 -159.421)"/><path class="a" d="M366.482,225.743l2.077-2.076,2.077,2.076-2.077,2.078Zm.517,0,1.559,1.56,1.556-1.56-1.556-1.555Zm.609,0,.95-.949.951.949-.951.954Z" transform="translate(-266.347 -158.447)"/><path class="c" d="M215.425,17.121c-1.255-1.6-2.786-1.61-4.41-.928a3.316,3.316,0,0,0-3.445-2.048,9.9,9.9,0,0,0-6.215,2.706h0a3.772,3.772,0,0,1-1.318.167,2.172,2.172,0,1,0-1.315,0,3.741,3.741,0,0,1-1.317-.166h0a9.9,9.9,0,0,0-6.215-2.706,3.317,3.317,0,0,0-3.445,2.048c-1.624-.682-3.156-.669-4.411.928A5.584,5.584,0,0,0,182.3,21.48a9.666,9.666,0,0,0,2.007,4.416,10.94,10.94,0,0,0,3.9,3.008v1.208h22.348V28.9a10.94,10.94,0,0,0,3.9-3.008,9.673,9.673,0,0,0,2.007-4.416,5.581,5.581,0,0,0-1.031-4.358M209.452,17a14.585,14.585,0,0,1-6.116,1.74,9.874,9.874,0,0,1-1.706-.033C203.452,15.813,208.12,13.751,209.452,17ZM197.125,18.7a9.879,9.879,0,0,1-1.706.033A14.588,14.588,0,0,1,189.3,17C190.635,13.751,195.3,15.813,197.125,18.7Zm-8.8,8.447a7.854,7.854,0,0,1-2.459-2.041,7.838,7.838,0,0,1-2.091-4.165c-.284-2.191.887-4.45,3.479-2.877a11.752,11.752,0,0,0,2.141,7.728C190.454,27.123,189.335,27.622,188.327,27.149Zm1.906,1.754a2.359,2.359,0,0,0,.617-1.68l1.871,1.68Zm5.437-5.133c-1.851-1.187-2.66.268-1.221,1.706.422.422,1.393,1.34.652,2.3-.2.254-.568.757-.568.757a18.808,18.808,0,0,1-2.308-2.107c.317-.662.8-3.523-2.944-4.3a8.839,8.839,0,0,1-.385-3.609,21.145,21.145,0,0,0,7.209,1.07s-.85.81.334,2.325c.688.88,1.3,1.355.8,1.957C197.006,24.156,196.323,24.189,195.67,23.771Zm1.02,5.156,2.713-3.076,2.691,3.076Zm6.965-1.146c-.742-.964.229-1.882.651-2.3,1.438-1.439.629-2.893-1.221-1.706-.652.418-1.335.385-1.572.1-.5-.6.115-1.077.8-1.957,1.184-1.515.334-2.325.334-2.325a21.146,21.146,0,0,0,7.209-1.07,8.847,8.847,0,0,1-.386,3.609c-3.747.781-3.261,3.642-2.944,4.3a18.765,18.765,0,0,1-2.308,2.107S203.851,28.034,203.655,27.781Zm2.379,1.123,1.871-1.68a2.353,2.353,0,0,0,.617,1.68Zm8.944-7.96a7.838,7.838,0,0,1-2.09,4.165,7.852,7.852,0,0,1-2.46,2.041c-1.008.473-2.126-.026-1.07-1.355a11.753,11.753,0,0,0,2.141-7.728C214.092,16.494,215.262,18.752,214.978,20.944Z" transform="translate(-127.913)"/><rect class="a" width="22.364" height="2.417" transform="translate(60.271 31.32)"/></g></svg>