<svg xmlns="http://www.w3.org/2000/svg" width="139.677" height="28.187" viewBox="0 0 139.677 28.187"><defs><style>.a{fill:#3e3e3e;}</style></defs><g transform="translate(-4.937 -6.546)"><path class="a" d="M4.937,35.377a38.11,38.11,0,0,0,3.859-5.8,92.028,92.028,0,0,0,4.086-8.522q1.795-4.189,2.961-7.49A20.183,20.183,0,0,0,17.008,9.6a2.607,2.607,0,0,0-.082-.65,3.873,3.873,0,0,0-.248-.671h5.241q3.074,10.235,5.8,17.272A50.149,50.149,0,0,0,32.4,35.377H27.78L23.529,23.636H13.665L11.85,28.072l-.041.1a17.914,17.914,0,0,0-1.692,5.9,3.816,3.816,0,0,0,.052.609,6.3,6.3,0,0,0,.155.691Zm9.41-13.309h8.543L18.907,11.151Z" transform="translate(0 -1.242)"/><path class="a" d="M118.106,35.975l-9.76-25.154-.082,18.468V30.61a14.578,14.578,0,0,0,.227,2.951,5.365,5.365,0,0,0,.743,1.816h-4.808q1.2-1.052,1.733-6.737t.537-17.385a5.243,5.243,0,0,0-.237-1.733,3.372,3.372,0,0,0-.815-1.238h4.725a1.283,1.283,0,0,1,.763.155,1.453,1.453,0,0,1,.351.608l7.635,20.408,8.5-20.2a1.687,1.687,0,0,1,.506-.774,1.594,1.594,0,0,1,.9-.2h4.127a4.972,4.972,0,0,0-.774,2.218,30.389,30.389,0,0,0-.237,4.385q0,10.606.444,14.847t1.537,5.644h-6.211a6.185,6.185,0,0,0,.856-2.259,22.04,22.04,0,0,0,.258-3.869c0-.013-.007-.1-.021-.268q-.041-1.609-.082-3.384l-.248-14.774Z" transform="translate(-71.136 -1.242)"/><path class="a" d="M222.884,35.377a5.466,5.466,0,0,0,.815-2.848q.237-2.228.237-9.533V21.263q0-7.965-.237-10.163a5.4,5.4,0,0,0-.815-2.817h5.736a5.136,5.136,0,0,0-.815,2.745q-.238,2.146-.237,9.141V23.45q0,7.016.237,9.172a5.154,5.154,0,0,0,.815,2.755Z" transform="translate(-155.836 -1.242)"/><path class="a" d="M255.9,33.041v-4.6a8.549,8.549,0,0,0,7.614,4.292,5.6,5.6,0,0,0,3.993-1.445,4.845,4.845,0,0,0,1.537-3.694,4.937,4.937,0,0,0-1.032-3.1,10.87,10.87,0,0,0-3.487-2.662l-.557-.309q-7.14-3.9-7.14-7.924a6.246,6.246,0,0,1,2.435-5.087,9.788,9.788,0,0,1,6.356-1.97q1.258,0,2.755.082t1.744.083c.054,0,.168.007.34.021s.32.021.444.021h1.073v4.395A5.233,5.233,0,0,0,269.737,9.1a7.551,7.551,0,0,0-3.353-.7,6.756,6.756,0,0,0-4.168,1.156,3.7,3.7,0,0,0-1.527,3.116q0,2.909,5.592,5.86.186.083.268.124a16.663,16.663,0,0,1,5.014,3.673,6.262,6.262,0,0,1,1.506,4.106,7.4,7.4,0,0,1-2.8,5.809,10.189,10.189,0,0,1-6.882,2.4,16.653,16.653,0,0,1-3.467-.392A28.117,28.117,0,0,1,255.9,33.041Z" transform="translate(-179.444 0)"/><path class="a" d="M336.251,20.54a3.913,3.913,0,0,0,1.836-.815,19.573,19.573,0,0,0,2.559-2.383q3.755-4.044,4.983-5.726a5.15,5.15,0,0,0,1.228-2.569V8.84a1.4,1.4,0,0,0-.031-.34,2.108,2.108,0,0,0-.072-.217h5.592a34.876,34.876,0,0,0-4.633,4.137q-3.271,3.271-7.666,8.161l6.809,9.637q.206.289.578.825a20.95,20.95,0,0,0,3.694,4.333H346.94a2.289,2.289,0,0,1-1.011-.186,1.909,1.909,0,0,1-.681-.619L337.1,21.985h-.846v2.909q0,6.212.237,8.017a4.849,4.849,0,0,0,.815,2.466h-5.737a5.461,5.461,0,0,0,.815-2.848q.237-2.228.237-9.533V21.263q0-7.965-.237-10.163a5.393,5.393,0,0,0-.815-2.817H337.3a4.833,4.833,0,0,0-.815,2.456q-.238,1.8-.237,7.986Z" transform="translate(-233.546 -1.242)"/><path class="a" d="M398.689,35.377a38.108,38.108,0,0,0,3.859-5.8,92.109,92.109,0,0,0,4.086-8.522q1.795-4.189,2.961-7.49A20.182,20.182,0,0,0,410.76,9.6a2.607,2.607,0,0,0-.082-.65,3.9,3.9,0,0,0-.248-.671h5.241q3.074,10.235,5.8,17.272a50.131,50.131,0,0,0,4.684,9.822h-4.622l-4.251-11.741h-9.864L405.6,28.072l-.041.1a17.914,17.914,0,0,0-1.692,5.9,3.816,3.816,0,0,0,.052.609,6.293,6.293,0,0,0,.155.691ZM408.1,22.067h8.543l-3.982-10.916Z" transform="translate(-281.54 -1.242)"/></g></svg>