<svg xmlns="http://www.w3.org/2000/svg" width="148.126" height="57.11" viewBox="0 0 148.126 57.11"><defs><style>.a{fill:#3e3e3e;}</style></defs><g transform="translate(-4.099 -8.44)"><path class="a" d="M30.961,48.969c.125-.019.249-.049.374-.071l1.054-.18c-.264-.379-.458-.679-.677-.957A.441.441,0,0,0,31.4,47.6c-.644.053-1.287.132-1.937.2C29.735,49,29.906,49.128,30.961,48.969Z" transform="translate(-7.283 -11.244)"/><path class="a" d="M42.942,50.6c-.616-.572-2.551-.763-4.268-.4C39.733,50.86,42.383,51.085,42.942,50.6Z" transform="translate(-9.929 -11.939)"/><g transform="translate(4.099 19.298)"><path class="a" d="M26.184,60.808a23.352,23.352,0,0,1-4.052,1.965,13.384,13.384,0,0,1-6.919.825,7.542,7.542,0,0,1-3.435-1.4A4.895,4.895,0,0,1,9.75,58.672a8.148,8.148,0,0,1,.488-3.494,17.646,17.646,0,0,1,5.5-7.653A22.217,22.217,0,0,1,26.088,42.98a.925.925,0,0,1,.587.14,9.561,9.561,0,0,0,5.385,1.169,4.111,4.111,0,0,0,1.576-.423.831.831,0,0,0,.171-1.462,1.941,1.941,0,0,0-.758-.441,7.466,7.466,0,0,0-1.733-.347c-1.268-.042-2.54.01-3.81.014-.18,0-.421.009-.53-.094a2.149,2.149,0,0,1-.716-1.146c.21-.054.387-.107.567-.145a36.432,36.432,0,0,0,9.265-3.228,18.341,18.341,0,0,0,5.4-3.965,7.834,7.834,0,0,0,1.7-2.806,3.434,3.434,0,0,0-1.686-4.274,6.416,6.416,0,0,0-2.727-.776,13.766,13.766,0,0,0-4.348.375,14.764,14.764,0,0,0-9.526,6.87,8.381,8.381,0,0,0-1.078,7,1.339,1.339,0,0,1,0,.343c-.438.055-.853.138-1.271.153-1.208.043-.877.23-1.432-.8-.4-.743-.779-1.5-1.173-2.258-.573,0-1.1-.007-1.63,0a11.964,11.964,0,0,0-1.606.042c.465,1.1,1.068,2.045,1.483,3.122a3.653,3.653,0,0,1-.393.047A18.76,18.76,0,0,1,11.394,39a8.409,8.409,0,0,1-3.306-2.081A5.932,5.932,0,0,1,6.346,32a6.213,6.213,0,0,1,1.506-3.24,10.783,10.783,0,0,1,7.013-3.977,6.978,6.978,0,0,1,4.378.734,2.723,2.723,0,0,1,1.3,3.772,4.959,4.959,0,0,1-1.969,2.268,2.958,2.958,0,0,1-1.744.5c-.256-.013-.555-.021-.639-.3-.078-.259.166-.391.357-.534a.489.489,0,0,0,.163-.361c0-.067-.179-.171-.286-.184A2.651,2.651,0,0,0,14,31.5a1.458,1.458,0,0,0,.8,2.526,3.684,3.684,0,0,0,2.3-.212,8.156,8.156,0,0,0,4.563-4.535,3.191,3.191,0,0,0-.8-3.727,6.123,6.123,0,0,0-2.755-1.51,11.1,11.1,0,0,0-6.08.112A12.382,12.382,0,0,0,6.037,27.7a6.9,6.9,0,0,0,.289,9.873,10.44,10.44,0,0,0,3.422,2.147,20.9,20.9,0,0,0,6.638,1.3c.634.034,1.272.016,1.906.053.192.011.47.073.551.207.312.517.559,1.072.855,1.664-.361.121-.637.217-.915.307a21.231,21.231,0,0,0-6.576,3.384,14.054,14.054,0,0,0-4.819,6.413,10.03,10.03,0,0,0-.53,5.064A7.2,7.2,0,0,0,10.8,63.491a13,13,0,0,0,8.407,1.126,20.55,20.55,0,0,0,7.634-3c.123-.076.232-.173.388-.291l-.431-.865C26.547,60.6,26.362,60.7,26.184,60.808Zm6.829-17.774c-.559.485-3.209.261-4.268-.4C30.461,42.271,32.4,42.462,33.013,43.034ZM25.858,37.5a7.212,7.212,0,0,1,.9-2.63,17.673,17.673,0,0,1,8.619-7.663,8.232,8.232,0,0,1,3.715-.694,3.613,3.613,0,0,1,2.061.729,2.333,2.333,0,0,1,.921,2.407A5.528,5.528,0,0,1,40.921,32.1a13.7,13.7,0,0,1-4.085,3.381,34.43,34.43,0,0,1-9.684,3.7c-.37.086-.743.156-1.2.252A4.006,4.006,0,0,1,25.858,37.5Zm-1.744,3.223a.441.441,0,0,1,.314.165c.22.279.413.578.677.957l-1.054.18c-.125.021-.248.051-.374.071-1.056.159-1.227.031-1.5-1.17C22.828,40.857,23.47,40.778,24.114,40.726Z" transform="translate(-4.099 -23.672)"/><path class="a" d="M50.771,42.1a.976.976,0,0,0-1.071.634Q44.383,53.105,39.032,63.457c-.183.356-.369.711-.619,1.2L30.774,49.839a18.692,18.692,0,0,0-2.964,1.036c.143.3.249.523.362.748q4.63,9.222,9.259,18.445c.431.857.429.858,1.379.81a.958.958,0,0,0,.2-.062l14.42-28.7C52.459,42.117,51.612,42.157,50.771,42.1Z" transform="translate(-10.908 -28.964)"/></g><path class="a" d="M174.288,37.37a1.832,1.832,0,0,0,.461-1.136C174.02,36.549,173.883,36.915,174.288,37.37Z" transform="translate(-48.81 -7.982)"/><path class="a" d="M119.747,76.672q-2.083-2.485-4.167-4.968c-.115-.138-.21-.292-.338-.47.3-.053.532-.095.761-.133a5.8,5.8,0,0,0-.587-11.494c-.8-.076-1.609-.024-2.414-.035-.2,0-.709-.017-.709-.017l-.2,0-.782,1.208h-1.672l.719-1.179-.545.009c-.349-.019-.7,0-1.035.01-.135,1.222-.079,19.676.056,20.144H110.9V76.862c0-.932,0-1.865,0-2.8s-.023-1.888.02-2.844c.209-.011.335-.009.458-.027a1.4,1.4,0,0,1,1.4.617q2.528,3.106,5.147,6.137a17.327,17.327,0,0,0,1.707,1.6.976.976,0,0,0,.567.246c1.141.022,2.281.011,3.491.011l.08-1.091c-.23-.049-.393-.1-.56-.118A5.243,5.243,0,0,1,119.747,76.672ZM112.2,69.248c-.4.007-.8,0-1.18,0a72.776,72.776,0,0,1-.021-7.791c.111-.01.234-.031.356-.031,1.208,0,2.416-.017,3.623.015a3.86,3.86,0,0,1,3.725,4.951,3.719,3.719,0,0,1-3.139,2.775C114.446,69.273,113.318,69.23,112.2,69.248Z" transform="translate(-30.04 -14.679)"/><path class="a" d="M154.338,27.813a.319.319,0,0,0-.279-.078,1.6,1.6,0,0,0-.351.262c-.412.331-.809.684-1.24.988a8.911,8.911,0,0,1-.989.527c0-.5-.022-.877.01-1.252a2.6,2.6,0,0,1,.2-.519,1.373,1.373,0,0,0-.564-1.561,2.775,2.775,0,0,0-1.181-.394,6.846,6.846,0,0,0-5.9,2.663,24.262,24.262,0,0,1-3.389,3.337,6.442,6.442,0,0,1-2.738,1.421,3.484,3.484,0,0,1-1.007.063.817.817,0,0,1-.826-.929,3.362,3.362,0,0,1,.213-1.046,9.966,9.966,0,0,1,2.784-3.888,3.814,3.814,0,0,1,1.963-.983,2.587,2.587,0,0,1,.987.093.433.433,0,0,1,.331.542,1.963,1.963,0,0,1-.449.666.551.551,0,0,1-.711.15l.115-.706a5.871,5.871,0,0,0-.882.417.941.941,0,0,0-.324,1.026c.115.309.433.465.905.428a1.229,1.229,0,0,0,.43-.095,2.7,2.7,0,0,0,1.438-1.535.965.965,0,0,0-.617-1.38,3.34,3.34,0,0,0-1.685-.212,7.329,7.329,0,0,0-4.921,2.629,36.583,36.583,0,0,1-3.913,3.9,4.691,4.691,0,0,1-1.029.612,1.208,1.208,0,0,1-.439.04.823.823,0,0,1,.183-.833q.607-.893,1.241-1.768c.7-.961,1.413-1.907,2.1-2.873a.823.823,0,0,0,.053-1.109,1.045,1.045,0,0,0-1.222-.222,2.027,2.027,0,0,0-.481.4c-.141.141-.259.306-.4.48-.541-.929-.862-1.22-1.53-1.271a4.883,4.883,0,0,0-1.326.057,7.594,7.594,0,0,0-4.579,2.987,11.5,11.5,0,0,1-.786.912c-.57.6-1.146,1.19-1.735,1.77-.468.46-.942.916-1.445,1.337a3.433,3.433,0,0,1-.824.46c-.215.1-.411.043-.572-.3.183-.179.408-.309.585-.486a10.86,10.86,0,0,0,2.367-3.356,8.217,8.217,0,0,0,.519-1.627,1.418,1.418,0,0,0-1.452-1.785,2.8,2.8,0,0,0-1.466.348c-.5.274-.971.6-1.457.9-.128.078-.262.145-.49.269.094-.238.148-.351.183-.469a.744.744,0,0,0-.636-1.023,1.1,1.1,0,0,0-1.155.5,37.393,37.393,0,0,1-4.768,5.187c-.123.118-.265.215-.4.321l-.106-.063a3.7,3.7,0,0,0,.008-3.147c-.249-.6-.57-1.18-.864-1.766-.093-.187-.205-.365-.333-.59.151-.175.267-.3.369-.43a7.168,7.168,0,0,0,.486-.664.644.644,0,0,0,.016-.724.714.714,0,0,0-.738-.267,1.073,1.073,0,0,0-.885.648,4.035,4.035,0,0,0-.274,1.157,1.155,1.155,0,0,1-.319.789c-.506.512-.978,1.058-1.477,1.577a18.741,18.741,0,0,1-5.965,4.251,9.142,9.142,0,0,1-4.445.852A4.965,4.965,0,0,1,93.6,32.49,3.123,3.123,0,0,1,92.3,29.5a7.008,7.008,0,0,1,.891-2.759,12.535,12.535,0,0,1,9.118-6.237,1.055,1.055,0,0,1,.659.1,5.385,5.385,0,0,0,1.989.618,4.4,4.4,0,0,0,2.013-.094c.264-.093.515-.219.523-.561a.635.635,0,0,0-.453-.625,2.718,2.718,0,0,0-.846-.247c-.821-.043-1.646-.066-2.467-.038-.691.024-.854-.057-1.055-.764.03-.028.056-.07.092-.081.12-.038.243-.068.366-.095a22.936,22.936,0,0,0,5.158-1.752,12.307,12.307,0,0,0,3.645-2.506,4.88,4.88,0,0,0,1.306-2.218,1.96,1.96,0,0,0-.5-1.877,2.834,2.834,0,0,0-1.535-.843,7.41,7.41,0,0,0-3.521.118,9.116,9.116,0,0,0-6.177,4.785,5.257,5.257,0,0,0-.569,2.954c.034.352.113.7.17,1.046a.843.843,0,0,1-.205.1,19.89,19.89,0,0,1-6.2-.118,6.869,6.869,0,0,1-3.052-1.341,3.7,3.7,0,0,1-.627-5.361A6.791,6.791,0,0,1,95.6,9.081a4.249,4.249,0,0,1,2.757.537,1.663,1.663,0,0,1,.906,1.5,2.924,2.924,0,0,1-2.242,2.538.709.709,0,0,1-.715-.21l.341-.568a1.629,1.629,0,0,0-1.63.4.883.883,0,0,0,.434,1.562,2.319,2.319,0,0,0,1.123-.024,4.815,4.815,0,0,0,3.18-2.97,1.949,1.949,0,0,0-.491-2.22,3.818,3.818,0,0,0-1.883-1,7,7,0,0,0-3.15-.011A7.919,7.919,0,0,0,90.1,10.849a4.317,4.317,0,0,0,.164,6.3,6.916,6.916,0,0,0,2.518,1.438,11.556,11.556,0,0,0,3.615.625c1.481.009,2.962-.071,4.442-.125.647-.024.646-.038.979.637a.578.578,0,0,1-.153.088c-.207.046-.415.083-.624.119A17.432,17.432,0,0,0,95.5,21.694a9.947,9.947,0,0,0-4.165,3.983,6.831,6.831,0,0,0-.858,3.663,4.449,4.449,0,0,0,2.463,3.886,8.047,8.047,0,0,0,5.5.688,14.328,14.328,0,0,0,5.929-2.779,27.342,27.342,0,0,0,3.511-3.217c.186-.2.361-.4.578-.649a1.562,1.562,0,0,1,.164.307,9.36,9.36,0,0,1,.183,3.156,2.912,2.912,0,0,1-1.8,2.438,2.061,2.061,0,0,1-.921.148c-.518-.046-.706-.458-.47-.925a.716.716,0,0,1,.637-.454c.054,0,.11.047.185.081l-.062.565A1.246,1.246,0,0,0,107.459,32a.723.723,0,0,0,.071-.781.7.7,0,0,0-.686-.368,1.9,1.9,0,0,0-1.393.665,1.531,1.531,0,0,0-.5,1.608c.23.657.826.79,1.435.86.042,0,.085,0,.127.007a5.9,5.9,0,0,0,4.3-1.409c.753-.614,1.439-1.312,2.156-1.972l.434-.4a.936.936,0,0,1-.148.56c-1.781,2.933-3.573,5.859-5.339,8.8l-.371.608-.967,1.583-1.922,3.151-.719,1.179H105.6l.782-1.208,2.037-3.143,1.012-1.563,4.508-6.958c1.352,1.478,2.851,1.281,4.393.386.943.647,1.231.674,2.106-.029.74-.6,1.413-1.275,2.114-1.919.178-.163.351-.331.632-.6,0,.413,0,.662,0,.91a1.917,1.917,0,0,0,2.24,2.059,4.569,4.569,0,0,0,2.463-1.081c.174-.134.349-.267.541-.413a1.07,1.07,0,0,1,.081.2,1.281,1.281,0,0,0,1.788,1.255,4.088,4.088,0,0,0,1.737-1.018c.633-.562,1.237-1.158,1.858-1.734.116-.108.249-.2.47-.371a3.966,3.966,0,0,0,.287,1.952A2.8,2.8,0,0,0,136.086,34c-.212.459-.391.84-.564,1.224-.07.157-.153.359.063.433a.615.615,0,0,0,.433-.113,5.438,5.438,0,0,1,.768-.52.714.714,0,0,1,.636.1.746.746,0,0,1,.068.635,4.338,4.338,0,0,1-1.1,1.76,1.275,1.275,0,0,1-.594.335.784.784,0,0,1-.571-.141.469.469,0,0,1-.043-.639c.075-.127.182-.236.246-.367.031-.064.027-.2-.014-.231a.329.329,0,0,0-.277-.049,1.107,1.107,0,0,0-.574,1,.848.848,0,0,0,.536.863,1.748,1.748,0,0,0,.863.112,3.136,3.136,0,0,0,2.387-2.062,1.627,1.627,0,0,0,.048-.751,1.128,1.128,0,0,0-1.12-1.085c-.2-.017-.406,0-.625,0,0-.4.229-.482.5-.5a5.68,5.68,0,0,0,2.394-.783,13.758,13.758,0,0,0,2.781-2.1c.148-.137.309-.259.57-.476,0,.445-.009.754,0,1.062a2.326,2.326,0,0,0,1.945,2.33,3.394,3.394,0,0,0,1.69-.135,7.724,7.724,0,0,0,4.224-3.187,1.506,1.506,0,0,1,.815-.64,6.8,6.8,0,0,0,2.632-1.729.638.638,0,0,0,.185-.25A.341.341,0,0,0,154.338,27.813Zm-47.479-7.224a4.247,4.247,0,0,1-2.517-.251A2.572,2.572,0,0,1,106.859,20.588Zm-4.4-4.031a3.575,3.575,0,0,1,.352-.949,10.561,10.561,0,0,1,6.136-5.2,6.777,6.777,0,0,1,1.752-.2,1.912,1.912,0,0,1,.794.183,1.548,1.548,0,0,1,.947,2.021,4.815,4.815,0,0,1-.635,1.231,7.035,7.035,0,0,1-2.072,1.85,20.4,20.4,0,0,1-6.2,2.538c-.308.075-.619.136-.93.2a.674.674,0,0,1-.173-.025A2.441,2.441,0,0,1,102.46,16.557Zm7.188,8.2.127.088-.252.369-.128-.089Zm8.495,7.112A3.563,3.563,0,0,1,115.9,33.07a2.33,2.33,0,0,1-1.039-.166c-.473-.192-.557-.588-.3-1.038a14.439,14.439,0,0,1,4.5-4.831,4.081,4.081,0,0,1,.776-.423c.608-.239.942,0,.944.828a6.023,6.023,0,0,1-.257.858A11.848,11.848,0,0,1,118.142,31.865Zm9.888.18a3.887,3.887,0,0,1-2.066,1.163,1.877,1.877,0,0,1-.564.025.641.641,0,0,1-.634-.724,2.392,2.392,0,0,1,.115-.744,9.157,9.157,0,0,1,4-4.9,2.811,2.811,0,0,1,.823-.315c.8-.195,1.28.2,1.333,1.033a5.035,5.035,0,0,1-.313.88A16.108,16.108,0,0,1,128.03,32.045Zm21.777-2.656c-.406-.455-.269-.821.461-1.136A1.832,1.832,0,0,1,149.807,29.389Zm-.8-.8c-.274.545-.045.978.384,1.413a14.348,14.348,0,0,1-2.586,2.922,2.384,2.384,0,0,1-1.431.609,1,1,0,0,1-1.121-1.293,2.549,2.549,0,0,1,.17-.542,11.193,11.193,0,0,1,2.545-3.751,5.509,5.509,0,0,1,1.962-1.255,3.618,3.618,0,0,1,1.293-.2c.576.021.828.4.818,1.079A1.848,1.848,0,0,0,149,28.59Z" transform="translate(-24.328)"/><g transform="translate(49.945 40.173)"><path class="a" d="M68.415,52.957v1.585h32.119l.179,0,.967-1.583H68.415Z" transform="translate(-68.415 -52.957)"/><path class="a" d="M174.64,52.957H117.33l-1.012,1.563.862-.01q20.631.027,41.262.014,8.169,0,16.339,0c.247,0,.493-.014.757-.021V52.957Z" transform="translate(-82.172 -52.957)"/></g><path class="a" d="M164.912,60.283c0-.207-.018-.413-.029-.652h-2.136v.827c0,3.729.037,7.458-.016,11.186a6.138,6.138,0,0,1-9.85,4.675,5.963,5.963,0,0,1-2.453-5q0-5.466,0-10.932v-.76h-2.171v.716q0,5.434,0,10.868a11.369,11.369,0,0,0,.088,1.329,8.322,8.322,0,0,0,16.572-1.139C164.886,67.7,164.913,63.991,164.912,60.283Z" transform="translate(-41.399 -14.701)"/><g transform="translate(122.375 43.877)"><path class="a" d="M185.226,58.239c0-.014-.021-.032-.036-.042a.728.728,0,0,0-.107-.043L170.025,79.336c.824,0,1.48-.028,2.131.01a.9.9,0,0,0,.875-.468c1.69-2.411,3.408-4.8,5.1-7.213a.735.735,0,0,1,.851-.342,5.121,5.121,0,0,1,3.986,4.133c.132,1.044.081,2.112.113,3.169.006.225.016.449.024.672H185.2a1.977,1.977,0,0,0,.043-.275Q185.236,68.63,185.226,58.239ZM183.041,71.1a7.35,7.35,0,0,0-3.2-1.819l3.084-4.346.116.038Z" transform="translate(-170.025 -58.154)"/></g><path class="a" d="M79.684,75.725c-.169-.306-.284-.5-.386-.7q-3.7-7.17-7.393-14.34c-.182-.354-.316-.823-.614-1a2.555,2.555,0,0,0-1.178-.082c-.365,0-.729.019-1.159.031.1.23.155.365.22.494q4.93,9.821,9.859,19.642c.143.285.279.472.653.469.351,0,.476-.183.607-.443q4.957-9.878,9.919-19.753a3.069,3.069,0,0,0,.135-.418H87.988Z" transform="translate(-18.625 -14.684)"/><path class="a" d="M139.766,59.555H124.73v2.131h5.914v.782c0,3.263-.023,6.527.008,9.791a7.487,7.487,0,0,0,5.735,7.269,6.312,6.312,0,0,0,2.434.163V77.534c-.236,0-.423,0-.609,0a5.345,5.345,0,0,1-5.368-5.448c-.012-3.263,0-6.527,0-9.791,0-.183.026-.366.046-.624h6.919c0-.624,0-1.171,0-1.719C139.8,59.831,139.781,59.71,139.766,59.555Z" transform="translate(-34.642 -14.679)"/><path class="a" d="M207.379,78.057c0-.144-.016-.288-.03-.522h-.7c-.953,0-1.907,0-2.86,0a5.363,5.363,0,0,1-5.415-5.387q.01-5.88,0-11.759v-.741h-2.208v.8q0,4.735,0,9.471c0,.868-.019,1.738.015,2.605a7.5,7.5,0,0,0,7.372,7.212c1.1.016,2.2.006,3.305,0a5.077,5.077,0,0,0,.523-.058C207.379,79.111,207.382,78.584,207.379,78.057Z" transform="translate(-55.155 -14.706)"/><path class="a" d="M101.059,60.247c-.033,4.679-.078,9.358-.091,14.037,0,1.734.063,3.469.1,5.2a1.359,1.359,0,0,0,.057.247h2.078V59.644h-2.118C101.077,59.874,101.061,60.061,101.059,60.247Z" transform="translate(-27.819 -14.704)"/></g></svg>