<svg xmlns="http://www.w3.org/2000/svg" width="142.347" height="74.628" viewBox="0 0 142.347 74.628"><defs><style>.a,.b{fill:#3e3e3e;}.a{fill-rule:evenodd;}</style></defs><g transform="translate(-9.216 -11.764)"><path class="a" d="M88.21,11.764a9.694,9.694,0,0,1,6.931,2.92,10.043,10.043,0,0,1,0,14.053,9.687,9.687,0,0,1-13.863,0,10.043,10.043,0,0,1,0-14.053,9.694,9.694,0,0,1,6.932-2.92M89.67,63.948h0Zm-9.152-4.6s-.007.008,0,0Zm-1.693,1.865A2.16,2.16,0,0,1,78.679,61a1.217,1.217,0,0,0,.064.252.436.436,0,0,0,.089.151.269.269,0,0,0,.1.054v0a.715.715,0,0,0,.155.031A1.82,1.82,0,0,1,78.825,61.211Zm-.545-1.587q-.053.047-.11.1l.09.1a1.757,1.757,0,0,1,.149.2V59.96h0c0-.033,0-.151.007-.446C78.368,59.548,78.324,59.585,78.28,59.624Zm-4.547,2.094v0l-.02.125-.265.243a1,1,0,0,0-.112.122.573.573,0,0,0-.057.086l-.008.016a.222.222,0,0,0-.013.043h0v.028l.078-.034.185-.085h0c.129-.065.237-.122.329-.173l.139-.08Zm.175-1.667-.094.054v.158l.209-.277ZM49.581,68.537l.321-.055-.029.049h0c-.029.043-.05.072-.064.09l0,.008-.123.16a.41.41,0,0,1-.055-.009h0l-.006-.017C49.6,68.681,49.591,68.607,49.581,68.537ZM9.865,75.518c9.794-1.887,20.917-3.78,32.04-5.673l5.643-.961c.015.1.03.2.046.291l.01.06.014.049a2.3,2.3,0,0,0,.294.648,1.97,1.97,0,0,0,.524.534,2.115,2.115,0,0,0,.674.3,2.787,2.787,0,0,0,.706.088,1.646,1.646,0,0,0,.416-.056,1.7,1.7,0,0,0,.385-.15l.016-.008a2.3,2.3,0,0,0,.276-.184,2.381,2.381,0,0,0,.243-.215l.049-.05.092-.124.136-.186h0c.061-.078.11-.143.145-.195v0c.047-.069.084-.126.111-.168a7.4,7.4,0,0,0,.557-.929q.133-.259.269-.557c7.015-1.208,13.86-2.416,20.2-3.624a2.766,2.766,0,0,0,.6.063,1.47,1.47,0,0,0,.38-.058,2.337,2.337,0,0,0,.276-.093l.214-.1.246-.118.02-.008c.128-.064.263-.137.4-.214.156-.087.268-.15.351-.2q.179-.106.345-.22c.092-.062.194-.139.306-.228l.065-.056c.082-.077-.027.028.15-.132.238-.216.124-.116.23-.21.221-.2.414-.382.642-.6a2.38,2.38,0,0,0,.448.617,2.3,2.3,0,0,0,.883.545v0a3.057,3.057,0,0,0,1,.16,2.714,2.714,0,0,0,.519-.052,2.872,2.872,0,0,0,.5-.143h0a3.592,3.592,0,0,0,.461-.219,4.608,4.608,0,0,0,.441-.28l.024-.02c.11-.084.219-.171.326-.26.126-.106.231-.2.309-.271h0c.142-.129.285-.26.492-.436l.523-.446-.213-.655c-.021-.064-.051-.149-.093-.256-.034-.089-.071-.179-.109-.266l-.008-.02-.133-.276-.152-.314L81.534,58.4l-1.016.951h0s.007-.009,0,0l-.038.027-.006,0c0-.123.007-.259.014-.414l0-.068,0-.045a2.6,2.6,0,0,0-.085-.517,1.737,1.737,0,0,0-.252-.544h0a1.4,1.4,0,0,0-.485-.433l.055-.038q.153-.106.286-.194h0a1.9,1.9,0,0,0,.349-.3,1.683,1.683,0,0,0,.265-.388h0a1.782,1.782,0,0,0,.158-.444,2.019,2.019,0,0,0,.046-.427,1.5,1.5,0,0,0-.12-.591v0a1.406,1.406,0,0,0-.385-.524l-.032-.028a1.526,1.526,0,0,0-.556-.274,2.037,2.037,0,0,0-.528-.066,2.886,2.886,0,0,0-.947.177,5.16,5.16,0,0,0-.914.434v0a9.922,9.922,0,0,0-.958.646q-.47.356-1.051.868-.083.074-.17.141-.056.043-.12.083l-.016.012c-.059.039-.1.067-.14.087l-.108.061-.091.049-.074.06c-.1.085-.192.158-.262.218q-.136.117-.229.2h0c-.085.077-.145.135-.189.18l0,0-.044.025h0a2.584,2.584,0,0,0-.236.153l0,0a1.809,1.809,0,0,0-.273.248l0,0a1.78,1.78,0,0,0-.22.305h0c-.011.019-.028.045-.052.079l0,0-.041.041-.168.1-.042.024q.043-1.376.2-2.679a1.156,1.156,0,0,0,.644-.565,1.879,1.879,0,0,0,.2-.578h0a4.66,4.66,0,0,0,.064-.556c.013-.212.019-.424.019-.637a2.377,2.377,0,0,0-.014-.244,1.708,1.708,0,0,0-.053-.29l0-.012a1.386,1.386,0,0,0-.13-.3,3.718,3.718,0,0,0,.154-.489,2.289,2.289,0,0,0,.072-.534,2.019,2.019,0,0,0-.027-.332,22.548,22.548,0,0,1,7.439-11.218c4.537-3.729,10.71-6.1,18.147-7.158a84.88,84.88,0,0,1,22.561.224.8.8,0,0,1,.088,1.57h0c-11.127,2.7-22.59,6.371-29.141,11.512-3.551,2.787-5.6,6.038-5.254,9.846a2.368,2.368,0,0,0-.213.184,1.97,1.97,0,0,0-.24.28l-.041.064c-.04.068-.068.115-.082.137l-.091.136,0,.008c-.041.062-.08.121-.115.176l-.365.589.3.928.767.47-.069.429c-.042.264-.075.473-.093.6l-.023.156.031.171c.009.048.021.142.038.278q.015.124.024.228l-.019.26c-.016.212-.017.24-.02.27l0,.053c0,.034-.006.1-.015.2l-.008.095c-.015.08-.026.143-.031.183a1.728,1.728,0,0,0-.021.232c0,.058,0,.157.013.3,0,.072.014.2.03.37.008.084.015.186.022.305,0,.053.005.112.005.176l.007.414c0,.15.006.264.009.341,0,.1.011.2.019.278v0c.009.092.02.17.033.234a2.019,2.019,0,0,0,.207.578,1.632,1.632,0,0,0,.441.521h0a1.718,1.718,0,0,0,.516.276,1.827,1.827,0,0,0,.574.091h.729l.31-.351a2.684,2.684,0,0,0,.242-.315,2.351,2.351,0,0,0,.189-.351l0-.008a2.18,2.18,0,0,0,.114-.362,1.839,1.839,0,0,0,.049-.4c0-.32,0-.585.011-.788q0-.09.009-.189a29.315,29.315,0,0,0,1.978,2.293c5.219,1.5,13.162,2.777,22.043,3.838,11.674,1.395,24.92,2.4,35.734,3.021a.8.8,0,0,1,.075,1.591h0c-12.644,1.929-23.248,3.187-32.549,3.431-9.327.244-17.321-.535-24.712-2.684a.768.768,0,0,1-.131-.051h0a20.187,20.187,0,0,0-11.656-2.306,19.463,19.463,0,0,0-10.5,5.21.8.8,0,0,1-.6.2c-9.271-.089-19.857-.176-30.437-.262-10.534-.086-21.064-.173-30.289-.261a.8.8,0,0,1-.144-1.584Z" transform="translate(0 0)"/><path class="b" d="M184.351,254.677l.43-.039a.8.8,0,0,0,.328.6,1.179,1.179,0,0,0,.677.189,1.009,1.009,0,0,0,.636-.17.512.512,0,0,0,.211-.412.438.438,0,0,0-.1-.291.658.658,0,0,0-.287-.19,6.23,6.23,0,0,0-.649-.171,3.229,3.229,0,0,1-.582-.18.945.945,0,0,1-.383-.3.761.761,0,0,1-.146-.469.852.852,0,0,1,.141-.5.963.963,0,0,1,.423-.322,1.634,1.634,0,0,1,.637-.119,1.4,1.4,0,0,1,.941.281,1,1,0,0,1,.345.738l-.43.032q-.071-.656-.832-.656-.786,0-.786.514a.379.379,0,0,0,.1.26.586.586,0,0,0,.247.162,4.293,4.293,0,0,0,.469.125,4.365,4.365,0,0,1,.764.219,1.122,1.122,0,0,1,.325.216.819.819,0,0,1,.188.276.887.887,0,0,1,.062.338.875.875,0,0,1-.368.747,1.462,1.462,0,0,1-.9.271,1.587,1.587,0,0,1-1.071-.317,1.112,1.112,0,0,1-.385-.832m-3.007,1.091v-3.4h2.464v.4H181.8v1.043h1.888v.4H181.8v1.159h2.092v.4Zm-4,0v-3.4h.684l.8,2.414.164.5.181-.544.818-2.372h.6v3.4h-.438v-2.851l-.983,2.851h-.416l-.978-2.9v2.9Zm-2.954-1.9h.969a1.026,1.026,0,0,0,.647-.158.51.51,0,0,0,.192-.414q0-.551-.729-.551h-1.079Zm-.452,1.9v-3.4h1.507a2.153,2.153,0,0,1,.609.061.882.882,0,0,1,.3.164.868.868,0,0,1,.211.284.93.93,0,0,1,.091.421q0,.8-.955.93a1.055,1.055,0,0,1,.36.255,2.573,2.573,0,0,1,.286.366l.594.924h-.571l-.453-.7c-.112-.173-.208-.314-.287-.417a1.42,1.42,0,0,0-.233-.248.592.592,0,0,0-.211-.115,1.14,1.14,0,0,0-.276-.025h-.52v1.509Zm-3.389-1.654a1.543,1.543,0,0,0,.152.705,1.131,1.131,0,0,0,.406.461,1.119,1.119,0,0,0,.609.16,1.045,1.045,0,0,0,.858-.379,1.538,1.538,0,0,0,.309-1,1.725,1.725,0,0,0-.146-.735,1.123,1.123,0,0,0-.4-.479,1.1,1.1,0,0,0-.611-.165,1.25,1.25,0,0,0-.5.095.956.956,0,0,0-.369.283,1.272,1.272,0,0,0-.226.451A2.209,2.209,0,0,0,170.553,254.114Zm-.459-.006a2.223,2.223,0,0,1,.181-.916,1.526,1.526,0,0,1,.549-.649,1.58,1.58,0,0,1,.9-.245,1.643,1.643,0,0,1,.656.129,1.5,1.5,0,0,1,.516.357,1.631,1.631,0,0,1,.336.56,2.135,2.135,0,0,1,.119.725,2.015,2.015,0,0,1-.2.934,1.427,1.427,0,0,1-.587.6,1.7,1.7,0,0,1-.846.219,1.638,1.638,0,0,1-.852-.226,1.467,1.467,0,0,1-.578-.628A1.919,1.919,0,0,1,170.093,254.109Zm-2.749,1.66v-3.4h2.3v.4H167.8v1.057h1.6v.4h-1.6v1.546Zm-1.27-3.4h.452v3.4h-.452Zm-3.516,3.4v-3.4h.462l1.791,2.674v-2.674h.437v3.4h-.465l-1.8-2.68v2.68Zm-1.2-3.4h.452v1.968a2.352,2.352,0,0,1-.094.755,1.1,1.1,0,0,1-.26.419,1.043,1.043,0,0,1-.411.24,1.8,1.8,0,0,1-.565.08,1.418,1.418,0,0,1-1.005-.321,1.588,1.588,0,0,1-.341-1.174v-1.968h.452v1.962a2.085,2.085,0,0,0,.058.586.737.737,0,0,0,.165.288.689.689,0,0,0,.265.164,1.112,1.112,0,0,0,.367.055,1.259,1.259,0,0,0,.5-.085.617.617,0,0,0,.309-.3,1.637,1.637,0,0,0,.111-.708Zm-5.1,0h.452v3.4h-.452Zm-5.029,2.314.43-.039a.8.8,0,0,0,.328.6,1.179,1.179,0,0,0,.677.189,1.007,1.007,0,0,0,.635-.17.512.512,0,0,0,.212-.412.439.439,0,0,0-.1-.291.66.66,0,0,0-.287-.19,6.223,6.223,0,0,0-.649-.171,3.217,3.217,0,0,1-.582-.18.944.944,0,0,1-.383-.3.761.761,0,0,1-.146-.469.85.85,0,0,1,.141-.5.961.961,0,0,1,.423-.322,1.637,1.637,0,0,1,.637-.119,1.4,1.4,0,0,1,.941.281,1,1,0,0,1,.345.738l-.43.032c-.047-.437-.326-.656-.832-.656q-.786,0-.786.514a.38.38,0,0,0,.1.26.587.587,0,0,0,.247.162,4.274,4.274,0,0,0,.469.125,4.379,4.379,0,0,1,.764.219,1.117,1.117,0,0,1,.324.216.82.82,0,0,1,.189.276.887.887,0,0,1,.062.338.875.875,0,0,1-.368.747,1.463,1.463,0,0,1-.9.271,1.588,1.588,0,0,1-1.071-.317A1.113,1.113,0,0,1,151.235,254.677Zm-3.176,0,.43-.039a.8.8,0,0,0,.328.6,1.179,1.179,0,0,0,.677.189,1.007,1.007,0,0,0,.635-.17.512.512,0,0,0,.211-.412.44.44,0,0,0-.1-.291.66.66,0,0,0-.287-.19,6.244,6.244,0,0,0-.649-.171,3.217,3.217,0,0,1-.582-.18.944.944,0,0,1-.383-.3.761.761,0,0,1-.146-.469.85.85,0,0,1,.141-.5.961.961,0,0,1,.423-.322,1.635,1.635,0,0,1,.637-.119,1.4,1.4,0,0,1,.941.281,1,1,0,0,1,.345.738l-.43.032q-.071-.656-.832-.656-.785,0-.786.514a.38.38,0,0,0,.1.26.585.585,0,0,0,.247.162,4.274,4.274,0,0,0,.469.125,4.378,4.378,0,0,1,.764.219,1.116,1.116,0,0,1,.324.216.82.82,0,0,1,.189.276.893.893,0,0,1,.062.338.875.875,0,0,1-.368.747,1.463,1.463,0,0,1-.9.271,1.588,1.588,0,0,1-1.071-.317A1.115,1.115,0,0,1,148.059,254.677Zm-3.007,1.091v-3.4h2.464v.4H145.5v1.043h1.888v.4H145.5v1.159H147.6v.4Zm-3.45,0v-3.4h.462l1.791,2.674v-2.674h.437v3.4h-.465l-1.8-2.68v2.68Zm-2.042,0v-3h-1.123v-.4h2.7v.4h-1.123v3Zm-2.108-3.4h.452v3.4h-.452Zm-2.96,3.4v-3.4h2.3v.4h-1.844v1.057h1.6v.4h-1.6v1.546Zm-2.89-3.4h.452v3.4H131.6Zm-4.669,1.5h.968a1.028,1.028,0,0,0,.648-.158.511.511,0,0,0,.192-.414q0-.551-.729-.551h-1.079Zm-.452,1.9v-3.4h1.507a2.152,2.152,0,0,1,.609.061.881.881,0,0,1,.3.164.86.86,0,0,1,.211.284.926.926,0,0,1,.091.421q0,.8-.955.93a1.051,1.051,0,0,1,.359.255,2.532,2.532,0,0,1,.286.366l.594.924h-.571l-.453-.7c-.112-.173-.208-.314-.287-.417a1.42,1.42,0,0,0-.234-.248.589.589,0,0,0-.211-.115,1.139,1.139,0,0,0-.276-.025h-.52v1.509Zm-2.586-1.4h1.173l-.361-.943q-.18-.474-.245-.7a4.389,4.389,0,0,1-.187.648Zm-.976,1.4,1.309-3.4h.491l1.394,3.4H125.6l-.394-1.035h-1.435l-.368,1.035Zm-2.789,0v-3.4h2.464v.4h-2.012v1.043h1.888v.4h-1.888v1.159h2.092v.4Zm-3.909,0-.9-3.4h.464l.52,2.233q.083.348.142.7l.154-.63.651-2.3h.539l.487,1.723a9.475,9.475,0,0,1,.268,1.208q.063-.317.168-.741l.537-2.19h.451l-.931,3.4h-.446l-.708-2.591-.106-.4c-.022.092-.054.225-.1.4l-.722,2.591Zm-4.019,0v-3.4h.452v1.4h1.772v-1.4h.452v3.4h-.452v-1.6h-1.772v1.6Zm-1.022-1.2.452.114a1.347,1.347,0,0,1-1.413,1.14,1.418,1.418,0,0,1-1.21-.514,2.056,2.056,0,0,1-.388-1.274,1.7,1.7,0,0,1,.463-1.3,1.605,1.605,0,0,1,1.143-.436,1.27,1.27,0,0,1,1.346.987l-.445.107a.9.9,0,0,0-.913-.707,1.033,1.033,0,0,0-.844.356,1.9,1.9,0,0,0,.024,2.06,1.035,1.035,0,0,0,.786.333A.955.955,0,0,0,111.18,254.573Zm-5-.2h1.173l-.361-.943q-.18-.474-.246-.7a4.355,4.355,0,0,1-.187.648Zm-.976,1.4,1.309-3.4h.491l1.394,3.4h-.515l-.394-1.035h-1.435l-.368,1.035Zm-2.789,0v-3.4h2.464v.4h-2.012v1.043h1.888v.4h-1.888v1.159h2.093v.4Zm-2.752-.4h.849a2.358,2.358,0,0,0,.3-.016.725.725,0,0,0,.254-.084.462.462,0,0,0,.191-.191.619.619,0,0,0,.066-.3.543.543,0,0,0-.179-.432,1.09,1.09,0,0,0-.688-.156h-.789Zm0-1.575h.735a1.974,1.974,0,0,0,.407-.034.45.45,0,0,0,.367-.471.526.526,0,0,0-.094-.328.43.43,0,0,0-.261-.159,2.459,2.459,0,0,0-.476-.035h-.678Zm-.452,1.976v-3.4h1.278a1.213,1.213,0,0,1,.859.257.823.823,0,0,1,.268.614.762.762,0,0,1-.474.721.8.8,0,0,1,.641.826q0,.987-1.275.987Z" transform="translate(-63.394 -169.435)"/><path class="b" d="M138.6,142.843a.412.412,0,0,0-.17.115,1.553,1.553,0,0,0-.213.255c-.107.167-.229.344-.368.54a.942.942,0,0,1-.273.2,1.269,1.269,0,0,1-.332.1c-.075.007-.158.078-.241.211a2.776,2.776,0,0,0-.257.581,5.82,5.82,0,0,0-.186.574,1.919,1.919,0,0,0-.055.4.591.591,0,0,0,.162.455.707.707,0,0,0,.5.152,1.8,1.8,0,0,0,.976-.278,3.078,3.078,0,0,0,.842-.829c.122-.137.237-.267.348-.392a.45.45,0,0,0,.15-.211c.035-.1.075-.218.115-.363l.209-.618a4.85,4.85,0,0,0-.2-.514.488.488,0,0,0-.186-.233,1.026,1.026,0,0,0-.257-.07c-.131-.026-.32-.052-.565-.081m-5.571,1.98a1.175,1.175,0,0,0,.166-.2c.059-.085.127-.174.206-.278l.889-.574a6.219,6.219,0,0,1,.5-.47c.225-.189.5-.422.834-.7a1.414,1.414,0,0,1,.19-.278,3.075,3.075,0,0,1,.32-.311c.107-.093.218-.181.324-.262s.21-.167.3-.244c.115-.111.225-.218.332-.326s.21-.215.316-.315a1.787,1.787,0,0,1,.383-.241,1.081,1.081,0,0,1,.427-.085.965.965,0,0,1,.388.059.213.213,0,0,1,.146.17c-.079.163-.158.33-.241.5l.067.1c.34-.126.605-.215.8-.274a1.9,1.9,0,0,1,.372-.085,1.6,1.6,0,0,1,1.269.481,2.173,2.173,0,0,1,.423,1.458,2.371,2.371,0,0,1-.048.437,4.06,4.06,0,0,1-.15.54,3.066,3.066,0,0,1-.249.54,1.311,1.311,0,0,1-.249.315.546.546,0,0,0,.1.2.2.2,0,0,0,.15.063.4.4,0,0,0,.194-.056,1.923,1.923,0,0,0,.219-.148l-.006-.011c.123-.152.245-.311.372-.478a10.185,10.185,0,0,0,1.384-1.254,4.668,4.668,0,0,0,.779-1.121l-.115-.518a2.119,2.119,0,0,1,.747-.64,1.994,1.994,0,0,1,.969-.37,1.038,1.038,0,0,1,.664.218c.182.144.356.3.526.455a1.28,1.28,0,0,1,.186.119,1.984,1.984,0,0,1,.7.9,3.761,3.761,0,0,1,.234,1.4,3.46,3.46,0,0,1-.36,1.244,3.332,3.332,0,0,0-.36,1.218.106.106,0,0,0,.04.089.169.169,0,0,0,.111.033.749.749,0,0,0,.36-.126,3.233,3.233,0,0,0,.45-.341,5.574,5.574,0,0,1,.743-.625,2,2,0,0,0,.305-.194l0-.009c.048-.052.1-.118.162-.2s.13-.174.21-.278c.34-.4.668-.751.988-1.066s.625-.592.909-.84c.147-.13.325-.3.534-.5s.45-.44.728-.707c.276-.1.585-.218.917-.348a.562.562,0,0,1,.463.189.877.877,0,0,1,.15.548,4.923,4.923,0,0,1-.051.655c-.035.233-.083.474-.146.722a5.885,5.885,0,0,0-.174.563.17.17,0,0,0,.035.115.159.159,0,0,0,.115.037,3.56,3.56,0,0,0,.672-.544q.5-.466,1.309-1.3a8.24,8.24,0,0,1,1.218-1.069,1.659,1.659,0,0,1,.834-.352.548.548,0,0,1,.49.233,1.252,1.252,0,0,1,.158.688,7.39,7.39,0,0,1-.107,1.273,4.755,4.755,0,0,1-.36,1.177.953.953,0,0,0-.056.181.987.987,0,0,0-.012.145c0,.048.048.1.139.14a1.806,1.806,0,0,0,.213-.218c.083-.093.178-.215.285-.359l.534-.411c.178-.137.372-.278.578-.422a2.706,2.706,0,0,1,.66-.363,1.865,1.865,0,0,1,.66-.126.241.241,0,0,1,.119.033l.114.074a4.981,4.981,0,0,1,.439.4,1.459,1.459,0,0,1,.245.311,7.558,7.558,0,0,0,.806,1.3c.233.285.439.426.617.426a.279.279,0,0,0,.119-.026c.036-.018.169-.121.209-.151l.064-.086.2-.311,1.052-.648a1.481,1.481,0,0,0,.138-.148,1.524,1.524,0,0,0,.186-.263.765.765,0,0,1,.218-.241,1.751,1.751,0,0,1,.3-.174,3.7,3.7,0,0,1,.269-.27q.172-.161.439-.377c.083-.045.194-.108.324-.192a3.318,3.318,0,0,0,.427-.33,12.415,12.415,0,0,1,1.85-1.4,2.775,2.775,0,0,1,1.336-.466.709.709,0,0,1,.447.118.418.418,0,0,1,.142.337.856.856,0,0,1-.087.4.728.728,0,0,1-.269.3q-.29.195-.629.433a5.2,5.2,0,0,1-.45.481,5.361,5.361,0,0,1-.625.5c-.079.1-.142.178-.2.252-.04.033-.111.1-.222.192a4.179,4.179,0,0,1-.427.326,2.587,2.587,0,0,1-.5.618c-.261.255-.6.559-1.04.911a4.023,4.023,0,0,0-.289.348c-.138.182-.32.418-.546.718l.083.1a2.1,2.1,0,0,0,.534-.259,6.673,6.673,0,0,0,.613-.489c.261-.226.474-.407.641-.548a3.728,3.728,0,0,1,.356-.278c.051-.03.107-.059.162-.085s.115-.066.182-.111a4.643,4.643,0,0,1,1-.881,1.64,1.64,0,0,1,.854-.289.423.423,0,0,1,.372.177,1.044,1.044,0,0,1,.15.537c-.016.363-.02.711-.02,1.044a.939.939,0,0,0,.2.622.672.672,0,0,0,.561.278.394.394,0,0,0,.2-.056,1.306,1.306,0,0,0,.206-.141c.051-.067.1-.126.154-.185s.1-.115.158-.174a1.6,1.6,0,0,0,.3-.207c.107.218.2.407.273.57s.127.307.166.43c-.178.152-.352.311-.526.47a7.06,7.06,0,0,1-.549.463,3.075,3.075,0,0,1-.672.374,1.77,1.77,0,0,1-.649.126,1.578,1.578,0,0,1-1.158-.4,1.861,1.861,0,0,1-.475-1.217.74.74,0,0,0-.032-.2.581.581,0,0,0-.122-.211c-.035.037-.079.074-.127.115s-.1.093-.162.155c-.1.074-.225.163-.375.274s-.328.237-.526.388c-.273.259-.5.474-.684.641s-.316.285-.4.359a4.878,4.878,0,0,1-.538.366c-.206.122-.435.252-.692.381q-.243.117-.415.189a.744.744,0,0,1-.257.07,1.157,1.157,0,0,1-.822-.255,1.042,1.042,0,0,1-.265-.785,1.2,1.2,0,0,1,.134-.559,1.757,1.757,0,0,1,.4-.515,1.413,1.413,0,0,0,.024-.229.2.2,0,0,0-.007-.059,6.155,6.155,0,0,1-.76.521,1.336,1.336,0,0,1-.565.155,2.324,2.324,0,0,1-1.653-.97c-.565-.648-1-.97-1.3-.97-.4,0-1.072.551-2,1.662s-1.518,1.665-1.748,1.665a4.292,4.292,0,0,1-.467-.033.249.249,0,0,1-.138-.133.591.591,0,0,1-.048-.244,1.731,1.731,0,0,1,.071-.429c.048-.178.107-.385.186-.622.1-.307.182-.548.242-.729a2.124,2.124,0,0,0,.107-.377c.024-.1.055-.281.1-.555s.1-.641.166-1.1a.24.24,0,0,0-.067-.181.232.232,0,0,0-.162-.067.408.408,0,0,0-.182.048,1.277,1.277,0,0,0-.225.159c-.091.093-.194.185-.309.281s-.289.226-.537.4l-.826.884c-.285.3-.57.6-.862.907q-.7.755-1.107,1.121c-.277.241-.451.363-.526.363a1.494,1.494,0,0,1-.53-.074.25.25,0,0,1-.178-.229,5.84,5.84,0,0,1,.411-1.488,5.655,5.655,0,0,0,.411-1.6.177.177,0,0,0-.052-.126.186.186,0,0,0-.135-.048.584.584,0,0,0-.332.148,2.485,2.485,0,0,0-.431.459c-.111.115-.241.248-.4.4s-.344.33-.565.529a.788.788,0,0,1-.095.17c-.038.049-.074.1-.119.147l0,.009c-.071.059-.15.129-.237.207s-.194.17-.32.27c-.261.181-.6.4-1.024.659s-.925.551-1.51.881a2.133,2.133,0,0,1-.534.23,1.518,1.518,0,0,1-.732-.137.46.46,0,0,1-.241-.437.855.855,0,0,1,.051-.278,2.5,2.5,0,0,1,.146-.341c.043-.1.1-.192.15-.289a2.607,2.607,0,0,0,.138-.3,9.736,9.736,0,0,0,.388-1.266,4.723,4.723,0,0,0,.134-1.055,1.628,1.628,0,0,0-.194-.877.733.733,0,0,0-.573-.348,3.6,3.6,0,0,0-.553.37,4.586,4.586,0,0,0-.613.6c-.226.259-.427.474-.605.64a2.136,2.136,0,0,1-.439.337,1.969,1.969,0,0,1-.336.366,4.725,4.725,0,0,1-.613.444l-.071.133a.891.891,0,0,1-.142.184l0,.008c-.138.115-.273.229-.407.337s-.269.215-.415.315a2.127,2.127,0,0,1-.5.3,1.342,1.342,0,0,1-.471.093.74.74,0,0,1-.439-.122.828.828,0,0,1-.281-.337,3.681,3.681,0,0,1-.7.659,3.97,3.97,0,0,1-.909.492,3.666,3.666,0,0,1-.526.2,1.524,1.524,0,0,1-.435.074,1,1,0,0,0-.225.041,1.124,1.124,0,0,1-.273.045,1.673,1.673,0,0,1-1.194-.522,1.591,1.591,0,0,1-.534-1.162,2.525,2.525,0,0,1,.131-.688,3.324,3.324,0,0,0,.126-.5.161.161,0,0,0-.051-.126.22.22,0,0,0-.146-.048.8.8,0,0,0-.277.163c-.146.108-.356.263-.625.466a1.05,1.05,0,0,0-.083.129.905.905,0,0,1-.15.2c-.063-.167-.131-.333-.21-.5A5.428,5.428,0,0,0,133.033,144.823Zm-7.437,4.719h-.269a.728.728,0,0,1-.466-.152.762.762,0,0,1-.261-.477,2.165,2.165,0,0,1-.035-.363q-.012-.267-.012-.711c0-.122-.012-.314-.036-.573s-.035-.452-.035-.574a1.551,1.551,0,0,1,.032-.229,3.541,3.541,0,0,0,.04-.444c.016-.174.031-.381.047-.629a6.449,6.449,0,0,0-.083-.681c.055-.385.119-.774.186-1.173a1.366,1.366,0,0,0-.016-.314c-.02-.152-.032-.252-.032-.3a.968.968,0,0,1,.043-.222,1.059,1.059,0,0,0,.04-.233.369.369,0,0,0-.04-.174.139.139,0,0,0-.123-.063l-.134.048c-.051.019-.1.037-.154.059a1.144,1.144,0,0,0-.174.044c-.071.022-.154.048-.257.074l-.1-.063-.036-.111q.107-.172.213-.333c.075-.111.142-.218.206-.326a1.123,1.123,0,0,1,.253-.252c.1-.07.205-.145.312-.215a.54.54,0,0,0,.214-.348,4.15,4.15,0,0,0,.135-.826c.032-.411.067-.748.1-1.006a2.6,2.6,0,0,1,.119-.533c.027-.085.067-.2.115-.337a.943.943,0,0,0-.036-.2.984.984,0,0,1-.035-.2c.055-.333.111-.655.162-.966a3.957,3.957,0,0,1,.581-1.343,8.938,8.938,0,0,1,1.182-1.41,4.644,4.644,0,0,1,2.214-1.018c.107.019.2.041.289.063l.38-.129a.424.424,0,0,1,.146.033c.059.022.134.052.225.1a4.113,4.113,0,0,1,.463-.107,2.035,2.035,0,0,1,.316-.033,2.488,2.488,0,0,1,1.072.178.587.587,0,0,1,.352.547,4.123,4.123,0,0,1-.028.466,4.936,4.936,0,0,1-.1.566,2.214,2.214,0,0,1-.186.6c-.067.133-.146.207-.229.222q-.3-.128-.617-.244c-.206-.074-.423-.155-.648-.244l-.415.152c-.131-.011-.273-.03-.427-.052a2.868,2.868,0,0,0-.447.037c-.166.026-.34.059-.518.1-.486.108-.767.259-.842.448a7.165,7.165,0,0,1-.4.777,3.472,3.472,0,0,0-.3.877c-.135.515-.312,1.244-.538,2.191a1.124,1.124,0,0,1-.087.229.642.642,0,0,0-.075.27.4.4,0,0,0,.059.233.2.2,0,0,0,.15.093,4.705,4.705,0,0,1,.466-.17c.2-.059.435-.126.716-.2.245-.03.494-.067.743-.115s.514-.1.783-.178h.7c.261-.045.53-.085.8-.13a2.238,2.238,0,0,1,1.008.178.556.556,0,0,1,.336.507c0,.041,0,.152-.016.33s-.032.414-.056.711c-.1.166-.2.337-.312.511a4.926,4.926,0,0,1-.534-.081c-.285-.056-.688-.137-1.214-.244a5.316,5.316,0,0,1-.605.1,5.557,5.557,0,0,1-.672.041,4.762,4.762,0,0,0-.633.063,6.256,6.256,0,0,1-.628.078,1.2,1.2,0,0,1-.308.155.991.991,0,0,1-.308.048,3.472,3.472,0,0,1-.356-.03c-.1,0-.2.085-.293.252a2.892,2.892,0,0,0-.241.789l-.119.466.083.337-.222,1.288a1.135,1.135,0,0,0,.02.181,1.239,1.239,0,0,1,.016.211c-.1.577-.17,1.144-.214,1.7s-.063,1.106-.063,1.654a.967.967,0,0,1-.083.37A1.45,1.45,0,0,1,125.6,149.541Zm-25.577-13.272a.674.674,0,0,1,.423.108.379.379,0,0,1,.134.315c-.047.2-.083.374-.114.511-.079.259-.146.474-.206.64s-.1.285-.13.355a1.38,1.38,0,0,1-.285.418,1.892,1.892,0,0,1-.435.322,2.657,2.657,0,0,1-.447.244.611.611,0,0,1-.249.059c-.13-.015-.257-.03-.376-.041s-.237-.015-.352-.015a.512.512,0,0,1-.237-.292,1.58,1.58,0,0,1-.087-.585,1.381,1.381,0,0,1,.423-.818,1.3,1.3,0,0,1,.748-.529c.13-.152.285-.322.463-.518a1,1,0,0,1,.3-.126A1.637,1.637,0,0,1,100.019,136.269ZM93.057,141.3c-.17,0-.4.207-.684.622a1.992,1.992,0,0,0-.427.918.122.122,0,0,0,.027.093.191.191,0,0,0,.123.026.239.239,0,0,0,.21-.126c.051-.081.1-.159.15-.233q.125-.105.249-.233c.079-.082.158-.163.237-.241a1.2,1.2,0,0,0,.206-.3.725.725,0,0,0,.071-.3.274.274,0,0,0-.04-.159A.136.136,0,0,0,93.057,141.3Zm-4.737-3.764c-.047,0-.079.026-.1.082s-.048.133-.087.233a1.371,1.371,0,0,1-.079.292c-.047.122-.111.278-.186.466-.063.159-.111.3-.146.418a1.044,1.044,0,0,0-.051.289l.083.085.174-.163a1.048,1.048,0,0,1,.091-.359,4.337,4.337,0,0,1,.221-.444,4.2,4.2,0,0,0,.174-.388.919.919,0,0,0,.055-.27.351.351,0,0,0-.035-.185A.12.12,0,0,0,88.32,137.539ZM73.908,141.3c-.17,0-.4.207-.684.622a2,2,0,0,0-.427.918.122.122,0,0,0,.028.093.191.191,0,0,0,.123.026.239.239,0,0,0,.21-.126c.051-.081.1-.159.15-.233q.125-.105.249-.233c.079-.082.158-.163.237-.241a1.217,1.217,0,0,0,.206-.3.725.725,0,0,0,.071-.3.276.276,0,0,0-.039-.159A.137.137,0,0,0,73.908,141.3Zm-3.7,3.52a2.77,2.77,0,0,1,.36-.459,4.087,4.087,0,0,1,.554-.481c.024-.145.047-.289.071-.429s.036-.285.043-.429a2.969,2.969,0,0,1,.111-.355c.051-.141.107-.289.17-.448s.162-.355.281-.6.277-.5.471-.8c.162-.163.332-.348.51-.548s.356-.4.534-.6a2.461,2.461,0,0,1,.277-.185,3.473,3.473,0,0,0,.3-.2,2.972,2.972,0,0,1,.312-.074,2.079,2.079,0,0,1,.384-.033,1.654,1.654,0,0,1,.471.056.6.6,0,0,1,.292.182.966.966,0,0,1,.158.262,3.2,3.2,0,0,1,.147.422,1.241,1.241,0,0,1-.083.91l-.1.348a3.78,3.78,0,0,1-.732,1.2,16.528,16.528,0,0,1-1.53,1.562.808.808,0,0,0-.139.189.531.531,0,0,0-.055.244.872.872,0,0,0,.087.4.561.561,0,0,0,.249.259.981.981,0,0,0,.292.129,3.731,3.731,0,0,0,.482.119,3.642,3.642,0,0,0,.822-.141,3.541,3.541,0,0,0,.664-.259c.036-.022.1-.052.182-.093a1.362,1.362,0,0,0,.247-.151l0,0c.123-.152.245-.311.372-.478a10.2,10.2,0,0,0,1.384-1.254,4.665,4.665,0,0,0,.779-1.121l-.114-.518a2.12,2.12,0,0,1,.747-.64,1.993,1.993,0,0,1,.969-.37,1.037,1.037,0,0,1,.664.218c.182.144.356.3.526.455a1.271,1.271,0,0,1,.186.119,1.986,1.986,0,0,1,.7.9,3.767,3.767,0,0,1,.233,1.4,3.454,3.454,0,0,1-.36,1.244,3.337,3.337,0,0,0-.36,1.218.106.106,0,0,0,.04.089.17.17,0,0,0,.111.033.747.747,0,0,0,.36-.126,3.219,3.219,0,0,0,.451-.341,5.553,5.553,0,0,1,.743-.625,2.031,2.031,0,0,0,.305-.194l0-.009a1.25,1.25,0,0,1,.123-.167c.047-.063.111-.137.178-.222q.279-.377.463-.655c.123-.185.214-.326.269-.429a2.892,2.892,0,0,0,.257-.585,4.514,4.514,0,0,0,.158-.629,20.523,20.523,0,0,1,.81-3.327q.581-1.777,1.471-3.827a3.589,3.589,0,0,1,.7-1.081,1.1,1.1,0,0,1,.763-.363.9.9,0,0,1,.487.115.539.539,0,0,1,.245.363,2.437,2.437,0,0,1,.04.337c.012.159.02.362.02.618,0,.056-.063.574-.186,1.551-.127.485-.3,1.084-.522,1.806s-.5,1.551-.834,2.5c-.079.13-.166.3-.265.5s-.226.444-.372.725c-.024.052-.048.119-.075.2a2.694,2.694,0,0,1-.111.278,1.041,1.041,0,0,0-.182.248c-.063.115-.138.263-.225.433a13.679,13.679,0,0,0-.4,1.532q-.19.921-.352,2.176-.16,1.182-.245,2.11c-.051.618-.079,1.155-.079,1.61q.012.261.048.544a3.879,3.879,0,0,0,.075.515c.028.118.063.177.111.177.107,0,.273-.222.5-.666s.522-1.111.886-2l-.036-.215c.032-.067.075-.148.135-.252a1.456,1.456,0,0,0,.146-.388c.194-.581.336-1.029.427-1.351a5.5,5.5,0,0,1,.174-.548,4.49,4.49,0,0,1,.423-.847,6.038,6.038,0,0,1,.578-.772l0-.009a2.773,2.773,0,0,1,.36-.459,4.107,4.107,0,0,1,.554-.481c.024-.145.047-.289.071-.429s.035-.285.043-.429a3.021,3.021,0,0,1,.111-.355c.052-.141.107-.289.17-.448s.162-.355.281-.6.277-.5.471-.8c.162-.163.332-.348.51-.548s.356-.4.534-.6a2.49,2.49,0,0,1,.277-.185,3.471,3.471,0,0,0,.3-.2,2.99,2.99,0,0,1,.312-.074,2.076,2.076,0,0,1,.383-.033,1.651,1.651,0,0,1,.471.056.6.6,0,0,1,.293.182.973.973,0,0,1,.158.262,3.2,3.2,0,0,1,.146.422c.1.7.025.543-.186,1.258a3.78,3.78,0,0,1-.732,1.2,16.5,16.5,0,0,1-1.53,1.562.808.808,0,0,0-.138.189.531.531,0,0,0-.055.244.875.875,0,0,0,.087.4.563.563,0,0,0,.249.259.983.983,0,0,0,.293.129,3.736,3.736,0,0,0,.482.119,3.639,3.639,0,0,0,.822-.141,3.543,3.543,0,0,0,.664-.259c.035-.022.1-.052.182-.093a.526.526,0,0,0,.346-.346,7.564,7.564,0,0,1,1.1-1.042,7.065,7.065,0,0,0,1.087-1.044.756.756,0,0,1,.265-.252.7.7,0,0,1,.3-.074,1.172,1.172,0,0,1,.68.189.914.914,0,0,1,.372.57c.056.226.107.452.15.677s.087.455.119.688c.051.145.119.363.194.655a2.086,2.086,0,0,0,.174.5.364.364,0,0,0,.174.155.749.749,0,0,0,.293.048,1.357,1.357,0,0,0,.427-.07,1.5,1.5,0,0,0,.45-.244c.119-.093.238-.189.368-.285a3.287,3.287,0,0,0,.589-.592c.071-.085.158-.189.261-.3a12.909,12.909,0,0,0,1.6-1.706,21.089,21.089,0,0,0,1.546-2.28,2.834,2.834,0,0,0,.21-.314c.079-.13.162-.292.257-.489a.116.116,0,0,0-.035-.1.171.171,0,0,0-.119-.033,1.075,1.075,0,0,0-.226.037,1.037,1.037,0,0,1-.237.037h-1.447c-.063,0-.162,0-.308-.011s-.245-.011-.3-.011c-.079-.033-.15-.067-.214-.093s-.13-.052-.194-.078a.621.621,0,0,1-.213-.115.222.222,0,0,1-.075-.17,2.768,2.768,0,0,1,.158-1.062.507.507,0,0,1,.478-.367c.218,0,.419.008.609.026s.356.04.506.07c.115-.022.221-.044.324-.067.205,0,.383.007.53.022a2,2,0,0,1,.336.056c.1-.022.2-.041.3-.059l.32-.059.38.107c.273-.03.561-.381.866-1.062s.633-1.018.981-1.018a.558.558,0,0,1,.427.163.683.683,0,0,1,.15.477,1.882,1.882,0,0,1-.158.655,2.835,2.835,0,0,0-.178.611.522.522,0,0,0,.063.092.839.839,0,0,0,.122.115.229.229,0,0,1,.1.144.948.948,0,0,1,.028.255,5.87,5.87,0,0,1-.063,1c-.043.237-.111.356-.2.363l-.791.152c-.016.074-.035.163-.056.266s-.055.226-.095.363q-.2.544-.439,1.377t-.546,1.973c-.122.607-.217,1.1-.285,1.473a5.274,5.274,0,0,0-.1.759.458.458,0,0,0,.059.259.193.193,0,0,0,.174.089,2.019,2.019,0,0,0,.5-.314c.171-.123.908-.658,1.214-.933a1.179,1.179,0,0,0,.146-.167,3.328,3.328,0,0,1,1.253-.959,1.448,1.448,0,0,0,.138-.148,1.492,1.492,0,0,0,.186-.263.768.768,0,0,1,.217-.241,1.747,1.747,0,0,1,.3-.174,3.515,3.515,0,0,1,.269-.27q.172-.161.439-.377c.083-.045.194-.108.324-.192a3.279,3.279,0,0,0,.427-.33,12.428,12.428,0,0,1,1.85-1.4,2.775,2.775,0,0,1,1.336-.466.71.71,0,0,1,.447.118.42.42,0,0,1,.142.337.861.861,0,0,1-.087.4.726.726,0,0,1-.269.3q-.29.195-.628.433a5.28,5.28,0,0,1-.451.481,5.355,5.355,0,0,1-.625.5c-.079.1-.142.178-.2.252-.039.033-.111.1-.221.192a4.218,4.218,0,0,1-.427.326,2.586,2.586,0,0,1-.5.618c-.261.255-.6.559-1.04.911a4.02,4.02,0,0,0-.288.348c-.139.182-.32.418-.546.718l.083.1a2.1,2.1,0,0,0,.534-.259,6.678,6.678,0,0,0,.613-.489c.261-.226.474-.407.641-.548a3.736,3.736,0,0,1,.356-.278c.051-.03.107-.059.162-.085s.115-.066.182-.111a4.643,4.643,0,0,1,1-.881,1.641,1.641,0,0,1,.854-.289.423.423,0,0,1,.372.177,1.05,1.05,0,0,1,.15.537c-.016.363-.02.711-.02,1.044a.939.939,0,0,0,.2.622.673.673,0,0,0,.561.278.4.4,0,0,0,.2-.056,1.321,1.321,0,0,0,.206-.141c.051-.067.1-.126.154-.185s.1-.115.158-.174a1.6,1.6,0,0,0,.3-.207c.107.218.2.407.273.57s.126.307.166.43c-.178.152-.352.311-.526.47a7.017,7.017,0,0,1-.55.463,3.054,3.054,0,0,1-.672.374,1.769,1.769,0,0,1-.648.126,1.577,1.577,0,0,1-1.158-.4,1.861,1.861,0,0,1-.475-1.217.752.752,0,0,0-.031-.2.587.587,0,0,0-.123-.211c-.036.037-.079.074-.127.115s-.1.093-.162.155c-.1.074-.225.163-.375.274s-.328.237-.526.388c-.273.259-.5.474-.684.641s-.316.285-.4.359a4.876,4.876,0,0,1-.538.366c-.205.122-.435.252-.692.381q-.243.117-.416.189a.741.741,0,0,1-.257.07,1.156,1.156,0,0,1-.822-.255,1.042,1.042,0,0,1-.265-.785,1.2,1.2,0,0,1,.135-.559,1.748,1.748,0,0,1,.4-.515,1.518,1.518,0,0,0,.024-.224c-.086.078-.219.186-.336.276-.138.107-.3.226-.5.348-.079.078-.174.167-.289.266s-.245.211-.384.341-.277.288-.411.433-.273.285-.411.422a1.9,1.9,0,0,1-.545.407,1.157,1.157,0,0,1-.5.126.959.959,0,0,1-.759-.281,1.269,1.269,0,0,1-.249-.858,10.709,10.709,0,0,1,.048-1.088,3.057,3.057,0,0,1,.15-.744.688.688,0,0,0,.067-.152,1.651,1.651,0,0,1,.035-.292q.035-.183.083-.433c.043-.281.095-.562.15-.848.083-.17.174-.355.265-.551,0-.037-.032-.07-.091-.1l-.115.063a4.248,4.248,0,0,1-.455.548,7.75,7.75,0,0,1-.66.6c-.139.125-1.461,1.38-1.526,1.506a5.123,5.123,0,0,1-.494.4c-.2.148-.447.318-.735.514a6.029,6.029,0,0,1-.811.485,1.337,1.337,0,0,1-.51.155,2.629,2.629,0,0,1-1.364-.229,2.969,2.969,0,0,1-.7-1.266,1.586,1.586,0,0,0-.138-.207c-.063-.081-.134-.174-.21-.281a2.435,2.435,0,0,0-.245-.374c-.067-.085-.127-.126-.174-.126a.954.954,0,0,0-.5.233,7,7,0,0,0-.763.7,7.022,7.022,0,0,1-1.2.918,2.052,2.052,0,0,1-.992.307,1.348,1.348,0,0,1-.423.159,2.75,2.75,0,0,1-.562.048,2.276,2.276,0,0,1-.759-.119,1.432,1.432,0,0,1-.55-.348,1.263,1.263,0,0,1-.233-.322c-.075-.14-.158-.307-.242-.5a1.522,1.522,0,0,0-.2-.351.264.264,0,0,0-.209-.115.381.381,0,0,0-.21.081,1.537,1.537,0,0,0-.245.236l0,.009a2.682,2.682,0,0,0-.312.492,3.5,3.5,0,0,0-.245.659q-.1.3-.178.622c-.051.215-.1.418-.158.614a32.152,32.152,0,0,1-1.135,3.442,9.5,9.5,0,0,1-1.052,2.043,2.389,2.389,0,0,1-.194.285c-.071.093-.138.185-.2.27a1.3,1.3,0,0,1-.289.222.643.643,0,0,1-.312.082,1.371,1.371,0,0,1-.795-.207,1.069,1.069,0,0,1-.411-.618c-.04-.23-.071-.459-.1-.689s-.056-.451-.087-.677a2.776,2.776,0,0,1-.1-.451,3.421,3.421,0,0,1-.036-.515v-1.647a1.931,1.931,0,0,1,.051-.37,1.929,1.929,0,0,0,.051-.377c-.044-.218-.091-.44-.138-.662.024-.255.063-.57.123-.955s.13-.821.213-1.314l-.294-.243c-.07.058-.147.127-.231.2s-.194.17-.32.27c-.261.181-.6.4-1.024.659s-.925.551-1.51.881a2.126,2.126,0,0,1-.534.23,1.517,1.517,0,0,1-.732-.137.46.46,0,0,1-.241-.437.863.863,0,0,1,.051-.278,2.549,2.549,0,0,1,.146-.341c.043-.1.095-.192.15-.289a2.56,2.56,0,0,0,.138-.3,9.681,9.681,0,0,0,.388-1.266,4.705,4.705,0,0,0,.134-1.055,1.628,1.628,0,0,0-.194-.877.733.733,0,0,0-.573-.348,3.6,3.6,0,0,0-.554.37,4.606,4.606,0,0,0-.613.6c-.225.259-.427.474-.6.64a2.135,2.135,0,0,1-.439.337,1.969,1.969,0,0,1-.336.366,4.724,4.724,0,0,1-.613.444l-.071.133a5.266,5.266,0,0,1-1.348,1.11,2.052,2.052,0,0,1-.993.307,1.341,1.341,0,0,1-.423.159,2.749,2.749,0,0,1-.561.048,2.275,2.275,0,0,1-.759-.119,1.428,1.428,0,0,1-.55-.348,1.263,1.263,0,0,1-.233-.322c-.075-.14-.158-.307-.241-.5a1.51,1.51,0,0,0-.2-.351.264.264,0,0,0-.209-.115.379.379,0,0,0-.21.081,1.558,1.558,0,0,0-.253.244,2.478,2.478,0,0,0-.162-.4C70.429,145.259,70.326,145.063,70.2,144.823Zm-6.777-10.481a.142.142,0,0,0-.1.03.146.146,0,0,0-.031.1q1.37,1.332,1.368,1.973a13.206,13.206,0,0,1-.447,1.688,15.555,15.555,0,0,1-.6,1.8l.091.455c-.21.733-.364,1.358-.471,1.884a6.835,6.835,0,0,0-.154,1.251.238.238,0,0,0,.051.174.19.19,0,0,0,.146.056,1.63,1.63,0,0,0,.415-.1,5.564,5.564,0,0,0,.775-.337c.2-.1.4-.192.605-.281s.4-.178.613-.27c.087-.045.182-.1.3-.167s.233-.152.364-.244c.186-.133.332-.237.439-.322s.178-.133.209-.156a2.174,2.174,0,0,0,.755-.814A2.465,2.465,0,0,0,68,139.9a3.4,3.4,0,0,0-.1-.814,4.631,4.631,0,0,0-.3-.847l-.02-.259a.536.536,0,0,0-.083-.126c-.04-.044-.083-.1-.127-.155a1.223,1.223,0,0,1-.15-.174,1.139,1.139,0,0,1-.15-.281,4.34,4.34,0,0,0-.672-.836,14.523,14.523,0,0,0-1.3-1.147c-.059-.052-.13-.111-.206-.182s-.162-.14-.257-.222l-.522-.222C63.921,134.556,63.688,134.456,63.427,134.341Zm-.953,1.288a1.847,1.847,0,0,0-.214-.407c-.111-.167-.253-.385-.423-.644-.178-.237-.308-.426-.4-.559a.7.7,0,0,1-.126-.278q0-.3.747-1c.5-.466.862-.7,1.095-.7a1.373,1.373,0,0,1,.372.2h.348c.206.1.423.192.641.281s.435.178.644.27a4.105,4.105,0,0,1,1.171.644,3.422,3.422,0,0,0,.739.548,3.841,3.841,0,0,0,.281.289c.139.133.328.3.566.5a.76.76,0,0,1,.119.119c.043.059.095.122.15.185a12.912,12.912,0,0,1,.838,1.022,4.687,4.687,0,0,1,.518.866,4.754,4.754,0,0,1,.328,1.04,6.052,6.052,0,0,1,.111,1.2,5.186,5.186,0,0,1-.348,2.028,2.41,2.41,0,0,1-1.075,1.225,1.833,1.833,0,0,1-.2.126c-.087.044-.17.1-.257.155l-.15.141a2.471,2.471,0,0,1-.652.44,11.255,11.255,0,0,1-1.2.5q-.984.361-2.076.781c-.2.093-.372.17-.514.229a1.009,1.009,0,0,1-.332.085,1.024,1.024,0,0,0-.4.044,2.4,2.4,0,0,0-.127.866q-.035.533-.071,1.044a.953.953,0,0,0,.123.426,2.259,2.259,0,0,0,.375.526,4.049,4.049,0,0,1-.237.425,4.715,4.715,0,0,1-.332.445,1.654,1.654,0,0,1-.427.437.741.741,0,0,1-.415.148.593.593,0,0,1-.565-.381,2.781,2.781,0,0,1-.178-1.136,2.837,2.837,0,0,1,.083-.6c.051-.241.135-.54.241-.892l-.059-.629c-.1-.044-.2-.093-.292-.14s-.194-.108-.285-.163a.753.753,0,0,1-.3-.2.337.337,0,0,1-.087-.218c0-.085.186-.215.561-.385s.562-.392.562-.677a1.618,1.618,0,0,0-.052-.344,1.635,1.635,0,0,1-.051-.337c.067-.422.146-.844.229-1.27a2.6,2.6,0,0,0,.059-.392c.024-.215.055-.526.091-.933q.035-.183.107-.466c.047-.185.095-.4.15-.648l-.083-.392Z" transform="translate(-35.933 -84.726)"/></g></svg>