<svg xmlns="http://www.w3.org/2000/svg" width="87" height="48.187" viewBox="0 0 87 48.187"><defs><style>.a{fill:#3e3e3e;}</style></defs><g transform="translate(-14.095 -16.339)"><path class="a" d="M377.419,47.021c.016-.3.036-.49.036-.682,0-5.946.011-11.891-.006-17.837a11.5,11.5,0,0,0-.895-4.486A12.231,12.231,0,0,0,362.7,16.692a12.413,12.413,0,0,0-9.071,7.883,14.142,14.142,0,0,0-.681,4.613q-.006,8.416,0,16.832c0,.223,0,.447.013.669a1.751,1.751,0,0,0,.095.334h.926a2.637,2.637,0,0,0,.087-1.016q0-8.584,0-17.167a12.456,12.456,0,0,1,.4-3.145,11.128,11.128,0,0,1,21.845,2.853q.012,8.625,0,17.251c0,.251-.011.5.005.753a3.5,3.5,0,0,0,.091.469Z" transform="translate(-276.364 -0.085)"/><path class="a" d="M14.238,47.111a13.149,13.149,0,0,0,3.7-.568A12.206,12.206,0,0,0,26.407,35c.027-5.914.007-11.828,0-17.742,0-.217-.026-.434-.043-.7a2.282,2.282,0,0,0-1.022.034,2.763,2.763,0,0,0-.073,1q0,8.578-.005,17.157a10.819,10.819,0,0,1-6.663,10.34,8.382,8.382,0,0,1-2.726.763c-.552.06-1.1.124-1.676.188A1.218,1.218,0,0,0,14.238,47.111Z" transform="translate(0 -0.143)"/><path class="a" d="M313.483,16.743c-.012.363-.03.664-.03.966q0,14.311,0,28.622c0,.139-.007.279,0,.418.011.16.036.32.057.5a1.778,1.778,0,0,0,1.023-.016,2.278,2.278,0,0,0,.055-.345q-.008-14.98-.024-29.959c0-.047-.051-.094-.1-.181Z" transform="translate(-244.155 -0.33)"/><path class="a" d="M257.357,235.918c-.149.221-.2.265-.2.309-.006,1.311-.064,2.626.007,3.933a3.61,3.61,0,0,0,2.772,3.2,3.651,3.651,0,0,0,3.719-1.15c.142-.152.235-.363.463-.472.253.576-.109,1.2.256,1.719.276-.163.209-.407.21-.618q.007-3.1,0-6.2a1.831,1.831,0,0,0-.039-.413c-.015-.064-.094-.113-.182-.212a1.253,1.253,0,0,0-.137.326c-.02.25-.013.5-.014.753,0,.977.024,1.955-.021,2.93a3.109,3.109,0,0,1-1.954,2.8,3.178,3.178,0,0,1-3.465-.422,3.284,3.284,0,0,1-1.3-2.689c-.006-1.033,0-2.066-.006-3.1A6.009,6.009,0,0,0,257.357,235.918Z" transform="translate(-198.216 -179.09)"/><path class="a" d="M450.279,241.727c-.23,0-.277.108-.244.268a2.018,2.018,0,0,0,1.985,1.705c.835.032,1.672.012,2.508,0a2.092,2.092,0,0,0,.571-.108,1.961,1.961,0,0,0,1.4-2.113,1.934,1.934,0,0,0-1.69-1.791,6.6,6.6,0,0,0-.833-.054c-.474-.009-.948,0-1.421-.006a1.511,1.511,0,0,1-1.568-1.735,1.4,1.4,0,0,1,1.193-1.234,13,13,0,0,1,2.162,0,1.316,1.316,0,0,1,1.073.835c.073.147.088.323.157.473.025.054.13.072.221.117a.783.783,0,0,0,.063-.251,1.659,1.659,0,0,0-1.287-1.478,5.379,5.379,0,0,0-2.565-.014,1.781,1.781,0,0,0-1.37,1.857,1.825,1.825,0,0,0,1.508,1.753,4.281,4.281,0,0,0,.748.055c.529.009,1.06-.015,1.588.015a2.14,2.14,0,0,1,.8.188,1.613,1.613,0,0,1,.882,1.66,1.564,1.564,0,0,1-1.243,1.4,10.236,10.236,0,0,1-3.323,0,1.488,1.488,0,0,1-1.131-1.015C450.4,242.075,450.338,241.893,450.279,241.727Z" transform="translate(-355.547 -179.311)"/><path class="a" d="M217.158,238.751a3.578,3.578,0,0,0-4.53-2.07,3.726,3.726,0,0,0,1.668,7.224c1.505-.2,2.956-1.448,2.872-2.477a1.4,1.4,0,0,0-.257.214c-.13.181-.226.386-.36.563a3.351,3.351,0,0,1-3.8,1.211,3.374,3.374,0,0,1-.2-6.329,3.345,3.345,0,0,1,3.7.778c.192.2.341.44.524.65A2.054,2.054,0,0,0,217.158,238.751Z" transform="translate(-159.865 -179.549)"/><path class="a" d="M306.033,243.986a6.838,6.838,0,0,0,.108-.748c.008-.947-.012-1.894.012-2.84a4.823,4.823,0,0,1,.162-1.317,3.351,3.351,0,0,1,5.547-1.366c.216.213.385.474.58.708.1.114.207.187.346.057a3.546,3.546,0,0,0-3.644-2.067,3.773,3.773,0,0,0-2.513,1.345c-.112.131-.157.377-.467.308-.008-.434-.006-.877-.031-1.319a1.3,1.3,0,0,0-.173-.374c-.078.14-.151.21-.152.28q-.009,3.467,0,6.933C305.81,243.655,305.884,243.724,306.033,243.986Z" transform="translate(-237.92 -179.46)"/><path class="a" d="M353.471,236.7c-.177.276.05.481.147.687.966,2.041,1.948,4.074,2.926,6.109.072.15.145.3.231.445a.246.246,0,0,0,.458,0c.292-.571.57-1.149.847-1.727q1.193-2.488,2.38-4.98c.08-.167.236-.329.079-.535-.285.037-.309.3-.4.484-.91,1.882-1.809,3.77-2.713,5.655-.119.249-.253.49-.408.79-.119-.2-.213-.335-.285-.481-.271-.55-.536-1.1-.8-1.656-.686-1.433-1.367-2.869-2.06-4.3C353.784,237.009,353.751,236.753,353.471,236.7Z" transform="translate(-276.743 -179.729)"/><path class="a" d="M144.928,31.7a15.282,15.282,0,1,1-15.176-15.364C138.083,16.387,145.156,23.458,144.928,31.7Zm-29.438-.034A14.179,14.179,0,1,0,129.606,17.5,14.242,14.242,0,0,0,115.491,31.669Z" transform="translate(-81.778 0)"/><path class="a" d="M377.419,47.021h-1.01a3.5,3.5,0,0,1-.091-.469c-.016-.25-.005-.5-.005-.753q0-8.625,0-17.251A11.128,11.128,0,0,0,354.466,25.7a12.456,12.456,0,0,0-.4,3.145q0,8.583,0,17.167a2.637,2.637,0,0,1-.087,1.016h-.926a1.751,1.751,0,0,1-.095-.334c-.016-.222-.013-.446-.013-.669q0-8.416,0-16.832a14.142,14.142,0,0,1,.681-4.613,12.413,12.413,0,0,1,9.071-7.883,12.231,12.231,0,0,1,13.858,7.324,11.5,11.5,0,0,1,.895,4.486c.017,5.945.008,11.891.006,17.837C377.455,46.531,377.435,46.724,377.419,47.021Z" transform="translate(-276.364 -0.085)"/><path class="a" d="M14.238,47.111a1.218,1.218,0,0,1-.034-1.077c.572-.064,1.124-.127,1.676-.188a8.382,8.382,0,0,0,2.726-.763,10.819,10.819,0,0,0,6.663-10.34q.007-8.578.005-17.157a2.763,2.763,0,0,1,.073-1,2.282,2.282,0,0,1,1.022-.034c.017.27.042.486.043.7,0,5.914.022,11.828,0,17.742a12.206,12.206,0,0,1-8.475,11.543A13.149,13.149,0,0,1,14.238,47.111Z" transform="translate(0 -0.143)"/><path class="a" d="M313.483,16.743h.981c.051.087.1.134.1.181q.017,14.98.024,29.959a2.278,2.278,0,0,1-.055.345,1.778,1.778,0,0,1-1.023.016c-.021-.175-.046-.335-.057-.5-.009-.139,0-.279,0-.418q0-14.311,0-28.622C313.454,17.407,313.472,17.106,313.483,16.743Z" transform="translate(-244.155 -0.33)"/><path class="a" d="M408.746,240.21a19.4,19.4,0,0,1-2.366.054c-.752.012-1.5-.008-2.257.006a16.633,16.633,0,0,0-2.369.065,3.658,3.658,0,0,0,.059.676,3.384,3.384,0,0,0,6.053,1.155c.133-.176.222-.387.356-.563.049-.065.17-.074.364-.151a2.938,2.938,0,0,1-.794,1.351,3.4,3.4,0,0,1-1.532.978,3.779,3.779,0,0,1-1.9.1,3.723,3.723,0,0,1,.966-7.366A3.566,3.566,0,0,1,408.746,240.21Zm-.34-.414a3.31,3.31,0,0,0-3.691-2.906c-1.616.205-2.977,1.6-2.849,2.95a1.99,1.99,0,0,0,.315.048q2.971,0,5.942-.006A1.2,1.2,0,0,0,408.406,239.8Z" transform="translate(-315.877 -179.572)"/></g></svg>