<svg xmlns="http://www.w3.org/2000/svg" xmlns:xlink="http://www.w3.org/1999/xlink" width="113" height="88.223" viewBox="0 0 113 88.223"><defs><style>.a{fill:#3e3e3e;}.b{clip-path:url(#a);}</style><clipPath id="a"><rect class="a" width="113" height="88.223"/></clipPath></defs><g transform="translate(-11.544 -30.062)"><g transform="translate(11.544 30.062)"><g class="b"><g transform="translate(28.798 -0.008)"><path class="a" d="M118.64,33.43S102.1,28.5,94.807,37.616,86.2,66.082,98.857,70.423c2.742.941,4.113,1.419,11.545.759a22.556,22.556,0,0,1-5.063-15.343,116.675,116.675,0,0,0-.361-13.455,11.95,11.95,0,0,0-.854-2.952,5.255,5.255,0,0,1,4.254,5.2c.4,4.726-.811,16.609,2.026,21.066a26.523,26.523,0,0,0,7.7,8.236,10.276,10.276,0,0,1-5.419-.854c-1.3-.813-10.368,5.547-21.218-2.861-6.239-4.834-8.962-16.355-1.828-31.395,0,0,8.894-15.394,29.015-5.4" transform="translate(-64.787 -30.05)"/><path class="a" d="M54.607,33.434s16.541-4.928,23.837,4.187,8.6,28.465-4.055,32.805c-2.742.941-4.112,1.419-11.547.759a22.556,22.556,0,0,0,5.063-15.343,116.824,116.824,0,0,1,.361-13.455,11.98,11.98,0,0,1,.855-2.952,5.254,5.254,0,0,0-4.254,5.2c-.4,4.726.811,16.609-2.026,21.066a26.524,26.524,0,0,1-7.7,8.243,10.275,10.275,0,0,0,5.419-.854c1.3-.813,10.368,5.547,21.218-2.86,6.239-4.835,8.962-16.356,1.828-31.4,0,0-8.894-15.394-29.015-5.4" transform="translate(-54.591 -30.054)"/></g></g></g><path class="a" d="M11.544,107.3h4.064c6.018,0,11.019,3.178,11.019,9.717,0,6.694-4.9,9.924-11.1,9.924H11.544V107.29m2.449,17.4h.859c5,0,9.326-1.876,9.326-7.58s-4.325-7.58-9.326-7.58h-.859Z" transform="translate(0 -25.563)"/><rect class="a" width="2.449" height="19.641" transform="translate(28.996 81.734)"/><path class="a" d="M48.537,121.605,46.3,126.529h-2.63l9.367-20.475L62.4,126.529H59.791l-2.248-4.924H48.537m4.5-10.185-3.5,7.944h6.98Z" transform="translate(-10.633 -25.154)"/><path class="a" d="M76.606,124.7h5.965v2.239H74.159V107.287h2.449v17.4" transform="translate(-20.726 -25.562)"/><path class="a" d="M107.659,116.887A10.289,10.289,0,1,1,97.37,106.6a10.289,10.289,0,0,1,10.289,10.288m-2.446,0a7.841,7.841,0,0,0-15.682-.01v.01a7.841,7.841,0,0,0,15.682.011Z" transform="translate(-25.004 -25.335)"/><path class="a" d="M138.621,116.835v.781a9.122,9.122,0,0,1-8.7,9.526c-.2.009-.4.011-.6.007a10.24,10.24,0,1,1,8.257-16.67l-1.72,1.64a7.743,7.743,0,0,0-14.019,4.768,8.021,8.021,0,0,0,7.633,8.021,6.6,6.6,0,0,0,6.433-5.835h-5.078v-2.239h7.788" transform="translate(-35.697 -25.36)"/><path class="a" d="M170.274,116.887a10.289,10.289,0,1,1-20.577,0h0a10.289,10.289,0,0,1,20.577,0m-2.449,0a7.841,7.841,0,0,0-15.682,0h0a7.841,7.841,0,1,0,15.682,0Z" transform="translate(-45.73 -25.335)"/><path class="a" d="M43.4,145.59v6.673c0,2.022-.391,4.055-2.842,4.055a3.082,3.082,0,0,1-1.645-.457l.653-1.115a1.752,1.752,0,0,0,1.047.347c1.505,0,1.478-1.755,1.478-2.828v-6.674H43.4" transform="translate(-9.058 -38.241)"/><path class="a" d="M61.26,145.587H66.9v1.2H62.563v2.94H66.77v1.2H62.563v3.971H66.9v1.2H61.26V145.58" transform="translate(-16.457 -38.238)"/><path class="a" d="M85.963,153.239l-1.2,2.632H83.359l5.026-10.95,5.026,10.95H92l-1.2-2.632H85.986m2.41-5.449L86.53,152.04h3.733Z" transform="translate(-23.772 -38.02)"/><path class="a" d="M112.4,144.834l7.887,8.261v-7.768h1.311v10.937L113.709,148v7.83H112.4V144.825" transform="translate(-33.384 -37.988)"/><path class="a" d="M146.243,147.468a1.8,1.8,0,0,0-1.686-.989,1.657,1.657,0,0,0-1.755,1.492c0,.823.809,1.254,1.462,1.5l.751.292c1.492.585,2.605,1.408,2.605,3.164a3.237,3.237,0,0,1-3.2,3.276q-.08,0-.161,0a3.273,3.273,0,0,1-3.246-2.94l1.323-.279a1.985,1.985,0,1,0,3.97-.055c0-1.129-.914-1.617-1.812-1.992l-.724-.306c-1.2-.516-2.285-1.2-2.285-2.662a2.865,2.865,0,0,1,3-2.722l.093.006a3,3,0,0,1,2.7,1.6l-1.046.628" transform="translate(-42.857 -38.127)"/></g></svg>