<svg xmlns="http://www.w3.org/2000/svg" width="165" height="38.605" viewBox="0 0 165 38.605"><defs><style>.a{fill:#3e3e3e;}</style></defs><g transform="translate(-13.5 -14.666)"><path class="a" d="M20.058,40.445c-.37,3.808-.477,7.615-.9,11.423h-.106c-.317-3.808-.529-7.51-.9-11.423L15.615,15.272H13.5l4.125,38.182h2.856l4.125-38.182H22.543Z" transform="translate(0 -0.395)"/><rect class="a" width="2.115" height="38.182" transform="translate(28.996 14.878)"/><path class="a" d="M75.963,16.859h3.755v36.6h2.115v-36.6h3.755V15.272H75.963Z" transform="translate(-40.674 -0.395)"/><path class="a" d="M119.733,14.666c-2.962,0-4.654,1.481-4.654,4.125V49.146c0,2.644,1.692,4.125,4.654,4.125s4.6-1.48,4.6-4.125V18.791C124.333,16.147,122.694,14.666,119.733,14.666Zm2.485,34.427a2.312,2.312,0,0,1-2.485,2.592,2.351,2.351,0,0,1-2.539-2.592V18.844a2.351,2.351,0,0,1,2.539-2.592,2.312,2.312,0,0,1,2.485,2.592Z" transform="translate(-66.144)"/><path class="a" d="M163.957,15.272H159.2V53.454h2.115V34.628h1.957a2.6,2.6,0,0,1,2.909,2.749V53.454h2.115V37.377c0-2.326-1.374-3.279-3.279-3.438v-.1c2.7-.211,3.279-1.693,3.279-3.755V18.816C168.293,16.436,166.495,15.272,163.957,15.272ZM166.178,30.5c0,1.692-1,2.539-2.8,2.539h-2.063V16.859h2.274c1.692,0,2.591.741,2.591,2.38Z" transform="translate(-94.872 -0.395)"/><rect class="a" width="2.115" height="38.182" transform="translate(79.873 14.878)"/><path class="a" d="M225.944,15.272l-4.283,38.182h1.9L224.728,42.3l.212-1.586,1.375-12.534c.423-3.808.581-7.721,1.005-11.529h.106c.106,3.861.635,7.721,1.058,11.529l1.322,12.534.158,1.586,1.216,11.159H233.3l-4.389-38.182Z" transform="translate(-135.547 -0.395)"/><path class="a" d="M348.016,15.273l-4.283,38.182h1.9L346.8,42.3l.211-1.586,1.375-12.534c.423-3.808.581-7.721,1.005-11.529h.106c.106,3.861.635,7.721,1.057,11.529l1.322,12.534.158,1.586,1.216,11.159h2.116l-4.389-38.182Z" transform="translate(-215.035 -0.395)"/><path class="a" d="M460.393,15.272h-2.962l-4.283,38.182h1.9L456.215,42.3l.211-1.586L457.8,28.176c.423-3.808.581-7.721,1.005-11.529h.106c.106,3.861.635,7.721,1.057,11.529l1.322,12.534.158,1.586,1.216,11.159h2.116Z" transform="translate(-286.282 -0.395)"/><path class="a" d="M299.28,38.277c-.423,3.913-.74,8.991-1,13.591h-.106c-.159-4.654-.53-9.572-.952-13.591l-2.326-23H291.4V53.454h2.115V29.762c0-2.379-.264-7.88-.211-12.9h.106c.211,4.39,1.057,12.058,1.375,15.336l2.168,21.26H299.6l2.116-21.471c.37-4.019,1.005-10.1,1.481-15.125h.106c-.106,4.813-.212,10.419-.212,12.9V53.454H305.2V15.272h-3.49Z" transform="translate(-180.959 -0.395)"/><path class="a" d="M392.28,15.272h-4.759V53.454h2.116V34.628h1.956a2.6,2.6,0,0,1,2.909,2.749V53.454h2.116V37.377c0-2.326-1.376-3.279-3.279-3.438v-.1c2.7-.211,3.279-1.693,3.279-3.755V18.816C396.617,16.436,394.819,15.272,392.28,15.272ZM394.5,30.5c0,1.692-1.005,2.539-2.8,2.539h-2.062V16.859h2.274c1.692,0,2.591.741,2.591,2.38Z" transform="translate(-243.549 -0.395)"/><rect class="a" width="2.115" height="38.182" transform="translate(159.521 14.878)"/></g></svg>