<svg xmlns="http://www.w3.org/2000/svg" width="198.361" height="29.005" viewBox="0 0 198.361 29.005"><defs><style>.a{fill:#3e3e3e;}</style></defs><g transform="translate(-17.5 -17.725)"><path class="a" d="M25.558,18.39H17.5V46.753h8.578A5.814,5.814,0,0,0,31.229,41.6l.028-17.634A5.681,5.681,0,0,0,25.558,18.39Zm-.491,24.4-2.987.027L22.107,22.4l2.577-.027a2.25,2.25,0,0,1,2.151,2.2l.04,16.161A2,2,0,0,1,25.067,42.793Z" transform="translate(0 -0.481)"/><rect class="a" width="4.414" height="27.707" transform="translate(33.8 18.276)"/><rect class="a" width="4.331" height="27.185" transform="translate(129.947 18.536)"/><rect class="a" width="4.386" height="27.531" transform="translate(190.062 18.224)"/><path class="a" d="M589.375,35.959,584.884,19.9l-5.208-.119-.132,27.557,3.963-.04.027-19.446,5.285,19.5,4.485-.02.007-27.484h-3.805Z" transform="translate(-406.118 -1.482)"/><path class="a" d="M477.551,20.048h-7.769V47.393h8.269a5.605,5.605,0,0,0,4.967-4.967l.027-17A5.476,5.476,0,0,0,477.551,20.048Zm-.473,23.528-2.88.026.027-19.683,2.484-.026a2.169,2.169,0,0,1,2.074,2.12l.039,15.581A1.93,1.93,0,0,1,477.078,43.576Z" transform="translate(-326.807 -1.679)"/><path class="a" d="M539.21,23.538l-.013-3.963-11.943.04L527.228,47.2l11.916-.132V43.129l-7.491.013.04-7.965h5.918l-.012-3.845-5.932-.073V23.6Z" transform="translate(-368.315 -1.337)"/><path class="a" d="M684.977,47.162l-.025-27.491-6.1-.027L675.929,38.88l-3.2-19.248-5.988.013-.013,27.584,3.91-.066L670.628,28.6l3.1,18.574,4.2-.066,2.921-18.972L680.8,47.228Z" transform="translate(-469.116 -1.378)"/><path class="a" d="M154.151,23.43l.054,17.875c1.083,7.267,11.946,7.4,13.244.107V23.323C165.761,15.89,155.3,16.56,154.151,23.43Zm8.857,17.526c-.6,2.528-3.752,2.592-4.469-.107L158.647,24a2.253,2.253,0,0,1,4.469.054Z" transform="translate(-98.74 -0.205)"/><path class="a" d="M307.386,18.331l-4.737,28.448h4.326l.821-5.038,5.312-.027.767,5.147,4.6-.027-4.626-28.448Zm.636,19.631,2.034-13.524,2.219,13.445Z" transform="translate(-206.041 -0.438)"/><path class="a" d="M372.1,35.9l-4.549-16.271-5.274-.121-.133,27.912,4.014-.04.027-19.7,5.352,19.75,4.543-.02.007-27.838h-3.853Z" transform="translate(-249.032 -1.291)"/><path class="a" d="M108.054,39.978a1.746,1.746,0,1,1-3.491,0l.155-15.51c-.095-2.457,3.325-2.1,3.322.006l-.006,3.781,5.14-.041-.119-5.089c-.2-7.329-13.376-7.06-13.51-.04L99.389,41.36c.165,7.367,13.715,6.8,13.719.459l.187-6.751h-5.13Z" transform="translate(-59.171)"/><path class="a" d="M215.028,19.195l-5.53-.03.065,28.314,12.357.01.06-5.04-6.953-.131Z" transform="translate(-138.732 -1.041)"/><path class="a" d="M262.935,19.842l-5.53-.03.065,28.314,12.357.01.06-5.04-6.953-.131Z" transform="translate(-173.349 -1.508)"/></g></svg>