<svg xmlns="http://www.w3.org/2000/svg" width="134.252" height="38.605" viewBox="0 0 134.252 38.605"><defs><style>.a{fill:#3e3e3e;}</style></defs><g transform="translate(-9.715 -12.309)"><path class="a" d="M180.133,14.527l3.319-.012c.008,2.053-.018,4.071.031,6.087.069,2.863.152,5.728.319,8.587a7.393,7.393,0,0,0,.646,2.41,2.985,2.985,0,0,0,3.324,1.939,2.817,2.817,0,0,0,2.988-2.215,35.97,35.97,0,0,0,.63-6.149c.087-3.522,0-7.047-.012-10.67l3.4-.013c.022.425.063.851.064,1.278.016,4.149-.006,8.3.059,12.447a9.891,9.891,0,0,0,.5,2.973c.612,1.807,1.8,2.435,3.9,2.287a2.952,2.952,0,0,0,2.837-2.726,32.9,32.9,0,0,0,.345-4.735c.046-3.4,0-6.8,0-10.2,0-.433.033-.865.054-1.374l3.778-.014c.014,3.825.1,7.613.012,11.4a27.694,27.694,0,0,1-.649,5.365c-1.271,5.7-8.367,7.189-11.69,3.477a7.462,7.462,0,0,0-.78-.653c-.5.389-.987.755-1.458,1.143a6.86,6.86,0,0,1-10.917-3.445,33.505,33.505,0,0,1-.783-6.811c-.13-3.306-.046-6.62-.047-9.93A2.032,2.032,0,0,1,180.133,14.527Z" transform="translate(-122.704 -1.53)"/><path class="a" d="M19.631,43.331a23.776,23.776,0,0,0,2.511.653c2.05.3,3.225-.431,3.673-2.4a17.653,17.653,0,0,0,.409-3.8c.028-6.046-.007-12.091-.025-18.137a4.1,4.1,0,0,0-.144-.619,55.022,55.022,0,0,0-6.785.434c-3.613.66-6.088,4.346-5.9,8.295A7.259,7.259,0,0,0,19.9,34.585a15.4,15.4,0,0,0,3.213-.244c.43-.042.856-.129,1.467-.224a10.551,10.551,0,0,1-.045,2.483,1.768,1.768,0,0,1-1.177.957c-4.516,1.022-8.3-.175-11.156-3.795-4.968-6.3-2.173-14.822,5.586-17.1a7.558,7.558,0,0,1,1.983-.352c3.2-.047,6.4-.04,9.716-.052a8.431,8.431,0,0,1,.108.964c.032,7.281.124,14.564.025,21.843A10.459,10.459,0,0,1,28.4,43.579c-1.47,2.822-4.422,3.891-7.57,3.2-.959-.209-1.287-.611-1.207-1.513C19.681,44.663,19.634,44.048,19.631,43.331Z" transform="translate(0 -2.845)"/><path class="a" d="M112.77,25.229c.018,6.348-4.885,11.051-11.554,11.082-6.789.031-11.538-4.686-11.553-11.475-.014-6.46,4.893-11.037,11.846-11.047C108.136,13.779,112.75,18.466,112.77,25.229Zm-19.845-.163c.014,4.626,3.607,8.027,8.487,8.035a8.1,8.1,0,0,0,8.17-8.121,8.453,8.453,0,0,0-8.374-8.159A8.046,8.046,0,0,0,92.924,25.066Z" transform="translate(-57.613 -1.066)"/><path class="a" d="M440.464,34.5l-2.887.011-.071-18.941c-3.338-.077-6.488-.278-9.383,1.26-3.655,1.941-4.792,7.45-2.357,11.168a7.119,7.119,0,0,0,7.995,3.305c.658-.128,1.319-.243,2.07-.38l.012,3.1a10.48,10.48,0,0,1-10.207-1.436c-3.772-2.816-5.016-6.691-4.285-11.141a9.843,9.843,0,0,1,7.771-8.391,28.593,28.593,0,0,1,11.262-.363Z" transform="translate(-296.497 0)"/><path class="a" d="M301.673,13.664l.082,21.909-2.976.011-.071-18.951c-2.965-.046-5.75-.183-8.413.849-3.656,1.416-5.41,5.478-4.189,9.617a7.476,7.476,0,0,0,8.578,5.366c.75-.132,1.494-.3,2.464-.5a16.532,16.532,0,0,1-.036,2.63c-.052.322-.581.714-.965.82a10.909,10.909,0,0,1-13.4-7.848c-1.773-7.2,2.639-13.256,10.233-13.84C295.795,13.513,298.639,13.675,301.673,13.664Z" transform="translate(-196.477 -0.942)"/><path class="a" d="M380.569,16.1a11.247,11.247,0,0,1-1.784,1.017,1.79,1.79,0,0,1-1.366-.052c-4.465-2.866-9.359-.911-9.879,4.23-.389,3.847-.167,7.753-.213,11.633-.008.649,0,1.3.006,2.034L364,34.978l-.081-21.822,3.261-.012.157,1.978c3.026-1.838,6.056-3.034,9.538-1.857A6.791,6.791,0,0,1,380.569,16.1Z" transform="translate(-255.254 -0.351)"/><g transform="translate(37.512 42.217)"><path class="a" d="M109.217,128.306v-8.4h1.8l2.139,5.951q.3.831.431,1.244.154-.458.481-1.347l2.164-5.848h1.609v8.4h-1.153v-7.035l-2.626,7.035h-1.079l-2.614-7.155v7.155Z" transform="translate(-109.217 -119.752)"/><path class="a" d="M145.692,123.827a4.377,4.377,0,0,1,1.208-3.276,4.269,4.269,0,0,1,3.119-1.184,4.582,4.582,0,0,1,2.256.556,3.751,3.751,0,0,1,1.532,1.551,4.747,4.747,0,0,1,.527,2.256,4.665,4.665,0,0,1-.555,2.287,3.651,3.651,0,0,1-1.572,1.528,4.758,4.758,0,0,1-2.195.519,4.52,4.52,0,0,1-2.281-.573,3.8,3.8,0,0,1-1.523-1.565A4.471,4.471,0,0,1,145.692,123.827Zm1.233.017a3.224,3.224,0,0,0,.879,2.394,3.226,3.226,0,0,0,4.426-.009,3.412,3.412,0,0,0,.872-2.505,4.045,4.045,0,0,0-.373-1.792,2.728,2.728,0,0,0-1.091-1.187,3.124,3.124,0,0,0-1.612-.421,3.184,3.184,0,0,0-2.185.811A3.466,3.466,0,0,0,146.925,123.845Z" transform="translate(-135.502 -119.367)"/><path class="a" d="M182.146,128.306v-8.4h3.113a8.087,8.087,0,0,1,1.609.12,3.16,3.16,0,0,1,1.326.6,3.429,3.429,0,0,1,1.069,1.436,5.281,5.281,0,0,1,.355,2,5.483,5.483,0,0,1-.241,1.7,4,4,0,0,1-.616,1.224,3.173,3.173,0,0,1-.823.763,3.491,3.491,0,0,1-1.079.421,6.584,6.584,0,0,1-1.452.144Zm1.2-.992h1.93a5.02,5.02,0,0,0,1.4-.155,2.048,2.048,0,0,0,.811-.436,2.621,2.621,0,0,0,.663-1.064,4.866,4.866,0,0,0,.237-1.62,3.686,3.686,0,0,0-.465-2.026,2.3,2.3,0,0,0-1.131-.949,5.011,5.011,0,0,0-1.547-.172h-1.9Z" transform="translate(-161.773 -119.752)"/><path class="a" d="M211.229,128.306l3.47-8.4h1.288l3.7,8.4h-1.362l-1.054-2.546h-3.779l-.992,2.546Zm2.608-3.451H216.9l-.943-2.328q-.432-1.061-.641-1.743a10.141,10.141,0,0,1-.487,1.605Z" transform="translate(-182.731 -119.752)"/><path class="a" d="M255.207,128.306v-8.4h6.1v.992h-4.9v2.6h4.241v.992H256.4v3.819Z" transform="translate(-214.423 -119.752)"/><path class="a" d="M282.68,128.306v-8.4h6.534v.992h-5.338v2.574h5v.986h-5v2.861h5.548v.992Z" transform="translate(-234.221 -119.752)"/><path class="a" d="M311.277,125.236l1.128-.092a2.2,2.2,0,0,0,.373,1.035,2.021,2.021,0,0,0,.909.654,3.676,3.676,0,0,0,1.387.249,3.552,3.552,0,0,0,1.208-.189,1.675,1.675,0,0,0,.78-.519,1.147,1.147,0,0,0,.256-.72,1.045,1.045,0,0,0-.246-.691,1.842,1.842,0,0,0-.814-.5q-.364-.132-1.609-.41a8.639,8.639,0,0,1-1.744-.525,2.4,2.4,0,0,1-.965-.782,1.818,1.818,0,0,1-.317-1.046,2.032,2.032,0,0,1,.388-1.19,2.381,2.381,0,0,1,1.134-.84,4.588,4.588,0,0,1,1.658-.287,4.834,4.834,0,0,1,1.772.3,2.529,2.529,0,0,1,1.181.886,2.424,2.424,0,0,1,.444,1.324l-1.147.08a1.679,1.679,0,0,0-.626-1.2,2.568,2.568,0,0,0-1.575-.407,2.672,2.672,0,0,0-1.581.37,1.088,1.088,0,0,0-.5.891.928.928,0,0,0,.351.745,4.984,4.984,0,0,0,1.8.6,12.571,12.571,0,0,1,2,.536,2.713,2.713,0,0,1,1.165.857,1.984,1.984,0,0,1,.376,1.2,2.175,2.175,0,0,1-.413,1.264,2.679,2.679,0,0,1-1.187.923,4.4,4.4,0,0,1-1.742.33,5.544,5.544,0,0,1-2.056-.333,2.843,2.843,0,0,1-1.3-1A2.7,2.7,0,0,1,311.277,125.236Z" transform="translate(-254.83 -119.382)"/><path class="a" d="M343.426,128.306v-7.413h-2.977V119.9h7.163v.992h-2.99v7.413Z" transform="translate(-275.852 -119.752)"/><path class="a" d="M363.574,128.306l3.471-8.4h1.288l3.7,8.4h-1.362l-1.054-2.546h-3.779l-.993,2.546Zm2.608-3.451h3.064l-.943-2.328q-.432-1.061-.641-1.743a10.088,10.088,0,0,1-.487,1.605Z" transform="translate(-292.517 -119.752)"/></g></g></svg>