<svg xmlns="http://www.w3.org/2000/svg" width="160.836" height="30.231" viewBox="0 0 160.836 30.231"><defs><style>.a{fill:#3e3e3e;}</style></defs><g transform="translate(-11.5 -8.171)"><g transform="translate(11.5 8.739)"><path class="a" d="M32.815,10.478l.45-.035.485,7.82-.45.069a20.046,20.046,0,0,0-1.557-3.806,7.619,7.619,0,0,0-7.128-4.048,7.631,7.631,0,0,0-6.592,3.512q-2.439,3.512-2.44,9.429a15.205,15.205,0,0,0,1.869,7.647A7.518,7.518,0,0,0,24.3,35.183a6.305,6.305,0,0,0,4.394-1.47,5.29,5.29,0,0,0,1.627-4.135,3.4,3.4,0,0,0-.934-2.664,5.252,5.252,0,0,0-2.7-.8v-.449H36.829v.484q-2.976.415-2.976,2.665v5.571l-.45.069a1.1,1.1,0,0,0-.934-.692,1.607,1.607,0,0,0-.727.173l-1.557.692a14.967,14.967,0,0,1-6.125,1.142,12.048,12.048,0,0,1-8.927-3.685A12.393,12.393,0,0,1,11.5,23.038a13.725,13.725,0,0,1,1.938-7.024,11.749,11.749,0,0,1,10.83-6.159h.485a11.236,11.236,0,0,1,3.218.519l2.249.934a4.827,4.827,0,0,0,1.315.381Q32.606,11.689,32.815,10.478Z" transform="translate(-11.5 -9.855)"/></g><g transform="translate(35.571 14.308)"><path class="a" d="M82.888,45.843v-.377a3.092,3.092,0,0,0,1.831-.781A10.069,10.069,0,0,0,86.5,41.56l6.06-15.081a.394.394,0,0,1,.215-.108q.188,0,.215.108l.135.35,6.14,14.732a9.915,9.915,0,0,0,1.8,3.124,3.2,3.2,0,0,0,1.859.754v.4H94.549v-.4q2.37-.215,2.37-1.373a7.552,7.552,0,0,0-.673-2.478l-1.4-3.393H88.49l-1.346,3.393a7.334,7.334,0,0,0-.646,2.4,1.192,1.192,0,0,0,.646,1.064,3.754,3.754,0,0,0,1.912.39v.4Zm8.78-15.486L88.705,37.6h5.952Z" transform="translate(-82.888 -26.371)"/><path class="a" d="M140.635,45.949v-.4a2.994,2.994,0,0,0,2.208-.929,5.349,5.349,0,0,0,.566-2.949V30.84a5.424,5.424,0,0,0-.539-2.909,3.143,3.143,0,0,0-2.235-.969v-.431h8.16a16.761,16.761,0,0,1,4.9.512,4.439,4.439,0,0,1,3.043,4.121,3.634,3.634,0,0,1-1.75,3.286,8.319,8.319,0,0,1-1.145.539,17.45,17.45,0,0,1-1.683.565,11.155,11.155,0,0,1,3.043.916,4.315,4.315,0,0,1,2.478,4.228,4.684,4.684,0,0,1-2.289,4.2,6.918,6.918,0,0,1-2.613.916,22.663,22.663,0,0,1-2.8.135Zm5.575-18.8v8.187h2.074a6.007,6.007,0,0,0,3.878-.969,4.1,4.1,0,0,0,1.293-3.259,3.864,3.864,0,0,0-1.32-3.178,3.225,3.225,0,0,0-1.279-.633,11.118,11.118,0,0,0-2.168-.148Zm2.451,8.78H146.21v5.036a12.952,12.952,0,0,0,.162,2.276,2.713,2.713,0,0,0,.538,1.306,3.585,3.585,0,0,0,2.882,1,4.228,4.228,0,0,0,4.659-4.686,4.652,4.652,0,0,0-1.831-4.121,3.7,3.7,0,0,0-1.414-.687A16.8,16.8,0,0,0,148.661,35.93Z" transform="translate(-121.164 -26.477)"/><path class="a" d="M187.52,26.962v-.431h8.107v.431q-1.939,0-1.939,1.023a7.646,7.646,0,0,0,1.158,2.828l3.259,5.844,3.582-5.79a6.128,6.128,0,0,0,1.131-2.747q0-1.157-2.262-1.158v-.431h5.979v.431a3.511,3.511,0,0,0-1.831.781l-.646.646a26.651,26.651,0,0,0-1.7,2.5l-3.151,5.117-.35.646a7.478,7.478,0,0,0-.512,1.589l-.054.512v2.909q0,2.451.673,3.124a2.391,2.391,0,0,0,.983.552,5.043,5.043,0,0,0,1.522.2v.4h-9.022v-.4a3.407,3.407,0,0,0,2.383-.983,4.6,4.6,0,0,0,.687-2.9V38.973a4.32,4.32,0,0,0-.485-2.1l-.377-.673-2.989-5.359a12.084,12.084,0,0,0-1.993-2.922A4.052,4.052,0,0,0,187.52,26.962Z" transform="translate(-152.24 -26.477)"/></g><g transform="translate(92.361 8.171)"><path class="a" d="M264.687,29.374a17.325,17.325,0,0,1-.41,4.309,5.907,5.907,0,0,1-1.471,2.6q-2.051,2.12-6.327,2.12a8.168,8.168,0,0,1-3.745-.735,2.248,2.248,0,0,1-1.419-2.035,1.6,1.6,0,0,1,.53-1.214,1.769,1.769,0,0,1,1.249-.5,1.93,1.93,0,0,1,2.051,1.607l.205.855a1.669,1.669,0,0,0,1.847,1.368,3.342,3.342,0,0,0,3.112-1.846,6.1,6.1,0,0,0,.633-2.172,30.98,30.98,0,0,0,.154-3.505V13.643l-.034-1.813a3.051,3.051,0,0,0-.821-2.257,3.788,3.788,0,0,0-2.394-.821V8.171h9.986v.581a2.852,2.852,0,0,0-2.411.958q-.735.958-.735,3.933Z" transform="translate(-251.315 -8.171)"/></g><g transform="translate(110.057 13.526)"><path class="a" d="M303.8,34.212a9.493,9.493,0,0,1,2.839-7.032,9.859,9.859,0,0,1,16.9,7.032,9.872,9.872,0,1,1-19.742,0Zm9.871-9.341a5.768,5.768,0,0,0-4.962,2.415q-1.751,2.416-1.751,6.926,0,4.537,1.738,6.926a6.39,6.39,0,0,0,9.964,0q1.752-2.388,1.752-6.926t-1.738-6.939A5.8,5.8,0,0,0,313.668,24.871Z" transform="translate(-303.797 -24.261)"/><path class="a" d="M367.62,44.286v-.4a3.328,3.328,0,0,0,1.221-.2,2.052,2.052,0,0,0,.822-.571,4.765,4.765,0,0,0,.716-3.078V28.63a3.015,3.015,0,0,0-.053-.663,2.486,2.486,0,0,0-.5-1.672,1.867,1.867,0,0,0-.783-.518,3.526,3.526,0,0,0-1.26-.2v-.425h8.067v.451a2.883,2.883,0,0,0-2.176.915,5.484,5.484,0,0,0-.531,2.906V40.067a4.836,4.836,0,0,0,.69,3.078,4.108,4.108,0,0,0,1.99.743v.4Z" transform="translate(-346.1 -24.782)"/><path class="a" d="M390.206,44.181V43.81a3.042,3.042,0,0,0,1.8-.769,9.912,9.912,0,0,0,1.751-3.078l5.971-14.86a.391.391,0,0,1,.212-.106c.124,0,.195.036.212.106l.133.345,6.05,14.515a9.767,9.767,0,0,0,1.778,3.078,3.146,3.146,0,0,0,1.831.743v.4H401.7v-.4q2.335-.212,2.335-1.353a7.43,7.43,0,0,0-.663-2.441l-1.38-3.343h-6.262L394.4,39.989a7.226,7.226,0,0,0-.637,2.362A1.175,1.175,0,0,0,394.4,43.4a3.694,3.694,0,0,0,1.884.385v.4Zm8.65-15.258-2.919,7.138H401.8Z" transform="translate(-361.07 -24.678)"/><path class="a" d="M448.443,37.16l.345-.053a8.169,8.169,0,0,0,2.123,4.578,5.492,5.492,0,0,0,4.06,1.658,4.434,4.434,0,0,0,3.078-1.048,3.608,3.608,0,0,0,1.167-2.826q0-.4-.039-.8a3.863,3.863,0,0,0-.252-.956,2.863,2.863,0,0,0-.663-1.008,9.042,9.042,0,0,0-3.41-1.579,18.8,18.8,0,0,1-3.887-1.552,4.326,4.326,0,0,1-2.256-3.98,5.054,5.054,0,0,1,1.831-3.927,6.422,6.422,0,0,1,4.4-1.619,6.926,6.926,0,0,1,2.1.318l1.513.5.929.185a1.012,1.012,0,0,0,1.115-.849l.424.026.027,5.679L460.7,30l-.265-.982a6.525,6.525,0,0,0-1.858-3.184,4.924,4.924,0,0,0-3.37-1.327,3.933,3.933,0,0,0-2.879,1.141,3.77,3.77,0,0,0-1.154,2.786,3.018,3.018,0,0,0,1.592,2.733,21.229,21.229,0,0,0,3.7,1.393,11.51,11.51,0,0,1,3.861,1.791A4.316,4.316,0,0,1,461.95,37.9,5.4,5.4,0,0,1,460,42.149a7.148,7.148,0,0,1-4.869,1.7,7.23,7.23,0,0,1-2.494-.4l-1.778-.664a2.994,2.994,0,0,0-.611-.133,1.417,1.417,0,0,0-1.353,1.009h-.425Z" transform="translate(-399.671 -24.052)"/></g></g></svg>