<svg xmlns="http://www.w3.org/2000/svg" width="141.073" height="27.242" viewBox="0 0 141.073 27.242"><defs><style>.a{fill:#3e3e3e;fill-rule:evenodd;}</style></defs><g transform="translate(-8.073 -126.628)"><path class="a" d="M263.745,130.66l1.427.6.582,1.448-.6,1.464-1.412.624-1.417-.63-.618-1.459.6-1.438Z" transform="translate(-131.871 -2.096)"/><path class="a" d="M116.236,134.2l6.107-7.572c-.566,1.193,2.75,2.352,3.627,2.386C122.7,129.667,118.346,131.741,116.236,134.2Z" transform="translate(-56.236 0)"/><path class="a" d="M20.433,130.181a8.192,8.192,0,0,1,.789,3.275,2.6,2.6,0,0,1-.417,1.485,4.368,4.368,0,0,1-1.4,1.223l-2.447,5.809q.681-.646,2.993-2.886a39.244,39.244,0,0,1,6.611-5.258q4.962-3.109,8.754-3.107a6.907,6.907,0,0,1,4,1.2,4.82,4.82,0,0,1,1.737,2.062,5.216,5.216,0,0,1,.469,2.2,10.385,10.385,0,0,1-2.417,6.3,16.056,16.056,0,0,1-7.125,5.242,16.944,16.944,0,0,1-6.188,1.2,12.141,12.141,0,0,1-7.168-2.073c-.747-.525-1.118-1.055-1.118-1.6a1.184,1.184,0,0,1,.371-.829,1.1,1.1,0,0,1,.809-.384,3.264,3.264,0,0,1,1.778.982,1.694,1.694,0,0,1,.454,1.139,1.692,1.692,0,0,0,.829,1.4,8.371,8.371,0,0,0,3.911.677,13.218,13.218,0,0,0,8.095-2.844,13.9,13.9,0,0,0,3.442-3.626A7.1,7.1,0,0,0,38.4,137.9a3.769,3.769,0,0,0-.979-2.671,5.724,5.724,0,0,0-4.4-1.816,13.364,13.364,0,0,0-5.06,1.092,19.268,19.268,0,0,0-4.992,3.012,58.754,58.754,0,0,0-6.765,6.376,55.087,55.087,0,0,1-3.787,9.519,7.954,7.954,0,0,1-1.227,1.806,1.639,1.639,0,0,1-1.174.5,2,2,0,0,1-1.376-.509A1.562,1.562,0,0,1,8.073,154a3.718,3.718,0,0,1,.53-1.632,28.63,28.63,0,0,1,1.808-2.813,66.449,66.449,0,0,1,5.117-5.977l2.746-6.932a5.184,5.184,0,0,1-2.777.918q-1.778,0-2.715-2.456a3.048,3.048,0,0,0,.953.194,6.029,6.029,0,0,0,3.287-1.538A15.455,15.455,0,0,0,20.433,130.181Z" transform="translate(0 -1.847)"/><path class="a" d="M85.943,144.479a10.44,10.44,0,0,0-1.6,2.12,3.855,3.855,0,0,0-.5,1.816,1.776,1.776,0,0,0,.361,1.176,1.194,1.194,0,0,0,.968.441,2.758,2.758,0,0,0,1.494-.582,8.737,8.737,0,0,0,1.69-1.616l.149.152A7.034,7.034,0,0,1,86.17,150.1a5.833,5.833,0,0,1-2.855.745,3.458,3.458,0,0,1-2.308-.74,2.411,2.411,0,0,1-.876-1.936,2.835,2.835,0,0,1,.083-.682,5.865,5.865,0,0,1,.248-.761,16.535,16.535,0,0,0-3.808,3.742,24.369,24.369,0,0,0-3.04,5.326l-4.122.184,5.858-10.795,4.1-.137-1.793,2.876q-.317.527-2.159,3.306l-.5.756.181.121a26.836,26.836,0,0,1,2.8-3.616,13.971,13.971,0,0,1,2.736-2.335,3.556,3.556,0,0,1,.907-.981,2.209,2.209,0,0,1,1.015-.341Z" transform="translate(-31.933 -9.281)"/><path class="a" d="M114.076,145.594l-.047.079q-4.877,8.084-4.874,9.5a.79.79,0,0,0,.232.593.865.865,0,0,0,.613.22q1.028,0,3.081-2.078a36.985,36.985,0,0,0,4.333-5.505l.149.126a32.328,32.328,0,0,1-4.972,6.166q-2.349,2.134-4.117,2.136a2.131,2.131,0,0,1-1.69-.709,2.892,2.892,0,0,1-.618-1.968,6,6,0,0,1,.33-1.8,11.674,11.674,0,0,1,.938-2.1l2.5-4.492Z" transform="translate(-51.001 -9.861)"/><path class="a" d="M138.527,149.339l.119.026a18,18,0,0,1,3.323-3.463,4.8,4.8,0,0,1,2.808-1.008,2.316,2.316,0,0,1,1.705.677,2.267,2.267,0,0,1,.68,1.674q0,1.323-1.963,4.309l-.119.183c-.051.068-.124.184-.227.336a6.934,6.934,0,0,0-1.371,2.954.6.6,0,0,0,.2.446.688.688,0,0,0,.484.184q1,0,2.88-1.984a49.514,49.514,0,0,0,4.555-5.862l.258.126a44.673,44.673,0,0,1-5.327,6.633,5.772,5.772,0,0,1-3.669,1.931,2.318,2.318,0,0,1-1.8-.74,2.839,2.839,0,0,1-.67-2,4.619,4.619,0,0,1,.355-1.737,12.31,12.31,0,0,1,1.319-2.257c.2-.3.49-.7.861-1.2a4.606,4.606,0,0,0,1.087-1.984.947.947,0,0,0-.217-.609.644.644,0,0,0-.495-.268q-1.344,0-3.72,2.844a40.8,40.8,0,0,0-4.735,7.394l-4.107.278,4.514-7.9a10.281,10.281,0,0,0,.566-1.112,1.868,1.868,0,0,0,.175-.687.823.823,0,0,0-.232-.562.719.719,0,0,0-.536-.252c-.85,0-2.1.976-3.766,2.923a36.027,36.027,0,0,0-4.7,7.315l-4.153.215,6.1-10.9,4.2-.152-4.256,6.271.273.157a28.872,28.872,0,0,1,4.39-5.07,5.592,5.592,0,0,1,3.457-1.574,2.426,2.426,0,0,1,1.767.63,2.25,2.25,0,0,1,.65,1.69,3.39,3.39,0,0,1-.16,1A5.838,5.838,0,0,1,138.527,149.339Z" transform="translate(-59.546 -9.497)"/><path class="a" d="M191.38,146.444a2.122,2.122,0,0,0-.325-1.27,1.108,1.108,0,0,0-.943-.435,2.532,2.532,0,0,0-1.473.693,8.76,8.76,0,0,0-1.664,1.889,19.39,19.39,0,0,0-2.082,3.789,8.736,8.736,0,0,0-.742,3.2,2.227,2.227,0,0,0,.3,1.312,1.116,1.116,0,0,0,.964.41,2.487,2.487,0,0,0,1.417-.551,6.75,6.75,0,0,0,1.494-1.554,13.293,13.293,0,0,0,.958-1.506,19.482,19.482,0,0,0,.928-1.921,22.487,22.487,0,0,0,.876-2.435,6.276,6.276,0,0,0,.289-1.621Zm8.29,1.322h0l.2.089a6.419,6.419,0,0,1-1.525,1.47,2.931,2.931,0,0,1-1.572.451,2.454,2.454,0,0,1-1.458-.446,4.2,4.2,0,0,1-1.169-1.443c.031.278.057.5.072.677s.021.3.021.383a6.15,6.15,0,0,1-.726,2.776,8.562,8.562,0,0,1-1.958,2.545A7.618,7.618,0,0,1,188.8,155.8a11.558,11.558,0,0,1-3.6.525,3.857,3.857,0,0,1-4.179-4.167,6.61,6.61,0,0,1,.65-2.86,7.99,7.99,0,0,1,1.886-2.487,9.644,9.644,0,0,1,2.87-1.769,8.529,8.529,0,0,1,3.169-.63,5.265,5.265,0,0,1,2.7.614,4.577,4.577,0,0,1,1.721,1.968,6.948,6.948,0,0,0,1.381,2.1,2.173,2.173,0,0,0,1.427.483,2.616,2.616,0,0,0,1.433-.431A5.724,5.724,0,0,0,199.671,147.766Z" transform="translate(-89.923 -9.247)"/><path class="a" d="M229.263,144.479a10.449,10.449,0,0,0-1.6,2.12,3.861,3.861,0,0,0-.5,1.816,1.773,1.773,0,0,0,.361,1.176,1.193,1.193,0,0,0,.968.441,2.76,2.76,0,0,0,1.495-.582,8.724,8.724,0,0,0,1.69-1.616l.149.152a7.044,7.044,0,0,1-2.339,2.115,5.833,5.833,0,0,1-2.855.745,3.458,3.458,0,0,1-2.308-.74,2.41,2.41,0,0,1-.876-1.936,2.834,2.834,0,0,1,.082-.682,5.928,5.928,0,0,1,.247-.761,16.534,16.534,0,0,0-3.808,3.742,24.37,24.37,0,0,0-3.04,5.326l-4.122.184,5.858-10.795,4.1-.137-1.793,2.876q-.317.527-2.159,3.306l-.5.756.181.121a26.8,26.8,0,0,1,2.8-3.616,13.972,13.972,0,0,1,2.736-2.335,3.548,3.548,0,0,1,.907-.981,2.209,2.209,0,0,1,1.015-.341Z" transform="translate(-106.448 -9.281)"/><path class="a" d="M257.395,145.594l-.046.079q-4.877,8.084-4.874,9.5a.79.79,0,0,0,.232.593.865.865,0,0,0,.613.22q1.028,0,3.081-2.078a36.987,36.987,0,0,0,4.333-5.505l.149.126a32.346,32.346,0,0,1-4.972,6.166q-2.35,2.134-4.117,2.136a2.132,2.132,0,0,1-1.69-.709,2.892,2.892,0,0,1-.618-1.968,5.99,5.99,0,0,1,.33-1.8,11.64,11.64,0,0,1,.938-2.1l2.5-4.492Z" transform="translate(-125.516 -9.861)"/><path class="a" d="M276.551,148.631a2.747,2.747,0,0,0,.33-.777,3.5,3.5,0,0,0,.108-.9,2.329,2.329,0,0,0-.392-1.411,1.2,1.2,0,0,0-1.015-.541,1.273,1.273,0,0,0-1.041.509,1.979,1.979,0,0,0-.407,1.291,5.029,5.029,0,0,0,1.314,2.708c.108.142.2.257.273.351a6.776,6.776,0,0,1,.927,1.5,3.427,3.427,0,0,1,.278,1.328,3.066,3.066,0,0,1-.541,1.763,3.174,3.174,0,0,1-1.484,1.16l.077.2a11.246,11.246,0,0,0,4.5-2.666,22.757,22.757,0,0,0,4.184-5.174l.181.095a20.127,20.127,0,0,1-5.549,6.36,11.123,11.123,0,0,1-6.528,2.2,5.647,5.647,0,0,1-3.39-.9,2.9,2.9,0,0,1-1.231-2.466,2.509,2.509,0,0,1,.7-1.727,2.055,2.055,0,0,1,1.541-.766,1.569,1.569,0,0,1,1.144.441,1.446,1.446,0,0,1,.454,1.1,1.416,1.416,0,0,1-.361.987,1.158,1.158,0,0,1-.876.4,1.558,1.558,0,0,1-.51-.157.645.645,0,0,1-.077-.026,3.42,3.42,0,0,0-.134.5,2.335,2.335,0,0,0-.047.451,1.674,1.674,0,0,0,.572,1.291,2.006,2.006,0,0,0,1.407.525,2.423,2.423,0,0,0,1.819-.777,2.669,2.669,0,0,0,.747-1.931,4.672,4.672,0,0,0-1.1-2.383c-.113-.152-.2-.273-.257-.352a6.877,6.877,0,0,1-.876-1.448,3.006,3.006,0,0,1-.212-1.107A3.136,3.136,0,0,1,272.5,145.7a5.627,5.627,0,0,1,3.457-1.071,5.03,5.03,0,0,1,2.741.661,1.977,1.977,0,0,1,1.036,1.722,1.677,1.677,0,0,1-.644,1.307,2.293,2.293,0,0,1-1.562.556,2.97,2.97,0,0,1-.891-.215A.334.334,0,0,0,276.551,148.631Z" transform="translate(-134.696 -9.361)"/></g></svg>