<svg xmlns="http://www.w3.org/2000/svg" width="152" height="30.154" viewBox="0 0 152 30.154"><defs><style>.a{fill:#3e3e3e;}</style></defs><g transform="translate(-10.243 -6.032)"><path class="a" d="M37.6,8.492a13.887,13.887,0,0,0-.509,1.463q-.212.742-.466,1.8h-.466a11.736,11.736,0,0,0-4.05-2.969A12.747,12.747,0,0,0,26.7,7.644q-5.853,0-9.161,3.732Q14.4,14.938,14.4,20.961q0,6.361,3.138,9.881,3.308,3.733,9.627,3.732a18.175,18.175,0,0,0,3.351-.318A10.793,10.793,0,0,0,33.7,33.133v-10.9l1.866.127,1.866-.127v12a35.543,35.543,0,0,1-11.536,1.951q-7.379,0-11.514-3.966T10.243,21.173q0-6.955,4.474-11.048T27,6.032a27.668,27.668,0,0,1,5.556.572A16.473,16.473,0,0,1,37.6,8.492Z"/><path class="a" d="M133.623,35.677l-2.2-.127-2.244.127q-.55-1.57-1.1-3.1-.72-1.953-1.1-2.929l-2.282-5.424H113.939l-2.124,5.382q-.423,1.1-1.058,2.971-.763,2.206-1.017,3.1l-1.566-.127-1.481.127L119.924,6.032h.976Zm-9.556-13.232-4.69-10.818-4.642,10.818Z" transform="translate(-65.488)"/><path class="a" d="M224.081,27.988a8.434,8.434,0,0,1-.635,3.457,8.875,8.875,0,0,1-1.867,2.65,8.591,8.591,0,0,1-3.563,2.164,16.648,16.648,0,0,1-4.92.636h-7.846V8.013h8.185q5.64,0,7.761,1.654a4.914,4.914,0,0,1,1.825,4.156,7.05,7.05,0,0,1-1.676,4.644,9.478,9.478,0,0,1-5.026,2.905,8.612,8.612,0,0,1,5.387,1.654A5.923,5.923,0,0,1,224.081,27.988Zm-4.793-13.274a4.379,4.379,0,0,0-2.323-4.283,11.548,11.548,0,0,0-5.068-.848h-2.915v11.2h2.534a11.887,11.887,0,0,0,3.548-.488,6.481,6.481,0,0,0,2.7-1.633A5.35,5.35,0,0,0,219.289,14.714Zm.849,14.123q0-3.436-2.184-4.962t-6.638-1.527h-2.332V35.326h4.156a7,7,0,0,0,5.046-1.866A6.138,6.138,0,0,0,220.138,28.837Z" transform="translate(-132.41 -1.345)"/><path class="a" d="M289.709,37.022l-1.866-.127-1.866.127V8.013l1.866.127,1.866-.127Z" transform="translate(-187.222 -1.345)"/><path class="a" d="M336.966,10.558a24.675,24.675,0,0,0-3.583-.445q-1.931-.106-4.941-.106h-2.8V20.652h6.87l3.478-.212-.127,1.1.127,1.187-3.732-.212h-6.616v14.5l-1.908-.127-1.824.127V8.013h15.055l-.126,1.272Z" transform="translate(-211.621 -1.345)"/><path class="a" d="M392.5,37.022,390.63,36.9l-1.866.127V8.013l1.866.127,1.866-.127Z" transform="translate(-257.014 -1.345)"/><path class="a" d="M437.467,10.558q-2.5-.254-4.178-.382t-4.686-.127v27.1l-1.866-.17-1.866.127V10.049q-2.97,0-4.92.127t-4.369.382l.127-1.272-.127-1.272h21.884l-.127,1.272Z" transform="translate(-275.224 -1.345)"/></g></svg>