<svg xmlns="http://www.w3.org/2000/svg" width="174.802" height="47.095" viewBox="0 0 174.802 47.095"><defs><style>.a{fill:#3e3e3e;}</style></defs><g transform="translate(-11.553 -116.352)"><path class="a" d="M49.752,149.354h3.533V127.585H49.752v-.446H67.958v5.507h-.35a16.1,16.1,0,0,0-.891-2.181,6.03,6.03,0,0,0-1.146-1.591,4.229,4.229,0,0,0-1.59-.97,6.885,6.885,0,0,0-2.229-.318H56.468V137.9h2.069a7.127,7.127,0,0,0,1.783-.191,2.706,2.706,0,0,0,1.256-.715,4.225,4.225,0,0,0,.892-1.433,17.772,17.772,0,0,0,.716-2.34h.35v9.9h-.35c-.149-.614-.3-1.21-.461-1.783a5.583,5.583,0,0,0-.669-1.528,3.163,3.163,0,0,0-1.145-1.065,3.806,3.806,0,0,0-1.863-.4H56.468v11.012H60v.446H49.752v-.446" transform="translate(-14.925 -4.215)"/><path class="a" d="M86.579,138.07a11.071,11.071,0,0,1,1-4.71,13.125,13.125,0,0,1,2.578-3.756,12.069,12.069,0,0,1,3.548-2.5,9.377,9.377,0,0,1,3.948-.907,9.753,9.753,0,0,1,4.09.907,11.806,11.806,0,0,1,3.549,2.5,12.294,12.294,0,0,1,2.5,3.756,11.714,11.714,0,0,1,.94,4.71,11.56,11.56,0,0,1-.86,4.361,12.656,12.656,0,0,1-2.355,3.788A11.93,11.93,0,0,1,102,148.892a9.513,9.513,0,0,1-4.344,1.019,10.034,10.034,0,0,1-4.425-.987,11.346,11.346,0,0,1-3.516-2.626,12.07,12.07,0,0,1-2.309-3.787,12.268,12.268,0,0,1-.827-4.441m3.661,0a28.612,28.612,0,0,0,.382,5,10.032,10.032,0,0,0,1.273,3.564,5.64,5.64,0,0,0,2.292,2.131,8.891,8.891,0,0,0,6.922,0,5.624,5.624,0,0,0,2.307-2.131,10.068,10.068,0,0,0,1.274-3.564,28.677,28.677,0,0,0,.381-5,30.652,30.652,0,0,0-.287-4.249,11.6,11.6,0,0,0-1.1-3.66,6.523,6.523,0,0,0-2.259-2.561,7.923,7.923,0,0,0-7.544,0,6.513,6.513,0,0,0-2.259,2.561,11.646,11.646,0,0,0-1.1,3.66A30.75,30.75,0,0,0,90.24,138.07Z" transform="translate(-29.313 -3.847)"/><path class="a" d="M128.054,149.293h3.533V127.524h-3.533v-.446H134.1c.255,0,.509,0,.763-.015s.509-.026.763-.049c.255,0,.51-.005.765-.015s.509-.016.763-.016a23.528,23.528,0,0,1,3.31.207,5.536,5.536,0,0,1,2.674,1.193,4.926,4.926,0,0,1,1.576,1.942,5.231,5.231,0,0,1,.46,2.037,5.6,5.6,0,0,1-.174,1.225,4.121,4.121,0,0,1-.764,1.529,5.711,5.711,0,0,1-1.7,1.432,7.7,7.7,0,0,1-2.961.874v.065c.339.041.8.122,1.384.237a8.174,8.174,0,0,1,1.782.59,6.6,6.6,0,0,1,1.671,1.1,3.729,3.729,0,0,1,1.082,1.767,7.6,7.6,0,0,1,.271,1.448q.079.812.128,1.671t.1,1.654a7.927,7.927,0,0,0,.175,1.337,4.881,4.881,0,0,0,.6,1.5,1.452,1.452,0,0,0,1.336.669,2.51,2.51,0,0,0,.86-.16,2.1,2.1,0,0,0,.8-.509l.286.351c-.105.085-.228.174-.365.271a2.744,2.744,0,0,1-.526.269,3.946,3.946,0,0,1-.779.208,7.019,7.019,0,0,1-1.13.079,6.049,6.049,0,0,1-2.116-.318,3.139,3.139,0,0,1-1.353-.938,3.973,3.973,0,0,1-.748-1.529,12.174,12.174,0,0,1-.333-2.116l-.223-2.9a6.036,6.036,0,0,0-.636-2.483,3.539,3.539,0,0,0-1.194-1.306,3.438,3.438,0,0,0-1.416-.492,12.242,12.242,0,0,0-1.274-.082H134.77v11.491H138.3v.446H128.054v-.446m6.716-11.934H137.7a5.548,5.548,0,0,0,1.624-.223,2.832,2.832,0,0,0,1.256-.78,3.71,3.71,0,0,0,.812-1.512,8.561,8.561,0,0,0,.286-2.418,6.875,6.875,0,0,0-.429-2.658,3.6,3.6,0,0,0-1.114-1.511,3.676,3.676,0,0,0-1.528-.668,8.956,8.956,0,0,0-1.671-.159q-.573,0-1.161.015a8.316,8.316,0,0,0-1,.08Z" transform="translate(-45.518 -4.154)"/><path class="a" d="M162.372,127.139h9.58v.446h-3.309l6.557,18.46h.063L179.5,134.3l-2.419-6.716H174.4v-.446h9.548v.446h-3.469l6.556,18.46h.064l6.684-18.46H190.38v-.446h6.812v.446h-2.865l-8.242,22.693h-.8L179.814,135h-.064l-5.538,15.278h-.859l-8.115-22.693h-2.865v-.446" transform="translate(-58.927 -4.215)"/><path class="a" d="M220.564,149.354H224.1v-21.77h-3.532v-.446h10.248v.446H227.28v10.407h10.6V127.585h-3.532v-.446h10.248v.446h-3.532v21.77h3.532v.446H234.345v-.446h3.532V138.438h-10.6v10.917h3.532v.446H220.564v-.446" transform="translate(-81.663 -4.215)"/><path class="a" d="M267.989,149.354h3.533V140.22l-7.162-12.635h-2.9v-.446h9.74v.446h-3.183l6.366,11.2,6.015-11.2h-3.213v-.446H284v.446H280.91L274.7,139.2v10.153h3.533v.446H267.989v-.446" transform="translate(-97.643 -4.215)"/><path class="a" d="M27.557,140.884a29.9,29.9,0,0,1,1.042,3.959,19.248,19.248,0,0,1,.357,3.516,11.734,11.734,0,0,1-1.109,4.777,14.947,14.947,0,0,1-3.019,4.439q-.819.852-2.354,2.286-4.267,3.99-4.266,6.449a4.2,4.2,0,0,0,1.911,3.533,8.2,8.2,0,0,0,4.914,1.382,8.787,8.787,0,0,0,4.079-.888q1.725-.888,1.724-1.842c0-.2-.308-.422-.922-.649a9.251,9.251,0,0,1-1.023-.409,3.711,3.711,0,0,1-1.552-1.52,4.7,4.7,0,0,1-.564-2.338,4.173,4.173,0,0,1,1.3-3.172,4.75,4.75,0,0,1,3.412-1.228,4.255,4.255,0,0,1,3.311,1.346,5.191,5.191,0,0,1,1.229,3.636,7.7,7.7,0,0,1-3.328,6.312,13.268,13.268,0,0,1-8.343,2.56,13.454,13.454,0,0,1-9.283-3.123,10.526,10.526,0,0,1-3.514-8.274,11,11,0,0,1,2.064-6.656q2.065-2.833,9.333-7.269a9.111,9.111,0,0,0,2.663-2.047,3.538,3.538,0,0,0,.613-2.117,8.62,8.62,0,0,0-.068-1.091c-.046-.364-.114-.752-.2-1.16l1.6-.412" transform="translate(0 -9.585)"/><path class="a" d="M37.071,121.778a5.34,5.34,0,0,1-1.6,3.926,5.44,5.44,0,0,1-7.747-.034,5.317,5.317,0,0,1-1.638-3.892,5.2,5.2,0,0,1,1.621-3.823,5.355,5.355,0,0,1,3.907-1.6,5.3,5.3,0,0,1,3.873,1.57,5.216,5.216,0,0,1,1.587,3.856" transform="translate(-5.677 0)"/></g></svg>