<svg xmlns="http://www.w3.org/2000/svg" width="178.23" height="21.446" viewBox="0 0 178.23 21.446"><defs><style>.a{fill:#3e3e3e;}</style></defs><path class="a" d="M201.378,251.723V234.142h18.869v3.117H205.7v3.823h8.479v3.034H205.7v4.322h14.755v3.284Zm-11.505-14.339H176.49v10.972h13.383v-3.741H182.89V241.5h11.18v6.068c0,1.607-.311,2.7-.942,3.284s-1.836.873-3.623.873H176.774q-2.681,0-3.623-.873t-.942-3.284v-9.275q0-2.4.942-3.277t3.623-.873h12.732q2.66,0,3.609.852a4.047,4.047,0,0,1,.956,3.1v.457l-4.2.706Zm-38.438,7.273h8.056l-4.094-7.329Zm-8.319,7.065,10.432-17.581h4.122l10.591,17.581h-4.807l-2.216-3.866H149.613l-2.216,3.866Zm-26.925,0V234.142h2.944l14.927,11.672V234.142h3.865v17.581H134.97L120.1,239.864v11.859Zm-12.094,0V234.142h4.281v17.581ZM73.971,238.3c0-1.607.311-2.7.935-3.284s1.829-.873,3.63-.873h13.6q2.723,0,3.644.873c.617.589.921,1.676.921,3.284v9.268q0,2.411-.942,3.284t-3.623.873h-13.6c-1.8,0-3.006-.291-3.63-.873s-.935-1.677-.935-3.284Zm4.281,10.058H92.425V237.384H78.252ZM60.678,234.1H47.212v13.591H60.678v-4.614l4.987,1.039v2.535q0,2.941-1.108,4t-4.2,1.067H47.538q-3.128,0-4.219-1.067t-1.095-4V235.341c0-1.94.368-3.277,1.095-3.99s2.134-1.074,4.219-1.074H60.353q3.107,0,4.2,1.074c.741.713,1.108,2.05,1.108,3.99v2.037l-4.987.8Z" transform="translate(-42.225 -230.277)"/></svg>