<svg xmlns="http://www.w3.org/2000/svg" width="189.843" height="30.446" viewBox="0 0 189.843 30.446"><defs><style>.a{fill:#3e3e3e;}</style></defs><g transform="translate(-6.93 -4.018)"><path class="a" d="M6.93,6.921a1.692,1.692,0,0,1,.452-1.172,1.609,1.609,0,0,1,1.259-.5h6.093q7.611,0,11.456,3.767,3.652,3.614,3.652,10.322,0,7.17-4.1,11.273t-11.349,4.1H8.64a1.594,1.594,0,0,1-1.259-.509,1.726,1.726,0,0,1-.452-1.182Zm8.38,2.557h-.961q-.634,0-2.595.058V30.467l3.133.057H15q7.438,0,9.149-6.42a17.749,17.749,0,0,0,.557-4.6,13.994,13.994,0,0,0-.605-4.363,8.23,8.23,0,0,0-1.8-3.1Q19.9,9.477,15.31,9.477Z" transform="translate(0 -0.75)"/><path class="a" d="M89.964,30.909q6.977,0,6.977-7.938V6.479a1.277,1.277,0,0,1,.317-.865.973.973,0,0,1,.759-.365h2.633a.946.946,0,0,1,.749.365,1.3,1.3,0,0,1,.308.865V22.932q0,5.92-3.46,9.245a11.452,11.452,0,0,1-8.265,3.037,11.372,11.372,0,0,1-8.323-3.152Q78.3,28.775,78.3,22.932V6.479a1.277,1.277,0,0,1,.317-.865.974.974,0,0,1,.759-.365h2.633a.946.946,0,0,1,.749.365,1.3,1.3,0,0,1,.308.865V22.97q0,3.979,1.942,6.016A6.436,6.436,0,0,0,89.964,30.909Z" transform="translate(-43.497 -0.75)"/><path class="a" d="M157.787,7.632q0-2.383,2.076-2.383h.788a2.218,2.218,0,0,1,1.1.192,3.516,3.516,0,0,1,1.077,1.1L175.2,24.758a13.577,13.577,0,0,1,1.115,1.9l.788,1.653a.069.069,0,0,0,.068.038c.032,0,.035-.166.009-.5s-.09-.817-.192-1.451a11.79,11.79,0,0,1-.154-1.894V6.421a1.214,1.214,0,0,1,.3-.836.928.928,0,0,1,.721-.336h2.537a.911.911,0,0,1,.7.336,1.216,1.216,0,0,1,.3.836V32.792a1.505,1.505,0,0,1-.481,1.192,2.311,2.311,0,0,1-1.461.73h-1.173a2.5,2.5,0,0,1-1.4-.308,8.76,8.76,0,0,1-1.614-1.883Q164.283,16.474,163.5,15.186l-1.6-2.672a.121.121,0,0,0-.105-.058c-.045,0-.048.1-.01.289s.093.516.163.971.138.958.2,1.509q.192,1.922.192,3.575V33.542a1.226,1.226,0,0,1-.3.827.92.92,0,0,1-.721.346h-2.537a.9.9,0,0,1-.7-.346,1.224,1.224,0,0,1-.3-.827Z" transform="translate(-91.946 -0.75)"/><path class="a" d="M233.283,34.359a1.051,1.051,0,0,1-.288-.615,1.21,1.21,0,0,1,.058-.413l9.707-26.1a2.66,2.66,0,0,1,2.1-1.922,10.533,10.533,0,0,1,1.191-.057h.327a3.535,3.535,0,0,1,1.806.327,3.206,3.206,0,0,1,1.25,1.6l10.437,26.178a1.275,1.275,0,0,1,.058.433,1.071,1.071,0,0,1-.231.605.874.874,0,0,1-.769.327h-2.691a1.236,1.236,0,0,1-1.23-.827l-2.383-6.247H239.991l-2.21,6.247a1.118,1.118,0,0,1-1.172.827h-2.48A1.025,1.025,0,0,1,233.283,34.359ZM251,23.489,246.411,11a.234.234,0,0,0-.461,0l-4.459,12.493Z" transform="translate(-137.784 -0.75)"/><path class="a" d="M345.944,33.753q0,.962-.672.961h-3.191a.946.946,0,0,1-.635-.23.863.863,0,0,1-.307-.577l-1.326-11.494q-.25-2.171-.375-4.286t-.278-4.421l-.192-2.729c0-.051-.016-.077-.048-.077s-.055.019-.067.058l-.865,3.152q-.269.961-.6,1.922l-6,16.319a1.243,1.243,0,0,1-.384.538.886.886,0,0,1-.577.25h-3.017q-.6,0-.961-.769-6.67-15.627-7.1-16.712t-.759-2.067l-.865-2.652c-.013-.038-.036-.058-.067-.058s-.055.026-.067.077v3.114q0,4.075-.327,8.323L316.4,33.907a.85.85,0,0,1-.356.557,1.058,1.058,0,0,1-.663.25h-2.652a.908.908,0,0,1-.759-.4,1.362,1.362,0,0,1-.24-.98l2.306-25.295a5.894,5.894,0,0,1,.385-2.018,1.7,1.7,0,0,1,1.614-.769h2.076a2.458,2.458,0,0,1,1.307.25,3.53,3.53,0,0,1,1.173,1.673l8.284,20.182,7.246-20.2q.634-1.9,2.153-1.9h2.172a1.777,1.777,0,0,1,1.979,1.557q.077.5.154,1.076l3.325,25.467A2.073,2.073,0,0,1,345.944,33.753Z" transform="translate(-185.767 -0.75)"/><path class="a" d="M416.239,6.479a1.276,1.276,0,0,1,.317-.865.973.973,0,0,1,.759-.365h2.691a.946.946,0,0,1,.749.365,1.3,1.3,0,0,1,.307.865V33.484a1.276,1.276,0,0,1-.317.865.973.973,0,0,1-.76.365H417.3a.945.945,0,0,1-.75-.365,1.3,1.3,0,0,1-.307-.865Z" transform="translate(-249.469 -0.75)"/><path class="a" d="M444.639,30.937a3.334,3.334,0,0,1,.557-1.624,9.376,9.376,0,0,1,.75-1.153,1.054,1.054,0,0,1,.779-.462,1.71,1.71,0,0,1,.836.25q.442.25,1.182.625a17.268,17.268,0,0,0,1.586.7,9.533,9.533,0,0,0,3.3.711,8.669,8.669,0,0,0,2.3-.25,4.32,4.32,0,0,0,1.518-.75,3.592,3.592,0,0,0,1.307-2.96q0-2.4-3.633-4.094-1.038-.48-2.335-.97a18.793,18.793,0,0,1-2.73-1.317,12.667,12.667,0,0,1-2.566-1.941,8.017,8.017,0,0,1-2.518-5.882,6.822,6.822,0,0,1,2.941-5.766,10.578,10.578,0,0,1,6.478-2.038,11.94,11.94,0,0,1,6.823,1.807q1.46.962,1.461,1.788a3.623,3.623,0,0,1-.519,1.422,7.09,7.09,0,0,1-.836,1.327.862.862,0,0,1-.586.346,2.506,2.506,0,0,1-1.259-.519,14.21,14.21,0,0,0-2.22-1.134,6.965,6.965,0,0,0-2.729-.615,8.168,8.168,0,0,0-2.066.211,4.076,4.076,0,0,0-1.355.634,3.1,3.1,0,0,0-1.192,2.633q0,2.5,3.422,3.96l1.864.769a18.4,18.4,0,0,1,5.689,3.191,7.708,7.708,0,0,1,2.671,5.939,7.911,7.911,0,0,1-2.96,6.381,9.658,9.658,0,0,1-6.4,2.287,15.567,15.567,0,0,1-8.015-1.941Q444.639,31.619,444.639,30.937Z" transform="translate(-266.778)"/></g></svg>