<svg xmlns="http://www.w3.org/2000/svg" width="127.443" height="48.194" viewBox="0 0 127.443 48.194"><defs><style>.a{fill:#3e3e3e;}</style></defs><g transform="translate(-25.584 -16.864)"><path class="a" d="M28.191,22.476q.4,5.995.4,15.834,0,13.938.05,15.687v1.7q.05,1.7.1,2.9c.033,1.066.082,6.461.15,7.094a.965.965,0,0,1,.051.3c.232-.033,11.787-.051,11.92-.051a1.3,1.3,0,0,1,0,2.6h-.1c-.033,0-11.463.009-11.546.025s-.192.041-.328.075a2.386,2.386,0,0,1-1.549-.3,2.016,2.016,0,0,1-.8-1.2c-.068-.3-.134-.666-.2-1.1-.1-.7-.164-6.178-.2-7.344q-.051-1.2-.1-2.9V54.1q-.051-1.8-.05-15.788,0-9.74-.4-15.634a1.214,1.214,0,0,1,.3-.949,1.311,1.311,0,0,1,.9-.449,1.222,1.222,0,0,1,.949.3A1.312,1.312,0,0,1,28.191,22.476Z" transform="translate(0 -3.6)"/><path class="a" d="M53.3,44.627q0,2.748-.2,6.894t-.375,7.267q-.176,3.122-.075,6.82a46.619,46.619,0,0,0,.5,6.594,12.216,12.216,0,0,0,1.3,4q1.048,2,2.347,2.05,1.049.051,2.148-2.547a35.9,35.9,0,0,0,2-7.693,138.79,138.79,0,0,0,1.449-14.388q.05-.947.246-3.047.2-2.147.246-3.346c0-.233.008-.5.025-.8s.025-.648.025-1.049v-.9a8.666,8.666,0,0,1,.05-1.1,2.116,2.116,0,0,1,.051-.5.446.446,0,0,1,.05-.2,1.887,1.887,0,0,1,.4-.6,1.208,1.208,0,0,1,1.648,0,1.482,1.482,0,0,1,.4.5,8.634,8.634,0,0,1,.5,3.547c-.033.334-.068.883-.1,1.649q-.05.9-.051,1.3,0,1.249-.3,15.035A113.85,113.85,0,0,0,66.035,78.9a1.3,1.3,0,0,1-.3.975,1.272,1.272,0,0,1-1.788.2l-.035-.028a1.23,1.23,0,0,1-.475-.849q-.4-3.845-.45-8.042A33.158,33.158,0,0,1,61.341,76.7Q59.492,81,56.7,80.845q-2.748-.149-4.545-3.4a15.633,15.633,0,0,1-1.6-4.845,51.453,51.453,0,0,1-.525-6.8q-.074-3.9.1-7.145t.375-7.392q.2-4.145.2-6.641a1.3,1.3,0,0,1,2.6,0v0Zm10.038-.7q-.1-.349-.2-.246l.05.05A.731.731,0,0,0,63.34,43.924Z" transform="translate(-19.967 -20.353)"/><path class="a" d="M153.363,25.87a12.015,12.015,0,0,0-1.1-3.3,7.278,7.278,0,0,0-1.849-2.448,2.268,2.268,0,0,0-1.8-.6,4.208,4.208,0,0,0-2.446,1.9,7.027,7.027,0,0,0-.974,1.773q-.425,1.075-.625,1.774l-.6,2.248A44.314,44.314,0,0,0,143,40.377a49.242,49.242,0,0,0,2.573,12.965,15.655,15.655,0,0,0,1.873,3.647,6.165,6.165,0,0,0,2.173,2.1,1.457,1.457,0,0,0,1.6-.051,7.026,7.026,0,0,0,2.148-3.443,1.124,1.124,0,0,1,.649-.725,1.3,1.3,0,0,1,1-.05,1.216,1.216,0,0,1,.725.674,1.237,1.237,0,0,1,.026,1,9.662,9.662,0,0,1-3.1,4.745,3.963,3.963,0,0,1-4.2.2,8.347,8.347,0,0,1-3.072-2.822,17.159,17.159,0,0,1-2.223-4.371A49.83,49.83,0,0,1,140.4,40.55a47.493,47.493,0,0,1,1.074-13.938l.549-2.348a22.151,22.151,0,0,1,.774-2.1,10.973,10.973,0,0,1,1.273-2.348,6.853,6.853,0,0,1,4.1-2.9,4.734,4.734,0,0,1,3.9,1.148,9.925,9.925,0,0,1,2.467,3.229,15.688,15.688,0,0,1,1.424,4.071,1.509,1.509,0,0,1-.246,1,1.147,1.147,0,0,1-.82.525,1.356,1.356,0,0,1-.975-.226A1.222,1.222,0,0,1,153.363,25.87Z" transform="translate(-93.78)"/><path class="a" d="M230.242,26.577a86.882,86.882,0,0,1-.151,12.687,132.707,132.707,0,0,1,8.992-11.638,1.312,1.312,0,0,1,.9-.449,1.223,1.223,0,0,1,.949.3,1.306,1.306,0,0,1,.449.9,1.21,1.21,0,0,1-.3.948A118.334,118.334,0,0,0,230.6,43.264a.044.044,0,0,1-.038.05h-.013q.848,1.3,1.623,2.7t1.523,3.122q.749,1.722,1.2,2.87l1.249,3.2q.8,2.05,1.1,2.747l1.748,4.046q1.049,2.548,1.6,4.246a1.355,1.355,0,0,1-.1,1.023,1.216,1.216,0,0,1-.774.625,1.3,1.3,0,0,1-1-.1,1.213,1.213,0,0,1-.624-.75q-.5-1.6-1.5-4l-1.748-4.1L233.693,55.9l-1.349-3.349q-.449-1.1-1.223-2.8t-1.528-3.043q-.1,1.5-.15,2.747a140.644,140.644,0,0,0,.549,18.536,1.224,1.224,0,0,1-.3.923,1.273,1.273,0,0,1-1.789.2l-.033-.028a1.27,1.27,0,0,1-.476-.9,145.27,145.27,0,0,1-.548-18.834q.1-2.248.349-5.745l.4-5.644q.15-2.2.225-5.619a41.879,41.879,0,0,0-.175-5.569,1.22,1.22,0,0,1,.3-.949,1.311,1.311,0,0,1,.9-.449,1.221,1.221,0,0,1,.95.3A1.312,1.312,0,0,1,230.242,26.577Z" transform="translate(-164.482 -6.952)"/><path class="a" d="M314,28.393a16.982,16.982,0,0,1,3.55,7.643,9.92,9.92,0,0,1,.149,1.148q1-1.2,2.448-3.2a70.33,70.33,0,0,0,4.345-6.693,1.2,1.2,0,0,1,.774-.648,1.3,1.3,0,0,1,1,.1,1.216,1.216,0,0,1,.625.775,1.229,1.229,0,0,1-.1.974,77.691,77.691,0,0,1-4.546,6.993q-1.647,2.3-2.746,3.6a9.3,9.3,0,0,1-1.148,1.148,31.762,31.762,0,0,1,.424,3.721q.124,2.072.151,3.321t0,3.847q-.026,2.6-.025,3.3,0,2.547.4,14.486a1.393,1.393,0,0,1-.349.949,1.143,1.143,0,0,1-.9.4,1.394,1.394,0,0,1-.949-.349,1.138,1.138,0,0,1-.4-.9q-.4-12.036-.4-14.587,0-.8.026-3.424t0-3.821q-.026-1.2-.15-3.172a27.944,27.944,0,0,0-.425-3.521v-.2a1.674,1.674,0,0,1-.3-.649,4.055,4.055,0,0,1-.15-.9q-.251-1.8-.3-2.248a14.167,14.167,0,0,0-3-6.493,1.178,1.178,0,0,1-.3-.924,1.329,1.329,0,0,1,1.416-1.166A1.222,1.222,0,0,1,314,28.393Z" transform="translate(-233.937 -7.951)"/><path class="a" d="M475.19,27.916a1.329,1.329,0,0,1,1.423,1.173,1.177,1.177,0,0,1-.3.924,14.165,14.165,0,0,0-3,6.493q-.051.449-.3,2.248a4.043,4.043,0,0,1-.149.9,1.674,1.674,0,0,1-.3.649v.2a27.972,27.972,0,0,0-.425,3.521Q472.022,46,472,47.2t0,3.821q.025,2.624.025,3.424,0,2.547-.4,14.587a1.137,1.137,0,0,1-.4.9,1.394,1.394,0,0,1-.949.349,1.143,1.143,0,0,1-.9-.4,1.4,1.4,0,0,1-.349-.949q.4-11.937.4-14.487,0-.7-.025-3.3t0-3.847q.026-1.248.151-3.321a31.71,31.71,0,0,1,.424-3.721,9.309,9.309,0,0,1-1.148-1.148q-1.1-1.3-2.746-3.6a77.466,77.466,0,0,1-4.545-6.993,1.295,1.295,0,0,1,1.523-1.848,1.2,1.2,0,0,1,.774.649,70.367,70.367,0,0,0,4.345,6.693q1.45,2,2.448,3.2a9.913,9.913,0,0,1,.149-1.148,16.982,16.982,0,0,1,3.547-7.642A1.222,1.222,0,0,1,475.19,27.916Z" transform="translate(-356.32 -7.973)"/><path class="a" d="M553.461,18.818a1.7,1.7,0,0,1,.6-.3,7.874,7.874,0,0,1,8.192,3.5q2.446,3.347,3.547,9.64a65.469,65.469,0,0,1,.724,11.038,42.046,42.046,0,0,1-.874,8.395,25.014,25.014,0,0,1-1.6,4.5,19.48,19.48,0,0,1-1.573,2.624,12.87,12.87,0,0,1-2.272,2.522,6.3,6.3,0,0,1-3.147,1.7,3.817,3.817,0,0,1-3.647-1.2,6.582,6.582,0,0,1-1.649-3.5q-.1-.649-.246-1.749c-.1-.8-.164-1.282-.2-1.449l-.849-5.946a55.544,55.544,0,0,1-.246-12.339q.15-1.8.574-5.145t.574-4.646c.032-.4.075-1.049.124-1.947s.117-1.74.2-2.523a15.667,15.667,0,0,1,.374-2.172,1.188,1.188,0,0,1,.5-.775A1.312,1.312,0,0,1,553.461,18.818Zm.949,2.3q-.15,1-.3,2.9l-.15,2.747q-.15,1.3-.574,4.6t-.574,5.094a54.194,54.194,0,0,0,.251,11.74q.748,5.3.849,5.946.05.251.2,1.548.149,1.148.2,1.549a4.893,4.893,0,0,0,.9,2.2,1.538,1.538,0,0,0,1.4.449,4.064,4.064,0,0,0,1.9-1.1,12.181,12.181,0,0,0,3.148-4.3,29.719,29.719,0,0,0,1.5-4,40.556,40.556,0,0,0,.749-7.821,66.51,66.51,0,0,0-.7-10.614,20.464,20.464,0,0,0-3.048-8.541,5.268,5.268,0,0,0-5.594-2.4Z" transform="translate(-428.774 -1.24)"/><path class="a" d="M639.7,44.627q0,2.748-.2,6.894t-.375,7.267q-.176,3.122-.075,6.82a46.823,46.823,0,0,0,.5,6.594,12.241,12.241,0,0,0,1.3,4q1.048,2,2.347,2.05,1.048.051,2.148-2.547a35.876,35.876,0,0,0,2-7.693,138.578,138.578,0,0,0,1.449-14.388q.048-.947.246-3.047.2-2.147.246-3.346c0-.233.009-.5.025-.8s.026-.648.026-1.049v-.9a8.644,8.644,0,0,1,.05-1.1,2.071,2.071,0,0,1,.051-.5.436.436,0,0,1,.05-.2,1.883,1.883,0,0,1,.4-.6,1.207,1.207,0,0,1,1.648,0,1.473,1.473,0,0,1,.4.5,8.622,8.622,0,0,1,.5,3.547q-.051.5-.1,1.649-.05.9-.051,1.3,0,1.249-.3,15.035a113.844,113.844,0,0,0,.45,14.787,1.3,1.3,0,0,1-.3.975,1.273,1.273,0,0,1-1.789.2l-.034-.028a1.23,1.23,0,0,1-.475-.849q-.4-3.845-.449-8.042a33.139,33.139,0,0,1-1.648,5.544q-1.85,4.3-4.645,4.145-2.747-.149-4.545-3.4a15.636,15.636,0,0,1-1.6-4.845,51.328,51.328,0,0,1-.524-6.8q-.075-3.9.1-7.145t.374-7.392q.2-4.145.2-6.641a1.3,1.3,0,0,1,2.6,0v0Zm10.04-.7c-.068-.233-.133-.316-.2-.246l.051.05a.7.7,0,0,0,.149.192Z" transform="translate(-499.426 -20.353)"/></g></svg>