<svg xmlns="http://www.w3.org/2000/svg" width="94.043" height="52.154" viewBox="0 0 94.043 52.154"><defs><style>.a{fill:#3e3e3e;}</style></defs><g transform="translate(-37.439 -18.798)"><path class="a" d="M95.147,20.66c1.115-.619,2.222-1.255,3.341-1.862.038,3.278-.042,6.556.03,9.829,10.605.085,21.215-.021,31.82.051-.059.683.144,1.484-.377,2.04q-9.42,12.467-18.823,24.95c6.78.03,13.565-.038,20.345.03-.394,1.268-.81,2.532-1.285,3.77-8.345.017-16.69.072-25.031-.025.242-2.188,1.781-3.821,3.07-5.474,5.576-7.328,11.216-14.608,16.7-22.008-8.807-.042-17.619-.021-26.426-.008-.047,6.5,0,13-.025,19.5.072,1.437.072,3.235,1.4,4.139a13.456,13.456,0,0,0,3.681.937q.025,1.482.017,2.968c-2.43.174-5.08-.259-6.869-2.048a6.223,6.223,0,0,1-1.628-4.724c.017-6.925.038-13.845,0-20.769q-2.741-.089-5.474,0c-.051,4.792-.013,9.588-.017,14.379-.017,1.849.174,3.766-.509,5.529a11.483,11.483,0,0,1-7.069,6.772c-4.872,1.679-10.224.632-14.9-1.2-1.039.653-2.078,1.306-3.151,1.9q-.076-11.564.008-23.119C60.4,43.7,56.682,51.1,52.963,58.5a26.479,26.479,0,0,1-7.251,9.685c-2.082,1.586-4.567,2.892-7.255,2.756q-.5-1.228-1.018-2.442a14.608,14.608,0,0,0,9.443-5.92,48.391,48.391,0,0,0,5.19-9.431c-4.1-7.985-8.5-15.812-12.56-23.818a15.27,15.27,0,0,1,2.833-1.743c3.634,7.467,7.849,14.65,11.407,22.152C55.4,46.132,57.22,42.616,59,39.071c1.8-3.842,3.672-7.65,5.593-11.436a22.346,22.346,0,0,1,2.943,1.781c.021,8.027-.03,16.054.017,24.081,3.218,2.6,7.616,2.994,11.572,2.4a8.537,8.537,0,0,0,7.115-7.429c.085-6.6-.047-13.2.051-19.8,2.93-.059,5.856.047,8.786-.047C95.155,25.969,95.028,23.314,95.147,20.66Z"/></g></svg>