<svg xmlns="http://www.w3.org/2000/svg" xmlns:xlink="http://www.w3.org/1999/xlink" width="170.808" height="70.396" viewBox="0 0 170.808 70.396"><defs><style>.a{fill:#3e3e3e;}.b{clip-path:url(#a);}.c{clip-path:url(#b);}.d{clip-path:url(#c);}</style><clipPath id="a"><path class="a" d="M305.579,380.171a10.14,10.14,0,0,1-.725,3.211,10.535,10.535,0,0,1-4,3.933l-.057.06c-.072.069-.144.141-.219.2l-.213.174a3.108,3.108,0,0,0-.331.307,6.808,6.808,0,0,0-1.067,1.648,12.2,12.2,0,0,0-.722,1.9,9.708,9.708,0,0,0-.364,1.972c-.018.3-.006.679-.009,1.034l0,1.07q0,1.069-.015,2.141c-.009.713-.015,1.428-.033,2.141h-1.1c-.018-.713-.024-1.428-.03-2.141s-.015-1.428-.018-2.141l0-1.07c.006-.361-.006-.7.015-1.11.006-.075.012-.147.018-.222v-1.17l0-.328-.051-.225-.147-.659a24.256,24.256,0,0,0-.749-2.568,10.478,10.478,0,0,0-1.106-2.36,3.8,3.8,0,0,0-.83-.917,2.156,2.156,0,0,0-.463-.28,3.6,3.6,0,0,0-.544-.15l-.045-.006h-.027l-.075-.024h0c-.235-.039-.472-.069-.731-.105a3.629,3.629,0,0,1-3.055-3.776v-.55l1.443.412c4.107,1.491,4.209,2.742,4.8,4.579.084.1.165.2.244.295a10.376,10.376,0,0,1,1.29,2.3l0-.691-.006-1.506c0-.244,0-.5.015-.767l-.036-.171-.1-.4-.108-.412c-.075-.295-.147-.592-.2-.9a10.244,10.244,0,0,1-.132-1.723l-.024.024c-.129-1.149-.661-1.434-1.148-1.6-2.553-1.338-3.076-5.764-3.076-5.764l1.248.2a4.95,4.95,0,0,1,3.373,5.216c.108.574.219,1.154.355,1.726s.277,1.133.433,1.672l.015.051c.066-.12.135-.234.2-.349l.4-.64c.126-.213.256-.418.373-.622a6.381,6.381,0,0,0,.559-1.257c.066-.219.117-.439.162-.664s.093-.457.12-.692c.012-.117.018-.235.021-.355l0-.364c0-.241-.012-.478-.033-.716a6.9,6.9,0,0,0-.277-1.4c-.135-.469-.295-.953-.427-1.443l-.051-.2-.214-.216a4.021,4.021,0,0,1-1.822-3.572,4.821,4.821,0,0,1,.418-2.36,5.534,5.534,0,0,1,.553-.695l.6,1.139c1.506,2.553,1.75,3.942,1.206,5.325.18.586.37,1.167.562,1.774.078.244.144.5.2.758s.1.523.135.785c.012.093.018.183.027.277a4.5,4.5,0,0,1,3.244-2h.415l-.132,1.416c-.686,2.339-.968,2.36-3.563,3.638l-.141.1a7.432,7.432,0,0,1-.514,1.275c-.234.478-.511.911-.74,1.338-.117.21-.228.418-.325.613a3.169,3.169,0,0,0-.214.589,5.661,5.661,0,0,0-.114,1.344l0,1.506-.018,2.243.054-.114a7.817,7.817,0,0,1,1.3-1.9c.051-.051.1-.1.153-.147a1.98,1.98,0,0,0,.123-.442,12.824,12.824,0,0,1,.256-1.275c.523-1.786,1.915-2.553,3.572-3.7.989-.683,2.255-1.551,2.255-1.551m-93.807,32.675.033,24.455,2.159,0-.033-24.455Zm8.46-.012.033,24.458,1.3,0-.03-21.476L237.6,437.269l1.78,0-.033-24.455H238.01l.03,21.545-16.094-21.524Zm35.622,24.75a11.207,11.207,0,0,0,9.72-5.117l-1.028-.511a10.626,10.626,0,0,1-8.421,4.257c-6.2.009-9.871-5.123-9.879-11.323-.009-6.44,3.89-11.1,9.816-11.112a9.666,9.666,0,0,1,8.021,4.272l1.025-.55a10.449,10.449,0,0,0-9.152-5.057,12.073,12.073,0,0,0-11.9,12.381C244.062,431.436,248.626,437.6,255.854,437.584Zm16.13-1.666-.015-10.55,11.611-.015,0-1.3-11.611.015-.012-10,13.493-.018v-1.3l-15.652.021.033,24.455,15.721-.021,0-1.3Zm18.256-23.178.033,24.455,1.3,0-.027-21.476,16.058,21.455,1.78,0-.033-24.455h-1.335l.03,21.545-16.094-21.521Zm42.266-.06-19.419.027v1.3l8.668-.012.03,23.153,2.126,0-.033-23.153,8.632-.012Zm3.734,0,.033,24.455,2.159,0-.033-24.455Zm15.412,24.434,2.02,0,9.423-24.467h-1.407l-8.6,22.447-8.662-22.423-2.261,0Zm17.363-1.326L369,425.236l11.611-.015,0-1.3L369,423.935l-.015-10,13.5-.018,0-1.3-15.652.021.033,24.455,15.721-.021v-1.3Z" transform="translate(-211.772 -367.189)"/></clipPath><clipPath id="b"><rect class="a" width="1753.581" height="761.316"/></clipPath><clipPath id="c"><rect class="a" width="1753.738" height="761.647"/></clipPath></defs><path class="a" d="M305.579,380.171a10.14,10.14,0,0,1-.725,3.211,10.535,10.535,0,0,1-4,3.933l-.057.06c-.072.069-.144.141-.219.2l-.213.174a3.108,3.108,0,0,0-.331.307,6.808,6.808,0,0,0-1.067,1.648,12.2,12.2,0,0,0-.722,1.9,9.708,9.708,0,0,0-.364,1.972c-.018.3-.006.679-.009,1.034l0,1.07q0,1.069-.015,2.141c-.009.713-.015,1.428-.033,2.141h-1.1c-.018-.713-.024-1.428-.03-2.141s-.015-1.428-.018-2.141l0-1.07c.006-.361-.006-.7.015-1.11.006-.075.012-.147.018-.222v-1.17l0-.328-.051-.225-.147-.659a24.256,24.256,0,0,0-.749-2.568,10.478,10.478,0,0,0-1.106-2.36,3.8,3.8,0,0,0-.83-.917,2.156,2.156,0,0,0-.463-.28,3.6,3.6,0,0,0-.544-.15l-.045-.006h-.027l-.075-.024h0c-.235-.039-.472-.069-.731-.105a3.629,3.629,0,0,1-3.055-3.776v-.55l1.443.412c4.107,1.491,4.209,2.742,4.8,4.579.084.1.165.2.244.295a10.376,10.376,0,0,1,1.29,2.3l0-.691-.006-1.506c0-.244,0-.5.015-.767l-.036-.171-.1-.4-.108-.412c-.075-.295-.147-.592-.2-.9a10.244,10.244,0,0,1-.132-1.723l-.024.024c-.129-1.149-.661-1.434-1.148-1.6-2.553-1.338-3.076-5.764-3.076-5.764l1.248.2a4.95,4.95,0,0,1,3.373,5.216c.108.574.219,1.154.355,1.726s.277,1.133.433,1.672l.015.051c.066-.12.135-.234.2-.349l.4-.64c.126-.213.256-.418.373-.622a6.381,6.381,0,0,0,.559-1.257c.066-.219.117-.439.162-.664s.093-.457.12-.692c.012-.117.018-.235.021-.355l0-.364c0-.241-.012-.478-.033-.716a6.9,6.9,0,0,0-.277-1.4c-.135-.469-.295-.953-.427-1.443l-.051-.2-.214-.216a4.021,4.021,0,0,1-1.822-3.572,4.821,4.821,0,0,1,.418-2.36,5.534,5.534,0,0,1,.553-.695l.6,1.139c1.506,2.553,1.75,3.942,1.206,5.325.18.586.37,1.167.562,1.774.078.244.144.5.2.758s.1.523.135.785c.012.093.018.183.027.277a4.5,4.5,0,0,1,3.244-2h.415l-.132,1.416c-.686,2.339-.968,2.36-3.563,3.638l-.141.1a7.432,7.432,0,0,1-.514,1.275c-.234.478-.511.911-.74,1.338-.117.21-.228.418-.325.613a3.169,3.169,0,0,0-.214.589,5.661,5.661,0,0,0-.114,1.344l0,1.506-.018,2.243.054-.114a7.817,7.817,0,0,1,1.3-1.9c.051-.051.1-.1.153-.147a1.98,1.98,0,0,0,.123-.442,12.824,12.824,0,0,1,.256-1.275c.523-1.786,1.915-2.553,3.572-3.7.989-.683,2.255-1.551,2.255-1.551m-93.807,32.675.033,24.455,2.159,0-.033-24.455Zm8.46-.012.033,24.458,1.3,0-.03-21.476L237.6,437.269l1.78,0-.033-24.455H238.01l.03,21.545-16.094-21.524Zm35.622,24.75a11.207,11.207,0,0,0,9.72-5.117l-1.028-.511a10.626,10.626,0,0,1-8.421,4.257c-6.2.009-9.871-5.123-9.879-11.323-.009-6.44,3.89-11.1,9.816-11.112a9.666,9.666,0,0,1,8.021,4.272l1.025-.55a10.449,10.449,0,0,0-9.152-5.057,12.073,12.073,0,0,0-11.9,12.381C244.062,431.436,248.626,437.6,255.854,437.584Zm16.13-1.666-.015-10.55,11.611-.015,0-1.3-11.611.015-.012-10,13.493-.018v-1.3l-15.652.021.033,24.455,15.721-.021,0-1.3Zm18.256-23.178.033,24.455,1.3,0-.027-21.476,16.058,21.455,1.78,0-.033-24.455h-1.335l.03,21.545-16.094-21.521Zm42.266-.06-19.419.027v1.3l8.668-.012.03,23.153,2.126,0-.033-23.153,8.632-.012Zm3.734,0,.033,24.455,2.159,0-.033-24.455Zm15.412,24.434,2.02,0,9.423-24.467h-1.407l-8.6,22.447-8.662-22.423-2.261,0Zm17.363-1.326L369,425.236l11.611-.015,0-1.3L369,423.935l-.015-10,13.5-.018,0-1.3-15.652.021.033,24.455,15.721-.021v-1.3Z" transform="translate(-211.772 -367.189)"/><g class="b"><g transform="translate(-81.916 -255.498)"><rect class="a" width="1753.581" height="761.316"/><g class="c"><g transform="translate(0.021 -0.352)"><rect class="a" width="1753.738" height="761.647"/><g class="d"><rect class="a" width="1753.738" height="761.647"/></g></g></g></g></g></svg>