<svg xmlns="http://www.w3.org/2000/svg" width="131.119" height="52.312" viewBox="0 0 131.119 52.312"><defs><style>.a{fill:#3e3e3e;}</style></defs><g transform="translate(-13 -5.446)"><g transform="translate(13 20.946)"><path class="a" d="M19.37,92.39h8.145a1.015,1.015,0,0,1,1.149,1.149v3.6a1.016,1.016,0,0,1-1.149,1.149H14.2q-1.2,0-1.2-1.149V62.681a1.061,1.061,0,0,1,1.2-1.2h4.02q1.149,0,1.149,1.2Z" transform="translate(-13 -61.48)"/><path class="a" d="M99.415,62.681a1.062,1.062,0,0,1,1.2-1.2h4.02q1.149,0,1.149,1.2V97.142a1.016,1.016,0,0,1-1.149,1.149h-4.02q-1.2,0-1.2-1.149Z" transform="translate(-75.511 -61.48)"/><path class="a" d="M163.472,92.39h8.145a1.015,1.015,0,0,1,1.149,1.149v3.6a1.016,1.016,0,0,1-1.149,1.149H158.3q-1.2,0-1.2-1.149V62.681a1.061,1.061,0,0,1,1.2-1.2h4.021q1.149,0,1.149,1.2Z" transform="translate(-117.24 -61.48)"/><path class="a" d="M243.668,62.681a1.062,1.062,0,0,1,1.2-1.2h4.02q1.149,0,1.149,1.2V97.142a1.016,1.016,0,0,1-1.149,1.149h-4.02q-1.2,0-1.2-1.149Z" transform="translate(-179.86 -61.48)"/><path class="a" d="M310.332,61.48A1.511,1.511,0,0,1,312,62.785l7.049,34.253q.26,1.253-1.045,1.253h-4.073a1.222,1.222,0,0,1-1.253-1.1l-1.515-7.206H303.44l-1.514,7.206a1.223,1.223,0,0,1-1.253,1.1h-4.125q-1.253,0-.992-1.253L302.6,62.785a1.482,1.482,0,0,1,1.619-1.305Zm.1,22.87-3.08-16.239H307.2L304.171,84.35Z" transform="translate(-217.362 -61.48)"/><path class="a" d="M430.882,97.142a1.016,1.016,0,0,1-1.149,1.149h-3.654a1.553,1.553,0,0,1-1.567-.992l-8.875-21.826V97.142q0,1.148-1.2,1.149h-3.812q-1.2,0-1.2-1.149V62.681a1.061,1.061,0,0,1,1.2-1.2h3.655a1.5,1.5,0,0,1,1.566.992l8.877,21.878V62.681q0-1.2,1.148-1.2h3.864q1.149,0,1.149,1.2Z" transform="translate(-299.763 -61.48)"/></g><path class="a" d="M246.522,10.809a5.362,5.362,0,1,1-5.362-5.363A5.362,5.362,0,0,1,246.522,10.809Z" transform="translate(-161.167)"/></g></svg>