<svg xmlns="http://www.w3.org/2000/svg" width="162.18" height="73.574" viewBox="0 0 162.18 73.574"><defs><style>.a{fill:#3e3e3e;}</style></defs><g transform="translate(-17 -9.298)"><g transform="translate(17 57.555)"><path class="a" d="M17,162.513V148.558h2.992V159.9h5.9v2.615Z" transform="translate(-17 -148.349)"/><path class="a" d="M60.027,162.513l-.879-2.364H53.164l-.878,2.364H48.917l5.377-13.955h3.724L63.4,162.513Zm-3.871-10.984-2.176,6h4.351Z" transform="translate(-37.809 -148.349)"/><path class="a" d="M99.049,162.513V148.558h2.971v13.955Z" transform="translate(-70.494 -148.349)"/><path class="a" d="M117.561,160.155l1.632-2.322a6.13,6.13,0,0,0,4.435,1.9c1.653,0,2.427-.732,2.427-1.548,0-2.427-8.034-.732-8.034-5.984,0-2.322,2.008-4.247,5.293-4.247a7.763,7.763,0,0,1,5.44,1.945l-1.653,2.218a6,6,0,0,0-4.059-1.527c-1.255,0-1.966.544-1.966,1.381,0,2.2,8.013.711,8.013,5.921,0,2.552-1.841,4.477-5.586,4.477A8.058,8.058,0,0,1,117.561,160.155Z" transform="translate(-82.563 -147.958)"/><path class="a" d="M158.435,160.155l1.632-2.322a6.132,6.132,0,0,0,4.435,1.9c1.653,0,2.427-.732,2.427-1.548,0-2.427-8.034-.732-8.034-5.984,0-2.322,2.009-4.247,5.293-4.247a7.763,7.763,0,0,1,5.44,1.945l-1.653,2.218a6,6,0,0,0-4.059-1.527c-1.256,0-1.967.544-1.967,1.381,0,2.2,8.013.711,8.013,5.921,0,2.552-1.841,4.477-5.586,4.477A8.056,8.056,0,0,1,158.435,160.155Z" transform="translate(-109.212 -147.958)"/><path class="a" d="M208.374,162.513l-.878-2.364h-5.984l-.879,2.364h-3.368l5.377-13.955h3.724l5.377,13.955Zm-3.87-10.984-2.176,6h4.352Z" transform="translate(-134.528 -148.349)"/><path class="a" d="M274.553,162.513l-.879-2.364h-5.983l-.879,2.364h-3.368l5.377-13.955h3.724l5.377,13.955Zm-3.87-10.984-2.176,6h4.352Z" transform="translate(-177.675 -148.349)"/><path class="a" d="M313.574,162.513V148.558h7.344c2.657,0,4.017,1.695,4.017,3.557a3.116,3.116,0,0,1-2.406,3.2,3.355,3.355,0,0,1,2.678,3.41c0,2.113-1.381,3.787-4.059,3.787Zm8.327-9.875a1.467,1.467,0,0,0-1.632-1.464h-3.724V154.1h3.724A1.445,1.445,0,0,0,321.9,152.638Zm.272,5.67a1.594,1.594,0,0,0-1.778-1.59h-3.85v3.18h3.85C321.5,159.9,322.173,159.312,322.173,158.308Z" transform="translate(-210.359 -148.349)"/><path class="a" d="M366.122,162.513l-2.741-4.958h-2.176v4.958h-2.971V148.558h6.528a4.363,4.363,0,0,1,4.707,4.5,4.037,4.037,0,0,1-3.076,4.143l3.159,5.314Zm.293-9.477a1.884,1.884,0,0,0-2.071-1.862h-3.138v3.766h3.138A1.893,1.893,0,0,0,366.416,153.035Z" transform="translate(-239.476 -148.349)"/><path class="a" d="M401.694,162.513V148.558h9.875v2.615h-6.9V154.1h6.758v2.615h-6.758v3.18h6.9v2.615Z" transform="translate(-267.81 -148.349)"/><path class="a" d="M441.545,156.927v-8.369h3.013v8.285a3.274,3.274,0,1,0,6.548,0v-8.285h3.034v8.369c0,3.452-2.05,5.837-6.3,5.837S441.545,160.379,441.545,156.927Z" transform="translate(-293.792 -148.349)"/></g><g transform="translate(138.75 76.341)"><path class="a" d="M366.83,208.548v-6.314h1.921a1.9,1.9,0,0,1,0,3.786h-1.164v2.528Zm2.9-4.421a1.076,1.076,0,0,0-1.051-1.221h-1.089v2.442h1.089A1.076,1.076,0,0,0,369.726,204.127Z" transform="translate(-366.83 -202.13)"/><path class="a" d="M382.112,208.548v-6.314h.757v5.642h2.291v.672Z" transform="translate(-376.793 -202.13)"/><path class="a" d="M395.057,206.5v-4.269h.757V206.5c0,.985.464,1.486,1.278,1.486s1.268-.5,1.268-1.486v-4.269h.758V206.5a2.034,2.034,0,1,1-4.061,0Z" transform="translate(-385.233 -202.13)"/><path class="a" d="M411.589,207.671l.416-.577a1.94,1.94,0,0,0,1.477.7,1.032,1.032,0,0,0,1.155-1.041c0-1.533-2.859-1.127-2.859-3.162a1.683,1.683,0,0,1,1.817-1.656,2.229,2.229,0,0,1,1.685.672l-.388.568a1.722,1.722,0,0,0-1.316-.568.954.954,0,0,0-1.032.947c0,1.335,2.859,1.041,2.859,3.152a1.725,1.725,0,0,1-1.921,1.761A2.463,2.463,0,0,1,411.589,207.671Z" transform="translate(-396.012 -201.935)"/><path class="a" d="M434.621,207.671l.416-.577a1.94,1.94,0,0,0,1.477.7,1.031,1.031,0,0,0,1.155-1.041c0-1.533-2.859-1.127-2.859-3.162a1.683,1.683,0,0,1,1.817-1.656,2.229,2.229,0,0,1,1.685.672l-.388.568a1.722,1.722,0,0,0-1.316-.568.954.954,0,0,0-1.032.947c0,1.335,2.859,1.041,2.859,3.152a1.725,1.725,0,0,1-1.921,1.761A2.463,2.463,0,0,1,434.621,207.671Z" transform="translate(-411.028 -201.935)"/><path class="a" d="M450.747,208.548v-6.314h.757v6.314Z" transform="translate(-421.542 -202.13)"/><path class="a" d="M458.088,208.548V207.9l2.66-5h-2.66v-.672h3.56v.625l-2.67,5.017h2.736v.672Z" transform="translate(-426.328 -202.13)"/><path class="a" d="M473.671,208.548v-6.314h3.247v.672h-2.49v2.073h2.423v.672h-2.423v2.225h2.49v.672Z" transform="translate(-436.488 -202.13)"/></g><path class="a" d="M220.989,35.733a37.646,37.646,0,0,0-3.551-2.011,1.858,1.858,0,0,0-1.492.427c-1.042.834-2.1,1.412-3.452.9a1.993,1.993,0,0,1-1.481-2.12,2.018,2.018,0,0,1,1.938-2.028c.728-.071,1.469-.013,2.37-.013l2.025-6.1a52.666,52.666,0,0,1-6.358-2.217,6.6,6.6,0,0,1-3.91-7.578c.552-2.9,3.02-4.577,5.457-3.7a3.639,3.639,0,0,1,2.3,3.483c-.056.437-.582.815-.892,1.219-.364-.351-.728-.7-1.088-1.056-.025-.025-.013-.09-.014-.136-.032-1.095-.283-2.089-1.538-2.321-.9-.167-2.186.982-2.6,2.2a5.209,5.209,0,0,0,1.782,5.765,9.993,9.993,0,0,0,5.8,2.138c1.454.081,2.021-.514,2.4-1.842A73.59,73.59,0,0,1,221.26,13.1a8.591,8.591,0,0,1,2.265-2.943,3.238,3.238,0,0,1,3.791-.442,3.322,3.322,0,0,1,1.957,3.284c-.137,3.846-2.1,8.64-6.868,10.27a2.867,2.867,0,0,0-1.982,2.212c-.663,2.161-1.524,4.261-2.362,6.549l3.812,2.29c.821-1.346,1.612-2.587,2.347-3.861,1.047-1.815,2.019-3.674,3.1-5.466.234-.387.812-.565,1.231-.84.213.5.658,1.026.6,1.492-.414,3.372-.9,6.736-1.428,10.094a2.169,2.169,0,0,0,1.764,2.789c.672.181,1.307.494,1.97.713a2.275,2.275,0,0,0,2.682-.53c.269-.291.948-.2,1.439-.291.052.553.307,1.191.116,1.641-.441,1.042-2.148,1.626-3.57,1.224s-2.787-.98-4.264-1.512a4.732,4.732,0,0,0,1.037,3.775c.474.6,1.045,1.155,1.806.231.142-.172.745-.244.814-.143a1.289,1.289,0,0,1,.22.968,2.4,2.4,0,0,1-3.886,1.065c-1.941-1.455-2.616-3.552-2.858-5.843-.113-1.065-.141-2.068-1.335-2.684-.978-.5-1.486-.443-2.163.471-1.467,1.98-3.046,3.88-4.65,5.753a9.3,9.3,0,0,1-5.112,2.977,6.9,6.9,0,0,1-8.372-5.628c-.615-3.7,3.156-7.382,6.491-6.341a3.794,3.794,0,0,1,2.669,2.8,1.817,1.817,0,0,1-.612,1.589c-.735.446-1.162-.216-1.384-.894-.386-1.179-.964-2.172-2.389-2.151a3.474,3.474,0,0,0-2.839,2.566,5.014,5.014,0,0,0,1.724,5.756c1.945,1.544,4.024,1.245,6.038.221,2.967-1.509,4.832-4.177,6.773-6.742C220.229,37,220.543,36.43,220.989,35.733Zm.5-14.34.324.223a10.482,10.482,0,0,0,1.288-.7,11.528,11.528,0,0,0,4.352-6.937,2.314,2.314,0,0,0-.026-1.366c-.26-.595-.626-1.346-1.142-1.557-.371-.152-1.211.336-1.579.764C222.33,14.591,222.5,18.177,221.494,21.393ZM224.7,35.855l.367-2.9-.327-.09-1.356,2.3Zm-10.193-2.917-.289-.663-1.464.514.309.822Z" transform="translate(-121.464)"/></g></svg>