<svg xmlns="http://www.w3.org/2000/svg" width="195" height="51.26" viewBox="0 0 195 51.26"><defs><style>.a{fill:#3e3e3e;}</style></defs><g transform="translate(-8.5 -7.37)"><path class="a" d="M16.361,8.735V24.272c0,2.141.849,3.174,2.657,3.174a5.184,5.184,0,0,0,.738-.037v7.639H17.985a9.282,9.282,0,0,1-6.754-2.288C8.611,30.324,8.5,27.372,8.5,23.645V8.735Z"/><path class="a" d="M34.517,35.048V27.52c0-3.063-.517-4.8-2.8-4.8a2.749,2.749,0,0,0-2.731,2.731,2.657,2.657,0,0,0,2.731,2.731,3.824,3.824,0,0,0,1.4-.332v7.307c-.554.037-1.071.074-1.513.074a9.743,9.743,0,1,1,.036-19.486,9.354,9.354,0,0,1,8.747,5.462,14.61,14.61,0,0,1,1.144,6.348v7.491Z"/><path class="a" d="M64.335,35.048A13.255,13.255,0,0,1,54,21.91a13.578,13.578,0,0,1,4.022-9.632,13.545,13.545,0,0,1,19.339,0,13.7,13.7,0,0,1,3.985,9.632A13.082,13.082,0,0,1,70.941,35.048v2.4H64.335ZM70.9,26.6c1.661-.48,2.731-2.214,2.731-4.465a5.965,5.965,0,1,0-11.92,0c0,2.214,1.07,3.948,2.657,4.465V23.866H70.9Z"/><path class="a" d="M100.132,28.959c-1.07,4.207-4.023,6.606-8.009,6.606a8.054,8.054,0,0,1-7.491-4.945,13.8,13.8,0,0,1-1-5.794V16.264h7.2v8.857c0,1.624.184,2.583,1.365,2.583,1.144,0,1.366-.959,1.366-2.583V16.264h7.012v7.86A18.44,18.44,0,0,1,100.132,28.959Z"/><path class="a" d="M115.41,35.048V27.52c0-3.063-.517-4.8-2.805-4.8a2.748,2.748,0,0,0-2.731,2.731,2.657,2.657,0,0,0,2.731,2.731,3.819,3.819,0,0,0,1.4-.332v7.307c-.554.037-1.07.074-1.513.074a9.743,9.743,0,1,1,.037-19.486,9.354,9.354,0,0,1,8.747,5.462,14.609,14.609,0,0,1,1.143,6.348v7.491Z"/><path class="a" d="M125.336,35.048V8.735h7.012V35.048Z"/><path class="a" d="M138.769,7.37a3.561,3.561,0,1,1,0,7.122,3.561,3.561,0,0,1,0-7.122Zm-3.506,27.678V16.264h7.012V35.048Z"/><path class="a" d="M152.387,24.2a4.238,4.238,0,0,0-.037.665c0,2.066.923,3.1,2.694,3.1h.443v7.6a8.971,8.971,0,0,1-1,.037c-5.351,0-9.3-3.949-9.3-10.186V9.252h7.2v7.012h3.1V24.2Z"/><path class="a" d="M167.148,35.565a9.949,9.949,0,0,1-5.5-1.7,9.681,9.681,0,0,1-4.392-8.193,10.021,10.021,0,0,1,9.891-9.927c5.572,0,9.927,4.133,9.927,10.629v.406h-10.37c-.664,0-.96-.554-.96-1.735s.3-1.771.96-1.771h3.137V23.2c0-1.255-.96-2.03-2.436-2.03-1.808,0-3.137,1.55-3.137,4.17,0,2.768,1.218,4.207,2.989,4.207a2.743,2.743,0,0,0,2.288-1.291l4.06,4.982A9.935,9.935,0,0,1,167.148,35.565Zm-3.58-21.184,2.583-4.28h6.311l-4.355,4.28Z"/><path class="a" d="M88,42.091q.018.19.018,2.528,0,3.123-.037,3.313A4.745,4.745,0,0,1,91.29,46.3a2.88,2.88,0,0,1,2.263,1.071,4.73,4.73,0,0,1,.725,2.851,4.842,4.842,0,0,1-.646,2.47,5.173,5.173,0,0,1-1.589,1.75,3.2,3.2,0,0,1-1.743.632,2.741,2.741,0,0,1-1.313-.414,5.292,5.292,0,0,1-1.122-.883v-.627a3.667,3.667,0,0,0,1.087.883,2.933,2.933,0,0,0,1.311.548,2.369,2.369,0,0,0,1.285-.36,3.055,3.055,0,0,0,.964-.981,4.791,4.791,0,0,0,.583-1.368,6.124,6.124,0,0,0,.193-1.539,4.689,4.689,0,0,0-.276-1.626,2.688,2.688,0,0,0-.851-1.208,2.188,2.188,0,0,0-1.406-.456,2.533,2.533,0,0,0-1.331.379,3.532,3.532,0,0,0-1.006.885,1.527,1.527,0,0,0-.381.809v4.815a.884.884,0,0,1-.167.543,5.293,5.293,0,0,1-.688.674q-.631-.753-.916-1.139c.124-.049.252-.1.384-.158a.8.8,0,0,0,.325-.246.754.754,0,0,0,.128-.474V44.754q0-.419-.156-.5a2.559,2.559,0,0,0-.7-.132q.246-.27.739-.827T88,42.091Z"/><path class="a" d="M101.946,46.106a6.015,6.015,0,0,1,1.045.154q-.288.39-.543.7a1.245,1.245,0,0,0-.256.379.36.36,0,0,0,.051.121.962.962,0,0,1,.086.242,2.183,2.183,0,0,1,.035.455q.018.917.019,2.268,0,1.692-.019,2.854a8.956,8.956,0,0,1-.5,3.136,3.285,3.285,0,0,1-1.355,1.7,4.222,4.222,0,0,1-2.158.513,1.746,1.746,0,0,1-.932-.258.8.8,0,0,1-.42-.713c0-.136.111-.272.334-.406a2.884,2.884,0,0,1,.827-.319,4.336,4.336,0,0,0,.149.744.439.439,0,0,0,.232.276,1.5,1.5,0,0,0,.535.068,1.577,1.577,0,0,0,1.2-.426,5.715,5.715,0,0,0,.873-1.382V54.025c-.018-.043-.037-.086-.055-.128l-.056-.123c-.2.133-.417.3-.655.488a5.531,5.531,0,0,1-.574.418,2.009,2.009,0,0,1-.567.214,3.92,3.92,0,0,1-.89.084,2.82,2.82,0,0,1-1.541-.444,3,3,0,0,1-1.1-1.3,4.728,4.728,0,0,1-.4-2.024,4.6,4.6,0,0,1,.17-1.332,10.043,10.043,0,0,1,.5-1.264,6.813,6.813,0,0,0,.416-1.061,2.36,2.36,0,0,0-.328-.177c-.141-.065-.335-.171-.583-.316a10.874,10.874,0,0,1,2.147-.725,3.943,3.943,0,0,1-.432,1.334,12.178,12.178,0,0,0-.6,1.436,5.808,5.808,0,0,0-.2,1.742,3.814,3.814,0,0,0,.318,1.536,2.968,2.968,0,0,0,.906,1.188,2.142,2.142,0,0,0,1.346.455,1.971,1.971,0,0,0,1.1-.328,2.434,2.434,0,0,0,1.087-2v-4.4a.793.793,0,0,0-.081-.364,1.659,1.659,0,0,0-.2-.307l-.307-.374Q101.927,46.106,101.946,46.106Z"/><path class="a" d="M111.442,43.086q.982-.489,1.613-.723a5.136,5.136,0,0,1,1.735-.235,4.2,4.2,0,0,1,1.434.261,3.907,3.907,0,0,1,1.336.827,4.093,4.093,0,0,1,.988,1.478,5.66,5.66,0,0,1,.374,2.156,6.455,6.455,0,0,1-.779,3.069,6.957,6.957,0,0,1-1.949,2.349,3.769,3.769,0,0,1-2.24.883,1.777,1.777,0,0,1-1.162-.441,1.419,1.419,0,0,1-.529-1.143.772.772,0,0,1,.873-.874,1.356,1.356,0,0,1,.207.014,1.161,1.161,0,0,1,.118.023,1.259,1.259,0,0,1-.214.414.683.683,0,0,0-.148.423.766.766,0,0,0,.364.578,1.537,1.537,0,0,0,.965.282,1.829,1.829,0,0,0,1.008-.354,3.665,3.665,0,0,0,.993-1.052,6.029,6.029,0,0,0,.745-1.72,8.682,8.682,0,0,0,.284-2.321,6.2,6.2,0,0,0-.349-2.029,4.185,4.185,0,0,0-1.038-1.682,2.287,2.287,0,0,0-1.643-.667,2.523,2.523,0,0,0-1.31.388,3.447,3.447,0,0,0-1.056.967,1.918,1.918,0,0,0-.409,1.085V55.336a2.346,2.346,0,0,1-.3,1.115,2.727,2.727,0,0,1-.813.934,1.807,1.807,0,0,1-1.076.367.841.841,0,0,1-.493-.165,1.415,1.415,0,0,1-.344-.327v-.591h.972q.469,0,.6-.148a.971.971,0,0,0,.128-.6V44.182h-.4a3.7,3.7,0,0,1-1.129-.137.56.56,0,0,1-.414-.583.527.527,0,0,1,.154-.421.666.666,0,0,1,.365-.158l.262-.03c.084.384.137.6.16.658s.1.081.221.081c.022,0,.079,0,.172-.009s.175-.009.246-.009A3.794,3.794,0,0,0,111.442,43.086Z"/><path class="a" d="M122.953,46.822a4.174,4.174,0,0,1,.918-.653,2.306,2.306,0,0,1,1.009-.2,2.014,2.014,0,0,1,1.2.367,1.131,1.131,0,0,1,.515.966,1.276,1.276,0,0,1-.3.893,1.015,1.015,0,0,1-.785.325,1.1,1.1,0,0,1-.27-.033.974.974,0,0,1-.244-.1,2.007,2.007,0,0,1-.223-.144l-.123-.091q.25-.2.472-.36a1.506,1.506,0,0,0,.246-.193.407.407,0,0,0,.025-.186.511.511,0,0,0-.258-.441,1.306,1.306,0,0,0-.731-.172,1.759,1.759,0,0,0-.858.3,2.735,2.735,0,0,0-.86.83,2.085,2.085,0,0,0-.359,1.2v3.676a3.438,3.438,0,0,0,.162,1.2,5.269,5.269,0,0,0,.451.876,3.058,3.058,0,0,1-1.167.153,4.157,4.157,0,0,1-1.157-.153A2.6,2.6,0,0,0,121.264,53q0-.149-.009-.381c-.006-.155-.009-.257-.009-.307a20.149,20.149,0,0,0-.191-3.215,4.1,4.1,0,0,0-.423-1.425,1.239,1.239,0,0,0-.485-.444c-.17-.074-.254-.168-.254-.283,0-.081.112-.243.337-.488s.393-.367.5-.367a.876.876,0,0,1,.642.3q.288.3.878,1.034Q122.444,47.277,122.953,46.822Z"/><path class="a" d="M127.877,46.848a4.761,4.761,0,0,1,.869-.44v6.246a4.55,4.55,0,0,0,.627,2.435h-2.1c.022-.08.092-.262.209-.543a2.021,2.021,0,0,0,.177-.54V49.838a3.278,3.278,0,0,0-.632-2.324A4.433,4.433,0,0,1,127.877,46.848Zm-.167-3.075a.582.582,0,0,1,.427-.181.538.538,0,0,1,.609.609.59.59,0,0,1-.609.627.546.546,0,0,1-.609-.627A.586.586,0,0,1,127.71,43.773Z"/><path class="a" d="M137.055,46.984a4.224,4.224,0,0,1,.783-.553,2.048,2.048,0,0,1,.992-.232,2.626,2.626,0,0,1,1.246.384,3.416,3.416,0,0,1,1.189,1.131,3.138,3.138,0,0,1,.5,1.78,4.106,4.106,0,0,1-.268,1.4,10.1,10.1,0,0,1-.6,1.352q-.331.616-1.076,1.894a1.775,1.775,0,0,0,.974.053c.165-.029.286-.047.36-.053v1.1a7.483,7.483,0,0,0-1.162-.134l-.353.009c-.217.006-.486.009-.809.009a9.064,9.064,0,0,1,.567-1.51,13.249,13.249,0,0,0,.669-1.752,6.687,6.687,0,0,0,.233-1.877,4.123,4.123,0,0,0-.214-1.313A2.468,2.468,0,0,0,139.4,47.6a1.688,1.688,0,0,0-1.18-.428,1.486,1.486,0,0,0-.86.386q-.492.385-.493.715c.065.227.145.527.24.9a3.831,3.831,0,0,1,.141.809,23.136,23.136,0,0,1-.639,2.855q-.484,1.755-1.34,2.094.084-.483.23-1.12a11.5,11.5,0,0,0,.216-1.248,14.752,14.752,0,0,0,.069-1.592,6.919,6.919,0,0,0-.395-2.623,1.532,1.532,0,0,0-1.565-.932,1.332,1.332,0,0,0-1.386.818,5.784,5.784,0,0,0-.325,2.11q0,1.739.082,2.675a6.594,6.594,0,0,0,.206,1.315,1.316,1.316,0,0,0,.34.573c.142.131.218.2.227.214h-2.323a2.932,2.932,0,0,1,.332-.552.662.662,0,0,0,.147-.437V49.131a1.731,1.731,0,0,0-.193-.9,3.2,3.2,0,0,0-.495-.612c-.2-.2-.3-.345-.3-.448,0-.049.077-.164.232-.344a.666.666,0,0,1,.506-.269.5.5,0,0,1,.326.151,2.476,2.476,0,0,1,.32.355c.1.136.21.271.323.4s.2.2.272.2.169-.088.312-.265a5.791,5.791,0,0,1,.437-.486,2.182,2.182,0,0,1,.648-.411,2.532,2.532,0,0,1,1.038-.191,1.694,1.694,0,0,1,.786.2,6.623,6.623,0,0,1,.8.494,1.777,1.777,0,0,0,.486.293Q136.7,47.305,137.055,46.984Z"/><path class="a" d="M143.024,46.636a2.514,2.514,0,0,1,.943-.646,3.3,3.3,0,0,1,1.276-.246,3.551,3.551,0,0,1,2.472.862,5.521,5.521,0,0,1,1.46,2.188,13.128,13.128,0,0,1,.687,2.422q.186,1.094.5,3.436h-1.352a1.109,1.109,0,0,1-.344-.571c-.078-.26-.121-.4-.13-.419a2.881,2.881,0,0,1-1.094.979,3.349,3.349,0,0,1-1.592.374,3.686,3.686,0,0,1-2.384-.823,2.825,2.825,0,0,1-1.023-2.337,2.645,2.645,0,0,1,.458-1.343,3.813,3.813,0,0,1,1.373-1.283,4.265,4.265,0,0,1,2.185-.534.771.771,0,0,1,.116.072,1.149,1.149,0,0,0,.306.132,1.984,1.984,0,0,0,.549.061c.077,0,.243-.013.5-.038a3.676,3.676,0,0,0-.639-1.173,4.625,4.625,0,0,0-1.155-1.071,2.474,2.474,0,0,0-1.366-.442,1.531,1.531,0,0,0-.943.307.953.953,0,0,0-.409.8,1,1,0,0,0,.358.59c.347-.185.52-.331.52-.436a.563.563,0,0,0-.021-.1.73.73,0,0,1-.021-.183h.516a1.32,1.32,0,0,1,.247.59c0,.09-.083.134-.247.134q0,.108.009.261c.007.1.01.167.01.195a.36.36,0,0,1-.147.33,1.376,1.376,0,0,1-.634.093,1.208,1.208,0,0,1-.936-.451,1.371,1.371,0,0,1-.4-.9A1.241,1.241,0,0,1,143.024,46.636Zm1.541,3.448a2.014,2.014,0,0,0-.674,1.655,1.786,1.786,0,0,0,.367,1.08,2.713,2.713,0,0,0,.92.795,2.213,2.213,0,0,0,1.036.3,2.767,2.767,0,0,0,.895-.23,3,3,0,0,0,1.066-.718,1.684,1.684,0,0,0,.475-1.222,2.124,2.124,0,0,0-.316-1.15,2.151,2.151,0,0,0-.849-.781,2.471,2.471,0,0,0-1.155-.277A2.7,2.7,0,0,0,144.565,50.084Z"/><path class="a" d="M156.3,44.54a4.063,4.063,0,0,1,1.118-1.359,5.1,5.1,0,0,1,1.694-.869,7.234,7.234,0,0,1,2.133-.3,6.478,6.478,0,0,1,2.389.448,6.16,6.16,0,0,1,2.007,1.278,5.973,5.973,0,0,1,1.85,4.385,5.7,5.7,0,0,1-1.006,3.467,6.725,6.725,0,0,1-2.391,2.065,11.927,11.927,0,0,1-2.66,1q-1.276.3-1.9.437h-1.212a1.894,1.894,0,0,0,.506-.9,7.036,7.036,0,0,0,.181-1.5q.033-.945.033-3.153a14.275,14.275,0,0,1-1.634-.49,2.473,2.473,0,0,1-1.034-.876,3.135,3.135,0,0,1-.488-1.887A3.987,3.987,0,0,1,156.3,44.54Zm2.364-1.422a4.385,4.385,0,0,0-1.7,1.343,2.846,2.846,0,0,0-.609,1.706,2.69,2.69,0,0,0,.412,1.512,2.631,2.631,0,0,0,1.029.934,2.718,2.718,0,0,0,1.222.309q.02-.417.019-1.124a10.156,10.156,0,0,0-.128-1.98,1.838,1.838,0,0,0-.211-.627c0-.192.182-.372.548-.539a4.267,4.267,0,0,1,1.027-.335,4.745,4.745,0,0,0-.307,2.059q0,.687.061,1.4t.1,1.015a3.6,3.6,0,0,0,1.522-.62,1.374,1.374,0,0,0,.723-1.09c0-.3-.165-.455-.493-.455-.049,0-.128,0-.237.01s-.2.009-.26.009a2.5,2.5,0,0,1,.256-.607.63.63,0,0,1,.58-.364q1.047,0,1.046,1.352a1.811,1.811,0,0,1-.516,1.3,3.724,3.724,0,0,1-1.231.844,11.39,11.39,0,0,1-1.487.516q0,1.431.014,2.209t.027,1.13c.01.234.014.371.014.411a.759.759,0,0,1-.048.193,5.8,5.8,0,0,0-.142.588,9.731,9.731,0,0,0,1.977-.463,6.466,6.466,0,0,0,2.656-1.8,5.628,5.628,0,0,0,1.366-3.96,6.069,6.069,0,0,0-.664-2.925,4.524,4.524,0,0,0-1.757-1.845,4.688,4.688,0,0,0-2.337-.616A5.7,5.7,0,0,0,158.667,43.118Z"/><path class="a" d="M168.667,48.6a4.679,4.679,0,0,1,1.1-1.452,5.138,5.138,0,0,1,1.508-.941,4.305,4.305,0,0,1,1.6-.327,4.207,4.207,0,0,1,2.2.606,4.442,4.442,0,0,1,1.6,1.652,4.533,4.533,0,0,1,.593,2.272,4.443,4.443,0,0,1-.637,2.313,4.757,4.757,0,0,1-1.708,1.7,4.431,4.431,0,0,1-2.284.63,4.15,4.15,0,0,1-2.279-.637,4.367,4.367,0,0,1-1.557-1.705,4.92,4.92,0,0,1-.555-2.3A4.062,4.062,0,0,1,168.667,48.6Zm2.445-1.4a3.863,3.863,0,0,0-1.23.939,2.066,2.066,0,0,0-.544,1.415,4.163,4.163,0,0,0,.6,2.068,5.674,5.674,0,0,0,1.524,1.752,2.97,2.97,0,0,0,1.771.692,2.735,2.735,0,0,0,1.536-.467,3.554,3.554,0,0,0,1.119-1.159,2.545,2.545,0,0,0,.411-1.287,4.1,4.1,0,0,0-.508-1.664,5.546,5.546,0,0,0-1.452-1.829,3.317,3.317,0,0,0-2.189-.788A2.7,2.7,0,0,0,171.112,47.2Z"/><path class="a" d="M182.741,46.125a3.236,3.236,0,0,1,1.8.488,3.066,3.066,0,0,1,1.138,1.354,4.755,4.755,0,0,1,.388,1.964,5.134,5.134,0,0,1-.258,1.756,6.357,6.357,0,0,1-.618,1.262,2.186,2.186,0,0,0-.36.695c0,.062.1.181.3.355a4.8,4.8,0,0,1,.5.5q-1.027.432-1.485.593a4.214,4.214,0,0,1-1.048.206q.607-1.1,1-1.8a7.883,7.883,0,0,0,.627-1.424,5.327,5.327,0,0,0,.237-1.65,4.2,4.2,0,0,0-.306-1.564,3.106,3.106,0,0,0-.9-1.259,2.1,2.1,0,0,0-1.381-.49,2.057,2.057,0,0,0-1.194.369,2.483,2.483,0,0,0-.832.992,3.083,3.083,0,0,0-.3,1.343v3.936a2.374,2.374,0,0,0,.044.544.642.642,0,0,0,.181.3,3.967,3.967,0,0,0,.5.375,6.263,6.263,0,0,1-1.636.167,4.09,4.09,0,0,1-1.069-.112,7.48,7.48,0,0,0,.544-.722,1.218,1.218,0,0,0,.181-.667V49.457a5.937,5.937,0,0,0-.1-1.2,2.7,2.7,0,0,0-.224-.7,2.011,2.011,0,0,0-.257-.372c-.093-.1-.14-.172-.14-.2,0-.078.092-.22.277-.428s.333-.311.448-.311a.638.638,0,0,1,.416.193,5.627,5.627,0,0,1,.53.567,6.364,6.364,0,0,0,.425.476A3.805,3.805,0,0,1,182.741,46.125Z"/><path class="a" d="M191.571,46.125a3.231,3.231,0,0,1,1.8.488,3.068,3.068,0,0,1,1.139,1.354,4.755,4.755,0,0,1,.388,1.964,5.134,5.134,0,0,1-.258,1.756,6.414,6.414,0,0,1-.618,1.262,2.186,2.186,0,0,0-.36.695c0,.062.1.181.3.355a4.609,4.609,0,0,1,.5.5q-1.027.432-1.484.593a4.213,4.213,0,0,1-1.049.206q.609-1.1,1-1.8a7.881,7.881,0,0,0,.627-1.424,5.326,5.326,0,0,0,.237-1.65,4.18,4.18,0,0,0-.307-1.564,3.087,3.087,0,0,0-.9-1.259,2.091,2.091,0,0,0-1.38-.49,2.052,2.052,0,0,0-1.194.369,2.467,2.467,0,0,0-.832.992,3.083,3.083,0,0,0-.3,1.343v3.936a2.374,2.374,0,0,0,.044.544.627.627,0,0,0,.181.3,3.892,3.892,0,0,0,.5.375,6.269,6.269,0,0,1-1.636.167,4.085,4.085,0,0,1-1.069-.112,7.48,7.48,0,0,0,.544-.722,1.227,1.227,0,0,0,.181-.667V49.457a5.857,5.857,0,0,0-.105-1.2,2.71,2.71,0,0,0-.223-.7,2.064,2.064,0,0,0-.258-.372c-.092-.1-.139-.172-.139-.2,0-.078.092-.22.276-.428s.334-.311.449-.311a.638.638,0,0,1,.416.193,5.746,5.746,0,0,1,.53.567,6.135,6.135,0,0,0,.425.476A3.8,3.8,0,0,1,191.571,46.125Z"/><path class="a" d="M196.16,46.636a2.514,2.514,0,0,1,.943-.646,3.293,3.293,0,0,1,1.276-.246,3.551,3.551,0,0,1,2.472.862,5.509,5.509,0,0,1,1.459,2.188A13.137,13.137,0,0,1,203,51.216q.186,1.094.5,3.436h-1.353a1.108,1.108,0,0,1-.343-.571c-.078-.26-.121-.4-.13-.419a2.884,2.884,0,0,1-1.1.979,3.342,3.342,0,0,1-1.591.374,3.686,3.686,0,0,1-2.384-.823,2.825,2.825,0,0,1-1.023-2.337,2.645,2.645,0,0,1,.458-1.343,3.813,3.813,0,0,1,1.373-1.283,4.264,4.264,0,0,1,2.184-.534.769.769,0,0,1,.116.072,1.173,1.173,0,0,0,.307.132,1.979,1.979,0,0,0,.549.061c.077,0,.243-.013.5-.038a3.716,3.716,0,0,0-.639-1.173,4.643,4.643,0,0,0-1.155-1.071,2.474,2.474,0,0,0-1.366-.442,1.529,1.529,0,0,0-.943.307.954.954,0,0,0-.41.8,1.01,1.01,0,0,0,.358.59c.347-.185.521-.331.521-.436a.563.563,0,0,0-.021-.1.73.73,0,0,1-.021-.183h.516a1.315,1.315,0,0,1,.246.59c0,.09-.082.134-.246.134q0,.108.009.261t.009.195a.361.361,0,0,1-.146.33,1.379,1.379,0,0,1-.634.093,1.211,1.211,0,0,1-.937-.451,1.37,1.37,0,0,1-.4-.9A1.241,1.241,0,0,1,196.16,46.636Zm1.54,3.448a2.017,2.017,0,0,0-.674,1.655,1.787,1.787,0,0,0,.368,1.08,2.7,2.7,0,0,0,.92.795,2.213,2.213,0,0,0,1.036.3,2.773,2.773,0,0,0,.895-.23,3,3,0,0,0,1.066-.718,1.684,1.684,0,0,0,.474-1.222,2.116,2.116,0,0,0-.316-1.15,2.141,2.141,0,0,0-.848-.781,2.474,2.474,0,0,0-1.155-.277A2.7,2.7,0,0,0,197.7,50.084Z"/></g></svg>