<svg xmlns="http://www.w3.org/2000/svg" width="151.868" height="55.832" viewBox="0 0 151.868 55.832"><defs><style>.a{fill:#3e3e3e;fill-rule:evenodd;}</style></defs><g transform="translate(-70.51 -69.737)"><path class="a" d="M155.631,74.067c-3.917.253-3.736,2.365-3.647,6.072,5.438-.574,8.129.086,7.672,5.417q1.925,0,3.849,0c-.457-5.33,2.234-5.991,7.672-5.417.088-3.707.27-5.819-3.647-6.072-1.556-5.774-10.343-5.774-11.9,0M201.2,89.517v26.349c-.09,4.147,2.687,8.233,6.293,9.279,2.742.8,8.27.514,10.6-1.191a11.5,11.5,0,0,0,4.289-8.58V89.5l-1.5.059c-.025,8.257.272,17.552-.074,25.853a9.145,9.145,0,0,1-5.144,8.022,8.752,8.752,0,0,1-6.569.145,6.406,6.406,0,0,1-1.531-.8,9.929,9.929,0,0,1-3.863-7.713V89.509Zm-41.411.028h3.383v35.813h-3.383ZM134.37,106.838V91.032h5.424c8.27.481,8.729,15.866-1.633,15.807Zm-3.212,18.61V89.569c3.5,0,7.659.021,9.294.031,10.406.06,11.1,18.105-2.855,18.463l14.232,17.382h-3.693l-13.707-16.565v16.545ZM108.933,91.439c7.205.029,9.768,7.62,9.768,16.494s-2.65,15.7-9.768,15.642c-7.146,0-9.871-7.194-9.871-16.068S102.253,91.439,108.933,91.439Zm0-1.867c7.24,0,13.109,8.03,13.109,17.936s-5.869,17.935-13.109,17.935-13.109-8.03-13.109-17.935S101.693,89.572,108.933,89.572ZM73.6,107.566l-.055,16.149s4.534.128,6.043.047a7.526,7.526,0,0,0,4.783-1.908c5.279-4.691,1.745-14.233-4.967-14.294Zm0-16.55v14.8l4.991.006a4.527,4.527,0,0,0,1.977-.306c5.656-2.015,7.6-9.281,2.768-13.122A7.26,7.26,0,0,0,79.041,91ZM70.51,89.485v35.929h5.05c1.1.011,1.461.011,3.714-.031a16.171,16.171,0,0,0,3.05-.436,9.039,9.039,0,0,0,4.857-2.859,9.417,9.417,0,0,0,2.338-8.48c-.728-2.8-2.967-5.552-7.052-7.092a8.967,8.967,0,0,0,6.085-7.934,8.607,8.607,0,0,0-4.793-8.247,12.126,12.126,0,0,0-1.817-.6,10.737,10.737,0,0,0-2.056-.251c-1.716,0-2.51.006-4.226.006Z"/><path class="a" d="M494.156,170.022a9.5,9.5,0,0,0-2.716-3.23,29.315,29.315,0,0,0-3.624-2.173c-.738-.406-1.507-.792-2.257-1.17-1.606-.844-3.281-1.721-4.577-2.548a7.314,7.314,0,0,1-2.593-2.607,5.484,5.484,0,0,1-.536-3.6,6.685,6.685,0,0,1,5.04-5.185c2.718-.767,6.229-.32,9.8,2.1.015-.472.04-.95.063-1.31s.041-.6.041-.6a18.443,18.443,0,0,0-4.983-1.793,10.993,10.993,0,0,0-9.508,1.988,9.041,9.041,0,0,0-2.954,4.51,7.146,7.146,0,0,0,.586,5.323,8.629,8.629,0,0,0,2.365,2.853c.244.2.494.407.759.6a40.056,40.056,0,0,0,4.449,2.652c1.822.959,3.617,1.958,5.092,2.9a8.056,8.056,0,0,1,2.854,2.87,6.035,6.035,0,0,1,.59,3.959,7.361,7.361,0,0,1-5.548,5.707c-2.991.844-6.857.352-10.787-2.315-.016.519-.044,1.045-.069,1.442s-.046.663-.046.663a20.3,20.3,0,0,0,5.485,1.974c3.158.64,7.145.586,10.466-2.189a9.95,9.95,0,0,0,3.252-4.965A7.87,7.87,0,0,0,494.156,170.022Z" transform="translate(-301.39 -58.008)"/></g></svg>