<svg xmlns="http://www.w3.org/2000/svg" width="109.574" height="56.491" viewBox="0 0 109.574 56.491"><defs><style>.a{fill:#3e3e3e;}</style></defs><g transform="translate(-2.893 -13.118)"><g transform="translate(2.893 13.118)"><path class="a" d="M27.292,47.919v1.565a1.319,1.319,0,0,1-1.267,1.28H24.559a.815.815,0,0,1-.82-.768c-.013-.138,0-.28,0-.421V14.654a1.4,1.4,0,0,1,.467-1.165,1.015,1.015,0,0,1,.8-.327,5.863,5.863,0,0,0,.906,0,1.193,1.193,0,0,1,.986.392,1.321,1.321,0,0,1,.408,1.051c-.013,3.733,0,7.45,0,11.175v2.139c.234-.195.387-.288.506-.408a10.844,10.844,0,0,1,9.534-3.079,10.532,10.532,0,0,1,9.012,7.26,16.735,16.735,0,0,1-.018,12.091,10.692,10.692,0,0,1-6.983,6.837,11.612,11.612,0,0,1-11.5-2.362l-.369-.319A1.024,1.024,0,0,0,27.292,47.919Zm0-8.688v2.406a1.736,1.736,0,0,0,.286.984,11.231,11.231,0,0,0,4.132,3.964,7.743,7.743,0,0,0,10.6-2.77c.067-.117.132-.236.195-.356a9.687,9.687,0,0,0,.774-1.939,14.591,14.591,0,0,0,.088-7.25,8.977,8.977,0,0,0-1.155-2.757,7.541,7.541,0,0,0-7.694-3.6A6.82,6.82,0,0,0,29,31.594a12.873,12.873,0,0,0-.966,2.16A15.673,15.673,0,0,0,27.292,39.231Z" transform="translate(30.362 -13.056)"/><path class="a" d="M56.018,21.173V19.281A1.29,1.29,0,0,1,57.275,18h.836a1.3,1.3,0,0,1,1.433,1.459q0,11.521.018,23.048a1.618,1.618,0,0,1-.7,1.347A.822.822,0,0,1,58.42,44c-.3.023-.613-.034-.906.018a1.346,1.346,0,0,1-1.339-.688,1.055,1.055,0,0,1-.156-.579c-.021-.524,0-1.051,0-1.742l-.688.6a11.719,11.719,0,0,1-13.306,1.428,11.18,11.18,0,0,1-5.184-6.349,17.016,17.016,0,0,1,.143-11.829,10.422,10.422,0,0,1,7.642-6.923,11.064,11.064,0,0,1,11.053,2.985C55.738,20.963,55.816,21.018,56.018,21.173Zm0,11.507h.06c-.083-1.088-.122-2.183-.262-3.263A11.272,11.272,0,0,0,53.6,23.842a6.454,6.454,0,0,0-3.359-2.383,7.775,7.775,0,0,0-9.693,4.332,7.155,7.155,0,0,0-.361.906,14.058,14.058,0,0,0,.039,8.719,7.677,7.677,0,0,0,9.545,5.176c.13-.039.26-.08.389-.127a10.5,10.5,0,0,0,5.477-4.452,2.113,2.113,0,0,0,.387-1.306C56,34.022,56.018,33.355,56.018,32.68Z" transform="translate(49.698 -6.127)"/><path class="a" d="M15.648,16.821V49.375a1.265,1.265,0,0,1-.374,1.062,1.2,1.2,0,0,1-.981.4,2.721,2.721,0,0,0-.768,0,1.36,1.36,0,0,1-1.345-.68.938.938,0,0,1-.153-.444,4,4,0,0,1,0-.558V16.821H4.276A1.3,1.3,0,0,1,2.9,15.594a1.507,1.507,0,0,1,0-.153,4.5,4.5,0,0,0,0-.836,1.329,1.329,0,0,1,.7-1.337,1.025,1.025,0,0,1,.584-.138c1.049-.01,2.1,0,3.143,0H23.4a1.308,1.308,0,0,1,1.472,1.121,1.348,1.348,0,0,1,0,.369c0,.28-.023.563,0,.838a1.14,1.14,0,0,1-.4.979,1.264,1.264,0,0,1-.986.4c-2.334-.016-4.665,0-7,0Z" transform="translate(-2.893 -13.118)"/><path class="a" d="M32.655,26.356v6.149A14.427,14.427,0,0,1,31.508,38.5a8.782,8.782,0,0,1-8.675,5.635,8.664,8.664,0,0,1-8.395-5.506,10.731,10.731,0,0,1-.787-2.453,21.5,21.5,0,0,1-.4-3.6c-.044-4.493-.018-8.989-.016-13.482a1.3,1.3,0,0,1,1.223-1.381,1.407,1.407,0,0,1,.148,0,3.627,3.627,0,0,0,.628,0,1.292,1.292,0,0,1,1.332.7,1.308,1.308,0,0,1,.14.722V33.6a9.157,9.157,0,0,0,.984,3.894,5.816,5.816,0,0,0,7.33,2.8,5.719,5.719,0,0,0,3.3-3.234,9.166,9.166,0,0,0,.8-3.935q0-6.95-.013-13.9A1.468,1.468,0,0,1,29.629,18a.975.975,0,0,1,.745-.286,5.025,5.025,0,0,0,.838,0,1.241,1.241,0,0,1,1.1.452,1.13,1.13,0,0,1,.332.867C32.653,21.463,32.658,23.911,32.655,26.356Z" transform="translate(13.6 -5.812)"/><path class="a" d="M7.376,31.391c.14-.091.234-.145.324-.213a3.555,3.555,0,0,1,5,.446,3.6,3.6,0,0,1,.74,1.5,5.5,5.5,0,0,1-.018,2.964,3.6,3.6,0,0,1-4.345,2.637,3.649,3.649,0,0,1-1.217-.555L7.4,37.854c-.021.247-.047.418-.049.589v3c0,.828-.143.932-1.088.737,0-.208-.031-.433-.031-.659V30.778c.034-.376.161-.5.517-.514a.492.492,0,0,1,.587.374.511.511,0,0,1,.01.14C7.361,30.96,7.363,31.144,7.376,31.391ZM7.35,35.1c-.221,1.111.537,1.737,1.433,2.276a1.137,1.137,0,0,0,.125.065,2.363,2.363,0,0,0,3.125-1.018,3.883,3.883,0,0,0,0-3.686,2.389,2.389,0,0,0-4.236.1A4.707,4.707,0,0,0,7.348,35.1Z" transform="translate(2.43 14.223)"/><path class="a" d="M49.566,35h-6a2.417,2.417,0,0,0,1.892,2.523,3.4,3.4,0,0,0,2.482-.465c.784-.488.779-.5,1.363.3-.062.086-.125.184-.2.27a4.245,4.245,0,0,1-5.8-.062,4.854,4.854,0,0,1,.353-6.414,3.647,3.647,0,0,1,4.633-.031A4.056,4.056,0,0,1,49.566,35Zm-1.15-1.178a2.461,2.461,0,0,0-2.528-2.391l-.1.005a2.369,2.369,0,0,0-2.2,2.385Z" transform="translate(59.92 14.299)"/><path class="a" d="M21.57,36.739a1.746,1.746,0,0,0,1.6.631c.395-.021.789,0,1.184-.026a.97.97,0,0,0,.971-.659,1.05,1.05,0,0,0-.467-1.217,4.975,4.975,0,0,0-1-.467c-.545-.2-1.119-.324-1.653-.548a2.142,2.142,0,0,1-1.386-2.578A1.729,1.729,0,0,1,22.23,30.5,6.6,6.6,0,0,1,25,30.483a2.866,2.866,0,0,1,1.046.509c.387.286.356.54-.029.833-.13.1-.273.171-.441.278-.875-.812-1.942-.576-2.972-.522a.718.718,0,0,0-.688.6.8.8,0,0,0,.262.885,3.571,3.571,0,0,0,.851.465c.5.187,1.033.293,1.524.5a4.665,4.665,0,0,1,1.207.672,2.081,2.081,0,0,1,.667,2.152,1.883,1.883,0,0,1-1.482,1.5,6.106,6.106,0,0,1-2.967.062,2.431,2.431,0,0,1-.909-.488c-.423-.337-.4-.566.021-.883C21.233,36.944,21.376,36.861,21.57,36.739Z" transform="translate(25.591 14.367)"/><path class="a" d="M33.356,32.053a3.572,3.572,0,0,0-3.146-.446c-.589.1-.724.989-.231,1.412a2.768,2.768,0,0,0,.849.467c.465.182.984.286,1.459.467a5.267,5.267,0,0,1,1.165.6,2.119,2.119,0,0,1,.766,2.251,1.839,1.839,0,0,1-1.477,1.506,6.132,6.132,0,0,1-2.9.075,2.539,2.539,0,0,1-.971-.514c-.415-.33-.384-.574.036-.883.13-.093.273-.166.415-.254a3.38,3.38,0,0,0,3.185.485.933.933,0,0,0,.337-1.633,2.878,2.878,0,0,0-.958-.545c-.561-.218-1.165-.353-1.721-.563a2.2,2.2,0,0,1-1.589-1.866,1.8,1.8,0,0,1,1.365-2.147c.065-.013.132-.023.2-.031a12.415,12.415,0,0,1,2.635,0,2.237,2.237,0,0,1,1.049.491c.423.317.387.568-.047.877A4.286,4.286,0,0,1,33.356,32.053Z" transform="translate(38.019 14.399)"/><path class="a" d="M15.446,33.209V30.974c0-.467.153-.618.558-.615s.553.161.555.626c0,1.4-.018,2.8.016,4.2a3.741,3.741,0,0,0,.262,1.28,1.653,1.653,0,0,0,1.646,1.075,1.741,1.741,0,0,0,1.633-1.01,3.405,3.405,0,0,0,.309-1.633V31.265a3.844,3.844,0,0,1,.013-.488c.036-.311.231-.415.537-.418a.488.488,0,0,1,.558.4v0a.633.633,0,0,1,0,.14c-.023,1.633-.031,3.265-.083,4.883a3.2,3.2,0,0,1-.283,1.072,2.773,2.773,0,0,1-2.726,1.807A2.738,2.738,0,0,1,15.76,36.8a6.9,6.9,0,0,1-.317-1.7C15.4,34.468,15.446,33.834,15.446,33.209Z" transform="translate(17.107 14.383)"/><path class="a" d="M38.5,37.32h3.634c.5,0,.633.158.623.623,0,.4-.125.545-.54.566s-.885,0-1.329,0H38.723c-.535,0-1.116.042-1.4-.553s.029-1.077.371-1.537l2.658-3.593.932-1.256a5.861,5.861,0,0,0-.6-.073H38.17c-.5,0-.662-.234-.592-.7a.438.438,0,0,1,.444-.433h.021c1.189,0,2.378-.039,3.559.031.851.049,1.189.729.831,1.508a3.639,3.639,0,0,1-.421.641q-1.511,2.052-3.029,4.1C38.839,36.813,38.715,37.006,38.5,37.32Z" transform="translate(51.871 14.386)"/><path class="a" d="M12.065,34.851V29.626c0-.55.171-.7.628-.677a.465.465,0,0,1,.491.441l0,.026V39.861a3.7,3.7,0,0,1,0,.415c-.044.337-.213.467-.566.467s-.514-.13-.553-.478c-.008-.164-.008-.324,0-.488Q12.064,37.325,12.065,34.851Z" transform="translate(11.738 12.138)"/><path class="a" d="M34.87,34.482V37.9c0,.5-.182.662-.61.641a.48.48,0,0,1-.524-.428.316.316,0,0,1,0-.086V31.051c0-.265.016-.517.3-.641a.562.562,0,0,1,.831.517c.026.581,0,1.165,0,1.742S34.87,33.872,34.87,34.482Z" transform="translate(46.317 14.363)"/><path class="a" d="M25.91,32.928c0-.992.384-1.381,1.332-1.347a1,1,0,0,1,1.111.883.673.673,0,0,1,.008.1,2.484,2.484,0,0,1,.018.62,1.245,1.245,0,1,1-2.489-.07,1.144,1.144,0,0,1,.021-.189Z" transform="translate(33.802 16.332)"/><path class="a" d="M34.37,29.316a.632.632,0,0,1,.677.579.644.644,0,0,1,0,.122c0,.488-.249.763-.7.748a.661.661,0,0,1-.662-.662l0-.075a.656.656,0,0,1,.6-.709C34.313,29.316,34.342,29.316,34.37,29.316Z" transform="translate(46.243 12.726)"/></g></g></svg>