<svg xmlns="http://www.w3.org/2000/svg" width="107.426" height="34.487" viewBox="0 0 107.426 34.487"><defs><style>.a{fill:#3e3e3e;}</style></defs><g transform="translate(-3.269 -8.257)"><path class="a" d="M19.8,42.663c-.275.015-.507.039-.739.039H4.3c-.451,0-.93.079-1.021-.535-.086-.572.387-.613.769-.739A8.627,8.627,0,0,0,8.183,38.3a28.589,28.589,0,0,0,4.489-9.695,104.851,104.851,0,0,0,3.087-16.095A2.885,2.885,0,0,0,13.5,9.6a4.88,4.88,0,0,0-.8-.136c-.477-.047-.941-.118-.911-.7s.537-.481.944-.481H31.574c.825,0,1.481.606,1.115,1.27-.86,1.555-.078,3,.125,4.466.215,1.627.587,3.238.915,4.852a4.593,4.593,0,0,0,.387.887,3.773,3.773,0,0,0,.9-.588c2.763-3.343,5.526-6.688,8.231-10.073a2.068,2.068,0,0,1,1.863-.837c5.674.036,11.351.019,17.025.017.52,0,1.111-.073,1.1.645-.011.589-.381.845-1.047.9a4.473,4.473,0,0,0-4.46,3.7q-2.856,12.79-5.692,25.587a1.921,1.921,0,0,0,1.385,2.1c.46.186,1.013.182,1.466.377.266.117.43.456.626.694-.232.142-.465.408-.7.411q-10.6.032-21.191,0c-.269,0-.535-.282-.8-.43.255-.266.458-.63.776-.782,1.031-.488,2.133-.849,3.148-1.362a1.6,1.6,0,0,0,.7-1q3.079-13.387,6.1-26.784c.024-.107.045-.215.122-.592-.494.215-.928.259-1.121.488q-3.928,4.643-7.78,9.34a.928.928,0,0,0-.108.89A6.731,6.731,0,0,0,35.987,24c.81.662.8,1.354-.147,1.856a29.409,29.409,0,0,0-8.777,7.623c-1.2,1.463-2.3,3.008-3.438,4.512-.185.243-.361.494-.683.939a10.82,10.82,0,0,1-.473-1.309q-1.367-6.556-2.7-13.106c-.625-3.089-1.2-6.187-1.83-9.279a2.7,2.7,0,0,0-.471-.764c-.274.255-.726.474-.792.771-.338,1.468-.593,2.954-.842,4.439-.671,3.985-1.371,7.968-1.958,11.965a13.039,13.039,0,0,0,.377,5.8,5.354,5.354,0,0,0,4.209,3.85A1.5,1.5,0,0,1,19.8,42.663Z" transform="translate(0 0)"/><path class="a" d="M105.416,8.3H124.43a3.381,3.381,0,0,1,.81.024.9.9,0,0,1,.537.37c.054.1-.1.374-.243.479a9.7,9.7,0,0,1-2.017,1.4,31.535,31.535,0,0,0-10.971,7.9c-.86.9-1.719,1.8-2.5,2.754a1.222,1.222,0,0,0-.234,1.023c1.776,5.051,3.549,10.1,5.431,15.123a5.916,5.916,0,0,0,4.726,4.083c.215.036.484.067.58.2a1.621,1.621,0,0,1,.312.808c0,.073-.415.249-.645.254-1.418.024-2.837.013-4.255.013H96.138a1.8,1.8,0,0,1-.713-.021c-.29-.146-.657-.37-.733-.625-.125-.42.225-.578.688-.669a14.006,14.006,0,0,0,2.847-.737,2.49,2.49,0,0,0,1.657-3.107,2.237,2.237,0,0,0-.081-.225c-1.1-3.058-2.282-6.091-3.508-9.106-.446-1.1-.758-1.115-1.609-.232a22.917,22.917,0,0,0-5.079,7.922,3.968,3.968,0,0,0,3.1,5.642.787.787,0,0,1,.511.6c-.025.214-.376.4-.625.543-.133.073-.354.015-.535.015H77.39c-.24,0-.535.064-.709-.039a1.043,1.043,0,0,1-.483-.616.68.68,0,0,1,.367-.557,28.154,28.154,0,0,0,9.561-6.749c3.008-3.008,5.815-6.183,8.678-9.308a.992.992,0,0,0,.142-.885c-1.6-4.108-3.19-8.221-4.882-12.3a4.561,4.561,0,0,0-3.9-2.634,1.91,1.91,0,0,1-.773-.165.838.838,0,0,1-.382-.645c.036-.2.35-.4.591-.5a2.065,2.065,0,0,1,.715-.02h19.1Zm3.438,11.321a6.424,6.424,0,0,0,1.074-.584,10.87,10.87,0,0,0,3.737-6.4,1.842,1.842,0,0,0-.86-1.9,5.653,5.653,0,0,0-5.311-.27,1.934,1.934,0,0,0-1.018,2.538l.006.014c.275.763.558,1.523.833,2.286.492,1.4.986,2.776,1.54,4.314Z" transform="translate(-15.094 -0.006)"/></g></svg>