<svg xmlns="http://www.w3.org/2000/svg" width="173" height="32.547" viewBox="0 0 173 32.547"><defs><style>.a{fill:#3e3e3e;fill-rule:evenodd;}</style></defs><g transform="translate(-10.154 -5.394)"><path class="a" d="M141.6,5.395V37.939H134.5V5.395Zm-53.64,0H78.793L69.144,16.138l-.291.33-.294-.33L58.91,5.394H49.738L64.173,21.749,49.829,37.941h9.413l9.611-10.89,9.608,10.89h9.414L73.531,21.749,87.965,5.394Zm4.838,0h35.614v6.789H113.877V37.939h-6.534V12.184H92.8V5.395ZM10.154,18.281l.126,19.66,34.561-.13V30H18.227V25.13h19.3V18.282Zm0-12.886H44.336v7.94H10.154V5.395Zm138.3,32.5h7.548V16.653L173.83,36.188c2.754,3.019,9.191,2.39,9.3-3.87l.026-26.877h-7.547V26.682L157.783,7.148c-2.754-3.02-9.19-2.39-9.3,3.869Z"/></g></svg>