<svg xmlns="http://www.w3.org/2000/svg" width="202" height="35.227" viewBox="0 0 202 35.227"><defs><style>.a{fill:#3e3e3e;}</style></defs><g transform="translate(-12.434 -9.57)"><path class="a" d="M280.36,26.185c3.839,1.016,5.177,3.5,5.547,6.786a14.137,14.137,0,0,1-.533,5.78,8.457,8.457,0,0,1-8.121,6.064c-3.133.1-6.273.047-9.409.023a1.826,1.826,0,0,1-2.062-1.941c-.022-.264-.013-.532-.013-.8q0-15.236,0-30.471c0-1.829.009-1.834,1.871-1.835,3,0,6-.013,9.006,0,5.111.029,7.866,2.567,8.408,7.6a12.136,12.136,0,0,1-.158,3.96C284.386,23.668,282.784,25.078,280.36,26.185ZM269.966,34.38c0,1.593-.01,3.187,0,4.78.009,1.066.432,1.828,1.637,1.834,1.967.01,3.939.062,5.9-.054a3.877,3.877,0,0,0,3.69-2.978,10.731,10.731,0,0,0,.277-5.12c-.541-2.923-1.89-4-4.888-4.309-1.8-.184-3.57.027-5.351-.034-1.022-.035-1.316.428-1.285,1.367C270,31.369,269.963,32.875,269.966,34.38Zm0-15.655h.005c0,1.375-.021,2.75.006,4.124a1.673,1.673,0,0,0,1.93,1.857c1.164-.026,2.332.044,3.494-.017,3.019-.156,4.537-1.252,5.031-3.67a11,11,0,0,0,.029-4.1,3.469,3.469,0,0,0-2.834-3.007c-2.263-.509-4.549-.245-6.827-.271-.737-.009-.84.508-.836,1.1C269.971,16.064,269.965,17.395,269.965,18.725Z" transform="translate(-145.751 -0.124)"/><path class="a" d="M111.034,26.859c0-5.144.032-10.289-.024-15.433-.013-1.246.333-1.736,1.66-1.692,2.64.088,5.286.022,7.93.027,7.349.013,11.346,3.413,12.317,10.623a42.821,42.821,0,0,1-.742,15.585,14.354,14.354,0,0,1-1.663,4.049,9.322,9.322,0,0,1-8.307,4.778c-2.911.068-5.824.029-8.736.02-1.818-.006-2.424-.587-2.43-2.39C111.024,37.237,111.034,32.048,111.034,26.859Zm4.2.457c0,3.859-.011,7.719.005,11.578.007,1.608.469,2.062,2.078,2.081s3.227.008,4.84-.007a5.648,5.648,0,0,0,4.753-2.569,10.129,10.129,0,0,0,1.589-4.2,43.491,43.491,0,0,0,.187-11,17.274,17.274,0,0,0-1.236-5.829,5.692,5.692,0,0,0-5.491-3.763c-1.479-.011-2.958-.027-4.437-.016-1.873.014-2.283.42-2.287,2.288C115.221,19.687,115.228,23.5,115.229,27.316Z" transform="translate(-56.719 -0.092)"/><path class="a" d="M441.829,18.34q-2.616,8.79-5.231,17.58c-.759,2.55-1.548,5.093-2.267,7.654a1.5,1.5,0,0,1-1.678,1.3c-3.391.016-3.39.054-2.468-3.123q3.742-12.906,7.488-25.81a18.609,18.609,0,0,1,1.011-2.883,5.553,5.553,0,0,1,4.306-3.244,1.5,1.5,0,0,1,1.937,1.269c1.761,6.184,3.584,12.351,5.386,18.524q1.994,6.833,3.986,13.666c.435,1.5.373,1.587-1.209,1.573-3.611-.031-2.827.444-3.79-2.711-2.318-7.593-4.594-15.2-6.888-22.8-.1-.336-.219-.667-.329-1Z" transform="translate(-240.096 -0.114)"/><path class="a" d="M25.018,36.266l4.21-14c1.124-3.738,2.276-7.468,3.355-11.219.284-.988.789-1.414,1.811-1.293a10.507,10.507,0,0,0,1.209.007c2.1,0,2.086,0,1.52,1.934q-4.555,15.582-9.1,31.168c-.606,2.082-1.345,2.442-3.383,1.615-2.16-.877-3.136-2.664-3.74-4.744Q17.676,28.618,14.442,17.5c-.607-2.087-1.2-4.18-1.851-6.252-.332-1.05-.209-1.544,1.075-1.506,3.852.114,2.969-.514,4.023,2.955,2.2,7.258,4.336,14.537,6.5,21.807.175.589.363,1.173.545,1.76Z" transform="translate(0 -0.094)"/><path class="a" d="M183.264,18.188c-.964,3.221-1.916,6.393-2.862,9.566-1.546,5.188-3.119,10.369-4.607,15.573a1.767,1.767,0,0,1-2.074,1.5c-3.06-.067-3.063-.012-2.234-2.858q3.963-13.611,7.923-27.224c.668-2.3,1.854-4.133,4.321-4.845,1.68-.485,2.165-.224,2.637,1.393q4.648,15.907,9.29,31.817c.477,1.634.434,1.71-1.345,1.683-3.172-.048-2.64.54-3.6-2.629q-3.489-11.532-6.951-23.071A1.343,1.343,0,0,0,183.264,18.188Z" transform="translate(-91.258 -0.061)"/><path class="a" d="M325.942,26.711c0-5.1.03-10.2-.022-15.3-.013-1.254.372-1.7,1.683-1.684,4.927.064,9.856.08,14.781-.007,1.52-.027,1.666.7,1.637,1.865-.046,1.837-.1,1.973-1.672,1.98-3.315.016-6.629,0-9.944.011-1.824.008-2.113.3-2.124,2.1-.015,2.572.023,5.144-.016,7.715-.015.982.371,1.321,1.351,1.31,3.315-.038,6.63-.023,9.945-.008,1.456.006,1.82.617,1.147,1.911-.814,1.564-2.313,1.87-3.875,1.908-2.328.056-4.659.062-6.987,0-1.137-.03-1.615.3-1.589,1.5.064,2.97.01,5.941.026,8.912.009,1.736.307,2.037,2.031,2.046,3.359.016,6.719,0,10.079.01,1.623.006,1.667.074,1.665,1.939s-.02,1.889-1.69,1.891q-6.921.01-13.842,0c-1.971,0-2.573-.584-2.579-2.536C325.933,37.086,325.943,31.9,325.942,26.711Z" transform="translate(-180.342 -0.086)"/><path class="a" d="M381.61,26.857q0-7.654,0-15.307c0-.863-.221-1.806,1.247-1.8,2.083.006,2.825.394,2.932,1.866.029.4.012.8.012,1.2,0,8.829.029,17.658-.03,26.487-.009,1.366.416,1.751,1.76,1.721,3.629-.08,7.26-.032,10.891-.024.877,0,1.86-.2,1.864,1.227,0,1.607-.537,2.467-1.862,2.583-.623.054-1.254.023-1.881.023-4.169,0-8.337.007-12.505,0-1.816,0-2.419-.588-2.424-2.4C381.6,37.238,381.611,32.048,381.61,26.857Z" transform="translate(-212.677 -0.101)"/><path class="a" d="M86.428,27.2c0,5.318-.031,10.637.024,15.955.012,1.223-.389,1.613-1.614,1.592-2.6-.047-2.6.009-2.6-2.612q0-15.29.013-30.582c0-.618-.324-1.55.487-1.758a5.439,5.439,0,0,1,3.417.09c.468.194.269.886.27,1.358Q86.437,19.227,86.428,27.2Z" transform="translate(-39.794)"/><path class="a" d="M452.861,75.762a2.277,2.277,0,0,1-1.5-.661c-.831-.744-1.678-1.473-2.5-2.232-.478-.443-.4-.839.279-.849,2.455-.034,4.91-.023,7.366,0,.39,0,.836.234.391.647a18.552,18.552,0,0,1-3.471,2.921A2.617,2.617,0,0,1,452.861,75.762Z" transform="translate(-250.878 -35.976)"/><path class="a" d="M194.285,75.738a2.155,2.155,0,0,1-1.35-.575q-1.267-1.094-2.524-2.2c-.2-.174-.469-.35-.4-.645.073-.317.4-.326.661-.327,2.366-.007,4.731-.015,7.1.006.359,0,1.078.127.579.624a13.093,13.093,0,0,1-3.694,3.035A1.667,1.667,0,0,1,194.285,75.738Z" transform="translate(-102.108 -35.969)"/></g></svg>