<svg xmlns="http://www.w3.org/2000/svg" width="145" height="56.332" viewBox="0 0 145 56.332"><defs><style>.a{fill:#3e3e3e;}</style></defs><g transform="translate(-254.682 -411.82)"><g transform="translate(339.754 450.485)"><path class="a" d="M423.4,488.5h.726v7.148h.032a3.431,3.431,0,0,1,2.872-1.452,3.584,3.584,0,0,1,3.646,3.84A3.673,3.673,0,0,1,427,501.973a3.337,3.337,0,0,1-2.84-1.5h-.032v1.339H423.4Zm6.551,9.535a3.034,3.034,0,0,0-2.9-3.162,2.919,2.919,0,0,0-2.969,3.178,2.994,2.994,0,0,0,2.936,3.243A3.035,3.035,0,0,0,429.952,498.036Z" transform="translate(-423.401 -488.501)"/><path class="a" d="M438.634,500.116h.758l3.178,6.744,2.856-6.744h.742l-5,11.81h-.742l1.791-4.227Z" transform="translate(-430.953 -494.259)"/><path class="a" d="M471.117,492.615a2.777,2.777,0,0,0-2.469-1.435,2.286,2.286,0,0,0-2.291,2.323c0,1.274,1.211,1.807,2.194,2.275l2.323,1.21a2.658,2.658,0,0,1,1.388,2.42,3.793,3.793,0,0,1-7.389.92l.678-.307a3.094,3.094,0,0,0,2.936,2.194,2.959,2.959,0,0,0,3-2.872c0-1.371-1.4-1.952-2.453-2.468l-2.194-1.162a2.438,2.438,0,0,1-1.258-2.178,2.974,2.974,0,0,1,3.114-3.082,3.409,3.409,0,0,1,2.969,1.71Z" transform="translate(-443.962 -489.469)"/><path class="a" d="M489.2,507.412h-.726v-1.339h-.032a3.336,3.336,0,0,1-2.839,1.5,3.673,3.673,0,0,1-3.679-3.937,3.576,3.576,0,0,1,3.647-3.84,3.43,3.43,0,0,1,2.872,1.452h.032v-1.291h.726Zm-6.55-3.775a3.045,3.045,0,0,0,2.936,3.259c1.9,0,2.937-1.549,2.937-3.34a2.923,2.923,0,0,0-2.985-3.081A3.041,3.041,0,0,0,482.654,503.637Z" transform="translate(-452.417 -494.101)"/><path class="a" d="M500.574,503.75a2.908,2.908,0,0,0,2.985,3.146,2.981,2.981,0,0,0,2.63-1.694l.613.355a4.358,4.358,0,1,1,.242-1.807Zm5.744-.678a2.887,2.887,0,0,0-5.744,0Z" transform="translate(-461.302 -494.101)"/><path class="a" d="M518.334,500.926h.032a1.694,1.694,0,0,1,1.614-1.129,1.9,1.9,0,0,1,.79.177l-.387.646a1,1,0,0,0-.516-.145c-1.63,0-1.533,2.033-1.533,3.13v3.807h-.726v-7.454h.726Z" transform="translate(-470.106 -494.101)"/><path class="a" d="M532.341,507.412h-.726v-1.339h-.032a3.337,3.337,0,0,1-2.84,1.5,3.673,3.673,0,0,1-3.679-3.937,3.576,3.576,0,0,1,3.647-3.84,3.431,3.431,0,0,1,2.872,1.452h.032v-1.291h.726Zm-6.55-3.775a3.045,3.045,0,0,0,2.936,3.259c1.9,0,2.937-1.549,2.937-3.34a2.923,2.923,0,0,0-2.985-3.081A3.041,3.041,0,0,0,525.791,503.637Z" transform="translate(-473.803 -494.101)"/></g><path class="a" d="M458.318,445.014c-.378-1.345-2.311-1.6-3.866-1.135s-3.361,1.765-7.311,1.765-4.413-1.723-4.413-1.723v-12.1h10.127a2.4,2.4,0,0,0,0-4.79H442.729v-5.567a2.4,2.4,0,0,0-4.79,0v5.567h-2.6a2.4,2.4,0,0,0,0,4.79h2.6v7.165s-.084,4.768,0,5.357a3.041,3.041,0,0,0,.21.841c1.093,6.345,10.252,5.084,11.681,5.051C457.184,448.771,458.7,446.359,458.318,445.014Z" transform="translate(-88.375 -3.593)"/><path class="a" d="M396.485,445.014c-.378-1.345-2.311-1.6-3.866-1.135s-3.362,1.765-7.311,1.765-4.412-1.723-4.412-1.723v-12.1h10.126a2.4,2.4,0,0,0,0-4.79H380.9v-5.567a2.4,2.4,0,0,0-4.79,0v5.567H373.5a2.4,2.4,0,0,0,0,4.79h2.605v7.165s-.084,4.768,0,5.357a3.017,3.017,0,0,0,.21.841c1.092,6.345,10.252,5.084,11.681,5.051C395.35,448.771,396.863,446.359,396.485,445.014Z" transform="translate(-57.72 -3.593)"/><path class="a" d="M336.511,452.341h-6.555V434.609H319.872a2.416,2.416,0,0,0,0,4.832H325.1v12.9h-7.249a2.416,2.416,0,0,0,0,4.832h18.656a2.416,2.416,0,1,0,0-4.832Z" transform="translate(-30.122 -11.298)"/><rect class="a" width="5.861" height="5.168" transform="translate(293.281 413.689)"/><path class="a" d="M279.813,450.656c-1.975-2.437-4.16.715-6.051,1.261s-15.268,3.447-14.076-6.618,11.69-6.815,13.824-4.77a20.3,20.3,0,0,1,1.532,1.845,2.074,2.074,0,0,0,4.141-.185v-5.84a2.079,2.079,0,0,0-3.8-1.172,18,18,0,0,0-9.481-1.664c-5.631.63-11.387,5.631-11.219,12.1s3.782,12.018,13.4,11.849S281.788,453.093,279.813,450.656Z" transform="translate(0 -10.706)"/><path class="a" d="M514.91,419.832a1.2,1.2,0,0,1-1.687.154l-7.266-6.048a1.2,1.2,0,0,1-.155-1.687h0a1.2,1.2,0,0,1,1.687-.154l7.266,6.048a1.2,1.2,0,0,1,.155,1.687Z" transform="translate(-124.362 0)"/><path class="a" d="M512.236,452.49c0-3.813.032-12.732.032-12.732s-.315-7.437-11.692-6.272c0,0-5.357.945-6.807,2.08a2.214,2.214,0,0,0-.63,3.088c.378.693,2.332,1.008,5.736.315s9.832-1.324,8.761,3.53c0,0-12.227-3.4-17.207,5.925-.252,1.2-.882,6.87,5.988,8.7a20.614,20.614,0,0,0,11.339-1.513v1.166h6.152a2.97,2.97,0,0,0,2.584-3.088S516.112,451.671,512.236,452.49Zm-4.664-2.584s-4.16,2.552-7.595,2.552-5.988-1.008-4.57-3.341c.5-.851,2.7-2.71,7.983-2.08.935.032,4.181.347,4.181.347Z" transform="translate(-116.809 -10.681)"/></g></svg>