<svg xmlns="http://www.w3.org/2000/svg" width="186.997" height="57.479" viewBox="0 0 186.997 57.479"><defs><style>.a{fill:#3e3e3e;}.b{fill:none;stroke:#3e3e3e;stroke-miterlimit:10;stroke-width:2px;}</style></defs><g transform="translate(-1118.67 -3971.06)"><path class="a" d="M22.017,3.724h4.445L37.983,34.2H33.175l-2.994-8.073H18.116L15.168,34.2H10.5ZM19.568,22.23h9.208L24.149,9.711Z" transform="translate(1108.174 3967.336)"/><path class="a" d="M80.631,4.23h8.89c7.8,0,10.976,4.037,10.976,8.618,0,4.127-2.767,6.985-5.806,8.391l8.89,13.244H98.048L89.974,22.328H85.3V34.483H80.631Zm8.8,14.2c3.4,0,6.123-1.9,6.123-5.261,0-2.722-1.769-5.034-6.8-5.034H85.3v10.3Z" transform="translate(1069.47 3967.057)"/><path class="a" d="M141.923,8.131H131.536V4.23h25.491v3.9H146.549V34.483h-4.626Z" transform="translate(1041.378 3967.057)"/><path class="a" d="M197.9,4.23h6.713l8.3,23.268L221.306,4.23h6.667l1.089,30.253h-4.536L223.62,9.718,214.5,34.483h-3.266L202.12,9.537l-.771,24.946h-4.536Z" transform="translate(1005.354 3967.057)"/><path class="a" d="M287.981,3.724h4.445L303.947,34.2h-4.808l-2.994-8.073H284.08L281.132,34.2H276.46ZM285.532,22.23h9.208L290.113,9.711Z" transform="translate(961.4 3967.336)"/><path class="a" d="M346.6,4.23h4.672V34.483H346.6Z" transform="translate(922.696 3967.057)"/><path class="a" d="M377.446,3.724h4.445L393.412,34.2H388.6l-2.994-8.073H373.545L370.6,34.2h-4.672ZM375,22.23H384.2L379.578,9.711Z" transform="translate(912.028 3967.336)"/><path class="a" d="M11.312,117.46a3.277,3.277,0,0,0,1.745.6c.769,0,1.41-.355,1.41-1.045,0-1.617-3.195-1.508-3.195-3.53,0-.937.749-1.656,2.091-1.656a5.214,5.214,0,0,1,1.637.3l-.207.621a3.917,3.917,0,0,0-1.469-.335c-.8,0-1.4.335-1.4,1,0,1.656,3.195,1.469,3.195,3.56,0,1.124-.947,1.677-2.11,1.677a3.344,3.344,0,0,1-1.863-.553Z" transform="translate(1107.817 3907.677)"/><path class="a" d="M23.376,112.093h3.776v.543H24.027v2.4H26.5v.542H24.027v2.554h3.086v.542H23.376Z" transform="translate(1101.067 3907.532)"/><path class="a" d="M34.969,112.093h.64v4.073a1.844,1.844,0,0,0,1.992,2.061,1.816,1.816,0,0,0,1.982-1.992v-4.142h.64v4.1a2.447,2.447,0,0,1-2.633,2.593,2.309,2.309,0,0,1-2.623-2.455Z" transform="translate(1094.669 3907.532)"/><path class="a" d="M56.182,112.093h.927l2.13,5.739,2.16-5.739h.936l.237,6.577h-.631l-.207-5.759-2.219,5.759h-.532l-2.219-5.828-.178,5.828h-.631Z" transform="translate(1083.088 3907.532)"/><path class="a" d="M74.964,112.093H78.74v.543H75.615v2.4h2.474v.542H75.615v2.554H78.7v.542H74.964Z" transform="translate(1072.597 3907.532)"/><path class="a" d="M86.755,112.093h.651v6.035H90.62v.542H86.755Z" transform="translate(1066.09 3907.532)"/><path class="a" d="M97.908,112.093h.651v2.948h4.072v-2.948h.651v6.577h-.651v-3.087H98.559v3.087h-.651Z" transform="translate(1059.936 3907.532)"/><path class="a" d="M116.717,111.83a3.2,3.2,0,0,1,3.323,3.283,3.438,3.438,0,0,1-3.411,3.53,3.407,3.407,0,0,1,.089-6.814Zm-.059,6.251a2.762,2.762,0,0,0,2.672-2.889,2.675,2.675,0,1,0-5.344-.01A2.775,2.775,0,0,0,116.658,118.081Z" transform="translate(1051.449 3907.677)"/><path class="a" d="M131.743,112.093h1.568c1.7,0,2.317.858,2.317,1.736a2.114,2.114,0,0,1-1.44,1.854l2.041,2.988h-.769l-1.972-2.869h-1.095v2.869h-.651Zm1.794,3.155a1.392,1.392,0,0,0,1.381-1.341c0-.641-.454-1.272-1.736-1.272h-.789v2.613Z" transform="translate(1041.263 3907.532)"/><path class="a" d="M149.673,112.093h3.776v.543h-3.126v2.4H152.8v.542h-2.475v2.554h3.086v.542h-3.737Z" transform="translate(1031.369 3907.532)"/><path class="a" d="M160.488,117.46a3.279,3.279,0,0,0,1.746.6c.769,0,1.41-.355,1.41-1.045,0-1.617-3.195-1.508-3.195-3.53,0-.937.749-1.656,2.091-1.656a5.215,5.215,0,0,1,1.637.3l-.207.621a3.917,3.917,0,0,0-1.469-.335c-.8,0-1.4.335-1.4,1,0,1.656,3.194,1.469,3.194,3.56,0,1.124-.946,1.677-2.11,1.677a3.346,3.346,0,0,1-1.864-.553Z" transform="translate(1025.493 3907.677)"/><path class="a" d="M173.046,112.636H170.66v-.543h5.472v.543h-2.446v6.035h-.64Z" transform="translate(1019.787 3907.532)"/><path class="a" d="M185.443,112.093h.651v6.577h-.651Z" transform="translate(1011.629 3907.532)"/><path class="a" d="M191.361,112.093h.651v6.035h3.215v.542h-3.865Z" transform="translate(1008.363 3907.532)"/><path class="a" d="M204.3,111.83a3.2,3.2,0,0,1,3.323,3.283,3.438,3.438,0,0,1-3.412,3.53,3.407,3.407,0,0,1,.089-6.814Zm-.059,6.251a2.763,2.763,0,0,0,2.672-2.889,2.675,2.675,0,1,0-5.345-.01A2.775,2.775,0,0,0,204.237,118.081Z" transform="translate(1003.118 3907.677)"/><path class="a" d="M218.589,124.657a.533.533,0,0,1,0,1.065.533.533,0,1,1,0-1.065Z" transform="translate(993.636 3900.598)"/><path class="a" d="M229.222,112.093h.64l4.063,5.621v-5.621h.631v6.577h-.641l-4.062-5.532v5.532h-.631Z" transform="translate(987.469 3907.532)"/><path class="a" d="M247.943,111.83a3.2,3.2,0,0,1,3.323,3.283,3.438,3.438,0,0,1-3.412,3.53,3.407,3.407,0,0,1,.089-6.814Zm-.06,6.251a2.762,2.762,0,0,0,2.672-2.889,2.675,2.675,0,1,0-5.345-.01A2.775,2.775,0,0,0,247.884,118.081Z" transform="translate(979.031 3907.677)"/><path class="a" d="M261.993,117.46a3.279,3.279,0,0,0,1.746.6c.769,0,1.41-.355,1.41-1.045,0-1.617-3.195-1.508-3.195-3.53,0-.937.749-1.656,2.091-1.656a5.218,5.218,0,0,1,1.637.3l-.207.621a3.918,3.918,0,0,0-1.469-.335c-.8,0-1.4.335-1.4,1,0,1.656,3.195,1.469,3.195,3.56,0,1.124-.946,1.677-2.11,1.677a3.346,3.346,0,0,1-1.864-.553Z" transform="translate(969.477 3907.677)"/><path class="a" d="M273.081,117.46a3.275,3.275,0,0,0,1.745.6c.769,0,1.41-.355,1.41-1.045,0-1.617-3.194-1.508-3.194-3.53,0-.937.749-1.656,2.09-1.656a5.218,5.218,0,0,1,1.637.3l-.207.621a3.919,3.919,0,0,0-1.47-.335c-.8,0-1.4.335-1.4,1,0,1.656,3.195,1.469,3.195,3.56,0,1.124-.946,1.677-2.11,1.677a3.344,3.344,0,0,1-1.863-.553Z" transform="translate(963.358 3907.677)"/><path class="a" d="M285.8,111.983h.621l2.544,6.627h-.691l-.818-2.16h-2.721l-.818,2.16h-.661Zm-.858,3.915h2.307l-1.154-3.037Z" transform="translate(957.652 3907.593)"/><path class="a" d="M303.777,112.093h.651v6.577h-.651Z" transform="translate(946.325 3907.532)"/><path class="a" d="M309.7,112.093h.641l4.062,5.621v-5.621h.631v6.577h-.641l-4.062-5.532v5.532H309.7Z" transform="translate(943.059 3907.532)"/><path class="a" d="M325.086,117.46a3.278,3.278,0,0,0,1.746.6c.769,0,1.41-.355,1.41-1.045,0-1.617-3.195-1.508-3.195-3.53,0-.937.749-1.656,2.091-1.656a5.214,5.214,0,0,1,1.637.3l-.207.621a3.918,3.918,0,0,0-1.469-.335c-.8,0-1.4.335-1.4,1,0,1.656,3.195,1.469,3.195,3.56,0,1.124-.947,1.677-2.11,1.677a3.344,3.344,0,0,1-1.863-.553Z" transform="translate(934.658 3907.677)"/><path class="a" d="M337.15,112.093h1.765c1.7,0,2.317.878,2.317,1.884a2.044,2.044,0,0,1-2.317,2.061H337.8v2.633h-.651Zm1.637,3.4c1.193,0,1.745-.543,1.745-1.45,0-.779-.463-1.41-1.745-1.41H337.8v2.86Z" transform="translate(927.908 3907.532)"/><path class="a" d="M349.316,112.093h.651v6.577h-.651Z" transform="translate(921.194 3907.532)"/><path class="a" d="M355.233,112.093H356.8c1.7,0,2.317.858,2.317,1.736a2.113,2.113,0,0,1-1.44,1.854l2.041,2.988h-.769l-1.972-2.869h-1.094v2.869h-.651Zm1.794,3.155a1.392,1.392,0,0,0,1.381-1.341c0-.641-.453-1.272-1.736-1.272h-.788v2.613Z" transform="translate(917.929 3907.532)"/><path class="a" d="M368.6,111.983h.621l2.544,6.627h-.691l-.818-2.16h-2.721l-.818,2.16h-.661Zm-.858,3.915h2.307l-1.154-3.037Z" transform="translate(911.955 3907.593)"/><path class="a" d="M383.008,118.713l.039-.109a3.236,3.236,0,0,1-2.889-3.343,3.332,3.332,0,0,1,3.481-3.431,4.3,4.3,0,0,1,2.139.571l-.266.6a3.469,3.469,0,0,0-1.943-.621,2.685,2.685,0,0,0-2.7,2.839,2.764,2.764,0,0,0,2.741,2.869,3.55,3.55,0,0,0,1.972-.68l.266.493a4.1,4.1,0,0,1-2.307.74h-.049l-.02.039a1.184,1.184,0,0,0-.119.345c0,.335.829.306.829.927a1,1,0,0,1-1.055.907,1.588,1.588,0,0,1-.9-.306l.2-.463a1.179,1.179,0,0,0,.671.276c.3,0,.523-.158.523-.345,0-.345-.789-.325-.789-.769A1.843,1.843,0,0,1,383.008,118.713Z" transform="translate(904.174 3907.677)"/><path class="a" d="M396.672,109.822h.621l2.544,6.627h-.691l-.818-2.16h-2.721l-.818,2.16h-.661Zm-.414-1.755c.749,0,.877.661,1.38.661.463,0,.474-.592.474-.661h.562c0,.059-.019,1.174-1.035,1.174-.749,0-.868-.661-1.361-.661-.463,0-.463.592-.463.622h-.562C395.252,109.122,395.281,108.067,396.258,108.067Zm-.444,5.67h2.307l-1.154-3.037Z" transform="translate(896.464 3909.754)"/><path class="a" d="M411.64,111.83a3.2,3.2,0,0,1,3.323,3.283,3.438,3.438,0,0,1-3.411,3.53,3.407,3.407,0,0,1,.089-6.814Zm-.06,6.251a2.762,2.762,0,0,0,2.672-2.889,2.675,2.675,0,1,0-5.344-.01A2.775,2.775,0,0,0,411.581,118.081Z" transform="translate(888.694 3907.677)"/><path class="a" d="M425.932,124.657a.533.533,0,0,1,0,1.065.533.533,0,1,1,0-1.065Z" transform="translate(879.212 3900.598)"/><line class="b" x2="157.746" transform="translate(1132.789 4011.069)"/></g></svg>