<svg xmlns="http://www.w3.org/2000/svg" width="98.98" height="75.706" viewBox="0 0 98.98 75.706"><defs><style>.a{fill:#3e3e3e;}</style></defs><g transform="translate(-37.823 -17.713)"><g transform="translate(37.823 17.713)"><path class="a" d="M49.634,90.136c-6.934,0-11.811-5.069-11.811-12.194,0-7.173,4.973-13.485,12.816-13.485,5.021,0,7.651,2.63,7.651,6.073a4.988,4.988,0,0,1-5.308,5.212,4.226,4.226,0,0,1-4.447-3.826A2.666,2.666,0,0,1,50.112,69.1c.526-.239.957,0,.861.67-.239,1.913.813,2.773,2.343,2.773a2.807,2.807,0,0,0,2.63-2.773c0-1.339-1.1-4.112-5.069-4.112A10.14,10.14,0,0,0,40.74,75.79c0,7.268,5.117,11.429,10.042,11.429a11.246,11.246,0,0,0,8.416-4.16c.383-.335.717-.1.574.383C58.194,87.888,53.173,90.136,49.634,90.136Z" transform="translate(-37.823 -53.554)"/><path class="a" d="M164.376,54.39a11.151,11.151,0,0,0-4.017-.813,12.283,12.283,0,0,0-3.156.335c2.63-4.782,4.495-9.229,4.495-13.437,0-4.3-2.248-8.8-6.838-8.8-3.108,0-6.025,2.152-6.025,6.647V51.856l2.008,1.913h-7.221l2.008-1.913V23.643c0-.717-.191-.813-.765-.669l-1.674.43,5.643-5.691V33.3c2.056-2.391,4.112-4.686,7.6-4.686,6.694,0,8.129,5.786,8.129,9.372,0,5.117-2.391,9.707-4.447,13.628l4.782-1.148Z" transform="translate(-118.615 -17.713)"/><path class="a" d="M259.1,90.136a12.361,12.361,0,0,1-11.763-12.528c0-7.7,6.647-13.15,12.577-13.15a12.492,12.492,0,0,1,12.337,12.624C272.246,83.489,267.75,90.136,259.1,90.136Zm-.621-22.953a7.876,7.876,0,0,0-8.177,8.034c0,6.742,5.738,12.337,11.189,12.337a8.392,8.392,0,0,0,8.368-8.129C269.855,74.212,264.834,67.183,258.474,67.183Z" transform="translate(-198.464 -53.554)"/><path class="a" d="M385.734,90.415a8.022,8.022,0,0,1-4.065-4.065c-2.1,2.534-3.3,4.256-6.79,4.256-6.79,0-9.468-5.069-9.468-10.042,0-4.065,2.343-8.99,4.925-13.007a15.332,15.332,0,0,0-4.4,1.435,27.083,27.083,0,0,0,.335-3.921,10.9,10.9,0,0,0,3.156.717,42.889,42.889,0,0,0,4.351-.478c-2.678,4.017-5.355,8.56-5.355,12.576,0,5.069,2.486,9.8,7.173,9.8,5.4,0,6.073-4.925,6.073-9.229V67.892l-2.008-1.913h7.172l-1.96,1.913V82.429a5.12,5.12,0,0,0,3.108,5.117Z" transform="translate(-289.002 -54.025)"/></g><g transform="translate(37.823 56.742)"><path class="a" d="M49.634,257.464c-6.934,0-11.811-5.069-11.811-12.194,0-7.173,4.973-13.485,12.816-13.485,5.021,0,7.651,2.63,7.651,6.073a4.988,4.988,0,0,1-5.308,5.212,4.226,4.226,0,0,1-4.447-3.826,2.665,2.665,0,0,1,1.578-2.821c.526-.239.957,0,.861.669-.239,1.913.813,2.774,2.343,2.774a2.807,2.807,0,0,0,2.63-2.774c0-1.339-1.1-4.112-5.069-4.112A10.14,10.14,0,0,0,40.74,243.118c0,7.268,5.117,11.428,10.042,11.428a11.247,11.247,0,0,0,8.416-4.16c.383-.335.717-.1.574.383C58.194,255.216,53.173,257.464,49.634,257.464Z" transform="translate(-37.823 -220.882)"/><path class="a" d="M164.376,221.719a11.151,11.151,0,0,0-4.017-.813,12.283,12.283,0,0,0-3.156.335c2.63-4.782,4.495-9.229,4.495-13.437,0-4.3-2.248-8.8-6.838-8.8-3.108,0-6.025,2.152-6.025,6.647v13.532l2.008,1.913h-7.221l2.008-1.913V190.971c0-.717-.191-.813-.765-.669l-1.674.43,5.643-5.69v15.589c2.056-2.391,4.112-4.686,7.6-4.686,6.694,0,8.129,5.786,8.129,9.372,0,5.117-2.391,9.707-4.447,13.628L164.9,217.8Z" transform="translate(-118.615 -185.042)"/><path class="a" d="M259.1,257.464a12.361,12.361,0,0,1-11.763-12.528c0-7.7,6.647-13.15,12.577-13.15a12.492,12.492,0,0,1,12.337,12.624C272.246,250.817,267.75,257.464,259.1,257.464Zm-.621-22.953a7.876,7.876,0,0,0-8.177,8.033c0,6.743,5.738,12.337,11.189,12.337a8.392,8.392,0,0,0,8.368-8.129C269.855,241.54,264.834,234.511,258.474,234.511Z" transform="translate(-198.464 -220.882)"/><path class="a" d="M385.734,257.744a8.023,8.023,0,0,1-4.065-4.065c-2.1,2.534-3.3,4.256-6.79,4.256-6.79,0-9.468-5.069-9.468-10.042,0-4.065,2.343-8.99,4.925-13.007a15.347,15.347,0,0,0-4.4,1.435,27.08,27.08,0,0,0,.335-3.921,10.912,10.912,0,0,0,3.156.717,42.89,42.89,0,0,0,4.351-.478c-2.678,4.017-5.355,8.56-5.355,12.576,0,5.069,2.486,9.8,7.173,9.8,5.4,0,6.073-4.925,6.073-9.229V235.221l-2.008-1.913h7.172l-1.96,1.913v14.537a5.12,5.12,0,0,0,3.108,5.117Z" transform="translate(-289.002 -221.354)"/></g></g></svg>