<svg xmlns="http://www.w3.org/2000/svg" width="155" height="44.698" viewBox="0 0 155 44.698"><defs><style>.a,.b{fill:#3e3e3e;}.a{fill-rule:evenodd;}</style></defs><g transform="translate(-9.712 -5.707)"><path class="a" d="M29.5,28.125C21.263,32.791,16.472,25.1,17.735,16.591,19.113,7.3,27.871,6.556,31.42,14.034a23.555,23.555,0,0,0,3.266-2.364C32.171,6.731,24.124,3.715,17.051,7.337a13.757,13.757,0,0,0-6.685,16.505C13.146,33.3,25.452,35.884,35.061,29.5c2.141-1.423,1.568-1.566,1.565-4.708,0-1.863.126-4.048-.046-5.98l-11.726.023-.008,3.691,4.677.048L29.5,28.125" transform="translate(0 -0.023)"/><path class="a" d="M191.68,20.756c-1.043-1.214-7.955-11.751-8.444-13.047l-8.167-.038,0,25.96,3.838.026.041-18.71c2.222,2.865,4.331,6.41,6.18,9.18l6.168,9.5,4.3.009,0-25.925-3.709-.076c-.591,2.127-.032,10.178-.208,13.12" transform="translate(-112.022 -1.307)"/><path class="a" d="M265.547,11.205l8.961-.006-.145-3.526-16.013,0c-.367,1.3-.339,24.478.018,26.025l16.612-.016-.011-3.476-9.49-.128.017-7.815,8.54-.017-.021-3.481h-8.522l.053-7.562" transform="translate(-168.268 -1.332)"/><path class="a" d="M113.472,11.2l8.913.13a10.141,10.141,0,0,0-.11-3.657l-16.139,0,.028,26.028,16.758-.008.008-3.5-9.486,0,.062-7.943,8.493-.13,0-3.341-8.554-.024.029-7.565" transform="translate(-65.325 -1.329)"/><path class="a" d="M326.37,25.864l-3.591,2c2.073,5.739,13.11,7.579,17.3,1.156a8.668,8.668,0,0,0,.845-7.256c-1.628-4.366-7.424-4.746-10.229-7.548-3.148-3.145,2.2-8.575,6.647-2.2.034.048.074.114.109.16l.556.582c.852-.823,1.957-1.228,2.556-2.092-1.523-3.541-6.339-6.2-11.718-4.353a7.716,7.716,0,0,0-4.669,3.955,8.5,8.5,0,0,0-.274,7.076c2,4.135,7.276,4.356,9.8,7.451,2.788,3.418-3.779,8.557-7.329,1.073" transform="translate(-212.094 0)"/><path class="a" d="M436.344,25.977l-3.472,1.98c1.147,5.131,12.762,8.03,17.166,1.239a8.606,8.606,0,0,0,.862-7.4c-.882-2.136-2.614-3.19-4.608-4.274-1.562-.849-4.6-2.1-5.69-3.2a2.963,2.963,0,0,1,2.009-5.067c3.359-.264,3.86,1.932,5.2,3.558a9.193,9.193,0,0,0,2.8-2.033c-1.453-3.569-6.45-6.017-11.637-4.382-3.6,1.135-7.649,6.127-5.005,11.147,2.132,4.046,7.9,4.682,9.82,7.438,1.557,2.235-.183,4.64-2.551,4.787-2.889.179-3.865-2.09-4.9-3.79" transform="translate(-286.679 -0.116)"/><path class="a" d="M394.478,7.665c-.576,2.3-.27,22.379-.112,26.031l7.265-.081-.1-25.945-7.053-.006" transform="translate(-260.441 -1.326)"/><g transform="translate(134.931 40.752)"><path class="b" d="M401.368,114.364v6.357q0,1.428-.029,1.836a1.4,1.4,0,0,1-.268.737,1.221,1.221,0,0,1-.647.455,4.455,4.455,0,0,1-1.23.126h-1.239v-1.663q.223.018.323.018a.623.623,0,0,0,.417-.129.484.484,0,0,0,.176-.317,7.244,7.244,0,0,0,.023-.729v-6.692Z" transform="translate(-397.955 -114.364)"/><path class="b" d="M416.517,123.423h-3.073v1.686a1.871,1.871,0,0,0,.076.681.3.3,0,0,0,.294.153.356.356,0,0,0,.361-.2,2.209,2.209,0,0,0,.091-.784v-1.028h2.25v.576a5.184,5.184,0,0,1-.091,1.11,2.262,2.262,0,0,1-.426.828,2.079,2.079,0,0,1-.849.661,3.29,3.29,0,0,1-1.29.22,3.748,3.748,0,0,1-1.328-.217,2.126,2.126,0,0,1-.9-.6,2.152,2.152,0,0,1-.443-.834,5.383,5.383,0,0,1-.124-1.325v-2.273a3.864,3.864,0,0,1,.276-1.613,1.9,1.9,0,0,1,.9-.905,3.2,3.2,0,0,1,1.446-.314,3.23,3.23,0,0,1,1.648.379,2.084,2.084,0,0,1,.911,1,4.7,4.7,0,0,1,.262,1.759Zm-2.38-1.269v-.57a2.869,2.869,0,0,0-.065-.781.255.255,0,0,0-.264-.176q-.247,0-.306.15a3.114,3.114,0,0,0-.059.808v.57Z" transform="translate(-406.84 -117.671)"/><path class="b" d="M432.26,122.407h-2.227v-.523a3.69,3.69,0,0,1,.209-1.4,1.937,1.937,0,0,1,.837-.866,3.91,3.91,0,0,1,3.449.05,1.661,1.661,0,0,1,.734,1.046,16.4,16.4,0,0,1,.123,2.553v3.913h-2.309v-.695a1.45,1.45,0,0,1-1.381.836,2.006,2.006,0,0,1-1.142-.35q-.52-.349-.52-1.53V124.8a1.875,1.875,0,0,1,.276-1.193,3.894,3.894,0,0,1,1.369-.74,3.9,3.9,0,0,0,1.251-.617,1.639,1.639,0,0,0,.082-.646,2.173,2.173,0,0,0-.091-.8.312.312,0,0,0-.3-.185q-.241,0-.3.155a3.174,3.174,0,0,0-.059.808Zm.752,1.07a1.758,1.758,0,0,0-.661.7,2.768,2.768,0,0,0-.091.811,2.358,2.358,0,0,0,.08.782.31.31,0,0,0,.314.176.291.291,0,0,0,.291-.138,2.238,2.238,0,0,0,.067-.726Z" transform="translate(-419.687 -117.671)"/><path class="b" d="M451.575,119.387l-.041.718a1.776,1.776,0,0,1,.632-.644,1.694,1.694,0,0,1,.861-.215,1.635,1.635,0,0,1,1,.288,1.281,1.281,0,0,1,.5.726,6.625,6.625,0,0,1,.112,1.46v5.464h-2.374v-5.4a5,5,0,0,0-.053-.981q-.053-.176-.294-.176a.294.294,0,0,0-.317.2,5.088,5.088,0,0,0-.065,1.084v5.27H449.16v-7.8Z" transform="translate(-432.645 -117.671)"/><path class="b" d="M473.146,121.878h-2.1v-.423a2.245,2.245,0,0,0-.062-.684q-.061-.144-.308-.144a.351.351,0,0,0-.3.132.653.653,0,0,0-.1.4,2.009,2.009,0,0,0,.05.526.835.835,0,0,0,.3.367,6.526,6.526,0,0,0,1.025.582,3.735,3.735,0,0,1,1.357.952,2.2,2.2,0,0,1,.323,1.3,3.271,3.271,0,0,1-.247,1.437,1.64,1.64,0,0,1-.826.746,3.369,3.369,0,0,1-1.4.262,3.848,3.848,0,0,1-1.548-.282,1.692,1.692,0,0,1-.884-.764,3.389,3.389,0,0,1-.241-1.457v-.376h2.1v.493a2.594,2.594,0,0,0,.079.817.307.307,0,0,0,.314.188.425.425,0,0,0,.353-.126.94.94,0,0,0,.1-.532,1.18,1.18,0,0,0-.13-.7,10.989,10.989,0,0,0-1.38-.834,3.057,3.057,0,0,1-1.275-1.066,2.608,2.608,0,0,1-.229-1.137,2.942,2.942,0,0,1,.247-1.378,1.6,1.6,0,0,1,.837-.684,3.612,3.612,0,0,1,1.372-.241,3.889,3.889,0,0,1,1.319.2,2.029,2.029,0,0,1,.834.52,1.4,1.4,0,0,1,.353.6,4.343,4.343,0,0,1,.062.864Z" transform="translate(-445.492 -117.671)"/></g></g></svg>