<svg xmlns="http://www.w3.org/2000/svg" width="121.839" height="69.729" viewBox="0 0 121.839 69.729"><defs><style>.a{fill:#3e3e3e;}</style></defs><g transform="translate(-36.55 -17.841)"><path class="a" d="M36.55,137.5H158.389v-2.048H36.55Z" transform="translate(0 -84.045)"/><path class="a" d="M150.684,24.936a1.2,1.2,0,0,0,.351.022,23.31,23.31,0,0,0,2.272-.685,7.949,7.949,0,0,1,2.74-.737,1.236,1.236,0,0,0,.386-.116,15.12,15.12,0,0,1,1.931-.732,31.53,31.53,0,0,1,11.053-.5,8.421,8.421,0,0,1,3.552,1.078c1.307.827,1.337,1.259.262,2.367A5.7,5.7,0,0,1,170.637,27a31.206,31.206,0,0,1-9.012.917.964.964,0,0,1-.221-.062c0-.679.027-1.354-.007-2.026a2.023,2.023,0,0,0-1.283-2.013c-.281-.108-.506-.089-.646.211a9.021,9.021,0,0,0-.679,1.5,15.52,15.52,0,0,0-.282,2.049,18.892,18.892,0,0,0,.252,6.866c.154.61.3.67.872.4a2.245,2.245,0,0,0,1.22-1.774,29.248,29.248,0,0,0,.313-3.2c.023-.4.118-.565.527-.544,1.522.079,3.051.08,4.564.232a16.559,16.559,0,0,1,5.525,1.337,4.807,4.807,0,0,1,1.341.952,1.15,1.15,0,0,1-.044,1.75,4.334,4.334,0,0,1-2.272,1.3,30.08,30.08,0,0,1-4.55.719c-2.368.116-4.747.033-7.121.013-.516,0-1.03-.1-1.546-.148-1.309-.117-2.616-.279-3.928-.323a3.33,3.33,0,0,0-2.292.7c-.506.418-.523.662.044.972a6.954,6.954,0,0,0,1.951.81,46.268,46.268,0,0,0,5.126.759,38.117,38.117,0,0,0,11.522-.755,11.192,11.192,0,0,0,4.56-1.92,3.655,3.655,0,0,0-.711-6.284c-.5-.235-1-.445-1.6-.705.262-.1.437-.166.61-.236a6.812,6.812,0,0,0,3.292-2.433,3.009,3.009,0,0,0-.151-3.8,7.65,7.65,0,0,0-1.978-1.56,11.976,11.976,0,0,0-4.678-1.279,31.272,31.272,0,0,0-7.055.108,46.156,46.156,0,0,0-7.887,1.549,6.962,6.962,0,0,0-2.83,1.48A2.682,2.682,0,0,0,150.684,24.936Z" transform="translate(-81.547 -1.024)"/><path class="a" d="M267.371,26.305c0-.513.012-1.014,0-1.514a2.93,2.93,0,0,0-.852-2.163c-.586-.556-.817-.543-1.279.138a5.493,5.493,0,0,0-.8,2.657,27.608,27.608,0,0,0,.62,7.64c.067.36.236.416.541.319a2.055,2.055,0,0,0,1.44-1.636,19.629,19.629,0,0,0,.255-2.265c.049-.579.061-1.161.092-1.787.3,0,.524-.013.746,0,1.538.1,3.081.158,4.612.329a17.282,17.282,0,0,1,5.182,1.239,5.823,5.823,0,0,1,1.583,1.051,1.1,1.1,0,0,1,.033,1.664,4.373,4.373,0,0,1-1.966,1.309,15.558,15.558,0,0,1-5.526.8c-2.946-.028-5.89-.186-8.836-.228-1.468-.021-2.942.058-4.407.168-.5.038-1.251.136-1.313.709-.057.537.579.895,1.091,1.046a16.085,16.085,0,0,0,3.067.717,67.482,67.482,0,0,0,10.232.226,24.639,24.639,0,0,0,6.583-1.142,6.782,6.782,0,0,0,3.177-1.984,3.215,3.215,0,0,0-.307-4.688,14.691,14.691,0,0,0-1.839-1.255c-.243-.157-.513-.272-.832-.438.339-.237.628-.423.9-.632a23.163,23.163,0,0,0,2.387-1.906,2.576,2.576,0,0,0,.336-3.384,5.41,5.41,0,0,0-2.679-2.286,16.094,16.094,0,0,0-5.726-1.133,42.376,42.376,0,0,0-9.369.641A20.947,20.947,0,0,0,259,19.958a7.276,7.276,0,0,0-1.9,1.391,2.459,2.459,0,0,0-.625,2.029,2.185,2.185,0,0,0,.4-.031c.931-.265,1.873-.5,2.786-.817a36.268,36.268,0,0,1,15.794-2.016,8.5,8.5,0,0,1,3.517,1.019c1.255.741,1.344,1.763.161,2.621a8.113,8.113,0,0,1-1.924,1,21.366,21.366,0,0,1-6.418,1.141C269.668,26.353,268.543,26.305,267.371,26.305Z" transform="translate(-157.143)"/><path class="a" d="M54.77,211.746c.143,0,.314-.006.484,0a34.147,34.147,0,0,1,6.583.857,5.936,5.936,0,0,1,2.585,1.154,1.262,1.262,0,0,1-.065,2.209,6.41,6.41,0,0,1-1.829.829,26.028,26.028,0,0,1-9.7.491c-1.5-.145-3-.213-4.509-.262a2.819,2.819,0,0,0-1.25.284c-.315.15-.745.466-.764.734a1.044,1.044,0,0,0,.819.962,2.773,2.773,0,0,0,.5.129c1.354.189,2.7.422,4.064.546a36.5,36.5,0,0,0,9.433-.147,9.929,9.929,0,0,0,4.7-1.818,3.125,3.125,0,0,0,.309-4.928,9.824,9.824,0,0,0-1.814-1.166,1.8,1.8,0,0,0-.36-.135,29.717,29.717,0,0,0,2.517-1.859,2.874,2.874,0,0,0,.1-4.33,4.681,4.681,0,0,0-1.693-1.16,17.909,17.909,0,0,0-3.706-.928,29.992,29.992,0,0,0-10.162.708,14.1,14.1,0,0,0-3.984,1.459,2.487,2.487,0,0,0-1.277,2.582,2.225,2.225,0,0,0,.346-.039c1.118-.3,2.251-.565,3.35-.926a28.544,28.544,0,0,1,10.293-1.7,10.779,10.779,0,0,1,4.512,1.069c1.065.547,1.156.977.4,1.942a1.736,1.736,0,0,1-.469.481,12.219,12.219,0,0,1-2.074,1.04,21.715,21.715,0,0,1-7.2.737c-.044,0-.087-.045-.157-.083a5.425,5.425,0,0,0-.008-.875,16.543,16.543,0,0,0-.425-2.067.848.848,0,0,0-.962-.551c-.432.035-.429.4-.509.683a18.941,18.941,0,0,0-.581,6.231,13.96,13.96,0,0,0,.436,2.5c.129.537.36.578.825.258a2.217,2.217,0,0,0,.906-1.581C54.592,213.994,54.66,212.907,54.77,211.746Z" transform="translate(-6.547 -132.342)"/><path class="a" d="M36.55,137.5v-2.048H158.389V137.5Z" transform="translate(0 -84.045)"/><path class="a" d="M150.684,24.936a2.682,2.682,0,0,1,.906-2.374,6.962,6.962,0,0,1,2.83-1.48,46.156,46.156,0,0,1,7.887-1.549,31.272,31.272,0,0,1,7.055-.108,11.976,11.976,0,0,1,4.678,1.279,7.65,7.65,0,0,1,1.978,1.56,3.009,3.009,0,0,1,.151,3.8,6.812,6.812,0,0,1-3.292,2.433c-.173.07-.348.135-.61.236.591.26,1.1.471,1.6.705a3.655,3.655,0,0,1,.711,6.284,11.192,11.192,0,0,1-4.56,1.92,38.117,38.117,0,0,1-11.522.755,46.268,46.268,0,0,1-5.126-.759,6.954,6.954,0,0,1-1.951-.81c-.566-.309-.55-.553-.044-.972a3.33,3.33,0,0,1,2.292-.7c1.311.044,2.619.207,3.928.323.516.046,1.031.144,1.546.148,2.374.02,4.753.1,7.121-.013a30.08,30.08,0,0,0,4.55-.719,4.334,4.334,0,0,0,2.272-1.3,1.15,1.15,0,0,0,.044-1.75,4.807,4.807,0,0,0-1.341-.952,16.559,16.559,0,0,0-5.525-1.337c-1.514-.152-3.043-.152-4.564-.232-.409-.021-.5.143-.527.544a29.248,29.248,0,0,1-.313,3.2,2.245,2.245,0,0,1-1.22,1.774c-.569.269-.719.209-.872-.4a18.892,18.892,0,0,1-.252-6.866,15.52,15.52,0,0,1,.282-2.049,9.021,9.021,0,0,1,.679-1.5c.14-.3.364-.318.646-.211a2.023,2.023,0,0,1,1.283,2.013c.033.672.007,1.347.007,2.026a.964.964,0,0,0,.221.062A31.206,31.206,0,0,0,170.637,27a5.7,5.7,0,0,0,2.594-1.369c1.075-1.108,1.045-1.54-.262-2.367a8.421,8.421,0,0,0-3.552-1.078,31.53,31.53,0,0,0-11.053.5,15.12,15.12,0,0,0-1.931.732,1.236,1.236,0,0,1-.386.116,7.949,7.949,0,0,0-2.74.737,23.31,23.31,0,0,1-2.272.685A1.2,1.2,0,0,1,150.684,24.936Z" transform="translate(-81.547 -1.024)"/><path class="a" d="M267.371,26.305c1.172,0,2.3.048,3.417-.01a21.366,21.366,0,0,0,6.418-1.141,8.113,8.113,0,0,0,1.924-1c1.183-.858,1.095-1.88-.161-2.621a8.5,8.5,0,0,0-3.517-1.019,36.268,36.268,0,0,0-15.794,2.016c-.913.317-1.855.551-2.786.817a2.185,2.185,0,0,1-.4.031,2.459,2.459,0,0,1,.625-2.029,7.276,7.276,0,0,1,1.9-1.391,20.947,20.947,0,0,1,5.512-1.434,42.376,42.376,0,0,1,9.369-.641,16.094,16.094,0,0,1,5.726,1.133,5.41,5.41,0,0,1,2.679,2.286,2.576,2.576,0,0,1-.336,3.384,23.163,23.163,0,0,1-2.387,1.906c-.27.209-.559.4-.9.632.319.166.59.281.832.438a14.691,14.691,0,0,1,1.839,1.255,3.215,3.215,0,0,1,.307,4.688,6.782,6.782,0,0,1-3.177,1.984,24.639,24.639,0,0,1-6.583,1.142,67.482,67.482,0,0,1-10.232-.226,16.085,16.085,0,0,1-3.067-.717c-.511-.151-1.148-.509-1.091-1.046.061-.572.808-.671,1.313-.709,1.465-.11,2.939-.189,4.407-.168,2.946.042,5.89.2,8.836.228a15.558,15.558,0,0,0,5.526-.8,4.373,4.373,0,0,0,1.966-1.309,1.1,1.1,0,0,0-.033-1.664,5.823,5.823,0,0,0-1.583-1.051,17.282,17.282,0,0,0-5.182-1.239c-1.53-.171-3.074-.227-4.612-.329-.222-.015-.446,0-.746,0-.031.626-.042,1.208-.092,1.787a19.629,19.629,0,0,1-.255,2.265,2.055,2.055,0,0,1-1.44,1.636c-.3.1-.474.041-.541-.319a27.608,27.608,0,0,1-.62-7.64,5.493,5.493,0,0,1,.8-2.657c.462-.681.694-.694,1.279-.138a2.93,2.93,0,0,1,.852,2.163C267.383,25.291,267.371,25.792,267.371,26.305Z" transform="translate(-157.143)"/><path class="a" d="M54.77,211.746c-.111,1.161-.178,2.248-.331,3.323a2.217,2.217,0,0,1-.906,1.581c-.466.32-.7.279-.825-.258a13.96,13.96,0,0,1-.436-2.5,18.941,18.941,0,0,1,.581-6.231c.08-.281.076-.648.509-.683a.848.848,0,0,1,.962.551,16.543,16.543,0,0,1,.425,2.067,5.425,5.425,0,0,1,.008.875c.07.038.113.082.157.083a21.715,21.715,0,0,0,7.2-.737,12.219,12.219,0,0,0,2.074-1.04,1.736,1.736,0,0,0,.469-.481c.752-.965.661-1.4-.4-1.942a10.779,10.779,0,0,0-4.512-1.069,28.544,28.544,0,0,0-10.293,1.7c-1.1.362-2.231.624-3.35.926a2.225,2.225,0,0,1-.346.039,2.487,2.487,0,0,1,1.277-2.582,14.1,14.1,0,0,1,3.984-1.459,29.992,29.992,0,0,1,10.162-.708,17.909,17.909,0,0,1,3.706.928,4.681,4.681,0,0,1,1.693,1.16,2.874,2.874,0,0,1-.1,4.33,29.717,29.717,0,0,1-2.517,1.859,1.8,1.8,0,0,1,.36.135,9.824,9.824,0,0,1,1.814,1.166,3.125,3.125,0,0,1-.309,4.928,9.929,9.929,0,0,1-4.7,1.818,36.5,36.5,0,0,1-9.433.147c-1.36-.124-2.71-.356-4.064-.546a2.773,2.773,0,0,1-.5-.129,1.044,1.044,0,0,1-.819-.962c.019-.268.45-.584.764-.734a2.819,2.819,0,0,1,1.25-.284c1.5.048,3.011.117,4.509.262a26.028,26.028,0,0,0,9.7-.491,6.41,6.41,0,0,0,1.829-.829,1.262,1.262,0,0,0,.065-2.209,5.936,5.936,0,0,0-2.585-1.154,34.147,34.147,0,0,0-6.583-.857C55.084,211.74,54.914,211.746,54.77,211.746Z" transform="translate(-6.547 -132.342)"/><g transform="translate(61.616 70.112)"><path class="a" d="M239.852,207.425a2.7,2.7,0,0,0,.511-3.382,4.083,4.083,0,0,0-1.834-1.78,10.375,10.375,0,0,0-3.668-1.068,29.526,29.526,0,0,0-11.125.825,20.16,20.16,0,0,0-3.56,1.39A2.539,2.539,0,0,0,218.9,206c.906-.24,1.727-.433,2.532-.676,3.147-.952,6.266-2,9.609-2.083a13.12,13.12,0,0,1,6.434,1.072c1.054.534,1.157.984.407,1.925a3.287,3.287,0,0,1-.928.815,8.8,8.8,0,0,1-1.751.771,23.758,23.758,0,0,1-7,.708,1.2,1.2,0,0,1-.247-.067,6.86,6.86,0,0,0-.412-2.989.759.759,0,0,0-.96-.514,1.053,1.053,0,0,0-.506.668,18.342,18.342,0,0,0-.576,6.177,21.939,21.939,0,0,0,.451,2.6c.089.457.364.476.721.256a2.062,2.062,0,0,0,.951-1.49,28.356,28.356,0,0,0,.278-2.939c.021-.406.125-.535.536-.523a29.608,29.608,0,0,1,6.782.906,7.97,7.97,0,0,1,2.344,1.056,1.28,1.28,0,0,1-.074,2.323,6.087,6.087,0,0,1-1.6.717,26.843,26.843,0,0,1-10.313.48,31.651,31.651,0,0,0-3.729-.228,5.156,5.156,0,0,0-1.961.545c-.5.229-.489.5-.169.97a1.729,1.729,0,0,0,1.361.652c2.271.249,4.54.545,6.818.687a25.613,25.613,0,0,0,7.644-.58,7.714,7.714,0,0,0,3.978-2.01,3.013,3.013,0,0,0,.361-3.864,4.3,4.3,0,0,0-2.248-1.762c-.154-.055-.306-.116-.526-.2.375-.231.7-.4.99-.614A15.366,15.366,0,0,0,239.852,207.425Z" transform="translate(-191.924 -200.988)"/><path class="a" d="M145.323,216.851a1.171,1.171,0,0,0-.955.856,7.989,7.989,0,0,1-2.592,3.251,2.2,2.2,0,0,1-.772.412.854.854,0,0,1-1.244-.756,6.205,6.205,0,0,1,.076-1.6.713.713,0,0,1,.426-.464c.594-.18,1.208-.3,1.818-.424a1.675,1.675,0,0,0,1.261-1.184,2.648,2.648,0,0,0-1.692-3.251,2.567,2.567,0,0,0-2.933,1.341c-.382.636-.689,1.319-1.007,1.992-.5,1.064-.974,2.142-1.481,3.2a3.435,3.435,0,0,1-.475.6l-.14-.076a9,9,0,0,1,.009-1.187c.124-.925.3-1.842.442-2.766.24-1.616-.24-2.124-1.855-1.945a.7.7,0,0,0-.481.35c-.236.537-.4,1.108-.61,1.655q-.718,1.834-1.466,3.656a2.991,2.991,0,0,1-.308.475l-.174-.07q.291-1.5.582-2.993a9.993,9.993,0,0,0,.372-3.541.615.615,0,0,0-.181-.39,1.565,1.565,0,0,0-2.288.745,9.917,9.917,0,0,0-.385,1.558,10.844,10.844,0,0,1-1.732,4.355,7.185,7.185,0,0,1-.794.811,19.307,19.307,0,0,1,.021-2.732c.323-2.1.764-4.185,1.125-6.282a6.8,6.8,0,0,0,.141-1.946.933.933,0,0,0-1.659-.559,2.877,2.877,0,0,0-.721,1.279c-.233.9-.319,1.84-.5,2.756a33.709,33.709,0,0,0-.77,6.8,4.113,4.113,0,0,0,.969,2.679.668.668,0,0,0,.509.228,3.33,3.33,0,0,0,2.356-1.369c.124-.181.256-.356.436-.6.106.3.185.527.265.751a1.6,1.6,0,0,0,2.712.62,8.231,8.231,0,0,0,.876-1.218c.2-.3.371-.608.583-.96a11.789,11.789,0,0,0,.527,1.2,1.863,1.863,0,0,0,2.959.255c.279-.327.576-.639.9-1a2.536,2.536,0,0,1,.22.269c.91,1.631,2.544,1.638,3.9,1.076a7.226,7.226,0,0,0,4.112-4.562,3.945,3.945,0,0,0,.138-.868C145.874,216.9,145.67,216.8,145.323,216.851Zm-6.543-.2a2.613,2.613,0,0,1,1.962-1.434c.432,0,.644.26.537.666a2.532,2.532,0,0,1-1.983,1.541C138.838,217.429,138.629,217.115,138.78,216.655Z" transform="translate(-124.376 -207.149)"/><path class="a" d="M309.225,215.506a4.653,4.653,0,0,0-.364-.789,4.455,4.455,0,0,0-.513-.712,2.442,2.442,0,0,0-3.158-.733,2.943,2.943,0,0,0-.5.361q-.121.107-.236.232t-.225.267c-.106.136-.207.278-.3.426a4.012,4.012,0,0,0-.249.455c-.163.353-.316.711-.467,1.07s-.3.719-.452,1.077c-.291.685-.561,1.38-.888,2.047a1.115,1.115,0,0,1-.118.187,2.143,2.143,0,0,1-.15.171c-.106.111-.221.218-.321.332l-.148-.086c-.073-.564-.167-1.126-.216-1.692q-.033-.382-.045-.762t-.008-.76c.007-.632.047-1.263.1-1.893s.132-1.259.209-1.888q.046-.377.092-.755a20.731,20.731,0,0,0,.152-2.1q.007-.35,0-.7a1.082,1.082,0,0,0-.368-.874,1.009,1.009,0,0,0-.414-.188,1.472,1.472,0,0,0-.257-.033,2.091,2.091,0,0,0-.287.007,1.4,1.4,0,0,0-.215.036,1.138,1.138,0,0,0-.192.067.973.973,0,0,0-.315.226,1.083,1.083,0,0,0-.158.22,1.607,1.607,0,0,0-.162.468,2.523,2.523,0,0,0-.038.289c-.066.864-.108,1.73-.135,2.6-.067,2.128-.187,4.257-.145,6.384a7.131,7.131,0,0,0,.634,2.6,1.552,1.552,0,0,0,1.167.988,1.784,1.784,0,0,0,1.49-.531,7.985,7.985,0,0,0,.8-.952c.231-.3.441-.611.684-.952.236.333.416.626.633.888a2.394,2.394,0,0,0,2.755.842,2.793,2.793,0,0,0,.341-.148,3.114,3.114,0,0,0,.336-.2,4.12,4.12,0,0,0,.706-.61,4.341,4.341,0,0,0,.282-.339,4.518,4.518,0,0,0,.453-.744,4.768,4.768,0,0,0,.3-.811,4.984,4.984,0,0,0,.156-.851,5.074,5.074,0,0,0,.007-.866A4.935,4.935,0,0,0,309.225,215.506Zm-2.941,3.8c-.268.594-.793.6-1.089.019a3.94,3.94,0,0,1,0-3.735c.291-.573.822-.565,1.094.031a13.557,13.557,0,0,1,.553,1.843A14.142,14.142,0,0,1,306.284,219.307Z" transform="translate(-248.971 -206.119)"/><path class="a" d="M422.972,227.9c-.037-.225-.22-.579-.368-.595a1.069,1.069,0,0,0-.713.318,1.52,1.52,0,0,0-.32.638c-.1.311-.15.641-.253.952a2.439,2.439,0,0,1-.933,1.39c0-.768-.021-1.489.006-2.208.027-.743.126-1.484.145-2.227a1.323,1.323,0,0,0-.622-1.29,1.208,1.208,0,0,0-1.454.187,12.385,12.385,0,0,0-1.323,1.567,4.623,4.623,0,0,0-.378.769,9.788,9.788,0,0,0-.453-.92.7.7,0,0,0-.4-.325,2.074,2.074,0,0,0-2.207,1.118c-.18.32-.359.642-.58,1.038a1.473,1.473,0,0,1-.047-.213c.046-.986.1-1.972.13-2.958,0-.162-.1-.428-.217-.475a1.767,1.767,0,0,0-2.342,1.191,2.948,2.948,0,0,0-.119.973c.1,1.188.23,2.374.366,3.559.069.6.147,1.2.273,1.793a.968.968,0,0,0,.862.849,1.36,1.36,0,0,0,1.548-1.136c.05-.255.051-.521.123-.768.146-.5.326-.984.518-1.553.132.148.166.168.17.193.09.458.175.917.265,1.376.155.793.535,1.009,1.266.616a2.027,2.027,0,0,0,.744-.817c.424-.792.782-1.619,1.195-2.492a24.615,24.615,0,0,0,.283,2.525A1.74,1.74,0,0,0,421.114,232a5.28,5.28,0,0,0,1.818-3.125A2.684,2.684,0,0,0,422.972,227.9Z" transform="translate(-328.852 -217.825)"/><path class="a" d="M386.413,225.96a5,5,0,0,0-.671,2.681,5.662,5.662,0,0,0,.658,2.745,2.664,2.664,0,0,0,2.595,1.65,2.9,2.9,0,0,0,2.7-1.871,5.426,5.426,0,0,0-.734-5.5A2.665,2.665,0,0,0,386.413,225.96Zm2.63,4.93c-.324.655-.952.658-1.256-.007a14.419,14.419,0,0,1-.6-2,14.974,14.974,0,0,1,.61-1.987c.289-.63.915-.623,1.23,0A4.276,4.276,0,0,1,389.043,230.89Z" transform="translate(-311.147 -217.809)"/><path class="a" d="M367.2,229.3c-.467-.287-.937-.567-1.494-.9.878-.24,1.613-.427,2.337-.649a.592.592,0,0,0,.369-.345,1.194,1.194,0,0,0-1.465-1.468c-1.348.3-2.68.675-4.016,1.026-.385.1-.792.3-.753.732a1.482,1.482,0,0,0,.49.945,12.992,12.992,0,0,0,1.568.9c.553.319,1.116.626,1.64.989a.979.979,0,0,1,.428,1.18c-.087.238-.313.584-.495.6-.354.023-.555-.292-.583-.666a6.574,6.574,0,0,0-.091-.979.572.572,0,0,0-.348-.356,1.755,1.755,0,0,0-1.821.582,1.587,1.587,0,0,0,.238,1.834,2.85,2.85,0,0,0,.467.483,3.517,3.517,0,0,0,4.083.049,1.979,1.979,0,0,0,.81-1.712A2.585,2.585,0,0,0,367.2,229.3Z" transform="translate(-294.306 -218.789)"/><path class="a" d="M342.846,229.375c-.476-.279-.964-.536-1.59-.883.922-.207,1.7-.374,2.469-.563.145-.036.352-.139.386-.253a1.245,1.245,0,0,0-1.525-1.62,18.552,18.552,0,0,1-3.875.911.812.812,0,0,0-.749.855c-.026.471-.074.926.527,1.14a12.261,12.261,0,0,1,1.706.759,5.873,5.873,0,0,1,1.271.88,1.491,1.491,0,0,1,.264,1.844c-.727-.132-.727-.132-.789-.9a1.291,1.291,0,0,0-.932-1.237,1.324,1.324,0,0,0-1.4.761,1.519,1.519,0,0,0,.465,2.074,3.788,3.788,0,0,0,3.834.493,1.905,1.905,0,0,0,1.229-1.558A2.409,2.409,0,0,0,342.846,229.375Z" transform="translate(-276.993 -218.856)"/></g></g></svg>