<svg xmlns="http://www.w3.org/2000/svg" width="137.839" height="35.269" viewBox="0 0 137.839 35.269"><defs><style>.a{fill:#3e3e3e;}</style></defs><g transform="translate(-34.148 -14.787)"><path class="a" d="M34.182,49.971V48.9a5.475,5.475,0,0,0,3.642-.927,4.893,4.893,0,0,0,1.015-3.641l-.023-23.315a4.9,4.9,0,0,0-1.022-3.639,5.483,5.483,0,0,0-3.643-.92V15.4l17.969-.018q13.685-.016,13.694,9.308a8.279,8.279,0,0,1-3.368,6.95A15.28,15.28,0,0,1,53,34.218l-3.681,0,.01,10.1a4.6,4.6,0,0,0,1.122,3.639,6.3,6.3,0,0,0,3.933.92v1.067l-20.2.02M49.317,32.08A5.111,5.111,0,0,0,53.833,30.3a10.142,10.142,0,0,0,1.208-5.613,9.969,9.969,0,0,0-1.173-5.437A5.116,5.116,0,0,0,49.3,17.509Z" transform="translate(0 -0.471)"/><path class="a" d="M212.482,15.137V16.2a5.484,5.484,0,0,0-3.642.927,4.892,4.892,0,0,0-1.015,3.641l.02,20.312a7.025,7.025,0,0,0,1.706,5.266,6.117,6.117,0,0,0,4.421,1.621,8.683,8.683,0,0,0,3.011-.545,7.426,7.426,0,0,0,4.464-4.473,11.064,11.064,0,0,0,.676-4.031l-.018-18.161a4.985,4.985,0,0,0-1.006-3.4,4.333,4.333,0,0,0-3.278-1.164V15.132l11.266-.011v1.067a5.484,5.484,0,0,0-3.642.927,4.9,4.9,0,0,0-1.015,3.641l.017,17.874a10.562,10.562,0,0,1-3.585,8.767,15.392,15.392,0,0,1-9.9,2.9,21.41,21.41,0,0,1-5.49-.65,11.915,11.915,0,0,1-4.3-2.059,9.32,9.32,0,0,1-2.82-3.613,12.6,12.6,0,0,1-1-5.22l-.017-17.969a4.891,4.891,0,0,0-1.022-3.639,5.483,5.483,0,0,0-3.643-.92V15.159l19.816-.019" transform="translate(-126.466 -0.266)"/><path class="a" d="M402.894,49.606l-8.806-15.726h-1.067l.01,10.1a4.894,4.894,0,0,0,1.022,3.639,5.476,5.476,0,0,0,3.643.92v1.067l-19.813.019V48.56a5.471,5.471,0,0,0,3.639-.927,4.875,4.875,0,0,0,1.017-3.641l-.023-23.312a4.887,4.887,0,0,0-1.025-3.639,5.478,5.478,0,0,0-3.641-.92V15.054l19.716-.019q13.5-.013,13.51,9.465a8.147,8.147,0,0,1-1.7,5.394,12.187,12.187,0,0,1-5.045,3.344l7.1,12.28a8.789,8.789,0,0,0,1.776,2.306,4.019,4.019,0,0,0,2.452.7v1.067l-12.772.013m-9.875-17.865a10.293,10.293,0,0,0,6.092-1.36,6.822,6.822,0,0,0,1.768-5.586,8.2,8.2,0,0,0-1.707-6.043A9.149,9.149,0,0,0,393,17.179Z" transform="translate(-274.206 -0.198)"/><path class="a" d="M562.8,14.8v1.067a3.992,3.992,0,0,0-2.063.416,1.249,1.249,0,0,0-.654,1.084,3.073,3.073,0,0,0,.318,1.24q.315.7.9,1.868l.146.29,5.741,10.922,5.763-10.871a7.239,7.239,0,0,0,1.015-3.061,1.511,1.511,0,0,0-1.02-1.432,6.268,6.268,0,0,0-2.562-.463V14.8l9.714-.01v1.067a6.791,6.791,0,0,0-2.3.95,5.912,5.912,0,0,0-1.385,1.919l-7.569,14.334.01,10.687a4.875,4.875,0,0,0,1.025,3.639,5.47,5.47,0,0,0,3.641.92v1.067l-19.819.019V48.322a5.476,5.476,0,0,0,3.642-.927,4.894,4.894,0,0,0,1.015-3.641l-.008-8.647-8.812-16.6a5.046,5.046,0,0,0-3.84-2.62V14.821L562.8,14.8" transform="translate(-408.11 0)"/></g></svg>