<svg xmlns="http://www.w3.org/2000/svg" width="143.314" height="42.262" viewBox="0 0 143.314 42.262"><defs><style>.a{fill:#3e3e3e;}</style></defs><g transform="translate(-8.528 -6.792)"><g transform="translate(8.528 6.792)"><path class="a" d="M20.831,21.246q-.041,3.38-.04,4.978,0,1.255.122,12.85V40H8.548q.041-1.113.142-15.035-.1-10.624-.162-12.587h21.45a10.687,10.687,0,0,1,1.639.061.622.622,0,0,1,.465.688q0,.708-.85.708l-1.214-.02q-2.914-.061-9.106-.121l-.081,6.273q1.052.02,2.064.02,1.4,0,7.224-.121.647-.02,1.538-.02a4.762,4.762,0,0,1,.951.061.6.6,0,0,1,.466.628q0,.789-1.255.789-.223,0-.81-.02Q25.688,21.185,20.831,21.246Z" transform="translate(-8.528 -10.724)"/><path class="a" d="M99.9,6.792l16.189,29.281H102.061l-1.922-3.7h-6.8l-5.99-.02-1.012-.02L85,34.8a10.96,10.96,0,0,1-.648,1.154.91.91,0,0,1-.749.506q-.688,0-.688-.587a2.669,2.669,0,0,1,.425-1.073q.284-.526,2.732-4.654,8.5-14.285,12.242-20.62Q99.532,7.46,99.9,6.792ZM93.6,20.046q-.547.871-3.541,5.969-2.469,4.25-2.833,4.917,2.873.081,6.091.081,2.792,0,6.07-.061Z" transform="translate(-60.843 -6.792)"/><path class="a" d="M229.945,9.178q1.012,3.4,4.412,15.076l2,6.678,1.8,6.05.243.769H226.1l-3.885-14.307-8.358,12.566-8.58-11.939q-1.234,4.371-2.691,10.725a12.8,12.8,0,0,1-.85,3.015,1,1,0,0,1-.85.324q-.891,0-.891-.607a19.035,19.035,0,0,1,.567-2.044l1.254-4.31L204,23.728q2.914-10.078,4.27-14.55l11.089,16.047Z" transform="translate(-143.178 -8.47)"/><path class="a" d="M352.531,6.792l16.189,29.281H354.7l-1.922-3.7h-6.8l-5.99-.02-1.012-.02L337.638,34.8a11.056,11.056,0,0,1-.648,1.154.909.909,0,0,1-.749.506q-.688,0-.688-.587a2.67,2.67,0,0,1,.425-1.073q.283-.526,2.732-4.654,8.5-14.285,12.243-20.62Q352.166,7.46,352.531,6.792Zm-6.293,13.254q-.546.871-3.541,5.969-2.469,4.25-2.833,4.917,2.873.081,6.091.081,2.793,0,6.071-.061Z" transform="translate(-238.508 -6.792)"/></g><g transform="translate(95.248 39.807)"><path class="a" d="M304.6,122.452q-.013,1.055-.013,1.554,0,.391.038,4.011v.29h-3.859q.013-.347.044-4.693-.032-3.316-.05-3.929h6.7a3.292,3.292,0,0,1,.512.019.194.194,0,0,1,.145.215q0,.221-.265.221l-.379-.007q-.909-.019-2.843-.038l-.025,1.958q.328.006.644.006.436,0,2.255-.038c.135,0,.295-.006.48-.006a1.476,1.476,0,0,1,.3.019.187.187,0,0,1,.145.2q0,.246-.392.246-.069,0-.253-.006Q306.114,122.434,304.6,122.452Z" transform="translate(-300.758 -119.2)"/><path class="a" d="M332.922,127.783v-.764q-.007-.758-.025-.96a.65.65,0,0,0-.41-.594,2.039,2.039,0,0,0-.764-.12,2.491,2.491,0,0,0-1.99.809q-.284.328-.486.329a.349.349,0,0,1-.246-.1.313.313,0,0,1-.107-.234q0-.4.941-.821a7.5,7.5,0,0,1,5.615.3,1.594,1.594,0,0,1,.6.9,5.94,5.94,0,0,1,.069,1.15v2.508a4.775,4.775,0,0,0,.076,1.213,2.539,2.539,0,0,0,.265.587h-3.537v-.663a4,4,0,0,1-2.28.8,2.7,2.7,0,0,1-1.674-.55,2.239,2.239,0,0,1-.953-1.87,2.012,2.012,0,0,1,.771-1.642,3.387,3.387,0,0,1,2.229-.739,4.034,4.034,0,0,1,1.238.177A6.565,6.565,0,0,1,332.922,127.783Zm.006.455a3.059,3.059,0,0,0-1.232-.4.461.461,0,0,0-.48.291,3.63,3.63,0,0,0-.063.916v1.51a4.194,4.194,0,0,0,.031.606q.063.291.423.291a1.68,1.68,0,0,0,.859-.291,2.485,2.485,0,0,0,.449-.341Z" transform="translate(-319.926 -122.882)"/><path class="a" d="M360.543,130.821a.54.54,0,0,1,.316.189,2.621,2.621,0,0,0,.947.524,3.167,3.167,0,0,0,1.036.2.581.581,0,0,0,.341-.088.252.252,0,0,0,.126-.221.676.676,0,0,0-.152-.36q-.126-.177-.726-.815a20.6,20.6,0,0,1-1.743-2.021,2.192,2.192,0,0,1-.417-1.156,1.665,1.665,0,0,1,.275-.906,2.338,2.338,0,0,1,.767-.736,3.474,3.474,0,0,1,1.87-.505,4.633,4.633,0,0,1,1.643.329q.675.259.675.562a.228.228,0,0,1-.088.177.24.24,0,0,1-.164.069,1.06,1.06,0,0,1-.455-.234,2.462,2.462,0,0,0-1.466-.48q-.555,0-.556.354a1.087,1.087,0,0,0,.3.6q.234.284,1.023,1.061.884.865,1.074,1.093a2.512,2.512,0,0,1,.663,1.592,1.812,1.812,0,0,1-.941,1.585,3.414,3.414,0,0,1-1.9.5,4.369,4.369,0,0,1-2.217-.556,1.807,1.807,0,0,1-.4-.291.324.324,0,0,1-.095-.228Q360.29,130.822,360.543,130.821Z" transform="translate(-342.61 -122.882)"/><path class="a" d="M387.135,122.3a8.848,8.848,0,0,1,.992-.6A4.259,4.259,0,0,1,390,121.24a2.824,2.824,0,0,1,1.39.329,1.727,1.727,0,0,1,.859,1.288,6.564,6.564,0,0,1,.063,1.042q0,.417-.013,1.011-.013.89-.013,1.187,0,1,.044,2.211h-3.24q.019-.417.025-3.9-.013-1.895-.032-2a.4.4,0,0,0-.455-.328,2.608,2.608,0,0,0-1.5.726q-.012.922-.013,1.567,0,.512.026,2.767l.019,1.168h-3.253l.012-2.665v-3.107l-.019-2.565c0-.025,0-.12.006-.284h3.221v.177l.006,1.08-.006,1.118Z" transform="translate(-359.233 -119.2)"/><path class="a" d="M421.611,120.257v.183l-.012.986-.013,1.528q-.012,2.053-.013,2.331,0,.474.019,1.3.006.379.013.568h-3.246q0-.5.031-2.324.019-1.105.019-2.072,0-.619-.013-1.061-.019-.928-.019-1.124,0-.069.007-.316Zm-1.6-2.211a3.089,3.089,0,0,1,1.105.177.7.7,0,0,1,.531.676.76.76,0,0,1-.537.726,2.825,2.825,0,0,1-1.118.19q-1.6,0-1.6-.9a.637.637,0,0,1,.316-.588A2.544,2.544,0,0,1,420.006,118.047Z" transform="translate(-383.46 -118.047)"/><path class="a" d="M437.944,124.922a3.534,3.534,0,0,1,1.882.562,3.388,3.388,0,0,1,1.282,1.415,3.655,3.655,0,0,1,.392,1.642,3.565,3.565,0,0,1-2.217,3.316,3.556,3.556,0,0,1-1.371.272,3.514,3.514,0,0,1-2.148-.707,3.455,3.455,0,0,1-1.131-1.4,3.654,3.654,0,0,1-.322-1.51,3.386,3.386,0,0,1,1.137-2.615A3.619,3.619,0,0,1,437.944,124.922Zm-.227.41L437.7,131.7c.135.008.236.012.3.012a2.991,2.991,0,0,0,1.207-.265,3.249,3.249,0,0,0,1.042-.714,3.007,3.007,0,0,0,.859-2.179,3.075,3.075,0,0,0-1.124-2.469,3.392,3.392,0,0,0-.948-.559,2.78,2.78,0,0,0-1.017-.205C437.952,125.32,437.851,125.324,437.716,125.332Z" transform="translate(-394.68 -122.882)"/><path class="a" d="M466.5,125.092v.878a4.93,4.93,0,0,1,2.823-1.048,2.687,2.687,0,0,1,1.516.41,1.721,1.721,0,0,1,.745,1.276,7.372,7.372,0,0,1,.044.935q0,.2-.007.9-.007.928-.007,2.122,0,.84.019,1.427h-3.215q.012-.518.025-1.756l.019-1.289q0-.24-.007-1.945-.006-.676-.016-.805a.613.613,0,0,0-.06-.231.433.433,0,0,0-.43-.2,2.4,2.4,0,0,0-1.453.707l-.007.259-.012,1.775q-.012,1.175-.012,1.358,0,.335.019,1.857l.006.272h-3.227q0-.991.019-2.476.013-1.156.013-1.655,0-.581-.013-1.4-.019-1.017-.019-1.371Z" transform="translate(-415.045 -122.882)"/></g></g></svg>