<svg xmlns="http://www.w3.org/2000/svg" width="240" height="31.039" viewBox="0 0 240 31.039"><defs><style>.a{fill:#3e3e3e;}</style></defs><g transform="translate(-17 -11.2)"><path class="a" d="M36.481,19.694a11.17,11.17,0,0,1,1.975.352,7.943,7.943,0,0,1,1.876.664,2.632,2.632,0,0,1,.94,1.581A13.5,13.5,0,0,1,41.6,25.7V37.766L25.284,18.422H17v1.272a7.835,7.835,0,0,1,2.035.451,6.45,6.45,0,0,1,1.989,1.008,3,3,0,0,1,.879,1.272,4.356,4.356,0,0,1,.323,1.646v12.5a15.7,15.7,0,0,1-.26,3.514,2.586,2.586,0,0,1-.977,1.532,5.447,5.447,0,0,1-1.641.56,12.858,12.858,0,0,1-1.855.348v1.269h11.9V42.522a11.922,11.922,0,0,1-1.951-.362,5.06,5.06,0,0,1-1.937-.731,3,3,0,0,1-.972-1.678,13.911,13.911,0,0,1-.321-3.383V23.286l17.594,20.76h1.775V25.466a16.314,16.314,0,0,1,.257-3.215,2.422,2.422,0,0,1,.992-1.723,6.92,6.92,0,0,1,1.7-.549,9.519,9.519,0,0,1,1.756-.285V18.422h-11.8Z" transform="translate(0 -4.514)"/><path class="a" d="M123.785,19.692a11.58,11.58,0,0,1,1.523.218,12,12,0,0,1,1.545.4,1.82,1.82,0,0,1,1.064.7,2.145,2.145,0,0,1,.219,1.043V40.415a1.762,1.762,0,0,1-.3,1.112,2.016,2.016,0,0,1-.981.637,6.255,6.255,0,0,1-1.476.215c-.688.05-1.225.087-1.591.108v1.268h13.07V42.488a9.588,9.588,0,0,1-1.646-.191,10.455,10.455,0,0,1-1.406-.309,1.931,1.931,0,0,1-1.011-.725,1.872,1.872,0,0,1-.3-1.041V21.886a2.168,2.168,0,0,1,.268-1.074,1.633,1.633,0,0,1,1.038-.7,13.284,13.284,0,0,1,1.537-.3c.583-.074,1.087-.115,1.515-.127v-1.27h-13.07Z" transform="translate(-68.441 -4.514)"/><path class="a" d="M590.661,37.874a10,10,0,0,1-1.812,1.8,8.612,8.612,0,0,1-2.4,1.213,9.848,9.848,0,0,1-3.049.458,9.1,9.1,0,0,1-3.994-.865,9.585,9.585,0,0,1-3.1-2.39,11.114,11.114,0,0,1-2.008-3.58,13.574,13.574,0,0,1-.705-4.485,17.438,17.438,0,0,1,.676-5.01,10.484,10.484,0,0,1,1.862-3.7,8.13,8.13,0,0,1,2.953-2.278,8.809,8.809,0,0,1,3.693-.773,6.737,6.737,0,0,1,3.086.691,7.127,7.127,0,0,1,2.326,1.911,10.677,10.677,0,0,1,1.53,2.632,19.026,19.026,0,0,1,.986,2.884h1.675l-.181-9.091h-1.642l-.839,1.219a15.541,15.541,0,0,0-3.31-1.312,15.891,15.891,0,0,0-9.292.508,12.952,12.952,0,0,0-4.4,2.745,12.643,12.643,0,0,0-2.947,4.287,13.924,13.924,0,0,0-1.065,5.542,13.211,13.211,0,0,0,1.088,5.487,12.209,12.209,0,0,0,2.9,4.122,12.77,12.77,0,0,0,4.225,2.594,14.954,14.954,0,0,0,11.882-.729,11.4,11.4,0,0,0,4.654-5.424l-1.522-.642A10,10,0,0,1,590.661,37.874Z" transform="translate(-373.297 -3.455)"/><g transform="translate(165.843 11.2)"><path class="a" d="M492,35.971a12.407,12.407,0,0,0,2.381-3.613,13.738,13.738,0,0,0,1.1-5.606,14.02,14.02,0,0,0-1.084-5.607,12.543,12.543,0,0,0-3-4.321,13.041,13.041,0,0,0-4.416-2.726,15.585,15.585,0,0,0-10.76-.02,13.461,13.461,0,0,0-3.076,1.634l-4.2-4.512-1.281.96L471.89,16.7c-.043.039-.093.078-.138.12a12.875,12.875,0,0,0-3.039,4.284,13.554,13.554,0,0,0-1.114,5.644,13.989,13.989,0,0,0,1.053,5.413,12.708,12.708,0,0,0,2.894,4.306,13.074,13.074,0,0,0,4.4,2.827,15.637,15.637,0,0,0,10.084.348l.027,0v-.01c.285-.093.564-.174.841-.277a13.328,13.328,0,0,0,3.931-2.3l4.825,5.181,1.284-.957Zm-1.98-4.519a12.432,12.432,0,0,1-.6,1.747L475.064,17.772a7.786,7.786,0,0,1,6.481-3.018,8.394,8.394,0,0,1,3.884.872,7.933,7.933,0,0,1,2.823,2.422,11.53,11.53,0,0,1,1.7,3.807,19.26,19.26,0,0,1,.585,4.9A19.317,19.317,0,0,1,490.018,31.452Z" transform="translate(-467.599 -11.2)"/></g><g transform="translate(102.388 13.212)"><path class="a" d="M302.091,24.447a12.544,12.544,0,0,0-3.01-4.248,13.089,13.089,0,0,0-4.413-2.68A15.879,15.879,0,0,0,283.9,17.5a13.514,13.514,0,0,0-4.463,2.7,12.694,12.694,0,0,0-3.041,4.212,13.254,13.254,0,0,0-1.1,5.549,13.557,13.557,0,0,0,1.045,5.323,12.415,12.415,0,0,0,2.9,4.234,12.989,12.989,0,0,0,4.408,2.78,15.91,15.91,0,0,0,10.943.062A13.448,13.448,0,0,0,299,39.7a12.234,12.234,0,0,0,3.069-4.227,13.316,13.316,0,0,0,1.094-5.513A13.717,13.717,0,0,0,302.091,24.447ZM297.7,34.581a11.346,11.346,0,0,1-1.674,3.7,7.411,7.411,0,0,1-2.858,2.51,9.234,9.234,0,0,1-7.951.016,7.844,7.844,0,0,1-2.782-2.473,10.768,10.768,0,0,1-1.674-3.7,18.572,18.572,0,0,1-.536-4.67,19.339,19.339,0,0,1,.5-4.46,11.8,11.8,0,0,1,1.522-3.7,8.038,8.038,0,0,1,2.805-2.637,8.158,8.158,0,0,1,4.163-.995,8.493,8.493,0,0,1,3.886.857,7.766,7.766,0,0,1,2.817,2.381,11.024,11.024,0,0,1,1.715,3.743,18.632,18.632,0,0,1,.576,4.814A19.185,19.185,0,0,1,297.7,34.581Z" transform="translate(-275.287 -16.567)"/></g><path class="a" d="M207.312,37.874a10.142,10.142,0,0,1-1.808,1.8,8.619,8.619,0,0,1-2.406,1.213,9.848,9.848,0,0,1-3.046.458,9.14,9.14,0,0,1-4-.865,9.466,9.466,0,0,1-3.1-2.39,11.072,11.072,0,0,1-2.011-3.58,13.623,13.623,0,0,1-.707-4.485,17.478,17.478,0,0,1,.675-5.01,10.642,10.642,0,0,1,1.862-3.7,8.114,8.114,0,0,1,2.953-2.278,8.817,8.817,0,0,1,3.688-.773,6.768,6.768,0,0,1,3.1.691,7.254,7.254,0,0,1,2.334,1.911,11.117,11.117,0,0,1,1.522,2.632,18.509,18.509,0,0,1,.984,2.884h1.674l-.181-9.091H207.2l-.833,1.219a15.581,15.581,0,0,0-3.312-1.312,15.916,15.916,0,0,0-9.3.508,12.752,12.752,0,0,0-7.34,7.032,13.858,13.858,0,0,0-1.061,5.542,13.294,13.294,0,0,0,1.082,5.487,12.162,12.162,0,0,0,2.9,4.122,12.888,12.888,0,0,0,4.222,2.594,14.956,14.956,0,0,0,11.882-.729,11.457,11.457,0,0,0,4.663-5.424l-1.524-.642A9.77,9.77,0,0,1,207.312,37.874Z" transform="translate(-112.603 -3.455)"/><g transform="translate(229.112 13.212)"><path class="a" d="M685.419,24.447a12.252,12.252,0,0,0-3-4.248A13.025,13.025,0,0,0,678,17.518a15.862,15.862,0,0,0-10.767-.02,13.557,13.557,0,0,0-4.469,2.7,12.8,12.8,0,0,0-3.041,4.212,13.282,13.282,0,0,0-1.112,5.549,13.5,13.5,0,0,0,1.057,5.323,12.286,12.286,0,0,0,2.9,4.234,12.946,12.946,0,0,0,4.4,2.78,15.919,15.919,0,0,0,10.946.062,13.38,13.38,0,0,0,4.417-2.658,12.1,12.1,0,0,0,3.066-4.227,13.318,13.318,0,0,0,1.1-5.513A13.55,13.55,0,0,0,685.419,24.447Zm-4.385,10.134a11.217,11.217,0,0,1-1.666,3.7,7.459,7.459,0,0,1-2.864,2.51,9.246,9.246,0,0,1-7.956.016,7.866,7.866,0,0,1-2.772-2.473,10.939,10.939,0,0,1-1.682-3.7,18.855,18.855,0,0,1-.536-4.67,19.137,19.137,0,0,1,.507-4.46,11.942,11.942,0,0,1,1.521-3.7,7.92,7.92,0,0,1,6.974-3.632,8.508,8.508,0,0,1,3.888.857,7.868,7.868,0,0,1,2.819,2.381,11.127,11.127,0,0,1,1.709,3.743,18.368,18.368,0,0,1,.582,4.814A18.872,18.872,0,0,1,681.034,34.581Z" transform="translate(-658.611 -16.567)"/></g><path class="a" d="M411.161,40.736a4.362,4.362,0,0,1-1.929,1.29,8.4,8.4,0,0,1-2.874.44,8.426,8.426,0,0,0,2.874-.438,4.363,4.363,0,0,0,1.929-1.285,4.836,4.836,0,0,0,1.051-1.926,8.909,8.909,0,0,0,.3-2.47v-.011a8.958,8.958,0,0,1-.3,2.466A4.86,4.86,0,0,1,411.161,40.736Z" transform="translate(-259.21 -16.925)"/><g transform="translate(136.392 13.908)"><path class="a" d="M400.031,33.918a6.7,6.7,0,0,0-2.106-1.966,9.974,9.974,0,0,0-2.754-1.163,16.878,16.878,0,0,0-2.788-.548v-.155a13.709,13.709,0,0,0,2.627-.765,9.485,9.485,0,0,0,2.161-1.2,5.409,5.409,0,0,0,1.554-1.8,5.054,5.054,0,0,0,.554-2.383,4.244,4.244,0,0,0-.784-2.6,5.484,5.484,0,0,0-1.986-1.7,9.491,9.491,0,0,0-2.705-.94,15.52,15.52,0,0,0-2.974-.271H377.443v1.27a10.372,10.372,0,0,1,1.262.173,6.519,6.519,0,0,1,1.375.412,1.724,1.724,0,0,1,.925.749,2.246,2.246,0,0,1,.236,1.071V40.311a2,2,0,0,1-.262,1.083,1.823,1.823,0,0,1-.9.667,6.31,6.31,0,0,1-1.354.275c-.623.084-1.1.13-1.43.151v1.268h13.742a15.127,15.127,0,0,0,3.562-.421,11.63,11.63,0,0,0,3.1-1.256,6.979,6.979,0,0,0,2.287-2.141,5.393,5.393,0,0,0,.88-3.07A5.067,5.067,0,0,0,400.031,33.918ZM385.6,19.9v-.039c.448-.012,1.006-.024,1.666-.039s1.212-.033,1.65-.033a5.968,5.968,0,0,1,4.122,1.194,4.21,4.21,0,0,1,1.312,3.289V24.3a6.854,6.854,0,0,1-.3,2.157,4.1,4.1,0,0,1-1.051,1.682,4.445,4.445,0,0,1-1.929,1.122,9.55,9.55,0,0,1-2.874.382h-2.6Zm8.608,20.89a6.458,6.458,0,0,1-4.664,1.553,6.158,6.158,0,0,1-2.9-.57,1.841,1.841,0,0,1-1.041-1.7V31.157c.306-.015.754-.036,1.346-.051s1.35-.027,2.218-.027a7.514,7.514,0,0,1,4.935,1.443,4.627,4.627,0,0,1,1.727,3.7A6.062,6.062,0,0,1,394.2,40.793Z" transform="translate(-377.296 -18.422)"/></g></g></svg>