<svg xmlns="http://www.w3.org/2000/svg" width="131.049" height="38.578" viewBox="0 0 131.049 38.578"><defs><style>.a{fill:#3e3e3e;}</style></defs><g transform="translate(-19.461 -15.134)"><g transform="translate(19.461 15.134)"><path class="a" d="M22.3,47.949a8.944,8.944,0,0,0,1.787,1.813,9.044,9.044,0,0,0,5.6,1.839,8.015,8.015,0,0,0,3.22-.622,7.176,7.176,0,0,0,3.977-4.167,8.617,8.617,0,0,0,.54-3.057,5.8,5.8,0,0,0-1.273-3.949,10.506,10.506,0,0,0-3.165-2.436A37.085,37.085,0,0,0,28.9,35.587a21.082,21.082,0,0,1-4.083-2.029,10.821,10.821,0,0,1-3.166-3.111,8.99,8.99,0,0,1-1.272-5.086,10.262,10.262,0,0,1,.812-4.138A9,9,0,0,1,23.547,18a11.126,11.126,0,0,1,3.707-2.111,14.69,14.69,0,0,1,4.869-.758,14.441,14.441,0,0,1,4.49.623,11.181,11.181,0,0,1,3.517,1.92,11.831,11.831,0,0,0-.812,1.948q-.324,1.027-.647,2.6h-.649a14.055,14.055,0,0,0-.732-1.65,6.3,6.3,0,0,0-1.245-1.65,6.952,6.952,0,0,0-1.866-1.272,6.011,6.011,0,0,0-2.6-.514,7.738,7.738,0,0,0-2.788.487A6.684,6.684,0,0,0,26.578,19a6.1,6.1,0,0,0-1.461,2.138,7,7,0,0,0-.513,2.706,5.891,5.891,0,0,0,1.27,4,10.862,10.862,0,0,0,3.166,2.462A31.258,31.258,0,0,0,33.124,32.1a23.019,23.019,0,0,1,4.085,1.921,10.444,10.444,0,0,1,3.165,2.922A8.065,8.065,0,0,1,41.645,41.7a12.483,12.483,0,0,1-.892,4.707,11.071,11.071,0,0,1-2.6,3.868,11.579,11.579,0,0,1-4.165,2.543,16.376,16.376,0,0,1-5.6.893,13.967,13.967,0,0,1-5.438-.893,14.866,14.866,0,0,1-3.491-2.029,12.847,12.847,0,0,0,.678-2.245q.185-1,.35-2.57h.65A10.851,10.851,0,0,0,22.3,47.949Z" transform="translate(-19.461 -15.134)"/><path class="a" d="M115.266,63.478a12.079,12.079,0,0,1,7.521-6.629,16.86,16.86,0,0,1,5.086-.784,17.968,17.968,0,0,1,5.329.73,9.317,9.317,0,0,1,3.381,1.65,16.121,16.121,0,0,0-.675,1.706,17.943,17.943,0,0,0-.512,1.866h-.434a7.674,7.674,0,0,0-1.028-1.434,8.962,8.962,0,0,0-3.518-2.38,6.719,6.719,0,0,0-2.379-.406,9.146,9.146,0,0,0-4.193.893,7.755,7.755,0,0,0-2.869,2.462,10.677,10.677,0,0,0-1.623,3.706,19.786,19.786,0,0,0-.513,4.626q0,5.573,2.381,8.413t6.981,2.84a8.73,8.73,0,0,0,2.216-.3,12.556,12.556,0,0,0,2.219-.811,12,12,0,0,0,2.029-1.217,10.207,10.207,0,0,0,1.65-1.515l.27.163a16.187,16.187,0,0,0-.324,2.65,14.928,14.928,0,0,1-4.031,2.219,13.9,13.9,0,0,1-5,.919,16.9,16.9,0,0,1-4.68-.676A11.4,11.4,0,0,1,118.3,79.9a11.648,11.648,0,0,1-3.057-4.14,14.9,14.9,0,0,1-1.163-6.222A14.169,14.169,0,0,1,115.266,63.478Z" transform="translate(-87.185 -44.431)"/><path class="a" d="M211.091,59.852q3.162-3.785,9.225-3.787a12.525,12.525,0,0,1,4.95.892,10.363,10.363,0,0,1,3.491,2.382,9.432,9.432,0,0,1,2.082,3.49,13.284,13.284,0,0,1,.676,4.274c0,.361-.01.713-.028,1.055s-.045.695-.081,1.056l-5.789-.108q-2.869-.055-5.789-.055-1.786,0-3.543.055l-3.544.108a4.51,4.51,0,0,0-.054.812v.7a12.251,12.251,0,0,0,.62,3.949,8.978,8.978,0,0,0,1.815,3.165,8.674,8.674,0,0,0,2.92,2.111,9.624,9.624,0,0,0,4,.783,8.739,8.739,0,0,0,2.218-.3,12.633,12.633,0,0,0,2.219-.811,12.1,12.1,0,0,0,2.028-1.217,10.3,10.3,0,0,0,1.65-1.515l.27.163-.325,2.65a14.941,14.941,0,0,1-4.029,2.219,13.911,13.911,0,0,1-5.005.919,15.234,15.234,0,0,1-5.33-.892,11.793,11.793,0,0,1-4.165-2.6,11.65,11.65,0,0,1-2.706-4.031,13.2,13.2,0,0,1-.946-5.031Q207.926,63.639,211.091,59.852Zm5.951-1.136a7.9,7.9,0,0,0-2.273,2.3,10.917,10.917,0,0,0-1.352,3.03,15.913,15.913,0,0,0-.568,3.111q1.673.054,3.489.108t3.543.055q1.786,0,3.625-.055t3.572-.108a20.867,20.867,0,0,0-.244-3.084,9.7,9.7,0,0,0-.972-3.03,6.484,6.484,0,0,0-2.032-2.327,5.768,5.768,0,0,0-3.406-.919A5.96,5.96,0,0,0,217.042,58.716Z" transform="translate(-154.36 -44.431)"/><path class="a" d="M322.242,60.447a4.87,4.87,0,0,0-1.6-.27,4.551,4.551,0,0,0-2.327.6,5.4,5.4,0,0,0-1.73,1.594,7.641,7.641,0,0,0-1.082,2.382,11.121,11.121,0,0,0-.378,2.949v5.951q0,3.626.026,5.546a26.644,26.644,0,0,0,.19,3.111c-.723-.072-1.443-.108-2.165-.108q-1.191,0-2.272.108.165-1.839.19-5.005t.028-7.764V67.805q0-2.11-.028-4.869t-.19-6.33q.6.108,1.136.188a7.666,7.666,0,0,0,1.136.082,6.961,6.961,0,0,0,1.028-.082c.36-.054.74-.116,1.137-.188q-.216,1.947-.244,3.083t-.026,2.164l.108.055q3.189-5.843,7.142-5.843a5.636,5.636,0,0,1,.838.054,4.3,4.3,0,0,1,.893.271,6.025,6.025,0,0,0-.324,1.974q-.054,1.326-.054,2.408l-.38.27A2.445,2.445,0,0,0,322.242,60.447Z" transform="translate(-228.072 -44.431)"/><g transform="translate(96.799 0)"><path class="a" d="M381.482,23.536c1.191,2.994,2.556,6,3.91,9.321s2.968,6.792,4.393,10.256,2.991,6.788,4.5,9.9c-.505-.072-.964-.054-1.435-.108a12.677,12.677,0,0,0-1.433,0,10.351,10.351,0,0,0-1.295,0c-.468.054-1.067.036-1.574.108-.541-2.513-11.181-27.829-12.336-30.57-.649,1.479-8.088,18.874-8.791,20.749s-1.344,3.626-1.92,5.248-1.064,3.382-1.461,4.573c-.828-.073-1.462-.108-2-.108s-1.278.042-2,.108c2.815-6.276,5.952-12.66,8.549-18.828s5.679-12.854,8.387-19.047H378C378.831,17.263,380.291,20.541,381.482,23.536Z" transform="translate(-360.035 -15.134)"/></g></g></g></svg>