<svg xmlns="http://www.w3.org/2000/svg" width="115.777" height="52.922" viewBox="0 0 115.777 52.922"><defs><style>.a,.b{fill:#3e3e3e;stroke:#3e3e3e;stroke-width:0.7px;}.b{stroke-miterlimit:10;}</style></defs><g transform="translate(-18.757 -7.301)"><g transform="translate(19.107 7.651)"><path class="a" d="M30.782,18.747v8.572c0,3.687-2.453,6.663-5.5,6.663h-5.5V48.106h-.677V12.085h6.176C28.329,12.085,30.782,15.061,30.782,18.747Zm-.634,0c0-3.331-2.2-6-4.864-6h-5.5v20.52h5.5c2.665,0,4.864-2.709,4.864-5.952Z" transform="translate(-19.107 -10.942)"/><path class="a" d="M99.5,12.446l7.167,35.928h-.755l-2.263-11.281H94.315L92,48.374h-.8l7.356-35.928Zm4.007,23.937L99.03,13.912,94.456,36.383Z" transform="translate(-73.344 -11.209)"/><path class="a" d="M190.608,47.4v.71h-9.9V12.085h.755V47.4Z" transform="translate(-140.592 -10.942)"/><path class="a" d="M255.47,16.258v24.2a6.874,6.874,0,0,1-7.117,6.605h-.5a6.906,6.906,0,0,1-7.118-6.605v-24.2A6.957,6.957,0,0,1,247.9,9.607h.5A6.9,6.9,0,0,1,255.47,16.258Zm-.8,0A6.115,6.115,0,0,0,248.4,10.3h-.5a6.237,6.237,0,0,0-6.371,5.959v24.2a6.148,6.148,0,0,0,6.322,5.867h.5a6.147,6.147,0,0,0,6.321-5.867Z" transform="translate(-185.821 -9.103)"/><path class="a" d="M343.707,7.651V45.616h-.742V9.71l-7.613,24.342h-.593l-7.466-23.921V45.616H326.5V7.651h.89l7.663,24.81,7.663-24.81Z" transform="translate(-250.41 -7.651)"/><path class="a" d="M429.219,12.446l7.167,35.928h-.754l-2.263-11.281h-9.335l-2.311,11.281h-.8l7.355-35.928Zm4.008,23.937-4.479-22.471-4.573,22.471Z" transform="translate(-321.386 -11.209)"/></g><g transform="translate(63.51 50.156)"><path class="a" d="M199.218,191.032v-3.552a1.254,1.254,0,0,1,1.428-1.416h.174a1.254,1.254,0,0,1,1.428,1.416v.824h-.29v-.824c0-.789-.348-1.149-1.138-1.149h-.174c-.789,0-1.138.36-1.138,1.149v3.552c0,.789.348,1.149,1.138,1.149h.174c.789,0,1.138-.36,1.138-1.149v-.871h.29v.871a1.254,1.254,0,0,1-1.428,1.416h-.174A1.254,1.254,0,0,1,199.218,191.032Z" transform="translate(-199.218 -184.415)"/><path class="a" d="M214.882,191.032v-3.552a1.254,1.254,0,0,1,1.428-1.416h.2a1.254,1.254,0,0,1,1.428,1.416v3.552a1.254,1.254,0,0,1-1.428,1.416h-.2A1.254,1.254,0,0,1,214.882,191.032Zm1.625,1.149c.789,0,1.137-.36,1.137-1.149v-3.552c0-.789-.348-1.149-1.137-1.149h-.2c-.789,0-1.138.36-1.138,1.149v3.552c0,.789.348,1.149,1.138,1.149Z" transform="translate(-210.843 -184.415)"/><path class="a" d="M233.916,187.479v4.911h-.29v-4.911c0-.789-.348-1.149-1.138-1.149h-.081c-.789,0-1.254.36-1.254,1.149v4.911h-.29v-6.268h.244l.035.685a1.256,1.256,0,0,1,1.265-.743h.081A1.254,1.254,0,0,1,233.916,187.479Z" transform="translate(-222.702 -184.415)"/><path class="a" d="M246.751,191.032v-3.552a1.254,1.254,0,0,1,1.428-1.416h.174a1.254,1.254,0,0,1,1.428,1.416v.824h-.29v-.824c0-.789-.348-1.149-1.138-1.149h-.174c-.79,0-1.138.36-1.138,1.149v3.552c0,.789.348,1.149,1.138,1.149h.174c.789,0,1.138-.36,1.138-1.149v-.871h.29v.871a1.254,1.254,0,0,1-1.428,1.416h-.174A1.254,1.254,0,0,1,246.751,191.032Z" transform="translate(-234.493 -184.415)"/><path class="a" d="M262.705,189.023v2.008c0,.789.348,1.149,1.138,1.149h.174c.789,0,1.138-.36,1.138-1.149v-.789h.29v.789a1.254,1.254,0,0,1-1.428,1.416h-.174a1.254,1.254,0,0,1-1.428-1.416v-3.552a1.254,1.254,0,0,1,1.428-1.416h.174a1.254,1.254,0,0,1,1.428,1.416v1.544Zm0-1.544v1.277h2.45v-1.277c0-.789-.348-1.149-1.138-1.149h-.174C263.054,186.33,262.705,186.69,262.705,187.479Z" transform="translate(-246.118 -184.415)"/><path class="a" d="M281.359,187.479v3.552a1.254,1.254,0,0,1-1.428,1.416h-.081a1.248,1.248,0,0,1-1.254-.72v2.4h-.29v-8.01h.244l.035.685a1.255,1.255,0,0,1,1.265-.743h.081A1.254,1.254,0,0,1,281.359,187.479Zm-.29,0c0-.789-.348-1.149-1.138-1.149h-.081c-.789,0-1.254.36-1.254,1.149v3.552c0,.789.464,1.149,1.254,1.149h.081c.789,0,1.138-.36,1.138-1.149Z" transform="translate(-257.911 -184.415)"/><path class="a" d="M293.6,181.645v4.585c0,.789.348,1.149,1.138,1.149h.14v.267h-.14a1.254,1.254,0,0,1-1.428-1.416v-4.585h-.557v-.267h.557v-1.637l.29-.07v1.707h1.277v.267Z" transform="translate(-268.633 -179.671)"/></g><path class="b" d="M301.019,188.058" transform="translate(-211.707 -135.739)"/><path class="b" d="M293.392,188.058" transform="translate(-205.979 -135.739)"/><rect class="a" width="8.038" height="0.433" transform="translate(54.759 55.076)"/><rect class="a" width="8.038" height="0.433" transform="translate(90.553 55.076)"/></g></svg>