<svg xmlns="http://www.w3.org/2000/svg" width="115.344" height="59.236" viewBox="0 0 115.344 59.236"><defs><style>.a{fill:#3e3e3e;stroke:#3e3e3e;}</style></defs><g transform="translate(-13.238 -9.5)"><path class="a" d="M117.906,36.78h-2.264v.907h5.747V36.78h-2.351L110.183,15h-4.221v1.21h2.282L99.729,36.78H97.492v.907h5.445V36.78h-2.029l2.792-7.26h11.368Zm-13.757-8.167,5.242-12.749,5.242,12.749Z" transform="translate(-63.487 -3.79)"/><path class="a" d="M288.143,37.688h5.088V36.175h-3.557l7.744-19.965h2.469V15h-6.655v1.21h3.008l-7.584,20.023L280.993,16.21h2.86V15H277.5v1.21h2.314Z" transform="translate(-199.936 -3.79)"/><path class="a" d="M366.256,36.78v.907H371.7V36.78h-2.2l2.792-7.26h11.368l2.838,7.26H384.1v.907h6.05V36.78h-2.526L378.772,15h-4.651v1.21h2.712l-8.515,20.57ZM377.98,15.864l5.242,12.749H372.738Z" transform="translate(-267.214 -3.79)"/><path class="a" d="M141.771,134.042a13.35,13.35,0,0,0-4.37-2.928,13.648,13.648,0,0,0-5.215-.982,13.266,13.266,0,0,0-5.1.982A13.474,13.474,0,0,0,122.748,134a13.907,13.907,0,0,0-3.075,4.507,13.637,13.637,0,0,0-1.056,5.353,15.152,15.152,0,0,0,.872,5.187,13.013,13.013,0,0,0,2.543,4.288,13.815,13.815,0,0,0,4.581,3.434,13.208,13.208,0,0,0,5.536,1.157,13.691,13.691,0,0,0,5.591-1.138,13.873,13.873,0,0,0,4.636-3.379,13.107,13.107,0,0,0,2.662-4.323,14.932,14.932,0,0,0,.881-5.224,13.566,13.566,0,0,0-1.047-5.316A13.785,13.785,0,0,0,141.771,134.042Zm1.754,15.038a13.1,13.1,0,0,1-2.947,4.369,11.432,11.432,0,0,1-3.819,2.506,12.409,12.409,0,0,1-4.609.836,11.637,11.637,0,0,1-4.673-.992,12.525,12.525,0,0,1-4.048-2.809,11.941,11.941,0,0,1-2.561-4.112,14.118,14.118,0,0,1-.891-5.013,12.534,12.534,0,0,1,.983-4.847,13.086,13.086,0,0,1,2.763-4.187,11.813,11.813,0,0,1,3.856-2.653,11.607,11.607,0,0,1,4.572-.908,11.883,11.883,0,0,1,4.911.991,13.321,13.321,0,0,1,6.6,7.006,12.162,12.162,0,0,1,.863,4.525A13.815,13.815,0,0,1,143.524,149.08Z" transform="translate(-79.5 -91.061)"/><path class="a" d="M267.045,134.042a13.345,13.345,0,0,0-4.371-2.928,13.647,13.647,0,0,0-5.215-.982,13.265,13.265,0,0,0-5.1.982A13.466,13.466,0,0,0,248.023,134a13.915,13.915,0,0,0-3.076,4.507,13.645,13.645,0,0,0-1.056,5.353,15.147,15.147,0,0,0,.872,5.187,13.009,13.009,0,0,0,2.543,4.288,13.815,13.815,0,0,0,4.581,3.434,13.207,13.207,0,0,0,5.536,1.157,13.692,13.692,0,0,0,5.591-1.138,13.88,13.88,0,0,0,4.635-3.379,13.1,13.1,0,0,0,2.662-4.323,14.92,14.92,0,0,0,.881-5.224,13.561,13.561,0,0,0-1.046-5.316A13.787,13.787,0,0,0,267.045,134.042ZM268.8,149.08a13.091,13.091,0,0,1-2.946,4.369,11.436,11.436,0,0,1-3.819,2.506,12.407,12.407,0,0,1-4.608.836,11.637,11.637,0,0,1-4.674-.992,12.523,12.523,0,0,1-4.048-2.809,11.938,11.938,0,0,1-2.562-4.112,14.123,14.123,0,0,1-.891-5.013,12.539,12.539,0,0,1,.982-4.847A13.1,13.1,0,0,1,249,134.831a11.825,11.825,0,0,1,3.856-2.653,11.614,11.614,0,0,1,4.573-.908,11.887,11.887,0,0,1,4.911.991,13.318,13.318,0,0,1,6.6,7.006,12.163,12.163,0,0,1,.863,4.525A13.8,13.8,0,0,1,268.8,149.08Z" transform="translate(-174.459 -91.061)"/><path class="a" d="M393.144,157.311l-15.232-13.279,12.8-10.316h4.062v-1.21h-9.982v1.21h4.249L374.5,145.132V133.716h4.537v-1.21H368.756v1.21h3.932v24.2h-3.932v1.21h10.285v-1.21H374.5V146.867l2.448-2.094,14.52,12.538h-4.263v.908h9.982v-.908Z" transform="translate(-269.109 -92.861)"/><path class="a" d="M37.036,30.887l.222.4a6.065,6.065,0,0,0,2.311,1.818,7.922,7.922,0,0,0,3.179.588,7.06,7.06,0,0,0,4.932-1.671,5.7,5.7,0,0,0,1.845-4.437,5.035,5.035,0,0,0-1.349-3.653,9.5,9.5,0,0,0-4.342-2.227q-.512-.131-1.458-.349a10.112,10.112,0,0,1-2.9-.99,3.91,3.91,0,0,1-1.365-1.39,3.8,3.8,0,0,1-.434-1.856A4.309,4.309,0,0,1,39.042,13.8a5.119,5.119,0,0,1,3.614-1.259,4.32,4.32,0,0,1,3.164,1.142,4.225,4.225,0,0,1,.945,1.441,14.734,14.734,0,0,1,.435,2.726l.961.029V12.551L49.93,10H48.585l-1.332,2.088V13.6a5.713,5.713,0,0,0-2.082-1.463,7.261,7.261,0,0,0-2.72-.473A5.844,5.844,0,0,0,38.3,13.231a5.123,5.123,0,0,0-1.671,3.893,4.7,4.7,0,0,0,.332,1.783,4.394,4.394,0,0,0,.968,1.463,8.675,8.675,0,0,0,4.016,1.819q.652.16.977.247a10.227,10.227,0,0,1,4.342,2.016A4.211,4.211,0,0,1,48.5,27.647a4.859,4.859,0,0,1-1.512,3.762,5.827,5.827,0,0,1-4.1,1.39,5.759,5.759,0,0,1-4.063-1.361,4.845,4.845,0,0,1-1.46-2.816c-.057-.327-.052-4.048-.065-4.411l-.936-.02v5.28l-.057-.054-1.5,6.6h1.228Z" transform="translate(-15.971)"/><path class="a" d="M215.126,39.669l.817-.638-2.11-2.946V31.033h-.908V36.78H202.337V16.21h3.63V15H197.5v1.21h3.327V36.78H197.5v.907h16.175Z" transform="translate(-139.292 -3.79)"/><path class="a" d="M34.005,151.261H32.493v6.05H19.485v-23.9H23.72v-.908H13.738v.908h4.537v23.9H13.738v.908H33.851l1.835,2.72,1.007-.561L34.005,157.1Z" transform="translate(0 -92.861)"/></g></svg>