<svg xmlns="http://www.w3.org/2000/svg" width="155.48" height="63.905" viewBox="0 0 155.48 63.905"><defs><style>.a{fill:#3e3e3e;}</style></defs><g transform="translate(-13.519 -14.802)"><g transform="translate(13.519 14.802)"><path class="a" d="M13.519,52.667l.235-1.384h3.269L31,17.811H27.049l.244-1.439H37.937l-3.861,27.5,19.29-27.5h9.493l-.245,1.439H59.451L45.4,51.282h3.974l-.235,1.384H36.427l.235-1.384h3.713l13.8-33.038H53.6L29.575,52.667H28.085l4.741-34.531h-.419L18.461,51.282h3.687l-.235,1.384Z" transform="translate(-13.519 -15.856)"/><path class="a" d="M143.743,49.036l6.235-14.442h-3.939l.235-1.384q2.326,0,4.426-.122t3.95-.393L146.7,50.963c-.064.163-.112.3-.149.407a2.143,2.143,0,0,0-.077.3.994.994,0,0,0,.233.855,1.053,1.053,0,0,0,.838.367,4.875,4.875,0,0,0,3.041-1.7,21.54,21.54,0,0,0,3.491-4.656l.984.516a18.393,18.393,0,0,1-4.473,5.782,7.965,7.965,0,0,1-5.011,2.172,2.581,2.581,0,0,1-2.763-3.285,6.661,6.661,0,0,1,.3-1.072Q143.34,50.014,143.743,49.036Zm10.389-27.608a3.053,3.053,0,0,1,1.039-1.833,2.85,2.85,0,0,1,1.922-.746,1.924,1.924,0,0,1,1.616.746,2.255,2.255,0,0,1,.391,1.833,3.131,3.131,0,0,1-1.029,1.846,2.721,2.721,0,0,1-1.859.761,2.011,2.011,0,0,1-1.654-.761A2.217,2.217,0,0,1,154.132,21.428Z" transform="translate(-100.268 -17.519)"/><path class="a" d="M200.97,77.249a17.85,17.85,0,0,1-4.937,4.507,10.777,10.777,0,0,1-5.43,1.412,5.458,5.458,0,0,1-4.744-2.4,7.74,7.74,0,0,1-1.08-5.958,13.116,13.116,0,0,1,1.456-4.032,21.417,21.417,0,0,1,2.992-4.14,21.081,21.081,0,0,1,5.241-4.3,10.527,10.527,0,0,1,5.112-1.534,5.344,5.344,0,0,1,3.821,1.29,3.389,3.389,0,0,1,1.035,3.217,3.346,3.346,0,0,1-.933,1.873,2.352,2.352,0,0,1-1.706.733,1.844,1.844,0,0,1-1.474-.556,1.785,1.785,0,0,1-.315-1.534,2.859,2.859,0,0,1,1.12-1.67q.973-.8,1.029-1.127.074-.433-.666-.774a4.556,4.556,0,0,0-1.891-.34,5.7,5.7,0,0,0-3.009.937,12.245,12.245,0,0,0-3.01,2.782,24.544,24.544,0,0,0-3.254,5.606,27.638,27.638,0,0,0-2,6.366,4,4,0,0,0,.424,3.122,3.2,3.2,0,0,0,2.714,1.032,8.5,8.5,0,0,0,4.39-1.29,16.9,16.9,0,0,0,4.314-3.923Z" transform="translate(-128.373 -45.677)"/><path class="a" d="M238.1,51.613,252.812,16.7h-3.949l.235-1.384q2.728-.055,4.685-.177t3.64-.339L247.749,38.04a11.139,11.139,0,0,1,1.147-.285,5.038,5.038,0,0,1,.905-.1,10.53,10.53,0,0,1,1.563.19.62.62,0,0,0,.152.027,13.206,13.206,0,0,0,3.236-3.5q.922-1.276,1.457-1.954a7.041,7.041,0,0,1,2.112-1.819,5.088,5.088,0,0,1,2.461-.624,2.642,2.642,0,0,1,1.925.679,1.723,1.723,0,0,1,.538,1.6,3.534,3.534,0,0,1-.857,1.887,2.08,2.08,0,0,1-1.569.693,1.551,1.551,0,0,1-1.213-.475,1.307,1.307,0,0,1-.315-1.154,3.493,3.493,0,0,1,.238-.787c.116-.272.176-.416.179-.435a.374.374,0,0,0-.062-.326.4.4,0,0,0-.309-.108q-1.1,0-3.148,2.674a25.942,25.942,0,0,1-3.665,4.031,3.581,3.581,0,0,1,2.134,1.982,6.234,6.234,0,0,1,.25,3.529,26.317,26.317,0,0,1-.734,3.095q-.487,1.629-.514,1.792a1.418,1.418,0,0,0,.1.95.688.688,0,0,0,.646.352q1.021,0,2.561-1.6a23.365,23.365,0,0,0,3.161-4.371l.828.516a16.749,16.749,0,0,1-4.2,5.538,7.644,7.644,0,0,1-4.819,2.118,2.322,2.322,0,0,1-2.011-.937,3.11,3.11,0,0,1-.424-2.43,6.422,6.422,0,0,1,.228-.882q.164-.5.378-.991l1.827-3.827a7.361,7.361,0,0,0,.347-.964,10.474,10.474,0,0,0,.288-1.235,1.8,1.8,0,0,0-.169-1.235.907.907,0,0,0-.818-.5,2.765,2.765,0,0,0-.643.244,8.014,8.014,0,0,1-3.635.923h-.549l-4.795,11.293Z" transform="translate(-164.269 -14.802)"/><path class="a" d="M321.4,79.505a11.931,11.931,0,0,1-3.391,2.8,7.834,7.834,0,0,1-3.735.977,4.9,4.9,0,0,1-4.371-2.212,7.67,7.67,0,0,1-.878-5.687,14.266,14.266,0,0,1,1.863-4.886,23.63,23.63,0,0,1,3.863-4.8,20.49,20.49,0,0,1,4.674-3.5,9.447,9.447,0,0,1,4.366-1.222,4.369,4.369,0,0,1,2.96.9,3.736,3.736,0,0,1,1.133,2.715l1.441-3.095h3.739l-6.6,14.714q-.805,1.819-1.129,2.647a7.05,7.05,0,0,0-.4,1.262,1.135,1.135,0,0,0,.133.828.708.708,0,0,0,.636.339,4.58,4.58,0,0,0,2.96-1.723,21.978,21.978,0,0,0,3.351-4.792l1.055.407a21.223,21.223,0,0,1-4.383,6.026,7.029,7.029,0,0,1-4.657,2.09,2.57,2.57,0,0,1-2.286-.937A3.959,3.959,0,0,1,321.4,79.505ZM323.9,62.131a4.922,4.922,0,0,0-2.952,1.059,15.635,15.635,0,0,0-3.148,3.447,36.363,36.363,0,0,0-3.422,5.9,22.13,22.13,0,0,0-1.808,5.334,4.1,4.1,0,0,0,.345,2.973,2.551,2.551,0,0,0,2.3,1.018,5.765,5.765,0,0,0,3.417-1.181,13.407,13.407,0,0,0,3.236-3.651,25.12,25.12,0,0,0,1.438-2.619q.878-1.778,1.831-4,.566-1.33.927-2.457a14.568,14.568,0,0,0,.5-1.968,3.946,3.946,0,0,0-.333-2.891A2.628,2.628,0,0,0,323.9,62.131Z" transform="translate(-211.766 -45.789)"/><path class="a" d="M385.694,46.32,398.753,16.7h-4.237l.235-1.384q2.389-.055,4.541-.177t4.072-.339L388.922,47.487a4.943,4.943,0,0,0-.273.679,5.114,5.114,0,0,0-.167.679,1.19,1.19,0,0,0,.157.923.867.867,0,0,0,.751.353,4.643,4.643,0,0,0,2.991-1.52,25.115,25.115,0,0,0,3.7-4.778l.984.516a24.684,24.684,0,0,1-4.656,6.013,6.908,6.908,0,0,1-4.514,1.941,3.4,3.4,0,0,1-2.583-.883,2.662,2.662,0,0,1-.573-2.4,6.556,6.556,0,0,1,.311-1.059Q385.3,47.27,385.694,46.32Z" transform="translate(-262.665 -14.802)"/></g><g transform="translate(84.095 65.42)"><path class="a" d="M228.208,179.12v-.378h.927l2.351-9.142h-1.12v-.393h3.018l.23,7.511,4.144-7.511h2.692v.393h-.9l-2.372,9.142h1.127v.378h-3.6v-.378h1.053l2.321-9.024h-.163l-5.153,9.4h-.422l-.319-9.432H231.9l-2.357,9.054h1.045v.378Z" transform="translate(-228.208 -169.066)"/><path class="a" d="M263.373,185.308a3.408,3.408,0,0,1,.227-1.22,4.525,4.525,0,0,1,.685-1.183,4.31,4.31,0,0,1,1.264-1.153,2.917,2.917,0,0,1,1.45-.367,2.064,2.064,0,0,1,1.579.649,2.357,2.357,0,0,1,.609,1.68,3.378,3.378,0,0,1-.234,1.2,4.452,4.452,0,0,1-.679,1.179,3.834,3.834,0,0,1-1.227,1.027,3.13,3.13,0,0,1-1.457.359,2.149,2.149,0,0,1-1.587-.63A2.1,2.1,0,0,1,263.373,185.308Zm3.582-3.633a1.668,1.668,0,0,0-.879.223,1.728,1.728,0,0,0-.611.675,5.322,5.322,0,0,0-.274.623q-.134.356-.3.971t-.259,1.075a4.354,4.354,0,0,0-.082.764,1.184,1.184,0,0,0,.279.853,1.085,1.085,0,0,0,.819.289,1.622,1.622,0,0,0,.93-.278,1.794,1.794,0,0,0,.634-.775,9.3,9.3,0,0,0,.557-1.665,7.145,7.145,0,0,0,.2-1.6,1.278,1.278,0,0,0-.256-.864A.955.955,0,0,0,266.955,181.675Z" transform="translate(-251.813 -177.241)"/><path class="a" d="M286.645,178.01a2.64,2.64,0,0,1-.838.764,2.031,2.031,0,0,1-1,.259,1.8,1.8,0,0,1-1.379-.615,2.174,2.174,0,0,1-.563-1.527,3.384,3.384,0,0,1,.278-1.305,5.052,5.052,0,0,1,.8-1.29,4.315,4.315,0,0,1,1.186-1.023,2.558,2.558,0,0,1,1.261-.349,1.59,1.59,0,0,1,.808.182,1.185,1.185,0,0,1,.482.567l1.231-4.36h-1.216v-.378q.652,0,1.268-.037t1.179-.1l-2.521,8.972a.225.225,0,0,0-.014.037.971.971,0,0,0-.06.3.351.351,0,0,0,.1.259.371.371,0,0,0,.274.1,1.114,1.114,0,0,0,.787-.5,4.7,4.7,0,0,0,.734-1.353l.348.133a4.977,4.977,0,0,1-.967,1.7,1.644,1.644,0,0,1-1.205.582.991.991,0,0,1-.719-.245.928.928,0,0,1-.252-.7Zm-.185-4.782a1.343,1.343,0,0,0-.838.289,2.7,2.7,0,0,0-.7.882,6.315,6.315,0,0,0-.281.649q-.142.375-.26.812-.178.616-.263,1.031a3.521,3.521,0,0,0-.085.667,1.2,1.2,0,0,0,.245.812.917.917,0,0,0,.727.278,1.456,1.456,0,0,0,1-.408,3.092,3.092,0,0,0,.753-1.2,10.083,10.083,0,0,0,.467-1.553,6.463,6.463,0,0,0,.186-1.272,1.023,1.023,0,0,0-.241-.734A.944.944,0,0,0,286.46,173.227Z" transform="translate(-264.897 -168.793)"/><path class="a" d="M308.833,186.451a2.589,2.589,0,0,1-.826.764,2.02,2.02,0,0,1-1.012.267,1.7,1.7,0,0,1-1.346-.6,2.291,2.291,0,0,1-.523-1.554,3.3,3.3,0,0,1,.293-1.335,5.086,5.086,0,0,1,.864-1.312,4.489,4.489,0,0,1,1.156-.956,2.417,2.417,0,0,1,1.179-.334,1.455,1.455,0,0,1,.882.245,1.229,1.229,0,0,1,.452.742l.259-.845h1.061l-1.164,4.018q-.142.5-.193.723a1.662,1.662,0,0,0-.052.345.339.339,0,0,0,.078.226.245.245,0,0,0,.2.093,1.059,1.059,0,0,0,.757-.471,4.738,4.738,0,0,0,.719-1.309l.319.111a4.57,4.57,0,0,1-.952,1.646,1.687,1.687,0,0,1-1.22.571.879.879,0,0,1-.694-.256A1.173,1.173,0,0,1,308.833,186.451Zm-.125-4.745a1.218,1.218,0,0,0-.786.289,3.345,3.345,0,0,0-.727.942,7.957,7.957,0,0,0-.686,1.612,5.2,5.2,0,0,0-.256,1.457,1.2,1.2,0,0,0,.241.812.876.876,0,0,0,.7.278,1.433,1.433,0,0,0,.912-.322,2.867,2.867,0,0,0,.742-1,5.463,5.463,0,0,0,.282-.715q.163-.486.326-1.094a6.8,6.8,0,0,0,.145-.671,3.552,3.552,0,0,0,.048-.537,1.16,1.16,0,0,0-.233-.79A.9.9,0,0,0,308.708,181.705Z" transform="translate(-279.84 -177.241)"/><path class="a" d="M332.749,173.412H331.54v-.348h1.32a8.965,8.965,0,0,1,1.438-3.222,2.517,2.517,0,0,1,2.01-1.064,1.3,1.3,0,0,1,.83.241.776.776,0,0,1,.3.641.7.7,0,0,1-.145.471.5.5,0,0,1-.4.167.7.7,0,0,1-.471-.145.505.505,0,0,1-.167-.4.646.646,0,0,1,.067-.3,1.521,1.521,0,0,0,.067-.137.16.16,0,0,0-.067-.137.36.36,0,0,0-.208-.048,1.309,1.309,0,0,0-1.116.8,14.154,14.154,0,0,0-1.027,3.133h1.357v.348H333.89l-.7,2.625a18.35,18.35,0,0,1-1.776,4.8,2.408,2.408,0,0,1-2.05,1.231,1.254,1.254,0,0,1-.793-.237.739.739,0,0,1-.3-.608.621.621,0,0,1,.163-.46.6.6,0,0,1,.444-.163.558.558,0,0,1,.4.141.48.48,0,0,1,.152.371.709.709,0,0,1-.066.289.7.7,0,0,0-.067.185.12.12,0,0,0,.07.111.475.475,0,0,0,.212.037,1.079,1.079,0,0,0,.693-.263,2.377,2.377,0,0,0,.582-.768,18.627,18.627,0,0,0,.879-3.107Q332.325,175.022,332.749,173.412Z" transform="translate(-295.376 -168.778)"/><path class="a" d="M350.357,184.4q-.111.415-.167.745a3.583,3.583,0,0,0-.056.59,1.418,1.418,0,0,0,.323,1,1.222,1.222,0,0,0,.939.345,1.765,1.765,0,0,0,1.082-.386,3.007,3.007,0,0,0,.86-1.082l.319.178a3.17,3.17,0,0,1-1.009,1.234,2.311,2.311,0,0,1-1.364.441,2.138,2.138,0,0,1-1.628-.671,2.44,2.44,0,0,1-.634-1.746,3.231,3.231,0,0,1,.222-1.175,3.963,3.963,0,0,1,.66-1.1,4.223,4.223,0,0,1,1.282-1.068,3.14,3.14,0,0,1,1.468-.363,1.536,1.536,0,0,1,1.031.334,1.083,1.083,0,0,1,.393.867,1.513,1.513,0,0,1-.964,1.349,5.687,5.687,0,0,1-2.618.5Zm.126-.364h.149a2.932,2.932,0,0,0,1.72-.441,1.406,1.406,0,0,0,.623-1.212.7.7,0,0,0-.175-.519.707.707,0,0,0-.515-.171,1.25,1.25,0,0,0-.953.589A6.143,6.143,0,0,0,350.483,184.033Z" transform="translate(-309.306 -177.211)"/><path class="a" d="M365.826,187.3l1.416-5.39h-1.127v-.378q.609,0,1.194-.034t1.157-.1l-.378,1.394a4.172,4.172,0,0,1,1.068-1.057,2.082,2.082,0,0,1,1.134-.345,1.343,1.343,0,0,1,.934.3,1.084,1.084,0,0,1,.326.845c0,.074,0,.131,0,.171a.756.756,0,0,1-.012.1,3.758,3.758,0,0,1,1.027-1.057,2.124,2.124,0,0,1,1.175-.352,1.478,1.478,0,0,1,.949.274.927.927,0,0,1,.341.764,2.633,2.633,0,0,1-.019.3,2.094,2.094,0,0,1-.056.3L374,186.384a1.672,1.672,0,0,0-.048.2.91.91,0,0,0-.011.137.21.21,0,0,0,.075.163.287.287,0,0,0,.2.067,1.014,1.014,0,0,0,.745-.43,5.4,5.4,0,0,0,.752-1.32l.274.126a4.067,4.067,0,0,1-.908,1.635,1.78,1.78,0,0,1-1.294.537.93.93,0,0,1-.656-.222.8.8,0,0,1-.241-.616,1.83,1.83,0,0,1,.033-.323q.034-.181.123-.486l.846-2.936a3.275,3.275,0,0,0,.085-.352,1.6,1.6,0,0,0,.026-.248.4.4,0,0,0-.152-.338.725.725,0,0,0-.441-.115,1.865,1.865,0,0,0-1.275.664,3.411,3.411,0,0,0-.9,1.568l-.853,3.2h-1.1l1.119-4.219q.008-.022.023-.074a2.927,2.927,0,0,0,.118-.593.509.509,0,0,0-.163-.408.681.681,0,0,0-.459-.141,1.813,1.813,0,0,0-1.243.649A3.362,3.362,0,0,0,367.8,184l-.9,3.292Z" transform="translate(-320.586 -177.241)"/><path class="a" d="M398.758,178.128l1.072-3.945h-1.117v-.378q.659,0,1.25-.034t1.1-.107l-1.374,4.99c-.01.045-.017.082-.022.111a.54.54,0,0,0-.008.082.309.309,0,0,0,.107.233.363.363,0,0,0,.256.1,1.131,1.131,0,0,0,.78-.464,4.594,4.594,0,0,0,.766-1.272l.3.141a3.943,3.943,0,0,1-.991,1.58,1.918,1.918,0,0,1-1.315.593.955.955,0,0,1-.683-.245.857.857,0,0,1-.259-.653,1.568,1.568,0,0,1,.034-.293Q398.691,178.4,398.758,178.128Zm1.615-7.541a.676.676,0,0,1,.207-.5.7.7,0,0,1,.509-.2.663.663,0,0,1,.494.2.729.729,0,0,1,0,1,.66.66,0,0,1-.49.208.693.693,0,0,1-.506-.208A.682.682,0,0,1,400.373,170.587Z" transform="translate(-342.602 -169.52)"/><path class="a" d="M410.991,187.265h-1.112l1.431-5.39h-1.127V181.5c.518,0,.964-.012,1.334-.037a9.682,9.682,0,0,0,1.024-.119l-.386,1.473a3.917,3.917,0,0,1,1.061-1.1,2.124,2.124,0,0,1,1.186-.37,1.6,1.6,0,0,1,1.023.3.975.975,0,0,1,.378.807,1.953,1.953,0,0,1-.029.307c-.02.118-.045.236-.074.352l-.979,3.314c-.015.059-.027.105-.034.137a.358.358,0,0,0-.012.07.253.253,0,0,0,.086.2.321.321,0,0,0,.219.074,1.033,1.033,0,0,0,.764-.43,5.03,5.03,0,0,0,.742-1.32l.289.126a4.568,4.568,0,0,1-.949,1.654,1.71,1.71,0,0,1-1.239.519,1.071,1.071,0,0,1-.712-.219.731.731,0,0,1-.259-.589,1.734,1.734,0,0,1,.029-.289c.02-.114.045-.227.074-.341l.9-3.082c.03-.123.052-.228.067-.315a1.332,1.332,0,0,0,.022-.2.618.618,0,0,0-.156-.465.672.672,0,0,0-.481-.15,1.87,1.87,0,0,0-1.324.705,4.1,4.1,0,0,0-.953,1.765Z" transform="translate(-350.157 -177.211)"/><path class="a" d="M432.75,178.128l1.073-3.945h-1.117v-.378q.659,0,1.249-.034c.394-.022.76-.058,1.1-.107l-1.375,4.99c-.01.045-.017.082-.023.111a.534.534,0,0,0-.007.082.309.309,0,0,0,.107.233.362.362,0,0,0,.255.1,1.135,1.135,0,0,0,.781-.464,4.635,4.635,0,0,0,.765-1.272l.3.141a3.955,3.955,0,0,1-.989,1.58,1.923,1.923,0,0,1-1.317.593.954.954,0,0,1-.682-.245.855.855,0,0,1-.26-.653,1.627,1.627,0,0,1,.034-.293Q432.684,178.4,432.75,178.128Zm1.616-7.541a.676.676,0,0,1,.206-.5.7.7,0,0,1,.509-.2.663.663,0,0,1,.494.2.729.729,0,0,1,0,1,.659.659,0,0,1-.49.208.693.693,0,0,1-.506-.208A.681.681,0,0,1,434.367,170.587Z" transform="translate(-365.42 -169.52)"/><path class="a" d="M444.985,187.265h-1.112l1.431-5.39h-1.128V181.5q.779,0,1.335-.037a9.668,9.668,0,0,0,1.023-.119l-.385,1.473a3.918,3.918,0,0,1,1.061-1.1,2.125,2.125,0,0,1,1.186-.37,1.606,1.606,0,0,1,1.023.3.975.975,0,0,1,.378.807,1.954,1.954,0,0,1-.029.307c-.02.118-.045.236-.075.352l-.978,3.314c-.015.059-.026.105-.034.137a.344.344,0,0,0-.011.07.252.252,0,0,0,.085.2.321.321,0,0,0,.219.074,1.033,1.033,0,0,0,.764-.43,5.022,5.022,0,0,0,.742-1.32l.289.126a4.558,4.558,0,0,1-.949,1.654,1.707,1.707,0,0,1-1.238.519,1.07,1.07,0,0,1-.712-.219.731.731,0,0,1-.259-.589,1.737,1.737,0,0,1,.029-.289c.02-.114.045-.227.074-.341l.9-3.082c.03-.123.052-.228.066-.315a1.269,1.269,0,0,0,.023-.2.62.62,0,0,0-.155-.465.676.676,0,0,0-.482-.15,1.869,1.869,0,0,0-1.324.705,4.1,4.1,0,0,0-.953,1.765Z" transform="translate(-372.976 -177.211)"/><path class="a" d="M469.483,186.451a2.587,2.587,0,0,1-.826.764,2.021,2.021,0,0,1-1.012.267,1.7,1.7,0,0,1-1.346-.6,2.289,2.289,0,0,1-.522-1.554,3.293,3.293,0,0,1,.293-1.335,5.067,5.067,0,0,1,.864-1.312,4.5,4.5,0,0,1,1.157-.956,2.417,2.417,0,0,1,1.179-.334,1.456,1.456,0,0,1,.882.245,1.235,1.235,0,0,1,.452.742l.259-.845h1.061l-1.164,4.018q-.142.5-.193.723a1.665,1.665,0,0,0-.052.345.342.342,0,0,0,.078.226.246.246,0,0,0,.2.093,1.059,1.059,0,0,0,.756-.471,4.73,4.73,0,0,0,.72-1.309l.319.111a4.57,4.57,0,0,1-.953,1.646,1.686,1.686,0,0,1-1.22.571.879.879,0,0,1-.693-.256A1.169,1.169,0,0,1,469.483,186.451Zm-.126-4.745a1.218,1.218,0,0,0-.786.289,3.34,3.34,0,0,0-.727.942,7.938,7.938,0,0,0-.686,1.612,5.173,5.173,0,0,0-.256,1.457,1.208,1.208,0,0,0,.241.812.879.879,0,0,0,.7.278,1.433,1.433,0,0,0,.912-.322,2.872,2.872,0,0,0,.742-1,5.53,5.53,0,0,0,.282-.715q.163-.486.326-1.094a6.8,6.8,0,0,0,.145-.671,3.6,3.6,0,0,0,.048-.537,1.157,1.157,0,0,0-.234-.79A.9.9,0,0,0,469.357,181.705Z" transform="translate(-387.679 -177.241)"/></g></g></svg>