<svg xmlns="http://www.w3.org/2000/svg" width="220" height="28.542" viewBox="0 0 220 28.542"><defs><style>.a{fill:#3e3e3e;}</style></defs><g transform="translate(-366.564 154.804)"><g transform="translate(498.914 -154.399)"><path class="a" d="M656.674-126.277h-4V-154h4Zm-2.043-1.785h.09v-24.156h-.09Z" transform="translate(-652.679 154.003)"/></g><g transform="translate(499.908 -153.422)"><rect class="a" width="2.043" height="25.774" transform="translate(0 0)"/></g><g transform="translate(500.069 -143.129)"><rect class="a" width="15.147" height="3.903" transform="translate(0 0)"/></g><g transform="translate(512.785 -154.399)"><path class="a" d="M686.663-126.277h-4V-154h4Zm-2.044-1.785h.091v-24.156h-.091Z" transform="translate(-682.666 154.003)"/></g><g transform="translate(513.789 -153.422)"><rect class="a" width="2.044" height="25.774" transform="translate(0 0)"/></g><g transform="translate(528.87 -154.399)"><path class="a" d="M721.437-126.277h-4V-154h4Zm-2.044-1.785h.091v-24.156h-.091Z" transform="translate(-717.44 154.003)"/></g><g transform="translate(529.888 -153.422)"><rect class="a" width="2.043" height="25.774" transform="translate(0 0)"/></g><g transform="translate(541.182 -154.399)"><path class="a" d="M755.578-126.277h-3.995V-154h3.995Zm-2.042-1.785h.09v-24.156h-.09Z" transform="translate(-751.583 154.003)"/></g><g transform="translate(542.157 -153.422)"><rect class="a" width="2.043" height="25.774" transform="translate(0 0)"/></g><g transform="translate(543.251 -130.574)"><rect class="a" width="14.125" height="3.903" transform="translate(0 0)"/></g><g transform="translate(570.37 -154.399)"><path class="a" d="M813.371-126.277h-4V-154h4Zm-2.044-1.785h.091v-24.156h-.091Z" transform="translate(-809.374 154.003)"/></g><g transform="translate(571.346 -153.422)"><rect class="a" width="2.043" height="25.774" transform="translate(0 0)"/></g><g transform="translate(572.439 -130.574)"><rect class="a" width="14.125" height="3.903" transform="translate(0 0)"/></g><g transform="translate(452.515 -154.399)"><path class="a" d="M556.368-126.43h-4V-154h4Zm-2.044-1.784h.093v-24h-.093Z" transform="translate(-552.373 154.003)"/></g><g transform="translate(453.474 -153.422)"><rect class="a" width="2.043" height="25.621" transform="translate(0 0)"/></g><g transform="translate(451.776 -154.399)"><path class="a" d="M555.163-132.292l-3.125-2.471L567.221-154H572.3Zm-.386-2.793.064.051,13.43-17.018h-.105Z" transform="translate(-552.038 154.003)"/></g><g transform="translate(453.152 -153.422)"><path class="a" d="M571.626-152.068,556.344-132.7l-1.6-1.261,14.286-18.1Z" transform="translate(-554.749 152.068)"/></g><g transform="translate(455.913 -144.911)"><path class="a" d="M578.844-111.967h-5.163l-12.835-15.619,3.081-2.534Zm-4.24-1.951h.112l-11.056-13.455-.067.055Z" transform="translate(-560.846 130.12)"/></g><g transform="translate(457.299 -143.536)"><path class="a" d="M575.488-111.595,563.564-126.1l1.573-1.294,12.987,15.8Z" transform="translate(-563.564 127.398)"/></g><g transform="translate(394.716 -154.803)"><path class="a" d="M432.393-126.262a10.3,10.3,0,0,1-1.065-.056,9.926,9.926,0,0,1-8.4-6.934v0c-.927-2.707-.583-10.345-.439-12.242a10.137,10.137,0,0,1,1.483-4.543,9.934,9.934,0,0,1,9.09-4.744,10.318,10.318,0,0,1,8.828,6.379,15.046,15.046,0,0,1,1.008,6.545c0,.455,0,.916.009,1.384l.015.62c.071,2.858.145,5.814-1.7,8.674A10.518,10.518,0,0,1,432.393-126.262Zm-5.746-8.069a6.133,6.133,0,0,0,5.123,4.455A6.5,6.5,0,0,0,437.86-133c1.275-1.98,1.22-4.2,1.156-6.771l-.015-.632c-.011-.493-.01-.979-.009-1.46a12.149,12.149,0,0,0-.715-5.179,6.452,6.452,0,0,0-5.455-4.166,6.025,6.025,0,0,0-5.453,2.927,6.743,6.743,0,0,0-.99,3.03C426.119-141.783,426.094-135.953,426.648-134.331Z" transform="translate(-422.303 154.803)"/></g><g transform="translate(421.967 -154.801)"><path class="a" d="M497.263-126.261a10.3,10.3,0,0,1-1.065-.056,9.926,9.926,0,0,1-8.4-6.934v0c-.926-2.7-.582-10.343-.439-12.24a10.148,10.148,0,0,1,1.482-4.544,10.013,10.013,0,0,1,9.091-4.743,10.319,10.319,0,0,1,8.828,6.38,15.017,15.017,0,0,1,1.008,6.537c0,.458,0,.921.009,1.391l.015.621c.071,2.857.145,5.812-1.7,8.672A10.521,10.521,0,0,1,497.263-126.261Zm-5.744-8.067a6.13,6.13,0,0,0,5.121,4.454A6.514,6.514,0,0,0,502.733-133c1.274-1.978,1.218-4.2,1.154-6.768l-.015-.632c-.011-.5-.011-.984-.01-1.466a12.106,12.106,0,0,0-.715-5.171,6.452,6.452,0,0,0-5.455-4.168,6,6,0,0,0-5.453,2.926,6.767,6.767,0,0,0-.989,3.032C490.99-141.78,490.966-135.948,491.52-134.328Z" transform="translate(-487.175 154.798)"/></g><g transform="translate(366.564 -154.425)"><path class="a" d="M370.558-126.33h-3.994v-27.725h3.994Zm-2.043-1.785h.092V-152.27h-.092Z" transform="translate(-366.564 154.055)"/></g><g transform="translate(367.539 -153.45)"><rect class="a" width="2.043" height="25.774"/></g><g transform="translate(368.629 -130.654)"><rect class="a" width="14.124" height="3.903" transform="translate(0 0)"/></g></g></svg>