<svg xmlns="http://www.w3.org/2000/svg" width="210.61" height="25.448" viewBox="0 0 210.61 25.448"><defs><style>.a{fill:#3e3e3e;}</style></defs><g transform="translate(-38.149 -46.799)"><path class="a" d="M56.953,64.944h5.255a11.61,11.61,0,0,1-4.578,5.3,12.356,12.356,0,0,1-6.725,2,12.2,12.2,0,0,1-9.006-3.8,12.405,12.405,0,0,1-3.751-9.022A12.723,12.723,0,0,1,50.806,46.8a12.729,12.729,0,0,1,6.411,1.718,12.18,12.18,0,0,1,5.123,5.751H57.184a8.445,8.445,0,0,0-6.543-3.238,7.5,7.5,0,0,0-5.454,2.379,8.285,8.285,0,0,0-2.511,6.08,8.379,8.379,0,0,0,2.429,5.983,7.636,7.636,0,0,0,5.7,2.544q3.238,0,6.147-3.074" transform="translate(0 -0.001)"/><path class="a" d="M123.036,59.588A12.245,12.245,0,0,1,126.8,50.5a12.846,12.846,0,0,1,18.044,0,12.249,12.249,0,0,1,3.767,9.088,12.121,12.121,0,0,1-3.75,8.957,12.887,12.887,0,0,1-18.078,0,12.119,12.119,0,0,1-3.751-8.957m4.528-.033a8.329,8.329,0,0,0,2.4,5.949,8.106,8.106,0,0,0,11.732,0,8.666,8.666,0,0,0-.016-11.98,8.106,8.106,0,0,0-11.7,0,8.359,8.359,0,0,0-2.413,6.032" transform="translate(-58.35)"/><path class="a" d="M218.282,72.84V48.384h5.178l10.156,17.779V48.384h4.528V72.84h-5.077L222.809,55.06V72.84Z" transform="translate(-123.82 -1.09)"/><path class="a" d="M298.1,72.84V48.384h12.459v4.231h-7.931V58.6h7.567v4.23h-7.567V72.84Z" transform="translate(-178.684 -1.09)"/><path class="a" d="M351.374,72.84V48.384h13.153v4.231H355.9V58.6h8.262v4.23H355.9V68.61h8.626v4.23Z" transform="translate(-215.306 -1.09)"/><path class="a" d="M403.808,64.746h4.759a3.622,3.622,0,0,0,1.19,2.544,3.065,3.065,0,0,0,2.049.728,3.508,3.508,0,0,0,2.379-.86,2.794,2.794,0,0,0,.992-2.213,3.025,3.025,0,0,0-1.19-2.578,18.156,18.156,0,0,0-3.469-1.553,13.491,13.491,0,0,1-3.6-1.852,6.386,6.386,0,0,1-2.214-5.188,6.681,6.681,0,0,1,2.05-4.957,7.012,7.012,0,0,1,5.121-2.015,7.23,7.23,0,0,1,4.595,1.62,6.894,6.894,0,0,1,2.643,5.353h-4.626q-.265-2.742-2.743-2.743a2.474,2.474,0,0,0-1.8.695,2.383,2.383,0,0,0-.711,1.784,2.5,2.5,0,0,0,1.091,2.182,14.828,14.828,0,0,0,2.974,1.223q6.412,2.114,6.411,7.534a7.4,7.4,0,0,1-2.512,5.883,8.465,8.465,0,0,1-10.476.2,7.359,7.359,0,0,1-2.908-5.783" transform="translate(-251.348 -0.001)"/><path class="a" d="M461.313,64.746h4.759a3.622,3.622,0,0,0,1.19,2.544,3.066,3.066,0,0,0,2.049.728,3.508,3.508,0,0,0,2.379-.86,2.794,2.794,0,0,0,.992-2.213,3.024,3.024,0,0,0-1.19-2.578,18.144,18.144,0,0,0-3.469-1.553,13.483,13.483,0,0,1-3.6-1.852,6.385,6.385,0,0,1-2.215-5.188,6.681,6.681,0,0,1,2.05-4.957,7.012,7.012,0,0,1,5.121-2.015,7.23,7.23,0,0,1,4.594,1.62,6.894,6.894,0,0,1,2.643,5.353h-4.626q-.265-2.742-2.743-2.743a2.475,2.475,0,0,0-1.8.695,2.383,2.383,0,0,0-.711,1.784,2.5,2.5,0,0,0,1.091,2.182,14.825,14.825,0,0,0,2.974,1.223q6.412,2.114,6.411,7.534a7.4,7.4,0,0,1-2.511,5.883,8.465,8.465,0,0,1-10.476.2,7.359,7.359,0,0,1-2.908-5.783" transform="translate(-290.876 -0.001)"/><rect class="a" width="4.528" height="24.456" transform="translate(190.365 47.295)"/><path class="a" d="M553.071,59.588a12.247,12.247,0,0,1,3.767-9.088,12.847,12.847,0,0,1,18.045,0,12.249,12.249,0,0,1,3.767,9.088,12.121,12.121,0,0,1-3.75,8.957,12.888,12.888,0,0,1-18.078,0,12.12,12.12,0,0,1-3.75-8.957m4.528-.033a8.325,8.325,0,0,0,2.4,5.949,8.106,8.106,0,0,0,11.732,0,8.664,8.664,0,0,0-.017-11.98,8.1,8.1,0,0,0-11.7,0,8.364,8.364,0,0,0-2.413,6.032" transform="translate(-353.949)"/><path class="a" d="M648.318,72.84V48.384H653.5l10.157,17.779V48.384h4.528V72.84H663.1L652.846,55.06V72.84Z" transform="translate(-419.421 -1.09)"/></g></svg>