<svg xmlns="http://www.w3.org/2000/svg" width="121.361" height="68.788" viewBox="0 0 121.361 68.788"><defs><style>.a,.b{fill:#3e3e3e;stroke:#3e3e3e;}.b{fill-rule:evenodd;}</style></defs><g transform="translate(-20.975 -20.528)"><g transform="translate(21.476 21.028)"><path class="a" d="M81.074,64.742q1.54.782,1.49,1.591a.508.508,0,0,1-.53.505,1.348,1.348,0,0,1-1.162-.758q-.051-.051-4.015-3.762-.354,2.3-.48,4.343a30.611,30.611,0,0,0,0,3.939q.126,1.894.253,2.98t.429,2.9a5.359,5.359,0,0,0,.1.631,1.9,1.9,0,0,0,.707.694.944.944,0,0,0,.631.126,1.019,1.019,0,0,1,.505,0,.563.563,0,0,1,.379.366A.8.8,0,0,1,79,79.488a1.67,1.67,0,0,1-1.717-.3,2.8,2.8,0,0,1-.934-1.313q-1.768-4.748-.505-16.438-1.49-1.312-2.437-2.071T70.885,57.52a23.269,23.269,0,0,0-3.472-1.957A42.881,42.881,0,0,0,63.2,53.909a90.8,90.8,0,0,1-15,18.483q-6.363,6.085-13.282,7.4a13.2,13.2,0,0,1-9.191-1.161,7.705,7.705,0,0,1-4.04-5.277q-.985-4.394,2.677-9.469a27.557,27.557,0,0,1,3.232-3.661,31.829,31.829,0,0,1,8.181-5.53q13.029-6.338,26.185-2.3,2.171-3.611,4.116-6.691t4.2-6.439q2.259-3.358,4.255-6.009t4.1-5.088a40.865,40.865,0,0,1,3.914-4.015A16.263,16.263,0,0,1,86.1,21.728a5.611,5.611,0,0,1,3.131-.669,1.8,1.8,0,0,1,.9.391.677.677,0,0,1,.164.922,181.918,181.918,0,0,0-8.207,20.061A143.627,143.627,0,0,0,76.983,61Zm-19.7-11.413a35.947,35.947,0,0,0-5.669-1.212,38.516,38.516,0,0,0-6.174-.278,31.593,31.593,0,0,0-6.843,1.01,38.229,38.229,0,0,0-7.045,2.575,25.8,25.8,0,0,0-3.889,2.323A37.181,37.181,0,0,0,28.376,60.6Q23.1,65.651,22.7,70.524a6.942,6.942,0,0,0,2.323,6.111,9.808,9.808,0,0,0,7.247,2.222q5.909-.278,11.943-4.949,1.312-1.036,2.6-2.273A89.971,89.971,0,0,0,61.379,53.329Zm2.373-.354a41.941,41.941,0,0,1,4.028,1.591,24.492,24.492,0,0,1,3.32,1.843q1.515,1.01,2.462,1.755T76,60.146q5.075-23,13.055-38.027a3.382,3.382,0,0,0-2.55.454,14.272,14.272,0,0,0-3.093,2.3,41.267,41.267,0,0,0-3.6,3.977q-1.995,2.462-3.851,5.063t-4.09,6.047q-2.235,3.447-4.078,6.4T63.752,52.975Z" transform="translate(-21.476 -21.028)"/></g><g transform="translate(82.664 56.981)"><path class="a" d="M260.473,157.809a.8.8,0,0,1,.594.328.813.813,0,0,1,.088.682,25.1,25.1,0,0,0-.682,3.106,8.22,8.22,0,0,0-.1,1.477,3.8,3.8,0,0,0,.126.922c.067.219.16.337.278.354a3.671,3.671,0,0,0,2.045-.4,9.977,9.977,0,0,0,2.02-1.237,17.477,17.477,0,0,0,1.818-1.7q.934-1,1.275-1.427t.568-.757h.025q.252-.328.518-.152t.038.53l-.556.694q-.354.442-1.427,1.54a20.118,20.118,0,0,1-2.108,1.894,10.891,10.891,0,0,1-2.411,1.376,4.895,4.895,0,0,1-2.538.429,1.088,1.088,0,0,1-.972-.9,6.479,6.479,0,0,1-.126-.745,3.9,3.9,0,0,1,.038-.909q.076-.555.126-.858t.151-.859a1.408,1.408,0,0,0,.051-.278,10.7,10.7,0,0,1-1.237,1.452,5.3,5.3,0,0,1-1.6,1.073,1.907,1.907,0,0,1-1.654.051,1.562,1.562,0,0,1-.783-.922,3.3,3.3,0,0,1-.164-1.389,11.277,11.277,0,0,1,.215-1.439q.152-.694.3-1.174l.177-.454a.982.982,0,0,1,.707-.505q.606-.152.581.379-.026.177-.076.379a5.2,5.2,0,0,0-.2.72q-.127.543-.265,1.325a5.793,5.793,0,0,0-.088,1.452q.05.669.353.8.606.278,1.54-.555a10.207,10.207,0,0,0,1.679-1.945,19.544,19.544,0,0,0,1.25-2.121A.363.363,0,0,1,260.473,157.809Z" transform="translate(-253.857 -157.573)"/></g><g transform="translate(96.918 55.15)"><path class="a" d="M310.178,152.18a4.645,4.645,0,0,0,.568.2q.341.1.606.177c.177.05.37.113.581.189a3.191,3.191,0,0,1,.53.24,2.4,2.4,0,0,1,.417.316,1.138,1.138,0,0,1,.29.417,1.354,1.354,0,0,1,.076.543,2.125,2.125,0,0,1-.164.694q-.127.379-.493,1.263t-.656,1.641q-.291.758-.593,1.591a10.7,10.7,0,0,0-.429,1.439,1.55,1.55,0,0,0-.025.833q.152.328.606.1a10.64,10.64,0,0,0,2.664-2.449q1.7-1.97,2.917-3.687l1.237-1.742a.309.309,0,0,1,.328-.139.353.353,0,0,1,.278.215.394.394,0,0,1-.05.379q-.354.556-.909,1.376t-1.793,2.5a23.37,23.37,0,0,1-2.513,2.916,5.446,5.446,0,0,1-2.159,1.465q-1.667.455-2.071-.555a2.966,2.966,0,0,1,.253-1.894,30.03,30.03,0,0,1,1.313-2.992q.833-1.679,1.01-2.159a1.794,1.794,0,0,0,.113-.492.733.733,0,0,0-.038-.328.535.535,0,0,0-.2-.215,1.075,1.075,0,0,0-.278-.139l-.366-.113q-.241-.076-.379-.126t-.517-.215q-.379-.164-.606-.24a8.772,8.772,0,0,1-1.136,1.692.343.343,0,0,1-.48.013q-.227-.189,0-.518a8.248,8.248,0,0,0,.934-1.414,1.359,1.359,0,0,1-.669-.871,1.143,1.143,0,0,1,.089-.972.826.826,0,0,1,.959-.48.948.948,0,0,1,.783.783A1.667,1.667,0,0,1,310.178,152.18Zm-.707-.3a.578.578,0,0,0-.151-.505c-.068-.05-.135-.016-.2.1Q309.042,151.624,309.471,151.877Z" transform="translate(-307.994 -150.618)"/></g><g transform="translate(106.209 55.15)"><path class="a" d="M365.159,154.023a.353.353,0,0,0-.278-.215.309.309,0,0,0-.328.139l-1.237,1.742q-1.212,1.717-2.917,3.687a10.631,10.631,0,0,1-2.664,2.449q-.455.227-.606-.1a1.547,1.547,0,0,1,.025-.833,10.708,10.708,0,0,1,.429-1.439q.3-.833.593-1.591t.657-1.641q.365-.884.493-1.263a2.124,2.124,0,0,0,.164-.694,1.354,1.354,0,0,0-.076-.543,1.138,1.138,0,0,0-.29-.417,2.394,2.394,0,0,0-.417-.316,3.182,3.182,0,0,0-.53-.24q-.316-.114-.581-.189t-.606-.177a4.66,4.66,0,0,1-.568-.2,1.663,1.663,0,0,0,.025-.758.948.948,0,0,0-.783-.783.827.827,0,0,0-.96.48,1.143,1.143,0,0,0-.089.972,1.36,1.36,0,0,0,.669.871,2.692,2.692,0,0,1-1.163.847,11.463,11.463,0,0,1-2.17.567,10.362,10.362,0,0,1-1.97.177,2.542,2.542,0,0,0-.833-1.54,2.8,2.8,0,0,0-1.528-.694,1.461,1.461,0,0,0-1.325.366,1.047,1.047,0,0,0-.2.947,1.72,1.72,0,0,0,.555.922,4.7,4.7,0,0,0,2.525,1.01,5.8,5.8,0,0,1-.379,1.692,4.29,4.29,0,0,1-.644,1.162,3.452,3.452,0,0,1-.719.656,2.37,2.37,0,0,1-.656.328.691.691,0,0,1-.4.025,1.733,1.733,0,0,1-1.187-.821,2.463,2.463,0,0,1-.341-1.4,7.88,7.88,0,0,1,.24-1.553,9.1,9.1,0,0,1,.429-1.326,2.528,2.528,0,0,1,.353-.656q.227-.3-.151-.581a.81.81,0,0,0-1.086.152q-.051.051-.215.265a6.056,6.056,0,0,0-.429.694,5.087,5.087,0,0,0-.429,1.048,8.318,8.318,0,0,0-.253,1.326,4.355,4.355,0,0,0,.114,1.566,2.817,2.817,0,0,0,.707,1.313,2.873,2.873,0,0,0,1.338.884,2.111,2.111,0,0,0,1.25-.088,4.484,4.484,0,0,0,1.414-.808,4.912,4.912,0,0,0,1.225-1.616,6.541,6.541,0,0,0,.657-2.336q.353-.051.732-.114c.253-.042,1.067-.164,1.3-.207a9.247,9.247,0,0,0,2.333-.671,5.017,5.017,0,0,0,1.59-1.306q.228.076.606.24c.253.11.424.181.517.215s.219.076.379.126l.367.113a1.079,1.079,0,0,1,.278.139.536.536,0,0,1,.2.215.737.737,0,0,1,.038.328,1.8,1.8,0,0,1-.113.492q-.177.48-1.01,2.159a30.1,30.1,0,0,0-1.313,2.992,2.963,2.963,0,0,0-.252,1.894q.4,1.01,2.07.555a5.446,5.446,0,0,0,2.159-1.465,23.324,23.324,0,0,0,2.513-2.916q1.237-1.679,1.793-2.5t.909-1.376A.394.394,0,0,0,365.159,154.023Zm-17.852-.3a1.138,1.138,0,0,1-.379-.454,2.05,2.05,0,0,1,.442-.076,1.534,1.534,0,0,1,.72.164,1.821,1.821,0,0,1,.707.543,1.75,1.75,0,0,1,.3.581A3.435,3.435,0,0,1,347.307,153.72Zm8.055-2.247c.067-.117.135-.151.2-.1a.578.578,0,0,1,.151.505Q355.285,151.625,355.362,151.473Z" transform="translate(-343.278 -150.618)"/></g><g transform="translate(126.641 56.855)"><path class="a" d="M426.035,157.985a.4.4,0,0,1-.076.593.378.378,0,0,1-.581-.012,2.314,2.314,0,0,0-.151-.48.732.732,0,0,0-.278-.278.809.809,0,0,0-.505-.1,2.184,2.184,0,0,0-1.868,1.338,2.436,2.436,0,0,0-.227,1.275.914.914,0,0,0,.4.745q1.565.733,4.09-3.257a.988.988,0,0,1,.467-.392.58.58,0,0,1,.594.051q.278.189.227.821,0,.051-.151.808t-.265,1.578q-.114.821-.152,1.7a3.4,3.4,0,0,0,.215,1.477.891.891,0,0,0,.808.619,3.055,3.055,0,0,0,1.629-.581,11.954,11.954,0,0,0,1.78-1.351q.808-.744,1.7-1.742t1.225-1.389q.328-.391.505-.644.278-.354.53-.051a.383.383,0,0,1-.025.53q-.2.253-.543.656t-1.313,1.452a24.018,24.018,0,0,1-1.894,1.843,11.338,11.338,0,0,1-2.083,1.414,4.216,4.216,0,0,1-2.045.593q-2.576-.126-1.692-5.328-2.651,3.131-4.57,2.2a1.558,1.558,0,0,1-.9-1.363,2.845,2.845,0,0,1,.341-1.793,3.426,3.426,0,0,1,1.01-1.237,2.872,2.872,0,0,1,1.54-.581,2.455,2.455,0,0,1,1.174.19,3.188,3.188,0,0,1,.758.4Q425.908,157.859,426.035,157.985Z" transform="translate(-420.874 -157.092)"/></g><g transform="translate(96.173 80.261)"><path class="a" d="M310.14,250.26a2.446,2.446,0,0,1-2.46,2.479,2.251,2.251,0,0,1-2.042-1.206v1.1h-.475v-6.648h.475v3a2.251,2.251,0,0,1,2.042-1.206A2.446,2.446,0,0,1,310.14,250.26Zm-.474,0a2.014,2.014,0,1,0-2.014,2.023A2,2,0,0,0,309.665,250.26Z" transform="translate(-305.163 -245.986)"/><path class="a" d="M330,253.2l-2.052,5.186a1.987,1.987,0,0,1-1.88,1.463V259.4c.636.057,1.121-.418,1.415-1.111l.1-.256L325.4,253.2h.513l1.918,4.227,1.652-4.227Z" transform="translate(-320.071 -251.3)"/></g><g transform="translate(108.988 72.108)"><g transform="translate(7.434 1.877)"><path class="b" d="M382.067,235.076l.279,0,.721-3.173,3.953.011.674,3.163.292,0-2.681-12.551c-.062-.381-.364-.61-.512,0l-2.726,12.549Zm1.055-3.454,1.933-8.822,1.9,8.833C385.679,231.632,384.4,231.621,383.122,231.621Z" transform="translate(-382.067 -222.15)"/></g><g transform="translate(19.498 1.876)"><path class="b" d="M427.919,235.073h.284l-.042-12.93h-.28Z" transform="translate(-427.882 -222.143)"/></g><g transform="translate(14.372 1.736)"><path class="b" d="M408.414,221.9l.043,12.783h.295L408.7,221.9c3.013,0,3.61,3.9,2.4,5.984a2.357,2.357,0,0,1-1.649,1.2l.011.393,2.776,5.206h.308l-2.8-5.374c3.293-1.117,2.826-7.672-.878-7.693l-.459,0Z" transform="translate(-408.413 -221.612)"/></g><g transform="translate(0 1.864)"><path class="b" d="M353.832,235.037l.278-.006.047-12.274,2.881,5.72,2.889-5.747.151,12.306.275,0c-.042-4.3-.076-8.374-.117-12.677.023-.359-.322-.279-.388-.107l-2.8,5.617-2.82-5.648a.179.179,0,0,0-.339,0Z" transform="translate(-353.832 -222.1)"/></g><g transform="translate(21.072 1.872)"><path class="b" d="M433.861,235.059l.279,0,.721-3.177,3.952.011.674,3.167h.293L437.1,222.505c-.062-.381-.364-.61-.512,0l-2.726,12.554Zm1.055-3.459,1.933-8.822,1.9,8.833C437.473,231.611,436.192,231.6,434.916,231.6Z" transform="translate(-433.861 -222.129)"/></g><g transform="translate(23.017)"><path class="b" d="M443.2,215.154l-1.713.714c-.252.121-.09.34.1.253.575-.245,1.154-.485,1.729-.73C443.567,215.231,443.4,215.064,443.2,215.154Z" transform="translate(-441.326 -215.1)"/><path class="a" d="M441.417,216.09a.17.17,0,0,1-.157-.091c-.031-.065-.014-.166.133-.236l1.714-.715a.206.206,0,0,1,.271.047c.031.058.013.151-.129.24-.289.124-.575.244-.86.364s-.582.245-.873.369A.232.232,0,0,1,441.417,216.09Zm1.812-1.013a.246.246,0,0,0-.1.023h0l-1.713.714c-.089.043-.13.106-.1.16a.132.132,0,0,0,.182.041q.436-.186.873-.369t.856-.362c.086-.054.128-.119.1-.163A.108.108,0,0,0,443.229,215.077Z" transform="translate(-441.247 -215.02)"/></g></g></g></svg>