<svg xmlns="http://www.w3.org/2000/svg" width="123.98" height="27.327" viewBox="0 0 123.98 27.327"><defs><style>.a{fill:#3e3e3e;}</style></defs><g transform="translate(-29.769 -14.459)"><path class="a" d="M385.089,14.464c-7.057-.205-14.693,5.581-14.629,13.87a13.688,13.688,0,0,0,13.882,13.446c7.545.029,14.139-6.149,14.2-13.625C398.6,20.542,391.8,14.66,385.089,14.464Zm6.07,23.084a7.935,7.935,0,0,1-13.34-.019c-2.612-3.771-3.125-7.924-2.469-12.315a14.493,14.493,0,0,1,3.756-8.275c2.792-2.888,8.785-2.835,11.494.77a17.513,17.513,0,0,1,3.292,10.625A15.5,15.5,0,0,1,391.159,37.548Z" transform="translate(-244.794 0)"/><path class="a" d="M130.773,42.242a16.289,16.289,0,0,1-3.994.311c-2.488-.117-4.315-1.414-4.573-3.587-.37-3.114-.367-6.272-.525-9.449,1.825-.138,3.544-.324,4.636.911a19.406,19.406,0,0,1,2.152,3.979V24.483l-.248-.064c-.374,1.448-.351,3.12-1.822,3.989-1.405.83-2.966.658-4.569.566V17.357c1.842,0,3.61-.028,5.376.006,3.564.068,6,1.766,6.64,5.281a2.264,2.264,0,0,0,.291.575l.258-.093c-.107-2.027-.213-4.053-.321-6.1H113.687c3.261,1.01,3.831,1.695,3.9,5.109.052,2.43.037,4.862.033,7.293,0,3.056.005,6.113-.053,9.168-.047,2.459-1.07,3.578-3.479,3.994a4.217,4.217,0,0,0-.7.324h23.048V35.543a3.853,3.853,0,0,0-.716,1.522C134.982,39.664,133.569,41.67,130.773,42.242Z" transform="translate(-60.082 -1.845)"/><path class="a" d="M217.486,27.579c-1.537-1.042-3.283-1.769-4.9-2.7a17.5,17.5,0,0,1-3.274-2.151,4.541,4.541,0,0,1-.222-6.466,4.753,4.753,0,0,1,6.467-.209,10.13,10.13,0,0,1,2.931,5.056c.137.45.333.881.5,1.321l.216-.08V14.978l-.272-.334c-.583,1.857-1.635,1.156-2.621.794-.387-.142-.763-.318-1.153-.45a8.642,8.642,0,0,0-4.759-.295,7.416,7.416,0,0,0-4.73,10.328c.977,1.828,2.707,2.705,4.4,3.646a43.417,43.417,0,0,1,4.392,2.517,5.747,5.747,0,0,1,.292,9.019,5.388,5.388,0,0,1-7.545-1.256,30.3,30.3,0,0,1-2.489-4.864c-.135-.272-.223-.568-.333-.852l-.277.07v8.15c1-1.565,2.1-1.146,3.225-.694a12.114,12.114,0,0,0,6.947.859,7.5,7.5,0,0,0,6.328-5.931A7.355,7.355,0,0,0,217.486,27.579Z" transform="translate(-125.272 -0.02)"/><path class="a" d="M269.981,16.968c-.1,2.3-.2,4.535-.3,6.768l.367.048c.154-.51.3-1.022.462-1.531a5.755,5.755,0,0,1,2.982-3.943,16.886,16.886,0,0,1,7.191-.986c.019.332.04.535.04.738q0,9.639-.006,19.278a13.317,13.317,0,0,1-.178,2.176,3.1,3.1,0,0,1-2.612,2.834c-.408.076-.8.222-1.2.336l.031.158h12.061c-3.573-1.351-3.907-1.781-3.924-5.691-.026-6.391-.007-12.782,0-19.174,0-.2.037-.393.073-.745,1.329.1,2.59.229,3.855.281a6.357,6.357,0,0,1,6.515,5.286c.084.334.2.661.3.992l.373-.068c-.1-2.241-.2-4.483-.3-6.757Z" transform="translate(-172.384 -1.803)"/><path class="a" d="M45.356,42.525c-4.562.417-7.452-.693-7.452-6.328,0-4.653-.018-9.305,0-13.958a11.24,11.24,0,0,1,.21-2.17,3.013,3.013,0,0,1,2.452-2.511c.434-.1.86-.229,1.29-.346l-.038-.188H29.8l-.016.205a1.2,1.2,0,0,0,.272.113c2.436.375,3.226,1.162,3.539,3.574a13.069,13.069,0,0,1,.1,1.659q.012,7.4,0,14.792a15.675,15.675,0,0,1-.173,2.279,3.108,3.108,0,0,1-2.367,2.724c-.46.13-.926.236-1.39.352l.031.188H52.47V35.332a2.675,2.675,0,0,0-.579,1.168C50.751,41,48.623,42.226,45.356,42.525Z" transform="translate(0 -1.843)"/></g></svg>