<svg xmlns="http://www.w3.org/2000/svg" width="103.755" height="56.141" viewBox="0 0 103.755 56.141"><defs><style>.a{fill:#3e3e3e;}</style></defs><g transform="translate(-108.468 -293.651)"><g transform="translate(148.871 293.993)"><path class="a" d="M441.878,319.98a2.28,2.28,0,0,0-.379.553,2.751,2.751,0,0,0-.2.588c-.048.206-.081.42-.118.649s-.071.469-.122.725a4.5,4.5,0,0,1-.179.644,2.842,2.842,0,0,1-.228.476c-.085.144-.18.28-.288.43s-.228.315-.361.516a6.44,6.44,0,0,0-.332.552,4.012,4.012,0,0,0-.22.5,4.314,4.314,0,0,0-.145.52c-.042.183-.077.382-.112.608a3.545,3.545,0,0,1-.19.692,5,5,0,0,1-.325.688,5.455,5.455,0,0,1-.423.638,4.667,4.667,0,0,1-.488.54c-.167.161-.293.28-.387.384a1.028,1.028,0,0,0-.2.305,1.422,1.422,0,0,0-.093.382c-.022.161-.039.359-.065.622a2.738,2.738,0,0,1-.167.716,3.055,3.055,0,0,1-.313.585,4.865,4.865,0,0,1-.4.5c-.142.16-.289.315-.431.472a2.139,2.139,0,0,0-.345.514,2.663,2.663,0,0,0-.2.554,3.505,3.505,0,0,0-.087.53,3.575,3.575,0,0,0-.005.443,1.868,1.868,0,0,1-.012.353,1.8,1.8,0,0,1-.079.334,2.918,2.918,0,0,1-.145.358c-.059.13-.13.27-.212.431s-.154.311-.214.456a4.007,4.007,0,0,0-.159.455,5.094,5.094,0,0,0-.112.531c-.031.2-.056.422-.078.687a3.788,3.788,0,0,1-.061.43,2.076,2.076,0,0,1-.088.311,1.178,1.178,0,0,1-.1.213.75.75,0,0,1-.094.128.169.169,0,0,0-.025.028.344.344,0,0,1-.053.046.24.24,0,0,1-.086.045.418.418,0,0,1-.127.021.438.438,0,0,1-.052,0l-.058-.007c-.019-.005-.041-.008-.062-.013s-.044-.013-.068-.022a.184.184,0,0,1-.07-.035.615.615,0,0,1-.145-.152,1.433,1.433,0,0,1-.162-.351,3.354,3.354,0,0,1-.123-.628c-.027-.263-.058-.486-.095-.684a4.546,4.546,0,0,0-.126-.528,4.325,4.325,0,0,0-.166-.452c-.066-.145-.14-.291-.227-.451s-.159-.3-.224-.426a3.738,3.738,0,0,1-.153-.355,1.938,1.938,0,0,1-.089-.332,2.217,2.217,0,0,1-.021-.354,3.237,3.237,0,0,0-.018-.443,3.425,3.425,0,0,0-.094-.528,2.931,2.931,0,0,0-.209-.549,2.183,2.183,0,0,0-.36-.507c-.146-.155-.3-.306-.445-.463a5.219,5.219,0,0,1-.412-.493,3.088,3.088,0,0,1-.327-.577,2.67,2.67,0,0,1-.184-.713c-.033-.263-.056-.463-.081-.62a1.475,1.475,0,0,0-.1-.381,1.07,1.07,0,0,0-.207-.3c-.1-.1-.223-.221-.4-.377a4.883,4.883,0,0,1-.5-.53,5.783,5.783,0,0,1-.441-.63,4.878,4.878,0,0,1-.342-.681,3.779,3.779,0,0,1-.207-.687c-.04-.226-.082-.425-.126-.608a4.867,4.867,0,0,0-.157-.515,4.473,4.473,0,0,0-.232-.494,6.011,6.011,0,0,0-.347-.543c-.138-.2-.261-.362-.373-.51s-.21-.284-.3-.426a3.293,3.293,0,0,1-.24-.469,4.532,4.532,0,0,1-.195-.642c-.057-.254-.1-.494-.141-.72s-.081-.442-.132-.647a2.873,2.873,0,0,0-.218-.587,2.262,2.262,0,0,0-.393-.54c-.17-.175-.316-.33-.439-.476a3.118,3.118,0,0,1-.308-.42,2.353,2.353,0,0,1-.2-.43,2.68,2.68,0,0,1-.113-.511,2.589,2.589,0,0,1,.024-.657c.033-.244.079-.516.115-.8a4.6,4.6,0,0,0,.039-.86,2.422,2.422,0,0,0-.208-.857c-.126-.28-.238-.527-.326-.757a3.956,3.956,0,0,1-.2-.631,1.912,1.912,0,0,1-.042-.561,1.628,1.628,0,0,1,.135-.535c.08-.181.178-.36.278-.54s.2-.362.291-.553a2.537,2.537,0,0,0,.2-.587,1.654,1.654,0,0,0-.005-.652c-.046-.23-.08-.457-.106-.679a6.179,6.179,0,0,1-.041-.647,4.679,4.679,0,0,1,.035-.589,2.788,2.788,0,0,1,.108-.513,4.743,4.743,0,0,1,.244-.569c.106-.214.223-.449.331-.682a4.39,4.39,0,0,0,.257-.679,1.057,1.057,0,0,0,.031-.558c-.044-.151-.095-.289-.143-.432a3.573,3.573,0,0,1-.124-.463,2.851,2.851,0,0,1-.045-.589,4.876,4.876,0,0,1,.092-.815,5.486,5.486,0,0,1,.24-.861c.094-.259.2-.493.294-.717a6.652,6.652,0,0,0,.25-.654,2.283,2.283,0,0,0,.11-.67c0-.232,0-.438,0-.626s-.006-.357-.006-.511a3.881,3.881,0,0,1,.026-.432,2.018,2.018,0,0,1,.086-.393,1,1,0,0,0,.02-.433c-.019-.156-.052-.321-.068-.477a.894.894,0,0,1,.042-.437.578.578,0,0,1,.347-.313,2.1,2.1,0,0,1,.214-.073c.073-.02.142-.034.216-.048s.14-.021.211-.028.142-.008.21-.009c.114,0,.224,0,.335.013s.212.021.315.034.2.034.3.047.186.03.273.041.148.025.213.039.117.025.171.037a1.192,1.192,0,0,0,.154.03.764.764,0,0,0,.162.011,1.032,1.032,0,0,0,.136-.009,1.344,1.344,0,0,0,.163-.028c.059-.012.124-.029.2-.049s.153-.046.244-.078c.051-.015.1-.031.152-.042a1.417,1.417,0,0,1,.146-.033c.048-.009.095-.015.139-.02s.091-.007.134-.008a1.208,1.208,0,0,1,.391.056.877.877,0,0,1,.3.168.766.766,0,0,1,.195.27.945.945,0,0,1,.07.36c0,.174-.015.351-.031.526s-.042.349-.058.517a4.527,4.527,0,0,0-.029.48,1.468,1.468,0,0,0,.05.412,3.212,3.212,0,0,1,.092.394,2.477,2.477,0,0,1,.033.457,2.793,2.793,0,0,1-.07.532,3.72,3.72,0,0,1-.213.621c-.1.224-.172.389-.223.525a1.553,1.553,0,0,0-.1.332,1.08,1.08,0,0,0,0,.3c.016.112.041.249.073.43a3.629,3.629,0,0,1,.064.518,2.507,2.507,0,0,1-.024.482,2.435,2.435,0,0,1-.114.486,4.461,4.461,0,0,1-.221.535c-.093.19-.18.375-.253.554a3.691,3.691,0,0,0-.17.53,1.656,1.656,0,0,0-.048.5,1.377,1.377,0,0,0,.125.493c.075.162.157.328.226.507a2.6,2.6,0,0,1,.163.6,2.66,2.66,0,0,1-.01.764,4.626,4.626,0,0,1-.284,1c-.153.383-.271.692-.365.944s-.161.453-.208.619a2.891,2.891,0,0,0-.087.429,2.38,2.38,0,0,0-.006.372,1.39,1.39,0,0,0,.106.4,3.082,3.082,0,0,1,.146.441.954.954,0,0,1-.012.492,1.339,1.339,0,0,1-.372.553,2.706,2.706,0,0,0-.482.6,2,2,0,0,0-.23.6,1.624,1.624,0,0,0-.023.548,1.26,1.26,0,0,0,.139.453c.07.127.155.272.234.446a2.708,2.708,0,0,1,.244,1.413,4.362,4.362,0,0,1-.232,1.074,7.356,7.356,0,0,0-.272.962,1.856,1.856,0,0,0-.035.586,1.424,1.424,0,0,0,.136.428c.064.141.146.294.234.493s.164.353.236.487.134.251.186.376a1.833,1.833,0,0,1,.124.433,4.083,4.083,0,0,1,.049.662c0,.277,0,.5,0,.681a2.768,2.768,0,0,0,.018.469,1.3,1.3,0,0,0,.112.386,2.569,2.569,0,0,0,.29.438c.134.17.247.323.348.475a3.291,3.291,0,0,1,.259.453,3.687,3.687,0,0,1,.2.521c.056.2.106.414.158.674a4.683,4.683,0,0,1,.076.652c.011.182.013.328.03.467a1.154,1.154,0,0,0,.111.4,1.939,1.939,0,0,0,.331.459c.163.177.277.307.36.417a1.291,1.291,0,0,1,.173.286,1.46,1.46,0,0,1,.08.289c.023.113.049.247.09.433s.076.332.109.472a3.188,3.188,0,0,0,.11.386,2.809,2.809,0,0,0,.181.392c.08.142.183.3.316.492a2.791,2.791,0,0,1,.307.54,2.65,2.65,0,0,1,.156.495c.035.163.058.323.083.49s.048.34.087.525c.02.089.037.164.056.231s.038.121.054.167a.734.734,0,0,0,.049.114.381.381,0,0,0,.046.071.431.431,0,0,0,.044-.073c.016-.031.03-.068.048-.113s.033-.1.049-.171.036-.141.051-.231c.035-.186.054-.359.075-.526s.036-.331.07-.493a2.548,2.548,0,0,1,.141-.5,2.86,2.86,0,0,1,.3-.543,5.825,5.825,0,0,0,.3-.5,2.631,2.631,0,0,0,.17-.395c.04-.124.07-.25.1-.388s.057-.292.1-.474.058-.319.079-.433a1.483,1.483,0,0,1,.075-.291,1.236,1.236,0,0,1,.164-.29c.081-.11.19-.245.346-.423a1.834,1.834,0,0,0,.319-.466,1.163,1.163,0,0,0,.1-.4c.012-.137.01-.287.015-.467a4.929,4.929,0,0,1,.063-.652,6.315,6.315,0,0,1,.144-.678,3.287,3.287,0,0,1,.183-.525,3.593,3.593,0,0,1,.248-.461c.1-.151.205-.307.338-.48a2.543,2.543,0,0,0,.276-.445,1.325,1.325,0,0,0,.1-.389,3.932,3.932,0,0,0,0-.467c-.006-.186-.018-.405-.022-.683a3.788,3.788,0,0,1,.033-.661,1.839,1.839,0,0,1,.112-.434,4.2,4.2,0,0,1,.179-.38c.068-.136.145-.291.226-.493s.159-.355.223-.5a1.378,1.378,0,0,0,.12-.432,1.75,1.75,0,0,0-.047-.586,7.8,7.8,0,0,0-.294-.954,4.372,4.372,0,0,1-.259-1.068,2.9,2.9,0,0,1,.024-.812,2.818,2.818,0,0,1,.184-.608c.075-.174.155-.32.22-.451a1.248,1.248,0,0,0,.131-.454,1.643,1.643,0,0,0-.037-.548,1.987,1.987,0,0,0-.245-.595,2.5,2.5,0,0,0-.495-.592,1.3,1.3,0,0,1-.385-.547.946.946,0,0,1-.026-.49,3.12,3.12,0,0,1,.134-.445,1.355,1.355,0,0,0,.095-.4,2.369,2.369,0,0,0-.015-.372,2.438,2.438,0,0,0-.1-.427c-.051-.164-.122-.362-.221-.615s-.228-.557-.388-.937a4.522,4.522,0,0,1-.311-1,2.713,2.713,0,0,1-.024-.762,2.469,2.469,0,0,1,.147-.6c.065-.183.141-.349.211-.511a1.305,1.305,0,0,0,.112-.5,1.791,1.791,0,0,0-.056-.5,3.53,3.53,0,0,0-.184-.525c-.08-.18-.169-.362-.268-.551a4.116,4.116,0,0,1-.235-.527,2.941,2.941,0,0,1-.129-.483,2.557,2.557,0,0,1-.032-.481,4.236,4.236,0,0,1,.049-.519c.028-.184.051-.321.062-.433a.955.955,0,0,0-.006-.3,1.529,1.529,0,0,0-.107-.329c-.056-.134-.133-.3-.239-.519a3.5,3.5,0,0,1-.223-.618,2.407,2.407,0,0,1-.083-.529,2.462,2.462,0,0,1,.02-.456,3.151,3.151,0,0,1,.08-.4,1.441,1.441,0,0,0,.042-.412c-.006-.151-.022-.312-.044-.479s-.048-.341-.07-.516-.039-.353-.044-.527a.918.918,0,0,1,.062-.359.714.714,0,0,1,.19-.273.854.854,0,0,1,.3-.175,1.215,1.215,0,0,1,.388-.065c.044,0,.09,0,.136.006s.093.009.143.017.1.017.146.027.1.026.151.043l.247.069c.075.021.142.036.2.047s.112.019.163.024a1.088,1.088,0,0,0,.136.007,1.027,1.027,0,0,0,.163-.014,1.452,1.452,0,0,0,.152-.035l.169-.042c.062-.014.132-.029.214-.041s.175-.03.27-.048.195-.035.3-.049.208-.034.318-.044a2.956,2.956,0,0,1,.329-.02c.07,0,.14,0,.212,0s.142.013.212.022a2.394,2.394,0,0,1,.431.113.578.578,0,0,1,.356.305.936.936,0,0,1,.051.436c-.009.157-.039.322-.057.478a1.068,1.068,0,0,0,.03.434,2.132,2.132,0,0,1,.1.388c.019.136.03.279.036.433s.006.324.007.511,0,.4.012.627a2.367,2.367,0,0,0,.123.666c.072.215.166.427.267.65s.212.453.312.709a5.281,5.281,0,0,1,.263.855,5.056,5.056,0,0,1,.114.815,2.814,2.814,0,0,1-.033.59,3.568,3.568,0,0,1-.111.465c-.045.144-.091.285-.133.437a1.051,1.051,0,0,0,.044.556,4.452,4.452,0,0,0,.273.673c.111.23.236.462.346.676a4.617,4.617,0,0,1,.258.562,3.027,3.027,0,0,1,.124.511,4.812,4.812,0,0,1,.048.59c0,.207,0,.423-.024.646s-.048.453-.089.683a1.67,1.67,0,0,0,.008.649,2.5,2.5,0,0,0,.213.586c.089.185.2.366.3.544a5.531,5.531,0,0,1,.291.533,1.632,1.632,0,0,1,.153.533,1.982,1.982,0,0,1-.03.562,3.987,3.987,0,0,1-.185.634c-.083.232-.186.482-.307.763a2.381,2.381,0,0,0-.186.862,4.692,4.692,0,0,0,.058.861c.042.28.1.547.134.794a2.482,2.482,0,0,1,.039.657,2.929,2.929,0,0,1-.1.51,2.212,2.212,0,0,1-.189.437,3.422,3.422,0,0,1-.3.426C442.185,319.647,442.045,319.8,441.878,319.98Z" transform="translate(-422.742 -296.313)"/></g><g transform="translate(166.811 295.125)"><path class="a" d="M581.039,308.17c.07.168.144.3.206.419a3.463,3.463,0,0,1,.165.328,1.184,1.184,0,0,1,.085.357,2.166,2.166,0,0,1-.033.5c-.032.211-.069.394-.1.566a3.028,3.028,0,0,0-.051.5,1.844,1.844,0,0,0,.047.5,2.811,2.811,0,0,0,.211.587c.1.218.183.382.232.517a.857.857,0,0,1,.071.348.875.875,0,0,1-.095.346c-.063.131-.151.29-.271.5s-.207.378-.27.508a1.253,1.253,0,0,0-.114.311.442.442,0,0,0,.023.233,1.923,1.923,0,0,0,.14.275,2.4,2.4,0,0,1,.148.323,1.267,1.267,0,0,1,.066.328,1.858,1.858,0,0,1-.022.373,3.894,3.894,0,0,1-.116.461,4.2,4.2,0,0,0-.121.46,1.629,1.629,0,0,0-.034.374,1.319,1.319,0,0,0,.067.351,2.341,2.341,0,0,0,.178.389,4.2,4.2,0,0,0,.256.389c.091.123.182.243.265.378a2.266,2.266,0,0,1,.219.466,2.842,2.842,0,0,1,.128.659,3.619,3.619,0,0,1-.026.74c-.028.233-.073.455-.112.674a3.784,3.784,0,0,0-.068.651,1.994,1.994,0,0,0,.109.671c.08.234.137.409.174.549a1.278,1.278,0,0,1,.05.341.933.933,0,0,1-.047.273c-.031.1-.073.2-.126.346s-.114.282-.173.422a4.263,4.263,0,0,0-.164.443,2.121,2.121,0,0,0-.078.513,2.283,2.283,0,0,0,.078.632c.061.238.13.572.2.951s.128.808.17,1.23a9.952,9.952,0,0,1,.063,1.192,2.177,2.177,0,0,1-.137.829,1.449,1.449,0,0,0-.155.5,1.125,1.125,0,0,0,.025.424,1.729,1.729,0,0,0,.153.38c.063.12.14.242.216.361a.851.851,0,0,1,.144.363,1.318,1.318,0,0,1-.01.41c-.022.15-.059.318-.108.512s-.094.416-.144.672c-.014.082-.028.155-.041.223s-.024.131-.033.184-.018.108-.023.153-.011.089-.015.128c.014.038.027.078.038.118s.024.077.036.117.021.078.03.117l.03.12c.013.019.028.041.045.063s.034.046.054.07l.063.08c.022.029.045.059.067.091a1.5,1.5,0,0,1,.229.419,1.33,1.33,0,0,1,.076.414,2.1,2.1,0,0,1-.039.429c-.027.146-.065.3-.109.457a4.609,4.609,0,0,0-.106.491,3.869,3.869,0,0,0-.047.522,4.027,4.027,0,0,0,.029.571,4.392,4.392,0,0,0,.129.629c.06.221.122.415.179.6a5.511,5.511,0,0,1,.144.539,3.167,3.167,0,0,1,.064.606,4.459,4.459,0,0,1-.054.793c-.041.309-.078.563-.1.784a3.726,3.726,0,0,0-.027.574,1.48,1.48,0,0,0,.094.459,1.894,1.894,0,0,0,.257.455,2.539,2.539,0,0,1,.277.471,1.9,1.9,0,0,1,.141.471,2.626,2.626,0,0,1,.03.5c-.008.177-.029.365-.058.572s-.069.394-.1.567-.064.332-.09.485a3.434,3.434,0,0,0-.042.423,1.916,1.916,0,0,0,.035.393,1.718,1.718,0,0,0,.087.288c.032.073.065.134.106.216a3.4,3.4,0,0,1,.137.321c.051.147.112.343.183.619a2.687,2.687,0,0,1,.1.667,1.173,1.173,0,0,1-.059.395.506.506,0,0,1-.117.186.3.3,0,0,1-.074.051.308.308,0,0,1-.147-.048.422.422,0,0,1-.124-.128,1.172,1.172,0,0,1-.111-.224,3.145,3.145,0,0,1-.114-.343,2.909,2.909,0,0,1-.112-.594c-.01-.147,0-.257-.008-.365a.95.95,0,0,0-.073-.352,3.138,3.138,0,0,0-.313-.558,5.853,5.853,0,0,1-.376-.633,2.187,2.187,0,0,1-.184-.487,1.355,1.355,0,0,1-.036-.4,1.807,1.807,0,0,1,.066-.382c.032-.129.063-.257.085-.389a1.835,1.835,0,0,0,.029-.4,1.536,1.536,0,0,0-.081-.434,1.974,1.974,0,0,0-.241-.477,2.179,2.179,0,0,1-.239-.443,2.291,2.291,0,0,1-.114-.427c-.028-.156-.052-.333-.086-.558s-.083-.495-.16-.836a5.359,5.359,0,0,1-.124-.761c-.014-.183-.01-.31-.009-.426a1.608,1.608,0,0,0-.026-.356,3.111,3.111,0,0,0-.186-.554,5.443,5.443,0,0,1-.234-.682,4.205,4.205,0,0,1-.125-.6,4.322,4.322,0,0,1-.04-.533c0-.169,0-.333.012-.493s.017-.3.02-.432a2.806,2.806,0,0,0-.015-.369,2.024,2.024,0,0,0-.073-.348,2.325,2.325,0,0,0-.155-.366c-.059-.113-.109-.215-.153-.311a2.126,2.126,0,0,1-.1-.285,1.154,1.154,0,0,1-.04-.279,1.321,1.321,0,0,1,.029-.295c-.239-.359-.474-.735-.7-1.117s-.427-.769-.607-1.152a8.969,8.969,0,0,1-.443-1.12,4.568,4.568,0,0,1-.2-1.025c-.039-.65-.056-1.158-.08-1.583a6.609,6.609,0,0,0-.115-1.051,2.627,2.627,0,0,0-.33-.831,5.671,5.671,0,0,0-.707-.906c-.318-.346-.583-.652-.806-.942a6.547,6.547,0,0,1-.564-.836,5.7,5.7,0,0,1-.394-.869,9.793,9.793,0,0,1-.294-1.03c-.088-.386-.136-.679-.178-.918a3.741,3.741,0,0,0-.136-.6,1.82,1.82,0,0,0-.288-.523,6.184,6.184,0,0,0-.633-.674c-.289-.277-.534-.513-.744-.729a5.18,5.18,0,0,1-.526-.626,2.738,2.738,0,0,1-.338-.655,3.81,3.81,0,0,1-.192-.82c-.041-.31-.065-.545-.083-.732a3.1,3.1,0,0,0-.061-.457,1.1,1.1,0,0,0-.157-.36,3.557,3.557,0,0,0-.355-.442c-.049.267-.1.554-.14.844s-.077.579-.092.85a4.155,4.155,0,0,0,0,.734,1.062,1.062,0,0,0,.148.49c.118.16.248.33.376.51a5.965,5.965,0,0,1,.364.575,3.141,3.141,0,0,1,.267.647,2.427,2.427,0,0,1,.084.731,4.734,4.734,0,0,1-.118.8c-.062.27-.138.548-.209.829a7.989,7.989,0,0,0-.173.865,3.519,3.519,0,0,0-.015.891c.034.3.074.506.1.664a1.111,1.111,0,0,1,.018.382,1.177,1.177,0,0,1-.171.416c-.1.177-.254.412-.477.757a8.64,8.64,0,0,1-.549.759c-.148.176-.26.291-.352.395a1.284,1.284,0,0,0-.222.323,2.447,2.447,0,0,0-.164.538,5.567,5.567,0,0,0-.1.613c-.016.168-.022.307-.039.443a1.836,1.836,0,0,1-.1.425,3.209,3.209,0,0,1-.267.559c-.13.226-.263.439-.385.652a5.385,5.385,0,0,0-.326.656,3.408,3.408,0,0,0-.207.736,3.788,3.788,0,0,0-.018.892c.034.336.073.614.1.859a4.469,4.469,0,0,1,.046.647,1.47,1.47,0,0,1-.1.537,1.883,1.883,0,0,1-.348.539c-.166.19-.333.357-.493.52a5.3,5.3,0,0,0-.445.507,2.568,2.568,0,0,0-.35.622,3.318,3.318,0,0,0-.2.873c-.037.346-.065.687-.1,1.01s-.071.632-.128.913a3.25,3.25,0,0,1-.245.757,1.54,1.54,0,0,1-.451.553,4.654,4.654,0,0,1-.564.359c-.182.1-.358.184-.528.276a3.128,3.128,0,0,0-.483.3,2.235,2.235,0,0,0-.436.429,3.927,3.927,0,0,0-.322.487,3.718,3.718,0,0,0-.2.416c-.055.129-.1.254-.151.378a3.867,3.867,0,0,1-.177.378,1.255,1.255,0,0,0-.126.389c-.03.142-.047.293-.064.43a2.124,2.124,0,0,1-.063.348c-.029.09-.07.144-.132.144a.1.1,0,0,1-.036,0,.219.219,0,0,1-.043-.018l-.051-.032-.056-.047a1.6,1.6,0,0,1-.091-.266,2.829,2.829,0,0,1-.095-.657,3.868,3.868,0,0,1,.1-1,5.16,5.16,0,0,1,.49-1.27,11.129,11.129,0,0,1,.691-1.111c.206-.294.393-.538.547-.788a2.963,2.963,0,0,0,.372-.81,4.614,4.614,0,0,0,.157-1.174c.013-.487.014-.873.018-1.187s.008-.56.031-.766a1.778,1.778,0,0,1,.128-.534,1.929,1.929,0,0,1,.3-.488c.14-.175.286-.328.423-.478a2.737,2.737,0,0,0,.361-.461,1.438,1.438,0,0,0,.209-.563,2.266,2.266,0,0,0-.039-.786c-.064-.309-.126-.587-.171-.841a3.48,3.48,0,0,1-.066-.7,1.5,1.5,0,0,1,.127-.6,1.62,1.62,0,0,1,.4-.54,2.373,2.373,0,0,0,.474-.641,3.328,3.328,0,0,0,.293-.76,3.1,3.1,0,0,0,.1-.721,1.152,1.152,0,0,0-.092-.526,2.06,2.06,0,0,1-.142-.345.979.979,0,0,1-.015-.387,3.188,3.188,0,0,1,.163-.591c.088-.249.216-.559.387-.96a8.343,8.343,0,0,1,.483-.949c.145-.245.272-.444.367-.63a1.458,1.458,0,0,0,.165-.582,2.242,2.242,0,0,0-.114-.788c-.095-.324-.187-.581-.264-.8a5.676,5.676,0,0,1-.188-.588,1.867,1.867,0,0,1-.055-.571,3.444,3.444,0,0,1,.136-.747,2.731,2.731,0,0,0,.126-.674.838.838,0,0,0-.08-.4,4.358,4.358,0,0,0-.24-.4,5.19,5.19,0,0,1-.339-.646c-.125-.285-.222-.481-.3-.635a2.263,2.263,0,0,1-.153-.38,1.179,1.179,0,0,1-.027-.4c.012-.162.045-.374.091-.674s.079-.545.093-.753a2.667,2.667,0,0,0-.014-.539,1.962,1.962,0,0,0-.116-.446,4.386,4.386,0,0,0-.216-.456c-.089-.169-.161-.3-.219-.431a1.688,1.688,0,0,1-.129-.372,2.028,2.028,0,0,1-.038-.454,6.488,6.488,0,0,1,.053-.677c.032-.275.061-.483.079-.658a2.375,2.375,0,0,0,.017-.445,1.658,1.658,0,0,0-.1-.43,6.276,6.276,0,0,0-.276-.6c-.124-.251-.244-.466-.346-.661a5.173,5.173,0,0,1-.258-.541,1.816,1.816,0,0,1-.115-.527,1.868,1.868,0,0,1,.069-.6,6.054,6.054,0,0,0,.134-.609c.029-.181.046-.343.056-.489s.008-.276.006-.392-.011-.219-.015-.312a.229.229,0,0,1,.084-.207.53.53,0,0,1,.245-.1,2.968,2.968,0,0,1,.355-.039c.129-.009.269-.017.407-.03a.288.288,0,0,1,.033,0h.032l.031,0h.035a1.325,1.325,0,0,1,.139.005c.049,0,.1.008.146.012s.1.012.153.019.1.015.159.022.115.015.175.021.12.014.181.019.129.011.2.013.141,0,.215,0,.12,0,.181-.007.127-.007.193-.014.136-.015.206-.026.146-.022.221-.037.158-.029.233-.042.151-.02.224-.03.142-.014.213-.019.138-.007.205-.008a2.538,2.538,0,0,1,.486.037,1.4,1.4,0,0,1,.39.124.861.861,0,0,1,.283.217.784.784,0,0,1,.155.317c.04.168.08.323.123.471s.091.288.14.429.106.273.164.415.124.285.194.438a1.2,1.2,0,0,1,.107.518,2.641,2.641,0,0,1-.056.549c-.036.171-.078.329-.114.445s-.067.192-.073.2-.02.042-.048.1-.068.141-.108.243-.087.218-.133.349a4.075,4.075,0,0,0-.125.426c.285.178.506.305.685.411a4.366,4.366,0,0,1,.421.274,1.375,1.375,0,0,1,.279.293,3.348,3.348,0,0,1,.27.472,6.028,6.028,0,0,0,.32.562q.167.254.341.47c.112.144.225.276.334.4s.217.238.316.349.258.249.438.411.39.35.586.557a3.512,3.512,0,0,1,.523.677,1.759,1.759,0,0,1,.253.772c.016.272.016.581.025.916a8.539,8.539,0,0,0,.089,1.053,4.561,4.561,0,0,0,.309,1.1,3.589,3.589,0,0,0,.689,1.045,5.913,5.913,0,0,1,.721.913,3.582,3.582,0,0,1,.384.82,4.423,4.423,0,0,1,.178.816c.039.282.065.575.1.9a4.065,4.065,0,0,1,.015.757c-.015.2-.035.344-.034.487a.986.986,0,0,0,.109.439,3.35,3.35,0,0,0,.456.628,3.2,3.2,0,0,1,.51.808,3.437,3.437,0,0,1,.234.8,7.18,7.18,0,0,1,.087.78c.015.252.032.5.06.735a5.5,5.5,0,0,1,.02.726c-.007.273-.014.575,0,.89a4.235,4.235,0,0,0,.162.971,3.109,3.109,0,0,0,.494.984,3.635,3.635,0,0,0-.187-.593c-.068-.162-.133-.3-.183-.427a1.2,1.2,0,0,1-.082-.422,1.728,1.728,0,0,1,.114-.574c.08-.231.145-.4.19-.548a1.361,1.361,0,0,0,.068-.426,2.4,2.4,0,0,0-.088-.559c-.058-.235-.146-.536-.272-.943s-.226-.771-.3-1.108a7.746,7.746,0,0,1-.158-.945,5.211,5.211,0,0,1,.1-1.692c.063-.285.112-.5.144-.682a2.229,2.229,0,0,0,.042-.486,2.118,2.118,0,0,0-.082-.5c-.048-.191-.121-.419-.222-.716s-.182-.522-.246-.708a4.727,4.727,0,0,1-.15-.461,1.821,1.821,0,0,1-.06-.416,4.769,4.769,0,0,1,.024-.56c.022-.229.047-.4.066-.551a2.137,2.137,0,0,0,.024-.4,1.463,1.463,0,0,0-.088-.422,5.379,5.379,0,0,0-.277-.624c-.131-.262-.232-.443-.313-.585s-.138-.24-.181-.34a1.233,1.233,0,0,1-.086-.333c-.016-.139-.025-.311-.03-.561s0-.455.013-.632.019-.333.022-.478a2.083,2.083,0,0,0-.035-.436,2.324,2.324,0,0,0-.159-.511c-.081-.2-.15-.355-.207-.495a2.914,2.914,0,0,1-.132-.38,1.558,1.558,0,0,1-.051-.368,2.439,2.439,0,0,1,.037-.464c.027-.181.051-.323.069-.444a1.56,1.56,0,0,0,.018-.31.872.872,0,0,0-.065-.283,2.589,2.589,0,0,0-.179-.361l-.194-.348a1.348,1.348,0,0,1-.1-.255,1.383,1.383,0,0,1-.051-.284c-.01-.112-.015-.248-.019-.428a1.914,1.914,0,0,0-.049-.421,1.043,1.043,0,0,0-.115-.28c-.05-.085-.111-.169-.181-.278s-.152-.237-.245-.412-.161-.3-.217-.4a1.971,1.971,0,0,1-.128-.269,1.323,1.323,0,0,1-.064-.3c-.015-.125-.024-.282-.033-.5a4.3,4.3,0,0,0-.075-.594c-.034-.187-.069-.366-.082-.515a.55.55,0,0,1,.066-.366.407.407,0,0,1,.361-.143h.078l.042,0c.012,0,.028,0,.044,0a3.846,3.846,0,0,1,.548.095c.136.038.235.074.338.11a2.263,2.263,0,0,0,.339.1,3.679,3.679,0,0,0,.569.065c.251.013.453.023.626.038a4.174,4.174,0,0,1,.439.063,2.8,2.8,0,0,1,.361.1c.119.043.246.1.4.163a.968.968,0,0,1,.329.217.447.447,0,0,1,.121.251.918.918,0,0,1-.019.3c-.023.107-.059.225-.1.354s-.066.225-.087.31a.756.756,0,0,0-.016.227.933.933,0,0,0,.062.258C580.912,307.877,580.966,308,581.039,308.17Z" transform="translate(-562.292 -305.116)"/></g><g transform="translate(108.468 293.761)"><path class="a" d="M125.552,322.142c-.014.2-.015.37-.017.536a3.605,3.605,0,0,1-.026.485,1.82,1.82,0,0,1-.142.493,2.551,2.551,0,0,1-.354.564c-.165.208-.339.4-.512.6s-.346.382-.5.574a4.1,4.1,0,0,0-.413.592,2.247,2.247,0,0,0-.254.651c-.046.233-.093.442-.148.645a3.627,3.627,0,0,1-.213.591,3.536,3.536,0,0,1-.366.609,6.43,6.43,0,0,1-.6.7c-.251.255-.492.463-.723.66s-.447.381-.643.579a3.267,3.267,0,0,0-.521.673,3.423,3.423,0,0,0-.359.95,5.624,5.624,0,0,1-.309.968,3.7,3.7,0,0,1-.415.717,7.439,7.439,0,0,1-.55.655c-.209.227-.449.475-.719.775s-.519.6-.744.9-.432.6-.624.892-.372.587-.542.874-.337.571-.5.849a7.6,7.6,0,0,0-.431.875c-.129.3-.252.609-.386.918a8.564,8.564,0,0,1-.446.909,4.669,4.669,0,0,1-.609.846,7.056,7.056,0,0,0-.637.823,9.317,9.317,0,0,0-.489.825c-.144.269-.268.523-.379.753s-.211.434-.3.6-.171.32-.247.46-.145.271-.213.383a1.789,1.789,0,0,1-.219.294.88.88,0,0,1-.257.2.21.21,0,0,1-.183-.026.212.212,0,0,1-.058-.165,1.582,1.582,0,0,1,.025-.29c.019-.118.042-.254.065-.409.031-.191.076-.461.134-.768s.127-.648.207-.982.168-.654.262-.925a2.174,2.174,0,0,1,.3-.625,3.258,3.258,0,0,0,.316-.474,3.916,3.916,0,0,0,.273-.568,2.425,2.425,0,0,0,.149-.57.883.883,0,0,0-.047-.47,1.477,1.477,0,0,1-.117-.414,2.6,2.6,0,0,1-.016-.476c.01-.165.031-.343.061-.527s.071-.379.114-.58.1-.413.147-.631.1-.44.139-.67a4.748,4.748,0,0,0,.073-.7,3.319,3.319,0,0,0-.048-.725,3.527,3.527,0,0,1,.016-1.322,4.306,4.306,0,0,1,.17-.592c.069-.191.15-.385.24-.576s.166-.384.238-.581a5.764,5.764,0,0,0,.189-.6,5.348,5.348,0,0,0,.123-.64,5.267,5.267,0,0,0,.044-.7c0-.244,0-.439.01-.6a3.442,3.442,0,0,1,.035-.42,2.941,2.941,0,0,1,.072-.361c.032-.122.073-.256.124-.425s.1-.355.144-.552a5.274,5.274,0,0,0,.106-.611,3.33,3.33,0,0,0,.025-.594,1.481,1.481,0,0,0-.1-.5c-.057-.142-.127-.279-.195-.413a3.915,3.915,0,0,1-.184-.411,1.619,1.619,0,0,1-.1-.45,1.681,1.681,0,0,1,.057-.533,5.176,5.176,0,0,1,.19-.542c.068-.169.137-.332.205-.5a4.076,4.076,0,0,0,.166-.527,3.127,3.127,0,0,0,.088-.625,3.557,3.557,0,0,0-.035-.637c-.027-.195-.061-.375-.081-.554a2.011,2.011,0,0,1-.009-.536,1.7,1.7,0,0,1,.183-.585c.1-.21.195-.389.272-.556s.142-.317.2-.468a4.261,4.261,0,0,0,.143-.464c.04-.164.075-.341.107-.547a1.854,1.854,0,0,0,.01-.525c-.019-.15-.049-.28-.068-.41a1.322,1.322,0,0,1-.016-.408,1.506,1.506,0,0,1,.178-.5,4.758,4.758,0,0,0,.253-.53,2.769,2.769,0,0,0,.138-.445,2.262,2.262,0,0,0,.047-.409,3.342,3.342,0,0,0-.019-.42,3.615,3.615,0,0,1-.015-.392c0-.15.009-.317.024-.488s.036-.354.066-.529.063-.35.105-.511c-.153-.015-.309-.032-.466-.044s-.32-.027-.481-.037-.325-.018-.487-.024-.327-.008-.487-.006c-.131,0-.263.005-.391.012s-.258.018-.383.031-.25.031-.371.053-.242.048-.358.079c-.23.059-.435.108-.619.15s-.343.071-.487.1-.271.041-.383.052-.213.016-.306.017-.177,0-.257-.009-.155-.013-.228-.022l-.232-.027c-.082-.008-.166-.015-.26-.02-.19-.012-.362-.016-.506-.023a2.834,2.834,0,0,1-.358-.034c-.088-.017-.14-.041-.151-.076s.022-.087.109-.156.173-.142.274-.22.212-.161.344-.247a4.627,4.627,0,0,1,.459-.264c.178-.092.384-.185.623-.281s.5-.192.778-.3.559-.217.842-.34a8.662,8.662,0,0,0,.832-.4,5.2,5.2,0,0,0,.743-.5,8.421,8.421,0,0,0,.634-.583c.2-.2.4-.4.6-.592a7.368,7.368,0,0,1,.617-.542,3.849,3.849,0,0,1,.7-.431c.051-.022.1-.045.147-.066l.139-.061c.046-.017.09-.036.133-.054s.085-.034.127-.051c0-.047,0-.1,0-.159s0-.129.011-.208.014-.166.024-.266.02-.209.032-.33c.023-.238.045-.42.056-.569a1.959,1.959,0,0,0,0-.364.862.862,0,0,0-.07-.284,3.2,3.2,0,0,0-.166-.341,1.145,1.145,0,0,1-.128-.44,1.67,1.67,0,0,1,.022-.465,2.056,2.056,0,0,1,.121-.432,1.816,1.816,0,0,1,.172-.344,1.37,1.37,0,0,0,.133-.258.994.994,0,0,0,.06-.2.544.544,0,0,0,.013-.135.367.367,0,0,0,0-.056.626.626,0,0,0,.015-.1,1.988,1.988,0,0,0,.013-.219,1.429,1.429,0,0,0-.031-.276.856.856,0,0,0-.108-.272.933.933,0,0,1-.122-.281.749.749,0,0,1-.012-.3.475.475,0,0,1,.131-.257.566.566,0,0,1,.313-.144l.108-.014.112-.01.116-.006c.038,0,.076,0,.117,0,.11,0,.225,0,.336.007s.228.015.339.024l.326.031c.106.011.208.019.3.029l.112.006c.036,0,.07.005.1.006l.1,0h.093c.074,0,.147,0,.214-.009s.135-.019.2-.03.133-.03.2-.051.134-.043.2-.07.128-.046.2-.068.15-.042.23-.059.162-.033.242-.044a2.025,2.025,0,0,1,.249-.02c.052,0,.1,0,.157.008a1.419,1.419,0,0,1,.149.023.976.976,0,0,1,.139.042.839.839,0,0,1,.124.065.372.372,0,0,1,.163.212.454.454,0,0,1-.022.238,1.3,1.3,0,0,1-.109.227,1.776,1.776,0,0,0-.1.187c-.023.05-.041.1-.062.148s-.033.1-.047.149a.859.859,0,0,0-.02.149.642.642,0,0,0,.019.16.522.522,0,0,1,.012.181.818.818,0,0,1-.038.2.949.949,0,0,1-.226.373.788.788,0,0,0-.137.2,1.532,1.532,0,0,0-.088.245,1.76,1.76,0,0,0-.046.24,1.478,1.478,0,0,0-.013.191.57.57,0,0,1-.008.152.777.777,0,0,1-.055.184,1.565,1.565,0,0,1-.118.234c-.055.089-.123.19-.208.306a.926.926,0,0,0-.059.085.782.782,0,0,0-.054.09c-.019.03-.037.064-.053.1s-.037.068-.056.1c.085-.058.17-.117.257-.174s.177-.116.267-.173.181-.113.276-.168.19-.108.287-.163c.383-.206.693-.364.952-.5s.472-.24.657-.344a4.23,4.23,0,0,0,.5-.326,4.078,4.078,0,0,0,.478-.439,6.789,6.789,0,0,0,.463-.558c.142-.185.279-.367.432-.533a2.442,2.442,0,0,1,.507-.436,2,2,0,0,1,.693-.267c.271-.052.511-.11.721-.172a4.055,4.055,0,0,0,.552-.2,2.358,2.358,0,0,0,.743-.514c.094-.1.181-.195.268-.285a3.339,3.339,0,0,1,.267-.263,2.425,2.425,0,0,1,.339-.251,3.391,3.391,0,0,1,.474-.241c.186-.078.338-.144.467-.2s.228-.111.315-.16a1.622,1.622,0,0,0,.224-.142,2.155,2.155,0,0,0,.183-.163c.04-.04.04-.073.008-.1a.407.407,0,0,0-.173-.065,2.721,2.721,0,0,0-.288-.034c-.108-.007-.224-.008-.34-.007l-.182,0-.171.01c-.051,0-.1.011-.146.016s-.082.012-.114.016c-.085.019-.338.076-.687.148s-.792.167-1.257.256-.951.178-1.385.244a8.274,8.274,0,0,1-1.07.113h-.1a.367.367,0,0,0-.044,0l-.04,0-.151-.019c-.049,0-.1-.01-.147-.013l-.139-.007c-.046,0-.092,0-.136,0a2.47,2.47,0,0,0-.337.024,2.346,2.346,0,0,0-.323.065,3.179,3.179,0,0,0-.324.107c-.109.042-.225.092-.344.152l-.36.179c-.117.055-.233.107-.357.151a2.568,2.568,0,0,1-.4.106,3.406,3.406,0,0,1-.5.042c-.056,0-.116,0-.176,0s-.126-.006-.192-.011-.134-.012-.206-.019-.147-.015-.225-.027c-.156-.022-.3-.04-.435-.056s-.258-.03-.373-.04-.219-.02-.319-.025-.2-.007-.284-.007-.193.007-.285.016-.183.02-.273.036-.184.038-.28.063-.2.052-.306.087-.241.074-.365.105-.241.059-.367.084-.251.043-.384.057a3.92,3.92,0,0,1-.412.022c-.1,0-.2,0-.3,0s-.215-.014-.329-.029-.234-.027-.356-.047-.252-.046-.388-.075a1.525,1.525,0,0,1-.721-.332.9.9,0,0,1-.275-.482,1.361,1.361,0,0,1-.008-.5,2.967,2.967,0,0,1,.089-.389c.027-.1.074-.264.137-.467s.149-.433.249-.659a3.18,3.18,0,0,1,.339-.605.76.76,0,0,1,.416-.312.256.256,0,0,1,.052-.008c.018,0,.034-.006.049-.007s.033,0,.053,0l.05,0c.047,0,.093,0,.139.006s.094.008.141.016.092.014.137.021l.133.029c.042.008.085.018.126.024a1.036,1.036,0,0,0,.117.023,1.061,1.061,0,0,0,.11.017.745.745,0,0,0,.1,0,.338.338,0,0,0,.082-.008.222.222,0,0,0,.066-.022.182.182,0,0,0,.053-.042.177.177,0,0,0,.037-.064c.03-.075.061-.15.1-.222a.886.886,0,0,1,.147-.2.6.6,0,0,1,.219-.141.826.826,0,0,1,.314-.058c.024,0,.052,0,.078,0l.078.006c.031,0,.057.008.085.013l.091.015c.141.031.287.072.434.115s.307.092.466.136.321.085.488.114a2.872,2.872,0,0,0,.51.043c.061,0,.12,0,.18-.01s.121-.013.181-.021a1.831,1.831,0,0,0,.182-.043c.06-.015.122-.036.184-.058.16-.058.3-.111.416-.152s.222-.076.317-.1a2.248,2.248,0,0,1,.273-.058,2.069,2.069,0,0,1,.278-.022c.054,0,.108,0,.166,0s.121.006.188.011.139.009.219.016l.256.024.216.02c.067.006.134.01.2.013s.125.005.184.006.12,0,.178,0a4.162,4.162,0,0,0,.424-.024c.133-.016.264-.037.4-.064s.269-.059.408-.1.3-.085.459-.134c.079-.026.158-.045.232-.063s.147-.031.216-.043.136-.019.2-.025.13-.009.192-.008a2.682,2.682,0,0,1,.329.016c.106.012.208.03.312.047s.2.046.31.067.208.049.316.073.232.052.349.078.236.055.359.078.247.044.378.058a3.461,3.461,0,0,0,.4.02c.065,0,.13,0,.2-.009s.136-.012.207-.021.14-.024.214-.04.145-.034.222-.055c.116-.035.222-.064.321-.086s.2-.046.283-.065.175-.028.256-.036.159-.015.235-.015a1.77,1.77,0,0,1,.244.013,1.727,1.727,0,0,1,.239.04,2.44,2.44,0,0,1,.249.067c.083.028.168.059.264.094a1.787,1.787,0,0,0,.282.088,2.6,2.6,0,0,0,.32.059c.109.014.224.025.341.029s.236.01.356.009.24-.007.358-.014.239-.018.354-.029.227-.027.336-.045.21-.033.307-.051c.179-.033.339-.074.491-.112s.3-.08.447-.118.3-.068.47-.093a4.711,4.711,0,0,1,.565-.04h.053l.055,0h.056l.056,0h.062l.06,0a.417.417,0,0,1,.058,0h.058a4.31,4.31,0,0,0,.564-.041,3.148,3.148,0,0,0,.83-.236c.118-.053.231-.109.344-.165a1.572,1.572,0,0,1,.313-.12,3.534,3.534,0,0,1,.385-.087c.134-.025.274-.042.409-.055s.269-.018.39-.02c.049,0,.094,0,.141,0s.088,0,.126.006a1.078,1.078,0,0,1,.112.012c.034.006.064.01.093.018.093.025.119.112.094.237a1.614,1.614,0,0,1-.2.46,4.282,4.282,0,0,1-.355.513,3,3,0,0,1-.373.4c-.111.1-.223.2-.344.307s-.254.224-.406.342-.322.24-.518.365a6.944,6.944,0,0,1-.685.375c-.263.125-.6.283-.965.452s-.762.354-1.138.536-.735.356-1.027.511a4.267,4.267,0,0,0-.627.382,2.091,2.091,0,0,0-.326.416c-.116.174-.242.377-.4.584a3.547,3.547,0,0,1-.6.613,3.212,3.212,0,0,1-.916.5c-.373.131-.736.241-1.087.345s-.682.2-1,.312a6.316,6.316,0,0,0-.882.372,3.188,3.188,0,0,0-.738.521c-.22.209-.449.426-.682.637s-.475.418-.717.613-.49.381-.731.541a5.453,5.453,0,0,1-.723.414c-.237.107-.47.227-.692.35s-.428.249-.615.37a4.7,4.7,0,0,0-.479.356,1.576,1.576,0,0,0-.285.3c-.057.086-.117.194-.189.314a3.745,3.745,0,0,1-.261.381,2.443,2.443,0,0,1-.942.735c-.219.1-.438.206-.655.312s-.423.223-.62.334-.382.227-.546.338a4.409,4.409,0,0,0-.435.324,4.133,4.133,0,0,1-.346.261,2.51,2.51,0,0,1-.291.177,2.04,2.04,0,0,1-.215.1.454.454,0,0,1-.117.032.051.051,0,0,1,.014,0,.173.173,0,0,0,.046.01.31.31,0,0,0,.074.014c.032,0,.064,0,.106,0s.084,0,.134-.009.1-.015.163-.029a1.611,1.611,0,0,0,.2-.057,2.378,2.378,0,0,0,.226-.087c.156-.07.319-.146.486-.22s.345-.145.526-.207a4.541,4.541,0,0,1,.576-.158,3.555,3.555,0,0,1,.639-.065c.143,0,.289.006.44.013s.3.019.456.026.312.019.473.026.317.011.476.008c.116,0,.236-.006.352-.013s.236-.021.35-.035.231-.04.343-.068a3.1,3.1,0,0,0,.333-.1c.25-.092.477-.192.7-.29s.427-.191.647-.272a4.067,4.067,0,0,1,.7-.2,4.3,4.3,0,0,1,.849-.088c.224,0,.43.006.62.013s.365.019.528.028.318.019.465.025.285.012.422.011c.08,0,.159,0,.237-.009s.157-.012.236-.022.159-.025.237-.04.16-.037.242-.062a3.684,3.684,0,0,0,.6-.239c.189-.094.373-.2.573-.288a3.663,3.663,0,0,1,.651-.243,3.321,3.321,0,0,1,.837-.108h.133l.048,0,.274.008c.09,0,.171,0,.25.006l.221,0c.07,0,.135,0,.2,0,.163,0,.3-.008.431-.02a2.578,2.578,0,0,0,.341-.047,2.392,2.392,0,0,0,.3-.087c.1-.036.2-.077.312-.127.134-.063.243-.12.343-.172a3.062,3.062,0,0,1,.289-.137,1.561,1.561,0,0,1,.335-.092,2.948,2.948,0,0,1,.472-.036l.082,0c.031,0,.059,0,.089,0h.093l.1,0a5.976,5.976,0,0,1,.705.074,4.241,4.241,0,0,1,.514.122c.149.045.279.094.407.139s.249.088.382.123.194.084.216.141a.21.21,0,0,1-.058.19,1.3,1.3,0,0,1-.2.207c-.082.069-.166.133-.235.191a2.532,2.532,0,0,0-.291.357c-.126.173-.278.386-.458.606a5.914,5.914,0,0,1-.609.658,2.852,2.852,0,0,1-.745.5,3.757,3.757,0,0,0-.705.409,4.4,4.4,0,0,0-.543.479c-.161.166-.306.335-.447.5s-.277.329-.42.481a5.49,5.49,0,0,0-.359.433c-.1.137-.2.271-.306.4a3,3,0,0,1-.392.388,3.466,3.466,0,0,1-.606.387,4.363,4.363,0,0,0-.622.39,3.168,3.168,0,0,0-.4.363c-.107.117-.188.23-.266.331s-.14.2-.213.283-.147.169-.214.256a1.861,1.861,0,0,0-.184.263,1.019,1.019,0,0,0-.142.649,1.166,1.166,0,0,1-.017.377,1.322,1.322,0,0,1-.147.36,1.733,1.733,0,0,1-.277.337,2.756,2.756,0,0,1-.406.316c-.156.1-.323.207-.5.321s-.358.229-.544.36-.38.274-.576.437a6.989,6.989,0,0,0-.591.545c-.2.205-.448.46-.708.738s-.539.582-.794.886a8.448,8.448,0,0,0-.657.88A1.772,1.772,0,0,0,125.552,322.142Zm-.537-4.241c.073-.142.143-.271.216-.389a2.723,2.723,0,0,1,.224-.317,2.3,2.3,0,0,1,.264-.27,2.665,2.665,0,0,1,.331-.239c.125-.076.243-.142.354-.206a3.693,3.693,0,0,0,.317-.2,1.661,1.661,0,0,0,.284-.249,1.923,1.923,0,0,0,.258-.366,2.23,2.23,0,0,0,.189-.461c.05-.158.087-.321.13-.485a3.782,3.782,0,0,1,.15-.491,2.149,2.149,0,0,1,.252-.476,3.229,3.229,0,0,1,.308-.367c.093-.1.183-.179.273-.264s.186-.176.289-.289a4.28,4.28,0,0,0,.338-.445c.125-.189.219-.338.3-.461a3.159,3.159,0,0,1,.208-.3,1.43,1.43,0,0,1,.207-.223,2.435,2.435,0,0,1,.3-.213c.126-.076.261-.169.395-.268s.266-.2.384-.3.229-.2.315-.285a1.466,1.466,0,0,0,.183-.211.115.115,0,0,0,.025-.064.049.049,0,0,0-.024-.043.189.189,0,0,0-.068-.024.859.859,0,0,0-.108-.006c-.044,0-.091,0-.145.009s-.114.01-.177.019-.134.019-.206.029l-.23.035a3.521,3.521,0,0,0-.508.132c-.175.056-.358.125-.544.191s-.38.129-.58.179a3.123,3.123,0,0,1-.616.1h-.036l-.035,0h-.069c-.045,0-.089,0-.131,0s-.084,0-.125,0-.077,0-.115-.009a.744.744,0,0,1-.112-.009c-.034,0-.072,0-.107-.008s-.07-.005-.106-.007-.071,0-.107,0h-.106c-.074,0-.15,0-.23.013a2.175,2.175,0,0,0-.255.051,2.914,2.914,0,0,0-.291.091c-.1.041-.216.089-.34.15-.2.1-.373.177-.531.246a4.08,4.08,0,0,1-.443.172,2.627,2.627,0,0,1-.424.1,3.345,3.345,0,0,1-.484.035c-.053,0-.108,0-.166,0l-.18-.005-.2-.012-.214-.014c-.055,0-.111-.01-.167-.012s-.111-.006-.167-.007l-.165,0c-.054,0-.111,0-.165,0-.254,0-.505.018-.739.04s-.461.056-.668.094-.4.078-.568.122a4.574,4.574,0,0,0-.44.13c-.056.019-.117.041-.181.065l-.2.08c-.074.028-.147.059-.226.092l-.244.095c-.024.053-.054.127-.087.214a2.712,2.712,0,0,0-.1.32,3.783,3.783,0,0,0-.084.415,5.024,5.024,0,0,0-.047.513c-.007.252-.008.455-.012.628s-.008.316-.02.45a2.469,2.469,0,0,1-.069.388,3.466,3.466,0,0,1-.163.445,4.482,4.482,0,0,1-.209.429c-.066.116-.126.212-.177.305a1.392,1.392,0,0,0-.122.288,1.552,1.552,0,0,0-.053.377c0,.154-.005.277-.016.389a2.452,2.452,0,0,1-.044.3,2.258,2.258,0,0,1-.1.308c-.045.113-.1.239-.17.393s-.152.317-.236.481-.169.336-.237.509a2.416,2.416,0,0,0-.152.54,1.567,1.567,0,0,0,.012.574,3.16,3.16,0,0,1,.062.6,4.153,4.153,0,0,1-.036.611,5.526,5.526,0,0,1-.12.6c-.051.2-.115.393-.181.581s-.174.439-.283.72-.23.6-.332.922a5.922,5.922,0,0,0-.232.947,1.963,1.963,0,0,0,.019.8c.066.222.138.409.2.577a4.069,4.069,0,0,1,.159.476,1.442,1.442,0,0,1,.032.493,2.3,2.3,0,0,1-.176.637,5.66,5.66,0,0,0-.228.661c-.054.2-.094.381-.141.57a5.482,5.482,0,0,1-.52,1.363,7.483,7.483,0,0,0-.349.745,3.717,3.717,0,0,0-.174.556,4.925,4.925,0,0,0-.078.5c-.019.178-.036.371-.064.6s-.062.492-.095.751-.063.525-.092.772-.058.476-.085.667-.047.343-.06.433a.327.327,0,0,0-.008.056.1.1,0,0,0,0,.038.045.045,0,0,0,.01.022.015.015,0,0,0,.015.007c.02,0,.051-.022.086-.062a1.21,1.21,0,0,0,.117-.159,2.655,2.655,0,0,0,.219-.46,3.257,3.257,0,0,1,.145-.356c.062-.134.136-.277.214-.423s.167-.294.256-.434.178-.273.268-.389.211-.251.35-.4.3-.318.45-.5a5.611,5.611,0,0,0,.435-.559,2.8,2.8,0,0,0,.316-.6c.07-.206.133-.433.194-.672s.132-.486.21-.724a3.705,3.705,0,0,1,.289-.672,1.727,1.727,0,0,1,.432-.519c.177-.139.331-.265.465-.387a4.653,4.653,0,0,0,.359-.352,3.38,3.38,0,0,0,.276-.348,3.273,3.273,0,0,0,.225-.372c.067-.132.129-.261.188-.393s.119-.264.188-.4a4.426,4.426,0,0,1,.243-.432,4.342,4.342,0,0,1,.351-.483,3.36,3.36,0,0,0,.356-.529c.1-.179.19-.36.278-.536a5.092,5.092,0,0,1,.279-.5,2.038,2.038,0,0,1,.365-.424,3.029,3.029,0,0,0,.346-.338,1.557,1.557,0,0,0,.211-.325,2.226,2.226,0,0,0,.133-.4c.035-.154.068-.333.1-.556s.063-.467.09-.726.053-.527.092-.789a4.915,4.915,0,0,1,.156-.747,1.925,1.925,0,0,1,.284-.6c.124-.168.25-.319.372-.461s.245-.274.362-.4.223-.257.322-.387a2.564,2.564,0,0,0,.257-.408" transform="translate(-108.468 -294.508)"/></g><g transform="translate(120.881 293.651)"><path class="a" d="M235.848,326.516a1.39,1.39,0,0,1,.385.313,1.842,1.842,0,0,1,.253.368,1.932,1.932,0,0,1,.138.311,1.269,1.269,0,0,1,.048.148c-.006.012-.037.08-.095.184a4.767,4.767,0,0,1-.265.4,4.086,4.086,0,0,1-.442.506,3.747,3.747,0,0,1-.626.5c-.242.153-.506.328-.772.521s-.539.407-.8.627a8.289,8.289,0,0,0-.715.675,4.372,4.372,0,0,0-.532.67,3.137,3.137,0,0,0-.265.523,2.891,2.891,0,0,1-.142.341.8.8,0,0,1-.25.275,3.283,3.283,0,0,1-.586.327c-.278.13-.688.279-1.164.445s-1.019.348-1.566.539-1.1.4-1.584.6a6.862,6.862,0,0,0-1.22.645c-.3.219-.53.406-.723.564s-.351.291-.512.406a2.432,2.432,0,0,1-.534.278,4.505,4.505,0,0,1-.794.189c-.118.019-.226.033-.326.044s-.189.021-.273.024-.158.01-.225.012-.135,0-.194,0c-.125,0-.232.006-.328.01a1.746,1.746,0,0,0-.271.045,1.406,1.406,0,0,0-.269.1,2.769,2.769,0,0,0-.314.179,5.769,5.769,0,0,1-.519.3,2.265,2.265,0,0,1-.4.155,3.434,3.434,0,0,1-.432.084c-.166.026-.365.052-.622.1s-.553.056-.9.092a8.453,8.453,0,0,0-1.226.209,9.252,9.252,0,0,0-1.633.584,15.409,15.409,0,0,0-2.141,1.232c-.812.552-1.455.975-1.974,1.314s-.926.593-1.259.8-.6.383-.843.554-.477.346-.742.565-.517.451-.747.681-.443.459-.635.673-.365.41-.511.577-.274.306-.372.4a.787.787,0,0,1-.109.086,1.042,1.042,0,0,1-.115.063.627.627,0,0,1-.121.035.536.536,0,0,1-.331-.031.368.368,0,0,1-.159-.135.463.463,0,0,1-.072-.235.926.926,0,0,1,.048-.33c.059-.193.16-.514.291-.914s.29-.876.465-1.38.365-1.029.554-1.536.387-.981.57-1.391.351-.779.512-1.118.313-.643.47-.917a5.684,5.684,0,0,1,.488-.734,3.432,3.432,0,0,1,.563-.572c.209-.166.365-.283.486-.385a1.664,1.664,0,0,0,.289-.284,1.485,1.485,0,0,0,.2-.363c.063-.153.126-.35.21-.621s.151-.49.216-.686.128-.365.2-.524a3.2,3.2,0,0,1,.253-.461,5.745,5.745,0,0,1,.378-.5,3.61,3.61,0,0,0,.355-.491,1.956,1.956,0,0,0,.188-.433,4.026,4.026,0,0,0,.1-.485c.029-.181.056-.392.1-.646a5.026,5.026,0,0,1,.15-.653,2.541,2.541,0,0,1,.2-.488,2.4,2.4,0,0,1,.26-.385,4.214,4.214,0,0,1,.337-.35,3.043,3.043,0,0,0,.379-.443,4.306,4.306,0,0,0,.372-.629,6.6,6.6,0,0,0,.339-.834,9.353,9.353,0,0,0,.278-1.05,2.964,2.964,0,0,1,.289-.865,2.138,2.138,0,0,1,.407-.509c.157-.154.334-.31.53-.53a5.528,5.528,0,0,0,.664-.909c.241-.407.425-.712.575-.973a6.16,6.16,0,0,0,.344-.684,4.589,4.589,0,0,0,.218-.7c.062-.269.122-.589.194-1.013a2.668,2.668,0,0,1,.912-1.667c.206-.183.423-.341.632-.509a3.319,3.319,0,0,0,.577-.571c.169-.225.343-.442.518-.662s.342-.444.5-.675a6.119,6.119,0,0,0,.44-.725,4.706,4.706,0,0,0,.323-.821c.083-.294.151-.538.221-.747a3.859,3.859,0,0,1,.211-.532,1.833,1.833,0,0,1,.273-.4,2.588,2.588,0,0,1,.394-.351,1.656,1.656,0,0,0,.373-.364,1.842,1.842,0,0,0,.206-.379c.051-.123.088-.245.125-.359a1.814,1.814,0,0,1,.127-.311c.054-.095.1-.194.156-.306s.113-.236.194-.378a4.536,4.536,0,0,1,.3-.476,7.493,7.493,0,0,1,.472-.607,5.684,5.684,0,0,0,.527-.727,4.979,4.979,0,0,0,.395-.8,4.242,4.242,0,0,0,.227-.827,3.238,3.238,0,0,0,.027-.818c-.027-.268-.042-.458-.048-.6s-.006-.244,0-.334.005-.165,0-.262-.006-.213-.024-.381a3.845,3.845,0,0,1-.023-.458,1.927,1.927,0,0,1,.052-.4,1.951,1.951,0,0,1,.142-.4,3.915,3.915,0,0,1,.258-.458c.1-.167.192-.307.257-.432a1.791,1.791,0,0,0,.152-.351,1.541,1.541,0,0,0,.055-.358,2.994,2.994,0,0,0-.029-.461,4.163,4.163,0,0,1-.03-.462,1.571,1.571,0,0,1,.038-.359,1.816,1.816,0,0,1,.115-.336c.052-.117.119-.241.2-.388s.175-.3.273-.466a5.071,5.071,0,0,0,.281-.532,2.881,2.881,0,0,0,.212-.626,2.766,2.766,0,0,0,.057-.744,1.144,1.144,0,0,1-.048-.133,1.862,1.862,0,0,1-.062-.326,2.034,2.034,0,0,1,.018-.48,2.237,2.237,0,0,1,.185-.6,1.858,1.858,0,0,0,.16-.576c.022-.167.026-.315.051-.438a.412.412,0,0,1,.188-.287,1.185,1.185,0,0,1,.568-.129c.232-.012.43-.028.612-.043s.343-.033.494-.051.3-.031.441-.041.288-.021.445-.022h.1c.036,0,.071,0,.107,0s.074,0,.113,0,.076,0,.117.007c.223.013.41.013.566.016a1.552,1.552,0,0,1,.384.041.446.446,0,0,1,.251.166,1.066,1.066,0,0,1,.167.393,2,2,0,0,1,.066.495,1.927,1.927,0,0,1-.062.443c-.039.148-.092.3-.154.469s-.133.35-.207.563-.156.409-.238.6-.161.362-.227.533a2.63,2.63,0,0,0-.146.492,1.313,1.313,0,0,0,0,.482,2.266,2.266,0,0,1,.05.439,1.683,1.683,0,0,1-.045.384,2.018,2.018,0,0,1-.136.372,3.6,3.6,0,0,1-.221.4,2.052,2.052,0,0,1-.273.341,1.677,1.677,0,0,0-.234.278.829.829,0,0,0-.108.4,2.671,2.671,0,0,0,.1.7,2.555,2.555,0,0,1,.084.765,1.33,1.33,0,0,1-.129.511,1.515,1.515,0,0,1-.235.344c-.082.1-.167.176-.232.26a2.1,2.1,0,0,0-.169.238,1.123,1.123,0,0,0-.107.255,1.409,1.409,0,0,0-.055.331,4.07,4.07,0,0,0,0,.47c.007.188.017.384.01.584a2.764,2.764,0,0,1-.08.614,2.043,2.043,0,0,1-.267.618,2.485,2.485,0,0,1-.555.6c-.244.2-.478.4-.693.607a6.256,6.256,0,0,0-.589.647,4.055,4.055,0,0,0-.438.676,2.474,2.474,0,0,0-.24.689c-.045.231-.075.477-.112.733a7.71,7.71,0,0,1-.153.8,4.045,4.045,0,0,1-.307.829,3.568,3.568,0,0,1-.584.827c-.25.27-.486.53-.7.778s-.421.484-.6.706-.348.436-.492.634-.272.386-.374.562a3.144,3.144,0,0,0-.247.548c-.065.191-.127.387-.2.582a2.914,2.914,0,0,1-.292.587,2.518,2.518,0,0,1-.51.571,5.354,5.354,0,0,0-.677.674,7.628,7.628,0,0,0-.629.847,6.22,6.22,0,0,0-.488.9,3.166,3.166,0,0,0-.253.836,3.548,3.548,0,0,1-.161.691,3.385,3.385,0,0,1-.281.591,5.436,5.436,0,0,1-.391.552c-.149.186-.317.378-.5.583s-.415.436-.67.68-.527.506-.793.784a8.774,8.774,0,0,0-.752.878,4.138,4.138,0,0,0-.54.961c-.126.333-.219.627-.3.892s-.15.5-.229.725a3.9,3.9,0,0,1-.286.643,3.586,3.586,0,0,1-.479.642,4.322,4.322,0,0,0-.475.621,2.868,2.868,0,0,0-.249.531,2.9,2.9,0,0,0-.111.45c-.021.136-.037.262-.054.377a3.733,3.733,0,0,1-.313.98,3.539,3.539,0,0,1-.363.594,3.234,3.234,0,0,1-.549.57,3.688,3.688,0,0,0-.513.5,2.468,2.468,0,0,0-.3.443,2.856,2.856,0,0,0-.163.4c-.042.131-.075.255-.115.381s-.086.258-.143.4a4.21,4.21,0,0,1-.22.455,3.984,3.984,0,0,1-.331.51,5.774,5.774,0,0,1-.485.557,5.331,5.331,0,0,0-.484.566c-.14.19-.262.379-.389.581s-.256.411-.412.639-.336.48-.558.754a6.7,6.7,0,0,0-.432.586,1.932,1.932,0,0,0-.187.351.5.5,0,0,0-.042.178c0,.037.005.056,0,.067.035-.019.11-.06.213-.12s.24-.135.394-.232.326-.206.508-.331.367-.267.552-.422c.21-.174.5-.38.828-.6s.7-.455,1.072-.687.744-.462,1.083-.673.639-.4.869-.555a5.963,5.963,0,0,1,.628-.373,4.5,4.5,0,0,1,.51-.223c.153-.057.288-.1.409-.133s.227-.065.322-.1a4.877,4.877,0,0,1,.482-.123c.218-.047.477-.107.75-.179a6.437,6.437,0,0,0,.823-.271,2.831,2.831,0,0,0,.691-.389c.186-.154.332-.271.457-.357a1.574,1.574,0,0,1,.329-.19,1.172,1.172,0,0,1,.331-.079c.125-.011.269-.015.455-.017a5.509,5.509,0,0,0,.673-.053,7.376,7.376,0,0,0,.817-.157,5.617,5.617,0,0,0,.827-.275,2.958,2.958,0,0,0,.7-.4c.2-.157.352-.3.488-.424s.255-.241.379-.342a2.561,2.561,0,0,1,.408-.285,3.049,3.049,0,0,1,.575-.241c.232-.079.46-.134.679-.186s.429-.09.633-.141a4.609,4.609,0,0,0,.592-.183,2.522,2.522,0,0,0,.558-.3,2.48,2.48,0,0,0,.407-.359c.1-.111.184-.221.271-.332a2.777,2.777,0,0,1,.325-.345,3.468,3.468,0,0,1,.56-.4c.247-.15.465-.294.668-.433s.371-.28.531-.416.3-.263.436-.39.257-.251.376-.371.2-.2.242-.257.05-.095.02-.124a.519.519,0,0,0-.189-.092c-.1-.037-.231-.084-.4-.159a2.849,2.849,0,0,1-.456-.254,2.1,2.1,0,0,1-.371-.327,2.188,2.188,0,0,1-.3-.419,3.025,3.025,0,0,1-.229-.527,2.063,2.063,0,0,1-.086-.615c0-.211.01-.42.013-.619a1.842,1.842,0,0,0-.061-.543.691.691,0,0,0-.3-.395,1.794,1.794,0,0,1-.413-.338,1.938,1.938,0,0,1-.289-.438,3.181,3.181,0,0,1-.2-.548c-.055-.2-.1-.423-.143-.666s-.067-.415-.085-.548-.025-.224-.036-.3a1.419,1.419,0,0,0-.058-.227c-.028-.082-.07-.176-.135-.317a.821.821,0,0,1-.092-.359.363.363,0,0,1,.106-.253.65.65,0,0,1,.285-.155,1.818,1.818,0,0,1,.45-.061,4,4,0,0,0,.416-.034,1.346,1.346,0,0,0,.284-.069c.09-.031.182-.069.3-.122s.259-.115.45-.194c.147-.059.306-.131.474-.211s.341-.157.518-.228a4.672,4.672,0,0,1,.536-.186,2.08,2.08,0,0,1,.52-.078c.049,0,.1,0,.148,0a1.419,1.419,0,0,1,.143.022c.045.012.089.024.135.041s.09.037.133.058c.19.1.351.174.489.237a1.662,1.662,0,0,1,.334.195.6.6,0,0,1,.2.3,1.92,1.92,0,0,1,.073.554c0,.246,0,.444,0,.617a4.581,4.581,0,0,0,.022.47,2.579,2.579,0,0,0,.1.453,4.693,4.693,0,0,0,.225.565,2.536,2.536,0,0,0,.352.55c.129.151.261.28.383.409a2.25,2.25,0,0,1,.334.423,1.6,1.6,0,0,1,.2.592,2.175,2.175,0,0,0,.166.578,1.106,1.106,0,0,0,.265.351,1.716,1.716,0,0,0,.351.232C235.551,326.365,235.695,326.434,235.848,326.516Z" transform="translate(-205.024 -293.651)"/></g><g transform="translate(186.666 293.729)"><path class="a" d="M734.512,300.475c-.043,0-.089,0-.135,0s-.095,0-.147-.007-.1-.007-.157-.013-.114-.014-.173-.022c-.134-.024-.241-.042-.328-.061s-.156-.035-.218-.047a1.455,1.455,0,0,0-.189-.031c-.07-.006-.146-.007-.245-.007l-.117,0-.143.006c-.051,0-.108,0-.167.009s-.126.008-.2.014c-.165.01-.316.025-.457.04s-.275.032-.4.046-.245.03-.366.04-.233.017-.349.018l-.175,0-.177-.012c-.06-.006-.123-.014-.187-.024s-.128-.021-.193-.034c-.026.168-.047.328-.057.486a2.814,2.814,0,0,0,0,.466,2.589,2.589,0,0,0,.1.5,3.515,3.515,0,0,0,.238.574c.13.262.23.459.3.62a1.09,1.09,0,0,1,.1.416,1.01,1.01,0,0,1-.1.408c-.068.158-.168.345-.3.6s-.24.447-.311.6a1.471,1.471,0,0,0-.127.369.538.538,0,0,0,.038.278,2.058,2.058,0,0,0,.177.33,2.424,2.424,0,0,1,.188.391,1.57,1.57,0,0,1,.091.395,1.967,1.967,0,0,1-.015.444,4.446,4.446,0,0,1-.121.551,4.869,4.869,0,0,0-.13.548,1.8,1.8,0,0,0-.026.447,1.517,1.517,0,0,0,.091.423,3.28,3.28,0,0,0,.229.472c.1.172.213.323.322.473s.227.3.33.461a2.659,2.659,0,0,1,.279.566,3.313,3.313,0,0,1,.176.8,4.316,4.316,0,0,1,0,.893c-.027.281-.074.546-.111.81a4.775,4.775,0,0,0-.058.785,2.469,2.469,0,0,0,.155.815c.105.285.18.5.228.67a1.636,1.636,0,0,1,.074.416,1.074,1.074,0,0,1-.048.331c-.033.114-.082.244-.139.414s-.127.341-.2.512a4.764,4.764,0,0,0-.179.534,2.485,2.485,0,0,0-.078.623,2.941,2.941,0,0,0,.118.773c.08.29.177.7.272,1.163s.183.989.249,1.5a12.555,12.555,0,0,1,.118,1.462,2.6,2.6,0,0,1-.136,1.015,1.792,1.792,0,0,0-.169.6,1.408,1.408,0,0,0,.046.524,2.31,2.31,0,0,0,.2.47c.083.152.18.3.279.449a1.14,1.14,0,0,1,.186.453,1.719,1.719,0,0,1,0,.5c-.022.184-.063.389-.11.627s-.1.51-.151.827-.087.545-.1.721a1.234,1.234,0,0,0,.008.4.759.759,0,0,0,.144.291c.076.107.177.229.313.407a2.194,2.194,0,0,1,.292.523,1.793,1.793,0,0,1,.1.515,2.758,2.758,0,0,1-.03.531c-.028.183-.069.368-.118.564s-.083.4-.112.606a4.862,4.862,0,0,0-.037.65,4.944,4.944,0,0,0,.055.712,5.805,5.805,0,0,0,.182.788c.081.277.164.518.24.749a6.932,6.932,0,0,1,.2.68,4.244,4.244,0,0,1,.1.759,6.3,6.3,0,0,1-.039.992c-.039.387-.076.706-.1.982a5.138,5.138,0,0,0-.013.718,2,2,0,0,0,.133.581,2.71,2.71,0,0,0,.331.576,3.281,3.281,0,0,1,.363.6,2.591,2.591,0,0,1,.192.6,3.292,3.292,0,0,1,.057.636,6.2,6.2,0,0,1-.052.72c-.032.262-.067.494-.1.714s-.067.42-.09.609a3.914,3.914,0,0,0-.036.536,2.159,2.159,0,0,0,.053.5,2.443,2.443,0,0,0,.119.37c.044.091.088.169.138.273a3.229,3.229,0,0,1,.182.412c.074.188.152.439.253.79a3.687,3.687,0,0,1,.15.849,1.367,1.367,0,0,1-.061.5.612.612,0,0,1-.14.234.282.282,0,0,1-.091.064.409.409,0,0,1-.179-.065.541.541,0,0,1-.158-.165,1.738,1.738,0,0,1-.15-.289c-.048-.12-.1-.267-.154-.439a3.954,3.954,0,0,1-.158-.761c-.02-.187-.016-.324-.024-.461a1.337,1.337,0,0,0-.1-.451,4.114,4.114,0,0,0-.408-.713,8.045,8.045,0,0,1-.488-.813,3.073,3.073,0,0,1-.245-.62,1.78,1.78,0,0,1-.06-.508,2.469,2.469,0,0,1,.066-.476c.037-.166.069-.327.092-.492a2.333,2.333,0,0,0,.019-.509,2.03,2.03,0,0,0-.115-.547,2.826,2.826,0,0,0-.314-.609,3.232,3.232,0,0,1-.312-.563,3.07,3.07,0,0,1-.154-.54c-.039-.2-.075-.42-.127-.7s-.119-.62-.227-1.049a7.593,7.593,0,0,1-.18-.958,5.234,5.234,0,0,1-.022-.534,2.012,2.012,0,0,0-.049-.449,3.97,3.97,0,0,0-.245-.692,7.319,7.319,0,0,1-.314-.861,5.7,5.7,0,0,1-.175-.748,5.955,5.955,0,0,1-.067-.67c-.012-.21-.007-.413,0-.609s.014-.374.012-.535a3.405,3.405,0,0,0-.031-.461,2.537,2.537,0,0,0-.1-.432,2.791,2.791,0,0,0-.2-.457c-.087-.162-.162-.311-.222-.456a2.061,2.061,0,0,1-.136-.407,1.391,1.391,0,0,1-.03-.409,1.809,1.809,0,0,1,.093-.454c.055-.163.13-.355.206-.57a7.4,7.4,0,0,0,.22-.709,4.213,4.213,0,0,0,.127-.809,3.128,3.128,0,0,0-.079-.874,4.287,4.287,0,0,0-.245-.73c-.086-.2-.17-.364-.234-.527a1.572,1.572,0,0,1-.112-.521,2.218,2.218,0,0,1,.117-.7c.09-.284.163-.488.213-.669a1.676,1.676,0,0,0,.067-.52,3.255,3.255,0,0,0-.124-.686c-.078-.291-.2-.662-.363-1.162s-.3-.947-.4-1.36a9.3,9.3,0,0,1-.224-1.154,6.322,6.322,0,0,1-.054-1.039,6.663,6.663,0,0,1,.116-1.016c.068-.342.12-.6.151-.826a2.671,2.671,0,0,0,.037-.587,2.753,2.753,0,0,0-.114-.6c-.066-.233-.162-.511-.294-.874s-.239-.635-.321-.859-.15-.4-.2-.563a2.4,2.4,0,0,1-.084-.5,5.6,5.6,0,0,1,.01-.673c.016-.277.045-.484.062-.662a2.755,2.755,0,0,0,.017-.477,1.865,1.865,0,0,0-.121-.507,6.787,6.787,0,0,0-.352-.758c-.166-.316-.293-.538-.393-.708a4.012,4.012,0,0,1-.229-.414,1.45,1.45,0,0,1-.114-.4,5.951,5.951,0,0,1-.054-.672c-.015-.3-.01-.544-.005-.756s.014-.395.013-.568a2.671,2.671,0,0,0-.056-.523,3.268,3.268,0,0,0-.206-.614c-.1-.237-.19-.427-.261-.6a3.716,3.716,0,0,1-.172-.454,1.832,1.832,0,0,1-.071-.441,3.186,3.186,0,0,1,.028-.55c.029-.214.053-.382.067-.524a1.765,1.765,0,0,0,.015-.368,1.082,1.082,0,0,0-.084-.337,3.276,3.276,0,0,0-.226-.434c-.088-.148-.158-.268-.216-.37a3,3,0,0,1-.132-.274,1.234,1.234,0,0,1-.074-.266,3.27,3.27,0,0,1-.04-.355h-.192c-.164,0-.322,0-.473,0s-.3-.01-.446-.024-.3-.032-.448-.059-.311-.062-.48-.106c-.115-.033-.222-.057-.32-.079s-.191-.035-.275-.048-.158-.02-.232-.026-.135-.007-.2-.006a2.118,2.118,0,0,0-.257.019c-.077.011-.147.025-.218.041l-.209.046c-.07.016-.142.03-.224.042-.133.015-.179.073-.177.155a.853.853,0,0,0,.134.314c.074.121.165.253.238.384a.945.945,0,0,1,.138.377c.009.115.023.231.032.344a2.629,2.629,0,0,1,.023.331,1.007,1.007,0,0,1-.037.288.431.431,0,0,1-.142.217.307.307,0,0,0-.11.209.58.58,0,0,0,.034.234,1.183,1.183,0,0,0,.089.2c.03.051.055.085.058.09a.262.262,0,0,1,.034.053.243.243,0,0,1,.026.123.316.316,0,0,1-.06.177.759.759,0,0,1-.229.215c-.055.039-.095.07-.127.1a.909.909,0,0,0-.069.067.231.231,0,0,1-.042.038.1.1,0,0,1-.05.015.517.517,0,0,1-.092-.014c-.043-.009-.1-.023-.17-.041l-.286-.062c-.121-.026-.264-.053-.439-.087a7.4,7.4,0,0,0-.813-.109c-.212-.016-.37-.015-.5-.019a1.774,1.774,0,0,1-.357-.033,1.4,1.4,0,0,1-.378-.15,3.477,3.477,0,0,1-.395-.243,1.178,1.178,0,0,1-.276-.283,1.018,1.018,0,0,1-.155-.381,2.12,2.12,0,0,1-.021-.541c.014-.212.043-.4.07-.567s.047-.328.053-.487a1.82,1.82,0,0,0-.033-.494,2.664,2.664,0,0,0-.215-.6,1.686,1.686,0,0,1-.182-.519,1.169,1.169,0,0,1,.007-.346,2.041,2.041,0,0,0,.029-.379,2.34,2.34,0,0,0-.118-.6,5.307,5.307,0,0,1-.163-.626,2.33,2.33,0,0,1-.043-.418c0-.122.009-.233.019-.359s.015-.267.012-.445a1.329,1.329,0,0,1,.011-.235.411.411,0,0,1,.055-.15.223.223,0,0,1,.11-.079.651.651,0,0,1,.177-.026c.066,0,.139.006.225.013l.3.033c.111.013.237.026.378.041s.3.031.466.044a6.63,6.63,0,0,1,.738.1c.206.04.373.084.538.125a4.625,4.625,0,0,0,.513.1,4.233,4.233,0,0,0,.661.04c.057,0,.12,0,.183,0s.134-.006.2-.01l.223-.016.242-.025c.143-.015.278-.032.407-.042s.25-.024.366-.033.23-.015.336-.02.207-.008.305-.009h.226c.073,0,.145.006.214.011s.136.01.2.016.128.015.192.025c-.035-.188-.079-.371-.111-.54a1.991,1.991,0,0,1-.05-.447.43.43,0,0,1,.108-.307.509.509,0,0,1,.368-.118l.049,0,.053,0a.41.41,0,0,1,.057,0c.02,0,.038,0,.059.006a4.99,4.99,0,0,1,.655.123c.163.045.281.092.4.138a3.068,3.068,0,0,0,.407.124,4.812,4.812,0,0,0,.68.087c.3.02.538.037.744.059a4.805,4.805,0,0,1,.523.083,3.029,3.029,0,0,1,.433.127c.144.053.3.117.478.2a1.275,1.275,0,0,1,.391.256.558.558,0,0,1,.155.291.883.883,0,0,1-.006.341c-.021.126-.057.259-.1.407a5.838,5.838,0,0,1,.582.135c.19.054.375.117.564.178s.383.13.586.2.421.128.658.187c.136.034.258.062.371.084s.212.041.3.059.182.023.266.029.165.009.25.008a3.11,3.11,0,0,0,.338-.02c.121-.01.253-.028.4-.045s.323-.043.521-.066.428-.053.693-.081c.1-.011.2-.022.283-.029s.164-.016.235-.021.137-.008.2-.012l.159-.005a1.668,1.668,0,0,1,.385.033c.1.024.181.054.3.093a3.9,3.9,0,0,0,.48.129c.222.044.521.093.938.138.538.058.973.118,1.331.185a5.11,5.11,0,0,1,.862.228,1.983,1.983,0,0,1,.536.292,1.821,1.821,0,0,1,.354.379.645.645,0,0,1,.065.526,3.85,3.85,0,0,1-.241.667,5.825,5.825,0,0,0-.272.731,1.3,1.3,0,0,0-.019.7,4.39,4.39,0,0,0,.233.584c.081.177.165.341.228.514a1.742,1.742,0,0,1,.115.565,2.379,2.379,0,0,1-.115.75,3.141,3.141,0,0,0-.142.675.832.832,0,0,0,.063.4,2.2,2.2,0,0,0,.228.351,5.033,5.033,0,0,1,.337.526,1.824,1.824,0,0,1,.213.564,2.528,2.528,0,0,1,.02.44,2.12,2.12,0,0,0,.038.484,2.678,2.678,0,0,0,.276.712,3.217,3.217,0,0,1,.3.752.959.959,0,0,1,0,.526.728.728,0,0,1-.288.353,1.911,1.911,0,0,1-.54.234c-.045.013-.088.023-.132.033a1.072,1.072,0,0,1-.128.021.923.923,0,0,1-.129.014c-.042,0-.083.006-.125.006l-.182,0c-.061,0-.122-.011-.181-.018s-.12-.014-.183-.023l-.185-.026-.189-.026-.194-.021c-.067-.009-.133-.013-.2-.019l-.208,0c-.053,0-.107,0-.163.006s-.112.01-.169.017-.117.017-.175.029-.119.026-.181.042c-.042.012-.083.021-.122.029a.813.813,0,0,1-.119.02,1.05,1.05,0,0,1-.116.013c-.037,0-.076.006-.113.007a1.486,1.486,0,0,1-.572-.106,1.293,1.293,0,0,1-.437-.287,1.312,1.312,0,0,1-.284-.41,1.278,1.278,0,0,1-.109-.477,1.609,1.609,0,0,1,.061-.514c.041-.152.091-.294.128-.434a1.063,1.063,0,0,0,.028-.439,1.228,1.228,0,0,0-.228-.521,4.186,4.186,0,0,1-.323-.527,1.981,1.981,0,0,1-.167-.448,2.163,2.163,0,0,1-.062-.456c0-.16,0-.337.014-.54s.031-.357.045-.489a2.038,2.038,0,0,0,.018-.326.724.724,0,0,0-.089-.29,2,2,0,0,0-.261-.367c-.125-.148-.208-.25-.261-.324a.3.3,0,0,1-.054-.327,1.608,1.608,0,0,0,.06-.273,3.927,3.927,0,0,0,.038-.431,3.643,3.643,0,0,0-.016-.478,1.461,1.461,0,0,0-.107-.424.549.549,0,0,0-.234-.276.873.873,0,0,0-.134-.059,1.02,1.02,0,0,0-.132-.034,1.357,1.357,0,0,0-.138-.015c-.045,0-.094,0-.143,0h-.043a.414.414,0,0,0-.046,0h-.047l-.048,0h-.042a.466.466,0,0,1-.047,0,.4.4,0,0,1-.044,0Z" transform="translate(-716.738 -294.26)"/></g></g></svg>