<svg xmlns="http://www.w3.org/2000/svg" width="209.917" height="27.621" viewBox="0 0 209.917 27.621"><defs><style>.a{fill:#3e3e3e;}</style></defs><path class="a" d="M207.247,13.239,225.14,38.312V13.239h1.527V40.158h-2.345L206.85,15.676V40.158h-1.527V13.239h1.923M178.587,14.4a11.8,11.8,0,0,0-8.661,3.6,11.805,11.805,0,0,0-3.6,8.661,11.838,11.838,0,0,0,3.6,8.681,12.258,12.258,0,0,0,17.341,0,11.833,11.833,0,0,0,3.593-8.681A12.278,12.278,0,0,0,178.587,14.4Zm0-1.54a13.308,13.308,0,0,1,9.772,4.042,13.306,13.306,0,0,1,4.048,9.759,13.313,13.313,0,0,1-4.048,9.772,13.8,13.8,0,0,1-19.531,0,13.306,13.306,0,0,1-4.042-9.772,13.3,13.3,0,0,1,4.042-9.759A13.3,13.3,0,0,1,178.587,12.862Zm-37.425,27.3V13.239h1.527v25.4h10.259v1.521ZM127.225,13.239v1.527H115.3V25.941h11.929v1.52H115.3V38.637h11.929v1.521H113.769V13.239ZM84.875,27.462v12.7H83.348V13.239h1.527v12.7H98.656v-12.7h1.521V40.158H98.656v-12.7ZM62.07,13.239l9.765,26.919h-1.6l-4.3-11.838h-9.31L52.245,40.158H50.627L60.51,13.239Zm3.314,13.573L61.29,15.526,57.177,26.812ZM38.64,35.876,39.8,36.9a13.358,13.358,0,0,1-9.272,3.58A13.743,13.743,0,0,1,16.75,26.7a13.309,13.309,0,0,1,4.022-9.739,13.268,13.268,0,0,1,9.759-4.042A13.311,13.311,0,0,1,39.8,16.514L38.64,17.547a11.847,11.847,0,0,0-8.109-3.067A12.234,12.234,0,0,0,18.29,26.7,12.223,12.223,0,0,0,30.531,38.936,11.874,11.874,0,0,0,38.64,35.876Z" transform="translate(-16.75 -12.862)"/></svg>