<svg xmlns="http://www.w3.org/2000/svg" width="185" height="29.126" viewBox="0 0 185 29.126"><defs><style>.a{fill:#3e3e3e;}</style></defs><g transform="translate(-7.508 -41.625)"><path class="a" d="M23,56.309,17.183,41.763H7.508v3.7H9.077V65.847H7.508v3.338h8.106V65.609H13.522V48.44l6.407,17.407h2.746l7.453-18.838v18H27.9v4.173H38.5V65.251H36.665V45.459H38.5v-3.7H29.473Z" transform="translate(0 0.206)"/><path class="a" d="M48.226,41.846c-3.554-.5-14.382,0-14.382,0V45.4h1.961V66.183H33.844v3.223s12.473.362,16.605,0c4.289-.373,8.369-3.1,9.022-12.659C60.189,46.258,53.248,42.552,48.226,41.846ZM42.083,66.183V45.4s11.374-.835,10.851,10.64S42.083,66.183,42.083,66.183Z" transform="translate(33.028 0)"/><path class="a" d="M70.769,54.042h-3.4L61.877,41.763H56.517L51.156,54.64,46.842,54.4V57.38h3.27v1.67l-3.4,6.963H44.148v3.17H54.687v-3.17h-1.7v-5.3l5.752,3.4,3.4-4.352v6.2H60.571v3.218H72.337v-3.17H70.246L67.5,57.38h4.837Zm-10.2,4.77H56.6l-1.647-1.789V55.842l3.295-6.45L61.307,54.1Z" transform="translate(45.824 0.206)"/><path class="a" d="M60.991,44.386h2.223V66.014H60.076v3.172H72.105V65.966H69.621V44.624h2.484V41.763H60.991Z" transform="translate(66.826 0.206)"/><path class="a" d="M84.259,45.386h2.092V59.962L76.414,41.625H66.477v2.82l.915.239h2.354V66.168H66.477v3.223h8.106V66.216H73.145V49.577L84.651,69.391h5.491V45.4h2.092V41.625H84.259Z" transform="translate(72.05 0)"/><path class="a" d="M95.939,41.754v3.762h2.092V60.091L88.094,41.754H78.157v2.82l.915.239h2.353V66.3H78.157V69.52h8.106V66.345H84.825V49.706L96.331,69.52h5.491V45.529h2.092V41.754Z" transform="translate(88.593 0.192)"/><path class="a" d="M34.514,41.625c-6.861,0-12.421,6.52-12.421,14.563s5.56,14.563,12.421,14.563,12.421-6.52,12.421-14.563S41.372,41.625,34.514,41.625Zm-.067,24.644c-3.068,0-5.555-4.669-5.555-10.428s2.487-10.426,5.555-10.426S40,50.084,40,55.841,37.517,66.269,34.447,66.269Z" transform="translate(18.308 0)"/></g></svg>