<svg xmlns="http://www.w3.org/2000/svg" width="111.964" height="40.727" viewBox="0 0 111.964 40.727"><defs><style>.a{fill:#3e3e3e;stroke:#3e3e3e;}</style></defs><g transform="translate(-12.5 -8.663)"><path class="a" d="M13,48.313V10.053a.678.678,0,0,1,.726-.659.623.623,0,0,1,.659.659v38.26a.678.678,0,0,1-.659.725A.732.732,0,0,1,13,48.313Z" transform="translate(0 -0.149)"/><path class="a" d="M53.426,10.521a.623.623,0,0,1,.659.66.678.678,0,0,1-.659.725H45.509v37.27a.678.678,0,0,1-.659.725.732.732,0,0,1-.726-.725V11.906h-7.85a.732.732,0,0,1-.726-.725.678.678,0,0,1,.726-.66Z" transform="translate(-17.272 -1.012)"/><path class="a" d="M165.484,48.049v-38a.678.678,0,0,1,.725-.659.623.623,0,0,1,.66.659V47.39H179.4a.623.623,0,0,1,.659.659.678.678,0,0,1-.659.725H166.209A.732.732,0,0,1,165.484,48.049Z" transform="translate(-116.799 -0.149)"/><path class="a" d="M238.108,9.394a8.558,8.558,0,0,1,8.576,8.576V40.4a8.608,8.608,0,1,1-17.217,0V17.97A8.615,8.615,0,0,1,238.108,9.394Zm0,1.385a7.264,7.264,0,0,0-7.256,7.19V40.4a7.223,7.223,0,1,0,14.446,0V17.97A7.207,7.207,0,0,0,238.108,10.779Z" transform="translate(-165.809 -0.149)"/><path class="a" d="M325.483,9.394a8.558,8.558,0,0,1,8.575,8.576V40.4a8.608,8.608,0,1,1-17.217,0V17.97A8.615,8.615,0,0,1,325.483,9.394Zm0,1.385a7.264,7.264,0,0,0-7.256,7.19V40.4a7.223,7.223,0,1,0,14.446,0V17.97A7.207,7.207,0,0,0,325.483,10.779Z" transform="translate(-232.735 -0.149)"/><path class="a" d="M425.805,48.825a2.872,2.872,0,0,0-.33.066.876.876,0,0,1-.66-.4L414.393,26.726l-5.409,7.454V48.165a.678.678,0,0,1-.659.725.732.732,0,0,1-.726-.725V9.9a.678.678,0,0,1,.726-.659.623.623,0,0,1,.659.659v21.9l4.947-6.86,10.95-15.436a.713.713,0,1,1,1.187.792L415.251,25.407l10.818,22.428A.728.728,0,0,1,425.805,48.825Z" transform="translate(-302.254)"/></g></svg>