<svg xmlns="http://www.w3.org/2000/svg" width="224.199" height="59.143" viewBox="0 0 224.199 59.143"><defs><style>.a{fill:#3e3e3e;}</style></defs><g transform="translate(-6.73 -9.826)"><g transform="translate(64.606 9.826)"><g transform="translate(0 0.459)"><path class="a" d="M132.328,48.2h1.711V11.449h-1.711v-.626h7.512q3.979,0,5.954,2.407a9.909,9.909,0,0,1,1.975,6.482q0,5.384-2.741,7.749a9.4,9.4,0,0,1-3.186,1.656q5.926,1.725,5.926,9.223,0,4.883-2.059,7.582a7.466,7.466,0,0,1-6.2,2.907h-7.178Zm6.831-36.754V28.657a6.328,6.328,0,0,0,2.539-.369q.773-.368.772-1.912V13.9a3.434,3.434,0,0,0-.4-1.815,1.675,1.675,0,0,0-1.537-.633Zm0,17.89V48.2c.083,0,.209.01.376.028a3.749,3.749,0,0,0,.376.028q2.56,0,2.559-2.671V31.843q0-2.56-2.337-2.56A5.907,5.907,0,0,0,139.159,29.339Z" transform="translate(-132.328 -10.823)"/></g><g transform="translate(17.097 0.459)"><path class="a" d="M169.431,10.823h6.83a7.7,7.7,0,0,1,5.926,2.448q2.63,2.8,2.629,7.86a10.412,10.412,0,0,1-.994,3.84,8.677,8.677,0,0,1-2.372,3.06,10.455,10.455,0,0,1-2.963,1.6,6.077,6.077,0,0,1,4.271,2.393q1.488,2.2,1.488,6.774v7.86q0,.918.57.918.96,0,1.392-1.53a10.4,10.4,0,0,0,.431-2.8,3.28,3.28,0,0,0-.055-.7h.737q0,6.246-4.048,6.733a3.018,3.018,0,0,1-3.019-1.516,8.92,8.92,0,0,1-.737-3.9V33.22a4.049,4.049,0,0,0-.612-2.7,3.932,3.932,0,0,0-2.643-.612V48.2h1.711v.626h-8.541V48.2h1.711V11.5h-1.711Zm6.83.682V29.283h.974q1.5,0,1.892-1a8.5,8.5,0,0,0,.389-2.935V14.982a6.8,6.8,0,0,0-.257-2.121,1.706,1.706,0,0,0-.946-1.051A5.291,5.291,0,0,0,176.261,11.5Z" transform="translate(-169.431 -10.823)"/></g><g transform="translate(35.279 0.459)"><path class="a" d="M208.889,10.823h8.541v.626h-1.711V48.2h1.711v.626h-8.541V48.2H210.6V11.449h-1.711Z" transform="translate(-208.889 -10.823)"/></g><g transform="translate(44.684 0.459)"><path class="a" d="M239.257,10.823,243.25,48.2h1.711v.626h-8.944V48.2h2.115l-.7-7.289H232.7l-.445,3.645a10.23,10.23,0,0,0-.125,1.364q0,2.282,1.71,2.281h.347v.626h-4.9V48.2h.334a1.2,1.2,0,0,0,1.19-.674,6.979,6.979,0,0,0,.522-1.83l.167-1.2,4.508-33.679ZM237.38,40.287l-1.989-19.726-2.616,19.726Z" transform="translate(-229.297 -10.823)"/></g><g transform="translate(61.432 0.459)"><path class="a" d="M266.048,10.823h7.067L277.5,36V15.038q0-.194.027-.64c.018-.3.028-.538.028-.723q0-2.226-1.53-2.226h-.4v-.626h4.674v.626h-.4a1.284,1.284,0,0,0-1.35.946,9.449,9.449,0,0,0-.306,2.755V48.829h-3.645L268.5,14.064V43.64q0,.264-.027.806t-.029.793a4.437,4.437,0,0,0,.459,2.17q.46.793,1.989.793v.626h-5.244V48.2a1.739,1.739,0,0,0,1.725-1.224,11.5,11.5,0,0,0,.389-3.45V11.449h-1.711Z" transform="translate(-265.644 -10.823)"/></g><g transform="translate(77.96 0)"><path class="a" d="M314.225,10.285V25.727h-.64l-.111-.918q-.167-2.184-.716-5.446a30.862,30.862,0,0,0-1.614-6.017q-1.063-2.755-2.622-2.894a1.493,1.493,0,0,0-1.6,1.252,9.156,9.156,0,0,0-.167,1.767q0,.4.028,1.113t.028,1V42.768a14.339,14.339,0,0,0,.4,3.888,1.7,1.7,0,0,0,1.766,1.356q2.642-.626,3.624-5.307a43.155,43.155,0,0,0,.98-8.827V32.738h.64a63.53,63.53,0,0,1-.369,6.789,18.919,18.919,0,0,1-1.78,6.33,4.487,4.487,0,0,1-4.18,2.893q-3.951-.278-5.168-5.39A51.039,51.039,0,0,1,301.511,31.6V29.831q0-2.727.041-4.563t.2-3.888q.174-2.052.494-3.8a14.546,14.546,0,0,1,1.913-5.106A5.089,5.089,0,0,1,307.9,9.826q2.156,0,3.645,2.852l2.044-2.392Z" transform="translate(-301.511 -9.826)"/></g><g transform="translate(91.982 0.459)"><path class="a" d="M346.074,10.823V25.291h-.7a46.574,46.574,0,0,0-.96-7.971q-1.21-5.87-4.73-5.871h-.918V28.936a2.247,2.247,0,0,0,2.059-1.364,20.255,20.255,0,0,0,1.364-6.83L342.3,19.6h.626V39.2H342.3q-.167-2.782-.424-4.591a13.6,13.6,0,0,0-.995-3.506,2.2,2.2,0,0,0-2.115-1.475V48.2q3.339,0,4.731-4.1a41.44,41.44,0,0,0,1.877-11.115h.7V48.829H331.941V48.2h1.711V11.449h-1.711v-.626Z" transform="translate(-331.941 -10.823)"/></g></g><g transform="translate(183.545 20.825)"><path class="a" d="M390.442,43.767s15.384-.205,21.743,4.923,7.795,8.631,7.179,12.931c0,0-.41.828,1.641,0s1.025-2.264,3.282-2.264a5.151,5.151,0,0,1,3.692,1.8s1.436-2.21-12.717-17.388c0,0,14.564,3.078,22.563-7.794,0,0-10.871-6.974-28.922,3.487C408.9,39.459,394.75,32.895,390.442,43.767Z" transform="translate(-390.442 -33.695)"/></g><g transform="translate(200.698 11.205)"><path class="a" d="M427.743,24.921c-.815.094,4.923-10.872,11.487-12.1C439.23,12.818,445.384,22.869,427.743,24.921Z" transform="translate(-427.666 -12.818)"/></g><g transform="translate(6.73 20.916)"><path class="a" d="M23.345,62.1s.411-19.452,30.769-18.632c0,0-4.513-9.641-18.461-3.9,0,0-8.205-9.025-28.922-4.308,0,0,1.846,11.692,22.563,9.025,0,0-12.512,11.463-13.948,16.4C15.345,60.682,22.935,57.958,23.345,62.1Z" transform="translate(-6.73 -33.894)"/></g><g transform="translate(24.165 11.205)"><path class="a" d="M44.567,12.818s10.461,4.1,11.692,12.1C56.259,24.921,44.567,25.536,44.567,12.818Z" transform="translate(-44.567 -12.818)"/></g><g transform="translate(72.336 58.137)"><path class="a" d="M154.511,129.587a4,4,0,0,1-1.938.505,3.364,3.364,0,0,1-3.47-3.47,3.327,3.327,0,0,1,3.388-3.437,4.753,4.753,0,0,1,2.02.488v1.368a3.887,3.887,0,0,0-2.02-.684,2.273,2.273,0,0,0,.065,4.544,3.77,3.77,0,0,0,1.955-.652Z" transform="translate(-149.103 -119.26)"/><path class="a" d="M170.074,126.642a3.486,3.486,0,1,1-3.518-3.421h.065A3.417,3.417,0,0,1,170.074,126.642Zm-5.88.033a2.387,2.387,0,0,0,4.773.016,2.329,2.329,0,0,0-2.427-2.362A2.258,2.258,0,0,0,164.194,126.674Z" transform="translate(-156.652 -119.279)"/><path class="a" d="M186.78,123.61V127.5a2.5,2.5,0,0,1-2.606,2.818c-1.776,0-2.688-1.043-2.688-3.046V123.61h1.108v3.551c0,1.466.473,2.069,1.564,2.069.977,0,1.5-.6,1.5-1.743V123.61Z" transform="translate(-166.564 -119.489)"/><path class="a" d="M197.658,118.06v2.557h1.336v1.107h-1.32v5.425h-1.108v-5.425h-1.01v-1.107h1.01V118.06Z" transform="translate(-174.151 -116.496)"/><path class="a" d="M210.749,123.61V127.5a2.5,2.5,0,0,1-2.607,2.818c-1.775,0-2.687-1.043-2.687-3.046V123.61h1.108v3.551c0,1.466.472,2.069,1.563,2.069.977,0,1.5-.6,1.5-1.743V123.61Z" transform="translate(-179.488 -119.489)"/><path class="a" d="M221.8,124.459h.033c.635-.847,1.205-1.238,1.759-1.238a1.317,1.317,0,0,1,.765.228l-.407,1.01a.975.975,0,0,0-.619-.228A1.79,1.79,0,0,0,221.8,126.1v3.828h-1.108V123.4H221.8Z" transform="translate(-187.703 -119.279)"/><path class="a" d="M236.19,128.349a3.463,3.463,0,0,1-3,1.743c-1.857,0-3.062-1.385-3.062-3.486,0-2.069,1.157-3.421,2.948-3.421a2.715,2.715,0,0,1,2.72,1.711,4.554,4.554,0,0,1,.342,1.922h-4.9c.065,1.4.765,2.182,1.954,2.182a2.5,2.5,0,0,0,2.118-1.238Zm-1.222-2.459c-.245-1.108-.8-1.613-1.759-1.613a1.733,1.733,0,0,0-1.922,1.613Z" transform="translate(-192.793 -119.26)"/><path class="a" d="M254.263,116.964c0-1.384.733-2.3,1.857-2.3a5.148,5.148,0,0,1,.83.1,1.335,1.335,0,0,1,.13.033v1.156a1.8,1.8,0,0,0-.8-.2c-.618,0-.912.375-.912,1.189v1.84H257.1V119.9h-1.726v5.425h-1.108V119.9H253.5v-1.107h.765Z" transform="translate(-205.393 -114.667)"/><path class="a" d="M268.38,128.808h-.033a2.728,2.728,0,0,1-2.313,1.3,3.469,3.469,0,0,1,0-6.89,2.693,2.693,0,0,1,2.313,1.352h.033V123.4h1.108v6.532H268.38Zm-4.235-2.117a2.181,2.181,0,1,0,4.35-.1,2.107,2.107,0,0,0-2.232-2.215A2.083,2.083,0,0,0,264.145,126.69Z" transform="translate(-210.501 -119.279)"/><path class="a" d="M281.523,128.186a1.267,1.267,0,0,0,1.32.8c.6,0,1.026-.342,1.026-.831s-.245-.749-1.14-1.156a8,8,0,0,1-.847-.457,1.774,1.774,0,0,1,.993-3.355,2.07,2.07,0,0,1,1.905,1.026l-.846.668a1.432,1.432,0,0,0-1.124-.6.734.734,0,0,0-.83.7c0,.277.294.537,1.042.912l.179.1a4.065,4.065,0,0,1,1.3.847,1.984,1.984,0,0,1-1.727,3.258,2.3,2.3,0,0,1-2.2-1.287Z" transform="translate(-219.994 -119.26)"/><path class="a" d="M294.891,114.879v4.936c.749-.831,1.206-1.092,1.955-1.092a1.974,1.974,0,0,1,2.069,2.232v4.479h-1.124V121.15a1.348,1.348,0,0,0-1.238-1.482,1.822,1.822,0,0,0-1.661,1.841v3.926H293.8V114.879Z" transform="translate(-227.123 -114.781)"/><path class="a" d="M310.746,117.651a.868.868,0,0,1-.863.863.841.841,0,0,1-.847-.846.818.818,0,0,1,.831-.88h.016A.848.848,0,0,1,310.746,117.651Zm-.293,2.281v6.532h-1.091v-6.532Z" transform="translate(-235.339 -115.811)"/><path class="a" d="M323.008,126.642a3.486,3.486,0,1,1-3.519-3.421h.065A3.417,3.417,0,0,1,323.008,126.642Zm-5.881.033a2.387,2.387,0,0,0,4.773.016,2.329,2.329,0,0,0-2.427-2.362A2.258,2.258,0,0,0,317.127,126.674Z" transform="translate(-239.113 -119.279)"/><path class="a" d="M335.846,124.3a2.4,2.4,0,0,1,1.939-1.075c1.3,0,2.069.863,2.069,2.362v4.35h-1.108v-4.17c0-.928-.537-1.58-1.271-1.58a1.5,1.5,0,0,0-1.091.488,1.638,1.638,0,0,0-.537,1.157v4.1h-1.107V123.4h1.107Z" transform="translate(-249.198 -119.279)"/></g></g></svg>