<svg xmlns="http://www.w3.org/2000/svg" width="116.779" height="68.319" viewBox="0 0 116.779 68.319"><defs><style>.a{fill:#3e3e3e;fill-rule:evenodd;}</style></defs><g transform="translate(-650 -4023.704)"><path class="a" d="M9.818,194.511h26.1V191.22l-20.75,0,.013-10.79,18.2,0V176.73l-18.136-.036-.066-9.609L35.909,167l.012-3.327H9.818v30.834Z" transform="translate(640.182 3897.511)"/><path class="a" d="M375.5,181.938l5.569-12.987,5.569,12.987Zm3.818-17.322-13.348,29.9h4.474l3.516-8.77H388.18l3.516,8.77h4.474l-13.348-29.9a2.1,2.1,0,0,0-3.5,0Z" transform="translate(370.609 3897.511)"/><path class="a" d="M145.91,167.3l11.055.021.127,27.338h4l-.051-27.342,11.036-.008v-3.437H145.97l-.06,3.428Z" transform="translate(537.175 3897.363)"/><path class="a" d="M268.887,167.3l11.056.021.121,27.338h4.009l-.051-27.342,11.037-.008v-3.437H268.947l-.06,3.428Z" transform="translate(444.094 3897.363)"/><path class="a" d="M162.982,17.39l21.079,22.722v.163l.076-.082.076.081v-.163l21.079-22.721-9.988-7.9H172.97l-9.988,7.9Zm21.155,19.525-.418-.925-.712-1.669-.591-1.748,1.721-3.42,1.721,3.42-.591,1.748-.712,1.669-.418.924Zm.076-18.762v-.013l-.078.006-.074-.006v.012l-.354.029-2.133-.256,2.064-.421.423.033v.012l.078-.006.074.006v-.012l.423-.033,2.53.424-2.6.253-.354-.029Zm-.075-2.311-1.213-.724-3.479-2.582,4.691-1.905,4.692,1.905-3.479,2.582-1.213.724ZM203.1,18.1l-2.221-.487-4.045-.123-1.024.077-.916.086-3.519-.163-.735.123-.54.233.706.309.786.153,4.545-.284.779.166,3.564-.029,2.619-.06Zm-13.026-6.5-.356-.875-2.562-.041,1.411.764,1.507.153Zm8.33,4.238-.03-1.427-3.941-3.545-1.079.26-1.773,1.218.6.513,4.672,2.4.308.119,1.238.465Zm-3.09.728-3.555-2.429.332,1.379.193.663.428.406,1.231.3,1.371-.32Zm4.175-.013,1.925.173-.194-2.159-1.184-.766-.463,1.406-.084,1.346Zm-12.116.207,1.87.13,1.638-.393.16-.685-1-2-1.172.071-3.009,2.107-.465.534,1.981.237Zm6.239,10.649-.29.843.449-.176,5.934-6.083.581-.531.6-.59,1.087-1.132.238-.7-1.119-.121-2.13,1.307-5.349,7.183Zm-6.7,2.326.277-.4.91-1.906.144-.374,2.922-7.851-1.572-.468-5.011.468,2.33,10.527Zm7.779-10.186-2.307-.371-.636,1.421-1.988,5.168-.628,1.68-.307,1.333.848-1.129,5.017-8.1ZM188.7,30.671,186.958,33.2l-1.229,3.006.8-.381,4.932-6.742,1.466-2.728-3.217,3.194L188.7,30.671Zm-23.88-12.692,2.571-.37,4.045-.123,1.024.077.916.086,3.519-.163.735.122.54.233-.706.309-.786.153-4.545-.284-.779.166-3.563-.029-2.97-.178ZM178.2,11.6l.356-.875,2.562-.041-1.411.764L178.2,11.6Zm-8.33,4.238.03-1.427,3.941-3.545,1.079.26,1.772,1.218-.6.513-4.672,2.4-.308.119-1.238.465Zm3.09.727,3.555-2.428-.332,1.379-.193.662-.428.406-1.231.3-1.371-.321Zm-4.175-.013-1.925.172.194-2.159,1.184-.766L168.7,15.2l.084,1.346Zm12.116.207-1.87.131-1.638-.393-.16-.685,1-2,1.172.071,3.009,2.107.465.534-1.981.236Zm-6.239,10.649.29.843-.449-.176-5.934-6.083-.581-.531-.6-.59L166.3,19.737l-.238-.7,1.119-.122,2.13,1.308,5.349,7.183Zm6.7,2.326-.277-.4-.91-1.906-.144-.374L177.109,19.2l1.572-.468,5.011.468-2.33,10.527Zm-7.779-10.186,2.306-.371.636,1.42,1.988,5.168.628,1.681.307,1.333-.848-1.129-5.016-8.1Zm5.991,11.125,1.741,2.529,1.229,3.006-.8-.381-4.932-6.742-1.466-2.728,3.217,3.193,1.007,1.122Z" transform="translate(524.253 4014.216)"/></g></svg>