<svg xmlns="http://www.w3.org/2000/svg" width="68.344" height="43.317" viewBox="0 0 68.344 43.317"><defs><style>.a{fill:#3e3e3e;}</style></defs><g transform="translate(-629.135 -408.012)"><path class="a" d="M661.2,439.717a10.134,10.134,0,0,1-.963,4.422,11.143,11.143,0,0,1-2.587,3.489,11.661,11.661,0,0,1-3.79,2.286,13.085,13.085,0,0,1-4.632.812H629.135V408.012H649.65a8.437,8.437,0,0,1,4.031.963,10.061,10.061,0,0,1,3.068,2.5,11.453,11.453,0,0,1,1.955,3.49,11.754,11.754,0,0,1,.692,3.941,11.2,11.2,0,0,1-1.624,5.926,10.049,10.049,0,0,1-4.512,4,10.682,10.682,0,0,1,5.805,4.031A11.387,11.387,0,0,1,661.2,439.717Zm-27.915-28.036v15.763h14.68a6.547,6.547,0,0,0,2.918-.662,7.739,7.739,0,0,0,3.881-4.241,8.251,8.251,0,0,0,.542-2.978,9.138,9.138,0,0,0-.512-3.068,7.5,7.5,0,0,0-1.444-2.5,7.131,7.131,0,0,0-2.226-1.685,6.294,6.294,0,0,0-2.8-.632ZM656.99,439a8.751,8.751,0,0,0-.542-3.038,7.907,7.907,0,0,0-3.88-4.392,6.331,6.331,0,0,0-2.918-.692H633.286v16.183h15.943a7.269,7.269,0,0,0,3.068-.662,7.613,7.613,0,0,0,2.467-1.775,8.574,8.574,0,0,0,1.624-2.587A7.976,7.976,0,0,0,656.99,439Z"/><path class="a" d="M791.057,483.14a15.226,15.226,0,0,1-11.31-4.843,16.474,16.474,0,0,1-3.279-5.2,16.923,16.923,0,0,1-1.173-6.317,16.541,16.541,0,0,1,1.173-6.227,15.752,15.752,0,0,1,8.242-8.6,15.286,15.286,0,0,1,17.477,3.52,16.526,16.526,0,0,1,4.332,11.25q0,.482-.03.963a3.08,3.08,0,0,1-.09.662H779.626a13.238,13.238,0,0,0,3.7,8.362,11.076,11.076,0,0,0,3.549,2.437,10.7,10.7,0,0,0,4.3.872,11.327,11.327,0,0,0,3.068-.421,12.145,12.145,0,0,0,2.767-1.143,9.687,9.687,0,0,0,2.256-1.775,7.892,7.892,0,0,0,1.534-2.316l3.549.963a10.415,10.415,0,0,1-2.045,3.158,14.276,14.276,0,0,1-3.068,2.467,15.02,15.02,0,0,1-3.851,1.624A16.479,16.479,0,0,1,791.057,483.14Zm11.551-17.928a12.576,12.576,0,0,0-3.7-8.182,11.12,11.12,0,0,0-3.58-2.346,11.561,11.561,0,0,0-8.663,0,11.105,11.105,0,0,0-3.58,2.346,11.529,11.529,0,0,0-2.467,3.61,13.653,13.653,0,0,0-1.113,4.572Z" transform="translate(-109.039 -31.811)"/></g></svg>