<svg xmlns="http://www.w3.org/2000/svg" width="223.37" height="64.617" viewBox="0 0 223.37 64.617"><defs><style>.a,.b{fill:#3e3e3e;}.a{fill-rule:evenodd;}</style></defs><g transform="translate(-372.5 160.019)"><g transform="translate(451.188 -141.702)"><path class="a" d="M570.914-110.3c-1.757-1.533-9.642.126-11.713.88-2.4.875-2.383,1.419-5.613,1.043-1.782-.207-4.909-1.1-2.863-2.933a17.55,17.55,0,0,1,4.506-2.465l5.246-1.866c1.9-.469,10.946-2.4,12.252-.607-.135,1.226-1.543,1.175-2.662,1.388-1.5.287-2.048,1.8-.771,2.3,2.34.931,8.719-1.839,6.028-5.462-1.869-2.517-8.333-1.679-10.926-1.247a46.131,46.131,0,0,0-13.073,4.207c-2.639,1.484-6.23,5.192-2.682,7.484,1.028.664,2.231.739,3.026,1.224a25.622,25.622,0,0,1-2.255,1.62c-2.439,1.835-4.691,4.371-3.71,7.917,2.275,8.221,18.945,5.34,24.325,3.376s7.622-5.207,4.817-5.044a12.132,12.132,0,0,0-3.1,1.115,37.446,37.446,0,0,1-12.89,2.993c-18.9.16-7.078-10.977-.089-11.865C562.069-106.658,571.251-106.39,570.914-110.3Z" transform="translate(-545.468 119.755)"/></g><g transform="translate(539.494 -141.259)"><path class="a" d="M741.978-89.965c-.833-3.735,3.207-6.606,5.974-7.354A17.161,17.161,0,0,1,754.2-97.6c1.237.146,1.991-.008,1.9,1.338-.238,3.7-1.693,10.422-5.668,11.21-3.833.76-7.79-1.913-8.458-4.91Zm16.611-6.671c.863-.033.978.94,2.591.728.9-2.263-1.528-2.322-2.509-2.939-.716-5.375,1.741-18.784.038-19.78-1.681-.983-3.209,2.941-3.305,4.941-.057,1.181.484,1.3,1.043,1.874l-.423,12.343c-2.89-.094-4.56-.662-7.67-.119-3.975.694-8.724,3.082-8.777,7.837-.094,8.463,14.444,14.415,17.809,2.379C758.36-92.859,758.153-94.929,758.589-96.636Z" transform="translate(-739.577 118.783)"/></g><g transform="translate(505.424 -138.093)"><path class="a" d="M674.59-96.1c-1.467-1.419-.045-8.526.635-10.651.281-.879.56-2.333,1.648-2.445,1.229,1.984-.276,12.371-2.283,13.1Zm-1.7,3.183c.721.407,2.839,4.619,7.523,2.122,3.4-1.815,4.366-6.6,3.013-7.065-1.212-.419-1.685,2.943-4.322,4.8-.89.627-2.782.828-3.089-.481-.147-.627,1.237-2.346,1.559-2.944,1.529-2.852,4.3-12.229.813-14.82-2.257-1.679-4.61,1.068-5.188,2.892-3.069,9.675.313,12.507-3.327,15.5-3.205,2.638-2.46-4.929-2.555-5.315-2.492-.644-3.819,3.875-1.208,7.02a3.7,3.7,0,0,0,4.019,1.181C671.608-90.609,671.87-92.177,672.891-92.913Z" transform="translate(-664.686 111.823)"/></g><g transform="translate(524.662 -126.438)"><path class="a" d="M709.217-64.8c-.879-2.228,1.315-8.615,3.024-9.018a31.658,31.658,0,0,1-.3,5.885c-.321,1.821-.661,3.621-2.727,3.132Zm6.2-12.176c-.442-.575-.5-.363-1.144-.883-.11-2.468,2.46-5.973.467-8.327-2.2-.212-2.225,1.6-2.582,3.387-.284,1.427-.7,3.871-2.309,3.878-1.432-1.529.594-3.7-.161-6.013-2.923-1.3-2.618,4.615-2.477,5.647a3.674,3.674,0,0,0,2.043,2.489c1.619.566,2.273-.671,3.045-1.138-.013,1.19-.11,1.285-.772,1.842a9.626,9.626,0,0,0-1.438,1.4c-2.665,3.138-4.675,9.773-1.467,12.015,3.241,2.266,5.126-1.793,5.58-4.507.434-2.6-.031-6.833.39-7.889C714.912-75.879,715.288-75.939,715.416-76.977Z" transform="translate(-706.973 86.204)"/></g><g transform="translate(563.009 -127.914)"><path class="a" d="M804.941-85c-.745.043-.916-.376-.8-1.176.913-.047,1.252.22.8,1.176Zm-.986,4.239c-.884-.038-1.233-.274-1.374-1.127a2.571,2.571,0,0,1,.395-1.944,3.836,3.836,0,0,0,.761.814,8.282,8.282,0,0,1,1.049.579,2.146,2.146,0,0,1-.83,1.679Zm-10.377-2.689a2.47,2.47,0,0,1,.087-1.754,2.226,2.226,0,0,1,.747-1.46,3.553,3.553,0,0,1-.835,3.215Zm14.166,1.971c.051-.03.067-.071.157-.083l.476-.19c1.906-.63,2.524-1.638,2.343-4.015-2.1-.65-1.148,2.738-3.742,1.827-.587-1.074.086-5.01-2.66-4.865-2.263.119-2.836,3.421-3.595,3.9-.323-.72-.054-.761-.749-1.219-1.106.449-1.352,2.356-2,3.373-.553.868-1.918,2.344-3.273,1.775-.656-1.317,3.385-3.391,1.507-7.277-1.542-3.19-4.391.823-4.8,2.85-.944,4.646,3.132,8.907,6.9,5.623a9.6,9.6,0,0,0,2.146-2.79c.045,1.746.854,3.544,2.526,3.932,2.694.625,2.994-1.145,3.566-2.781Z" transform="translate(-791.266 89.448)"/></g><g transform="translate(484.721 -125.633)"><path class="a" d="M620.832-79.322c-.2,1.862-.539,3.494.936,4.668,3.327.65,3.137-4.25,4.339-5.062-.026,1.1-.6,4.691,1.656,4.691a2.039,2.039,0,0,0,1.76-1.452c.445-1.031.414-1.9.9-2.462.621,1.149.38,2.771,1.681,3.762,3.814,2.908,9.7-5.708,7.161-7.556-1.3.235-.762,1.589-2.988,4.206a2.5,2.5,0,0,1-2.433,1.105c-2.136-.538-.122-4-1.058-5.926a1.694,1.694,0,0,0-2.479-.8c-1.172.781-1.212,3.941-1.951,5.289-.492-1.234,1.037-6.054-2.48-4.83-1.947.678-1.383,4.17-2.595,5.213-.285-.652.785-4.966-2.031-4.64A2.4,2.4,0,0,0,619.43-81.3C618.851-79.427,619.256-79.435,620.832-79.322Z" transform="translate(-619.179 84.434)"/></g><g transform="translate(582.82 -126.371)"><path class="a" d="M836.564-78.272c.681.619,1.317,1.068,2.347.143.867-.779.831-1.814,1.484-2.365.366.637.307,5.216,4.688,2.548,1.524-.929,3.629-3.675,2.422-6.086-2.179-.162-1.675,4.506-4.267,4.66-3.138.187-.833-4.546-1.856-6.642-2.928-.5-1.567,3.533-3.209,4.956-.259-.732.686-2.552-.388-3.815s-2.136-.146-2.653.723c-.209,1.393-.589.41-.024,2.708.906.213.51-.087,1.274-.161C836.711-80.149,836.054-81.246,836.564-78.272Z" transform="translate(-834.814 86.056)"/></g><g transform="translate(505.07 -128.456)"><path class="a" d="M664.138-88.082a1.75,1.75,0,0,0,3.124-1.575C666.407-91.719,663-90.21,664.138-88.082Z" transform="translate(-663.907 90.638)"/></g><g transform="translate(579.486 -124.465)"><path class="a" d="M832.57-75.988c-.51-2.974.146-1.877-.181-3.33-.764.074-.368.374-1.274.161-.565-2.3-.185-1.316.024-2.708-.049.041-.192.1-.149.121l-.375.462c.119-.127.5.257-.153-.355.181,2.377-.437,3.385-2.343,4.015l-.476.19c-.09.012-.106.052-.157.083,2.584.086,2.166-1.447,3.3-1.524.656-.044.475.241,1.354-.044a6.505,6.505,0,0,0-.1,2.291C832.351-75.775,832.19-76.272,832.57-75.988Z" transform="translate(-827.486 81.865)"/></g><g transform="translate(372.5 -160.019)"><path class="b" d="M404.844-95.4a1.57,1.57,0,0,1-1.109-.455l-30.767-30.409a1.58,1.58,0,0,1-.013-2.231l30.692-31.054a1.568,1.568,0,0,1,1.112-.468,1.57,1.57,0,0,1,1.119.456l30.767,30.409a1.566,1.566,0,0,1,.469,1.112,1.568,1.568,0,0,1-.456,1.119L405.967-95.869A1.58,1.58,0,0,1,404.844-95.4Zm-29.165-32,29.156,28.816,29.1-29.442-29.156-28.816Z" transform="translate(-372.5 160.019)"/><g transform="translate(14.751 17.067)"><path class="a" d="M430.371-113.048c-1.757-1.533-9.643.126-11.713.88-2.4.875-2.384,1.419-5.613,1.043-1.782-.207-4.909-1.1-2.863-2.933a17.556,17.556,0,0,1,4.506-2.465l5.246-1.866c1.9-.469,10.946-2.4,12.252-.607-.135,1.227-1.543,1.175-2.662,1.388-1.5.287-2.049,1.8-.772,2.3,2.341.93,8.719-1.839,6.029-5.463-1.869-2.517-8.333-1.679-10.926-1.247a46.1,46.1,0,0,0-13.073,4.208c-2.639,1.484-6.23,5.191-2.682,7.484,1.029.664,2.231.739,3.026,1.224a25.544,25.544,0,0,1-2.255,1.62c-2.439,1.835-4.691,4.371-3.71,7.917,2.274,8.221,18.945,5.34,24.325,3.376s7.622-5.207,4.817-5.044a12.108,12.108,0,0,0-3.1,1.115,37.448,37.448,0,0,1-12.89,2.993c-18.9.16-7.078-10.977-.089-11.865C421.526-109.4,430.708-109.137,430.371-113.048Z" transform="translate(-404.925 122.502)"/></g></g></g></svg>