<svg xmlns="http://www.w3.org/2000/svg" width="157.406" height="67.827" viewBox="0 0 157.406 67.827"><defs><style>.a{fill:#3e3e3e;}</style></defs><g transform="translate(-9.859 -10.521)"><path class="a" d="M229.729,141.875c.532-.169.972-.347,1.429-.448,1.787-.394,2.089-.685,2.111-2.561.039-3.36.012-6.721.012-10.082,0-2.166.027-4.332-.009-6.5-.029-1.72-.308-2.005-2-2.417-.511-.125-1.01-.3-1.514-.451l.034-.457a4.046,4.046,0,0,1,1.137-.358c4.779-.017,9.572-.227,14.336.051,11.347.664,14.049,11.831,10.227,18.067a12.089,12.089,0,0,1-8.546,5.576,25.007,25.007,0,0,1-4.226.37c-3.659.05-7.319.035-10.978,0C231.088,142.665,230.238,143.015,229.729,141.875Zm8.262-11.223h-.006c0,2.829-.07,5.661.026,8.486.058,1.707.508,2.1,2.134,2.286,5.814.65,11.07-2.165,11.729-8.765.706-7.083-2.462-13.325-11.105-12.892-2.187.109-2.674.467-2.754,2.621C237.914,125.14,237.991,127.9,237.991,130.652Z" transform="translate(-147.811 -72.599)"/><path class="a" d="M96.918,18.435c5.492-6.287,9.334-8.47,13.454-7.8-.186,2.135-.493,4.245-.528,6.361-.079,4.855-.022,9.712-.028,14.568,0,2.579-.011,2.579,1.083,4.467h-4.909c2.211-2.276,1.376-4.694.663-6.991-1.27-4.094-4.108-6.82-8.216-8.671-.464,1.07-.942,2.056-1.326,3.076a19.831,19.831,0,0,0-.962,8.39A7.035,7.035,0,0,0,99.053,37c-1.4.621-2.6,1.16-3.8,1.679a1.013,1.013,0,0,1-.646.118c-2.061-.759-4.223-1.355-5.639-3.236-.028-.037.031-.139.095-.388,2.363.669,3-1.047,3.559-2.776.367-1.133.6-2.31.9-3.464.779-2.947,1.566-5.892,2.408-9.057a6.334,6.334,0,0,0-5.359.829c-.759.429-1.386,1.124-.912,2.018.523.985,1.341.553,2.065-.2-.069,2.026-.675,2.767-2.032,2.765a2.4,2.4,0,0,1-2.351-2.258,3.312,3.312,0,0,1,1.6-3.019,9.145,9.145,0,0,1,5.506-1.575C95.261,18.419,96.08,18.435,96.918,18.435Zm2.072.677a20.7,20.7,0,0,1,7.952,6.64c.474-2.8.395-11.3-.115-13.147C103.371,13.676,101,15.929,98.99,19.112Z" transform="translate(-52.076)"/><path class="a" d="M9.859,119.28c2.164-.693,10.609-.721,12.579-.181-.048.868-.728.749-1.276.826-2.173.308-2.517.578-2.534,2.609q-.068,8.293,0,16.587c.012,1.666.58,2.236,2.3,2.425a11.981,11.981,0,0,0,10.6-3.634c.511-.538.811-1.54,2.2-1.151l-2.192,5.919c-7.082,0-14.011,0-20.939-.021-.108,0-.215-.319-.437-.67a11.578,11.578,0,0,1,1.278-.363c2.3-.362,2.579-.666,2.626-3.04.023-1.121,0-2.241,0-3.362,0-3.96.011-7.92,0-11.88-.011-2.862-.089-2.925-2.9-3.443A7.169,7.169,0,0,1,9.859,119.28Z" transform="translate(0 -72.741)"/><path class="a" d="M437.148,146.875c1.707-.915,7.888-.908,9.484-.025a8.177,8.177,0,0,1-.929.552c-1.377.578-1.642.958-1.1,2.327.849,2.133,1.837,4.211,2.986,6.81a33.932,33.932,0,0,0,2.49-6.261,2.331,2.331,0,0,0-1.162-2.87c-.244-.127-.342-.534-.534-.857a11.133,11.133,0,0,1,6.13.1c-.02.145.011.37-.069.421-2.5,1.6-3.4,4.229-4.425,6.785-1.472,3.666-2.875,7.364-4.484,10.97a14.668,14.668,0,0,1-2.636,3.8,3.186,3.186,0,0,1-3.543.672,1.762,1.762,0,0,1-1.3-2.064,1.944,1.944,0,0,1,2.11-1.278,4.857,4.857,0,0,1,.855.244c2,.608,2.418.411,3.312-1.36a5.219,5.219,0,0,0,.086-5.258c-1.3-2.422-2.264-5.027-3.41-7.535C440.114,150.077,439.688,147.769,437.148,146.875Z" transform="translate(-287.251 -91.2)"/><path class="a" d="M144.4,146.66c1.458-.587,6.509-.683,9.358-.089a5.64,5.64,0,0,1-1.277.832c-1.176.292-1.38.995-1,2.019.207.559.4,1.126.638,1.67.752,1.691,1.525,3.373,2.481,5.479.885-2.178,1.712-3.925,2.3-5.75.455-1.417.373-2.839-1.3-3.589-.1-.045-.141-.243-.192-.377a2.228,2.228,0,0,1,0-.455c1.924-.425,3.9-.126,6.095-.209-.194.54-.218,1.087-.468,1.224a7.048,7.048,0,0,0-2.939,3.832c-1.769,4.271-3.461,8.574-5.258,12.833a17.738,17.738,0,0,1-2.042,3.7,3.849,3.849,0,0,1-3.91,1.663c-1.217-.218-2.1-1.175-1.938-2.074a2.059,2.059,0,0,1,2.672-1.327c.287.072.555.222.839.311,1.387.434,1.854.292,2.55-.964,1.04-1.873,1.555-3.648.366-5.844-1.662-3.072-2.9-6.376-4.293-9.59-.512-1.178-1-2.344-2.417-2.721C144.527,147.2,144.482,146.858,144.4,146.66Z" transform="translate(-90.446 -91.188)"/><path class="a" d="M328.592,151.5c.362-4.542-.557-5.575-3.714-4.147.063.369.116.782.206,1.187a1.6,1.6,0,0,1-1.013,2,3.646,3.646,0,0,1-2.321-.04,1.323,1.323,0,0,1-.509-2.089,5.647,5.647,0,0,1,1.751-1.666,9.131,9.131,0,0,1,6.509-.912,3.992,3.992,0,0,1,3.36,4.139c.049,2.974.012,5.949.012,9.079h2.316a11.688,11.688,0,0,1-1.358,1.507c-1.808,1.31-3.184,1.062-4.984-.8a36.274,36.274,0,0,1-4.164,1.514,3.683,3.683,0,0,1-3.842-1.728,3.381,3.381,0,0,1,.792-3.881,13.152,13.152,0,0,1,2.158-1.576c.825-.5,1.715-.9,2.569-1.359C327.081,152.345,327.791,151.94,328.592,151.5Zm.126,1.438c-1.951.974-3.411,1.8-3.737,3.727a1.872,1.872,0,0,0,1.386,2.4,2.085,2.085,0,0,0,2.341-2.016C328.755,155.8,328.719,154.549,328.719,152.934Z" transform="translate(-208.851 -90.815)"/><path class="a" d="M115.14,118.906a31.575,31.575,0,0,1,6.555-2.093c0,1.047,0,1.853,0,2.658,0,5.963.039,11.926-.024,17.888-.017,1.634.161,2.945,2.075,3.273.063.011.086.26.126.4-1.425.685-6.733.733-8.625.03.191-.24.339-.608.521-.626,1.627-.158,1.788-1.235,1.778-2.554-.033-4.4-.011-8.8-.011-13.193C117.534,121.257,117.534,121.257,115.14,118.906Z" transform="translate(-70.777 -71.456)"/><path class="a" d="M408.657,146.877c.044.607.119,1.269.131,1.933.011.585-.048,1.172-.1,2.216-.673-.531-1.1-.836-1.486-1.179-.946-.832-1.823-1.756-2.836-2.493a2.433,2.433,0,0,0-3.606.571c-.439.71,0,1.454.739,1.86.912.5,1.849.964,2.789,1.414,1.142.547,2.346.983,3.442,1.609,3.113,1.779,3.272,5.17.378,7.292a6.139,6.139,0,0,1-4.425,1.242c-1.745-.218-3.454-.73-5.2-1.119v-4.845a6.41,6.41,0,0,1,1.372.8,20.612,20.612,0,0,0,2.205,2.5,7.607,7.607,0,0,0,2.988,1.312,1.781,1.781,0,0,0,2.059-1.355c.3-.986-.313-1.562-1.074-1.961-1.122-.586-2.292-1.078-3.42-1.652a15.3,15.3,0,0,1-2.711-1.53c-2.793-2.247-2.211-5.92,1.107-7.344C402.972,145.308,406.033,145.583,408.657,146.877Z" transform="translate(-261.014 -90.855)"/><path class="a" d="M375.331,146.2v8.862c0,.6.029,1.2-.006,1.793-.1,1.7-.175,3.373,2.57,3.541-1.574,1.418-3.08.778-4.419.871-1.369.1-2.753-.036-4.091-.068-.027-.423-.081-.674-.038-.692,1.53-.641,1.9-1.816,1.786-3.379a41.973,41.973,0,0,1-.008-4.929c.075-1.667-.135-3.145-1.888-3.934A11.165,11.165,0,0,1,375.331,146.2Z" transform="translate(-241.597 -91.213)"/><path class="a" d="M260.118,14.741l-1.81.384a13.347,13.347,0,0,1,4.327-4.368c0,1.016,0,1.952,0,2.887,0,6.273-.034,12.545.023,18.817a24.9,24.9,0,0,0,.594,3.7h-4.1c1.382-1.864.947-3.935.96-5.935C260.139,25.153,260.118,20.079,260.118,14.741Z" transform="translate(-167.023 -0.159)"/><path class="a" d="M178.052,37.112c-.152,1.927-1.618,2.061-2.393,2.907-2.1-1.392-2.49-3.337-2.526-5.387-.053-3.052-.016-6.106-.018-9.159,0-.739,0-1.477,0-2.022-.546-1.042-2.022.105-2.222-1.46l2.3-.585-.723-2.889,3.133-3.3V21.5l2.473.39c-.2,1.69-1.644.588-2.224,1.2-.674,4.028-.333,12.6.641,14.352Z" transform="translate(-108.257 -3.159)"/><path class="a" d="M86.137,147.036,92.422,145v2.759c0,2.913.024,5.827-.01,8.74-.016,1.432.082,2.714,1.883,2.988.106.016.161.36.378.883-2.793.224-5.418.094-8.352.09.3-.539.416-1.068.66-1.136,1.11-.306,1.308-1.09,1.305-2.059-.007-2.316-.077-4.635.025-6.946C88.378,148.827,87.247,148.172,86.137,147.036Z" transform="translate(-51.279 -90.408)"/><path class="a" d="M379.859,37.774c.533-.87,1.913-1.186,1.113-2.308-.673-.944-1.709-.76-2.656-.442a4.654,4.654,0,0,0-2.976,4.091c-.047,3.134-.069,6.271.027,9.4a9.812,9.812,0,0,0,.855,2.56h-4.552c1.542-1.263,1.243-2.791,1.251-4.245.013-2.313-.071-4.63.025-6.94.085-2.042-.3-3.728-2.77-4.564l2.282-2.363,2.663,3.148c.4-.4.837-.872,1.31-1.3a5.006,5.006,0,0,1,4.5-1.488,4.718,4.718,0,0,1,2.241,1.267,2.156,2.156,0,0,1-.051,2.873C382.231,38.483,381.193,38.357,379.859,37.774Z" transform="translate(-242.228 -15.088)"/><path class="a" d="M294.877,53.048h-4.244c1.766-2.4,1.059-4.988,1.009-7.428-.049-2.41.889-5.009-1.023-7.461l3.608-2.349V39.2c0,3.419-.048,6.84.028,10.257A24.986,24.986,0,0,0,294.877,53.048Z" transform="translate(-188.745 -17)"/><path class="a" d="M375.783,125.233a2.522,2.522,0,0,1-2.45-2.371,2.609,2.609,0,0,1,2.571-2.515,2.673,2.673,0,0,1,2.456,2.422A2.5,2.5,0,0,1,375.783,125.233Z" transform="translate(-244.35 -73.832)"/><path class="a" d="M93.507,125.234a2.458,2.458,0,0,1-2.458-2.389,2.6,2.6,0,0,1,2.422-2.483,2.69,2.69,0,0,1,2.587,2.567A2.493,2.493,0,0,1,93.507,125.234Z" transform="translate(-54.581 -73.841)"/><path class="a" d="M296.152,17.435a1.994,1.994,0,0,1-3.988-.012,2.02,2.02,0,0,1,1.987-1.983A2.081,2.081,0,0,1,296.152,17.435Z" transform="translate(-189.783 -3.306)"/><path class="a" d="M317.165,39.158a10.163,10.163,0,0,1,1.651-3.044,8.246,8.246,0,0,1,6.683-3.15,12.074,12.074,0,0,1,5.78,1.767q-.979,1.45-2.7,4.018t-3.442,5.137q-1.724,2.569-2.7,4.018a4.852,4.852,0,0,0,1.9,1.185,8.267,8.267,0,0,0,2.424.3,7.325,7.325,0,0,0,2.742-.432,9.66,9.66,0,0,0,2.069-1.186,7.665,7.665,0,0,1,1.488-.936,5.865,5.865,0,0,1-2.616,3.428,9.155,9.155,0,0,1-5.209,1.411,7.15,7.15,0,0,1-2.132-.264,9.05,9.05,0,0,1-1.507-.629,2.6,2.6,0,0,0-.922-.365q-.135,0-.7.682a2.1,2.1,0,0,0-.566,1.325,1.236,1.236,0,0,0,.134.663,1,1,0,0,0,.389.331,1.229,1.229,0,0,1,.379.274.767.767,0,0,1,.125.5v1.027q-2.516-.057-2.515-2.045a5.25,5.25,0,0,1,.744-2.237,10.359,10.359,0,0,0,.744-1.546q0-.163-.538-.773a12.4,12.4,0,0,1-1-1.306,7.606,7.606,0,0,1-.855-1.964,10.412,10.412,0,0,1-.389-3.034A9.916,9.916,0,0,1,317.165,39.158Zm4.566-4.008a7.441,7.441,0,0,0-2.189,2.5,6.872,6.872,0,0,0-.879,3.413,8.957,8.957,0,0,0,.537,2.693,6.769,6.769,0,0,0,1.853,2.856,23.654,23.654,0,0,0,3.038-3.811,44.759,44.759,0,0,0,2.434-4.153,12.56,12.56,0,0,0,.979-2.146,1.914,1.914,0,0,0-1.008-1.613,4.085,4.085,0,0,0-2.3-.663A4.343,4.343,0,0,0,321.731,35.15Z" transform="translate(-206.223 -15.088)"/><path class="a" d="M203.309,37.971a10.17,10.17,0,0,1,1.651-3.044,8.248,8.248,0,0,1,6.683-3.15,12.074,12.074,0,0,1,5.78,1.767q-.979,1.451-2.7,4.018T211.283,42.7q-1.724,2.569-2.7,4.018a4.855,4.855,0,0,0,1.9,1.185,8.27,8.27,0,0,0,2.424.3,7.324,7.324,0,0,0,2.742-.432,9.662,9.662,0,0,0,2.069-1.186,7.688,7.688,0,0,1,1.489-.936,5.867,5.867,0,0,1-2.617,3.428,9.152,9.152,0,0,1-5.209,1.411,7.142,7.142,0,0,1-2.132-.264,9.049,9.049,0,0,1-1.507-.629,2.594,2.594,0,0,0-.922-.365q-.135,0-.7.682a2.1,2.1,0,0,0-.566,1.325,1.235,1.235,0,0,0,.134.662,1,1,0,0,0,.389.331,1.233,1.233,0,0,1,.379.274.768.768,0,0,1,.125.5v1.027q-2.516-.057-2.515-2.045a5.252,5.252,0,0,1,.744-2.237,10.393,10.393,0,0,0,.744-1.546q0-.163-.538-.773a12.389,12.389,0,0,1-1-1.305,7.617,7.617,0,0,1-.855-1.964,10.414,10.414,0,0,1-.389-3.034A9.917,9.917,0,0,1,203.309,37.971Zm4.566-4.009a7.44,7.44,0,0,0-2.189,2.5,6.871,6.871,0,0,0-.879,3.413,8.957,8.957,0,0,0,.538,2.693,6.767,6.767,0,0,0,1.853,2.856,23.639,23.639,0,0,0,3.038-3.811,44.924,44.924,0,0,0,2.434-4.153,12.572,12.572,0,0,0,.979-2.146,1.914,1.914,0,0,0-1.008-1.613,4.087,4.087,0,0,0-2.3-.662A4.344,4.344,0,0,0,207.875,33.962Z" transform="translate(-129.682 -14.29)"/></g></svg>