<svg xmlns="http://www.w3.org/2000/svg" width="143.636" height="41.672" viewBox="0 0 143.636 41.672"><defs><style>.a{fill:#3e3e3e;}</style></defs><g transform="translate(-147.571 -30.855)"><path class="a" d="M168.114,84.525l-.351,1.805q-7.458,5.207-12.711,5.206a6.9,6.9,0,0,1-5.405-2.331,8.734,8.734,0,0,1-2.076-6.034q0-6.607,5.066-12.43t10.81-5.822a4.37,4.37,0,0,1,3.377,1.405,5.189,5.189,0,0,1,1.29,3.653q0,4.5-4.6,7.728a18.59,18.59,0,0,1-10.975,3.231l-.024,1.055q0,6.848,5.019,6.848Q161.876,88.84,168.114,84.525ZM152.59,79.506A15.188,15.188,0,0,0,160.8,76.8a7.151,7.151,0,0,0,2.954-5.922q0-3.588-2.6-3.588-2.814,0-5.44,3.741A17.678,17.678,0,0,0,152.59,79.506Z" transform="translate(0 -19.01)"/><path class="a" d="M221.664,64.718l-.423,2.157q-5.539,5.651-9.527,5.652-3.333,0-3.332-3.588a21.542,21.542,0,0,1,.492-3.963l3.216-16.181q1.689-8.489,6.373-13.214a15.441,15.441,0,0,1,11.4-4.725,16.676,16.676,0,0,1,4.225.492L230.867,34.7a11.681,11.681,0,0,0-4.7-1.243,6.371,6.371,0,0,0-5.611,2.72q-1.877,2.721-3.38,10.3L213.495,65a23.42,23.42,0,0,0-.54,3.518q0,1.477,1.385,1.477,1.572,0,6.08-4.174Q220.771,65.492,221.664,64.718Z" transform="translate(-33.935 0)"/><path class="a" d="M260.07,69.217l-.422,2.181q-5.135,5.512-9.216,5.511-3.376,0-3.376-3.541a23.315,23.315,0,0,1,.538-3.94l1.618-8.161a31.517,31.517,0,0,0,.656-4.62q0-1.97-1.524-1.97a16.233,16.233,0,0,0-3.776.8l.282-1.43,11.467-3.752-1.782,7.5-2.3,11.585a24.459,24.459,0,0,0-.539,3.47q0,1.525,1.383,1.525Q255.4,74.377,260.07,69.217Zm-8.607-23.005,1.572-3.19,6.613-4.315-2.017,4.315Z" transform="translate(-54.129 -4.382)"/><path class="a" d="M277.2,90.153l3.1-3.166a10.4,10.4,0,0,0,6.2,2.228,5.236,5.236,0,0,0,3.276-1.02,3.07,3.07,0,0,0,1.333-2.521q0-1.665-2.65-4.55l-2.134-2.345q-3.118-3.424-3.118-5.722a7.21,7.21,0,0,1,3.025-5.663,10.62,10.62,0,0,1,6.918-2.474,15.18,15.18,0,0,1,4.784.891L296.9,70.994h-1.5l.071-.4a2.313,2.313,0,0,0,.047-.493q0-3.165-4.069-3.165-4.562,0-4.561,3.658,0,1.853,2.72,4.925l1.924,2.134q3.142,3.541,3.142,5.816,0,3.143-3.33,5.6a12.413,12.413,0,0,1-7.574,2.463A18.415,18.415,0,0,1,277.2,90.153Z" transform="translate(-72.339 -19.01)"/><path class="a" d="M331.748,72.222,333.484,65,336.7,48.794q1.688-8.489,6.366-13.214a15.421,15.421,0,0,1,11.386-4.725,16.813,16.813,0,0,1,4.221.492L355.457,34.7a11.78,11.78,0,0,0-4.69-1.243,6.371,6.371,0,0,0-5.606,2.71q-1.875,2.71-3.376,10.312l-2.533,12.74h.376a34.519,34.519,0,0,1,6.613-9.659q3.705-3.649,6.871-3.65,3.869,0,3.87,4.268a17.439,17.439,0,0,1-.4,3.377L354.308,65a23.563,23.563,0,0,0-.539,3.518q0,1.477,1.388,1.477,2.351,0,7.007-5.159l-.422,2.181q-5.145,5.512-9.233,5.511-3.384,0-3.383-3.537a24.507,24.507,0,0,1,.539-3.982l2.3-11.479a12.225,12.225,0,0,0,.259-2.249q0-1.9-1.408-1.9-4.456,0-12.429,14.2L336.7,71.941Z" transform="translate(-102.779 0)"/><path class="a" d="M423.271,78.572h-.423a31.823,31.823,0,0,1-6.373,9.6q-3.725,3.717-6.982,3.717-4.944,0-4.944-6.191,0-6.825,5.441-13.367,5.628-6.776,13.742-6.777,3.354,0,7.012.282l-1.689,6.941L426.78,84.365a24.174,24.174,0,0,0-.538,3.518q0,1.477,1.384,1.477,2.343,0,6.987-5.159l-.422,2.181q-5.147,5.512-9.234,5.511-3.405,0-3.406-3.541a23.462,23.462,0,0,1,.566-3.986Zm1.886-9.38a14.286,14.286,0,0,0-5.838-1.313q-4.265,0-6.822,5.394a27.4,27.4,0,0,0-3,11.467q0,3.683,2.156,3.682,2.016,0,5.8-4.233a47.765,47.765,0,0,0,6.644-9.674Z" transform="translate(-143.406 -19.365)"/></g></svg>