<svg xmlns="http://www.w3.org/2000/svg" width="137.671" height="87.893" viewBox="0 0 137.671 87.893"><defs><style>.a{fill:#3e3e3e;}</style></defs><g transform="translate(-5.331 -8.6)"><path class="a" d="M124.175,11.285c-.9-2.59-2.6-3.367-4.59-2.063a9.276,9.276,0,0,0-3.553,3.285c-1.692-2.647-2.843-3.959-6.524-2.963-6.767,1.827,6.342,13.9,7.481,12.279l1.252-.93C120.336,18.334,125.607,15.382,124.175,11.285Z" transform="translate(-43.433)"/><path class="a" d="M95.7,152.988a9.1,9.1,0,0,0,1.808-.273c1.879-.648,3.55-1.364,4-2.273a2.289,2.289,0,0,0,.243-1.25,1.205,1.205,0,0,0-.487-.785,2.749,2.749,0,0,0-2.053-1.08c-.557-.091-1.043-.261-1.6-.4,1.5-.386,2.749-.773,3.132-1.443.487-.8-.1-1.523-.731-2.262a8.717,8.717,0,0,0-1.253-.842,6.785,6.785,0,0,0-3.688-.739c-.174,0-.452.126-.452.182a4.826,4.826,0,0,1,.383,1.945,20.154,20.154,0,0,0,.035,3.238c0,.193.139.387.1.58-.035.5-.174,1-.174,1.5-.035.591.07,1.172.07,1.761-.035.614-.1,1.239-.174,1.864C94.832,152.921,95.111,153.045,95.7,152.988Zm.572-10.667c0,.046.685.007.893.075,1.357.4,1.81.682,2.123,1.262a4.155,4.155,0,0,1,.659,1.217c.1.737-.605,1.046-2.693,1.41a2.628,2.628,0,0,1-.683.09,1.635,1.635,0,0,1-.3-.022Zm-.29,5.322c1.914.035,3.371.082,4.067.718a1.3,1.3,0,0,1,.131,1.976,4.824,4.824,0,0,1-1.116,1.02,3.312,3.312,0,0,1-2.175.468c-.073,0-.608-.045-.921-.021C95.97,150.042,95.985,149.372,95.985,147.644Z" transform="translate(-37.931 -56.513)"/><path class="a" d="M111.447,151.848a6.712,6.712,0,0,1-.07.829c0,.136.1.227.557.261.974.08,4.231.134,4.315-.17.337-1.233-2.356-.874-3.573-.886a1.116,1.116,0,0,0-.015-.587c-.035-.774-.066-.572-.066-1.333,0-.795.209-1.58.244-2.375.069-.829,0-1.66,0-2.489-.035-1.057-.07-2.114-.139-3.171,0-.1,0-.319-.522-.3s-.557.2-.557.307a8.01,8.01,0,0,0,.07,1.295c.069.818.174,1.638.174,2.455,0,.74-.139,1.478-.174,2.216C111.585,149.21,111.517,150.529,111.447,151.848Z" transform="translate(-45.047 -56.508)"/><path class="a" d="M124.271,151.315a2.255,2.255,0,0,0,1.288,1.5,4.51,4.51,0,0,0,2.608-.022,3.286,3.286,0,0,0,.8-.806,4.388,4.388,0,0,0,.487-1.034,8.036,8.036,0,0,0,.382-1.251c.175-1.045.279-2.091.417-3.136.105-.876.246-1.762.384-2.649.105-.6.175-1.205.313-1.807.036-.181,0-.307-.625-.317s-.7.124-.7.284c-.035.6-.105,1.2-.174,1.8-.07.442-.174.875-.209,1.317-.035.4.07.945.035,1.353-.069.627-.209,1.112-.312,2.036H129a.572.572,0,0,1,0,.261,14.737,14.737,0,0,1-.661,2.358c-.175.454-.455.567-.838,1.011a3.9,3.9,0,0,1-.664.2c-.139-.058-.33-.033-.5-.089a1.1,1.1,0,0,1-.569-.468,4.883,4.883,0,0,1-.976-2.754,10.437,10.437,0,0,1,.1-2.546c.036-.557.036-1.115.036-1.682.034-.99.1-1.99.1-2.99,0-.081,0-.251-.523-.251s-.452.182-.487.273c-.033.171.07.353.07.522-.035.717-.07,1.422-.1,2.127,0,.194-.1.387-.1.58-.035.614,0,1.226-.035,1.841a10.459,10.459,0,0,0-.209,2.068A11.134,11.134,0,0,0,124.271,151.315Z" transform="translate(-50.252 -56.51)"/><path class="a" d="M141.152,149.189c0,.511-.1,1.034-.139,1.546-.069.511-.069,1.022-.139,1.533-.07.58-.1.58,1.6.636.208.013.384.024.592.035.661.024,1.29.019,1.948.056.733.043.7-.136.7-.136.006-.213.039-.649-.47-.675-.8-.039-1.76-.139-2.561-.128-.59,0-.663-.338-.663-.475,0-.341.021-.568.021-.9.07-1.138.088-1.677.158-2.813.035-.728.043-.666.077-1.393a.614.614,0,0,1,.644-.506c.764-.012,1.524,0,2.325-.015a.754.754,0,0,0,.678-.768c-.069-.1-.278-.17-.8-.136-.87.068-1.809.068-2.679.1,0-1.057.022-1.654.022-2.678,1.391,0,2.583-.015,3.835-.015a.79.79,0,0,0,.84-.637c.01-.173-.418-.193-.87-.193-1.218.011-2.469,0-3.722.022a3.8,3.8,0,0,0-1.149.2c-.174.069,0,.228,0,.354,0,.806.068,1.613.035,2.42-.035.751-.209,1.5-.244,2.251C141.117,147.655,141.187,148.416,141.152,149.189Z" transform="translate(-57.567 -56.51)"/><path class="a" d="M118.541,77.421a10.921,10.921,0,0,0-1.409-8.115c-1.243-2.3-4.142-3.276-7.7-3.765-2.652-.342-3.314.147-2.817,1.613a4.332,4.332,0,0,1,.166,2.054c-.166,2.4-.5,4.792-.663,7.187-.331,3.471-.5,6.893-.745,10.364-.166,3.032-.331,6.117-.5,9.148-.131,2.242-.362,4.91-.537,6.757h2.672c0-1.847.022-3.6.1-5.387.083-3.178.331-6.358.58-9.536.083-1.516.083-2.985.083-4.5.829-.148,1.408-.294,1.906-.344C114.647,82.213,117.713,80.551,118.541,77.421Zm-3.148,1.32a4.573,4.573,0,0,1-3.728,2.2c-1.16.146-2.4.293-3.977.49.58-4.841,1.16-9.485,1.74-14.228,2.319.391,4.308,1.027,5.053,2.445C115.973,72.63,117.05,75.662,115.393,78.741Z" transform="translate(-42.055 -24.143)"/><path class="a" d="M199.5,82.18c-.047-.092-.1-.181-.148-.271-1.1-.181-2.306-.445-3.154-.639l-.055-.012c-.606-.14-1.018-.242-1.018-.242s-.436-.034-9.228-3.59a17.2,17.2,0,0,1-3.253-1.946c-.771-.7-2.482-1.912-3.154-3.153-.231-.427-1.241-2.752-1.241-2.752s-1.711-.771-1.879.671c-.066.566,1.075,2.013,1.075,2.013l.939,1.342s1.878,2.281,2.282,2.817,4.293,2.416,4.7,2.684c.318.212,3.707,1.586,5.134,2.162-3.528.083-7.056.155-10.583.116-5.173-.055-10.348-.333-15.519-.443-1.321-.016-2.64-.021-3.96-.027-.155-2.144-.29-4.289-.388-6.42-.083-1.906.166-3.863.082-5.769a4.251,4.251,0,0,0-.579-2.2,3.422,3.422,0,0,0-1.988-.93,2.4,2.4,0,0,0-1.409.832,19.7,19.7,0,0,0-.994,1.857c-1.907,3.667-3.729,7.285-5.717,11.146a27.872,27.872,0,0,0-1.077-2.591c-.5-1.124-1.077-2.3-1.74-3.471-1.408-2.4-2.982-4.84-4.392-7.286-.5-.83-1.657-.684-2.485-.488a1.654,1.654,0,0,0-1.077,1.272c-.082.685.332,1.369.332,2.1.082,1.662-.166,3.276-.083,4.939.083,3.911.331,7.87.414,11.782,0,2.934-.166,5.867-.166,8.85,0,2.346.166,4.748.25,7.1.007.344.018,1.035.028,1.035h2.46c-.1-2.771-.169-4.884-.169-7.343-.082-4.5.181-9.047.1-13.546,0-2.542-.068-5.038-.068-7.58V69.8c0,.146.814.343.9.587.663,1.321,1.194,2.737,1.856,4.058a14.816,14.816,0,0,1,1.3,2.151c.663,1.565,1.231,3.178,1.727,4.743.248.733.574,1.369,2.066,1.271a2.27,2.27,0,0,0,2.316-1.369c.747-1.711,1.159-3.47,1.9-5.133.829-1.858,1.906-3.667,2.9-5.476.164,0,.413.049.662.049a10.443,10.443,0,0,0-.167,1.564c.082,2.3.167,4.6.332,6.845.248,2.3.5,4.6.828,6.844.165,1.321.5,2.64.663,4.009a12.68,12.68,0,0,1,.331,3.521,17.145,17.145,0,0,0,.082,3.569c.083.978.249,1.912.332,2.889.074.912.152,1.824.233,2.748h2.7c-.2-2.771-.72-5.11-1.031-7.685-.415-3.179-.663-6.358-.912-9.585-.079-.859-.137-1.727-.206-2.591,2.839.007,5.684.018,8.556.072,6.617.167,13.316.335,20.016.554l0,.056.49-.027c-1.62.657-4.02,1.641-4.284,1.817-.4.267-4.293,2.146-4.7,2.683s-2.282,2.818-2.282,2.818l-.939,1.341s-.809,1.508-1.075,2.014c-.76,1.454,1.879.67,1.879.67a14.91,14.91,0,0,1,1.609-2.415,14.284,14.284,0,0,0,2.282-2.684c.135-.4,3.015-2.057,4.094-2.617a38.226,38.226,0,0,1,13.031-4.3c.124-.089.243-.187.373-.267A2.932,2.932,0,0,0,199.5,82.18Z" transform="translate(-56.637 -24.144)"/><path class="a" d="M28.124,90.842c.219-.5,1.551-2.266,1.864-2.76a11.606,11.606,0,0,1,1.635-2.052c.378-.269,2.588-2.558,2.8-2.775,1.475.058,2.949.112,4.426.178v.056c1.428-.11,2.916-.221,4.342-.331.113-.009.231-.015.35-.021a24.712,24.712,0,0,1-.274,5.583c-.414,2.4,0,4.792,0,7.187,0,1.859-.166,3.771-.166,5.676,0,.361.016.162.035,1.085h2.537s0-.236,0-.352c-.083-1.956-.414-3.864-.5-5.82,0-1.27.25-2.593.332-3.865.248-2.884.414-5.769.58-8.6,0-.244.166-.49.166-.734a31.323,31.323,0,0,1,3.314.293c1.242.2,2.4.049,2.568-.685.249-.781-1.16-.831-2.154-.928-1.243-.148-2.568-.244-4.06-.441.332-4.644.663-9.24,1.077-14.129,1.657,0,3.315-.049,5.054,0,.995,0,1.989.148,2.984.1.994,0,1.9-.44,1.739-1.027-.083-.392-.994-.93-1.573-.93A49.523,49.523,0,0,0,49.81,65.5c-1.325.048-2.486.293-3.727.389-1.161.1-1.906.441-1.741,1.223a10.4,10.4,0,0,1,.249,2.25c-.249,3.128-.664,6.257-.995,9.386a23.489,23.489,0,0,0-.1,2.437c-.141-.013-.286-.02-.434-.02-2.674.081-5.347.19-8.02.221l-.609-.775s-2.394-2.579-2.788-2.87a11.907,11.907,0,0,1-1.612-2.1c-.308-.5-1.624-2.3-1.834-2.808s-3.053-2.346-3.65-2.938a8.465,8.465,0,0,0-2.361-1.756c-.48-.082-2.088.193-2.472.1-.237-.054-8.066.409-14.052.774-.2.029-.314.076-.136.249-.059.012.572.28.513.292a6.436,6.436,0,0,1,.778.674,21.778,21.778,0,0,0,1.75,1.426c.113.173.418.621,1.043,1.548,2.439,3.608,2.422,3.2,3.642,5A38.964,38.964,0,0,0,16,81.687a37.427,37.427,0,0,0-2.759,3.384c-1.238,1.771-1.217,1.36-3.694,4.9-.636.911-.944,1.349-1.06,1.519a21.613,21.613,0,0,0-1.764,1.38,6.2,6.2,0,0,1-.785.653c.059.016-.575.265-.515.278-.183.169-.066.218.132.253,5.982.524,13.8,1.2,14.042,1.149.385-.078,1.989.24,2.472.17a8.3,8.3,0,0,0,2.377-1.692C25.047,93.105,27.909,91.343,28.124,90.842Zm4.094-10.859,1.413,1.4c-.515,0-1.031,0-1.547,0-.286,0-.574-.017-.861-.023l-1.758-.122a2.2,2.2,0,0,0-.693-.515,30.6,30.6,0,0,1-2.485-3.133l-1.224-1.863s-4.38-5.087-4.6-5.151a4.866,4.866,0,0,1-.844-.984C24.829,69.39,32.219,79.983,32.219,79.983ZM17.386,69.816l3.26,2.762a1.77,1.77,0,0,1,1.084.609c.385.519,1.712,2.093,2.028,2.617s2.087,2.819,2.087,2.819l1.919,2.5-3.99-.276c-.338-.491-.677-.941-.776-.938a19.751,19.751,0,0,1-2.163-2.15l-3.146-3.424s-2.366-3.609-2.585-3.678a2.008,2.008,0,0,1-.458-.5C15.342,70.064,16.241,69.947,17.386,69.816Zm-2.2,6.765A28.989,28.989,0,0,0,8.6,70.311c.793.082,1.423.151,1.684.19a9.71,9.71,0,0,0,2.288.006l.1-.021,2.588,2.175A27,27,0,0,1,17.2,74.667c.379.524.818.738,1.126,1.266s2.051,2.851,2.051,2.851l1.631,2.009c-.124-.024-.218-.043-.263-.057A9.856,9.856,0,0,1,15.188,76.58ZM12.475,92.754a9.711,9.711,0,0,0-2.286-.056c-.263.033-.893.086-1.687.146a28.321,28.321,0,0,0,6.651-6.094,9.472,9.472,0,0,1,6.292-3.914l.472.008-1.55,1.844s-1.766,2.276-2.079,2.8-.754.721-1.14,1.236a26.367,26.367,0,0,1-1.963,1.952l-2.611,2.106Zm4.805.819c-1.142-.162-2.04-.3-2.737-.42a1.974,1.974,0,0,1,.464-.483c.216-.062,2.622-3.609,2.622-3.609l3.184-3.337A19.158,19.158,0,0,1,23,83.63c.087,0,.368-.344.67-.759.179,0,.355,0,.535.008l3.216.113-1.588,2s-1.8,2.248-2.116,2.763-1.664,2.054-2.054,2.564a1.733,1.733,0,0,1-1.089.578Zm2.234.282a4.758,4.758,0,0,1,.853-.961c.22-.058,4.653-5.028,4.653-5.028l1.241-1.83s1.92-2.568,2.415-3c1.392.049,2.782.1,4.18.154l-.638.611S24.72,94.2,19.514,93.855Z" transform="translate(0 -24.148)"/></g></svg>