<svg xmlns="http://www.w3.org/2000/svg" width="108.381" height="79.775" viewBox="0 0 108.381 79.775"><defs><style>.a{fill:#3e3e3e;}</style></defs><g transform="translate(-18 -14.235)"><g transform="translate(18 66.933)"><path class="a" d="M18,239.843H30.52v4.978H28.182v16.367H30.52V266.2H18v-5.016h2.376V244.821H18Z" transform="translate(-18 -239.843)"/><path class="a" d="M91.287,288.6H79.672v-4.94h1.584v-9.013H79.672v-4.9H87.7l.867,2.338a8.881,8.881,0,0,1,2.282-2.169,5.57,5.57,0,0,1,3.111-.849,7.315,7.315,0,0,1,3.526.735,5.486,5.486,0,0,1,2.074,1.924,7.28,7.28,0,0,1,.981,2.678,18.224,18.224,0,0,1,.245,2.96v6.3h1.772v4.94h-9.5V278.3q0-.49-.019-1.094a3.7,3.7,0,0,0-.207-1.131,2.143,2.143,0,0,0-.622-.9,1.874,1.874,0,0,0-1.263-.377,2.068,2.068,0,0,0-1.188.321,2.221,2.221,0,0,0-.735.829,3.6,3.6,0,0,0-.358,1.131,8.153,8.153,0,0,0-.094,1.226v5.355h2.715Z" transform="translate(-65.267 -262.239)"/><path class="a" d="M182.514,289.343v-6.788h5.053a1.719,1.719,0,0,0,.471,1.245,3.458,3.458,0,0,0,1.113.773,5.51,5.51,0,0,0,1.32.4,7,7,0,0,0,1.094.113,2.688,2.688,0,0,0,1.113-.245,1.016,1.016,0,0,0,.547-1.037q0-.527-.773-.848a14.742,14.742,0,0,0-1.961-.622q-1.188-.3-2.546-.717a10.815,10.815,0,0,1-2.546-1.15,6.219,6.219,0,0,1-1.961-1.923,5.465,5.465,0,0,1-.773-3.036,4.5,4.5,0,0,1,.66-2.47,5.625,5.625,0,0,1,1.659-1.7,7.563,7.563,0,0,1,2.15-.981,8.105,8.105,0,0,1,2.168-.32,6.972,6.972,0,0,1,3.469.867,5.053,5.053,0,0,1,2.15,2.074l.3-2.489h4.638v6.788h-4.9a1.965,1.965,0,0,0-.34-1.112,3.558,3.558,0,0,0-.886-.905,4.508,4.508,0,0,0-1.226-.622,4.384,4.384,0,0,0-1.4-.226,1.7,1.7,0,0,0-1.037.32,1.2,1.2,0,0,0-.434,1.037,1.144,1.144,0,0,0,.792,1.018,14.159,14.159,0,0,0,1.98.735q1.188.359,2.583.792a11.756,11.756,0,0,1,2.583,1.15,6.57,6.57,0,0,1,1.98,1.829,5.33,5.33,0,0,1,.207,5.223,5.723,5.723,0,0,1-1.546,1.791,6.815,6.815,0,0,1-2.244,1.112,9.313,9.313,0,0,1-2.64.377,7.357,7.357,0,0,1-3.564-.829,5.716,5.716,0,0,1-2.206-1.924l-.339,2.3Z" transform="translate(-144.087 -262.983)"/><path class="a" d="M264.53,253.287h2.036v-3.47l6.939-2.225v5.694h3.583v4.9h-3.583V264.9c0,.176-.006.352-.019.528s-.019.365-.019.565a3.984,3.984,0,0,0,.207,1.339q.207.585,1.037.585a4.5,4.5,0,0,0,1.113-.208,10.342,10.342,0,0,0,1.263-.434v4.827a5.105,5.105,0,0,1-1.056.32q-.642.132-1.32.207t-1.263.132q-.585.056-.924.057a7.83,7.83,0,0,1-3.3-.566,3.8,3.8,0,0,1-1.753-1.584,6.439,6.439,0,0,1-.717-2.489q-.151-1.47-.189-3.281V258.19H264.53Z" transform="translate(-206.946 -245.783)"/><path class="a" d="M323.927,269.968q.566-.34,1.433-.792t1.942-.886a15.426,15.426,0,0,1,2.3-.716,11.283,11.283,0,0,1,2.546-.283,18.077,18.077,0,0,1,3.507.358,10.34,10.34,0,0,1,3.3,1.245,7.323,7.323,0,0,1,2.451,2.395,6.889,6.889,0,0,1,.962,3.771v7.354h2.262v4.827h-8.07l-.905-1.7a5.325,5.325,0,0,1-1.188,1.188,5.942,5.942,0,0,1-1.358.735,7.623,7.623,0,0,1-2.546.491,9.722,9.722,0,0,1-2.678-.377,7.666,7.666,0,0,1-2.376-1.131,5.617,5.617,0,0,1-2.376-4.789,6.476,6.476,0,0,1,.622-2.866,6.587,6.587,0,0,1,1.7-2.187,7.734,7.734,0,0,1,2.508-1.4,9.261,9.261,0,0,1,3.017-.491,5.985,5.985,0,0,1,1.49.17,6.232,6.232,0,0,1,1.132.4,3.974,3.974,0,0,1,.754.453c.189.151.308.251.358.3v-1.32a1.646,1.646,0,0,0-1.018-1.7,6.85,6.85,0,0,0-2.564-.415,8.307,8.307,0,0,0-3.111.565,22.688,22.688,0,0,0-2.508,1.169Zm8.372,13.086a2.71,2.71,0,0,0,1.508-.415,2.954,2.954,0,0,0,.905-.829v-1.433a1.824,1.824,0,0,0-.17-.245,1.924,1.924,0,0,0-.4-.358,2.951,2.951,0,0,0-.66-.339,2.845,2.845,0,0,0-1-.151,2.173,2.173,0,0,0-1.66.565,2.017,2.017,0,0,0-.528,1.433,1.615,1.615,0,0,0,.565,1.282A2.108,2.108,0,0,0,332.3,283.053Z" transform="translate(-251.862 -260.879)"/><path class="a" d="M432.289,287.734H421.617v-4.94h1.66V273.78h-1.622v-4.9h7.09l1.131,2.413q.376-.679.792-1.282a4.512,4.512,0,0,1,1.056-1.075,4.876,4.876,0,0,1,1.584-.735,9.184,9.184,0,0,1,2.414-.264v6.788a7.554,7.554,0,0,0-3.941.849q-1.377.849-1.376,3.337v3.884h1.885Z" transform="translate(-327.34 -261.373)"/></g><g transform="translate(65.883 14.235)"><rect class="a" width="1.574" height="41.962" transform="translate(0 0)"/><rect class="a" width="1.574" height="41.962" transform="translate(3.68 0)"/><rect class="a" width="1.574" height="41.962" transform="translate(7.36 0)"/><rect class="a" width="1.574" height="41.962" transform="translate(11.04 0)"/></g></g></svg>