<svg xmlns="http://www.w3.org/2000/svg" width="214.317" height="70.086" viewBox="0 0 214.317 70.086"><defs><style>.a{fill:#3e3e3e;}</style></defs><g transform="translate(-7 -3.606)"><g transform="translate(38.426 73.519)"><rect class="a" width="154.011" height="0.174"/></g><path class="a" d="M221.246,62.91a4.068,4.068,0,0,1-1.5-1.2h0c-.889-.042-1.429.221-1.606.79v.517H10.153V62.5h0c-.177-.56-.718-.822-1.606-.79h0a4.063,4.063,0,0,1-1.5,1.2H7l.044.023A3.2,3.2,0,0,1,8.37,64.125h0a2.1,2.1,0,0,0,.75.142h0a1.025,1.025,0,0,0,1.069-.635h0v-.4H218.128v.4h0a1.025,1.025,0,0,0,1.069.635,2.1,2.1,0,0,0,.75-.142h0a3.2,3.2,0,0,1,1.326-1.184l.044-.023Z" transform="translate(0 6.753)"/><g transform="translate(17.873 35.201)"><path class="a" d="M37.629,52.618a2.809,2.809,0,0,1-.059.742.649.649,0,0,1-.319.3,7.679,7.679,0,0,1-1.579.628,17.863,17.863,0,0,1-1.792.394,17.156,17.156,0,0,1-1.863.218q-.948.059-1.792.059a19.6,19.6,0,0,1-5.131-.655,12.647,12.647,0,0,1-4.3-2.04,9.911,9.911,0,0,1-2.956-3.553,11.357,11.357,0,0,1-1.094-5.186,11.8,11.8,0,0,1,.423-3.233,11.449,11.449,0,0,1,1.121-2.68,10.031,10.031,0,0,1,1.617-2.1A10.893,10.893,0,0,1,21.813,34,11.4,11.4,0,0,1,23.866,33a14.239,14.239,0,0,1,2-.568,13.956,13.956,0,0,1,1.922-.261q.933-.059,1.863-.059.758,0,1.579.059t1.543.131q.727.075,1.267.162t.789.115c.311.057.69.121,1.137.189s.842.113,1.184.131a.525.525,0,0,1,.335.118.358.358,0,0,1,.071.233,3.581,3.581,0,0,1-.028.363c-.018.166-.042.429-.071.789s-.052.826-.07,1.4-.028,1.328-.028,2.241a1.109,1.109,0,0,1-.071.482.259.259,0,0,1-.248.129c-.156,0-.253-.131-.292-.394a8.274,8.274,0,0,0-.233-1.153,2.962,2.962,0,0,0-.758-1.267,4.949,4.949,0,0,0-.92-.741,8.8,8.8,0,0,0-1.429-.742,10.124,10.124,0,0,0-1.879-.568,11.1,11.1,0,0,0-2.273-.218q-.613,0-1.295.044a8.677,8.677,0,0,0-1.429.217,7.664,7.664,0,0,0-1.516.541,7.012,7.012,0,0,0-1.531,1.007,7.116,7.116,0,0,0-1.95,2.722,11.342,11.342,0,0,0-.73,4.414,12.829,12.829,0,0,0,.714,4.341,10.264,10.264,0,0,0,2.04,3.466,9.317,9.317,0,0,0,3.2,2.3,10.228,10.228,0,0,0,4.18.829q.584,0,1.267-.044a3.521,3.521,0,0,0,1.208-.277.806.806,0,0,0,.438-.422,1.684,1.684,0,0,0,.115-.655V47.388q0-.844-.028-1.516a2.268,2.268,0,0,0-.276-1.136,1.452,1.452,0,0,0-.976-.525,1.889,1.889,0,0,0-.493-.071h-.638q-.439,0-.439-.233t.612-.291h1.184l1.184.027,1.062.028h1.606l.9-.028.915-.027h.789q.584,0,.585.291c0,.2-.132.272-.4.233h-.352a3.405,3.405,0,0,0-.438.071,1.179,1.179,0,0,0-.829.509,2.341,2.341,0,0,0-.276,1.152q-.028.671-.028,1.544v5.155Z" transform="translate(-16.741 -31.888)"/><path class="a" d="M46.267,53.925A10.993,10.993,0,0,1,42.624,51.2a10.6,10.6,0,0,1-2.084-3.686,12.038,12.038,0,0,1,0-7.835,10.759,10.759,0,0,1,2.084-3.7,10.877,10.877,0,0,1,3.714-2.764,13.026,13.026,0,0,1,5.577-1.077,14.883,14.883,0,0,1,4.895.758,10.331,10.331,0,0,1,3.714,2.187,9.561,9.561,0,0,1,2.345,3.438,11.939,11.939,0,0,1,.817,4.515,12.778,12.778,0,0,1-.845,4.677A11.183,11.183,0,0,1,60.42,51.5a11.315,11.315,0,0,1-3.8,2.549,12.834,12.834,0,0,1-5,.932A12.3,12.3,0,0,1,46.267,53.925Zm7.78-.509a6.044,6.044,0,0,0,1.456-.45,5.838,5.838,0,0,0,1.485-.974A6.332,6.332,0,0,0,58.3,50.3a10.2,10.2,0,0,0,.948-2.565,15.71,15.71,0,0,0,.363-3.612,13.783,13.783,0,0,0-.655-4.4,10.123,10.123,0,0,0-1.819-3.335,7.931,7.931,0,0,0-2.724-2.112,7.787,7.787,0,0,0-3.335-.726,8.344,8.344,0,0,0-2.534.394,5.672,5.672,0,0,0-2.3,1.429,7.634,7.634,0,0,0-1.673,2.8,13.145,13.145,0,0,0-.655,4.488,14.336,14.336,0,0,0,.612,4.254,10.628,10.628,0,0,0,1.765,3.454A8.293,8.293,0,0,0,49.1,52.686a8.172,8.172,0,0,0,3.757.845,7.392,7.392,0,0,0,1.192-.131Z" transform="translate(-14.051 -31.885)"/><path class="a" d="M68.912,50.614q.028.846.1,1.429a4.792,4.792,0,0,0,.205.963,1.607,1.607,0,0,0,.3.568,1.045,1.045,0,0,0,.4.277,2.7,2.7,0,0,0,.789.174c.263.018.51.027.742.027.328,0,.494.078.5.233s-.221.252-.671.292q-1.428,0-2.316-.044t-1.295-.044q-.206,0-1.105.044t-2.04.044a2.041,2.041,0,0,1-.467-.044.225.225,0,0,1-.173-.249q0-.233.465-.233.291,0,.64-.027a3.7,3.7,0,0,0,.671-.115,1.122,1.122,0,0,0,.714-.948,16.365,16.365,0,0,0,.19-2.663l.26-17.245a2.851,2.851,0,0,1,.071-.714c.047-.184.148-.277.3-.277a.66.66,0,0,1,.465.249l.612.655c.077.1.392.442.948,1.034s1.254,1.325,2.1,2.2l2.825,2.929Q75.7,40.746,77.3,42.318q.494.5,1.121,1.152t1.31,1.354q.683.7,1.342,1.385t1.184,1.267q.541.584.932.976l.509.509h.146l-.292-13.08a5.781,5.781,0,0,0-.249-1.863,1.384,1.384,0,0,0-.742-.758,2,2,0,0,0-.789-.162h-.789q-.465,0-.465-.261c0-.115.073-.188.217-.217a2.8,2.8,0,0,1,.537-.044q1.137,0,2.1.044t1.429.044c.155,0,.49-.015,1.007-.044s1.132-.044,1.851-.044a2.175,2.175,0,0,1,.481.044.209.209,0,0,1,.19.217q0,.261-.525.261h-.423a3.424,3.424,0,0,0-.45.07,1.187,1.187,0,0,0-.828.714,5.442,5.442,0,0,0-.249,1.765L85.53,54.028q0,.9-.4.9a.825.825,0,0,1-.493-.205,5.247,5.247,0,0,1-.493-.439q-.7-.638-1.689-1.645T80.3,50.472l-2.388-2.388-2.369-2.369q-1.184-1.184-2.344-2.388T71.091,41.07q-.963-1.033-1.619-1.764t-.861-.932h-.086Z" transform="translate(-11.262 -31.893)"/><path class="a" d="M98.76,56.491a5.522,5.522,0,0,1,2.518.742,1.817,1.817,0,0,1,.919,1.578,2.355,2.355,0,0,1-.248.976,2.85,2.85,0,0,1-.861,1.018,5.111,5.111,0,0,1-1.646.789,8.946,8.946,0,0,1-2.609.319.781.781,0,0,1-.352-.07.232.232,0,0,1-.145-.218.3.3,0,0,1,.217-.291,1.443,1.443,0,0,1,.541-.087,2.789,2.789,0,0,0,.789-.131,2.875,2.875,0,0,0,.789-.4,2.278,2.278,0,0,0,.612-.612,1.451,1.451,0,0,0,.249-.828,2.479,2.479,0,0,0-.087-.627,1.583,1.583,0,0,0-.336-.628,2.283,2.283,0,0,0-.7-.525,3.96,3.96,0,0,0-1.184-.352c-.426-.057-.64-.135-.64-.232,0-.04.028-.083.087-.131l.4-.3L99.4,54.734a15.069,15.069,0,0,1-3.947-1.062,11.277,11.277,0,0,1-3.394-2.2,10.26,10.26,0,0,1-2.369-3.454A12.153,12.153,0,0,1,88.8,43.17a11.954,11.954,0,0,1,.145-1.717,11.5,11.5,0,0,1,.51-2.053,10.81,10.81,0,0,1,1.034-2.155,9.6,9.6,0,0,1,1.717-2.052,11.244,11.244,0,0,1,3.757-2.274,15.732,15.732,0,0,1,5.447-.817q1.37,0,2.285.071t1.939.217q.844.119,1.543.277a9.962,9.962,0,0,0,1.37.217c.292.019.438.136.438.352a4.087,4.087,0,0,1-.042.509c-.029.223-.064.588-.1,1.093q-.028.352-.028.817V37.4a4.428,4.428,0,0,1-.028.584,2.31,2.31,0,0,1-.087.493.247.247,0,0,1-.26.174c-.194,0-.292-.213-.292-.64a4.346,4.346,0,0,0-.307-1.385,3.96,3.96,0,0,0-.829-1.295,5.65,5.65,0,0,0-2.317-1.283,11.4,11.4,0,0,0-3.6-.525,9.613,9.613,0,0,0-3.221.465,6.646,6.646,0,0,0-2.257,1.338,7.262,7.262,0,0,0-2.143,3.453,15.418,15.418,0,0,0-.541,4.093,10.862,10.862,0,0,0,.889,4.543,10.369,10.369,0,0,0,2.241,3.248,9.148,9.148,0,0,0,2.973,1.938,8.31,8.31,0,0,0,3.074.64,13.872,13.872,0,0,0,3.206-.3,3.992,3.992,0,0,0,2.126-1.326,3.752,3.752,0,0,0,.64-.963,4.546,4.546,0,0,0,.352-.963,1.422,1.422,0,0,1,.131-.465.268.268,0,0,1,.248-.114.2.2,0,0,1,.205.129.746.746,0,0,1,.059.308c0,.1-.019.307-.059.627s-.088.681-.146,1.078-.126.791-.205,1.183a9.76,9.76,0,0,1-.232.976,1.659,1.659,0,0,1-.249.537,1.251,1.251,0,0,1-.509.308,6.594,6.594,0,0,1-1.049.3,12.69,12.69,0,0,1-1.31.205q-.7.07-1.441.118t-1.441.044h-.789c-.249,0-.509-.025-.742-.044Z" transform="translate(-8.365 -31.889)"/><path class="a" d="M114.384,46.989c-.118,0-.205.078-.261.232l-1.578,4.165a5.7,5.7,0,0,0-.335,1.034,3.7,3.7,0,0,0-.1.742.883.883,0,0,0,.248.655,1.3,1.3,0,0,0,.92.249h.439a.89.89,0,0,1,.35.044.188.188,0,0,1,.087.189q0,.293-.493.292-.7,0-1.559-.044t-1.527-.044h-.45l-.817.028-1.05.028h-1.121q-.553,0-.553-.292c0-.155.117-.233.352-.233h.465a3.839,3.839,0,0,0,.439-.042,2.2,2.2,0,0,0,1.527-.829,7.846,7.846,0,0,0,.948-1.792l7.314-18.3a7.065,7.065,0,0,1,.422-.9.462.462,0,0,1,.4-.261q.32,0,.726.932.174.4.655,1.578t1.121,2.8q.64,1.631,1.4,3.525l1.5,3.757q.742,1.864,1.413,3.509t1.136,2.763a11.634,11.634,0,0,0,.789,1.578,5.478,5.478,0,0,0,.683.932,2.14,2.14,0,0,0,.6.465,2.848,2.848,0,0,0,.509.19q.32.059.64.086c.213.019.407.028.584.028.253,0,.4.079.4.233s-.087.193-.261.232a6.1,6.1,0,0,1-1.077.059h-2.274q-1.483,0-3.233-.059-.393-.027-.638-.059c-.163-.02-.241-.078-.233-.173q0-.233.4-.261a.589.589,0,0,0,.26-.232.44.44,0,0,0,0-.439L121.2,47.178a.3.3,0,0,0-.292-.2Zm5.944-1.457c.137,0,.185-.058.146-.174l-2.621-7.2-.059-.173q-.028-.087-.087-.087c-.039,0-.075.028-.1.087a1.377,1.377,0,0,0-.071.173l-2.679,7.168c-.04.137,0,.2.114.2Z" transform="translate(-6.299 -31.911)"/><path class="a" d="M134.72,46.07q0,2.825.071,4.341a2.869,2.869,0,0,0,.54,1.922,1.43,1.43,0,0,0,.439.292,2.959,2.959,0,0,0,.655.19,9.543,9.543,0,0,0,.99.118q.6.044,1.441.044a14.925,14.925,0,0,0,2.009-.119,2.3,2.3,0,0,0,1.4-.7,2.864,2.864,0,0,0,.482-.817,3.943,3.943,0,0,0,.276-.932,1.093,1.093,0,0,1,.087-.319.238.238,0,0,1,.233-.115c.155,0,.233.165.233.493a5.2,5.2,0,0,1-.028.541c-.028.284-.056.6-.1.947s-.1.7-.146,1.035a7.183,7.183,0,0,1-.162.828,1.715,1.715,0,0,1-.146.4.585.585,0,0,1-.276.249,1.636,1.636,0,0,1-.526.118q-.335.027-.887.027-1.579,0-2.763-.027l-2.171-.059q-.991-.06-1.819-.071t-1.734,0h-.7q-.439,0-.963.028c-.35.018-.7.028-1.035.028q-.541.027-.974.027-.584,0-.585-.291c0-.154.154-.233.467-.233a5.38,5.38,0,0,0,.584-.028,2.738,2.738,0,0,0,.465-.087.764.764,0,0,0,.6-.525,5.24,5.24,0,0,0,.249-1.077,23.945,23.945,0,0,0,.131-2.562v-14.2a6.033,6.033,0,0,0-.044-.742,2.61,2.61,0,0,0-.292-1.137,1.392,1.392,0,0,0-.963-.525,4.224,4.224,0,0,0-.963-.087c-.332,0-.5-.086-.493-.26s.217-.26.64-.26h1.094l1.121.027,1.018.028h1.516l1.062-.028,1.137-.027h1.006c.409,0,.612.086.612.26s-.174.26-.525.26h-.553a3.535,3.535,0,0,0-.584.071,1.1,1.1,0,0,0-.79.509,2.905,2.905,0,0,0-.276,1.153c-.021.233-.036.481-.044.741s-.008.615,0,1.063v9.5Z" transform="translate(-3.775 -31.84)"/><path class="a" d="M143.255,35.351a9.894,9.894,0,0,0-.481-.991,2.483,2.483,0,0,0-.482-.612,2.1,2.1,0,0,0-.568-.363,7.027,7.027,0,0,0-.683-.249,3.023,3.023,0,0,0-.638-.1h-.493c-.233,0-.352-.087-.352-.26s.075-.19.217-.218a2.936,2.936,0,0,1,.541-.044q1.184,0,2.316.044t1.911.044q.553,0,1.516-.044t2.067-.044a1.777,1.777,0,0,1,.467.059c.134.04.2.107.2.205,0,.174-.145.261-.438.261a5.136,5.136,0,0,0-.655.027.869.869,0,0,0-.482.174.7.7,0,0,0-.291.612,3.382,3.382,0,0,0,.173.873q.174.583.493,1.37l5.013,13.226h.115q.32-.79.817-2.053t1.077-2.708q.584-1.44,1.184-2.971t1.136-2.87q.526-1.338.932-2.369t.584-1.527a4.688,4.688,0,0,0,.19-.584,2.182,2.182,0,0,0,.075-.493.691.691,0,0,0-.087-.336.452.452,0,0,0-.291-.217,2.61,2.61,0,0,0-.569-.119c-.2-.018-.4-.027-.595-.027a1.24,1.24,0,0,1-.352-.044.183.183,0,0,1-.146-.19c0-.194.272-.292.817-.292q1.108,0,1.938.044t1.121.044h.51l.714-.028.789-.027h.73c.407,0,.612.086.612.26s-.155.26-.465.26a5.9,5.9,0,0,0-.627.044,1.874,1.874,0,0,0-.789.3,1.571,1.571,0,0,0-.308.248,2.906,2.906,0,0,0-.352.45,8.238,8.238,0,0,0-.422.758q-.233.465-.525,1.184-.439,1.018-.817,1.879l-.789,1.749q-.4.887-.861,1.907t-1.05,2.368q-1.4,3.2-2.388,5.491t-1.485,3.394l-.481,1.049q-.189.4-.319.655a1.107,1.107,0,0,1-.265.352.448.448,0,0,1-.277.1c-.194,0-.359-.132-.493-.4s-.338-.729-.612-1.4Z" transform="translate(-2.465 -31.841)"/><path class="a" d="M164.476,40.968v-5.43a6.036,6.036,0,0,0-.044-.742,2.6,2.6,0,0,0-.292-1.136,1.4,1.4,0,0,0-.963-.526,1.936,1.936,0,0,0-.493-.07h-.638c-.332,0-.5-.087-.493-.261s.213-.26.639-.26h2.369l1.049.044h8.072q.4-.059.742-.087a2.3,2.3,0,0,0,.509-.087,2.082,2.082,0,0,0,.233-.07.641.641,0,0,1,.233-.044c.116,0,.173.087.173.26a2.54,2.54,0,0,1-.086.509,9.317,9.317,0,0,0-.146,1.385v.4a3.847,3.847,0,0,1-.044.568c-.02.205-.031.4-.044.584a2.354,2.354,0,0,1-.044.4.851.851,0,0,1-.086.218.217.217,0,0,1-.205.1c-.174,0-.261-.131-.26-.394,0-.1-.01-.252-.028-.465a1.854,1.854,0,0,0-.146-.585,1.425,1.425,0,0,0-.509-.64,3.558,3.558,0,0,0-1.441-.394,7.175,7.175,0,0,0-.789-.044l-1.267-.028-1.283-.028h-.817c-.134,0-.205.1-.205.292V41.8c0,.213.068.319.205.319h3.729a6.628,6.628,0,0,0,.932-.044q.434-.044.861-.129a.964.964,0,0,0,.54-.308q.32-.4.465-.4c.135,0,.205.079.205.233a4.679,4.679,0,0,1-.07.584q-.075.439-.162,1.544c0,.155-.01.33-.028.525s-.036.4-.044.584a4.2,4.2,0,0,1-.028.526,1.164,1.164,0,0,0,0,.319,2.316,2.316,0,0,1-.028.363.21.21,0,0,1-.227.191h-.006a.233.233,0,0,1-.265-.2.2.2,0,0,1,0-.064c0-.154-.036-.32-.044-.5a4,4,0,0,0-.071-.553,1.47,1.47,0,0,0-.465-.742,2.128,2.128,0,0,0-1.184-.394c-.134,0-.394-.036-.789-.044l-1.239-.028H168.3c-.115,0-.174.1-.174.292V50.7a5.663,5.663,0,0,0,.162,1.24,1.3,1.3,0,0,0,.493.741,2.4,2.4,0,0,0,1.05.364,12.81,12.81,0,0,0,1.792.1q.579,0,1.37-.044a3.836,3.836,0,0,0,1.37-.3,1.869,1.869,0,0,0,.872-.757,4.117,4.117,0,0,0,.439-1.4q.087-.439.319-.439a.181.181,0,0,1,.205.146,2.126,2.126,0,0,1,.028.4c0,.173-.015.412-.044.714s-.063.613-.1.931-.077.632-.114.932a4.828,4.828,0,0,1-.119.655,2,2,0,0,1-.173.438.539.539,0,0,1-.26.218,1.387,1.387,0,0,1-.451.086h-.682q-1.663,0-2.885-.027l-2.155-.059q-.931-.06-1.645-.071t-1.386,0h-.671c-.291,0-.613.009-.962.028s-.7.027-1.035.027q-.541.028-.974.028c-.39,0-.584-.1-.585-.291,0-.154.154-.233.465-.233a5.291,5.291,0,0,0,.58-.028A2.737,2.737,0,0,0,163.5,54a.764.764,0,0,0,.6-.525,5.185,5.185,0,0,0,.249-1.077,23.463,23.463,0,0,0,.131-2.566V46.194Z" transform="translate(0.091 -31.866)"/><path class="a" d="M181.239,54.8a8.416,8.416,0,0,1-1.953-.585.918.918,0,0,1-.454-.319,1.5,1.5,0,0,1-.1-.671c0-.409,0-.81,0-1.208s.015-.771.044-1.121.038-.657.059-.92c0-.261.028-.45.028-.568a2.415,2.415,0,0,1,.1-.541c.048-.146.131-.217.249-.217a.223.223,0,0,1,.248.162,1.217,1.217,0,0,1,.044.335,4.191,4.191,0,0,0,.075.7,6.6,6.6,0,0,0,.19.789,3.719,3.719,0,0,0,1.646,2.286,5.014,5.014,0,0,0,2.522.655,4.422,4.422,0,0,0,1.717-.3,3.727,3.727,0,0,0,1.208-.789,3.331,3.331,0,0,0,.727-1.062,2.985,2.985,0,0,0,.249-1.184,5.752,5.752,0,0,0-.1-1.062,3.7,3.7,0,0,0-.4-1.093,6.39,6.39,0,0,0-.872-1.184,11.518,11.518,0,0,0-1.472-1.326l-1.343-1.05a18.614,18.614,0,0,1-2.024-1.807,10.347,10.347,0,0,1-1.338-1.706,6.157,6.157,0,0,1-.73-1.673,6.856,6.856,0,0,1-.218-1.717,5.129,5.129,0,0,1,.482-2.215,4.961,4.961,0,0,1,1.37-1.748,6.553,6.553,0,0,1,2.128-1.137,8.771,8.771,0,0,1,2.763-.394,13.244,13.244,0,0,1,2.368.173q.933.174,1.516.32c.263.057.394.174.394.35s-.019.521-.059,1.035q-.059.742-.059,2.462a2.171,2.171,0,0,1-.075.683.254.254,0,0,1-.249.19q-.291,0-.291-.526a3.886,3.886,0,0,0-.146-.789,3.12,3.12,0,0,0-.612-1.152q-.174-.206-.422-.45a3.062,3.062,0,0,0-.628-.467,3.981,3.981,0,0,0-.9-.363,4.621,4.621,0,0,0-1.225-.146,3.619,3.619,0,0,0-2.549.845,2.806,2.806,0,0,0-.92,2.155,3.234,3.234,0,0,0,.146.962,3.307,3.307,0,0,0,.493.948,7.358,7.358,0,0,0,.948,1.034q.6.553,1.5,1.251l.816.612a22.857,22.857,0,0,1,2.23,1.9,10.768,10.768,0,0,1,1.485,1.776,6.271,6.271,0,0,1,.816,1.792,7.458,7.458,0,0,1,.249,1.974,6.622,6.622,0,0,1-.131,1.31,5.56,5.56,0,0,1-.45,1.338,5.9,5.9,0,0,1-.844,1.283,6.334,6.334,0,0,1-1.31,1.136,6.927,6.927,0,0,1-2.285.948,11.424,11.424,0,0,1-2.345.249A13.677,13.677,0,0,1,181.239,54.8Z" transform="translate(2.087 -31.886)"/></g><g transform="translate(76.744 3.606)"><path class="a" d="M95.126,21.915q.027.829.1,1.4a4.751,4.751,0,0,0,.2.94,1.58,1.58,0,0,0,.3.556,1.022,1.022,0,0,0,.4.272,2.609,2.609,0,0,0,.753.17q.4.028.727.028.486,0,.486.229t-.655.285q-1.4,0-2.269-.044T93.891,25.7q-.2,0-1.085.044t-2,.044a1.976,1.976,0,0,1-.458-.044.222.222,0,0,1-.17-.241q0-.229.458-.229c.19,0,.4-.009.628-.028a3.615,3.615,0,0,0,.654-.114,1.1,1.1,0,0,0,.7-.928,16.082,16.082,0,0,0,.186-2.61l.256-16.884a2.826,2.826,0,0,1,.071-.7c.047-.182.146-.272.3-.272a.642.642,0,0,1,.458.24l.6.644q.116.142.928,1.014T97.47,7.8l2.763,2.865q1.524,1.579,3.094,3.122.486.486,1.1,1.125t1.284,1.326q.67.683,1.31,1.354t1.183,1.239q.529.573.912.955l.5.5h.142l-.285-12.808a5.655,5.655,0,0,0-.24-1.827A1.361,1.361,0,0,0,108.5,4.9a1.963,1.963,0,0,0-.753-.157h-.758c-.306,0-.458-.086-.458-.257,0-.113.07-.184.213-.213a2.794,2.794,0,0,1,.528-.044q1.113,0,2.053.044t1.4.044q.229,0,.982-.044t1.812-.044a2.206,2.206,0,0,1,.47.044.2.2,0,0,1,.185.213q0,.256-.512.257h-.4a3.282,3.282,0,0,0-.442.07,1.184,1.184,0,0,0-.813.7,5.318,5.318,0,0,0-.241,1.726l-.313,18c0,.589-.123.884-.371.884a.793.793,0,0,1-.486-.2,5.027,5.027,0,0,1-.486-.426q-.681-.626-1.653-1.61t-2.112-2.124l-2.341-2.34L101.7,17.112q-1.184-1.14-2.3-2.341t-2.068-2.21q-.939-1.01-1.578-1.725t-.842-.912H94.83Z" transform="translate(-67.075 -3.59)"/><path class="a" d="M77.11,18.367c-.114,0-.2.077-.257.23l-1.539,4.076a5.576,5.576,0,0,0-.328,1.015,3.782,3.782,0,0,0-.1.726.871.871,0,0,0,.241.644,1.276,1.276,0,0,0,.9.241h.426a.871.871,0,0,1,.343.042.187.187,0,0,1,.087.186q0,.283-.486.284c-.454,0-.964-.015-1.527-.044s-1.062-.044-1.5-.044h-.442l-.789.028-1.027.028h-1.1q-.541,0-.54-.285c0-.152.114-.229.343-.229h.459a3.913,3.913,0,0,0,.426-.044,2.152,2.152,0,0,0,1.5-.813,7.662,7.662,0,0,0,.928-1.752l7.16-17.911a6.88,6.88,0,0,1,.394-.884.452.452,0,0,1,.4-.257q.311,0,.714.912.169.393.643,1.539t1.1,2.739q.628,1.579,1.37,3.449l1.469,3.679q.727,1.827,1.381,3.437t1.114,2.7a11.363,11.363,0,0,0,.757,1.555,5.41,5.41,0,0,0,.672.912,2.1,2.1,0,0,0,.584.458,2.829,2.829,0,0,0,.5.185c.209.039.417.068.628.087s.4.027.572.027c.248,0,.372.077.372.23s-.086.229-.257.229a6.164,6.164,0,0,1-1.054.055H89.414q-1.453,0-3.158-.055c-.263-.019-.472-.037-.627-.056-.154,0-.23-.075-.23-.17s.135-.237.4-.257a.573.573,0,0,0,.257-.229.428.428,0,0,0,0-.426l-2.282-6.047a.291.291,0,0,0-.285-.2Zm5.818-1.424c.134,0,.181-.057.142-.17L80.5,9.727l-.056-.17q-.027-.087-.087-.087c-.039,0-.07.028-.1.087a1.331,1.331,0,0,0-.071.17l-2.624,7.018c-.039.134,0,.2.114.2Z" transform="translate(-69.481 -3.606)"/><path class="a" d="M119.2,18.364c-.114,0-.2.077-.257.23L117.4,22.67a5.665,5.665,0,0,0-.328,1.015,3.78,3.78,0,0,0-.1.726.871.871,0,0,0,.241.644,1.277,1.277,0,0,0,.9.241h.426a.868.868,0,0,1,.343.042.187.187,0,0,1,.087.186q0,.283-.486.284c-.454,0-.964-.015-1.527-.044s-1.062-.044-1.5-.044h-.442l-.789.028-1.022.059h-1.1q-.541,0-.541-.284c0-.153.115-.229.344-.229h.458c.143-.008.286-.022.426-.044a2.149,2.149,0,0,0,1.5-.814,7.662,7.662,0,0,0,.928-1.752l7.16-17.911a6.737,6.737,0,0,1,.4-.884.451.451,0,0,1,.4-.257q.311,0,.714.912.169.4.643,1.539t1.1,2.739q.628,1.579,1.37,3.449l1.468,3.679q.727,1.827,1.385,3.438t1.114,2.7a11.279,11.279,0,0,0,.753,1.555,5.421,5.421,0,0,0,.671.912,2.08,2.08,0,0,0,.585.458,2.713,2.713,0,0,0,.5.185,5.968,5.968,0,0,0,.627.087c.211.019.4.028.573.028.248,0,.371.076.371.229s-.085.229-.256.229a6.173,6.173,0,0,1-1.055.056H131.5q-1.457,0-3.158-.056c-.262-.018-.472-.037-.627-.055-.154,0-.229-.076-.229-.171s.134-.237.4-.256a.586.586,0,0,0,.257-.229.428.428,0,0,0,0-.426l-2.282-6.048a.294.294,0,0,0-.285-.2Zm5.818-1.424c.134,0,.182-.057.142-.17L122.59,9.724l-.056-.17c-.018-.058-.047-.087-.086-.087s-.071.028-.1.087a1.331,1.331,0,0,0-.071.17l-2.624,7.018c-.039.134,0,.2.115.2Z" transform="translate(-64.589 -3.603)"/></g></g></svg>