<svg xmlns="http://www.w3.org/2000/svg" width="111.697" height="65.812" viewBox="0 0 111.697 65.812"><defs><style>.a{fill:#3e3e3e;}</style></defs><g transform="translate(-12.5 -11.066)"><path class="a" d="M342.53,70.968l-17.3,1.2a32.242,32.242,0,0,0,.13,4.7c.124,1.558.193,3.12.281,4.681.087,1.542.162,3.085.253,4.627.091,1.56.2,3.12.29,4.681s.176,3.11.266,4.716c.252,0,.434.013.614,0,1.556-.134,3.111-.28,4.667-.41,1.112-.093,2.225-.163,3.337-.252,1.168-.093,2.334-.2,3.5-.294.241-.02.483-.039.725-.035a1.906,1.906,0,0,0,1.528-.679,5.684,5.684,0,0,1,.657-.683,2.725,2.725,0,0,1,.8-.48,1.042,1.042,0,0,1,1.384.611,3.191,3.191,0,0,1-.255,3.092,1.193,1.193,0,0,1-1.035.555c-1.878.064-3.757.137-5.634.231-2.453.124-4.9.274-7.356.409-.873.048-1.747.086-2.62.127-.508.024-.542.042-.533.55.047,2.494.108,4.988.155,7.481.03,1.619.04,3.239.067,4.859.032,1.954.072,3.909.108,5.863,0,.13,0,.261.012.391.013.215.109.351.344.35.074,0,.149,0,.223,0,5.38.029,10.759.068,16.139.077a24.985,24.985,0,0,0,3.172-.186,5.34,5.34,0,0,0,4.882-4.3,10.213,10.213,0,0,0,.274-3.6,3.491,3.491,0,0,0-3.337-3.311A4.245,4.245,0,0,0,344,108.092a3.074,3.074,0,0,0,.043,3.04,1.464,1.464,0,0,0,.586.571.908.908,0,0,0,1.406-.494c.131-.307.206-.637.321-.95a4.337,4.337,0,0,1,.309-.713,1.049,1.049,0,0,1,.8-.552c.391-.047.59.058.628.446a4.806,4.806,0,0,1-.022,1.33,4.736,4.736,0,0,1-.463,1.307,2.391,2.391,0,0,1-3.058,1.252,3.792,3.792,0,0,1-2.649-3.389,4.993,4.993,0,0,1,.678-2.946,7.255,7.255,0,0,1,4.446-3.492,4.942,4.942,0,0,1,2.486.017,7.929,7.929,0,0,1,4.316,2.616,4.914,4.914,0,0,1,1.219,3.386,12.089,12.089,0,0,1-1.472,5.892,8.756,8.756,0,0,1-5.17,4.171,5.94,5.94,0,0,1-1.764.2q-9.468,0-18.935,0-3.379,0-6.759-.006h-.6a17.3,17.3,0,0,1-.048-3.737c.182-.016.379-.047.576-.048.856-.006,1.713,0,2.569-.006.522-.006.578-.053.566-.587-.056-2.568-.078-5.138-.2-7.7-.128-2.713-.307-5.425-.551-8.13q-.376-4.167-.927-8.318a157.134,157.134,0,0,0-3.354-17.641c-.049-.2-.119-.386-.2-.63h-4.423a15.938,15.938,0,0,1,0-2.164c.832-.047,1.61-.085,2.386-.137,1.484-.1,2.969-.2,4.451-.318q1.889-.154,3.774-.364,1.995-.219,3.984-.485c1.473-.2,2.944-.408,4.414-.622,1.618-.235,3.234-.48,4.851-.719,1.948-.289,3.894-.58,5.843-.86.456-.066.918-.09,1.445-.14a4.872,4.872,0,0,1,.072.756c-.1,1.411-.183,2.823-.321,4.229-.183,1.87-.408,3.735-.617,5.6-.035.314-.081.627-.113.942a.327.327,0,0,1-.359.339h-2.009c-.011-.254-.037-.451-.025-.646.093-1.542.193-3.083.29-4.624.047-.743.1-1.486.137-2.229C342.566,71.379,342.543,71.216,342.53,70.968Z" transform="translate(-230.845 -42.911)"/><path class="a" d="M16.645,102.377a15.207,15.207,0,0,0,.931,5.422,8.521,8.521,0,0,0,6.9,5.586,14.194,14.194,0,0,0,8.436-1.172,11.3,11.3,0,0,0,6.167-7.4,19.493,19.493,0,0,0,.8-6.842,7.864,7.864,0,0,0-1.144-3.526,12.407,12.407,0,0,0-2.593-3.051,26.3,26.3,0,0,0-5.428-3.609c-2.433-1.246-4.9-2.421-7.362-3.616a56.9,56.9,0,0,1-5.612-2.992,14.9,14.9,0,0,1-3.48-2.863,6.213,6.213,0,0,1-1.477-2.9,8.96,8.96,0,0,1,0-2.782,11.592,11.592,0,0,1,5.849-8.721,15.812,15.812,0,0,1,6.691-2.328,11.57,11.57,0,0,1,6.406,1.113,5.8,5.8,0,0,1,3.442,5.276,10.179,10.179,0,0,1-.625,4.222,6.728,6.728,0,0,1-4.3,4.16,5.032,5.032,0,0,1-1.367.212,9.576,9.576,0,0,1-2.717-.2c-2.217-.564-2.835-2.379-2.556-4.2a2.36,2.36,0,0,1,.777-1.393,5.083,5.083,0,0,1,4.407-1.213c.289.045.664.108.688.455s-.365.361-.611.463c-.481.2-.985.348-1.444.586a1.92,1.92,0,0,0-1.13,2.206,1.475,1.475,0,0,0,.989,1.31c1.791.615,3.829.4,4.908-1.556a5.668,5.668,0,0,0-.7-7.012,11.694,11.694,0,0,0-3.34-2.392A4.863,4.863,0,0,0,26.43,63.2a9.867,9.867,0,0,0-4.341.512,6.213,6.213,0,0,0-3.434,2.958,10.556,10.556,0,0,0-1.068,6.446,6.052,6.052,0,0,0,1.064,2.556,13.413,13.413,0,0,0,2.661,2.846,41.754,41.754,0,0,0,5.643,3.8c2.647,1.556,5.313,3.08,7.944,4.662a26.82,26.82,0,0,1,5.031,3.789,18.141,18.141,0,0,1,1.734,1.965A8.229,8.229,0,0,1,43.4,98.155a17.957,17.957,0,0,1-1.366,6.519,17.566,17.566,0,0,1-10.153,9.656,14.907,14.907,0,0,1-6.217,1.108,13.916,13.916,0,0,1-10.627-5.233,10.946,10.946,0,0,1,.411-14.475,13.638,13.638,0,0,1,5.746-3.924,6.489,6.489,0,0,1,2.915-.258,14.264,14.264,0,0,1,3.053.61,9.051,9.051,0,0,1,.883.344,5.913,5.913,0,0,1,3.63,5.5,9.287,9.287,0,0,1-.419,3.3,6.934,6.934,0,0,1-6.368,4.781,9.728,9.728,0,0,1-2.166-.1,2.874,2.874,0,0,1-1.819-4.641A3.71,3.71,0,0,1,23.863,99.8a.8.8,0,0,1,.628.246c.174.278-.122.466-.321.623-.467.368-.975.689-1.414,1.087a1.093,1.093,0,0,0,.016,1.67,1.877,1.877,0,0,0,.769.423,3.8,3.8,0,0,0,1.213.132,4.826,4.826,0,0,0,4.453-3.618,5.047,5.047,0,0,0-1.732-5.422A6.655,6.655,0,0,0,21.14,93.6a5.156,5.156,0,0,0-3.2,2.611,9.885,9.885,0,0,0-1.115,3.719C16.73,100.74,16.7,101.56,16.645,102.377Z" transform="translate(0 -38.585)"/><path class="a" d="M157.228,42.16V81.587a.727.727,0,0,0,.188.074,25.829,25.829,0,0,0,5.559-.33,6.538,6.538,0,0,0,.859-.237,1.566,1.566,0,0,0,.879-.651,1.887,1.887,0,0,1,.247-.3.853.853,0,0,1,.925-.227.881.881,0,0,1,.62.787,1.694,1.694,0,0,1-.249,1.068,3.81,3.81,0,0,1-2.789,1.846,8.707,8.707,0,0,1-1.5.113q-5.726.013-11.452,0h-.693V81.664l4.744-.012c0-.278.015-.477,0-.673-.168-1.965-.344-3.93-.512-5.9-.165-1.928-.318-3.858-.486-5.785-.165-1.891-.341-3.781-.513-5.671-.163-1.8-.32-3.6-.489-5.392q-.245-2.612-.51-5.222c-.158-1.555-.313-3.11-.5-4.662-.154-1.293-.336-2.582-.531-3.869-.079-.525-.109-.526-.654-.526q-6.452,0-12.9,0c-.147,0-.294.016-.5.028a5.377,5.377,0,0,0-.078.587c-.053,2.029-.1,4.057-.15,6.086-.007.275-.037.55-.059.862H134.8l-.033-.036c-.012-.014-.031-.028-.033-.043a2.544,2.544,0,0,1-.036-.331q0-4.86.008-9.72a.947.947,0,0,1,.061-.207,6.291,6.291,0,0,1,1.629,0v1.352a6.9,6.9,0,0,0,1.54-.006c1.186-.1,2.373-.186,3.557-.3q1.887-.18,3.771-.4c1.255-.147,2.507-.314,3.76-.481q4.144-.555,8.232-1.432a57.622,57.622,0,0,0,7.671-2.139,21.6,21.6,0,0,0,4.332-2.042,14.075,14.075,0,0,0,1.779-1.343,4.862,4.862,0,0,0,1.75-4.053,10.83,10.83,0,0,0-.505-3.016,5.641,5.641,0,0,0-4.62-3.809,5.925,5.925,0,0,0-4.23.79,9.09,9.09,0,0,0-3.222,2.947,4.341,4.341,0,0,0,.723,5.369,3.254,3.254,0,0,0,3.206.794,2.442,2.442,0,0,0,1.837-2.385.773.773,0,0,0-.571-.907c-.4-.149-.822-.226-1.232-.343a4.311,4.311,0,0,1-.791-.259.6.6,0,0,1-.082-1.109,2.9,2.9,0,0,1,1.072-.434,4.758,4.758,0,0,1,2.158.075A2.023,2.023,0,0,1,168.11,30.5a5.137,5.137,0,0,1-4.4,4.54,6.227,6.227,0,0,1-7.1-4.623,4.8,4.8,0,0,1,.875-4.522,9.463,9.463,0,0,1,4.393-3.142,10.964,10.964,0,0,1,11.194,1.705,8.09,8.09,0,0,1,3.073,5.456,6.358,6.358,0,0,1-.587,3.475,11.277,11.277,0,0,1-3.036,3.885,19.43,19.43,0,0,1-7.648,3.888,27.743,27.743,0,0,1-7,.95C157.674,42.115,157.473,42.142,157.228,42.16Z" transform="translate(-93.466 -8.323)"/><path class="a" d="M371.683,11.066c.635.038,1.482.749,1.481,1.343a1.244,1.244,0,0,1-.29.757,7.31,7.31,0,0,1-1.286,1.226c-1.134.776-2.3,1.5-3.482,2.213-.748.449-1.54.827-2.31,1.239-1.033.552-2.057,1.121-3.1,1.654-.56.286-1.149.516-1.73.76a.634.634,0,0,1-.378.059,1.145,1.145,0,0,1-.561-.277c-.065-.077.031-.359.13-.492a4.621,4.621,0,0,1,.74-.83c1.017-.841,2.038-1.681,3.094-2.473,1.027-.769,2.1-1.47,3.15-2.215.954-.679,1.893-1.38,2.843-2.065a9.942,9.942,0,0,1,.975-.646A4.36,4.36,0,0,1,371.683,11.066Z" transform="translate(-265.789)"/></g></svg>