<svg xmlns="http://www.w3.org/2000/svg" width="99.728" height="97.407" viewBox="0 0 99.728 97.407"><defs><style>.a{fill:#3e3e3e;}</style></defs><g transform="translate(-25.458 -25.185)"><path class="a" d="M71.235,85.5c2.048,4.9,4.394,9.694,6.057,14.713,1.88,5.671,3.184,11.535,4.645,17.338a9.969,9.969,0,0,1,.1,3.418,2.13,2.13,0,0,1-.958,1.572,1.968,1.968,0,0,1-1.749-.57,39.185,39.185,0,0,1-3.795-5.456A110.036,110.036,0,0,1,65.4,89.119c-.1-.452-.241-.9-.413-1.533-10.667,2.129-20.375.252-28.708-6.979A30.49,30.49,0,0,1,26.22,63.684a31.644,31.644,0,0,1,20.3-36.742,32.222,32.222,0,0,1,38.06,13.851C91.5,52.452,91.182,75.186,71.235,85.5Zm12.1-28.836a26.2,26.2,0,0,0-52.392.165C31.01,71.15,42.694,82.977,56.822,83.023A26.265,26.265,0,0,0,83.339,56.667Z"/><path class="a" d="M348.9,262.668c-.172,3.86-1.582,6.546-3.93,7.227-2.306.669-5.165-.486-6.831-3.925a147.079,147.079,0,0,1-5.751-14.826c-.879-2.465-1.378-5.065-2.1-7.589-.322-1.127-.526-2.264.835-2.7,1.472-.473,1.979.62,2.351,1.818,1.992,6.421,3.933,12.861,6.08,19.23a12.021,12.021,0,0,0,2.664,3.98c1.178,1.29,2.48,1.032,2.862-.625a13.825,13.825,0,0,0-.145-6.016c-1.731-5.3-3.522-9.587-5.482-14.813-.141-.377-.367-.722-.521-1.1-.477-1.158-1.437-2.555.207-3.34s2.243.777,2.705,1.937c2.139,5.375,4.267,10.755,6.26,16.184A25.169,25.169,0,0,1,348.9,262.668Z" transform="translate(-236.955 -166.943)"/><path class="a" d="M415.27,242.474a19.344,19.344,0,0,0,4.17,9.04,1.526,1.526,0,0,0,2.576.135c.239-.237,1.082-1.17,1.36-1.2a1.649,1.649,0,0,1,1.665.55c.548.582.214,1.821-.185,2.357-2.3,3.091-5.625,3.343-7.927.124a32.018,32.018,0,0,1-4.659-9.5c-.919-3.161-.807-6.639-.986-9.986a6.588,6.588,0,0,1,.749-2.9,4.343,4.343,0,0,1,7.05-1.59,11.338,11.338,0,0,1,4,7.7c.25,3.112-1.247,4.807-4.369,5.056C417.657,242.338,416.6,242.39,415.27,242.474Zm.789-3.219a8.8,8.8,0,0,0,2.7-.386c.541-.3,1.275-1.272,1.131-1.618a25.48,25.48,0,0,0-2.606-4.9c-.871-1.235-2.014-.785-2.407.484a18.211,18.211,0,0,0-.635,4.313C414.154,238.716,414.884,239.571,416.059,239.255Z" transform="translate(-300.143 -158.006)"/><path class="a" d="M310.425,283.964c-1.9.244-2.772-1.391-3.288-2.789q-6.015-16.3-11.967-32.615c-.386-1.056-.663-2.263.668-2.782,1.361-.53,1.925.588,2.316,1.633q4.741,12.677,9.447,25.366c.7,1.893,1.508,3.762,2.022,5.706.477,1.8,1.494,1.853,2.87,1.281.744-.309,1.473-.735,2.174-1.02,1.209-.491,1.911-.143,2.289.553a1.894,1.894,0,0,1-.723,2.046C314.374,282.358,312.534,283.693,310.425,283.964Z" transform="translate(-209.569 -171.5)"/><path class="a" d="M264.6,292.253a18.763,18.763,0,0,1,.985-4.319,4.043,4.043,0,0,1,4.859-2.593,2.238,2.238,0,0,1,1.339,1.427,1.768,1.768,0,0,1-1.065,1.387c-2.573.219-2.816,2.127-2.788,3.937a22.69,22.69,0,0,0,5.47,14.834c1.469,1.713,2.206,1.469,3.512-.42a2.685,2.685,0,0,1,2.152-1.091c1.24.3,1.116,1.417.7,2.482-1.5,3.844-5.214,4.765-8.2,1.762C266.981,305.052,264.116,299.227,264.6,292.253Z" transform="translate(-185.996 -202.274)"/><path class="a" d="M122.941,104.373A18.032,18.032,0,1,1,105.2,86.082,18.23,18.23,0,0,1,122.941,104.373ZM105.7,98.344a6.207,6.207,0,0,0-6.321-6.2,6.253,6.253,0,1,0,.1,12.506A6.2,6.2,0,0,0,105.7,98.344Z" transform="translate(-47.78 -47.372)"/></g></svg>