<svg xmlns="http://www.w3.org/2000/svg" width="126.04" height="38.794" viewBox="0 0 126.04 38.794"><defs><style>.a{fill:#3e3e3e;}</style></defs><g transform="translate(-568.999 -3888)"><path class="a" d="M187.521,85.059c1.347-.269,3.831-1.835,5.5-5.29,1.352-2.863,2.808-5.725,3.89-8.643,1.89-5.078,3.457-9.125,9.07-5.994-3.238,2.268-5.884,8.588-7.72,12.854-2.378,5.075-3.242,6.048-4.807,7.453a9.627,9.627,0,0,1,5.887,5.344l.433.812c.646,1.35,1.4,2.863,2.159,4.1,1.459,2.323,1.89,2.484,3.294,2.484a4.959,4.959,0,0,0,2.594-.809,11.764,11.764,0,0,1-.541,2.968,3.589,3.589,0,0,1-4.267,2.052c-1.89-.54-2.859-1.89-4.805-5.184-.973-1.782-2.107-3.994-3.188-6.157a7.956,7.956,0,0,0-4.211-4,12.478,12.478,0,0,1-3.4.974l-.435,10.636c.164,1.029.545,1.354,1.621,1.354h.542v2.1h-7.074v-2.1h.538c1.189,0,1.46-.488,1.623-1.3l-1.081-32.677-.108-.159c-.107-.271-.433-.864.052-1.245a1.9,1.9,0,0,1,1.3-.321,20.893,20.893,0,0,1,3.455.485l.433.107Z" transform="translate(386.935 3823.967)"/><path class="a" d="M254.239,76.59c.325-1.511-1.131-3.239-2.59-3.78a6.881,6.881,0,0,1,2-1.512c1.567-.756,3.079-.054,4.051,1.512,1.186,2.431.379,3.943-3.459,3.78m4.915,29c-1.942.807-4.267,1.239-5.074-.218-.164-.323-.76-1.4-.7-26.95a11.255,11.255,0,0,1,2.865-.378c1.078,0,1.4.541,1.4.921-1.189,13.336-.162,24.192,1.134,26.084Z" transform="translate(346.349 3819.907)"/><path class="a" d="M283.246,70.173c-.54-1.3.217-1.621,1.3-1.567a13.469,13.469,0,0,1,3.778.6l-.11,3.078-.268,4.425h4.807c1.567,0,1.134,2.27,0,3.406h-4.969v1.675c-.055,1.889-.269,10.365-.11,13.984.11,1.836.166,4.322,1.244,5.457,1.189,1.187,2.969.269,4.753-.7.271,3.727-1.784,4.859-4.375,4.536-2.7-.327-4.426-2.538-4.858-6.643-.166-1.348-.381-6.1-.433-7.612l-.327-10.694h-2.861c-.917,0-1.025-.919-.538-2.161.215-.486.43-.972.592-1.246h2.7Z" transform="translate(329.818 3821.303)"/><path class="a" d="M337.239,93.985c-.917-3.077-5.509-5.347-8.206-2.915-3.188,3.078-1.677,7.506,2.859,9.019,4.971,1.672,8.48,3.188,9.074,7.181.758,5.132-3.4,8.805-9.776,8.643-2.645-.11-5.4-.866-6.966-3.455-.919-1.513.431-3.083,2.377-3.729,1.513,4.267,5.671,6.1,8.8,3.455,2.161-1.838,2.324-6.047-.485-7.721a16.03,16.03,0,0,0-3.4-1.4c-3.563-1.135-6.372-2.162-7.614-5.726a7.406,7.406,0,0,1,3.024-9.018c4.7-3.136,12.746,0,12.746,3.239,0,.754-1.456,2.107-2.431,2.43" transform="translate(304.5 3810.56)"/><path class="a" d="M389.479,87.576a10.29,10.29,0,0,1,3.834,4.375,22.2,22.2,0,0,1,1.838,10.639c-.215,3.565-1.079,6.915-2.323,8.856a8.6,8.6,0,0,1-7.127,4.482,8.464,8.464,0,0,1-7.128-4.482c-1.3-2-2.162-5.4-2.325-8.962a22.563,22.563,0,0,1,1.784-10.532c1.3-2.591,3.78-5.456,7.613-5.456a7.507,7.507,0,0,1,3.834,1.082M385.051,112.9c7.183,2.648,8.966-23.382.65-23.382-6.915,0-7.453,21.01-.65,23.382" transform="translate(273.7 3810.867)"/><path class="a" d="M432.154,113.784c1.621-.486,1.727-.592,1.727-1.565,0-.755-.809-22.036-.865-22.952-.431-1.245-.215-1.727,1.081-1.727a15.048,15.048,0,0,1,3.511.592l-.16,3.132c1.242-1.243,3.778-3.724,7.127-3.724,5.238,0,6.859,4.048,6.859,9.341.16,7.776.433,14.04.863,15.446a6.237,6.237,0,0,0,1.674,2.863c-2.266,1.188-4.86,1.238-5.237-.273-.379-1.188-.6-8.208-.6-18.416-.267-6.855-5.937-6.587-10.746-1.835-.163.916-.215,11.342-.431,17.714,0,.917.217,1.025,1.946,1.349v2.106h-6.753Z" transform="translate(241.069 3810.257)"/></g></svg>