<svg xmlns="http://www.w3.org/2000/svg" width="230" height="63.388" viewBox="0 0 230 63.388"><defs><style>.a{fill:#3e3e3e;}</style></defs><g transform="translate(-773 -3875)"><path class="a" d="M69.952,79.956c3.726,0,6.329-2.195,6.329-5.337,0-2.48-1.2-3.963-4.266-5.293l-3.038-1.279c-2.169-.869-3.344-1.679-3.344-3.468,0-2.455,2.2-3.329,4.257-3.329a8,8,0,0,1,5.389,1.956l.2.169V61.225l-.05-.037A9.568,9.568,0,0,0,69.858,59.5c-3.022,0-6.071,1.58-6.071,5.111,0,3.054,2.232,4.253,4.325,5.137l2.88,1.216c2.38,1.013,3.442,1.787,3.442,3.69,0,2.193-1.718,3.555-4.483,3.555a8.4,8.4,0,0,1-5.992-2.3l-.206-.185v2.221l.042.037A9.584,9.584,0,0,0,69.952,79.956Z" transform="translate(730.973 3836.956)"/><path class="a" d="M134.4,78.211H123.814V70.593h9.593V68.84h-9.593V61.828H134.4V60.081h-12.43V79.961H134.4Z" transform="translate(701.748 3836.665)"/><path class="a" d="M196.516,70.021c0-5.946-3.88-9.94-9.654-9.94h-6.105v19.88h6.105C192.637,79.961,196.516,75.967,196.516,70.021Zm-13.879-8.193h4.225c4.7,0,7.743,3.216,7.743,8.193s-3.039,8.19-7.743,8.19h-4.225Z" transform="translate(672.234 3836.665)"/><path class="a" d="M308.958,63.184l11.766,16.725.037.053h1.276V60.081h-1.815V76.186L308.935,60.133l-.037-.053h-1.755V79.961h1.815Z" transform="translate(608.784 3836.665)"/><path class="a" d="M385.689,74.432a4.8,4.8,0,0,0-3.627-4.793,4.348,4.348,0,0,0,2.893-4.352c0-3.358-2.271-5.207-6.394-5.207h-6.133v19.88h6.743C383.252,79.961,385.689,77.895,385.689,74.432ZM374.273,61.8h4.287c3.018,0,4.547,1.2,4.547,3.553s-1.53,3.555-4.547,3.555h-4.287Zm0,8.765h4.993c2.889,0,4.545,1.4,4.545,3.839s-1.656,3.842-4.545,3.842h-4.993Z" transform="translate(576.01 3836.665)"/><rect class="a" width="1.877" height="19.881" transform="translate(977.97 3896.745)"/><path class="a" d="M248.241,16.412H20.122V79.8h230V16.412Zm0,61.507H22V18.293H248.241Z" transform="translate(752.878 3858.588)"/><path class="a" d="M248.2,67.235l-.94-2.378-6.921,17.5h1.88Z" transform="translate(642.323 3834.267)"/><path class="a" d="M265.865,79.961,258,60.08h-1.881l7.863,19.881Z" transform="translate(634.398 3836.665)"/></g></svg>