<svg xmlns="http://www.w3.org/2000/svg" width="196.956" height="78.389" viewBox="0 0 196.956 78.389"><defs><style>.a{fill:#3e3e3e;}</style></defs><g transform="translate(-8.5 -4.882)"><g transform="translate(8.5 59.184)"><path class="a" d="M11.566,141.47V148.4H28.5c.2,0,.3.128.3.38v2.384c0,.254-.1.379-.3.379H11.566v10.417a.3.3,0,0,1-.338.34H8.84a.3.3,0,0,1-.34-.34V138.7c0-.251.113-.38.34-.38H29.066c.2,0,.3.128.3.38v2.387c0,.251-.1.379-.3.379Z" transform="translate(-8.5 -138.211)"/><path class="a" d="M91.6,155.28a10.334,10.334,0,0,1-.757,2.954,6.238,6.238,0,0,1-1.514,1.951,5.925,5.925,0,0,1-2.235,1.192v.039a15.486,15.486,0,0,1-2.839.53,40.288,40.288,0,0,1-4.243.19H76.333q-5.755,0-7.991-1.061a5.991,5.991,0,0,1-3.371-4.052,16.118,16.118,0,0,1-.436-3.067q-.133-1.969-.131-4.887a36.618,36.618,0,0,1,.207-4.166,9.485,9.485,0,0,1,.74-2.916,6.348,6.348,0,0,1,1.5-1.951,6.59,6.59,0,0,1,2.292-1.269h.037a24.924,24.924,0,0,1,7.159-.719h3.674q5.528,0,7.953,1.1a5.586,5.586,0,0,1,2.065,1.552,6.7,6.7,0,0,1,1.269,2.537,24.067,24.067,0,0,1,.378,3.03q.15,1.973.152,4.887A32.74,32.74,0,0,1,91.6,155.28Zm-2.8-6.212a31.792,31.792,0,0,0-.153-3.333,6.237,6.237,0,0,0-.569-2.2,2.987,2.987,0,0,0-2.385-1.97,27.811,27.811,0,0,0-5.718-.377H76.333a28.428,28.428,0,0,0-5.757.377,3.263,3.263,0,0,0-2.462,1.97,15.175,15.175,0,0,0-.721,5.528v2.084a15.2,15.2,0,0,0,.721,5.53,3.383,3.383,0,0,0,2.5,1.932,27.845,27.845,0,0,0,5.719.377h3.636a27.606,27.606,0,0,0,5.683-.377,3.089,3.089,0,0,0,2.421-1.932,6.262,6.262,0,0,0,.569-2.2,31.8,31.8,0,0,0,.153-3.333Z" transform="translate(-41.608 -138.047)"/><path class="a" d="M163.721,158.4a5.611,5.611,0,0,1-3.711,3.143.035.035,0,0,1-.038.039,14.585,14.585,0,0,1-2.821.53,40.8,40.8,0,0,1-4.261.19h-3.558a40.843,40.843,0,0,1-4.264-.19,15.431,15.431,0,0,1-2.856-.53.107.107,0,0,1-.077-.039,6.077,6.077,0,0,1-2.273-1.212,6.193,6.193,0,0,1-1.478-1.931,10.217,10.217,0,0,1-.776-2.916,30.484,30.484,0,0,1-.246-4.165V138.7c0-.251.1-.38.3-.38h2.386c.229,0,.341.128.341.38v12.612a15.2,15.2,0,0,0,.719,5.53,3.279,3.279,0,0,0,2.5,1.932,27.836,27.836,0,0,0,5.719.377h3.558a27.838,27.838,0,0,0,5.718-.377A3.077,3.077,0,0,0,161,156.845a6.049,6.049,0,0,0,.55-2.177q.13-1.385.132-3.353V138.7a.336.336,0,0,1,.379-.38h2.348c.226,0,.34.128.34.38v12.612A18.256,18.256,0,0,1,163.721,158.4Z" transform="translate(-84.816 -138.211)"/><path class="a" d="M234.044,162.3a.3.3,0,0,1-.34-.34q0-.987.113-2.993c.051-.658.088-1.215.114-1.668s.038-.808.038-1.062a8.238,8.238,0,0,0-.228-2.1,4.228,4.228,0,0,0-.606-1.382,3.2,3.2,0,0,0-1.572-.926,9.224,9.224,0,0,0-2.481-.286H213.707v10.417a.3.3,0,0,1-.342.34h-2.424a.3.3,0,0,1-.34-.34V138.7c0-.251.115-.38.34-.38h16.818q8.065,0,8.066,6.4a8.286,8.286,0,0,1-.416,2.783,3.311,3.311,0,0,1-1.288,1.722,4.463,4.463,0,0,1,2.159,2.234,5.839,5.839,0,0,1,.474,1.667,14.684,14.684,0,0,1,.132,2.007v6.818c0,.227-.09.34-.265.34ZM228.4,141.62H213.707v6.629h14.542q4.506,0,4.508-3.373Q232.757,141.621,228.4,141.62Z" transform="translate(-128.189 -138.211)"/><path class="a" d="M324.476,155.28a10.48,10.48,0,0,1-.758,2.954,6.235,6.235,0,0,1-1.515,1.951,5.916,5.916,0,0,1-2.234,1.192v.039a15.456,15.456,0,0,1-2.841.53,40.167,40.167,0,0,1-4.242.19h-3.672q-5.757,0-7.992-1.061a6,6,0,0,1-3.369-4.052,16.235,16.235,0,0,1-.438-3.067q-.129-1.969-.132-4.887a35.885,35.885,0,0,1,.211-4.166,9.6,9.6,0,0,1,.736-2.916,6.39,6.39,0,0,1,1.5-1.951,6.6,6.6,0,0,1,2.29-1.269h.037a24.926,24.926,0,0,1,7.16-.719h3.672q5.531,0,7.955,1.1A5.59,5.59,0,0,1,322.9,140.7a6.7,6.7,0,0,1,1.27,2.537,24.453,24.453,0,0,1,.378,3.03q.152,1.973.151,4.887A32.75,32.75,0,0,1,324.476,155.28Zm-2.8-6.212a31.976,31.976,0,0,0-.15-3.333,6.258,6.258,0,0,0-.568-2.2,2.991,2.991,0,0,0-2.387-1.97,27.8,27.8,0,0,0-5.717-.377h-3.637a28.427,28.427,0,0,0-5.757.377A3.262,3.262,0,0,0,301,143.54a15.148,15.148,0,0,0-.721,5.528v2.084a15.168,15.168,0,0,0,.721,5.53,3.384,3.384,0,0,0,2.5,1.932,27.856,27.856,0,0,0,5.72.377h3.637a27.564,27.564,0,0,0,5.68-.377,3.1,3.1,0,0,0,2.424-1.932,6.283,6.283,0,0,0,.568-2.2,31.982,31.982,0,0,0,.15-3.333Z" transform="translate(-179.523 -138.047)"/><path class="a" d="M392.624,162.3c-.127,0-.2-.037-.226-.113l-18.142-21.325H373.5v21.1a.3.3,0,0,1-.341.34H370.77a.3.3,0,0,1-.34-.34V138.7c0-.251.113-.38.34-.38h5.266a.435.435,0,0,1,.265.15l16.967,20.189V138.7a.336.336,0,0,1,.379-.38h2.384c.228,0,.341.128.341.38v23.255a.3.3,0,0,1-.341.34Z" transform="translate(-222.843 -138.211)"/><path class="a" d="M440.666,162.3a.3.3,0,0,1-.34-.34V138.7c0-.251.112-.38.34-.38h20.225c.2,0,.3.128.3.38v2.387c0,.251-.1.379-.3.379h-17.5V148.4h16.929c.2,0,.3.128.3.38v2.384c0,.254-.1.379-.3.379H443.394v7.652h17.5q.3,0,.3.34v2.426q0,.34-.3.34Z" transform="translate(-264.237 -138.211)"/></g><g transform="translate(64.142 4.882)"><path class="a" d="M187.79,49.092a71.042,71.042,0,0,1-8.9-11.533c3.587-1.41,6.05-3.009,6.92-7.6q-.643-1.721-2.194-.713c-2.982,8.587-9.739,10.042-15.862,10.225,1.093-4,1.8-8.051,12.712-10.576,1.742-.4-.009-.956-.949-.685-15.158,4.37-25.663,3.593-34.566-1.218,8.9-4.813,19.408-5.59,34.566-1.22.94.27,2.69-.286.949-.685-10.915-2.525-11.618-6.579-12.712-10.574,6.123.181,12.88,1.636,15.862,10.223q1.551,1.007,2.194-.712c-.87-4.6-3.333-6.193-6.92-7.6a70.977,70.977,0,0,1,8.9-11.534,70.8,70.8,0,0,1,8.894,11.534c-3.584,1.41-6.047,3.008-6.919,7.6q.643,1.721,2.193.712c2.984-8.587,9.741-10.041,15.863-10.223-1.092,4-1.8,8.049-12.712,10.574-1.742.4.009.956.948.685,15.158-4.37,25.666-3.593,34.568,1.22-8.9,4.811-19.411,5.588-34.568,1.218-.94-.271-2.69.286-.948.685,10.915,2.525,11.619,6.579,12.712,10.576-6.122-.183-12.878-1.638-15.863-10.225q-1.55-1.007-2.193.713c.872,4.594,3.335,6.193,6.919,7.6a70.86,70.86,0,0,1-8.894,11.533Z" transform="translate(-144.953 -4.882)"/></g></g></svg>