<svg xmlns="http://www.w3.org/2000/svg" width="179.286" height="94.318" viewBox="0 0 179.286 94.318"><defs><style>.a,.b{fill:#3e3e3e;}.b{fill-rule:evenodd;}</style></defs><g transform="translate(-7.712 -6.297)"><g transform="translate(7.712 65.675)"><path class="a" d="M7.712,83.987h9.824v.342a5.033,5.033,0,0,0-1.607.342,1.745,1.745,0,0,0-.744.692,1.941,1.941,0,0,0-.283,1.02,2.83,2.83,0,0,0,.074.685q.075.3.446,1.3l4.406,11.982L24.1,89.837a10.033,10.033,0,0,0,.893-3.23,3.066,3.066,0,0,0-.179-1.057,1.847,1.847,0,0,0-.476-.759,1.754,1.754,0,0,0-.655-.357,3.369,3.369,0,0,0-.923-.1v-.342h6.624v.342a3.638,3.638,0,0,0-1.422.4,3.988,3.988,0,0,0-1.153,1,7.712,7.712,0,0,0-.782,1.3q-.409.825-1.124,2.553L18.8,104.3h-.625L12.252,89.092a15.285,15.285,0,0,0-1.86-3.8A2.6,2.6,0,0,0,9.3,84.56a4.756,4.756,0,0,0-1.585-.231Z" transform="translate(-7.712 -83.987)"/><path class="a" d="M56.763,104.3H46.983v-.342a4.482,4.482,0,0,0,1.846-.447,1.807,1.807,0,0,0,.923-1.607,4.682,4.682,0,0,0-.417-1.637l-.253-.625-1.428-3.513H41.1l-.774,2.054-.372.923a7.371,7.371,0,0,0-.67,2.575,2.208,2.208,0,0,0,.245,1.026,2.127,2.127,0,0,0,.663.774,3,3,0,0,0,1.488.477v.342H35.016v-.342a3.089,3.089,0,0,0,1.385-.387,3.984,3.984,0,0,0,1.161-1.1,8.423,8.423,0,0,0,.93-1.57q.454-.961,1.2-2.881l5.448-14.036h.848l6.475,15.644a24.507,24.507,0,0,0,1.161,2.531,3.758,3.758,0,0,0,.938,1.146,2.644,2.644,0,0,0,.819.409,8.168,8.168,0,0,0,1.384.246Zm-9.347-8.782-3.126-7.71-2.947,7.71Z" transform="translate(-14.148 -83.987)"/><path class="a" d="M64.015,104.3v-.357a3.078,3.078,0,0,0,2.322-.848,2.526,2.526,0,0,0,.632-1.213,10.856,10.856,0,0,0,.171-2.255V88.661a10.586,10.586,0,0,0-.186-2.329,2.455,2.455,0,0,0-.692-1.228,2.623,2.623,0,0,0-.93-.566,4.6,4.6,0,0,0-1.317-.209v-.342h9.511v.342a5.1,5.1,0,0,0-1.34.223,2.452,2.452,0,0,0-1.607,1.8,10.79,10.79,0,0,0-.179,2.307v8.588q0,1.98.1,2.947a4.8,4.8,0,0,0,.4,1.578,3.287,3.287,0,0,0,1.548,1.57,6.286,6.286,0,0,0,2.724.5,8.312,8.312,0,0,0,2.984-.469,4.576,4.576,0,0,0,1.987-1.451,6.106,6.106,0,0,0,.856-1.519,13.8,13.8,0,0,0,.618-2.233l.358.03-.194,6.1Z" transform="translate(-20.983 -83.987)"/><path class="a" d="M104.34,83.987l.253,4.912-.342.015a6.381,6.381,0,0,0-.64-2.069,4.45,4.45,0,0,0-1.295-1.444,4.349,4.349,0,0,0-1.652-.737,11.908,11.908,0,0,0-2.531-.216H94.725v8.931h.893a8.66,8.66,0,0,0,2.039-.179,2.282,2.282,0,0,0,1.117-.64,2.713,2.713,0,0,0,.618-1.02,8.928,8.928,0,0,0,.335-1.734l.342.015-.06,7.978h-.342a8.148,8.148,0,0,0-.394-1.846,3.5,3.5,0,0,0-.721-1.191,2.621,2.621,0,0,0-1.162-.7,6.194,6.194,0,0,0-1.816-.223h-.848v3.408q0,2.04.1,2.97a4.879,4.879,0,0,0,.4,1.555,3.206,3.206,0,0,0,1.54,1.57,6.337,6.337,0,0,0,2.732.5,8.547,8.547,0,0,0,2.991-.454,4.469,4.469,0,0,0,1.965-1.407,5.5,5.5,0,0,0,.871-1.458,12.936,12.936,0,0,0,.618-2.158l.342.015L106.1,104.3H88.339v-.342a4.818,4.818,0,0,0,1.376-.238,2.5,2.5,0,0,0,.945-.625,2.526,2.526,0,0,0,.632-1.213,10.8,10.8,0,0,0,.171-2.255V88.661a10.8,10.8,0,0,0-.171-2.255,2.519,2.519,0,0,0-.632-1.213,2.39,2.39,0,0,0-.93-.626,4.9,4.9,0,0,0-1.392-.238v-.342Z" transform="translate(-26.716 -83.987)"/><path class="a" d="M116.925,86.681V99.631a10.792,10.792,0,0,0,.171,2.263,2.5,2.5,0,0,0,1.577,1.83,4.818,4.818,0,0,0,1.376.238v.342h-6.861v-.342a4.818,4.818,0,0,0,1.376-.238,2.5,2.5,0,0,0,.945-.625,2.526,2.526,0,0,0,.632-1.213,10.857,10.857,0,0,0,.171-2.255V88.646a10.754,10.754,0,0,0-.171-2.24,2.519,2.519,0,0,0-.632-1.213,2.387,2.387,0,0,0-.931-.626,4.9,4.9,0,0,0-1.391-.238v-.342h5.73l12.087,15.42V88.661a10.842,10.842,0,0,0-.171-2.262,2.507,2.507,0,0,0-1.578-1.831,4.853,4.853,0,0,0-1.377-.238v-.342h6.862v.342a3.077,3.077,0,0,0-2.322.864,2.513,2.513,0,0,0-.633,1.213,10.754,10.754,0,0,0-.171,2.24V104.3h-.67Z" transform="translate(-32.573 -83.987)"/><path class="a" d="M151.165,84.449q-.938,0-2.009.06a11.061,11.061,0,0,0-3.416.58,3.993,3.993,0,0,0-1.853,1.593,8.262,8.262,0,0,0-1.027,2.828l-.342-.03.268-5.492h20.139l.268,5.492-.342.03a7.174,7.174,0,0,0-1.257-3.133,4.733,4.733,0,0,0-2.493-1.526,18.9,18.9,0,0,0-4.689-.4V99.631a10.8,10.8,0,0,0,.171,2.255,2.52,2.52,0,0,0,.633,1.213,2.491,2.491,0,0,0,.945.625,4.823,4.823,0,0,0,1.377.238v.342h-9.512v-.342a4.87,4.87,0,0,0,1.392-.238,2.5,2.5,0,0,0,.945-.625,2.528,2.528,0,0,0,.633-1.205,10.857,10.857,0,0,0,.17-2.263Z" transform="translate(-39.486 -83.987)"/><path class="a" d="M180.21,83.987v.342a4.853,4.853,0,0,0-1.377.238,2.5,2.5,0,0,0-.945.626,2.789,2.789,0,0,0-.715,1.652,16.313,16.313,0,0,0-.089,1.816v10.97a12.449,12.449,0,0,0,.119,1.95,3.171,3.171,0,0,0,.387,1.146,2.41,2.41,0,0,0,1,.886,4.434,4.434,0,0,0,1.623.35v.342H170.7v-.342a4.664,4.664,0,0,0,1.392-.246,2.525,2.525,0,0,0,.93-.618,2.413,2.413,0,0,0,.641-1.205,11.361,11.361,0,0,0,.164-2.263V88.661a11.357,11.357,0,0,0-.164-2.262,2.41,2.41,0,0,0-.641-1.205,2.366,2.366,0,0,0-.938-.626,4.937,4.937,0,0,0-1.384-.238v-.342Z" transform="translate(-46.128 -83.987)"/><path class="a" d="M188.787,86.681V99.631a10.846,10.846,0,0,0,.171,2.263,2.507,2.507,0,0,0,1.578,1.83,4.813,4.813,0,0,0,1.377.238v.342h-6.862v-.342a4.824,4.824,0,0,0,1.377-.238,2.5,2.5,0,0,0,.945-.625,2.526,2.526,0,0,0,.633-1.213,10.856,10.856,0,0,0,.171-2.255V88.646a10.754,10.754,0,0,0-.171-2.24,2.52,2.52,0,0,0-.633-1.213,2.379,2.379,0,0,0-.93-.626,4.9,4.9,0,0,0-1.392-.238v-.342h5.731l12.087,15.42V88.661A10.842,10.842,0,0,0,202.7,86.4a2.511,2.511,0,0,0-1.578-1.831,4.858,4.858,0,0,0-1.377-.238v-.342H206.6v.342a3.076,3.076,0,0,0-2.322.864,2.513,2.513,0,0,0-.633,1.213,10.7,10.7,0,0,0-.171,2.24V104.3h-.67Z" transform="translate(-49.511 -83.987)"/><path class="a" d="M235.582,104.3H225.8v-.342a4.478,4.478,0,0,0,1.845-.447,1.807,1.807,0,0,0,.923-1.607,4.678,4.678,0,0,0-.417-1.637l-.254-.625-1.428-3.513h-6.549l-.774,2.054-.371.923a7.359,7.359,0,0,0-.67,2.575,2.208,2.208,0,0,0,.245,1.026,2.142,2.142,0,0,0,.663.774,3,3,0,0,0,1.488.477v.342h-6.668v-.342a3.086,3.086,0,0,0,1.384-.387,3.984,3.984,0,0,0,1.161-1.1,8.424,8.424,0,0,0,.93-1.57q.454-.961,1.2-2.881l5.448-14.036h.848l6.474,15.644a24.641,24.641,0,0,0,1.162,2.531,3.757,3.757,0,0,0,.937,1.146,2.653,2.653,0,0,0,.819.409,8.18,8.18,0,0,0,1.385.246Zm-9.348-8.782-3.125-7.71-2.947,7.71Z" transform="translate(-56.296 -83.987)"/></g><g transform="translate(74.175 6.297)"><path class="b" d="M103.062,10.913c-.851,1.23-1.885,1.809-2.808,2.962-1.6,1.994.111,2.444-.733,4.727-3.39,9.181-3.8,5.42-4.68,7.342-.813,8.5,1.477,4.73,2.829,8.486a33.753,33.753,0,0,0,1.681,4.142c1.1,2.291-1.4,4,3.257,7.3,1.994,1.413,2.408-.3,4.961.85,2.666,1.2,4.529,1.36,5.768,2.95,1.518,1.948.687,1.546,5.546,1.544,2.177,0,1.764-1.143,2.758-2.146.812-.82,1.636-.733,2.829-1.139a29.208,29.208,0,0,0,2.713-1.329c1.843-.786,2.015-.066,4.072-.229a14.85,14.85,0,0,0,3.736-3.692c.128-4.806-.374-2.28,1.25-6.295,1.471-3.633.19-2.7,3.35-4.6.766-9.524-1.319-4.581-2.983-9.713-1.315-4.054-1.924-2-1.54-7.045a23.916,23.916,0,0,0-2.84-3.164c-1.924-1.78-2.533-.052-4.684-.768-1.214-.4-2.653-1.319-4.317-1.882-2.164-.731-1.708-1.228-3.173-2.871-10.448-.293-2.8.869-9.871,3.237-4.62,1.548-1.522,1.73-7.122,1.334M114.809,7.1l4.8,0c1.328,1.291,1.022,2.113,2.983,2.8a44.019,44.019,0,0,1,4.1,1.682c2.309,1.016,3.13-.142,4.522.566.58.3,2.168,2.194,2.941,2.868.068,1.8-.514,2.019.119,3.834.3.854.978,1.8,1.334,2.727,1.213,3.158.657,3.063,3.264,4.59l0,5.222c-3.2,1.678-2.025,1.432-3.363,4.632-1.684,4.025-1.253,1.792-1.316,6.7-.955.638-2.24,2.291-2.862,2.605-1.788.9-2.1-.613-4.477.572a25.4,25.4,0,0,1-4.139,1.708c-2.763.925-1.262,1.042-3.106,2.683l-4.731.071c-3.71-4.245-.8-1.514-5.985-3.895-5.348-2.455-4.026.66-6.992-2.46-3.267-3.438.273-1.236-2.334-6.757-.56-1.186-.885-2.56-1.389-3.7-.551-1.246-1.614-1.685-2.493-2.52L95.6,26.221c3.691-2.262,1.954-1.782,3.909-5.829,2.876-5.955-1.079-3.726,2.408-7.042,2.988-2.842,2.771-.229,6.829-2.26,1.238-.62,2.6-.866,3.721-1.382C113.67,9.158,114.123,8.065,114.809,7.1Z" transform="translate(-94.671 -6.297)"/><path class="b" d="M116.83,14.539c-21.344,3.637-16.458,35.17,5.041,32.184a16.343,16.343,0,0,0,13.478-18.814c-1.388-7.815-8.831-15.02-18.518-13.37m-12.95,18.022A15.5,15.5,0,0,1,134.629,28.6a15.6,15.6,0,0,1-13.415,17.408C112.267,46.99,104.633,40.366,103.879,32.561Z" transform="translate(-96.651 -8.183)"/><g transform="translate(10.987 13.718)"><path class="a" d="M109.046,24.246H119.58v.367a5.432,5.432,0,0,0-1.723.367,1.876,1.876,0,0,0-.8.742,2.078,2.078,0,0,0-.3,1.094,3.022,3.022,0,0,0,.079.734q.08.32.479,1.389l4.723,12.848,4.581-11.268a10.755,10.755,0,0,0,.958-3.463,3.3,3.3,0,0,0-.192-1.133,1.988,1.988,0,0,0-.511-.814,1.913,1.913,0,0,0-.7-.383,3.636,3.636,0,0,0-.99-.112v-.367h7.1v.367a3.914,3.914,0,0,0-1.525.431,4.265,4.265,0,0,0-1.237,1.069,8.327,8.327,0,0,0-.838,1.4q-.439.886-1.205,2.737l-6.543,15.784h-.67L113.914,29.72a16.414,16.414,0,0,0-1.995-4.07,2.787,2.787,0,0,0-1.173-.79,5.1,5.1,0,0,0-1.7-.248Z" transform="translate(-109.046 -24.246)"/></g></g><g transform="translate(80.057 96.699)"><path class="a" d="M102.368,128.5v-3.895h2.3a1.331,1.331,0,0,1,.87.245.888.888,0,0,1,.294.725.92.92,0,0,1-.092.417.757.757,0,0,1-.261.3,1.3,1.3,0,0,1,.469.441,1.132,1.132,0,0,1,.158.6,1.087,1.087,0,0,1-.355.856,1.393,1.393,0,0,1-.961.316Zm.483-2.356h1.863a.7.7,0,0,0,.469-.14.5.5,0,0,0,.163-.4.52.52,0,0,0-.157-.413.7.7,0,0,0-.475-.138h-1.863Zm0,1.908h2.039a.693.693,0,0,0,.522-.2.84.84,0,0,0,0-1.067.691.691,0,0,0-.522-.2h-2.039Z" transform="translate(-102.368 -124.586)"/><path class="a" d="M111.66,128.5v-3.895h2.233a1.3,1.3,0,0,1,.9.287,1.009,1.009,0,0,1,.325.8,1.086,1.086,0,0,1-.925,1.1l.974,1.711h-.536l-.974-1.7h-1.51v1.7Zm.483-2.159h1.718a.834.834,0,0,0,.556-.162.594.594,0,0,0,.189-.476.612.612,0,0,0-.189-.478.764.764,0,0,0-.531-.171h-1.743Z" transform="translate(-104.558 -124.586)"/><path class="a" d="M119.715,128.5l1.908-3.895h.4l1.93,3.895h-.526l-.529-1.048h-2.152l-.515,1.048Zm1.256-1.5h1.714l-.861-1.725Z" transform="translate(-106.457 -124.586)"/><path class="a" d="M128.4,128.5l2.628-3.447h-2.406v-.448h3.288l-2.572,3.447H131.9v.448Z" transform="translate(-108.504 -124.586)"/><path class="a" d="M137.154,128.5v-3.916h.49V128.5Z" transform="translate(-110.567 -124.579)"/><path class="a" d="M142.476,128.5v-3.895h.483v3.447H145.5v.448Z" transform="translate(-111.822 -124.586)"/></g></g></svg>