<svg xmlns="http://www.w3.org/2000/svg" width="172" height="30.062" viewBox="0 0 172 30.062"><defs><style>.a{fill:#3e3e3e;}</style></defs><g transform="translate(-9.567 -5.477)"><path class="a" d="M281.941,7.443c-.411.046-.747.985-1.056,1.552-.1.188-.011.48-.011.724V32.3c-.564-.728-.865-1.094-1.142-1.477q-8.15-11.288-16.322-22.56c-.344-.472-1.049-.681-1.586-1.012a5.545,5.545,0,0,0-.645,1.737c-.045,6.989-.029,13.977-.029,20.966,0,1.71-.077,3.427.049,5.128.039.524.631,1.008.969,1.51a12.961,12.961,0,0,0,1-1.542,2.582,2.582,0,0,0,.024-1.015q0-10.337,0-20.673V11.914a5.076,5.076,0,0,1,1.37,1.395q8.005,11.121,16.033,22.226c.345.474,1.052.684,1.591,1.017a5.109,5.109,0,0,0,.728-1.729c.048-8.6.035-17.2.035-25.8C282.942,8.263,282.917,7.333,281.941,7.443Z" transform="translate(-161.58 -1.142)"/><path class="a" d="M78.627,5.926c-5.905,1.55-10.078,6.76-10.729,13.4-.845,8.613,6.077,16.308,14.53,16.153,7.657-.141,13.8-6.77,13.931-14.955-.13-1.064-.2-2.138-.4-3.189A14.157,14.157,0,0,0,78.627,5.926ZM94.146,20.6a13.069,13.069,0,0,1-4.86,10.231,11.513,11.513,0,0,1-15.774-1.209,13.379,13.379,0,0,1,.464-18.758A11.125,11.125,0,0,1,85.651,8.2c4.636,1.525,7.211,4.968,8.258,9.639a12.56,12.56,0,0,1,.23,1.594C94.175,19.816,94.146,20.209,94.146,20.6Z" transform="translate(-37.422)"/><path class="a" d="M365.491,10.034c.659.454,1.4,1.043,2.019.138.611-.89-.166-1.4-.832-1.854a15.5,15.5,0,0,0-9.822-2.76,15.332,15.332,0,0,0-13.842,10.853,14.874,14.874,0,0,0,5.933,16.367c5.3,3.665,12.973,3.616,17.873-.161a2.173,2.173,0,0,0,.856-1.391q.112-4.907,0-9.818c-.01-.424-.595-1.186-.932-1.2-3.073-.095-6.152-.086-9.226-.018-.332.007-.771.534-.93.916-.085.2.251.749.527.9a2.869,2.869,0,0,0,1.281.187c2.34.015,4.68.007,7.225.007,0,2.859.024,5.489-.029,8.117a1.559,1.559,0,0,1-.641,1.017c-4.229,3.067-10.885,2.762-15.374-.672a12.728,12.728,0,0,1-4.336-14.414A13.387,13.387,0,0,1,365.491,10.034Z" transform="translate(-213.81 -0.038)"/><path class="a" d="M458.125,34.165c-4-.075-8.008-.046-12.012-.048h-1.6V22.428h7c1.66,0,3.325.063,4.978-.047.436-.029.836-.594,1.252-.913a8.907,8.907,0,0,0-1.279-1.074c-.256-.148-.668-.027-1.01-.027H444.475V8.648h1.646c3.907,0,7.813,0,11.719.006.828,0,1.761-.042,1.622-1.095-.052-.391-1.047-.926-1.62-.936-4.589-.077-9.18-.023-13.77-.057-1.224-.009-1.854.408-1.75,1.7.043.534,0,1.073,0,1.611q0,12.232,0,24.464c0,.931.013,1.835,1.294,1.836,4.883,0,9.767.028,14.648-.049.425-.007.839-.689,1.259-1.057C459.058,34.758,458.6,34.173,458.125,34.165Z" transform="translate(-277.957 -0.7)"/><path class="a" d="M190.642,16.9q0-4.248,0-8.5c0-.76-.043-1.687-1.03-1.531-.421.067-.729,1.011-1.028,1.587-.1.191-.011.48-.011.724-.006,5.176,0,10.352-.023,15.528a9.146,9.146,0,0,1-2.319,6.022,9.845,9.845,0,0,1-17.393-6.265c-.055-5.322-.016-10.645-.014-15.967,0-.821-.036-1.708-1.124-1.674-1.03.032-.952.941-.952,1.667,0,5.371-.037,10.743.033,16.113a11.916,11.916,0,0,0,23.825.2c.085-2.634.014-5.273.014-7.909Z" transform="translate(-100.952 -0.865)"/><path class="a" d="M24.451,34.241c-4.192-.046-8.386-.021-12.789-.021V32.551q0-8.646-.006-17.292c0-2.393.05-4.789-.049-7.179-.019-.463-.629-.9-.966-1.351-.35.446-.713.883-1.041,1.345-.069.1-.01.286-.01.432,0,8.646.022,17.292-.018,25.938-.006,1.418.543,1.882,1.915,1.865,4.3-.054,8.6,0,12.9-.039.921-.009,2.416.5,2.4-1.061C26.772,33.762,25.328,34.25,24.451,34.241Z" transform="translate(0 -0.804)"/></g></svg>