<svg xmlns="http://www.w3.org/2000/svg" width="148.919" height="61.121" viewBox="0 0 148.919 61.121"><defs><style>.a{fill:#3e3e3e;}</style></defs><g transform="translate(-16.361 -8.107)"><g transform="translate(16.361 8.107)"><path class="a" d="M16.361,20.944q0-7.967,2-10.4t6.293-2.435q4.919,0,6.393,4.5.773,2.348.774,8.342V39.649a33.019,33.019,0,0,1-.9,8.791,5.932,5.932,0,0,1-4.471,4.42L31,61.027l-2.447,1.3-5.295-9.24a6.533,6.533,0,0,1-4.6-2.048,8.934,8.934,0,0,1-1.6-3.371,31.835,31.835,0,0,1-.7-8.017Zm11.738-.3a24.515,24.515,0,0,0-.762-7.368,3.008,3.008,0,0,0-3.109-2.123,3.249,3.249,0,0,0-3.247,2.185,20.944,20.944,0,0,0-.9,7.28v19.03q0,6.068.624,7.767a4.246,4.246,0,0,0,1.386,2.173,3.761,3.761,0,0,0,2.011.475,3.694,3.694,0,0,0,2-.475,4.286,4.286,0,0,0,1.374-2.16q.624-1.686.624-7.779Z" transform="translate(-16.361 -8.107)"/><path class="a" d="M105.77,9.831h3.721V42.5q0,6.194-1.573,9T101.8,54.31q-4.546,0-6.157-2.822T94.032,42.5V9.831h3.721V42.372a29.363,29.363,0,0,0,.4,6.093,3.343,3.343,0,0,0,3.5,2.772,3.677,3.677,0,0,0,3.184-1.286q.936-1.286.936-7.555Z" transform="translate(-69.279 -9.282)"/><path class="a" d="M173.74,9.831h11.613v2.9h-7.892V29.91h7.417v3.022h-7.417V50.838h7.817v2.947H173.74Z" transform="translate(-123.584 -9.282)"/><path class="a" d="M236.522,9.831h6.419q3.945,0,5.731,1.349t2.235,4.745a31.927,31.927,0,0,1,.225,3.746v.574a29.247,29.247,0,0,1-.549,6.518,5.357,5.357,0,0,1-2.273,3.371,5.37,5.37,0,0,1,2.685,3.734,27.831,27.831,0,0,1,.737,6.98v.774q-.1,6.419-1.649,9.29t-6.019,2.872h-7.542ZM243.04,13.1h-2.8V28.711h3.346a4.785,4.785,0,0,0,2.31-.374,2.066,2.066,0,0,0,.812-.874q.7-1.573.7-6.181a22.018,22.018,0,0,0-.462-5.857,3.62,3.62,0,0,0-1.236-1.786A4.9,4.9,0,0,0,243.04,13.1Zm1.224,18.606h-4.021v18.88h3.946a3.047,3.047,0,0,0,2.672-1.2,7.324,7.324,0,0,0,1-3.746q.15-2.547.15-4.345V39.226a15.873,15.873,0,0,0-.761-5.607A2.917,2.917,0,0,0,244.264,31.708Z" transform="translate(-166.358 -9.282)"/><path class="a" d="M313.094,9.831h11.613v2.9h-7.892V29.91h7.417v3.022h-7.417V50.838h7.817v2.947H313.094Z" transform="translate(-218.527 -9.282)"/><path class="a" d="M375.878,9.831H379.6V50.838h7.792v2.947H375.878Z" transform="translate(-261.302 -9.282)"/><path class="a" d="M432.09,9.831h3.8L443.7,53.785h-3.6l-1.448-8.916h-8.791l-1.324,8.916h-3.522ZM438.159,41.8l-4.046-24.874h-.05L430.342,41.8Z" transform="translate(-294.784 -9.282)"/></g><g transform="translate(41.58 62.791)"><path class="a" d="M96.613,180.155l1.939,5.17,1.948-5.17h1.12v6.152h-.775v-5.119h-.017l-1.922,5.119h-.7l-1.922-5.119h-.017v5.119h-.775v-6.152Z" transform="translate(-95.493 -180.008)"/><path class="a" d="M124.636,181.707a3.051,3.051,0,0,1,.556-1.03,2.717,2.717,0,0,1,.922-.715,3.216,3.216,0,0,1,2.568,0,2.716,2.716,0,0,1,.922.715,3.057,3.057,0,0,1,.556,1.03,4.05,4.05,0,0,1,0,2.421,3.049,3.049,0,0,1-.556,1.03,2.663,2.663,0,0,1-.922.711,3.266,3.266,0,0,1-2.568,0,2.663,2.663,0,0,1-.922-.711,3.043,3.043,0,0,1-.556-1.03,4.05,4.05,0,0,1,0-2.421Zm.754,2.128a2.5,2.5,0,0,0,.379.815,1.941,1.941,0,0,0,.664.582,2.234,2.234,0,0,0,1.93,0,1.944,1.944,0,0,0,.664-.582,2.494,2.494,0,0,0,.379-.815,3.555,3.555,0,0,0,0-1.835,2.492,2.492,0,0,0-.379-.814,1.944,1.944,0,0,0-.664-.582,2.228,2.228,0,0,0-1.93,0,1.941,1.941,0,0,0-.664.582,2.5,2.5,0,0,0-.379.814,3.555,3.555,0,0,0,0,1.835Z" transform="translate(-115.222 -179.695)"/><path class="a" d="M154.734,180.155a3.068,3.068,0,0,1,2.189.724,2.9,2.9,0,0,1,.767,2.206,4.971,4.971,0,0,1-.172,1.374,2.571,2.571,0,0,1-.534,1.008,2.319,2.319,0,0,1-.922.625,3.7,3.7,0,0,1-1.327.215h-2.111v-6.152Zm.069,5.463a3.428,3.428,0,0,0,.345-.021,1.937,1.937,0,0,0,.439-.1,2,2,0,0,0,.461-.236,1.561,1.561,0,0,0,.409-.422,2.349,2.349,0,0,0,.3-.668,3.5,3.5,0,0,0,.117-.969,4.1,4.1,0,0,0-.108-.986,1.889,1.889,0,0,0-.353-.741,1.551,1.551,0,0,0-.633-.466,2.52,2.52,0,0,0-.957-.159h-1.379v4.774Z" transform="translate(-134.416 -180.008)"/><path class="a" d="M179.231,180.155l2.4,6.152h-.9l-.672-1.853h-2.6l-.69,1.853h-.836l2.4-6.152Zm.569,3.61-1.025-2.869h-.018l-1.042,2.869Z" transform="translate(-150.296 -180.008)"/><path class="a" d="M219.022,180.155a1.91,1.91,0,0,1,1.409.478,2.122,2.122,0,0,1,0,2.684,1.873,1.873,0,0,1-1.409.474h-1.878v2.516h-.819v-6.152Zm-.276,2.947a1.459,1.459,0,0,0,1.021-.285,1.081,1.081,0,0,0,.323-.844,1.069,1.069,0,0,0-.323-.84,1.505,1.505,0,0,0-1.021-.289h-1.6V183.1Z" transform="translate(-177.816 -180.008)"/><path class="a" d="M241.208,180.155v5.463h3.257v.689h-4.076v-6.152Z" transform="translate(-194.211 -180.008)"/><path class="a" d="M266.174,185.855a2.521,2.521,0,0,1-1.792.59,2.789,2.789,0,0,1-1.857-.564,2.226,2.226,0,0,1-.668-1.8v-3.929h.818v3.929a1.67,1.67,0,0,0,.44,1.254,1.747,1.747,0,0,0,1.267.426,1.58,1.58,0,0,0,1.194-.426,1.745,1.745,0,0,0,.41-1.254v-3.929h.819v3.929A2.316,2.316,0,0,1,266.174,185.855Z" transform="translate(-208.838 -180.008)"/><path class="a" d="M290.355,180.682a1.738,1.738,0,0,0-1.047-.3,2.505,2.505,0,0,0-.508.052,1.342,1.342,0,0,0-.444.173.9.9,0,0,0-.31.323,1,1,0,0,0-.117.5.641.641,0,0,0,.168.461,1.25,1.25,0,0,0,.448.289,3.787,3.787,0,0,0,.633.185q.353.074.72.16t.719.2a2.361,2.361,0,0,1,.633.314,1.5,1.5,0,0,1,.448.5,1.75,1.75,0,0,1-.052,1.6,1.809,1.809,0,0,1-.564.569,2.456,2.456,0,0,1-.771.318,3.743,3.743,0,0,1-.848.1,3.613,3.613,0,0,1-.978-.129,2.424,2.424,0,0,1-.81-.392,1.854,1.854,0,0,1-.552-.672,2.162,2.162,0,0,1-.2-.969h.775a1.393,1.393,0,0,0,.151.668,1.373,1.373,0,0,0,.4.461,1.664,1.664,0,0,0,.573.267,2.624,2.624,0,0,0,.672.086,3.068,3.068,0,0,0,.556-.052,1.644,1.644,0,0,0,.5-.177.946.946,0,0,0,.5-.892.771.771,0,0,0-.168-.517,1.233,1.233,0,0,0-.448-.323,3.287,3.287,0,0,0-.634-.2l-.719-.159c-.244-.054-.484-.118-.72-.19a2.583,2.583,0,0,1-.633-.284,1.356,1.356,0,0,1-.448-.457,1.343,1.343,0,0,1-.168-.7,1.629,1.629,0,0,1,.189-.806,1.655,1.655,0,0,1,.5-.56,2.256,2.256,0,0,1,.715-.327,3.134,3.134,0,0,1,.823-.108,3.3,3.3,0,0,1,.879.112,2,2,0,0,1,.711.353,1.715,1.715,0,0,1,.483.608,2.175,2.175,0,0,1,.194.874h-.775A1.284,1.284,0,0,0,290.355,180.682Z" transform="translate(-225.914 -179.695)"/><path class="a" d="M328.479,180.682a1.737,1.737,0,0,0-1.047-.3,2.511,2.511,0,0,0-.509.052,1.343,1.343,0,0,0-.443.173.9.9,0,0,0-.31.323,1,1,0,0,0-.117.5.641.641,0,0,0,.169.461,1.247,1.247,0,0,0,.448.289,3.786,3.786,0,0,0,.633.185q.353.074.72.16t.719.2a2.359,2.359,0,0,1,.633.314,1.5,1.5,0,0,1,.448.5,1.75,1.75,0,0,1-.052,1.6,1.812,1.812,0,0,1-.564.569,2.459,2.459,0,0,1-.771.318,3.746,3.746,0,0,1-.849.1,3.611,3.611,0,0,1-.978-.129,2.421,2.421,0,0,1-.81-.392,1.858,1.858,0,0,1-.552-.672,2.163,2.163,0,0,1-.2-.969h.775a1.393,1.393,0,0,0,.151.668,1.373,1.373,0,0,0,.4.461,1.664,1.664,0,0,0,.573.267,2.624,2.624,0,0,0,.672.086,3.062,3.062,0,0,0,.556-.052,1.646,1.646,0,0,0,.5-.177.946.946,0,0,0,.5-.892.773.773,0,0,0-.168-.517,1.233,1.233,0,0,0-.448-.323,3.286,3.286,0,0,0-.634-.2l-.719-.159q-.367-.082-.72-.19a2.584,2.584,0,0,1-.633-.284,1.275,1.275,0,0,1-.616-1.159,1.629,1.629,0,0,1,.189-.806,1.655,1.655,0,0,1,.5-.56,2.25,2.25,0,0,1,.715-.327,3.134,3.134,0,0,1,.823-.108,3.3,3.3,0,0,1,.879.112,2,2,0,0,1,.711.353,1.711,1.711,0,0,1,.483.608,2.175,2.175,0,0,1,.194.874h-.776A1.282,1.282,0,0,0,328.479,180.682Z" transform="translate(-251.888 -179.695)"/><path class="a" d="M351.143,180.155v6.152h-.819v-6.152Z" transform="translate(-269.111 -180.008)"/><path class="a" d="M366.074,180.844h-3.533v-.689h4.5v.689l-3.817,4.774h3.921v.689h-4.894v-.689Z" transform="translate(-277.234 -180.008)"/><path class="a" d="M391.074,180.155v.689h-3.429V182.8h3.2v.689h-3.2v2.129H391.1v.689h-4.274v-6.152Z" transform="translate(-293.98 -180.008)"/></g></g></svg>