<svg xmlns="http://www.w3.org/2000/svg" width="232.935" height="44.433" viewBox="0 0 232.935 44.433"><defs><style>.a{fill:#3e3e3e;}</style></defs><g transform="translate(-35.5 -15.24)"><path class="a" d="M51.935,18.018,35.5,56.641h3.842l5.093-11.969H59.966l5,11.969h5.97L54.951,18.018ZM45.922,41.18l6.349-14.922L58.507,41.18Z" transform="translate(0 -1.825)"/><path class="a" d="M161.812,51.057,145.774,18.018h-3.666V56.641h3.552V30.78l12.667,25.861h4.53l13.07-26.905V56.641h5.518V18.018h-3.651Z" transform="translate(-70.036 -1.825)"/><path class="a" d="M297.6,21.237a20.453,20.453,0,0,0-6.178-4.39l-.05-.022a20.365,20.365,0,0,0-7.585-1.585,19.612,19.612,0,0,0-7.556,1.6,18.7,18.7,0,0,0-6.19,4.392,18.02,18.02,0,0,0-4.224,6.411,21.594,21.594,0,0,0-1.519,7.8,20.626,20.626,0,0,0,1.518,7.8,18.459,18.459,0,0,0,4.2,6.442,17.609,17.609,0,0,0,6.211,4.359,18.692,18.692,0,0,0,7.561,1.66,19.492,19.492,0,0,0,13.813-6,20.731,20.731,0,0,0,5.678-14.266A20.444,20.444,0,0,0,297.6,21.237m-13.813-2.444a14.652,14.652,0,0,1,6.2,1.317,17.933,17.933,0,0,1,5.113,3.516A19.674,19.674,0,0,1,298.526,29a16.331,16.331,0,0,1,1.263,6.445,16.826,16.826,0,0,1-1.272,6.53,17.267,17.267,0,0,1-3.4,5.274,17.937,17.937,0,0,1-5.107,3.641,18.281,18.281,0,0,1-6.219,1.269,18.979,18.979,0,0,1-6.221-1.271,15.5,15.5,0,0,1-5.022-3.615,17.788,17.788,0,0,1-3.487-5.31,16.924,16.924,0,0,1-1.208-6.517,16.7,16.7,0,0,1,4.707-11.837,14.592,14.592,0,0,1,5.044-3.5,15.126,15.126,0,0,1,6.187-1.314" transform="translate(-150.31)"/><path class="a" d="M405.435,35.4h-12.8V21.51H407.34V18.018H387V61.5l5.637-5.634V38.9h12.8Z" transform="translate(-230.914 -1.825)"/><path class="a" d="M444.316,18.018,427.881,56.641h3.843l5.093-11.969h15.53l5,11.969h5.971L447.332,18.018ZM438.3,41.18l6.349-14.922,6.236,14.922Z" transform="translate(-257.773 -1.825)"/><path class="a" d="M560.989,47.381,537.823,18.018h-3.332V56.641h3.553V27.378L561.2,56.641h3.342V18.018h-3.551Z" transform="translate(-327.809 -1.825)"/><path class="a" d="M652.87,18.018l-9.9,16.742-9.531-16.742H626.93L639.14,39.467V61.5l5.635-5.636V38.648l12.2-20.63Z" transform="translate(-388.536 -1.825)"/></g></svg>