<svg xmlns="http://www.w3.org/2000/svg" width="137.285" height="76.917" viewBox="0 0 137.285 76.917"><defs><style>.a{fill:#3e3e3e;}</style></defs><g transform="translate(-9.793 -5.417)"><path class="a" d="M10.927,54.888c0-1.105-.06-2.834.018-4.556a7.938,7.938,0,0,0-.859-4.23,1.6,1.6,0,0,1,.058-1.809,5.189,5.189,0,0,0,.8-3.16c-.17-8.1-.248-16.206-.46-24.307-.075-2.86-.443-5.713-.678-8.569a2.462,2.462,0,0,1,2.151-2.813A2.2,2.2,0,0,1,14.1,6.553a2.372,2.372,0,0,0,2.448.87,12.971,12.971,0,0,1,11.665,4.8c4.022,4.852,5.35,10.521,4.886,16.725a25.9,25.9,0,0,1-2.5,9.511c-.535,1.1-1.184,2.145-1.805,3.2-.63,1.073-.641,1.063.352,1.771a17.391,17.391,0,0,1,4.548,4.7,15.5,15.5,0,0,1,2.417,6.793,30.744,30.744,0,0,1-7.04,23.964c-2.214,2.674-5.161,4.078-8.822,3.185a4.935,4.935,0,0,0-3.321.013,2.137,2.137,0,0,1-2.828-1.416,29.249,29.249,0,0,1-1.235-5c-.584-4.078-1.092-8.17-1.5-12.269C11.113,60.78,11.088,58.14,10.927,54.888Zm20.231,5.135a18.673,18.673,0,0,0-1.213-8.689c-.962-2.2-3.381-4.359-6.19-4.058-2.175.233-4.333.639-6.51.841-1.016.095-1.2.51-1.18,1.428.129,4.942.153,9.887.306,14.829a36.345,36.345,0,0,0,1.327,9.7,4.662,4.662,0,0,0,4.513,3.2,4.794,4.794,0,0,0,3.829-1.991,12.4,12.4,0,0,0,1.346-2.049A32.848,32.848,0,0,0,31.158,60.023ZM16.064,29.85c0,1.575,0,2.979,0,4.382q.006,4.079.019,8.158c0,.4-.088.862.548.889a7.791,7.791,0,0,0,6.4-2.243A18.9,18.9,0,0,0,27.881,30a37.478,37.478,0,0,0,.051-6.568,12.338,12.338,0,0,0-2.508-6.988,10.4,10.4,0,0,0-8.4-4.169c-1.545-.026-1.673.12-1.613,1.62C15.624,19.271,15.849,24.645,16.064,29.85Z" transform="translate(0 0)"/><path class="a" d="M294.879,31.665c0,5.237.012,10.475-.013,15.712,0,.78.253.946.988.806,1.205-.23,2.425-.4,3.645-.528a2.429,2.429,0,0,1,2.831,1.783,2.347,2.347,0,0,1-1.645,2.9,17.824,17.824,0,0,1-2.726.562,11.323,11.323,0,0,0-1.363.237c-1.835.592-1.578.2-1.527,2.217.217,8.482.456,16.964.674,25.447a7.368,7.368,0,0,1-.148,1.477,2.427,2.427,0,0,1-2.4,2.136,2.493,2.493,0,0,1-2.5-1.933,8.7,8.7,0,0,1-.267-1.99q-.1-12.069-.151-24.14c0-.234.009-.47-.013-.7-.094-1-.273-1.1-1.276-1.076a16.461,16.461,0,0,1-3.368-.066,2.154,2.154,0,0,1-1.681-2.2,1.971,1.971,0,0,1,1.494-2.118,17.23,17.23,0,0,1,3.071-.565c1.152-.125,1.177-.1,1.188-1.222q.167-18.039.336-36.077a2.392,2.392,0,0,1,2.386-2.672,1.344,1.344,0,0,1,1.523,1.166,26.987,26.987,0,0,1,.988,5.314c.131,5.173.046,10.352.046,15.529Z" transform="translate(-195.806 -3.018)"/><path class="a" d="M419,185.451c2.6-.065,4.114-1.618,5.323-3.533a28.23,28.23,0,0,0,1.758-3.514,2.527,2.527,0,0,1,2.288-1.342c.847-.106,1.379.541,1.725,1.261a4.924,4.924,0,0,1-.183,4.391,14.129,14.129,0,0,1-6.194,6.134,9.747,9.747,0,0,1-8.48.994,9.375,9.375,0,0,1-4.46-3.546,22.6,22.6,0,0,1-3.684-17.69,11.94,11.94,0,0,1,6.427-8.527c1.608-.886,4-.181,5.315,1.51a15.323,15.323,0,0,1,2.232,4.917c.681,2.114-.23,3.914-1.017,5.7a8.319,8.319,0,0,1-5.7,5.156,6.659,6.659,0,0,1-1.03.175c-1.136.1-1.216.13-.945,1.183.6,2.322,1.359,4.6,3.669,5.8A16.913,16.913,0,0,0,419,185.451Zm-2.842-17.359a10.344,10.344,0,0,0-.375-1.842,2.034,2.034,0,0,0-.911-1.14c-.63-.238-1.1.292-1.354.846-.375.82-.624,1.7-1.018,2.51a2.387,2.387,0,0,0,.761,3.27c.568.46.933.525,1.379-.012A7.092,7.092,0,0,0,416.16,168.092Z" transform="translate(-283.455 -110.19)"/><path class="a" d="M115.976,172.239a13.783,13.783,0,0,1,2.5-8.408,12.387,12.387,0,0,1,4.5-3.825c1.469-.769,3.709-.12,4.989,1.362a14.557,14.557,0,0,1,2.388,5.026c.754,2.18-.235,4.02-1.03,5.863a8.215,8.215,0,0,1-5.649,5.088,5.469,5.469,0,0,1-1.205.181c-.7.015-1.029.229-.829,1.007.629,2.446,1.384,4.834,3.848,6.072a5.624,5.624,0,0,0,7.35-1.635,32.4,32.4,0,0,0,2.279-3.924c.658-1.332,1.8-2.208,2.895-1.969,1.054.23,1.92,1.735,1.824,3.174a8.608,8.608,0,0,1-3.361,6.032,36.019,36.019,0,0,1-4.265,3.06,8.012,8.012,0,0,1-2.154.643,8.379,8.379,0,0,1-6.844-.772,12.87,12.87,0,0,1-4.453-4.975A23.98,23.98,0,0,1,115.976,172.239ZM125.454,168a11.212,11.212,0,0,0-.428-1.931c-.158-.4-.583-.924-.932-.959a1.514,1.514,0,0,0-1.147.715c-.468.829-.719,1.776-1.14,2.635a2.436,2.436,0,0,0,.825,3.334c.561.451.93.4,1.322-.081A6.976,6.976,0,0,0,125.454,168Z" transform="translate(-75.832 -110.181)"/><path class="a" d="M228.65,171.466a10.491,10.491,0,0,1-1.332,5.189,19.863,19.863,0,0,1-6.553,7.411,8.024,8.024,0,0,1-4.536,1.447,6.961,6.961,0,0,1-5.588-2.655,2.429,2.429,0,0,1,.815-3.805,1.866,1.866,0,0,1,2.2.144c1.033.823,2.112,1.678,3.566,1.117a8.364,8.364,0,0,0,4.632-3.7,11.915,11.915,0,0,0,.885-3.072c.136-.618-.177-.77-.825-.669a29.2,29.2,0,0,1-4.505.477c-3.184-.009-5.039-1.9-6.249-4.669-2-4.591-.161-8.941,2.626-11.717a23.517,23.517,0,0,1,3.341-2.686,7.449,7.449,0,0,1,6.44-1.022,4,4,0,0,1,2.929,3.286,2.147,2.147,0,0,1-.7,1.653,2.261,2.261,0,0,1-2.614.446,3.582,3.582,0,0,0-3.939.253c-2.491,1.465-3.949,3.5-3.883,6.481.049,2.206,1.225,3.336,3.4,3.07a46.433,46.433,0,0,0,4.572-.819C226.3,166.957,228.705,168.865,228.65,171.466Z" transform="translate(-143.031 -105.365)"/><path class="a" d="M372.571,171.651c-.1,4.35.043,8.71.2,13.061a3.39,3.39,0,0,1-2.481,2.9,1.629,1.629,0,0,1-1.949-.973,9.662,9.662,0,0,1-.812-3.1,165.74,165.74,0,0,1,.987-24.859c.088-.666.2-1.329.3-1.993.17-1.152.581-1.6,1.623-1.741,1.305-.182,2.187.14,2.514,1.208a13.84,13.84,0,0,1,.377,3.632h0" transform="translate(-255.46 -106.764)"/><path class="a" d="M420.26,100.058a3.494,3.494,0,0,1,2.792,1.891,1.476,1.476,0,0,1-.458,1.665c-1.827,1.765-3.628,3.559-5.487,5.289q-3.816,3.552-7.71,7.02a2.334,2.334,0,0,1-3.755-1.07,1.449,1.449,0,0,1,.321-1.683c3.7-3.694,7.365-7.414,11.085-11.083a14.272,14.272,0,0,1,2.279-1.624A5.212,5.212,0,0,1,420.26,100.058Z" transform="translate(-282.634 -67.596)"/><path class="a" d="M373.628,121.075a2.327,2.327,0,0,1-2.44-2.74c.145-1.335.973-2.831,2.5-2.765a2.761,2.761,0,0,1-.064,5.506Z" transform="translate(-258.106 -78.673)"/></g></svg>