<svg xmlns="http://www.w3.org/2000/svg" width="194.933" height="45.608" viewBox="0 0 194.933 45.608"><defs><style>.a{fill:#3e3e3e;}</style></defs><g transform="translate(-13.5 -14.666)"><path class="a" d="M21.247,45.011c-.437,4.5-.563,9-1.062,13.5H20.06c-.375-4.5-.625-8.873-1.062-13.5L16,15.272H13.5l4.873,45.109h3.374L26.62,15.272H24.183Z" transform="translate(0 -0.356)"/><rect class="a" width="2.499" height="45.109" transform="translate(31.807 14.916)"/><path class="a" d="M75.963,17.147H80.4V60.381h2.5V17.147h4.436V15.272H75.963Z" transform="translate(-36.721 -0.356)"/><path class="a" d="M120.577,14.666c-3.5,0-5.5,1.749-5.5,4.874V55.4c0,3.124,2,4.873,5.5,4.873s5.435-1.749,5.435-4.873V19.54C126.012,16.415,124.076,14.666,120.577,14.666Zm2.936,40.673a2.732,2.732,0,0,1-2.936,3.062,2.777,2.777,0,0,1-3-3.062V19.6a2.777,2.777,0,0,1,3-3.062,2.732,2.732,0,0,1,2.936,3.062Z" transform="translate(-59.716)"/><path class="a" d="M164.82,15.272H159.2V60.381h2.5V38.14h2.312c2.5,0,3.437,1.561,3.437,3.248V60.381h2.5V41.388c0-2.748-1.624-3.874-3.874-4.061V37.2c3.186-.25,3.874-2,3.874-4.436V19.459C169.943,16.647,167.819,15.272,164.82,15.272Zm2.624,17.994c0,2-1.187,3-3.311,3H161.7V17.146h2.687c2,0,3.061.875,3.061,2.812Z" transform="translate(-85.652 -0.356)"/><rect class="a" width="2.499" height="45.109" transform="translate(91.914 14.916)"/><path class="a" d="M226.721,15.272l-5.06,45.109h2.249L225.285,47.2l.25-1.874,1.624-14.807c.5-4.5.687-9.122,1.187-13.62h.125c.125,4.561.75,9.122,1.25,13.62l1.562,14.807.187,1.874,1.437,13.183h2.5L230.22,15.272Z" transform="translate(-122.374 -0.356)"/><path class="a" d="M348.793,15.273l-5.06,45.109h2.249L347.357,47.2l.25-1.874,1.625-14.807c.5-4.5.687-9.122,1.187-13.62h.125c.125,4.561.75,9.122,1.249,13.62l1.562,14.807.187,1.874,1.437,13.183h2.5l-5.186-45.109Z" transform="translate(-194.137 -0.357)"/><path class="a" d="M461.707,15.272h-3.5l-5.06,45.109H455.4L456.772,47.2l.25-1.874,1.625-14.807c.5-4.5.687-9.122,1.187-13.62h.125c.125,4.561.75,9.122,1.249,13.62l1.562,14.807.187,1.874,1.437,13.183h2.5Z" transform="translate(-258.46 -0.356)"/><path class="a" d="M300.709,42.45c-.5,4.623-.874,10.622-1.186,16.057H299.4c-.187-5.5-.626-11.309-1.125-16.057l-2.748-27.178H291.4V60.381h2.5V32.391c0-2.811-.312-9.309-.25-15.245h.125c.25,5.186,1.249,14.245,1.625,18.118l2.561,25.116h3.123l2.5-25.366c.438-4.748,1.187-11.933,1.75-17.869h.125c-.125,5.686-.25,12.309-.25,15.245v27.99h2.5V15.272h-4.124Z" transform="translate(-163.372 -0.356)"/><path class="a" d="M393.143,15.272h-5.622V60.381h2.5V38.14h2.311c2.5,0,3.436,1.561,3.436,3.248V60.381h2.5V41.388c0-2.748-1.625-3.874-3.874-4.061V37.2c3.186-.25,3.874-2,3.874-4.436V19.459C398.267,16.647,396.142,15.272,393.143,15.272Zm2.625,17.994c0,2-1.187,3-3.311,3h-2.436V17.146h2.686c2,0,3.061.875,3.061,2.812Z" transform="translate(-219.88 -0.356)"/><rect class="a" width="2.498" height="45.109" transform="translate(186.011 14.916)"/></g></svg>