<svg xmlns="http://www.w3.org/2000/svg" width="235.901" height="52.355" viewBox="0 0 235.901 52.355"><defs><style>.a{fill:#3e3e3e;}.b{fill:#fff;}.c{fill:#3f3f40;}</style></defs><g transform="translate(-7.402 -8.159)"><path class="a" d="M455.627,44.906c-.188,1.069-.315,2.153-.574,3.205a17.44,17.44,0,1,1,.16-7.927c.184.825.278,1.669.414,2.5Zm-17.544,9.141a10.237,10.237,0,1,0-10.217-10.321A10.268,10.268,0,0,0,438.083,54.048Z" transform="translate(-212.325 -9.366)"/><path class="a" d="M114.248,24.727c.308-.407.64-.8.918-1.225,1.231-1.887,2.4-3.814,3.677-5.669a37.994,37.994,0,0,1,4.889-6.217,13.155,13.155,0,0,1,4.855-2.989,11.807,11.807,0,0,1,2.211-.442c2.006-.291,3.889,1.881,3.484,3.514-.732,2.95-1.166,5.972-1.772,8.955-.616,3.034-1.371,6.043-1.916,9.09-.81,4.52-1.8,9.03-1.878,13.642-.053,3.025.124,6.055.226,9.081.028.828.142,1.655.235,2.48a10.419,10.419,0,0,0,1.307,4.025c.522.921.13,1.523-.938,1.541a1.761,1.761,0,0,1-1.765-1.162,18.752,18.752,0,0,1-1.573-8.3c.053-3.229.1-6.467.4-9.679a76.352,76.352,0,0,1,1.293-7.8c.842-4.247,1.774-8.476,2.658-12.716q.711-3.412,1.383-6.834c.335-1.723-.1-2.2-1.844-2.159a3.514,3.514,0,0,0-1.9.675,15.709,15.709,0,0,0-3.565,3.39,89.811,89.811,0,0,0-7.542,10.738,28.115,28.115,0,0,0-2.347,5c-.3.9-.763,1.748-.983,2.682q-1.6,6.785-3.241,13.558a8.278,8.278,0,0,1-.585,1.668,1.166,1.166,0,0,1-.692.426c-.073.022-.281-.264-.367-.44a4.21,4.21,0,0,1-.018-2.665c.487-2.911.987-5.821,1.541-8.72a55.821,55.821,0,0,0,.9-9.136,25.16,25.16,0,0,0-.6-6.158,4.952,4.952,0,0,0-.581-1.425,2.321,2.321,0,0,0-3.267-.843,5.693,5.693,0,0,0-.956.747,44.8,44.8,0,0,0-5.817,6.968A112.928,112.928,0,0,0,89.582,46.417c-.835,1.722-1.868,3.349-2.843,5-.11.187-.429.25-.651.37-.06-.208-.2-.428-.165-.621a6.481,6.481,0,0,1,.4-1.594c.791-1.748,1.68-3.451,2.452-5.207,1.061-2.413,2.052-4.858,3.067-7.291A55.939,55.939,0,0,0,94.7,27.834a20.143,20.143,0,0,0,.566-7.413,4.629,4.629,0,0,0-1.44-2.74,6.669,6.669,0,0,0-4.925-2.064,12.17,12.17,0,0,0-4.149.868,15.754,15.754,0,0,0-5.431,3.352,27.54,27.54,0,0,0-2.58,2.964c-.26.343-.2.929-.3,1.489-1.023-.032-1.267.924-1.7,1.657-.607,1.031-1.169,2.089-1.769,3.17l-.633-.331c.919-1.87,1.832-3.7,2.711-5.544a1.419,1.419,0,0,0,.089-.873,7.206,7.206,0,0,0-1.882-3.639,3.376,3.376,0,0,0-5.548.851,9.791,9.791,0,0,0-.67,6.644,6.985,6.985,0,0,0,3.039,4.525c1.235.845,2.477,1.679,3.717,2.517a7.979,7.979,0,0,1,3.04,3.592,13.688,13.688,0,0,1-.008,10.73c-1.594,3.879-5.5,4.74-8.589,4.076A8.168,8.168,0,0,1,64.013,49.5a1.183,1.183,0,0,1-.3-.712c-.128-2.434-.2-4.872-.35-7.3-.044-.735.548-.649.951-.954.128,1.04.177,2.032.386,2.988A16.416,16.416,0,0,0,65.712,47a4.84,4.84,0,0,0,4.672,3.065,4.027,4.027,0,0,0,3.478-1.849A8.181,8.181,0,0,0,74.78,40.7a7.006,7.006,0,0,0-2.764-3.242c-.982-.724-1.98-1.43-3.009-2.085a10.568,10.568,0,0,1-5.069-9.081,14.841,14.841,0,0,1,1.335-6.949,5.657,5.657,0,0,1,5.876-3.385c1.571.17,3.118.559,4.669.881.13.027.287.3.3.461.089,1.266.146,2.535.222,3.978.228-.305.359-.471.479-.644a16.878,16.878,0,0,1,9.7-6.864,10.489,10.489,0,0,1,6.342-.049,6.474,6.474,0,0,1,4.56,4.916q.287,1.323.506,2.66a10.894,10.894,0,0,1-.34,4.222c-.393,1.707-.855,3.4-1.286,5.1-.021.085-.03.173-.069.409.205-.254.321-.39.429-.533,1.973-2.608,3.891-5.261,5.937-7.811a21.677,21.677,0,0,1,5.027-4.815,8.253,8.253,0,0,1,3.537-1.357,3.2,3.2,0,0,1,3.606,3.013,15.8,15.8,0,0,1-.489,4.328c-.051.268-.119.532-.179.8Z" transform="translate(-28.75 0)"/><path class="a" d="M343.155,59.2A1.689,1.689,0,0,1,343.1,59c-.095-1.589-.095-1.59,1.417-2.034.653-.192,1.306-.381,2.012-.587-.384-1.387-.755-2.732-1.129-4.077-.54-1.937-1.093-3.87-1.612-5.812a.551.551,0,0,0-.646-.489c-2.647.016-5.294.01-7.941.006-.292,0-.512,0-.607.384-.8,3.223-1.614,6.441-2.425,9.661-.022.087-.027.178-.05.333.989.261,1.968.51,2.94.783.287.081.757.19.792.359a6.038,6.038,0,0,1,.006,1.539c0,.053-.207.134-.318.134q-3.97.008-7.94,0a1.016,1.016,0,0,1-.224-.073c0-.493-.023-1.007.017-1.515.01-.127.2-.289.342-.347.581-.238,1.168-.468,1.768-.649a1.014,1.014,0,0,0,.772-.811q3.214-12.087,6.462-24.164c.639-2.388,1.291-4.773,1.9-7.168.12-.47.321-.637.789-.584a9.622,9.622,0,0,0,1.03.007c.5,1.721.988,3.417,1.478,5.115q3.859,13.4,7.709,26.8a.978.978,0,0,0,.733.782c.62.178,1.217.438,1.835.625a.554.554,0,0,1,.465.623c.005,1.368.019,1.368-1.359,1.368h-8.164Zm-.193-15.551-3.9-14.09-.116,0c-1.182,4.677-2.364,9.353-3.56,14.085Z" transform="translate(-164.401 -8.073)"/><path class="a" d="M32.689,57.363v1.789H23.162c0-.531-.027-1.029.018-1.521.012-.136.215-.319.367-.367.983-.311,1.976-.591,3.029-.9l-.7-2.529c-.677-2.435-1.365-4.867-2.019-7.308a.609.609,0,0,0-.717-.542c-2.628.019-5.256.015-7.885,0-.338,0-.536.059-.628.432-.806,3.259-1.63,6.513-2.447,9.77a.877.877,0,0,0,.012.183c.932.249,1.888.507,2.845.759.9.237.9.233.9,1.181v.846H7.408c0-.544-.022-1.057.016-1.567.009-.124.2-.284.335-.34.634-.255,1.275-.5,1.925-.705a.807.807,0,0,0,.6-.63Q13.72,43.031,17.177,30.15c.558-2.082,1.118-4.164,1.671-6.222a.565.565,0,0,1,.092-.034c1.544-.118,1.545-.118,1.965,1.344q4.4,15.289,8.794,30.581a.947.947,0,0,0,.693.747C31.167,56.8,31.925,57.094,32.689,57.363ZM23.013,43.656,19.122,29.6l-.144.009c-1.178,4.665-2.356,9.33-3.547,14.046Z" transform="translate(0 -8.061)"/><path class="a" d="M224.277,66.294l4.284.461a4.154,4.154,0,0,1-.026,1.068c-.049.177-.35.352-.568.407-1.844.461-3.7.892-5.544,1.337-.716.173-1.428.361-2.216.561V66.638c-1.365.879-2.627,1.779-3.97,2.537a7.434,7.434,0,0,1-7.614-.074,3.766,3.766,0,0,1-1.834-3.01,4.913,4.913,0,0,1,2.906-5.591,53.562,53.562,0,0,1,7.858-3c.785-.266,1.543-.615,2.3-.956a.617.617,0,0,0,.337-.418c0-1.8.026-3.612-.082-5.411-.144-2.411-2.985-3.561-5-2.617a4.2,4.2,0,0,0-2.465,3.785c-.045.568-.007,1.142-.007,1.752l-4.049.709c.064-1.124.122-2.244.195-3.363a.983.983,0,0,1,.524-.834c2.132-1.288,4.223-2.645,6.377-3.893a6.335,6.335,0,0,1,3.371-.955,4.827,4.827,0,0,1,4.542,3.2,11.346,11.346,0,0,1,.675,3.909q.012,6.567,0,13.134Zm-4.071-8.441c-1.483.57-2.908,1.036-4.259,1.66a24.644,24.644,0,0,0-3.51,1.978,3.127,3.127,0,0,0-1.409,3.418,3.074,3.074,0,0,0,2.6,2.542,5.058,5.058,0,0,0,3.345-.434c1.017-.521,1.994-1.122,2.961-1.732a.877.877,0,0,0,.262-.65c.021-1.773.012-3.545.012-5.319C220.206,58.841,220.206,58.364,220.206,57.852Z" transform="translate(-102.404 -19.084)"/><path class="a" d="M384.265,48.692c.109.932.147,1.761.313,2.564a21.068,21.068,0,0,0,.925,3.629,5.073,5.073,0,0,0,3.922,3.328,4.291,4.291,0,0,0,4.5-1.957,8.211,8.211,0,0,0,.874-7.173,7.115,7.115,0,0,0-2.9-3.47c-1.06-.773-2.146-1.513-3.237-2.243a10.394,10.394,0,0,1-4.751-8.68,14.875,14.875,0,0,1,1.327-7.168,5.655,5.655,0,0,1,5.834-3.365c1.588.17,3.153.568,4.725.884a.452.452,0,0,1,.288.311c.144,2.358.269,4.716.4,7.132l-.8.178c-.265-.952-.51-1.872-.778-2.785a6.649,6.649,0,0,0-1.655-2.906,3.392,3.392,0,0,0-5.592.811,9.007,9.007,0,0,0,2.829,11.485c1.137.758,2.277,1.512,3.4,2.3a8.923,8.923,0,0,1,3.608,5.648,13.985,13.985,0,0,1-.705,8.576c-1.6,3.863-5.479,4.748-8.587,4.081a8.071,8.071,0,0,1-4.191-2.126,1.351,1.351,0,0,1-.353-.807c-.131-2.453-.219-4.908-.341-7.361C383.282,48.884,383.909,49.06,384.265,48.692Z" transform="translate(-193.145 -8.201)"/><path class="a" d="M260.027,49.164c-1.18-.169-2.35-.33-3.518-.5-.782-.117-.781-.125-.752-.909a.483.483,0,0,1,.014-.133l8.474-2.321v6.243l.118.048c.212-.346.42-.694.636-1.037q.977-1.545,1.959-3.085c.019-.031.043-.06.065-.09,1.526-2.113,3.143-2.562,5.542-1.537.236.1.468.21.722.325L272.11,50.27a7.132,7.132,0,0,0-.961-.458,14.09,14.09,0,0,0-2.229-.589,2.5,2.5,0,0,0-2.046.81,8.333,8.333,0,0,0-2.487,5.186,14.965,14.965,0,0,0-.133,1.985c-.014,3.1-.006,6.208-.006,9.313v.721l4.763.611v1.686H255.8V67.85l4.223-.6Z" transform="translate(-127.601 -19.081)"/><path class="a" d="M304.377,45.517v2.264q0,9.559-.012,19.118c0,.519.141.684.662.739,1.151.12,2.293.329,3.436.5v1.679H295.991V68.139c.932-.138,1.873-.291,2.819-.413,1.369-.176,1.37-.166,1.37-1.548,0-5.43-.008-10.861.013-16.291,0-.557-.089-.821-.717-.866-.863-.062-1.713-.3-2.576-.372-.542-.047-.709-.262-.645-.761a4.265,4.265,0,0,0,0-.572Z" transform="translate(-148.278 -19.195)"/><path class="a" d="M305.58,27.953a2.189,2.189,0,0,1-2.4-2.305,2.392,2.392,0,0,1,4.781.107A2.158,2.158,0,0,1,305.58,27.953Z" transform="translate(-151.973 -7.826)"/><path class="b" d="M445.715,61.642a10.237,10.237,0,1,1,10.324-10.1A10.272,10.272,0,0,1,445.715,61.642Zm9.447-10.2a9.393,9.393,0,1,0-9.416,9.357A9.4,9.4,0,0,0,455.162,51.442Z" transform="translate(-219.957 -16.961)"/><path class="c" d="M456.091,52.33a9.393,9.393,0,1,1-9.4-9.433A9.4,9.4,0,0,1,456.091,52.33Zm-15.584-.255c.01.177.011.325.028.471a2.442,2.442,0,1,0,4.819-.753,2.382,2.382,0,0,0-3.082-1.82,2.682,2.682,0,0,1-2.751-.632c-.189-.149-.356-.328-.628-.581a2.571,2.571,0,0,0,2.128,2c-.38.7-.407.775-1.084.506a15.9,15.9,0,0,1-1.86-1.009C438.309,51.2,438.77,51.572,440.508,52.074Zm12.5-.01c1.679-.481,2.192-.907,2.378-1.814a16.824,16.824,0,0,1-1.907,1.02c-.659.261-.688.188-.965-.528a2.3,2.3,0,0,0,1.932-1.879c-.153.08-.235.234-.358.341a2.723,2.723,0,0,1-2.92.758,2.186,2.186,0,0,0-2.528.8,2.268,2.268,0,0,0-.3,2.592,2.33,2.33,0,0,0,2.284,1.372C451.96,54.694,452.84,53.715,453.005,52.065Z" transform="translate(-220.886 -17.849)"/><path class="b" d="M441.323,58.27c-1.738-.5-2.2-.874-2.43-1.821a15.9,15.9,0,0,0,1.86,1.009c.677.269.7.2,1.084-.506a2.571,2.571,0,0,1-2.128-2c.272.253.439.432.628.581a2.683,2.683,0,0,0,2.751.632,2.382,2.382,0,0,1,3.082,1.82,2.442,2.442,0,1,1-4.819.753C441.334,58.6,441.333,58.448,441.323,58.27Z" transform="translate(-221.701 -24.045)"/><path class="b" d="M464.37,58.371c-.165,1.65-1.045,2.629-2.389,2.659a2.33,2.33,0,0,1-2.284-1.372,2.268,2.268,0,0,1,.3-2.592,2.186,2.186,0,0,1,2.528-.8,2.723,2.723,0,0,0,2.92-.758c.123-.107.2-.261.358-.341a2.3,2.3,0,0,1-1.932,1.879c.277.717.306.789.965.528a16.827,16.827,0,0,0,1.907-1.02C466.562,57.464,466.049,57.889,464.37,58.371Z" transform="translate(-232.25 -24.155)"/></g></svg>