<svg xmlns="http://www.w3.org/2000/svg" width="138.785" height="63.856" viewBox="0 0 138.785 63.856"><defs><style>.a{fill:#3e3e3e;}</style></defs><g transform="translate(-13.678 -3.266)"><path class="a" d="M376.214,93.885c.105-1.611.292-3.093.283-4.573-.056-9.116-.184-18.23-.218-27.346-.006-1.675.2-3.364,1.944-4.372a4.145,4.145,0,0,1,6.093,2.507,10.622,10.622,0,0,1,.022,2.175h5.628c.822-3.253-.821-6.763-3.059-8.712-2.089-1.82-4.572-2.07-7.213-2.106a8.978,8.978,0,0,0-9.055,9.065q-.032,16.012-.006,32.024v1.338Z" transform="translate(-252.135 -34.04)"/><path class="a" d="M97.032,110.674c0,2.269.022,4.539-.009,6.808a3.77,3.77,0,0,0,1.53,2.995c1.276,1.13,2.786.756,4.241.891a4.081,4.081,0,0,0,4.212-4.129c.084-4.452.046-8.906.015-13.359a4.248,4.248,0,0,0-2.843-3.968,10.851,10.851,0,0,0-2.79-.144c-2.789-.014-4.351,1.556-4.356,4.354Q97.027,107.4,97.032,110.674Z" transform="translate(-58.872 -68.153)"/><path class="a" d="M152.3,60.623V90.865c.136-.057.467-.089.615-.271,3.066-3.756,4.468-8.124,5.24-12.882C158.895,73.137,155.7,63.02,152.3,60.623Z" transform="translate(-97.916 -40.515)"/><path class="a" d="M13.678,55.3c.174-.88.4-1.754.514-2.642a21.538,21.538,0,0,1,7.536-13.673,21.929,21.929,0,0,1,12.746-5.54c1.838-.157,3.688-.174,5.565-.256,0,1.747.1,3.192-.038,4.615-.074.786.14,1.028.83,1.034a29.075,29.075,0,0,0,3.086-.012c2.742-.269,3.972,1.692,4.221,3.991a29.308,29.308,0,0,1,.019,3.343c0,.707-.24.995-1.034.741-4.7-1.5-9.009-.733-12.452,2.844a9.8,9.8,0,0,0-2.722,6.771c-.036,4.632-.019,9.263-.007,13.9.009,3.527,1.7,6.188,4.357,8.336a1.8,1.8,0,0,1,.673.9,34.188,34.188,0,0,1-3.424-.195,23.057,23.057,0,0,1-13.583-7.208A22.448,22.448,0,0,1,14.223,60.9c-.229-1.17-.366-2.359-.545-3.539Z" transform="translate(0 -21.137)"/><path class="a" d="M433.368,121.01v-8.333c-1.593.113-3.128.265-4.665.322a8.808,8.808,0,0,1-8.655-6.626,9.569,9.569,0,0,1-.293-2.509c-.025-5.619-.013-11.238-.013-16.858V85.563h5.623v1.4q0,7.914,0,15.828c0,1.623.243,3.127,1.866,3.982a4.113,4.113,0,0,0,5.045-.455,3.645,3.645,0,0,0,1.067-2.376c.08-7.463.047-14.927.047-22.391,0-1.978,0-1.976,2.042-1.979,1.286,0,2.573-.013,3.86-.02V121.01Z" transform="translate(-286.827 -53.888)"/><path class="a" d="M471.4,54.834c-.97,2.4-2.416,3.045-4.452,2.276a3.009,3.009,0,0,1-1.715-3.205,2.812,2.812,0,0,1,2.659-2.415c2.162-.059,2.529.21,3.508,2.571Z" transform="translate(-318.934 -34.06)"/><path class="a" d="M376.214,93.885h-5.583V92.546q0-16.012.006-32.024a8.978,8.978,0,0,1,9.055-9.065c2.641.036,5.124.286,7.213,2.106,2.238,1.95,3.882,5.459,3.059,8.712h-5.628a10.622,10.622,0,0,0-.022-2.175,4.145,4.145,0,0,0-6.093-2.507c-1.743,1.007-1.95,2.7-1.944,4.372.033,9.116.162,18.23.218,27.346C376.506,90.792,376.319,92.273,376.214,93.885Z" transform="translate(-252.135 -34.04)"/><path class="a" d="M97.032,110.674q0-3.276,0-6.551c0-2.8,1.566-4.368,4.356-4.354a10.851,10.851,0,0,1,2.79.144,4.248,4.248,0,0,1,2.843,3.968c.031,4.453.069,8.907-.015,13.359a4.081,4.081,0,0,1-4.212,4.129c-1.454-.135-2.964.239-4.241-.891a3.77,3.77,0,0,1-1.53-2.995C97.054,115.213,97.032,112.943,97.032,110.674Z" transform="translate(-58.872 -68.153)"/><path class="a" d="M152.3,60.623c3.405,2.4,6.6,12.514,5.855,17.089-.772,4.758-2.174,9.126-5.24,12.882-.148.181-.479.214-.615.271V60.623Z" transform="translate(-97.916 -40.515)"/><g transform="translate(72.904 3.266)"><path class="a" d="M234.865,27.27c-.125-4.4-2.659-7.085-6.642-8.24a13.821,13.821,0,0,0-7.186.172V3.266h-5.407a6.72,6.72,0,0,0-.227,1.227c-.012,15.394-.075,30.788.045,46.18a8.314,8.314,0,0,0,4.415,7.23,10.765,10.765,0,0,0,7.023,1.162,8.709,8.709,0,0,0,6.959-4.644c1.015-1.811.986-3.786,1.022-5.672C235,41.592,235.069,34.425,234.865,27.27Zm-10.53,26.189c-2.522-.428-3.267-2.066-3.289-4.1-.078-6.981-.1-13.965.01-20.945.038-2.395.875-3.491,2.842-3.916,1.923-.415,3.639-.359,4.819,1.754a2.812,2.812,0,0,1,.31,1.306q.018,2.827.016,5.654t0,5.654c0,.9-.008,1.8-.017,2.7s-.019,1.8-.024,2.7c-.01,1.8,0,3.6.08,5.394C229.2,52.42,226.861,53.888,224.335,53.459Z" transform="translate(-215.375 -3.266)"/><path class="a" d="M261.794,113.6l.019-8.354L261.77,116.3C261.775,115.4,261.785,114.5,261.794,113.6Z" transform="translate(-248.147 -75.303)"/><path class="a" d="M261.852,113.6c.009-.9.017-1.8.017-2.7q0-2.827,0-5.654,0,2.827,0,5.654C261.869,111.8,261.861,112.7,261.852,113.6Z" transform="translate(-248.205 -75.303)"/><path class="a" d="M261.869,110.9q0-2.827,0-5.654l-.019,8.354C261.861,112.7,261.869,111.8,261.869,110.9Z" transform="translate(-248.205 -75.303)"/></g><g transform="translate(95.578 18.193)"><path class="a" d="M311.893,62.7c0-3.68-1.931-5.958-4.891-7.652-2.03-1.162-4.276-.841-6.471-.94-1.252-.057-1.308.59-1.232,1.515a7.09,7.09,0,0,1,0,1.824c-.418,2.307-.027,2.652,2.355,2.342,2.276-.3,4.257,1.02,4.55,2.759a18.64,18.64,0,0,1,.037,3.282c-2.474.1-4.809-.158-6.958.357-4.337,1.04-6.683,4.444-6.683,8.948q0,5.535,0,11.07a8.825,8.825,0,0,0,3.9,7.3c1.961,1.482,4.223,1.527,6.531,1.539a9.075,9.075,0,0,0,9.086-9.091C312.064,78.2,311.891,70.448,311.893,62.7ZM302.35,89.39a3.646,3.646,0,0,1-4.112-3.525c-.064-3.555-.038-7.112-.008-10.668a4.218,4.218,0,0,1,2.6-3.584c2.075-.465,4.291.26,5.105,1.737a2.953,2.953,0,0,1,.291,1.334c.023,1.414.019,2.827.016,4.242q0,.707,0,1.414c0,.45-.005.9-.011,1.35-.018,1.351-.046,2.7.032,4.047C306.4,88.065,304.662,89.229,302.35,89.39Z" transform="translate(-292.595 -54.102)"/></g></g></svg>