<svg xmlns="http://www.w3.org/2000/svg" width="185.214" height="62.18" viewBox="0 0 185.214 62.18"><defs><style>.a{fill:#3e3e3e;fill-rule:evenodd;}</style></defs><g transform="translate(-10.104 -5.962)"><path class="a" d="M82.267,149.477V138.752h3.472a12.568,12.568,0,0,1,2.572.16,2.819,2.819,0,0,1,1.543,1.051,3.333,3.333,0,0,1,.622,2.089,3.523,3.523,0,0,1-.357,1.661,2.961,2.961,0,0,1-.909,1.058,3.147,3.147,0,0,1-1.121.507,12.316,12.316,0,0,1-2.242.155H84.439v4.044Zm2.172-8.913v3.056h1.18a5.552,5.552,0,0,0,1.705-.169,1.4,1.4,0,0,0,.674-.529,1.45,1.45,0,0,0,.245-.837,1.4,1.4,0,0,0-.342-.969,1.5,1.5,0,0,0-.869-.479,10.48,10.48,0,0,0-1.553-.073Zm8.688,8.913V138.752h4.561a7.828,7.828,0,0,1,2.5.289,2.456,2.456,0,0,1,1.248,1.026,3.092,3.092,0,0,1,.469,1.69,2.868,2.868,0,0,1-.707,1.995,3.4,3.4,0,0,1-2.114.991,4.947,4.947,0,0,1,1.153.9,12.105,12.105,0,0,1,1.228,1.742l1.308,2.092h-2.589l-1.553-2.342a14.819,14.819,0,0,0-1.146-1.573,1.667,1.667,0,0,0-.652-.444,3.628,3.628,0,0,0-1.1-.12H95.3v4.479Zm2.172-6.186h1.6a8.231,8.231,0,0,0,1.945-.133,1.159,1.159,0,0,0,.606-.454,1.4,1.4,0,0,0,.22-.807,1.3,1.3,0,0,0-.29-.876,1.32,1.32,0,0,0-.814-.419q-.266-.037-1.58-.037H95.3Zm9.515,6.186V138.752h7.938v1.812h-5.767v2.381h5.363v1.813h-5.363v2.906h5.977v1.812Zm10.83,0V138.752H118.9l1.922,7.314,1.9-7.314h3.26v10.725h-2.007l-.008-8.443-2.115,8.443h-2.087l-2.105-8.443-.007,8.443Zm13.3,0V138.752h2.172v10.725Zm5.106-10.725h2.171v5.811a12.224,12.224,0,0,0,.08,1.793,1.746,1.746,0,0,0,.654,1.059,2.272,2.272,0,0,0,1.418.4,2.141,2.141,0,0,0,1.375-.377,1.487,1.487,0,0,0,.557-.926,12.206,12.206,0,0,0,.095-1.822v-5.936h2.172v5.639a14.531,14.531,0,0,1-.174,2.731,3.033,3.033,0,0,1-.647,1.348,3.226,3.226,0,0,1-1.256.874,5.456,5.456,0,0,1-2.057.327,5.889,5.889,0,0,1-2.322-.354,3.328,3.328,0,0,1-1.251-.923,2.948,2.948,0,0,1-.6-1.191,12.978,12.978,0,0,1-.212-2.724Zm11.656,10.725V138.752h3.253l1.922,7.314,1.9-7.314h3.26v10.725h-2.007l-.008-8.443-2.115,8.443h-2.087l-2.1-8.443-.007,8.443Zm17.538-10.725h3.949a7.675,7.675,0,0,1,2.037.2,3.564,3.564,0,0,1,1.613.989,4.669,4.669,0,0,1,1.023,1.738,7.957,7.957,0,0,1,.35,2.534,7.037,7.037,0,0,1-.33,2.282,4.713,4.713,0,0,1-1.146,1.9,3.786,3.786,0,0,1-1.518.856,6.481,6.481,0,0,1-1.912.227h-4.067Zm2.172,1.812v7.1h1.61a5.916,5.916,0,0,0,1.3-.1,1.966,1.966,0,0,0,.871-.447,2.248,2.248,0,0,0,.565-1.033,6.955,6.955,0,0,0,.219-1.965,6.353,6.353,0,0,0-.219-1.907,2.456,2.456,0,0,0-.612-1.039,2.06,2.06,0,0,0-1-.5,9.8,9.8,0,0,0-1.77-.1Zm9.514,8.913V138.752h7.939v1.812H177.1v2.381h5.362v1.813H177.1v2.906h5.977v1.812Zm10.86,0V138.752h2.1l4.414,7.187v-7.187h2.007v10.725h-2.17l-4.346-7.05v7.05Zm11.611,0V138.752h2.172v10.725Zm5.076,0V138.752h3.252l1.922,7.314,1.9-7.314h3.26v10.725h-2.007l-.008-8.443-2.115,8.443H206.6l-2.105-8.443-.008,8.443Z" transform="translate(-44.306 -81.529)"/><path class="a" d="M176.91,7.293c0,.2-.133.3-.366.3h-.2V7.027h.2C176.777,7.027,176.91,7.127,176.91,7.293Zm.6,1.3-.5-.732a.646.646,0,0,0,.3-.566.675.675,0,0,0-.7-.666h-.7v2.2h.432V7.959h.266l.566.865Zm.466-.865a1.347,1.347,0,0,1-1.365,1.431,1.363,1.363,0,0,1-1.431-1.431,1.355,1.355,0,0,1,1.431-1.4A1.338,1.338,0,0,1,177.975,7.726Zm.4,0a1.781,1.781,0,0,0-3.562,0,1.781,1.781,0,1,0,3.562,0ZM19.524,40.548A9.953,9.953,0,0,0,29.544,30.7a8.726,8.726,0,0,0-3.7-7.39c-.3-.266-.067-.433-.033-.5a8.519,8.519,0,0,0,2.23-6.258c-.133-4.194-3.695-8.555-9.653-8.555H10.1V40.548Zm-.7-27.1a3.845,3.845,0,0,1,0,7.689h-2.6a.7.7,0,0,1-.666-.7V14.384a.836.836,0,0,1,.865-.932Zm.067,21.471H16.428a.774.774,0,0,1-.865-.9V26.967a.91.91,0,0,1,.9-.965h2.431l.5-.034a4.494,4.494,0,1,1,0,8.988h-.666S21.654,34.956,18.892,34.923ZM47.886,29.3c0,7.923-10.587,7.789-10.653,0V7.993H31.774V29.3c-.034,4.86,3.429,11.352,10.852,11.352,7.257,0,10.919-6.292,10.818-11.352V7.993H47.886Zm109.85,11.352h16.111l-.033-5.526h-10.02a.72.72,0,0,1-.8-.932V26.3a.673.673,0,0,1,.666-.7h9.221l.034-5.559h-9.254a.611.611,0,0,1-.666-.666V14.284a.72.72,0,0,1,.666-.8h9.721l.033-5.492H157.736ZM188.46,16.082l4.794-2.2a8.519,8.519,0,0,0-8.388-5.892,9.03,9.03,0,0,0-8.656,8.854c.466,11.052,13.616,6.524,13.616,13.882a4.429,4.429,0,0,1-4.628,4.66c-2.929.034-4.56-2.763-4.76-5.026l-5.326,2.13c.765,4.96,5.958,8.122,9.753,8.122a10.124,10.124,0,0,0,10.452-10.153c.067-11.384-13.415-8.522-13.748-13.714a3.263,3.263,0,0,1,3.362-3.7A3.652,3.652,0,0,1,188.46,16.082ZM111.266,30.9c.034-.6.4-.766.7-.766h9.121a.645.645,0,0,1,.666.732l.033,9.787h5.559V18.711a10.8,10.8,0,0,0-21.6,0V40.648h5.525Zm10.453-7.158c0,.533-.1.9-.833.9-.034,0-8.888-.033-8.922,0-.5,0-.732-.266-.7-.931V18.778a5.243,5.243,0,1,1,10.486-.066ZM136.4,40.615V23.538c-.033-.832.932-.832,1.233-.4l16.477,18.008V8.06h-5.592V24.7c0,.832-.8.965-1.331.266L130.806,7.26V40.615Zm-34.252-7.19a14.148,14.148,0,0,1-5.66,1.565C90.228,34.89,85.5,30.629,85.5,24.471c0-6.325,4.061-10.986,10.685-11.018a11.657,11.657,0,0,1,5.96,1.731V8.992a16.719,16.719,0,0,0-5.726-1c-9.487,0-16.477,6.791-16.477,16.178A16.649,16.649,0,0,0,96.519,40.582a15.369,15.369,0,0,0,5.626-1.065Zm-24.4,0a14.3,14.3,0,0,1-5.659,1.565C65.827,34.89,61.1,30.629,61.1,24.471c0-6.325,4.06-10.986,10.652-11.018a11.774,11.774,0,0,1,5.992,1.731V8.992a16.715,16.715,0,0,0-5.726-1c-9.487,0-16.478,6.791-16.478,16.178A16.65,16.65,0,0,0,72.119,40.582a15.365,15.365,0,0,0,5.626-1.065Z" transform="translate(0 0)"/></g></svg>