<svg xmlns="http://www.w3.org/2000/svg" width="128" height="62.13" viewBox="0 0 128 62.13"><defs><style>.a{fill:#3e3e3e;}</style></defs><g transform="translate(-11.924 -7.658)"><path class="a" d="M11.924,58.273a2.058,2.058,0,0,1,.9-1.042,28.44,28.44,0,0,1,7.484-3.311,5.578,5.578,0,0,1,3.232.025,2.845,2.845,0,0,1,1.978,2.727c.036,1.607-.162,3.2-.28,4.8q-.159,2.155-.323,4.31c-.113,1.448-.233,2.9-.347,4.345-.11,1.4-.215,2.8-.323,4.2q-.173,2.229-.348,4.457-.165,2.136-.325,4.273c-.056.729-.112,1.459-.172,2.241a13.47,13.47,0,0,0,2.359-.95,15.5,15.5,0,0,0,6.992-7.5A24.541,24.541,0,0,0,34.787,70a41.485,41.485,0,0,0,.442-5.89c-.145.027-.174.141-.234.218A3.8,3.8,0,0,1,31.4,65.846a4.1,4.1,0,0,1-3.71-3.208,8.674,8.674,0,0,1,.456-6.519,4.541,4.541,0,0,1,6.816-1.474,6.49,6.49,0,0,1,1.973,3.3,16.482,16.482,0,0,1,.6,4.262,41.378,41.378,0,0,1-.448,7.356,26.669,26.669,0,0,1-3.4,9.875,19.158,19.158,0,0,1-5.905,6.291,16.051,16.051,0,0,1-6.7,2.476,17.633,17.633,0,0,1-4.013.153,2.9,2.9,0,0,1-2.909-3,37.571,37.571,0,0,1,.183-4.319c.084-1.264.181-2.527.272-3.791q.173-2.4.345-4.795c.086-1.2.167-2.4.252-3.606q.173-2.435.349-4.869c.084-1.19.165-2.379.249-3.569.04-.57.088-1.14.122-1.71.014-.234,0-.469,0-.731a12.822,12.822,0,0,0-1.457.637c-.373.165-.742.341-1.125.478a1.086,1.086,0,0,1-1.426-.438Z" transform="translate(0 -34.125)"/><path class="a" d="M183.771,81.868a63.917,63.917,0,0,1,.518-7.5,58.3,58.3,0,0,1,1.651-8.753,18.707,18.707,0,0,1,2.733-5.938,13.7,13.7,0,0,1,7.926-5.438,5.41,5.41,0,0,1,1.7-.184c.652.042,1,.4.942.943a.939.939,0,0,1-.5.658,6.42,6.42,0,0,1-1.621.622c-.944.331-.8.083-.884,1.112-.154,1.906-.333,3.81-.495,5.715-.137,1.621-.26,3.243-.4,4.864s-.285,3.241-.423,4.861c-.112,1.324-.213,2.649-.323,3.973-.061.73-.13,1.459-.2,2.189-.006.062-.015.123-.019.185-.007.113-.012.205.133.265s.188-.032.257-.118a21.563,21.563,0,0,0,4.082-8.059,32.069,32.069,0,0,0,.98-5.78q.326-4.1.656-8.208.107-1.356.2-2.713c.015-.225.08-.317.333-.306a41.942,41.942,0,0,0,6.109-.218c.9-.1,1.795-.241,2.686-.4.242-.042.25.036.236.214q-.17,2.061-.336,4.122c-.087,1.09-.17,2.179-.256,3.269q-.174,2.21-.349,4.42c-.085,1.09-.164,2.18-.249,3.27q-.17,2.173-.346,4.345c-.1,1.2-.213,2.4-.312,3.6-.126,1.546-.316,3.085-.541,4.62a33.125,33.125,0,0,1-1.115,5.224,14.709,14.709,0,0,1-2.344,4.738,16.416,16.416,0,0,1-6.662,5.1,3.6,3.6,0,0,1-.974.235.775.775,0,0,1-.814-.337.788.788,0,0,1,.083-.909A3.54,3.54,0,0,1,197,94.636a.542.542,0,0,0,.3-.495c.1-1.3.226-2.6.339-3.9.111-1.274.214-2.549.325-3.823.114-1.3.258-2.6.346-3.9.112-1.649.351-3.28.622-4.907.063-.379.129-.757.2-1.134.03-.158.043-.285-.145-.365-.229-.1-.219.114-.268.2a46.926,46.926,0,0,1-4.64,7.121,16.36,16.36,0,0,1-4.213,3.9,5.214,5.214,0,0,1-2.741.825,2.816,2.816,0,0,1-2.751-1.841,8.158,8.158,0,0,1-.6-3.119C183.762,82.764,183.771,82.316,183.771,81.868Z" transform="translate(-125.932 -35.266)"/><path class="a" d="M320.117,64.547a39.5,39.5,0,0,1-.865,8.132,23.777,23.777,0,0,1-4.661,10.1,14,14,0,0,1-8.124,5.161,11.984,11.984,0,0,1-6.719-.249,7.881,7.881,0,0,1-4.172-3.632,12.428,12.428,0,0,1-1.492-4.787,29.787,29.787,0,0,1,.092-6.919,26.3,26.3,0,0,1,4.2-12.094,13.353,13.353,0,0,1,5.557-4.919A12.167,12.167,0,0,1,306,54.647c.245-.061.274.034.258.237-.064.83-.118,1.66-.181,2.49-.088,1.152-.181,2.3-.271,3.455q-.175,2.229-.348,4.458-.164,2.118-.324,4.236-.174,2.266-.35,4.532c-.084,1.09-.164,2.18-.248,3.27q-.173,2.248-.348,4.5c-.107,1.387-.21,2.774-.324,4.161-.02.236.057.3.288.285a10.317,10.317,0,0,0,3.559-.852.43.43,0,0,0,.271-.426c.131-1.821.285-3.641.423-5.461s.258-3.618.395-5.427.286-3.591.423-5.387c.112-1.474.21-2.949.322-4.423s.233-2.947.347-4.42c.1-1.3.192-2.6.294-3.9.017-.214-.111-.213-.256-.213-.523,0-1.045,0-1.568,0a.779.779,0,0,1-.827-.438.916.916,0,0,1,.339-.995,3.618,3.618,0,0,1,1.966-.717,10.114,10.114,0,0,1,4.813.428,7.45,7.45,0,0,1,3.833,3.212,10.951,10.951,0,0,1,1.519,4.775A24.621,24.621,0,0,1,320.117,64.547Z" transform="translate(-206.653 -33.978)"/><path class="a" d="M126.715,84.889c.647-.275,1.247-.529,1.846-.786a6.257,6.257,0,0,1,1.478-.485.746.746,0,0,1,.819.3.812.812,0,0,1-.026.915,3.545,3.545,0,0,1-1.3,1.151,19.513,19.513,0,0,1-7.238,2.561,7.958,7.958,0,0,1-2.856-.052,2.8,2.8,0,0,1-2.18-2.437,14.857,14.857,0,0,1,.117-3.156c.094-1.325.226-2.647.341-3.97s.23-2.647.343-3.97q.165-1.929.329-3.859.172-2,.347-4.007c.11-1.286.215-2.573.325-3.86.113-1.324.231-2.647.345-3.97.036-.419.067-.839.106-1.321-.645.257-1.246.5-1.852.735a8.835,8.835,0,0,1-.917.3.839.839,0,0,1-1.024-.393.851.851,0,0,1,.2-1.079,6.642,6.642,0,0,1,1.888-1.241,23.565,23.565,0,0,1,6.023-2.064,9.778,9.778,0,0,1,3.223-.129,2.218,2.218,0,0,1,2.011,2.292,24.613,24.613,0,0,1-.173,4.537c-.094,1.238-.228,2.472-.343,3.708q-.176,1.891-.348,3.782c-.11,1.211-.214,2.423-.325,3.635q-.206,2.262-.418,4.523-.165,1.8-.327,3.6c-.115,1.261-.233,2.521-.347,3.782C126.755,84.228,126.74,84.523,126.715,84.889Z" transform="translate(-75.872 -34.347)"/><path class="a" d="M412.145,57.082c-.046,1.64-.209,3.272-.35,4.905-.114,1.324-.212,2.649-.323,3.973-.137,1.621-.282,3.241-.42,4.862-.111,1.3-.215,2.6-.325,3.9-.115,1.361-.233,2.722-.348,4.083-.109,1.3-.215,2.6-.324,3.9-.115,1.361-.225,2.723-.355,4.083-.025.263.11.632-.121.765-.172.1-.492-.061-.746-.1a24.532,24.532,0,0,0-6.172-.165,24.1,24.1,0,0,0-2.4.3c-.174.032-.269.031-.247-.213q.322-3.618.618-7.239c.16-1.931.306-3.863.469-5.793s.34-3.835.5-5.753.308-3.863.469-5.793q.2-2.432.429-4.862c.063-.683.075-.681-.548-.444-.776.3-1.51.694-2.308.934-.106.032-.213.065-.321.088a.885.885,0,0,1-.978-.357.856.856,0,0,1,.167-1,4.779,4.779,0,0,1,1.224-.964,20.827,20.827,0,0,1,7.423-2.608,8.137,8.137,0,0,1,2.82.035,2.594,2.594,0,0,1,2.163,2.643C412.165,56.533,412.145,56.808,412.145,57.082Z" transform="translate(-283.046 -33.947)"/><path class="a" d="M452.113,48.306a8.237,8.237,0,0,1,2.124-5.888,4.895,4.895,0,0,1,4.7-1.715,3.244,3.244,0,0,1,2.652,2.735,8.26,8.26,0,0,1-2.269,7.995,4.8,4.8,0,0,1-4.14,1.429,3.444,3.444,0,0,1-2.9-2.884A7.187,7.187,0,0,1,452.113,48.306Z" transform="translate(-321.905 -23.776)"/><path class="a" d="M144.808,12.678a6.047,6.047,0,0,1-.744,3.25,4.875,4.875,0,0,1-4.753,2.52,4.673,4.673,0,0,1-3.089-1.195,4.463,4.463,0,0,1-1.491-3.476,6.842,6.842,0,0,1,1.056-3.959,4.733,4.733,0,0,1,3.875-2.151,5.205,5.205,0,0,1,2.882.56,4.494,4.494,0,0,1,2.261,3.707C144.829,12.179,144.808,12.43,144.808,12.678Z" transform="translate(-89.811)"/><path class="a" d="M191.871,189.46a6.718,6.718,0,0,1-3.62-.941,3.569,3.569,0,0,1-1.65-4.156,3.288,3.288,0,0,1,1.964-2.069,6.951,6.951,0,0,1,6.936.557,3.467,3.467,0,0,1,1.1,4.463,4.432,4.432,0,0,1-2.814,1.915A6.749,6.749,0,0,1,191.871,189.46Z" transform="translate(-127.628 -127.613)"/><path class="a" d="M282.514,192.334a3.48,3.48,0,0,1,2.065-1.214,3.878,3.878,0,0,1,4.252,2.107,6.641,6.641,0,0,1-.1,6.256,4.016,4.016,0,0,1-5.09,1.791,3.681,3.681,0,0,1-1.191-.99,2.746,2.746,0,0,0-.04.843c0,.189-.045.267-.248.257a6.87,6.87,0,0,0-.97,0c-.353.033-.46-.072-.458-.443.016-3.395.009-6.79.009-10.185,0-.982.011-1.965-.007-2.947-.005-.286.083-.365.358-.347a7.7,7.7,0,0,0,1.082,0c.3-.023.346.1.344.362-.011,1.343-.005,2.686-.005,4.029Zm-.119,4.011a9.314,9.314,0,0,0,.082,1.337A2.714,2.714,0,0,0,284.217,200a2.439,2.439,0,0,0,3.1-1.529,6.125,6.125,0,0,0,.018-4.332,2.413,2.413,0,0,0-4.366-.362A4.472,4.472,0,0,0,282.395,196.345Z" transform="translate(-196.559 -131.821)"/><path class="a" d="M326.631,210.658c-.573,0-1.107-.006-1.641,0a.269.269,0,0,1-.29-.226c-.09-.308-.172-.619-.267-.96a8.97,8.97,0,0,1-1.215.815,5.146,5.146,0,0,1-3.9.382,2.756,2.756,0,0,1-2.008-2.5,2.935,2.935,0,0,1,1.607-2.766,6.589,6.589,0,0,1,2.326-.589,24.491,24.491,0,0,0,2.709-.461.414.414,0,0,0,.378-.478,1.728,1.728,0,0,0-1.72-2,4.816,4.816,0,0,0-1.668.036,1.927,1.927,0,0,0-1.532,1.581c-.058.209-.117.248-.323.211-.414-.075-.834-.127-1.253-.164-.212-.019-.227-.082-.183-.278a3.327,3.327,0,0,1,2.47-2.644,7.383,7.383,0,0,1,3.719-.119,2.658,2.658,0,0,1,2.268,2.83c.015,1.479-.009,2.959.018,4.438a6.639,6.639,0,0,0,.281,2.315Zm-2.323-4.988a12.823,12.823,0,0,1-2.221.531,14.449,14.449,0,0,0-1.785.334,1.389,1.389,0,0,0-1.071,1.311,1.373,1.373,0,0,0,.968,1.454,2.951,2.951,0,0,0,1.467.13,2.686,2.686,0,0,0,2.553-2.111A6.068,6.068,0,0,0,324.308,205.67Z" transform="translate(-223.311 -141.1)"/><path class="a" d="M359.651,210.847a4.513,4.513,0,0,1-2.262-.543,3.665,3.665,0,0,1-1.719-2.574c-.03-.135.036-.164.157-.182.441-.065.88-.148,1.321-.215.128-.02.265-.058.3.159.26,1.5,1.367,1.911,2.647,1.891a2.508,2.508,0,0,0,1.613-.467,1.166,1.166,0,0,0-.387-2.152c-1.067-.318-2.144-.605-3.21-.93a2.748,2.748,0,0,1-2.089-1.962,2.7,2.7,0,0,1,1.5-3.09,5.441,5.441,0,0,1,4.612.052,2.762,2.762,0,0,1,1.528,2.191c.03.154-.01.19-.154.209-.455.061-.907.136-1.361.206-.128.02-.194-.007-.223-.162A1.854,1.854,0,0,0,359.9,201.8a2.931,2.931,0,0,0-1.718.353.986.986,0,0,0,.049,1.757,7.762,7.762,0,0,0,1.792.58c.808.233,1.622.446,2.408.751a2.669,2.669,0,0,1,.757,4.47A4.691,4.691,0,0,1,359.651,210.847Z" transform="translate(-251.338 -141.079)"/><path class="a" d="M408.246,205.615a5.319,5.319,0,0,0,.377,2.292,2.6,2.6,0,0,0,3.955.952,2.538,2.538,0,0,0,.819-1.545c.054-.291.1-.472.483-.36a5.545,5.545,0,0,0,1.1.158c.186.016.239.082.207.253a4.061,4.061,0,0,1-3.684,3.48,4.465,4.465,0,0,1-3.421-.947,4.569,4.569,0,0,1-1.579-2.986,7.435,7.435,0,0,1,.456-4.122,4.011,4.011,0,0,1,3.159-2.377,4.459,4.459,0,0,1,3.268.53,3.755,3.755,0,0,1,1.643,2.429c.037.153-.009.225-.179.243a6.21,6.21,0,0,0-1.1.166c-.353.106-.43-.039-.519-.33a2.1,2.1,0,0,0-1.5-1.556,2.625,2.625,0,0,0-3.259,1.844c-.06.2-.107.407-.147.613A5.728,5.728,0,0,0,408.246,205.615Z" transform="translate(-288.932 -141.096)"/><path class="a" d="M392.8,206.177c0-1.554.009-3.108-.008-4.662,0-.32.094-.405.4-.383a9.277,9.277,0,0,0,1.082,0c.222-.01.3.05.3.287q-.01,4.755,0,9.51c0,.247-.079.325-.321.314a10,10,0,0,0-1.082,0c-.289.018-.382-.07-.379-.37C392.807,209.31,392.8,207.744,392.8,206.177Z" transform="translate(-279.109 -141.682)"/><path class="a" d="M394.461,188.457c-.024.257.13.652-.057.85s-.589.061-.9.064c-.818.01-.826,0-.815-.836.005-.38-.164-.87.075-1.109.222-.222.708-.057,1.078-.063.614-.01.614,0,.614.6Z" transform="translate(-278.999 -131.304)"/></g></svg>