<svg xmlns="http://www.w3.org/2000/svg" width="162" height="52.943" viewBox="0 0 162 52.943"><defs><style>.a{fill:#3e3e3e;}</style></defs><path class="a" d="M746.882,38.187l-2.1,10.226h-1.141q-.025-1.166-1.049-1.166H724.925V46.054a4.014,4.014,0,0,0,2.94-.861,4.61,4.61,0,0,0,.774-3.068V20.7a4.523,4.523,0,0,0-.774-3.051,4.085,4.085,0,0,0-2.94-.879V15.58h11.981v1.191a4.238,4.238,0,0,0-2.98.853,4.622,4.622,0,0,0-.749,3.077V46.054h3.172q7.381,0,8.776-7.867Zm49.008,13.56a2.414,2.414,0,0,1-1.008,2.006,4.1,4.1,0,0,1-2.567.773h-2.376v-.172a.9.9,0,0,0,.547-.126.573.573,0,0,0,.142-.445V50.675a.561.561,0,0,0-.142-.442.935.935,0,0,0-.547-.125v-.172H793.5q2.39,0,2.389,1.812Zm-.852.467q0-2.117-2.257-2.117a2.784,2.784,0,0,0-1.314.276v3.586a3.358,3.358,0,0,0,1.413.334,2.1,2.1,0,0,0,1.633-.647,2.042,2.042,0,0,0,.525-1.432Zm5.069,1.411a2.885,2.885,0,0,1-1.974,1,1.679,1.679,0,0,1-1.236-.506,1.454,1.454,0,0,1-.471-1.063A1.8,1.8,0,0,1,797,51.77a2.018,2.018,0,0,1,1.492-.625,1.519,1.519,0,0,1,1.082.388,1.291,1.291,0,0,1,.4.908h-2.924q-.01.14-.01.2a1.49,1.49,0,0,0,.368,1,1.391,1.391,0,0,0,1.111.485,2.4,2.4,0,0,0,1.591-.744v.238Zm-.881-1.365a1.041,1.041,0,0,0-.289-.614.99.99,0,0,0-.726-.276,1.134,1.134,0,0,0-.762.276,1.047,1.047,0,0,0-.361.614Zm6,2.266h-1.577v-.172c.127,0,.19-.063.19-.176V51.959c0-.274-.146-.412-.439-.412a1.363,1.363,0,0,0-1.181.812,2.622,2.622,0,0,0-.374,1.3.77.77,0,0,0,.131.521.852.852,0,0,0,.611.176v.172h-2.064v-.172a.9.9,0,0,0,.537-.132.528.528,0,0,0,.154-.428V51.959c0-.236-.1-.355-.3-.355a1.584,1.584,0,0,0-.391.091v-.18l1.18-.38h.19v1.18a6.815,6.815,0,0,1,.8-.749,1.825,1.825,0,0,1,1.068-.431.682.682,0,0,1,.766.778v1.881a.524.524,0,0,0,.157.428.908.908,0,0,0,.537.132v.172Zm1.932-4.536a.3.3,0,0,1-.128.242.49.49,0,0,1-.307.1.484.484,0,0,1-.306-.1.3.3,0,0,1-.126-.242.31.31,0,0,1,.125-.244.449.449,0,0,1,.3-.1.508.508,0,0,1,.315.1.3.3,0,0,1,.129.246Zm.6,4.536h-2.075v-.172a.906.906,0,0,0,.537-.132.524.524,0,0,0,.156-.428V51.831c0-.151-.108-.226-.328-.226a.852.852,0,0,0-.258.046c-.051.017-.086.028-.107.033V51.5l1.161-.363h.221v2.656a.521.521,0,0,0,.155.428.916.916,0,0,0,.538.132v.172Zm7.457,0h-1.578v-.172c.13,0,.194-.058.194-.168V52.128c0-.384-.158-.578-.478-.578a1.22,1.22,0,0,0-1.067.787,2.658,2.658,0,0,0-.322,1.224.978.978,0,0,0,.127.564.749.749,0,0,0,.617.229v.172h-1.563v-.172c.125,0,.188-.05.188-.132V52.013a.454.454,0,0,0-.107-.308.433.433,0,0,0-.346-.147,1.218,1.218,0,0,0-1.078.786,2.653,2.653,0,0,0-.317,1.231.964.964,0,0,0,.122.556.724.724,0,0,0,.613.222v.172h-2.055v-.172a.866.866,0,0,0,.53-.134.535.535,0,0,0,.151-.426V51.913a.263.263,0,0,0-.295-.3,1.317,1.317,0,0,0-.386.08v-.18l1.156-.366h.212V52.24a7.081,7.081,0,0,1,.74-.707,1.681,1.681,0,0,1,1.01-.392c.492,0,.74.28.74.837,0,.063,0,.138,0,.227a7.412,7.412,0,0,1,.753-.686,1.719,1.719,0,0,1,1-.381.768.768,0,0,1,.55.191.581.581,0,0,1,.2.455v2.009a.514.514,0,0,0,.157.428.9.9,0,0,0,.536.132v.172ZM860,53.194a8.294,8.294,0,0,1,5.89,2.835c.668.816.5,3.135-.9,3.522,1.1,1.117,1.807.472,2.107-.215a3.019,3.019,0,0,0,.336-1.589c.167,1.289.7,2.577,1.672,2.964.769.387,1.539-.258,2.074-1.246a1.261,1.261,0,0,1-1.305-.43c-1.17-1.16-.836-2.448-2.575-4.124a5.7,5.7,0,0,0-3.012-1.717h7.561c2.241,0,3.178,1.116,3.881,1.116,1.84.044,2.274-1.418,3.58-1.761.6-.172,1.1.3,1.74.215,1.036-.215,1.036-1.374,2.14-1.718-1.036-.129-1.3.558-1.94.558-.7,0-1.4-.988-2.106-.988-1.038.086-1.038.645-1.706.687-.77,0-1.1-.945-2.142-.9-1.505.043-1.974,1.289-2.943,1.375a3.406,3.406,0,0,1-.8.129l-55.22.745L860,53.194Zm-114.969,0a8.289,8.289,0,0,0-5.889,2.835c-.669.816-.5,3.135.9,3.522-1.1,1.117-1.807.472-2.108-.215a3.04,3.04,0,0,1-.335-1.589c-.167,1.289-.7,2.577-1.672,2.964-.77.387-1.539-.258-2.075-1.246a1.26,1.26,0,0,0,1.3-.43c1.171-1.16.836-2.448,2.576-4.124a5.693,5.693,0,0,1,3.011-1.717h-7.561c-2.241,0-3.178,1.116-3.881,1.116-1.84.044-2.276-1.418-3.58-1.761-.6-.172-1.1.3-1.74.215-1.037-.215-1.037-1.374-2.141-1.718,1.037-.129,1.3.558,1.94.558.7,0,1.405-.988,2.107-.988,1.038.086,1.038.645,1.706.687.769,0,1.1-.945,2.141-.9,1.506.043,1.974,1.289,2.944,1.375a3.4,3.4,0,0,0,.8.129l55.22.745-43.678.544Zm25.225-15.057-2,10.2h-1.216c-.017-.727-.325-1.09-.933-1.09H748.33V46.054a4.025,4.025,0,0,0,2.948-.853,4.625,4.625,0,0,0,.758-3.076V20.7a4.571,4.571,0,0,0-.766-3.051,4.114,4.114,0,0,0-2.939-.879V15.58h17.409c1.058,0,1.608-.414,1.641-1.234h1.141V23.8h-1.782q-.086-7.035-8.342-7.032h-1.849a43.9,43.9,0,0,0-.291,4.826q0,8.239,6.852,8.24H765.5v1.741l-8.95.245V46.054h2.581q8.206,0,9.392-7.918Zm32.42-3.347a2.133,2.133,0,0,0-1.882,1.142,4.165,4.165,0,0,0-.582,2.256v10.2h-1.223q-.113-4.36-3.24-4.361a6.37,6.37,0,0,0-3.388,1.386,9.381,9.381,0,0,1-.984.642,12.178,12.178,0,0,1-6.194,1.91,11.021,11.021,0,0,1-6.411-2.13,13.2,13.2,0,0,1-4.488-5.172,16.91,16.91,0,0,1-1.615-7.479,18.96,18.96,0,0,1,2.348-9.262,17.223,17.223,0,0,1,6.537-6.736,17.636,17.636,0,0,1,9.025-2.324,30.778,30.778,0,0,1,8.85,1.513v7.5h-1.781a7.635,7.635,0,0,0-3.172-5.544,10.283,10.283,0,0,0-6.17-1.834,10.409,10.409,0,0,0-8.509,3.913,14.119,14.119,0,0,0-2.981,9.186,18.136,18.136,0,0,0,2.906,10.2,10.118,10.118,0,0,0,8.784,4.978,8.284,8.284,0,0,0,5.071-1.606,5.525,5.525,0,0,0,2.414-4.631c0-2.493-1.532-3.744-4.613-3.744H790.5V33.632h12.172v1.157Zm15.021,12.457H805.771V46.054a4.028,4.028,0,0,0,2.939-.861,4.659,4.659,0,0,0,.766-3.068V20.684a4.556,4.556,0,0,0-.766-3.051,4.185,4.185,0,0,0-2.939-.862V15.58h11.923v1.191a4.178,4.178,0,0,0-2.947.862,4.56,4.56,0,0,0-.757,3.051V42.125c0,2.535,1.24,3.854,3.7,3.929v1.192Zm31.513,0h-8.759V46.054h.567c.274,0,.416-.27.416-.81a1.743,1.743,0,0,0-.1-.55l-2.93-8.611H827.743a24.277,24.277,0,0,0-1.682,7.149,2.712,2.712,0,0,0,.806,2.063,2.888,2.888,0,0,0,2.075.76h1.29v1.192H819.3V46.054c1.84-.093,3.5-2.071,4.978-5.915l10-25.869h1.44l8.634,25.3a22.952,22.952,0,0,0,1.682,4.006q1.424,2.409,3.172,2.476v1.192ZM837.867,34.57l-4.438-13.175L828.3,34.57Zm3.248-26.689A4.941,4.941,0,0,1,839.89,11a3.524,3.524,0,0,1-2.68,1.141,5.636,5.636,0,0,1-1.558-.27c-.608-.186-1.215-.381-1.831-.584s-1.216-.4-1.782-.583a4.929,4.929,0,0,0-1.39-.27,2.373,2.373,0,0,0-1.44.431,2.345,2.345,0,0,0-.825,1.352h-1.148a6.56,6.56,0,0,1,.425-1.775,4.646,4.646,0,0,1,.841-1.369,3.608,3.608,0,0,1,1.181-.879,3.376,3.376,0,0,1,1.457-.313,5.423,5.423,0,0,1,1.55.271c.574.186,1.156.389,1.757.609s1.173.422,1.74.609a5.18,5.18,0,0,0,1.516.27,2.408,2.408,0,0,0,1.456-.406,2.2,2.2,0,0,0,.784-1.352Zm42.728,22.032a17.537,17.537,0,0,1-2.731,9.347,17.783,17.783,0,0,1-15.271,8.7,14.138,14.138,0,0,1-10.489-4.31,14.6,14.6,0,0,1-4.24-10.648,17.724,17.724,0,0,1,5.255-12.685,16.608,16.608,0,0,1,12.354-5.459A14.594,14.594,0,0,1,881.478,21.6a14.344,14.344,0,0,1,2.365,8.316Zm-4.121,4.36a20.26,20.26,0,0,0-1.849-8.569,14.334,14.334,0,0,0-5.687-6.508,13.091,13.091,0,0,0-6.51-2.036,9.571,9.571,0,0,0-7.71,3.448,12.41,12.41,0,0,0-2.731,8.24,18.507,18.507,0,0,0,3.754,11.545,12.611,12.611,0,0,0,10.442,5.366,9.41,9.41,0,0,0,7.509-3.465,12.064,12.064,0,0,0,2.782-8.021Z" transform="translate(-721.843 -7.881)"/></svg>