<svg xmlns="http://www.w3.org/2000/svg" width="175.956" height="47.793" viewBox="0 0 175.956 47.793"><defs><style>.a{fill:#3e3e3e;}</style></defs><g transform="translate(-11.001 -10.083)"><path class="a" d="M230.768,26.3H208.293v4.886h22.458v4.287h-52.91V31.3h22.535v-5H177.841V10.083h52.927Zm-6.047-11.142H183.449v5.976h41.272Z" transform="translate(-105.425)"/><path class="a" d="M21.613,111.569l-.167-1.2h-7.48v2.342c.385,0,.77,0,1.155,0,2.31.02,4.622-.013,6.928.081,1.461.06,1.963.608,2.051,2.065a26.622,26.622,0,0,1-.039,3.108,1.691,1.691,0,0,1-1.627,1.725,9.206,9.206,0,0,1-1.094.122c-2.545.011-5.091.028-7.636,0-2.169-.024-2.854-.819-2.675-3.1l2.329-.494.112,1.314h8.1v-2.513c-2.155,0-4.29,0-6.425,0-3.424.01-3.807-.5-3.722-3.968.057-2.349.653-2.837,3.016-2.839,2.311,0,4.622-.016,6.933.005,1.7.015,2.342.537,2.595,1.909.122.663-.039,1.013-.751,1.094C22.7,111.288,22.188,111.444,21.613,111.569Z" transform="translate(0 -62.008)"/><path class="a" d="M276.443,110.514H269.17v-2.043h11.7a1.4,1.4,0,0,1-.459,1.668c-2.311,2.234-4.592,4.5-6.881,6.757-.228.225-.436.471-.782.846h8.147v2.181h-12.53a1.691,1.691,0,0,1,.53-1.888C271.356,115.63,273.775,113.18,276.443,110.514Z" transform="translate(-162.563 -62.17)"/><path class="a" d="M468.273,116.278l-2.077.346-.3-.9h-7.12v5.7h7.171v-1.857h-3.659v-1.7h6.023c0,1.355.043,2.683-.017,4.007a1.369,1.369,0,0,1-1.254,1.358,8.02,8.02,0,0,1-1.193.134c-2.344.013-4.689.018-7.034,0-1.954-.014-2.472-.509-2.506-2.418-.028-1.607-.039-3.216,0-4.823.046-1.724.521-2.223,2.243-2.255,2.544-.047,5.091-.051,7.636,0C467.935,113.915,468.414,114.5,468.273,116.278Z" transform="translate(-281.371 -65.562)"/><path class="a" d="M111.047,120.938l1.937-.336.2,1.039h6.883v-2.084h-3.514c-.938,0-1.877.014-2.814-.007a3.37,3.37,0,0,1-1.185-.15c-1.763-.727-1.1-2.308-1.139-3.583-.034-1.125.483-1.7,1.543-1.722,2.575-.066,5.153-.028,7.729,0a1.227,1.227,0,0,1,.9.34,3.516,3.516,0,0,1,.555,1.531c.014.159-.619.408-.979.557a5.316,5.316,0,0,1-.931.2l-.212-.933h-6.386v1.89c.757,0,1.517,0,2.276,0,1.541.01,3.084-.016,4.622.049,1.192.05,1.628.5,1.722,1.66a14.473,14.473,0,0,1,.016,2.2c-.1,1.335-.444,1.806-1.754,1.852-2.575.09-5.158.1-7.732,0C111.293,123.382,110.9,122.7,111.047,120.938Z" transform="translate(-63.201 -65.702)"/><path class="a" d="M418.146,113.949h2.2v9.34a2.549,2.549,0,0,1-2.422-.476c-2.044-1.678-4.151-3.279-6.235-4.908-.3-.236-.613-.462-1.091-.822v6.253h-2.139v-9.347a2.513,2.513,0,0,1,2.392.469c2.355,1.877,4.768,3.682,7.3,5.62Z" transform="translate(-251.149 -65.584)"/><path class="a" d="M203.472,117.1v6.228h-2.155v-9.351a2.711,2.711,0,0,1,2.446.518c2.342,1.88,4.753,3.673,7.294,5.621v-6.172H213.2v9.383a2.672,2.672,0,0,1-2.429-.525c-2.015-1.659-4.1-3.237-6.155-4.845C204.3,117.713,203.981,117.482,203.472,117.1Z" transform="translate(-120.259 -65.596)"/><path class="a" d="M368.007,117.711h4.522v1.653h-4.484v2.3h7.917v1.775H365.6v-9.406h10.249v1.651h-7.841Z" transform="translate(-224.068 -65.685)"/><path class="a" d="M319.413,119.591v3.852h-2.352v-9.378h2.313v3.415h7.309v-3.416h2.336v9.393h-2.3v-3.867Z" transform="translate(-193.397 -65.705)"/><path class="a" d="M63.386,114.041h2.33v7.579h6.617v-7.549H74.75c0,2.65.067,5.284-.031,7.912-.042,1.128-.744,1.5-2.311,1.514-2.244.022-4.489.01-6.734,0a7.052,7.052,0,0,1-.894-.11,1.431,1.431,0,0,1-1.378-1.469C63.36,119.312,63.386,116.705,63.386,114.041Z" transform="translate(-33.097 -65.69)"/><path class="a" d="M166.387,123.275a14.614,14.614,0,0,1-2.184-.033,1.3,1.3,0,0,1-.826-.7,2.069,2.069,0,0,0-2.427-1.369,30.2,30.2,0,0,1-3.812.014,1.3,1.3,0,0,0-1.359.75c-.871,1.562-.984,1.579-3.1,1.2.429-.715.832-1.389,1.237-2.061q1.993-3.305,3.99-6.609a2,2,0,0,1,3.147-.036q2.477,4.009,4.939,8.026C166.13,122.673,166.218,122.917,166.387,123.275Zm-7.017-7.7-2.059,3.785h4.225Z" transform="translate(-89.528 -65.464)"/></g></svg>