<svg xmlns="http://www.w3.org/2000/svg" width="179.015" height="38.085" viewBox="0 0 179.015 38.085"><defs><style>.a{fill:#3e3e3e;}</style></defs><g transform="translate(-16.035 -15.225)"><g transform="translate(16.035 15.225)"><path class="a" d="M32.477,37.935q-3.584,0-6.208-.132a26.7,26.7,0,0,1-4.452-.543,8.714,8.714,0,0,1-2.956-1.168A5.187,5.187,0,0,1,17.107,34.1a9.13,9.13,0,0,1-.85-3.028,35.359,35.359,0,0,1-.222-4.262V26.35a35.359,35.359,0,0,1,.222-4.262,9.133,9.133,0,0,1,.85-3.028,5.19,5.19,0,0,1,1.755-1.991A8.73,8.73,0,0,1,21.818,15.9a26.776,26.776,0,0,1,4.452-.543q2.623-.131,6.208-.132h1.145q3.583,0,6.207.132a26.766,26.766,0,0,1,4.452.543,8.729,8.729,0,0,1,2.956,1.168,5.193,5.193,0,0,1,1.755,1.991,9.142,9.142,0,0,1,.85,3.028,35.288,35.288,0,0,1,.222,4.262v.461a35.288,35.288,0,0,1-.222,4.262,9.139,9.139,0,0,1-.85,3.028,5.19,5.19,0,0,1-1.755,1.991,8.713,8.713,0,0,1-2.956,1.168,26.685,26.685,0,0,1-4.452.543q-2.624.131-6.207.132Zm.887-5.167q3.251,0,5.1-.165a5.82,5.82,0,0,0,2.753-.79,2.664,2.664,0,0,0,1.108-1.843,21.332,21.332,0,0,0,.2-3.324v-.165a21.951,21.951,0,0,0-.2-3.373,2.678,2.678,0,0,0-1.108-1.86,5.833,5.833,0,0,0-2.753-.79q-1.848-.164-5.1-.164h-.628q-3.289,0-5.118.164a5.789,5.789,0,0,0-2.734.79,2.671,2.671,0,0,0-1.108,1.86,21.853,21.853,0,0,0-.2,3.373v.165a21.237,21.237,0,0,0,.2,3.324,2.657,2.657,0,0,0,1.108,1.843,5.776,5.776,0,0,0,2.734.79q1.829.165,5.118.165Z" transform="translate(-16.035 -15.225)"/><path class="a" d="M129.85,36.062a2.167,2.167,0,0,1-.443,1.464,1.92,1.92,0,0,1-1.515.51h-3.547a1.915,1.915,0,0,1-1.534-.543,2.237,2.237,0,0,1-.462-1.5V31.058a1.879,1.879,0,0,0-.517-1.316L111.006,18.815a6.028,6.028,0,0,1-.7-.806,1.465,1.465,0,0,1-.3-.872,1.275,1.275,0,0,1,.536-1.086,2.476,2.476,0,0,1,1.5-.4H115.4a3.438,3.438,0,0,1,1.422.247,3.932,3.932,0,0,1,1.053.741l7.5,7.6a2.285,2.285,0,0,0,.48.395.739.739,0,0,0,.739,0,2.325,2.325,0,0,0,.48-.395l7.279-7.6a3.343,3.343,0,0,1,1.034-.741,3.574,3.574,0,0,1,1.441-.247h3.325a2.4,2.4,0,0,1,1.478.4,1.291,1.291,0,0,1,.517,1.086,1.535,1.535,0,0,1-.277.872,5.1,5.1,0,0,1-.683.806L130.33,29.742a1.452,1.452,0,0,0-.388.609,2.36,2.36,0,0,0-.093.675Z" transform="translate(-74.058 -15.49)"/><path class="a" d="M212.12,22.863a1,1,0,0,0,.37.922,1.95,1.95,0,0,0,1.034.23h13.782a1.8,1.8,0,0,0,1.127-.263,1.056,1.056,0,0,0,.314-.855V17.63a2.165,2.165,0,0,1,.443-1.464,1.921,1.921,0,0,1,1.515-.51h3.51a1.916,1.916,0,0,1,1.534.543,2.242,2.242,0,0,1,.462,1.5V36.062a2.165,2.165,0,0,1-.443,1.464,1.92,1.92,0,0,1-1.515.51h-3.51a1.915,1.915,0,0,1-1.534-.543,2.237,2.237,0,0,1-.461-1.5V30.334q0-.724-.37-.938a2.172,2.172,0,0,0-1.071-.214H213.561a1.89,1.89,0,0,0-1.127.247,1.05,1.05,0,0,0-.314.872v5.76a2.167,2.167,0,0,1-.443,1.464,1.921,1.921,0,0,1-1.515.51h-3.51a1.913,1.913,0,0,1-1.533-.543,2.238,2.238,0,0,1-.462-1.5V17.63a2.169,2.169,0,0,1,.443-1.464,1.922,1.922,0,0,1,1.515-.51h3.51a1.915,1.915,0,0,1,1.533.543,2.24,2.24,0,0,1,.462,1.5Z" transform="translate(-132.496 -15.49)"/><path class="a" d="M322.458,34.811a1.7,1.7,0,0,0-.573-.642,2.271,2.271,0,0,0-.979-.148H307.235a2.272,2.272,0,0,0-.979.148,1.7,1.7,0,0,0-.573.642l-.887,1.514q-.3.494-.536.823a2.3,2.3,0,0,1-.517.527,1.748,1.748,0,0,1-.647.28,4.33,4.33,0,0,1-.924.082h-3.251a2.48,2.48,0,0,1-1.5-.395,1.244,1.244,0,0,1-.536-1.054A2.321,2.321,0,0,1,297.3,35.3l11.343-18.267a3.252,3.252,0,0,1,1-1.07,2.883,2.883,0,0,1,1.479-.313h5.911a2.777,2.777,0,0,1,1.46.313,3.726,3.726,0,0,1,1.016,1.07L330.993,35.3a2.564,2.564,0,0,1,.407,1.284,1.191,1.191,0,0,1-.591,1.086,2.708,2.708,0,0,1-1.441.362h-3.51a3.858,3.858,0,0,1-.868-.082,1.751,1.751,0,0,1-.628-.28,2.3,2.3,0,0,1-.517-.527,6.585,6.585,0,0,1-.5-.823Zm-7.722-13.824q-.3-.526-.665-.526c-.246,0-.468.176-.665.526l-4.028,7.143a1.43,1.43,0,0,0-.221.658q0,.56.887.559h8.018q.887,0,.887-.559a1.434,1.434,0,0,0-.222-.658Z" transform="translate(-189.444 -15.49)"/><path class="a" d="M430.176,35.239a2.474,2.474,0,0,1-.906,2.123,4.16,4.16,0,0,1-2.531.674H420.9a7.479,7.479,0,0,1-1.2-.082,3.367,3.367,0,0,1-.887-.263,2.64,2.64,0,0,1-.7-.477,9.755,9.755,0,0,1-.683-.724L405.938,22.929a6.232,6.232,0,0,0-.573-.609.788.788,0,0,0-.536-.214.7.7,0,0,0-.48.165.824.824,0,0,0-.184.625V36.062a2.163,2.163,0,0,1-.444,1.464,1.918,1.918,0,0,1-1.515.51h-3.362a1.914,1.914,0,0,1-1.534-.543,2.238,2.238,0,0,1-.462-1.5V18.453a2.473,2.473,0,0,1,.906-2.123,4.161,4.161,0,0,1,2.531-.675h5.986a7.185,7.185,0,0,1,1.183.082,3.441,3.441,0,0,1,.868.263,2.972,2.972,0,0,1,.721.477,7.841,7.841,0,0,1,.7.724l11.343,13.56a6.02,6.02,0,0,0,.573.609.783.783,0,0,0,.536.214.7.7,0,0,0,.48-.165.826.826,0,0,0,.184-.625V17.63a2.167,2.167,0,0,1,.443-1.464,1.922,1.922,0,0,1,1.515-.51h3.362a1.916,1.916,0,0,1,1.534.543,2.24,2.24,0,0,1,.462,1.5Z" transform="translate(-251.161 -15.49)"/></g><g transform="translate(107.527 43.212)"><path class="a" d="M255.188,98.587V88.846h1.456v9.741Z" transform="translate(-255.188 -88.668)"/><path class="a" d="M266.88,98.587V88.846h1.509l4.158,6.118,1.246,2.02h.07q-.053-.742-.114-1.537t-.061-1.567V88.846h1.386v9.741h-1.509l-4.175-6.133-1.245-2h-.07q.07.743.132,1.507t.062,1.537v5.093Z" transform="translate(-262.407 -88.668)"/><path class="a" d="M298.017,98.478a6.372,6.372,0,0,1-2.246-.386,5.639,5.639,0,0,1-1.789-1.054l.877-.861a4.867,4.867,0,0,0,1.448.883,4.593,4.593,0,0,0,1.728.334,3.079,3.079,0,0,0,1.772-.438,1.343,1.343,0,0,0,.632-1.151,1.249,1.249,0,0,0-.149-.631,1.428,1.428,0,0,0-.4-.446,3.006,3.006,0,0,0-.605-.334q-.351-.149-.754-.312l-1.649-.609a8.37,8.37,0,0,1-.824-.357,3.324,3.324,0,0,1-.754-.5,2.408,2.408,0,0,1-.544-.705,2.134,2.134,0,0,1,.061-1.968,2.615,2.615,0,0,1,.754-.824,3.713,3.713,0,0,1,1.14-.542,5.121,5.121,0,0,1,1.448-.193,5.324,5.324,0,0,1,1.912.334,4.906,4.906,0,0,1,1.491.868l-.79.8a4.2,4.2,0,0,0-1.166-.676,4.028,4.028,0,0,0-1.447-.245,2.829,2.829,0,0,0-1.553.379,1.181,1.181,0,0,0-.588,1.047,1.043,1.043,0,0,0,.167.6,1.591,1.591,0,0,0,.447.431,3.769,3.769,0,0,0,.614.327q.333.141.684.26l1.631.594a7.5,7.5,0,0,1,.93.408,3.264,3.264,0,0,1,.754.535,2.2,2.2,0,0,1,.684,1.655,2.252,2.252,0,0,1-.272,1.085,2.69,2.69,0,0,1-.781.883,3.9,3.9,0,0,1-1.228.594A5.7,5.7,0,0,1,298.017,98.478Z" transform="translate(-279.141 -88.38)"/><path class="a" d="M320.3,98.587V88.846h3.281a9.666,9.666,0,0,1,1.763.148,4.127,4.127,0,0,1,1.36.482,2.418,2.418,0,0,1,.877.884,2.671,2.671,0,0,1,.316,1.351,2.757,2.757,0,0,1-.307,1.337,2.6,2.6,0,0,1-.868.936,4.152,4.152,0,0,1-1.342.557,7.472,7.472,0,0,1-1.728.186h-1.894v3.861Zm1.456-4.871h1.719a4.11,4.11,0,0,0,2.237-.482,1.694,1.694,0,0,0,.728-1.522,1.512,1.512,0,0,0-.763-1.463,4.961,4.961,0,0,0-2.272-.409h-1.649Z" transform="translate(-295.392 -88.668)"/><path class="a" d="M345.892,98.587V88.846h1.456v9.741Z" transform="translate(-311.192 -88.668)"/><path class="a" d="M357.584,98.587V88.846h3.6a8.738,8.738,0,0,1,1.623.141,3.794,3.794,0,0,1,1.28.467,2.364,2.364,0,0,1,.834.847,2.533,2.533,0,0,1,.3,1.277,2.431,2.431,0,0,1-.7,1.826,3.759,3.759,0,0,1-1.894.936l2.93,4.247H363.9l-2.772-4.113H359.04v4.113Zm1.456-5.123h1.93A3.8,3.8,0,0,0,363.04,93a1.577,1.577,0,0,0,.719-1.418,1.4,1.4,0,0,0-.719-1.351,4.463,4.463,0,0,0-2.07-.386h-1.93Z" transform="translate(-318.411 -88.668)"/><path class="a" d="M383.309,98.587V88.846h6.631v1.039h-5.175v3.059h4.368V94h-4.368v3.535h5.351v1.054Z" transform="translate(-334.294 -88.668)"/><path class="a" d="M406.071,98.683V95.238L402.615,89h2.772l1.018,2.228q.245.549.465,1.062t.464,1.077h.07q.246-.564.482-1.077t.482-1.062L409.4,89h2.7l-3.456,6.237v3.445Z" transform="translate(-346.214 -88.763)"/><path class="a" d="M433.167,98.574a6.126,6.126,0,0,1-2.114-.349,4.651,4.651,0,0,1-1.64-1,4.481,4.481,0,0,1-1.061-1.589,6.146,6.146,0,0,1,0-4.24,4.278,4.278,0,0,1,1.061-1.559,4.646,4.646,0,0,1,1.64-.965,6.851,6.851,0,0,1,4.228,0,4.592,4.592,0,0,1,1.64.972,4.355,4.355,0,0,1,1.061,1.567,5.545,5.545,0,0,1,.377,2.1,5.64,5.64,0,0,1-.377,2.123,4.486,4.486,0,0,1-1.061,1.589,4.649,4.649,0,0,1-1.64,1A6.131,6.131,0,0,1,433.167,98.574Zm0-1.886a2.257,2.257,0,0,0,1.86-.854,3.619,3.619,0,0,0,.684-2.324,3.438,3.438,0,0,0-.684-2.272,2.525,2.525,0,0,0-3.719,0,3.434,3.434,0,0,0-.684,2.272,3.614,3.614,0,0,0,.684,2.324A2.255,2.255,0,0,0,433.167,96.688Z" transform="translate(-361.872 -88.476)"/><path class="a" d="M464.79,98.861a4.764,4.764,0,0,1-3.4-1.114,4.7,4.7,0,0,1-1.175-3.549V89h2.6v5.42a2.991,2.991,0,0,0,.509,1.99,1.882,1.882,0,0,0,1.474.564,1.939,1.939,0,0,0,1.491-.564,2.92,2.92,0,0,0,.526-1.99V89H469.3v5.2a4.763,4.763,0,0,1-1.149,3.549A4.64,4.64,0,0,1,464.79,98.861Z" transform="translate(-381.776 -88.763)"/></g></g></svg>