<svg xmlns="http://www.w3.org/2000/svg" width="165.215" height="39.084" viewBox="0 0 165.215 39.084"><defs><style>.a{fill:#3e3e3e;}</style></defs><g transform="translate(-96.597 -208.709)"><path class="a" d="M218.508,209.5c1.085,0,2.026-.007,2.967,0,2.313.02,4.627.064,6.941.068,4.489.01,7.941,1.889,10.053,5.859,2.715,5.1,1.187,12.658-4.137,15.823a1.461,1.461,0,0,0-.68,2.246c1.862,3.938,3.636,7.919,5.357,11.92,1,2.334.637,2.786-1.871,2.313a2.644,2.644,0,0,1-1.548-1.359c-1.684-3.463-3.268-6.974-4.877-10.473a11.228,11.228,0,0,0-.886-1.989,2.143,2.143,0,0,0-1.395-.817c-1.662-.1-3.337.012-5-.06-.977-.043-1.279.279-1.268,1.255.046,3.891.02,7.784.015,11.676,0,1.613-.256,1.771-2.009,1.842-1.433.058-1.677-.67-1.674-1.889q.041-15.5.015-31Zm3.857,11.795H222.3c0,2.174.034,4.35-.016,6.523-.022.949.277,1.343,1.268,1.3,1.571-.066,3.153.05,4.719-.065a9.749,9.749,0,0,0,3.344-.674,8.159,8.159,0,0,0,3.973-9.754c-.821-2.636-2.417-4.581-5.355-4.838-2.249-.2-4.52-.133-6.779-.247-.967-.048-1.141.348-1.113,1.228C222.409,216.946,222.365,219.123,222.365,221.3Z" transform="translate(-56.255 -0.365)"/><path class="a" d="M100.347,209.474v5.268c0,3.478.006,6.956,0,10.434,0,.925.274,1.383,1.358,1.37q7.163-.089,14.328,0c1.244.017,1.465-.489,1.456-1.566-.04-4.5-.018-9-.017-13.494,0-1.952.627-2.46,2.6-2.1.316.058.624.15,1.081.262v1.76q0,17.181-.033,34.362c0,.611-.289,1.64-.649,1.742a4.68,4.68,0,0,1-2.532-.164c-.278-.087-.445-.936-.449-1.439-.033-4.637-.057-9.275.006-13.911.016-1.223-.358-1.6-1.581-1.586q-7.094.092-14.189,0c-1.064-.013-1.4.4-1.386,1.355.049,3.751.1,7.5.126,11.251.007,1.136-.119,2.273-.111,3.409.009,1.234-.8,1.248-1.681,1.263-.967.017-1.9,0-2.054-1.268a9.449,9.449,0,0,1-.013-1.112q0-16.833,0-33.666c0-2.206,0-2.205,2.141-2.172C99.2,209.48,99.661,209.474,100.347,209.474Z" transform="translate(0 -0.263)"/><path class="a" d="M288.291,209.673h3.719c0,1.626,0,3.164,0,4.7,0,5.1-.023,10.2.015,15.294.02,2.817.034,5.642.25,8.448.264,3.433,2.387,6.587,6.576,6.287a11.49,11.49,0,0,1,1.806,0c3.621.315,6.033-2.766,6.271-5.837.181-2.342.279-4.7.293-7.047.038-6.766,0-13.533.041-20.3,0-.54.318-1.464.646-1.541a4.768,4.768,0,0,1,2.719.061c.379.151.5,1.3.5,2,.036,7.7.1,15.406-.005,23.107-.047,3.458-.556,6.874-2.848,9.73a7.793,7.793,0,0,1-5.617,3.348c-2.832.191-5.742.685-8.4-.683a10.113,10.113,0,0,1-4.947-5.829,24.015,24.015,0,0,1-1.025-8.461C288.294,225.253,288.291,217.561,288.291,209.673Z" transform="translate(-88.466 -0.369)"/><path class="a" d="M359.895,239.37a19.2,19.2,0,0,1,2.918-1.088c.311-.065.9.5,1.14.9,1.879,3.144,4.541,5.019,8.278,4.815,6.141-.335,8.8-5.85,6.72-10.431-.925-2.042-2.731-2.833-4.747-3.4-3.432-.961-6.983-1.64-9.914-3.892a8.062,8.062,0,0,1-3.31-8.5,10.883,10.883,0,0,1,11.9-9.033c4.222.328,7.251,2.658,9.535,6.423l-3.013,1.674c-.745-.826-1.43-1.681-2.213-2.434-2.124-2.044-5.916-2.443-9.074-1.01a6.883,6.883,0,0,0-3.569,6.268,4.749,4.749,0,0,0,2.532,4.112c2.47,1.455,5.208,2,7.905,2.715,3.868,1.025,6.948,3.144,7.906,7.124,1.107,4.6.263,8.713-4.2,11.928-6.14,4.425-14.387,1.9-17.865-4.646C360.587,240.462,360.306,240.047,359.895,239.37Z" transform="translate(-121.513 0)"/><path class="a" d="M176.7,228.553q0-8.757,0-17.513c0-1.424.408-1.758,1.844-1.558,2.082.289,2.082.289,2.082,2.345q0,17.026,0,34.054c0,1.718-.148,1.871-1.777,1.877-1.9.006-2.146-.2-2.147-1.83Q176.7,237.241,176.7,228.553Z" transform="translate(-36.97 -0.332)"/></g></svg>