<svg xmlns="http://www.w3.org/2000/svg" width="135.865" height="62.622" viewBox="0 0 135.865 62.622"><defs><style>.a{fill:#3e3e3e;}</style></defs><g transform="translate(-8.5 -11.189)"><g transform="translate(8.5 11.189)"><g transform="translate(0 0)"><path class="a" d="M16.362,34.489a8.083,8.083,0,0,1-3.2-.615,7.261,7.261,0,0,1-2.486-1.729,7.85,7.85,0,0,1-1.61-2.6A9.039,9.039,0,0,1,8.5,26.3V19.05a7.3,7.3,0,0,1,.639-3.031,8.223,8.223,0,0,1,4.191-4.192,7.3,7.3,0,0,1,3.031-.639h7.388a7.3,7.3,0,0,1,3.031.639,8.224,8.224,0,0,1,4.191,4.192,7.3,7.3,0,0,1,.639,3.031V26.3a8.014,8.014,0,0,1-.663,3.291,8.278,8.278,0,0,1-4.31,4.286,7.213,7.213,0,0,1-2.889.615ZM27.87,19.05a3.876,3.876,0,0,0-.331-1.563,4.261,4.261,0,0,0-2.226-2.226,3.87,3.87,0,0,0-1.563-.332H16.362a3.814,3.814,0,0,0-1.586.332,4.364,4.364,0,0,0-1.3.9,4.283,4.283,0,0,0-.9,1.326,3.857,3.857,0,0,0-.331,1.563V26.3a4.4,4.4,0,0,0,1.16,3.22,3.964,3.964,0,0,0,2.96,1.184h7.293a3.972,3.972,0,0,0,1.61-.332,4.189,4.189,0,0,0,1.35-.947,4.586,4.586,0,0,0,.923-1.4A4.393,4.393,0,0,0,27.87,26.3Z" transform="translate(-8.5 -11.189)"/><path class="a" d="M102.606,34.61a7.3,7.3,0,0,1-3.031-.639,8.608,8.608,0,0,1-2.51-1.7,8.073,8.073,0,0,1-1.729-2.486,7.3,7.3,0,0,1-.64-3.031V11.357h3.694V26.749a3.69,3.69,0,0,0,.331,1.539,4.16,4.16,0,0,0,.923,1.3,4.575,4.575,0,0,0,1.35.9,3.971,3.971,0,0,0,1.61.332h7.435a3.862,3.862,0,0,0,1.563-.332,4.278,4.278,0,0,0,1.326-.9,4.374,4.374,0,0,0,.9-1.3,3.7,3.7,0,0,0,.331-1.539V11.357h3.789V26.749a7.3,7.3,0,0,1-.64,3.031,8.091,8.091,0,0,1-1.728,2.486,8.617,8.617,0,0,1-2.51,1.7,7.3,7.3,0,0,1-3.031.639Z" transform="translate(-70.45 -11.31)"/><path class="a" d="M200.676,20.566a6.4,6.4,0,0,0-1.184-4.31A3.731,3.731,0,0,0,196.6,14.93h-7.341a3.971,3.971,0,0,0-4.12,4.12V34.489H181.4V19.05a8.092,8.092,0,0,1,.592-3.1,7.505,7.505,0,0,1,4.167-4.168,8.1,8.1,0,0,1,3.1-.592H196.6a7.532,7.532,0,0,1,3.126.639,7.033,7.033,0,0,1,2.462,1.847,8.825,8.825,0,0,1,1.634,2.936,12.19,12.19,0,0,1,.592,3.954Z" transform="translate(-132.765 -11.189)"/><path class="a" d="M275.123,34.489a8.078,8.078,0,0,1-3.2-.615,7.255,7.255,0,0,1-2.487-1.729,7.859,7.859,0,0,1-1.61-2.6,9.033,9.033,0,0,1-.569-3.244V19.05a7.3,7.3,0,0,1,.639-3.031,8.226,8.226,0,0,1,4.191-4.192,7.3,7.3,0,0,1,3.031-.639h7.388a7.3,7.3,0,0,1,3.031.639,8.221,8.221,0,0,1,4.191,4.192,7.3,7.3,0,0,1,.639,3.031V26.3a8.019,8.019,0,0,1-.663,3.291,8.282,8.282,0,0,1-4.309,4.286,7.219,7.219,0,0,1-2.889.615ZM286.631,19.05a3.867,3.867,0,0,0-.332-1.563,4.256,4.256,0,0,0-2.225-2.226,3.875,3.875,0,0,0-1.563-.332h-7.388a3.818,3.818,0,0,0-1.587.332,4.363,4.363,0,0,0-1.3.9,4.274,4.274,0,0,0-.9,1.326A3.857,3.857,0,0,0,271,19.05V26.3a4.4,4.4,0,0,0,1.16,3.22,3.966,3.966,0,0,0,2.96,1.184h7.293a3.971,3.971,0,0,0,1.61-.332,4.183,4.183,0,0,0,1.35-.947,4.58,4.58,0,0,0,.923-1.4,4.383,4.383,0,0,0,.332-1.729Z" transform="translate(-194.473 -11.189)"/></g></g><g transform="translate(9.646 41.276)"><g transform="translate(0 0)"><path class="a" d="M33.354,138.766h-16.6v12.883c0,.3-.163.455-.486.455H13.012q-.437,0-.437-.455v-31.02q0-.5.437-.5H33.354a17.658,17.658,0,0,1,4.709.556,7.061,7.061,0,0,1,3.156,1.718,7.944,7.944,0,0,1,1.748,3.158,16.155,16.155,0,0,1,.631,4.824Q43.6,138.766,33.354,138.766Zm6.117-10.1a5.109,5.109,0,0,0-.437-2.223,3.087,3.087,0,0,0-1.408-1.414,6.634,6.634,0,0,0-1.8-.531,16.474,16.474,0,0,0-2.622-.177H16.751v10.256H33.208a11.072,11.072,0,0,0,4.418-.657v.051a3.035,3.035,0,0,0,1.408-1.465,5.449,5.449,0,0,0,.437-2.274Z" transform="translate(-12.575 -119.568)"/><path class="a" d="M151.175,147.784c-.259,0-.388-.168-.388-.505q0-6.669-5.195-6.669h-6.7a4.67,4.67,0,0,0-3.981,1.667,8.231,8.231,0,0,0-1.262,5v16.116c0,.3-.163.455-.486.455h-2.718c-.227,0-.34-.152-.34-.455V147.228a17.9,17.9,0,0,1,.34-3.865,13.209,13.209,0,0,1,.583-2.046.149.149,0,0,1,.049-.1.21.21,0,0,1,.048-.151,8.215,8.215,0,0,1,2.573-3.41,5.31,5.31,0,0,1,3.156-1.187h8.981A7.684,7.684,0,0,1,152,139.145q2.33,2.83,2.33,8.134,0,.505-.437.505Z" transform="translate(-97.045 -131.314)"/><path class="a" d="M246.36,146.549q.048.506.049.96v5.457q-.146,3.436-.437,5.583a9.269,9.269,0,0,1-.995,3.36,3.54,3.54,0,0,1-1.991,1.642,10.9,10.9,0,0,1-3.373.429H227.767q-6.021,0-6.02-7.073v-2.526a15.224,15.224,0,0,1,.413-3.864,4.51,4.51,0,0,1,1.457-2.4,6.338,6.338,0,0,1,2.84-1.213,24.016,24.016,0,0,1,4.514-.354h11.6l-.049-.656a6.658,6.658,0,0,0-1.117-3.79c-.032,0-.081-.033-.146-.1a3.8,3.8,0,0,0-2.864-1.162h-7.913q-4.224,0-4.224,3.89,0,.506-.388.505h-2.816q-.437,0-.437-.505v-.606a7.275,7.275,0,0,1,2.33-5.81,6.108,6.108,0,0,1,2.306-1.263,9.432,9.432,0,0,1,2.743-.4h8.69a7.565,7.565,0,0,1,5.68,2.223q2.039,2.172,2.039,7.022Zm-3.762,6.038q.023-1.035.024-1.491H228.786a3.764,3.764,0,0,0-2.33.505q-1.263.557-1.262,2.829v2.021q0,3.386,3.592,3.385h9.953q3.738,0,3.738-4.446Q242.574,153.622,242.6,152.586Z" transform="translate(-162.908 -131.443)"/><path class="a" d="M341.65,142.954c.032,0,.049.05.049.152a9.126,9.126,0,0,1-.558,3.309,6.941,6.941,0,0,1-1.821,2.6,5.837,5.837,0,0,1-2.088,1.264,7.639,7.639,0,0,1-2.524.4h-5.389a6.083,6.083,0,0,1-3.738-1.086,7.068,7.068,0,0,1-2.282-3.208q-1.359-3.132-1.359-9.3,0-1.767.145-4.951.1-1.465.122-2.425t.024-1.668h-1.893q-.389,0-.388-.505v-3.89q0-.455.388-.455h1.893v-4.648q0-.4.437-.4h2.767q.389,0,.388.4V123.2h13.5c.323,0,.485.151.485.455v3.89c0,.337-.162.505-.485.505h-13.5v12.782a8.583,8.583,0,0,0,.826,4.269,2.866,2.866,0,0,0,2.67,1.389h5.243a3.7,3.7,0,0,0,2.233-.707,3.026,3.026,0,0,0,1.165-2.677q0-.456.388-.455h2.961a.276.276,0,0,1,.194.051Z" transform="translate(-233.487 -118.148)"/><path class="a" d="M428.439,146.549q.048.506.049.96v5.457q-.146,3.436-.437,5.583a9.259,9.259,0,0,1-.995,3.36,3.539,3.539,0,0,1-1.991,1.642,10.9,10.9,0,0,1-3.374.429H409.845q-6.02,0-6.02-7.073v-2.526a15.238,15.238,0,0,1,.413-3.864,4.512,4.512,0,0,1,1.457-2.4,6.337,6.337,0,0,1,2.84-1.213,24.02,24.02,0,0,1,4.515-.354h11.6l-.049-.656a6.663,6.663,0,0,0-1.117-3.79c-.033,0-.081-.033-.146-.1a3.8,3.8,0,0,0-2.864-1.162h-7.913q-4.224,0-4.224,3.89,0,.506-.388.505h-2.816q-.438,0-.437-.505v-.606a7.276,7.276,0,0,1,2.33-5.81,6.106,6.106,0,0,1,2.306-1.263,9.431,9.431,0,0,1,2.743-.4h8.69a7.567,7.567,0,0,1,5.68,2.223q2.039,2.172,2.039,7.022Zm-3.763,6.038q.024-1.035.024-1.491H410.865a3.765,3.765,0,0,0-2.331.505q-1.263.557-1.262,2.829v2.021q0,3.386,3.592,3.385h9.952q3.738,0,3.738-4.446Q424.651,153.622,424.676,152.586Z" transform="translate(-293.769 -131.443)"/></g></g></g></svg>