<svg xmlns="http://www.w3.org/2000/svg" width="110.239" height="65.9" viewBox="0 0 110.239 65.9"><defs><style>.a{fill:#3e3e3e;}</style></defs><g transform="translate(-16.615 -7.985)"><path class="a" d="M115.621,73.875,71.684,7.985,46.417,45.9a11.572,11.572,0,0,1,.982.688q14.7,13.222,29.413,26.418a4.14,4.14,0,0,0,2.535.83c6.778.066,13.557.036,20.336.036ZM16.615,25.062c.063.4.076.52.1.639Q21.884,49.082,27.04,72.465c.316,1.441,1.288,1.421,2.408,1.42q19.59-.022,39.18-.013c.572,0,1.145-.064,2.1-.121ZM117.278,68.069l9.577-43.089c-7.824,7.034-15.412,13.87-23.024,20.68-.8.718-.692,1.3-.137,2.086,1.085,1.535,2.091,3.126,3.136,4.69C110.2,57.481,113.572,62.524,117.278,68.069Z" transform="translate(0 0)"/></g></svg>