<svg xmlns="http://www.w3.org/2000/svg" width="158.184" height="37.994" viewBox="0 0 158.184 37.994"><defs><style>.a{fill:#3e3e3e;}</style></defs><path class="a" d="M47.766,15.217l-2.955,2.192a15.99,15.99,0,0,0-5.866-4.661,17.609,17.609,0,0,0-7.517-1.587,17.071,17.071,0,0,0-8.29,2.083,14.923,14.923,0,0,0-8.013,13.471,14.561,14.561,0,0,0,4.693,11.052A16.559,16.559,0,0,0,31.663,42.2a16.887,16.887,0,0,0,13.149-5.946l2.955,2.167a18.808,18.808,0,0,1-6.987,5.325,22.608,22.608,0,0,1-9.351,1.881q-9.829,0-15.5-6.324A18.682,18.682,0,0,1,11.162,26.42a17.622,17.622,0,0,1,5.762-13.362A20.27,20.27,0,0,1,31.376,7.633,21.93,21.93,0,0,1,40.84,9.624a18.341,18.341,0,0,1,6.926,5.593Zm5.579,2.746H57v3.914a12.314,12.314,0,0,1,3.441-3.443,7.078,7.078,0,0,1,3.772-1.125,6.692,6.692,0,0,1,3.163.907L65.512,21.1a5.122,5.122,0,0,0-1.886-.47,5.257,5.257,0,0,0-3.441,1.411,8.919,8.919,0,0,0-2.529,4.392q-.665,2.28-.66,9.238V44.72h-3.65V17.963Zm44.626,0V44.72H94.425v-4.6A14.965,14.965,0,0,1,89.4,44.065a14.1,14.1,0,0,1-6.084,1.31A13.758,13.758,0,0,1,73.29,41.268a13.537,13.537,0,0,1-4.154-10,13.285,13.285,0,0,1,4.2-9.859,13.908,13.908,0,0,1,10.09-4.1,13.544,13.544,0,0,1,6.162,1.386,13.736,13.736,0,0,1,4.84,4.191V17.963ZM83.7,20.634a10.99,10.99,0,0,0-5.484,1.411,10.613,10.613,0,0,0-3.989,14.722,10.64,10.64,0,0,0,4.023,4A10.8,10.8,0,0,0,83.675,42.2,11.388,11.388,0,0,0,89.2,40.782a10.091,10.091,0,0,0,4.024-3.847,10.658,10.658,0,0,0,1.408-5.459,10.4,10.4,0,0,0-3.163-7.735,10.631,10.631,0,0,0-7.77-3.108ZM109.086,7.986h3.546v9.977h5.631v2.973h-5.631V44.72h-3.546V20.936h-4.849V17.963h4.849V7.986Zm14.122,9.977h3.546V30.451a25.749,25.749,0,0,0,.513,6.29,7.009,7.009,0,0,0,2.92,3.88,9.125,9.125,0,0,0,5.145,1.428,8.943,8.943,0,0,0,5.066-1.386,7.143,7.143,0,0,0,2.868-3.653,24.856,24.856,0,0,0,.539-6.559V17.963h3.65V31.081q0,5.531-1.338,8.323a9.887,9.887,0,0,1-4.024,4.384,13.049,13.049,0,0,1-6.735,1.587,13.191,13.191,0,0,1-6.761-1.587,9.84,9.84,0,0,1-4.05-4.418q-1.343-2.835-1.338-8.533V17.963Zm46.137,2.906-2.294,2.284c-1.9-1.78-3.772-2.671-5.588-2.671a4.3,4.3,0,0,0-2.972,1.109,3.357,3.357,0,0,0-1.243,2.578,3.743,3.743,0,0,0,1.017,2.478,14.32,14.32,0,0,0,4.284,2.83,15.961,15.961,0,0,1,5.4,3.83,6.846,6.846,0,0,1,1.4,4.2,7.425,7.425,0,0,1-2.4,5.585,8.364,8.364,0,0,1-6,2.284,10.817,10.817,0,0,1-4.58-1.008,9.885,9.885,0,0,1-3.606-2.78l2.242-2.461a7.883,7.883,0,0,0,5.8,2.973,5.357,5.357,0,0,0,3.65-1.327,4.044,4.044,0,0,0,1.5-3.116,3.93,3.93,0,0,0-.991-2.629,16.034,16.034,0,0,0-4.493-2.847,14.262,14.262,0,0,1-5.1-3.678,6.731,6.731,0,0,1-1.356-4.14,6.627,6.627,0,0,1,2.155-5.047,7.719,7.719,0,0,1,5.457-2.007q3.832,0,7.717,3.561Z" transform="translate(-11.162 -7.633)"/></svg>