<svg xmlns="http://www.w3.org/2000/svg" width="172.716" height="92.862" viewBox="0 0 172.716 92.862"><defs><style>.a,.b{fill:#3e3e3e;}.b{stroke:#05131e;stroke-miterlimit:10;stroke-width:3px;}</style></defs><g transform="translate(-132.541 -309.603)"><path class="a" d="M830.084,553.175l1.516-2.051,6.956,5.908-.848,1.132Z" transform="translate(-538.363 -186.833)"/><path class="a" d="M843.813,592.134h-1.224a5.143,5.143,0,0,1,4.921-5.409,5.009,5.009,0,0,1,5.308,4.71c.138,2,.06,4.024.059,6.037,0,2.932-.02,5.865-.036,8.8a1.086,1.086,0,0,1-.122.3h-1.187l-.162-1.131a1.462,1.462,0,0,0-.4.13,5.225,5.225,0,0,1-6.357.413c-2.215-1.363-2.7-3.54-2.483-5.947a3.71,3.71,0,0,1,2.622-3.155c1.661-.674,3.312-1.4,5.027-1.906a1.971,1.971,0,0,0,1.663-2.542,1.806,1.806,0,0,1,0-.262c-.067-2.18-1.289-3.713-3.129-3.925A3.949,3.949,0,0,0,844,591.281C843.93,591.533,843.887,591.792,843.813,592.134Zm7.375,4.227a1.573,1.573,0,0,0-.444.005c-1.557.568-3.118,1.127-4.663,1.726-2.3.891-2.843,2.012-2.191,4.4a3.818,3.818,0,0,0,3.729,2.738,3.617,3.617,0,0,0,3.537-3.1C851.294,600.217,851.189,598.294,851.189,596.362Z" transform="translate(-547.643 -214.361)"/><path class="a" d="M452.155,601.425h1.277a4.829,4.829,0,0,1-1.946,4.22,5.1,5.1,0,0,1-5.425.782,5.044,5.044,0,0,1-3.32-4.769q-.129-4.849,0-9.7a5.352,5.352,0,0,1,5.473-5.234,5.415,5.415,0,0,1,5.279,5.3,3.551,3.551,0,0,1-2.468,3.506c-1.891.8-3.809,1.54-5.75,2.2a1.321,1.321,0,0,0-1.065,1.618c.077.691,0,1.4.015,2.1a3.9,3.9,0,0,0,7.72.786C452,601.975,452.075,601.725,452.155,601.425Zm-7.808-5.064c2.174-.85,4.186-1.553,6.123-2.421,1.4-.628,1.686-1.566,1.206-3.03a3.746,3.746,0,0,0-3.861-2.521,3.678,3.678,0,0,0-3.452,3.5C444.281,593.28,444.347,594.679,444.347,596.361Z" transform="translate(-238.675 -214.368)"/><path class="a" d="M266.919,548.5v1.327c-3.076.955-3.834,2.655-3.283,7.492h4.075c.03.555.052.965.083,1.53h-4.269v1.546q0,9.974-.007,19.947a5.323,5.323,0,0,1-2.962,5.151,11.471,11.471,0,0,1-1.929.571v-1.456c2.657-.87,3.394-1.908,3.4-4.744q0-12.729.005-25.459C262.033,550.965,263.692,548.924,266.919,548.5Z" transform="translate(-96.301 -184.802)"/><path class="a" d="M363.769,587.88h1.308a11.283,11.283,0,0,1,.113,1.13c.008,4.376-.011,8.751.012,13.126a3.9,3.9,0,1,0,7.795.135c.029-4.288.01-8.576.011-12.864v-1.493h1.431v19.558l-1.327.067-.2-1.3a5.7,5.7,0,0,1-5.217,1.312,5.073,5.073,0,0,1-3.89-4.463C363.693,598.072,363.769,593.046,363.769,587.88Z" transform="translate(-177.616 -215.266)"/><path class="a" d="M194.007,606.564h-1.4V586.988l1.228-.093.283,1.165a1.081,1.081,0,0,0,.339-.1,5.245,5.245,0,0,1,6.02-.574,5.383,5.383,0,0,1,2.834,5.229c-.042,4.591-.012,9.182-.012,13.918l-1.463.1c0-.611,0-1.118,0-1.624,0-4.287.024-8.575-.018-12.862a3.9,3.9,0,0,0-7.58-1.317,5.966,5.966,0,0,0-.216,1.806c-.018,4.156-.011,8.312-.011,12.468Z" transform="translate(-45.227 -214.342)"/><path class="a" d="M533.962,606.673h-1.413v-1.857c0-4.066.013-8.133-.005-12.2-.012-2.579-1.631-4.314-3.947-4.29-2.36.025-3.877,1.7-3.885,4.328-.013,4.154,0,8.307,0,12.461v1.531l-1.427.108V587.122l1.24-.115.247.99a18.48,18.48,0,0,1,3.7-1.137,5.116,5.116,0,0,1,5.453,4.751C534.061,596.587,533.962,601.567,533.962,606.673Z" transform="translate(-301.029 -214.464)"/><path class="a" d="M612.415,601.456h1.207a4.978,4.978,0,0,1-3.463,5.128,5.314,5.314,0,0,1-6.356-2.343,6.34,6.34,0,0,1-.762-2.731c-.091-3.146-.08-6.3-.02-9.444a5.381,5.381,0,0,1,5.522-5.314,5.246,5.246,0,0,1,5.138,5.4h-1.227c-.683-2.586-1.775-3.731-3.68-3.885a3.861,3.861,0,0,0-4.275,3.927c-.042,3.017-.031,6.035-.01,9.052a3.921,3.921,0,0,0,7.765.96C612.31,602,612.346,601.782,612.415,601.456Z" transform="translate(-362.677 -214.392)"/><path class="a" d="M144.09,606.238h-1.433l-1.227-19.6h3.887C144.908,593.173,144.5,599.653,144.09,606.238Z" transform="translate(-5.641 -214.307)"/><path class="a" d="M685.051,606.326h-1.433c-.409-6.5-.816-12.984-1.23-19.581h3.881Z" transform="translate(-424.109 -214.388)"/><path class="a" d="M787.823,563.429h1.38v5.416h4.2c.037.556.065.96.1,1.535h-4.247c0,2.334,0,4.509,0,6.683,0,2.012,0,4.025,0,6.037.007,2.454.962,3.7,3.376,4.361v1.22a4.712,4.712,0,0,1-4.734-4.039,8.8,8.8,0,0,1-.142-1.566q-.014-9.318,0-18.636C787.756,564.14,787.795,563.84,787.823,563.429Z" transform="translate(-505.615 -196.352)"/><path class="a" d="M734.908,569.06H739.1v1.451h-3.854c-.152.183-.255.249-.255.316-.019,4.377-.082,8.754-.017,13.13.028,1.87,1.245,3.073,3.364,3.622l.066,1.19a4.637,4.637,0,0,1-4.823-4.092,7.826,7.826,0,0,1-.105-1.308q-.011-9.456,0-18.913c0-.257.043-.513.073-.857h1.367Z" transform="translate(-463.621 -196.484)"/><path class="a" d="M324.509,576.8h-1.246V548.365l1.246-.135Z" transform="translate(-146.301 -184.594)"/><path class="a" d="M856.5,629.29c0,1.932.1,3.855-.031,5.761a3.617,3.617,0,0,1-3.537,3.1,3.818,3.818,0,0,1-3.729-2.738c-.653-2.384-.106-3.505,2.191-4.4,1.545-.6,3.106-1.158,4.663-1.726A1.573,1.573,0,0,1,856.5,629.29Z" transform="translate(-552.954 -247.289)"/><path class="a" d="M449.971,602c0-1.683-.065-3.081.016-4.472a3.678,3.678,0,0,1,3.452-3.5,3.746,3.746,0,0,1,3.861,2.521c.48,1.464.195,2.4-1.206,3.03C454.157,600.45,452.145,601.153,449.971,602Z" transform="translate(-244.299 -220.009)"/><path class="b" d="M136.756,688.972s-1.314-.263-2.364,1.576,1.314,3.941,4.466,2.89,1.314-3.941,1.314-3.941-2.627-1.839-3.678-1.314Z" transform="translate(0 -292.785)"/><path class="b" d="M677.413,688.972s-1.314-.263-2.364,1.576,1.314,3.941,4.466,2.89,1.313-3.941,1.313-3.941-2.627-1.839-3.678-1.314Z" transform="translate(-418.236 -292.785)"/><g transform="translate(152.657 309.603)"><path class="a" d="M216.135,407.106s10.246-16.813,18.127-22.067c0,0,.526-.263,1.576,1.051s31,37.83,31,37.83-21.017-3.152-50.7-15.5C215.832,408.293,215.872,407.631,216.135,407.106Z" transform="translate(-215.923 -367.941)"/><path class="a" d="M322.127,339.824s5.517-6.831,17.339-8.669a2.826,2.826,0,0,1,2.5,1.708c1.051,1.839,13.4,36.516,12.347,44.4,0,0-31.525-30.211-32.05-34.414C322.258,342.845,321.47,341.007,322.127,339.824Z" transform="translate(-297.877 -326.273)"/><path class="a" d="M428.049,311.857s6.042-2.364,21.542-1.839c0,0-1.576,45.448-4.466,48.075C445.125,358.093,425.947,320.526,428.049,311.857Z" transform="translate(-379.893 -309.865)"/><path class="a" d="M527.987,309.756c5.517-.788,20.228,1.576,22.33,4.729,0,0-9.195,36.779-18.127,42.558C532.19,357.043,524.812,310.21,527.987,309.756Z" transform="translate(-456.712 -309.603)"/><path class="a" d="M607.482,334.187c-1.5-.557-1.839.526-3.678,5.254s-9.195,34.94-7.093,39.931c0,0,7.093-2.1,18.127-18.389,0,0,10.771-11.945,10.771-15.237C625.609,343.119,621.668,339.441,607.482,334.187Z" transform="translate(-510.2 -328.517)"/><path class="a" d="M621.193,438.654s16.551-21.279,17.076-22.33,10.245-12.347,13.135-12.085,12.61,16.813,12.085,17.6S657.709,432.349,621.193,438.654Z" transform="translate(-529.428 -382.808)"/></g></g></svg>