<svg xmlns="http://www.w3.org/2000/svg" width="123.467" height="73.77" viewBox="0 0 123.467 73.77"><defs><style>.a{fill:#939393;}</style></defs><g transform="translate(-6.283 -4.381)"><g transform="translate(6.283 4.381)"><path class="a" d="M6.283,18.483h6.258V4.381H25.149v14.1H37.757l-2.241,9.153H25.149V51.172a4.732,4.732,0,0,0,.747,3.082q.747.84,3.269.841h7.472v10.46H25.149q-5.978,0-9.293-2.942t-3.315-9.666V27.636H6.283Z" transform="translate(-6.283 -4.381)"/><path class="a" d="M164.194,94.6a23.291,23.291,0,0,1-8.5,7.051,24.242,24.242,0,0,1-10.647,2.382,25.706,25.706,0,0,1-9.713-1.774,21.926,21.926,0,0,1-7.611-5.09,23.1,23.1,0,0,1-5-7.938,28.584,28.584,0,0,1-1.775-10.32,27.309,27.309,0,0,1,1.868-10.32,24.309,24.309,0,0,1,5.09-7.938,22.192,22.192,0,0,1,7.518-5.09,23.987,23.987,0,0,1,9.246-1.775,21.685,21.685,0,0,1,9.2,1.962,23,23,0,0,1,7.378,5.37,25.116,25.116,0,0,1,4.9,7.985,26.908,26.908,0,0,1,1.775,9.807,24.484,24.484,0,0,1-.56,5.323h-33.9a9.531,9.531,0,0,0,1.4,4.156,10.6,10.6,0,0,0,2.662,2.848,11.138,11.138,0,0,0,3.456,1.681,13.736,13.736,0,0,0,3.876.56,15.943,15.943,0,0,0,5.931-1.167,14.313,14.313,0,0,0,5.37-3.876Zm-8.406-18.4a12.177,12.177,0,0,0-.934-4.81,11.8,11.8,0,0,0-6.117-6.258,9.984,9.984,0,0,0-4.063-.887,11.775,11.775,0,0,0-4.623.887,10.979,10.979,0,0,0-3.642,2.475,11.619,11.619,0,0,0-2.428,3.783,12.7,12.7,0,0,0-.887,4.81Z" transform="translate(-91.906 -41.273)"/><path class="a" d="M351.5,94.6a23.291,23.291,0,0,1-8.5,7.051,24.242,24.242,0,0,1-10.647,2.382,25.706,25.706,0,0,1-9.713-1.774,21.926,21.926,0,0,1-7.611-5.09,23.1,23.1,0,0,1-5-7.938,28.584,28.584,0,0,1-1.775-10.32,27.31,27.31,0,0,1,1.868-10.32,24.306,24.306,0,0,1,5.09-7.938,22.188,22.188,0,0,1,7.518-5.09,23.987,23.987,0,0,1,9.246-1.775,21.685,21.685,0,0,1,9.2,1.962,23,23,0,0,1,7.378,5.37,25.122,25.122,0,0,1,4.9,7.985,26.913,26.913,0,0,1,1.775,9.807,24.482,24.482,0,0,1-.56,5.323h-33.9a9.533,9.533,0,0,0,1.4,4.156,10.6,10.6,0,0,0,2.662,2.848,11.138,11.138,0,0,0,3.456,1.681,13.736,13.736,0,0,0,3.876.56,15.943,15.943,0,0,0,5.931-1.167,14.313,14.313,0,0,0,5.37-3.876ZM343.09,76.2a12.181,12.181,0,0,0-.934-4.81,11.8,11.8,0,0,0-6.118-6.258,9.984,9.984,0,0,0-4.063-.887,11.775,11.775,0,0,0-4.623.887,10.979,10.979,0,0,0-3.642,2.475,11.619,11.619,0,0,0-2.428,3.783,12.7,12.7,0,0,0-.887,4.81Z" transform="translate(-231.765 -41.273)"/></g><g transform="translate(55.975 56.605)"><path d="M207.975,221.3q-.555,1.263-1.094,2.6t-1.032,2.665q-.492,1.325-.893,2.6t-.678,2.419a.888.888,0,0,0,.061.293c.042.113.077.226.108.339a1.917,1.917,0,0,1,.062.323c.011.1-.025.164-.108.185-.164.082-.277.072-.339-.031a1,1,0,0,0-.339-.308.462.462,0,0,0-.185-.062.217.217,0,0,1-.092-.015.336.336,0,0,1-.077-.062,1.2,1.2,0,0,1-.139-.2c-.041-.042-.062-.072-.062-.092v-.031a.506.506,0,0,1,.031-.154,1.957,1.957,0,0,1,.031-.37v-.154a1.731,1.731,0,0,1,.031-.339v-.246c0-.021-.005,0-.016.062a1.343,1.343,0,0,0-.015.216.48.48,0,0,1-.015.123.671.671,0,0,0-.015.154,1.492,1.492,0,0,0-.031.293v.293a.12.12,0,0,1-.015.077.122.122,0,0,0-.015.077q-.154-.216-.139-.139c.011.051-.015.1-.077.139a.187.187,0,0,1-.277,0,.484.484,0,0,1-.185-.123,28.925,28.925,0,0,1,.262-2.912q.2-1.4.462-2.588t.555-2.111q.293-.924.508-1.54a2.129,2.129,0,0,1-.339.138.959.959,0,0,0-.246.108l-.185.093V222.9a.747.747,0,0,1,.015-.139,1.022,1.022,0,0,0,.015-.2.187.187,0,0,1,.046-.139.618.618,0,0,1,.092-.077.666.666,0,0,0,.108-.092.467.467,0,0,0,.093-.246.765.765,0,0,1,.154-.277,2.008,2.008,0,0,1,.293-.293q.169-.139.354-.262c.123-.082.226-.154.308-.216a39.448,39.448,0,0,1,2.2-4.129q1.093-1.756,1.987-2.927a19.516,19.516,0,0,1,2-2.311h.277a.7.7,0,0,1,.216-.092.459.459,0,0,1,.339,0,.536.536,0,0,0,.231.108.967.967,0,0,1,.354.2,1.319,1.319,0,0,1,.324.431,1.669,1.669,0,0,1,.138.739,5.731,5.731,0,0,1-.154,1.171,10.362,10.362,0,0,1-.447,1.479,11.6,11.6,0,0,1-.724,1.541,6.757,6.757,0,0,1-.986,1.356.476.476,0,0,1-.123.092q-.123.062-.123,0c-.021-.062-.077-.087-.169-.077s-.129-.025-.108-.108c.02-.061-.031-.082-.154-.061s-.164-.02-.123-.123a6.21,6.21,0,0,1,.37-.647q.339-.555.724-1.34a15.583,15.583,0,0,0,.709-1.71,5.317,5.317,0,0,0,.324-1.756l-1.048,2.1q-.493.986-1.125,2.3t-1.309,2.819a25.708,25.708,0,0,1,2.557-.385,17.77,17.77,0,0,1,2.65-.077.09.09,0,0,1,.031.062.59.59,0,0,1-.031.185c-.021.1-.031.139-.031.108v.077c0,.082-.062.164-.185.246a.481.481,0,0,1-.185.123,19.7,19.7,0,0,0-2.773.323A25.717,25.717,0,0,0,207.975,221.3Zm-3.969,4.1a10.6,10.6,0,0,1,.309-1.079q.218-.647.465-1.417l.093-.185.031-.092.031-.092a2.04,2.04,0,0,1,.155-.37.472.472,0,0,1,.062-.185.066.066,0,0,1,.015-.046.058.058,0,0,0,.016-.046.064.064,0,0,1,.015-.046.062.062,0,0,0,.015-.046.481.481,0,0,0,.078-.169.488.488,0,0,1,.077-.169.471.471,0,0,0,.077-.185.279.279,0,0,1,.078-.154c.02-.062.041-.123.062-.185a1.2,1.2,0,0,1,.062-.154.475.475,0,0,0,.077-.169.274.274,0,0,1,.077-.139c.02-.041.041-.087.062-.139s.041-.1.062-.139q.527-1.109.992-2t.775-1.387q.31-.493.388-.647t.294-.493a1.517,1.517,0,0,0,.17-.246.576.576,0,0,1,.108-.154.409.409,0,0,1,.077-.108.7.7,0,0,0,.108-.169v-.031l.031-.031.031-.031h-.031l-.031.061a.481.481,0,0,0-.092.123.818.818,0,0,1-.154.216l-.062.123q-.311.432-.543.832t-.387.647a3.012,3.012,0,0,0-.186.308,1.634,1.634,0,0,0-.109.185l-.108.216a2.472,2.472,0,0,0-.217.37.777.777,0,0,0-.094.185.388.388,0,0,1-.092.154q-.032.062-.078.139t-.108.2l-.247.493q-.124.247-.248.539t-.248.539a.277.277,0,0,0-.077.123.59.59,0,0,1-.046.123,1.624,1.624,0,0,1-.093.216,2.1,2.1,0,0,0-.155.37,2.073,2.073,0,0,0-.155.37.792.792,0,0,0-.093.185c-.02.062-.051.144-.092.246-.062.165-.119.3-.171.416a3.654,3.654,0,0,0-.139.354,1.183,1.183,0,0,0-.062.154c-.021.062-.041.134-.062.216a1,1,0,0,0-.046.108.765.765,0,0,1-.047.108l-.093.277a2.19,2.19,0,0,0-.093.277q-.03.123-.062.216a1.453,1.453,0,0,0-.046.169,1.348,1.348,0,0,1-.047.169c-.042.1-.077.2-.109.277s-.066.206-.108.37a1.123,1.123,0,0,0-.046.216.756.756,0,0,1-.077.247,1,1,0,0,1-.062.246.279.279,0,0,0-.031.123.272.272,0,0,1-.031.123q-.03.154-.062.262c-.02.072-.041.159-.062.262a1.012,1.012,0,0,0-.062.246.3.3,0,0,0-.031.139.308.308,0,0,1-.031.139c-.021.082-.042.169-.062.262s-.041.189-.062.293a.308.308,0,0,0-.031.139.3.3,0,0,1-.031.139.535.535,0,0,0-.031.169.305.305,0,0,1-.031.139q-.062.308-.109.585t-.077.524a.525.525,0,0,0-.031.216.819.819,0,0,0-.031.246q-.03.154-.046.262c-.01.072-.025.159-.046.262v.246a.528.528,0,0,0-.031.216,2.6,2.6,0,0,0-.031.462v.031a.126.126,0,0,0-.031.092v.031q.062,0,0-.061a.319.319,0,0,0,.031-.185,1.069,1.069,0,0,0,.031-.262,1.494,1.494,0,0,1,.031-.293.245.245,0,0,1,.031-.154v-.185a1.713,1.713,0,0,0,.062-.4.214.214,0,0,1,.015-.092.211.211,0,0,0,.015-.092.123.123,0,0,1,.015-.077c.011-.011.016-.036.016-.077a.723.723,0,0,1,.015-.139.685.685,0,0,0,.015-.139,3.1,3.1,0,0,0,.062-.37c.021-.123.047-.247.077-.37s.067-.3.109-.524a.244.244,0,0,1,.031-.154v-.092a.087.087,0,0,1,.031-.062,1.013,1.013,0,0,1,.062-.308q.062-.309.124-.524.031-.154.062-.293c.021-.092.042-.19.062-.293a.227.227,0,0,0,.031-.093.091.091,0,0,1,.031-.062.222.222,0,0,1,.015-.092.2.2,0,0,0,.015-.092A3.2,3.2,0,0,1,204.006,225.4Zm-.067,1.448c.021-.041.026-.062.016-.062s-.016.01-.016.031l-.062.123a.97.97,0,0,1-.092.37q-.03.154-.046.262c-.01.072-.026.159-.046.262a.178.178,0,0,1-.031.123,1.362,1.362,0,0,0-.031.246.711.711,0,0,1-.062.246v.123a.277.277,0,0,0-.031.123.333.333,0,0,1-.015.108.257.257,0,0,0-.015.077,1.561,1.561,0,0,1-.015.185.583.583,0,0,1-.046.185v.046c0-.011.01-.015.031-.015,0-.021.005-.067.015-.139a1.214,1.214,0,0,0,.015-.169,1.171,1.171,0,0,0,.046-.247.375.375,0,0,1,.046-.185.99.99,0,0,1,.062-.277.335.335,0,0,1,.016-.108.253.253,0,0,0,.015-.077v-.062a1.014,1.014,0,0,0,.061-.308c.021-.062.052-.175.093-.339a1.822,1.822,0,0,0,.061-.308A1.36,1.36,0,0,1,203.939,226.845Zm.216-.863c.041-.144.077-.272.108-.385s.077-.272.138-.478.1-.323.108-.354.036-.1.077-.2c0-.062-.01-.072-.031-.031a.279.279,0,0,0-.031.123,2.589,2.589,0,0,0-.123.308c0,.042,0,.067-.015.077a.121.121,0,0,0-.016.077.182.182,0,0,0-.031.123q-.061.155-.108.308c-.031.1-.066.236-.108.4a2.09,2.09,0,0,0-.061.293v.139c-.02.062-.02.051,0-.031Zm.092,2.989a.049.049,0,0,0,.092.031v-.031c.021,0,.021-.011,0-.031a2,2,0,0,0,.062-.246,1.785,1.785,0,0,1,.093-.308,1.163,1.163,0,0,0,.123-.431,71.59,71.59,0,0,0,.062-.247.176.176,0,0,0,.031-.123c.061-.185.108-.344.139-.477a4.933,4.933,0,0,1,.169-.539q.062-.185.139-.462t.169-.616a2.834,2.834,0,0,0,.108-.324,2.993,2.993,0,0,1,.108-.323.133.133,0,0,1,.015-.062.218.218,0,0,0,.015-.092.09.09,0,0,0,.031-.062.089.089,0,0,1,.031-.062l.093-.277.185-.462a.49.49,0,0,1,.062-.216A.254.254,0,0,0,206,223.5a.244.244,0,0,1,.031-.108q.062-.185.123-.355a1.281,1.281,0,0,1,.123-.262,1.235,1.235,0,0,0,.092-.323.7.7,0,0,1,.062-.231.32.32,0,0,0,.062-.123.238.238,0,0,1,.031-.092h.031c-.021-.021-.021-.031,0-.031a.027.027,0,0,0,.031-.031v-.031c.021,0,.031,0,.031-.015s-.01-.015-.031-.015l-.061-.062c-.042,0-.062.011-.062.031l-.031.092v.031a.09.09,0,0,0-.031.062.027.027,0,0,1-.031.031,4.246,4.246,0,0,0-.246.709l-.154.308-.154.309a.136.136,0,0,1-.016.062.213.213,0,0,0-.015.092.853.853,0,0,0-.046.108.962.962,0,0,1-.046.108q-.031.154-.062.277l-.062.246c-.041.082-.072.149-.092.2s-.041.1-.062.139a.958.958,0,0,0-.123.339c-.041.144-.077.257-.108.339a3.35,3.35,0,0,0-.108.4,1.2,1.2,0,0,0-.092.339.971.971,0,0,1-.062.277c-.02.144-.046.288-.077.431s-.067.287-.108.431a1.9,1.9,0,0,1-.154.493.767.767,0,0,0-.077.246,1.092,1.092,0,0,1-.046.216,2.506,2.506,0,0,0-.108.354q-.046.2-.077.385v.031A.09.09,0,0,1,204.247,228.972Zm3.235-11.246c.02-.041.026-.056.015-.047a.375.375,0,0,0-.046.077,1.477,1.477,0,0,1-.092.154.589.589,0,0,0-.108.154,1.4,1.4,0,0,0-.077.185,1.35,1.35,0,0,0-.154.277l-.061.123a1.536,1.536,0,0,1-.093.154.41.41,0,0,0-.092.139c-.021.051-.042.1-.062.139a.177.177,0,0,1-.062.123,1.618,1.618,0,0,0-.092.216.67.67,0,0,0-.092.216.685.685,0,0,1-.093.216l-.092.185a.539.539,0,0,0-.062.154,2.755,2.755,0,0,0-.154.277.48.48,0,0,0-.077.169.271.271,0,0,1-.077.139q-.062.185-.123.339a.989.989,0,0,0-.077.185.659.659,0,0,1-.046.123.577.577,0,0,0-.046.123c-.011.042-.026.093-.046.154-.041.1-.087.221-.139.355s-.108.273-.169.416q-.062.185-.154.431t-.154.4a.245.245,0,0,0-.031.093.232.232,0,0,1-.031.092.48.48,0,0,0-.062.185.8.8,0,0,0-.077.216.544.544,0,0,1-.046.154c-.021.1-.01.092.031-.031s.1-.287.185-.493a3.151,3.151,0,0,0,.139-.385,2.881,2.881,0,0,1,.108-.323q.124-.308.185-.432a.5.5,0,0,1,.062-.216,1.228,1.228,0,0,1,.123-.277q.061-.154.154-.416a3.471,3.471,0,0,1,.247-.539,1.281,1.281,0,0,0,.061-.154,1.177,1.177,0,0,1,.062-.154c.021-.041.041-.087.062-.139s.041-.1.062-.139a1.225,1.225,0,0,0,.123-.277l.061-.123c.021-.02.031-.035.031-.046s.01-.025.031-.046a1.743,1.743,0,0,0,.093-.216,1.563,1.563,0,0,1,.092-.216l.185-.37a.968.968,0,0,0,.093-.169c.02-.051.041-.1.062-.139a1.022,1.022,0,0,1,.154-.247,2.43,2.43,0,0,1,.123-.262,1.351,1.351,0,0,0,.093-.2Zm2.218-3.451q-.185.247-.4.555-.123.154-.231.308c-.072.1-.149.205-.231.308q-.216.309-.4.6l-.339.539q-.155.247-.216.354c-.041.072-.072.123-.092.154a.373.373,0,0,0-.046.093c-.01.031-.026.077-.046.139q-.062.124-.046.108a1.785,1.785,0,0,0,.108-.169,1.432,1.432,0,0,1,.092-.154,2.125,2.125,0,0,0,.123-.216c.041-.082.092-.174.154-.277a2.792,2.792,0,0,1,.216-.308q.215-.369.277-.493a.726.726,0,0,1,.123-.185.7.7,0,0,0,.108-.139q.046-.076.262-.385.185-.277.323-.462l.231-.308c0-.02,0-.031.015-.031s.015-.01.015-.031l.031-.062a.027.027,0,0,1,.031-.031.027.027,0,0,0-.031.031v.031A.027.027,0,0,0,209.7,214.274Z" transform="translate(-202.46 -211.239)"/><path d="M249.044,236.129c0,.062.026.077.077.046s.077-.025.077.016q0,.031-.431.739t-1.017,1.587q-.586.878-1.14,1.679a13.125,13.125,0,0,1-.8,1.079,2.382,2.382,0,0,1-.847.647,1.147,1.147,0,0,1-.693.031.944.944,0,0,1-.37-.2,2.984,2.984,0,0,1-.416-.4,2.59,2.59,0,0,1-.339-.493,1.082,1.082,0,0,1-.139-.508q-.49.617-.919,1.14-.368.432-.751.847a7.136,7.136,0,0,1-.566.57,2.353,2.353,0,0,1-.567.324.824.824,0,0,1-.413-.016,1.37,1.37,0,0,1-.552-.339q-.305-.277-.551-.462a2.925,2.925,0,0,1-.582-.693,1.678,1.678,0,0,1-.275-1.125,10.268,10.268,0,0,1,.505-2.588,8.192,8.192,0,0,1,1.394-2.588,4.92,4.92,0,0,1,1.118-1.032,5.872,5.872,0,0,1,1.3-.678,2.84,2.84,0,0,1,1.2-.185,1.2,1.2,0,0,1,.862.416q.616.739.894,1.125a1.524,1.524,0,0,1,.308.631.132.132,0,0,1-.062.169.226.226,0,0,1-.2,0,1.15,1.15,0,0,1-.247-.154.612.612,0,0,1-.2-.262,1.143,1.143,0,0,0-.385-.493q-.231-.154-.57.092a7.174,7.174,0,0,0-.707.786,12.65,12.65,0,0,0-1.012,1.463,16.62,16.62,0,0,0-.98,1.911,8.124,8.124,0,0,0-.612,2.126.175.175,0,0,0,.123.031.823.823,0,0,0,.184-.031.749.749,0,0,0,.276-.154,3.762,3.762,0,0,0,.551-.539q.306-.354.567-.709t.475-.631q.214-.277.276-.37a1.882,1.882,0,0,0,.153-.354q.092-.262.216-.632a5.794,5.794,0,0,1,.324-.77,3.978,3.978,0,0,1,.477-.739,2.659,2.659,0,0,1,.339-.339,1.056,1.056,0,0,1,.277-.123c.082-.02.154.021.216.123a.981.981,0,0,0,.154.277.333.333,0,0,0-.123.154,1.175,1.175,0,0,0-.108.123,1.143,1.143,0,0,1-.108.123l-.092.185c0,.021.01.021.031,0,0-.02.021-.051.062-.092a.264.264,0,0,0,.046-.062.242.242,0,0,1,.046-.062l.062-.123a.027.027,0,0,1,.031-.031c.02-.021.031-.036.031-.046s.02-.035.062-.077.062-.072.062-.092c.041.041.072.062.092.062s.051.041.092.123q.062.185.216.093t.093.061a2.083,2.083,0,0,1-.155.309q-.123.215-.262.493a4.984,4.984,0,0,0-.246.586,2.675,2.675,0,0,0-.139.554q-.031.247,0,.216a.739.739,0,0,0,.092-.17,3.217,3.217,0,0,0,.123-.339,1.173,1.173,0,0,1,.123-.293c.021-.062.067-.179.139-.354s.154-.355.246-.539a4.6,4.6,0,0,1,.293-.509.849.849,0,0,1,.277-.293q.246-.092.323.031a.363.363,0,0,1-.015.339,1.31,1.31,0,0,0-.108.416,1.207,1.207,0,0,1-.077.354q-.031.092-.231.509t-.416.909a9.055,9.055,0,0,0-.354.94q-.139.447-.046.57.061,0,.185-.123a3.2,3.2,0,0,0,.585-.647q.185-.246.631-.832t.909-1.2q.554-.709,1.171-1.51a.365.365,0,0,1,.061-.092c.062-.062.1-.062.123,0q.031.154.062.062c.02-.062.031-.062.031,0s.026.072.077.031S249.023,236.088,249.044,236.129Zm-10.538,3.328a1.519,1.519,0,0,0,.108-.308c.031-.123.067-.257.108-.4s.087-.282.139-.416.1-.251.139-.354.082-.2.123-.293.083-.19.123-.293c.041-.082.077-.159.108-.231s.056-.128.077-.17c.062-.1.1-.164.108-.185a1.366,1.366,0,0,1,.077-.123,1.709,1.709,0,0,0,.092-.216l.031-.031h-.031v.031l-.031.031a.089.089,0,0,0-.031.062.028.028,0,0,1-.031.031,4.037,4.037,0,0,0-.216.431.361.361,0,0,1-.062.092.363.363,0,0,0-.062.092.975.975,0,0,1-.061.108.19.19,0,0,0-.031.108.677.677,0,0,0-.123.231q-.062.17-.123.323l-.093.231q-.03.077-.092.231a.254.254,0,0,0-.031.108.243.243,0,0,1-.031.108,1.249,1.249,0,0,0-.092.247c0,.041,0,.067-.015.077a.127.127,0,0,0-.015.077.124.124,0,0,1-.031.092.576.576,0,0,1-.031.185.972.972,0,0,1-.062.277.343.343,0,0,1-.031.154v.154a1.016,1.016,0,0,0-.062.308.139.139,0,0,1-.026.092.148.148,0,0,0-.025.092v.154a.957.957,0,0,0-.031.277v.339c.021,0,.021-.01,0-.031v-.062a.351.351,0,0,1,.031-.154v-.216a.289.289,0,0,1,.051-.185v-.092a1.162,1.162,0,0,1,.031-.277.217.217,0,0,1,.015-.092.209.209,0,0,0,.015-.093,1647.633,1647.633,0,0,1,.061-.308.341.341,0,0,1,.016-.108A.334.334,0,0,0,238.506,239.457Zm.062,1.725v-.031a.063.063,0,0,0-.015-.047.062.062,0,0,1-.015-.046v.093l.031.154-.031.031.031.123h0v-.123c.02.021.031.011.031-.031Zm.092-1.14a.269.269,0,0,0,.031-.123.027.027,0,0,0-.031-.031v.031a.181.181,0,0,0-.031.123.34.34,0,0,1-.031.154v.031l.031.123a.177.177,0,0,0-.062.123v.123c.02,0,.031-.031.031-.092l.031-.123a.129.129,0,0,0,.015-.062v-.092A.6.6,0,0,0,238.66,240.042Zm.185-.77c0-.021-.01-.021-.031,0l-.031.031a.344.344,0,0,0-.031.154.463.463,0,0,1-.062.185v.123c.021.021.042-.01.062-.092a1.013,1.013,0,0,1,.031-.246l.031-.092Zm.493-1.325a.8.8,0,0,0,.077-.216.275.275,0,0,1,.077-.154.275.275,0,0,0,.031-.123.245.245,0,0,0,.031-.093.027.027,0,0,0-.031.031c-.042.041-.062.072-.062.092a.238.238,0,0,1-.031.092.089.089,0,0,1-.031.062.353.353,0,0,0-.062.092,1.267,1.267,0,0,1-.062.216.338.338,0,0,1-.046.077.39.39,0,0,0-.046.077l-.062.185a.6.6,0,0,0-.031.185.5.5,0,0,0-.062.216.959.959,0,0,0-.046.108.813.813,0,0,1-.046.108,1.307,1.307,0,0,0-.062.216c0,.041.021,0,.062-.123a1.615,1.615,0,0,0,.092-.216.244.244,0,0,0,.031-.108.3.3,0,0,1,.062-.139.708.708,0,0,1,.093-.277.21.21,0,0,1,.061-.154A.542.542,0,0,1,239.338,237.947Zm.647,1.2q.062-.215.139-.416c.051-.134.1-.251.139-.355q.154-.339.262-.6a3.289,3.289,0,0,1,.2-.416.372.372,0,0,0,.093-.185.273.273,0,0,0,.031-.077.272.272,0,0,1,.031-.077.3.3,0,0,0,.061-.154H241a.028.028,0,0,1,.031-.031l-.031-.031a.027.027,0,0,0-.031-.031l-.031-.031h-.031l-.031.062-.062.062a.921.921,0,0,0-.139.262.513.513,0,0,1-.108.2q-.031.062-.108.2a.948.948,0,0,1-.139.2.552.552,0,0,0-.108.247,2.63,2.63,0,0,1-.108.339,1.716,1.716,0,0,1-.108.231,1.679,1.679,0,0,0-.108.231.568.568,0,0,0-.046.123.62.62,0,0,1-.046.123.247.247,0,0,0-.031.108.507.507,0,0,1-.031.139.987.987,0,0,0-.062.246v.339a.121.121,0,0,1-.015.077.121.121,0,0,0-.015.077,1.021,1.021,0,0,1-.015.154.927.927,0,0,0-.015.154v.154a.341.341,0,0,0-.031.154.427.427,0,0,0-.031.185.091.091,0,0,1-.031.062v.339a.322.322,0,0,0,.015.108.355.355,0,0,1,.015.108v.092h.093l-.031-.031h.031l-.031-.031v-.154a.679.679,0,0,1,.031-.216.763.763,0,0,1,.031-.277v-.247q.03-.184.046-.308a3.4,3.4,0,0,1,.077-.37l.077-.308C239.908,239.457,239.944,239.313,239.985,239.149Zm.123-2.773q-.247.37-.4.647l-.061.154-.031.062c-.021.041-.016.036.015-.015s.087-.139.169-.262c.041-.123.072-.185.092-.185a.252.252,0,0,1,.092-.154l.123-.246.031-.031h-.031Zm3.636,1.91a5.656,5.656,0,0,1,.277-.709,3.249,3.249,0,0,1,.431-.832q.061-.154.077-.185a.456.456,0,0,1,.077-.092,1.369,1.369,0,0,0,.123-.185l.031-.031h-.031v.031H244.7a.089.089,0,0,0-.031.062.027.027,0,0,1-.031.031c-.041.062-.082.128-.123.2a.809.809,0,0,1-.123.17q-.031.062-.092.169a.83.83,0,0,1-.123.169c-.021.041-.051.108-.092.2s-.082.19-.123.293a1.922,1.922,0,0,0-.077.216,1.03,1.03,0,0,1-.077.185,1.728,1.728,0,0,1-.092.216,1.3,1.3,0,0,1-.062.216.177.177,0,0,1-.031.123v.093a.245.245,0,0,0-.031.154.793.793,0,0,0-.031.246.348.348,0,0,0-.031.154.18.18,0,0,1-.031.123,3.008,3.008,0,0,1-.062.585v.247a.525.525,0,0,0,.031.216c-.041.041-.041.061,0,.061v-.4a.455.455,0,0,1,.015-.139.344.344,0,0,0,.015-.108v-.246a.945.945,0,0,0,.031-.277.345.345,0,0,0,.031-.154.209.209,0,0,1,.016-.092.215.215,0,0,0,.015-.092Zm.062,1.14a.276.276,0,0,0,.031-.123.031.031,0,0,0-.062,0v.246l-.031.031v.308l.031-.062v-.185a.088.088,0,0,0,.031-.062Zm-.031,1.078a.063.063,0,0,1,.015-.046.063.063,0,0,0,.015-.046.027.027,0,0,0-.031-.031v-.154c-.021,0-.031.021-.031.062v.062a.244.244,0,0,0,.031.154v0Zm.154-1.756a.028.028,0,0,0-.031-.031v.031a.341.341,0,0,0-.031.154.215.215,0,0,1-.015.092.209.209,0,0,0-.016.092c-.021.042-.026.062-.015.062s.015.01.015.031a.238.238,0,0,1,.031-.092.677.677,0,0,1,.031-.216.127.127,0,0,0,.031-.092Zm.616-1.695a.027.027,0,0,0-.031.031.523.523,0,0,0-.062.154.847.847,0,0,0-.154.339.345.345,0,0,1-.047.077.365.365,0,0,0-.046.077,1.148,1.148,0,0,0-.061.154.34.34,0,0,0-.031.154.1.1,0,0,0-.031.077.247.247,0,0,1-.031.108.193.193,0,0,1-.031.108.189.189,0,0,0-.031.108.209.209,0,0,0-.061.154c0,.082.02.042.061-.123.041-.041.056-.067.047-.077s-.006-.035.015-.077a.868.868,0,0,0,.046-.108l.047-.139v-.031c0-.021,0-.031.015-.031s.015-.01.015-.031a.177.177,0,0,1,.062-.123l.092-.277a.939.939,0,0,0,.092-.169c.02-.051.041-.1.062-.139.041-.041.056-.066.046-.077s-.005-.026.016-.046a.24.24,0,0,1,.031-.092Z" transform="translate(-228.862 -227.701)"/><path d="M270.687,237.149a1.245,1.245,0,0,1,.108.2,1.185,1.185,0,0,0,.108.2,9.81,9.81,0,0,1,.693,1.417,5.19,5.19,0,0,1,.293,1.047,3.3,3.3,0,0,1,.062.863,7.315,7.315,0,0,1-1.279,3.081,4.732,4.732,0,0,1-1.8,1.448,3.707,3.707,0,0,1-1.833.309,4.1,4.1,0,0,1-1.371-.339,1.364,1.364,0,0,1-.586-.57,6.2,6.2,0,0,1-.37-.786,4.974,4.974,0,0,1-.216-.986,9.724,9.724,0,0,1,.848-2.234,7.428,7.428,0,0,1,1.078-1.479,9.607,9.607,0,0,1,1.325-1.155q.725-.524,1.587-1.233l-.062-.062a1.263,1.263,0,0,1-.616-.647,2.129,2.129,0,0,1-.247-.955,4.607,4.607,0,0,1,.663-2.635,4.364,4.364,0,0,1,1.525-1.433,5.117,5.117,0,0,1,2.866-.586.434.434,0,0,1,.385.4,1.692,1.692,0,0,1-.046.678,5.435,5.435,0,0,1-.37.925.6.6,0,0,1-.37.416q-.308.139-.462-.046a.308.308,0,0,1-.062-.37.482.482,0,0,1,.123-.185,6.086,6.086,0,0,0-1.756,1.633,2.788,2.788,0,0,0-.493,2.126q.955-.739,1.818-1.279t1.479-.909q.74-.4,1.356-.709.185-.092.447-.216a.475.475,0,0,1,.385-.061.089.089,0,0,0-.031.061c0,.021.02.031.062.031a.742.742,0,0,1,.293-.015q.231.016.231.046.061.063.185,0a.6.6,0,0,1,.154-.108c.062-.031.1-.026.123.015,0,.021.026.026.077.015a.791.791,0,0,1,.154-.015.269.269,0,0,1,.108.015c.02.011,0,.036-.062.077l-.031.031h-.031a25.6,25.6,0,0,0-3.559,1.879A28.521,28.521,0,0,0,270.687,237.149Zm-4.376,6.871a.571.571,0,0,0,.693.154,2.755,2.755,0,0,0,.925-.585,6.181,6.181,0,0,0,.94-1.109,6.822,6.822,0,0,0,.755-1.464,5.425,5.425,0,0,0,.339-1.587,3.266,3.266,0,0,0-.262-1.51,17.425,17.425,0,0,0-2.341,2.588,7.677,7.677,0,0,0-1.017,1.864,2.714,2.714,0,0,0-.185,1.155A1.044,1.044,0,0,0,266.312,244.019Zm1.14.925-.062.062a.234.234,0,0,0-.092.077.23.23,0,0,1-.092.077.089.089,0,0,0-.062.031.129.129,0,0,0-.077.046.125.125,0,0,1-.077.047c.021.02.021.031,0,.031h.031v-.031a.127.127,0,0,0,.077-.047.127.127,0,0,1,.077-.046l.062-.031a1.031,1.031,0,0,0,.123-.092l.031-.031c.021-.021.031-.036.031-.046s.011-.026.031-.046l.092-.092Zm2-2.342a.28.28,0,0,0,.046-.062.222.222,0,0,1,.046-.062.091.091,0,0,0,.031-.062.087.087,0,0,1,.031-.062.39.39,0,0,0,.062-.092.385.385,0,0,0,.092-.062c.041-.1.082-.2.123-.293a2.6,2.6,0,0,1,.154-.293q.061-.154.123-.292t.123-.262a.531.531,0,0,1,.092-.246.175.175,0,0,0,.015-.123.17.17,0,0,1,.015-.123.532.532,0,0,0,.031-.216c.041-.041.062-.072.062-.093v-.154a.464.464,0,0,1,.062-.185v-.093a.123.123,0,0,1-.031-.092.53.53,0,0,0,.061-.154q-.03-.092,0-.123v-.216a.179.179,0,0,1-.031-.123.339.339,0,0,1,.015-.108.24.24,0,0,0-.015-.139v-.185a.945.945,0,0,0-.031-.154l-.031-.031v-.031h-.031v.031a.092.092,0,0,1,.031.062c0,.042,0,.067.015.077a.063.063,0,0,1,.015.046v.062c0,.165,0,.308.015.431a.976.976,0,0,1-.015.308.061.061,0,0,0,.015.046.064.064,0,0,1,.015.046v.062a.249.249,0,0,0-.062.185.7.7,0,0,1-.031.216c-.021.042-.026.072-.015.093a.139.139,0,0,1,.015.062.511.511,0,0,1-.031.154c-.02.062-.041.133-.062.216a.127.127,0,0,0-.046.123.286.286,0,0,1-.015.154,1.032,1.032,0,0,1-.062.108.188.188,0,0,0-.031.108,1.349,1.349,0,0,1-.139.37q-.077.123-.2.308a.139.139,0,0,0-.016.108.07.07,0,0,1-.015.077l-.062.062-.061.062a.877.877,0,0,1-.216.339.2.2,0,0,1-.031.108.887.887,0,0,0-.062.108.454.454,0,0,0-.123.092c0,.062-.01.092-.031.092a.091.091,0,0,1-.031.062l-.062.062-.031.031q-.123.154-.262.339a2.021,2.021,0,0,1-.323.339l-.154.154a1.266,1.266,0,0,1-.185.154c-.041.041-.113.1-.216.185a.452.452,0,0,0-.077.093.168.168,0,0,1-.077.062.72.72,0,0,0-.185.123l-.062.062c-.02.02-.035.031-.046.031s-.025.01-.046.031a2.171,2.171,0,0,1-.246.277l-.062.031h.031l.092-.092c0-.021.042-.051.123-.092a.169.169,0,0,1,.062-.077.049.049,0,0,0,.031-.046.264.264,0,0,1,.077-.031.287.287,0,0,0,.077-.031c.1-.082.175-.144.216-.185l.123-.123a.474.474,0,0,1,.123-.092.53.53,0,0,0,.154-.155.091.091,0,0,1,.062-.031.09.09,0,0,1,.031-.062l.093-.092a.283.283,0,0,0,.154-.154,1.1,1.1,0,0,1,.216-.185.178.178,0,0,0,.062-.123.092.092,0,0,0,.031-.062h.031c.041-.042.072-.062.093-.062.02-.042.036-.072.046-.092s.026-.052.046-.093l.062-.062.062-.031a.178.178,0,0,0,.062-.123.277.277,0,0,0,.046-.061A.217.217,0,0,1,269.455,242.6Zm-.586,1.171q.03-.031,0-.031a.087.087,0,0,0-.062.031.216.216,0,0,0-.046.062.171.171,0,0,1-.077.061c-.021.021-.031.036-.031.047s-.011.025-.031.046-.036.031-.046.031-.026.01-.046.031l-.062.061a.658.658,0,0,1-.154.123l-.154.154c0,.021-.015.036-.046.046a.2.2,0,0,0-.077.047.177.177,0,0,0,.123-.062l.077-.077a.129.129,0,0,1,.077-.046c.042-.042.062-.072.062-.092a.063.063,0,0,0,.046-.015.062.062,0,0,1,.046-.016.027.027,0,0,0,.031-.031l.031-.031.062-.061a.677.677,0,0,1,.154-.093.964.964,0,0,1,.077-.108A.4.4,0,0,0,268.869,243.773Zm.339-10.261.062-.123a.253.253,0,0,1,.092-.154.2.2,0,0,0,.046-.077.3.3,0,0,1,.077-.108,1.315,1.315,0,0,1,.154-.277c.082-.1.154-.2.216-.277a2.062,2.062,0,0,1,.185-.216,4.069,4.069,0,0,1,.647-.554l.062-.062c.02,0,.031,0,.031-.015s.01-.015.031-.015c.021-.02.031-.036.031-.047s.02-.025.062-.046c.041-.041.066-.056.077-.046s.036-.005.077-.046h.031v-.031a.027.027,0,0,0-.031.031h-.031a.087.087,0,0,1-.061.031h-.031a3.615,3.615,0,0,0-.308.247,1.123,1.123,0,0,0-.277.216,1.326,1.326,0,0,0-.339.339l-.123.123a1167.339,1167.339,0,0,1-.247.308.255.255,0,0,0-.046.062.436.436,0,0,1-.077.092.725.725,0,0,1-.093.155l-.062.123a.725.725,0,0,1-.123.185.245.245,0,0,0-.031.108.254.254,0,0,1-.031.108,2.167,2.167,0,0,1-.123.216,1.057,1.057,0,0,1-.062.108.19.19,0,0,0-.031.108.464.464,0,0,0-.062.185.232.232,0,0,0-.031.093.236.236,0,0,1-.031.092v.031a.089.089,0,0,1,.031-.062.124.124,0,0,1,.031-.092.135.135,0,0,1,.015-.062.218.218,0,0,0,.015-.092q.061-.061.061-.092c0-.021.021-.051.062-.093a.088.088,0,0,1,.031-.062.125.125,0,0,1,.031-.092A1.62,1.62,0,0,1,269.208,233.513Zm-.062.8-.031.062v.062a.125.125,0,0,0-.031.092l-.062.031v.062a.027.027,0,0,1-.031.031h.031v-.031l.031-.062.031-.031.061-.061-.031-.031a.09.09,0,0,1,.031-.062Zm.4,8.658c.02-.021.02-.031,0-.031a.027.027,0,0,0-.031.031l-.093.139a.769.769,0,0,1-.092.108c0,.041-.031.072-.092.092v.031a.091.091,0,0,1-.031.062l-.062.062a1.789,1.789,0,0,0-.154.123c0,.041.01.046.031.016a.446.446,0,0,1,.123-.108l.062-.062c.041-.041.062-.072.062-.092a.674.674,0,0,0,.123-.154c.041-.042.072-.062.092-.062q.03-.062,0-.092Zm-.123-9.336a.09.09,0,0,0-.031.062.239.239,0,0,1-.031.092v.031c-.021.021-.031.036-.031.046s-.021.026-.062.046a.127.127,0,0,1-.031.092v.062l.031-.062.031-.062c0-.02.02-.041.062-.062v-.031h.031a.275.275,0,0,1,.031-.123.238.238,0,0,0,.031-.092Zm.216-.308c.041-.041.056-.062.046-.062s-.005-.02.015-.062h-.031c-.062.062-.093.1-.093.123l-.061.123a.236.236,0,0,0-.031.092l.062-.062A.728.728,0,0,1,269.64,233.328Zm.4-.585.062-.062.092-.092a.859.859,0,0,1,.154-.185,1.128,1.128,0,0,0,.108-.123.907.907,0,0,1,.077-.092.352.352,0,0,0,.092-.062.089.089,0,0,0,.031-.062h-.062l-.092.093-.092.092a.235.235,0,0,0-.046.062.169.169,0,0,1-.077.062c-.021.041-.036.062-.046.062s-.026.01-.046.031c-.021.042-.036.062-.046.062s-.026.021-.046.062l-.093.092a.709.709,0,0,1-.092.154.347.347,0,0,1-.046.077.355.355,0,0,0-.046.077.235.235,0,0,0-.046.062.25.25,0,0,1-.046.062c0,.021.031,0,.092-.062.041-.082.072-.123.092-.123l.046-.092A.44.44,0,0,1,270.041,232.743Zm.8,7.148c-.042-.041-.062-.041-.062,0v.093a.322.322,0,0,0-.015.169.215.215,0,0,1-.015.139.19.19,0,0,0-.062.139.306.306,0,0,1-.031.139c0,.021-.005.031-.015.031s-.015.011-.015.031c0,.062.01.093.031.093a.6.6,0,0,0-.046.123.274.274,0,0,1-.077.123.155.155,0,0,1-.031.154l-.031.031a.065.065,0,0,1-.015.046.06.06,0,0,0-.016.046.347.347,0,0,1-.015.108c-.011.031-.036.1-.077.2l-.123.247a.363.363,0,0,1-.046.154,1.361,1.361,0,0,0-.077.185c0,.021-.042.072-.123.154a.175.175,0,0,0-.062.123l-.031.031v.031a1.038,1.038,0,0,0-.154.308,1.013,1.013,0,0,0,.046-.108.3.3,0,0,1,.077-.108l.077-.154a1.377,1.377,0,0,1,.077-.123.234.234,0,0,1,.062-.046.274.274,0,0,0,.062-.046.027.027,0,0,1,.031-.031.09.09,0,0,1-.031-.062,1.179,1.179,0,0,1,.154-.216.424.424,0,0,1,.031-.185l.092-.092v-.092a.089.089,0,0,1,.031-.062.465.465,0,0,1,.093-.123c-.021-.062-.021-.1,0-.123.02-.042.041-.088.061-.139a.378.378,0,0,0,.031-.139,2.5,2.5,0,0,0,.092-.37.717.717,0,0,1,.092-.277.5.5,0,0,0,0-.247A.5.5,0,0,0,270.841,239.891Zm.709-7.395c-.042.042-.072.062-.092.062a.722.722,0,0,1-.154.093.177.177,0,0,0-.123.061l-.123.123a.354.354,0,0,1-.062.092.347.347,0,0,0-.062.093l-.062.061-.062.062a.121.121,0,0,0-.123.093l-.123.123c0,.021-.005.031-.015.031s-.015.011-.015.031c-.021.021-.031.036-.031.046s-.011.026-.031.046a.064.064,0,0,1-.015.047.061.061,0,0,0-.016.046c0,.021-.005.031-.015.031s-.015.011-.015.031a.272.272,0,0,1-.031.123.127.127,0,0,1-.031.092,14.691,14.691,0,0,1-.062.185.125.125,0,0,0-.031.092,1.564,1.564,0,0,0-.092.216.73.73,0,0,1-.123.185.236.236,0,0,0-.031.092.239.239,0,0,1-.031.092v.154a.027.027,0,0,0-.031.031v.031h.092l-.031-.031a2.364,2.364,0,0,0,.093-.246,1.967,1.967,0,0,1,.123-.155.576.576,0,0,1,.031-.185c.02-.02.031-.036.031-.046s.01-.026.031-.046a.063.063,0,0,1,.015-.047.062.062,0,0,0,.015-.046.09.09,0,0,1,.031-.062v-.031l.062-.123a1.731,1.731,0,0,0,.277-.431.887.887,0,0,1,.17-.231l.169-.17.277-.277a.882.882,0,0,1,.185-.154.09.09,0,0,0,.062-.031l.031-.031c.041-.02.062-.036.062-.046s.01-.026.031-.046h.062V232.5h.031l.031.031V232.5l-.031-.061v-.062l-.031-.031v.031h0v.031H271.7a.365.365,0,0,0-.077.046A.351.351,0,0,1,271.55,232.5Zm-.863,5.485a.207.207,0,0,0,.062.154v.092a.129.129,0,0,1,.031.093.113.113,0,0,1,.015.092.21.21,0,0,0-.015.092.242.242,0,0,0,.031.154,2.084,2.084,0,0,1,.031.339v.4a.063.063,0,0,1-.015.046.062.062,0,0,0-.015.046.061.061,0,0,0,.015.046.064.064,0,0,1,.015.046c.02.021.01.051-.031.092,0,.042.021.031.062-.031a1.574,1.574,0,0,1,.016-.185,1.36,1.36,0,0,0-.016-.339.127.127,0,0,0-.015-.077c-.011-.01-.006-.035.015-.077v-.185a2.446,2.446,0,0,0-.092-.308.661.661,0,0,0-.092-.431v-.062l-.031-.031Zm.708-6.378a1.235,1.235,0,0,0-.277.123.272.272,0,0,1-.123.077.275.275,0,0,0-.123.077c-.082.041-.113.062-.092.062l-.062.062h.031a.2.2,0,0,1,.092-.047.271.271,0,0,0,.123-.077l.092-.092h.031a.942.942,0,0,1,.123-.093.383.383,0,0,0,.185-.092h.031v0Z" transform="translate(-248.781 -225.517)"/><path d="M308.813,226.779c-.165-.042-.319-.082-.463-.123a2.281,2.281,0,0,0-.385-.092,2.142,2.142,0,0,0-.293-.031.711.711,0,0,0-.262-.031,1.549,1.549,0,0,1-.478-.092l-.123-.123a.713.713,0,0,1-.123-.185c0-.02-.005-.031-.015-.031s-.016-.01-.016-.031l-.031-.031a.065.065,0,0,0-.015-.046.062.062,0,0,1-.015-.046l-.031-.031c0-.041-.011-.061-.031-.061v-.062l-.031-.031a.554.554,0,0,0-.062-.154.847.847,0,0,1-.031-.2.552.552,0,0,0-.031-.169.961.961,0,0,0-.015-.154,1.55,1.55,0,0,1-.015-.246v-.139a.857.857,0,0,1,.031-.2v-.2a.948.948,0,0,1,.031-.231q.061-.246.092-.462a1.6,1.6,0,0,1,.092-.37q.123-.339.216-.616c.062-.185.113-.329.154-.431s.067-.17.077-.2a.65.65,0,0,1,.077-.139q.061-.123.046-.139t.046-.108v-.031a.027.027,0,0,0-.031.031v.031l-.062.123a2.566,2.566,0,0,0-.108.246,1.047,1.047,0,0,1-.108.216,1.536,1.536,0,0,0-.077.215,1.531,1.531,0,0,1-.077.216,1.42,1.42,0,0,0-.077.247,2.721,2.721,0,0,1-.108.339,1.249,1.249,0,0,0-.077.246c-.01.062-.026.144-.046.246-.021.062-.036.108-.046.139a.331.331,0,0,0-.016.108.5.5,0,0,1-.015.123.648.648,0,0,0-.015.154,1.006,1.006,0,0,0-.031.246v.216a2.987,2.987,0,0,0,.015.308c.01.1.025.205.046.308a1.668,1.668,0,0,0,.062.339.49.49,0,0,1,.077.185.273.273,0,0,0,.077.154,2.878,2.878,0,0,0,.154.246.866.866,0,0,1,.154.185,1.786,1.786,0,0,1-.77-.524,1.818,1.818,0,0,1-.37-1.263,6.613,6.613,0,0,1,.585-2.311,22.634,22.634,0,0,1,2.064-3.7,22.174,22.174,0,0,0-1.818,1.849q-.77.863-1.633,2.033a15.488,15.488,0,0,0-1.51,2.527,5.363,5.363,0,0,0-.2.508q-.078.231-.139.385a1.6,1.6,0,0,0-.123.308l-.339.216c-.123-.021-.236-.041-.339-.062s-.2-.041-.277-.062a1,1,0,0,1-.185-.061,1.478,1.478,0,0,0-.309-.108q-.185-.046-.431-.57a1.9,1.9,0,0,1-.061-.893,9.817,9.817,0,0,1,.277-1.448q.216-.832.508-1.756t.632-1.787a24.59,24.59,0,0,1,1.618-3.389q.908-1.571,1.71-2.773.955-1.387,1.91-2.588.308-.4.385-.385a.7.7,0,0,0,.139.015q.061,0,.108.185c.031.123.066.246.108.37-.165.185-.323.38-.478.585s-.282.39-.385.555l-.185.277a.328.328,0,0,0-.062.123l-.046.046.077-.077a1.96,1.96,0,0,1,.123-.216,3.725,3.725,0,0,0,.247-.308l.092-.139a1.08,1.08,0,0,0,.062-.108c.041-.02.062-.036.062-.046s.01-.026.031-.046a.2.2,0,0,0,.046-.077,1,1,0,0,1,.139-.2,2.829,2.829,0,0,0,.277-.37.826.826,0,0,0,.092.246q.03.062.277.077a.7.7,0,0,1,.4.139l-.031.031-.031.031a5.331,5.331,0,0,0-.385.493q-.17.247-.262.4a1.36,1.36,0,0,0-.138.169c-.052.072-.108.149-.17.231s-.118.159-.169.231a1.339,1.339,0,0,1-.139.169.916.916,0,0,0-.139.2c-.051.092-.107.19-.169.293a.385.385,0,0,0-.093.154.39.39,0,0,1-.092.154.918.918,0,0,0-.092.169.949.949,0,0,1-.092.169,1.851,1.851,0,0,1-.185.247,1.143,1.143,0,0,1-.062.108.955.955,0,0,0-.062.108,2.306,2.306,0,0,1-.139.185,1.989,1.989,0,0,0-.169.247.268.268,0,0,0-.077.123.276.276,0,0,1-.077.123l-.092.185a.3.3,0,0,0-.077.108.954.954,0,0,1-.046.108.485.485,0,0,1-.092.123.062.062,0,0,1-.015.046.063.063,0,0,0-.016.047c-.02.021-.031.036-.031.046s-.01.026-.031.046c-.041.1-.077.19-.108.262a1.2,1.2,0,0,1-.108.2.336.336,0,0,1-.046.077.332.332,0,0,0-.046.077.294.294,0,0,1-.092.216c-.042.1-.082.2-.123.293s-.082.19-.123.292a.09.09,0,0,0-.031.062.237.237,0,0,1-.031.092.209.209,0,0,0-.062.155.266.266,0,0,0-.077.139.272.272,0,0,1-.077.139,2.213,2.213,0,0,1-.154.308l-.093.185c0,.021-.005.031-.015.031s-.015.011-.015.031l-.031.092-.169.339-.139.277c-.021.041-.041.088-.062.138s-.041.1-.062.139-.042.087-.062.139-.042.1-.062.138a2.906,2.906,0,0,0-.154.463.089.089,0,0,0-.031.062c0,.021-.005.031-.015.031s-.015.011-.015.031v.031c-.042,0-.042.021,0,.062h.031l.031-.031v-.031h.031v-.062q.092-.215.339-.77l.092-.185a.544.544,0,0,0,.062-.154.305.305,0,0,0,.077-.108.832.832,0,0,1,.047-.108,3.125,3.125,0,0,1,.216-.493q.184-.37.308-.647t.37-.739a.271.271,0,0,0,.077-.139.267.267,0,0,1,.077-.139,3.672,3.672,0,0,0,.185-.339,1.784,1.784,0,0,0,.108-.185l.108-.216a.728.728,0,0,1,.123-.185,1.663,1.663,0,0,1,.093-.216,2.033,2.033,0,0,1,.123-.216,2.051,2.051,0,0,0,.123-.216c.041-.041.062-.072.062-.092l.062-.123a.721.721,0,0,0,.123-.185,1.976,1.976,0,0,1,.123-.216l.123-.185a1.811,1.811,0,0,0,.108-.185.563.563,0,0,1,.108-.154q.431-.616.755-1.156a5.592,5.592,0,0,1,.57-.816l.246-.37a.494.494,0,0,0,.093-.123,1.424,1.424,0,0,1,.092-.154.677.677,0,0,1,.108-.169l.077-.077.031.031.154.308a.247.247,0,0,1,.031.092,6.65,6.65,0,0,0-.524.863q-.37.678-.847,1.6t-1,1.957q-.524,1.032-.955,1.895-.216.432-.462.986t-.493,1.171a25.659,25.659,0,0,1,1.941-2.111,11.985,11.985,0,0,1,2.465-1.895,1.2,1.2,0,0,1,.154-.185q.154-.154.216-.154a.3.3,0,0,0,.139.031.554.554,0,0,1,.169.031.426.426,0,0,0,.216.015.212.212,0,0,1,.216.077,1.053,1.053,0,0,0,.185.2q.123.108.185.169l.154.154a.255.255,0,0,1,.092.155,6.609,6.609,0,0,1-.293.6q-.293.571-.693,1.433t-.832,1.895a19.3,19.3,0,0,0-.709,1.972,8.616,8.616,0,0,0-.339,1.633q-.062.693.309.878a.588.588,0,0,0,.616-.046,2.838,2.838,0,0,0,.709-.647,12.732,12.732,0,0,0,.771-1.047q.4-.6.77-1.248.862-1.51,1.818-3.574h.154a.254.254,0,0,1,.185.062.077.077,0,0,0,.123,0c.041-.041.072-.041.092,0,0,.021.025.021.077,0a.922.922,0,0,1,.154-.046.63.63,0,0,1,.108-.015c.021,0,.021.021,0,.062s-.108.267-.262.678-.37.914-.647,1.51-.6,1.238-.955,1.926a16.2,16.2,0,0,1-1.14,1.879,6.954,6.954,0,0,1-1.263,1.387A1.68,1.68,0,0,1,308.813,226.779Zm-5.053-8.473a.789.789,0,0,0,.092-.185,1.354,1.354,0,0,1,.123-.246.5.5,0,0,0,.077-.169.265.265,0,0,1,.077-.139.53.53,0,0,1,.062-.154.177.177,0,0,1,.062-.123,2.524,2.524,0,0,1,.138-.293c.051-.092.118-.21.2-.354l.062-.123.062-.123a1.07,1.07,0,0,0,.154-.308.588.588,0,0,0,.108-.154,1.753,1.753,0,0,1,.108-.185.714.714,0,0,1,.093-.154l.092-.185q.215-.4.447-.755t.385-.632q.339-.554.663-1.017t.478-.709q.185-.247.231-.323a2.537,2.537,0,0,1,.2-.262c.082-.123.128-.2.139-.216a1.675,1.675,0,0,1,.108-.154l.031-.031v-.031a.027.027,0,0,0-.031.031v.031l-.062.031-.123.185a.827.827,0,0,0-.154.216.748.748,0,0,0-.093.108.918.918,0,0,0-.061.108,2.089,2.089,0,0,1-.247.339.82.82,0,0,0-.123.169c-.041.072-.082.139-.123.2s-.082.128-.123.2a.805.805,0,0,1-.123.169c-.041.041-.087.092-.139.154a.905.905,0,0,0-.139.246c-.062.1-.123.2-.185.293s-.123.18-.185.262q-.154.278-.246.431t-.246.4c-.1.165-.18.293-.231.385s-.139.231-.262.416q-.155.309-.2.416c-.031.072-.088.18-.169.323q-.124.247-.247.508a4.912,4.912,0,0,1-.277.509q-.062.123-.139.262a2.5,2.5,0,0,0-.139.293q-.155.339-.277.555a2.462,2.462,0,0,0-.108.246,2.542,2.542,0,0,1-.108.247,1.15,1.15,0,0,0-.092.246.7.7,0,0,1-.093.216v.031a.05.05,0,0,0-.046.031c-.011.021-.005.031.015.031v-.031c-.021,0,0-.031.061-.092a.131.131,0,0,1,.016-.062.138.138,0,0,0,.015-.062.36.36,0,0,1,.046-.077.35.35,0,0,0,.046-.077,2.06,2.06,0,0,1,.154-.37.959.959,0,0,0,.092-.169c.02-.051.041-.1.062-.139Zm-.216,1.048-.062.123a.136.136,0,0,1-.015.062.211.211,0,0,0-.015.092,2.289,2.289,0,0,0-.123.308c-.021,0-.031.021-.031.061a.793.793,0,0,0-.046.108.2.2,0,0,1-.047.077v0h.031v-.031a.25.25,0,0,0,.062-.185c0,.041.02.021.061-.062a.236.236,0,0,0,.031-.092c0-.02.02-.051.062-.092v-.062a.243.243,0,0,0,.031-.093.238.238,0,0,1,.031-.092c0-.02,0-.031.015-.031s.016-.01.016-.031v-.062Zm.339-.708c.02,0,.036-.015.046-.046a.192.192,0,0,1,.046-.077l.062-.123a.126.126,0,0,0,.031-.092.535.535,0,0,0,.062-.154c.02-.02.031-.035.031-.046s.01-.026.031-.046a.027.027,0,0,1,.031-.031q.031-.061.062-.138a.912.912,0,0,1,.092-.17c.041-.123.062-.174.062-.154l.062-.123c0-.041-.011-.051-.031-.031a.088.088,0,0,0-.031.062.516.516,0,0,0-.108.185c-.031.082-.067.175-.108.277,0,.021-.005.031-.015.031s-.016.011-.016.031a.176.176,0,0,0-.062.123.177.177,0,0,1-.062.123l-.062.123a.241.241,0,0,0-.031.092.2.2,0,0,0-.046.092A.2.2,0,0,1,303.883,218.644Zm1.2-2.342v-.031a.089.089,0,0,0-.031.062.888.888,0,0,0-.092.169.418.418,0,0,1-.093.139.542.542,0,0,1-.077.154,1.02,1.02,0,0,0-.108.216c-.042.1-.072.175-.093.216,0,.042.01.036.031-.015a.919.919,0,0,1,.092-.169,1.575,1.575,0,0,1,.092-.216,1.026,1.026,0,0,0,.155-.247.949.949,0,0,1,.077-.169A.387.387,0,0,0,305.085,216.3Zm2.1-3.451c.02-.02.031-.026.031-.015s-.011.026-.031.046l-.062.062a3.193,3.193,0,0,0-.216.308.743.743,0,0,0-.108.139.714.714,0,0,1-.108.139l-.092.185a2.127,2.127,0,0,1-.123.216.7.7,0,0,1-.108.169.924.924,0,0,0-.108.139c-.041.062-.077.113-.108.154a1.332,1.332,0,0,0-.108.185,1.522,1.522,0,0,0-.077.169.309.309,0,0,1-.077.108,1.252,1.252,0,0,0-.108.2,1.23,1.23,0,0,1-.108.2,2.025,2.025,0,0,0-.123.216,2.133,2.133,0,0,1-.123.216,1.64,1.64,0,0,0-.108.185,1.706,1.706,0,0,1-.108.185c-.021.042.041-.041.185-.246.061-.1.1-.164.108-.185s.046-.082.108-.185a1.988,1.988,0,0,1,.123-.216c.041-.062.092-.144.154-.247s.154-.262.277-.477.236-.4.339-.539a1.748,1.748,0,0,1,.139-.231,1.338,1.338,0,0,1,.139-.169,1.423,1.423,0,0,1,.185-.308.321.321,0,0,0,.062-.123.308.308,0,0,1,.062-.123c.041-.041.062-.066.062-.077A.266.266,0,0,1,307.18,212.852Zm-.555,12.109a.123.123,0,0,0,.031.092v-.493a.027.027,0,0,0-.031-.031v.431Zm.216.832-.031-.031-.031-.062v-.062l-.031-.062v-.062a.216.216,0,0,0-.015-.092.209.209,0,0,1-.015-.092.124.124,0,0,1-.031-.092v-.031c-.021-.02-.031-.02-.031,0l-.031.031a.15.15,0,0,1,.031.108.3.3,0,0,0,.031.139l.031.031a.269.269,0,0,0,.031.123v.062a.027.027,0,0,0,.031.031c0,.021,0,.031.015.031s.016.011.016.031a.027.027,0,0,0,.031.031Zm.092-2.65a.769.769,0,0,0,.077-.231.568.568,0,0,1,.046-.169.508.508,0,0,0,.031-.154.243.243,0,0,0,.031-.092l-.031.031v.031a.461.461,0,0,0-.062.185.19.19,0,0,0-.046.077.2.2,0,0,1-.046.077,1.02,1.02,0,0,1-.062.247.475.475,0,0,1-.062.185.569.569,0,0,0-.031.185.576.576,0,0,0-.031.185.505.505,0,0,1-.015.123.5.5,0,0,0-.015.123,1.014,1.014,0,0,1-.062.246v.216h0a.51.51,0,0,1,.031-.154.274.274,0,0,0,.031-.123v-.092a.278.278,0,0,0,.031-.123.5.5,0,0,1,.031-.154.308.308,0,0,0,.031-.139.308.308,0,0,1,.031-.139C306.882,223.318,306.913,223.2,306.933,223.143Zm.432,3.266-.031-.031a.027.027,0,0,1-.031-.031l-.031-.031-.062-.061a.028.028,0,0,0-.031-.031.089.089,0,0,1-.062-.031l-.062-.062c-.021,0-.011.02.031.062l.062.062c.02,0,.031,0,.031.015s.01.015.031.015a.027.027,0,0,0,.031.031l.031.031.031.031a.062.062,0,0,1,.046.016.063.063,0,0,0,.046.015v0Zm.246-4.992h-.031q-.092.185-.185.385c-.062.134-.113.252-.154.354l-.062.154-.031.062c0,.042.01.036.031-.015s.062-.149.123-.293a.244.244,0,0,0,.031-.092.089.089,0,0,1,.031-.062.027.027,0,0,1,.031-.031.135.135,0,0,1,.015-.062,1.21,1.21,0,0,0,.046-.123l.092-.139a.19.19,0,0,0,.031-.108h.031Zm.123,2.126a1.651,1.651,0,0,1-.015.231.424.424,0,0,0,.015.2v.062l.031.031h.031l.031-.031h0a.027.027,0,0,0-.031-.031,1.292,1.292,0,0,1,.031-.309q.03-.092.046-.138a.347.347,0,0,0,.015-.108.921.921,0,0,1,.031-.216.3.3,0,0,0,.031-.139.306.306,0,0,1,.031-.139.274.274,0,0,1,.031-.123.427.427,0,0,1,.031-.185c.02-.062.046-.143.077-.247s.066-.215.108-.339a3.5,3.5,0,0,1,.139-.355c.051-.112.1-.21.138-.293a2.257,2.257,0,0,0,.231-.477,1.273,1.273,0,0,1,.169-.355.482.482,0,0,0,.062-.169.292.292,0,0,1,.062-.139.275.275,0,0,0,.031-.123h.062v-.031c.02,0,.02-.01,0-.031a43.412,43.412,0,0,0-.123-.062v.092a.091.091,0,0,0-.062.031,1.08,1.08,0,0,0-.108.216c-.031.082-.057.144-.077.185a.877.877,0,0,1-.108.154.836.836,0,0,0-.108.154.4.4,0,0,0-.092.2,1.929,1.929,0,0,1-.093.293.651.651,0,0,1-.108.2.7.7,0,0,0-.108.17l-.062.185a1.606,1.606,0,0,0-.092.216,1.272,1.272,0,0,0-.031.216v.185a1.092,1.092,0,0,0-.046.216q-.016.123-.046.277a.279.279,0,0,1-.031.123v.062a.125.125,0,0,0-.031.092A.987.987,0,0,0,307.735,223.543Z" transform="translate(-276.061 -210.556)"/><path d="M342.747,231.158c-.041,0-.169-.011-.385-.031a1.9,1.9,0,0,1-.663-.2,1.683,1.683,0,0,1-.616-.57,1.914,1.914,0,0,1-.262-1.14,6.3,6.3,0,0,1,.431-1.9,17.072,17.072,0,0,1,1.433-2.85l.123-.185a1.962,1.962,0,0,0,.123-.216,3.794,3.794,0,0,0,.262-.416,2.341,2.341,0,0,1,.231-.354q.524-.8.986-1.525T345,220.9c.041-.041.072-.062.093-.062a.3.3,0,0,0,.139.031.312.312,0,0,1,.139.031.259.259,0,0,0,.216.046.213.213,0,0,1,.216.077.774.774,0,0,0,.185.185,1.87,1.87,0,0,1,.185.154l.169.169q.108.108.108.169a6.516,6.516,0,0,1-.292.6q-.294.57-.693,1.433t-.832,1.895q-.432,1.032-.724,1.956a7.72,7.72,0,0,0-.354,1.618q-.062.693.308.878a.588.588,0,0,0,.616-.046,2.959,2.959,0,0,0,.709-.632,10.91,10.91,0,0,0,.77-1.032q.4-.6.77-1.248.862-1.51,1.818-3.574a.347.347,0,0,1,.154-.031.253.253,0,0,1,.185.062.1.1,0,0,0,.139.015c.051-.031.077-.026.077.015q.03.062.231-.046t.139.046a6.214,6.214,0,0,0-.277.662q-.247.632-.647,1.525t-.939,1.91a15.583,15.583,0,0,1-1.156,1.864,7.619,7.619,0,0,1-1.263,1.387,1.638,1.638,0,0,1-1.294.447l-.493-.123a1.55,1.55,0,0,0-.37-.077A1.319,1.319,0,0,1,342.747,231.158Zm-1.232-1.849c0,.083.006.18.015.293a3.227,3.227,0,0,0,.046.324.339.339,0,0,1,.031.154.332.332,0,0,0,.062.185.761.761,0,0,0,.123.308,1.379,1.379,0,0,0,.154.277l.216.216.031.031v-.031l-.062-.031a3.928,3.928,0,0,1-.246-.308c0-.041-.01-.062-.031-.062v-.031c-.02-.02-.031-.035-.031-.046s-.01-.025-.031-.046a.088.088,0,0,0-.031-.062v-.031a.09.09,0,0,1-.031-.062.089.089,0,0,0-.031-.062.138.138,0,0,0-.015-.062.22.22,0,0,1-.015-.092.313.313,0,0,1-.062-.169.534.534,0,0,0-.031-.169v-.739a2.62,2.62,0,0,1,.062-.432c.021-.164.046-.318.077-.462a2.342,2.342,0,0,1,.108-.37q.092-.339.185-.617c.062-.185.113-.328.154-.431s.067-.169.077-.2a1.682,1.682,0,0,1,.077-.169,1.663,1.663,0,0,0,.092-.216v0a.027.027,0,0,0-.031.031.09.09,0,0,0-.031.062.027.027,0,0,1-.031.031,2.436,2.436,0,0,0-.185.493,1.383,1.383,0,0,0-.185.431,1.427,1.427,0,0,0-.077.246,2.613,2.613,0,0,1-.108.339,1.3,1.3,0,0,0-.077.246c-.01.062-.025.144-.046.246a.28.28,0,0,0-.031.123.269.269,0,0,1-.031.123,1.135,1.135,0,0,1-.031.277.635.635,0,0,1-.031.246Zm.308.246a.181.181,0,0,0,.031.123v-.524c0-.02-.01-.02-.031,0v.4Zm.216-1.479a.546.546,0,0,0,.046-.154.572.572,0,0,1,.046-.154,1.25,1.25,0,0,0,.077-.247.281.281,0,0,1,.077-.154c.021-.041.026-.066.016-.077s0-.036.016-.077v-.092a.027.027,0,0,1-.031.031,1.336,1.336,0,0,0-.062.216.21.21,0,0,0-.062.154.36.36,0,0,0-.061.247c-.021.041-.036.072-.047.092s-.025.051-.046.092a.577.577,0,0,1-.031.185.6.6,0,0,0-.031.185.524.524,0,0,1-.031.216.484.484,0,0,1-.016.123.535.535,0,0,0-.015.123.181.181,0,0,0-.031.123V229h0a.518.518,0,0,1,.031-.154.125.125,0,0,0,.031-.093.128.128,0,0,1,.031-.092,1.177,1.177,0,0,1,.031-.277A.681.681,0,0,0,342.039,228.077Zm-.185,1.756a1.012,1.012,0,0,0,.062.247v.031a.12.12,0,0,0,.015.077.063.063,0,0,1,.015.046l.061.123a.064.064,0,0,0,.016.047.062.062,0,0,1,.015.046h.031a.027.027,0,0,1-.031-.031v-.062c-.02,0-.031-.02-.031-.061a.027.027,0,0,0-.031-.031V230.2a.09.09,0,0,1-.031-.061v-.031a.137.137,0,0,0-.015-.062.21.21,0,0,1-.015-.092.126.126,0,0,0-.031-.092V229.8h-.031Zm.739,1.2V231a.066.066,0,0,1-.046-.015.06.06,0,0,0-.046-.015c.021,0,.026-.005.015-.015a.061.061,0,0,0-.046-.015c-.021-.021-.031-.036-.031-.047s-.01-.026-.031-.046h-.031l-.061-.062a.09.09,0,0,0-.062-.031l.031.062a.088.088,0,0,1,.062.031l.062.062a2.492,2.492,0,0,0,.062.062h.031c.042.041.072.062.092.062h0Zm.216-4.992a3.535,3.535,0,0,0-.216.37q-.092.185-.154.339a1.336,1.336,0,0,0-.062.169V227q-.062.155.154-.308a.692.692,0,0,0,.061-.216.676.676,0,0,0,.093-.154l.123-.247Zm1.787-2.033h.062l-.031-.031a.26.26,0,0,0,.046-.062.431.431,0,0,1,.077-.093.318.318,0,0,0,.062-.123c0-.021.02-.051.062-.093l.154-.308a.332.332,0,0,1,.046-.077.354.354,0,0,0,.046-.077l.092-.185.093-.185.092-.185a.24.24,0,0,0,.046-.061.249.249,0,0,1,.046-.062.276.276,0,0,0,.031-.077.266.266,0,0,1,.031-.077.391.391,0,0,1,.092-.185q.061-.061.046-.092c-.011-.02-.006-.051.015-.092a.09.09,0,0,0,.031-.062h.062v-.031l-.031-.031c-.021,0-.031,0-.031-.015s-.011-.015-.031-.015l-.031-.031-.031.031a.031.031,0,1,1,0,.062.268.268,0,0,0-.123.216.23.23,0,0,1-.077.093.228.228,0,0,0-.077.092l-.062.123a.544.544,0,0,1-.062.154.37.37,0,0,1-.062.092l-.092.092a.8.8,0,0,0-.046.108.909.909,0,0,1-.047.108c-.041.062-.057.1-.046.123a.111.111,0,0,1-.015.092.513.513,0,0,1-.031.154,1.225,1.225,0,0,1-.062.154.792.792,0,0,1-.077.123.811.811,0,0,0-.077.123l-.062.123a.277.277,0,0,0-.031.123h-.031v.031Zm1.54-3.636a.98.98,0,0,1-.37-.062q-.339-.122-.339-.339,0-.277-.015-.524t-.015-.37a2.866,2.866,0,0,1,.123-.354,4.723,4.723,0,0,1,.339-.693,6.639,6.639,0,0,1,.463-.693.957.957,0,0,1,.493-.385q.492-.093.555-.092h.247a1.071,1.071,0,0,0,.4-.015.423.423,0,0,1,.37.077,1.311,1.311,0,0,0,.431.123q.247.031.031.37a5,5,0,0,1-.324.524q-.231.339-.477.724t-.462.724q-.216.339-.308.493a1.436,1.436,0,0,1-.493.539A.477.477,0,0,1,346.137,220.374Zm-.4-1.263.031-.031a.177.177,0,0,1,.062-.123.275.275,0,0,0,.031-.123.359.359,0,0,0,.062-.093.865.865,0,0,0,.046-.108.65.65,0,0,1,.077-.138.178.178,0,0,0,.062-.123.249.249,0,0,0,.046-.062.24.24,0,0,1,.046-.061,2.957,2.957,0,0,1,.185-.308.723.723,0,0,0,.139-.185.577.577,0,0,1,.108-.154c.041-.041.062-.067.062-.077s.01-.026.031-.046a.237.237,0,0,0,.031-.092h0a.027.027,0,0,0-.031.031.73.73,0,0,0-.123.185l-.123.123a.352.352,0,0,0-.062.093c-.021.041-.042.082-.062.123a.656.656,0,0,0-.123.154l-.046.093-.046.092a.708.708,0,0,0-.092.154,1.6,1.6,0,0,0-.092.216.177.177,0,0,0-.062.123c-.042.041-.062.072-.062.092a.089.089,0,0,0-.031.062.091.091,0,0,1-.031.062.062.062,0,0,1-.015.046.063.063,0,0,0-.015.046Zm.277.092v-.031c.021-.02.021-.031,0-.031v.031h-.031v.093l-.031.031h.031v-.031l.031-.031.031-.031Zm.185-.37a.09.09,0,0,0,.031-.062c0-.02-.011-.02-.031,0-.021,0-.042.031-.062.092a.089.089,0,0,1-.031.062v.062a.089.089,0,0,0,.031-.062l.031-.031A.091.091,0,0,0,346.2,218.833Zm.154-.308h-.031a.09.09,0,0,0-.031.062.062.062,0,0,1-.015.046.063.063,0,0,0-.016.047c-.021.021-.021.031,0,.031l.031-.031a.237.237,0,0,1,.031-.093l.031-.031Zm.431-.678c0-.02-.011-.02-.031,0a.09.09,0,0,0-.031.062l-.062.062a.027.027,0,0,0-.031.031v.062a.089.089,0,0,1-.062.031.126.126,0,0,0-.031.093.088.088,0,0,0-.031.062.064.064,0,0,1-.015.046.062.062,0,0,0-.015.046.054.054,0,0,0-.062.062.125.125,0,0,0-.031.092.089.089,0,0,1,.031-.062c.041-.02.056-.031.046-.031s-.005-.01.015-.031.031-.036.031-.046.01-.025.031-.046a.36.36,0,0,0,.062-.092l.061-.123c.041-.02.062-.041.062-.062a.09.09,0,0,1,.031-.062c.02-.02.025-.031.015-.031s-.005-.01.015-.031Zm.123-.154c.041-.041.056-.062.046-.062s.005-.02.046-.062.062-.072.062-.092a1.182,1.182,0,0,0-.108.123,1.1,1.1,0,0,1-.108.123l-.031.062C346.815,217.827,346.846,217.8,346.907,217.693Z" transform="translate(-305.774 -215.243)"/><path d="M371.385,234.786a2.241,2.241,0,0,1-.2.169,2.8,2.8,0,0,0-.355.355h.031a13.5,13.5,0,0,0-.894,1.448,16.459,16.459,0,0,0-.739,1.571,8.187,8.187,0,0,0-.524,1.91,7.278,7.278,0,0,0-.077,1.264,1.068,1.068,0,0,0,.354.893q.123.155.462,0a3.3,3.3,0,0,0,1.079-.709,8.229,8.229,0,0,0,1.233-1.448,1.366,1.366,0,0,1-.524-.616,2.538,2.538,0,0,1-.262-1.494,2.976,2.976,0,0,1,.477-1.263,2.5,2.5,0,0,1,.894-.816,1.334,1.334,0,0,1,.986-.154.984.984,0,0,1,.554.431,1.108,1.108,0,0,1,.139.493,4.629,4.629,0,0,1,0,.524,3.192,3.192,0,0,1-.062.462c-.031.144-.057.257-.077.339a.089.089,0,0,0-.031.061v0q-.092.278-.2.57t-.231.6a5.729,5.729,0,0,0,1.618-.94,12.09,12.09,0,0,0,2.326-2.635.235.235,0,0,0,.093-.031.349.349,0,0,1,.154-.031c.041-.02.082,0,.123.062s.082.062.123,0c.02-.062.082-.071.185-.031a1.161,1.161,0,0,0,.154.062,9.3,9.3,0,0,1-2.48,3.281,6.636,6.636,0,0,1-1.464.94,4.322,4.322,0,0,1-1.387.4,8.081,8.081,0,0,1-1.093,1.479,4.033,4.033,0,0,1-1.494,1.017,3.336,3.336,0,0,1-2.187.246,2.679,2.679,0,0,1-1.233-.8,3.61,3.61,0,0,1-.74-1.571.127.127,0,0,1-.031-.093,6.877,6.877,0,0,1-.077-2,6.484,6.484,0,0,1,.693-2.188,8.094,8.094,0,0,1,.909-1.418,7.542,7.542,0,0,1,1.125-1.155,4.972,4.972,0,0,1,1.155-.724,1.416,1.416,0,0,1,.971-.123,1.858,1.858,0,0,1,.755.2,4.23,4.23,0,0,1,1.094.662.506.506,0,0,1,.154.37.419.419,0,0,1-.061.277c-.042.062-.088.129-.139.2a1.394,1.394,0,0,0-.108.169c0,.021-.051.031-.154.031l-.246-.185A.609.609,0,0,0,371.385,234.786Zm-4.529,3.05c.041-.1.072-.185.092-.246l.092-.277a5.32,5.32,0,0,0,.247-.493,2.328,2.328,0,0,1,.308-.524q.154-.215.262-.4a1.382,1.382,0,0,1,.2-.277c.041-.062.067-.1.077-.123a.443.443,0,0,1,.077-.092.933.933,0,0,1,.093-.123v-.031a.027.027,0,0,0-.031.031l-.062.062c-.041.062-.082.118-.123.169a.8.8,0,0,0-.093.139,1.257,1.257,0,0,0-.108.123,1.1,1.1,0,0,1-.108.123c-.02.041-.051.1-.092.169s-.083.139-.123.2a1.253,1.253,0,0,1-.108.185c-.031.042-.067.093-.108.154a.539.539,0,0,0-.061.154.7.7,0,0,0-.093.154,1.52,1.52,0,0,0-.077.169.664.664,0,0,1-.077.139.46.46,0,0,1-.062.185,1.565,1.565,0,0,1-.092.216,1.155,1.155,0,0,0-.092.262,2.335,2.335,0,0,1-.062.231.5.5,0,0,0-.062.216.438.438,0,0,0-.031.185h-.031v.062l.031-.031v-.031a.978.978,0,0,1,.061-.277.29.29,0,0,0,.062-.139.1.1,0,0,1,.031-.077.217.217,0,0,1,.015-.092C366.82,237.909,366.835,237.879,366.856,237.837Zm.061.771v-.123l-.031.062v.031c0,.041,0,.067-.015.077a.127.127,0,0,0-.015.077v.092l-.031.031h.031v-.031a.128.128,0,0,1,.031-.092V238.7c0-.02.005-.031.015-.031s.015-.01.015-.031Zm.277-.893c0-.021-.01-.021-.031,0a.249.249,0,0,0-.062.185l-.031.031a.124.124,0,0,1-.031.092.125.125,0,0,1-.031.092v.092a.091.091,0,0,1,.031-.061v-.062a.028.028,0,0,1,.031-.031.091.091,0,0,1,.031-.062v-.062l.062-.123A.238.238,0,0,0,367.194,237.714Zm.185-.463a.028.028,0,0,0-.031.031c-.02.02-.031.036-.031.046s-.01.026-.031.046a.543.543,0,0,1-.062.154v.092a.236.236,0,0,1,.031-.092.709.709,0,0,0,.092-.154l.031-.062.031-.062Zm.185-.308c.041-.041.062-.071.062-.092s.021-.051.062-.092c.02-.041.051-.1.092-.185a2.071,2.071,0,0,1,.123-.216.406.406,0,0,0,.092-.139.193.193,0,0,1,.093-.108c.02-.041.025-.062.015-.062s-.005-.01.015-.031l.031-.062h-.061l-.062.123a.082.082,0,0,1-.093.092.21.21,0,0,1-.061.154.486.486,0,0,1-.093.123.475.475,0,0,1-.092.123.272.272,0,0,0-.031.123.088.088,0,0,0-.031.062.24.24,0,0,1-.031.092.368.368,0,0,1-.062.092.089.089,0,0,0-.031.062.533.533,0,0,0-.062.154c-.021.021-.026.021-.015,0a.435.435,0,0,1,.077-.092c.041-.041.056-.062.046-.062S367.544,236.985,367.564,236.943Zm1.911-1.047c.02,0,.02-.01,0-.031l-.031-.031a.027.027,0,0,0-.031-.031l-.031-.031-.031.062a.089.089,0,0,1-.062.031c-.041.062-.077.118-.108.169a.715.715,0,0,1-.108.139.566.566,0,0,1-.108.139l-.139.139c-.021.042-.051.1-.092.169s-.082.149-.123.231a.753.753,0,0,1-.092.154.332.332,0,0,0-.123.154l-.092.139a1.308,1.308,0,0,0-.093.2.065.065,0,0,1-.015.046.061.061,0,0,0-.016.046c0,.042-.01.062-.031.062v.154c-.021.062-.041.129-.061.2s-.042.139-.062.2a2.246,2.246,0,0,1-.077.247c-.031.082-.057.144-.077.185a.248.248,0,0,0-.031.108.255.255,0,0,1-.031.108v.185l.031.031h.062l-.031-.031h0v-.031a.125.125,0,0,1,.031-.093.119.119,0,0,1,.016-.077.126.126,0,0,0,.015-.077c.021-.02.031-.036.031-.046s.01-.025.031-.046v-.092c.021,0,.031-.021.031-.062a.063.063,0,0,1,.015-.046.062.062,0,0,0,.015-.046.179.179,0,0,0,.031-.123.128.128,0,0,0,.031-.093.089.089,0,0,0,.031-.061.089.089,0,0,1,.031-.062.178.178,0,0,1,.062-.123,1.568,1.568,0,0,1,.092-.216c.041-.082.082-.174.123-.277a1.6,1.6,0,0,1,.154-.293,2.593,2.593,0,0,0,.154-.262,2.343,2.343,0,0,0,.262-.385,1.288,1.288,0,0,1,.2-.293.169.169,0,0,0,.062-.108.168.168,0,0,1,.062-.108.178.178,0,0,0,.062-.123.027.027,0,0,1,.031.031c0-.02.005-.025.015-.015S369.475,235.916,369.475,235.9Zm-.8-.617-.231.231a1.322,1.322,0,0,0-.169.2l-.062.092-.031.062q0,.092.185-.185c.02-.02.031-.035.031-.046s.01-.026.031-.046a.027.027,0,0,1,.031-.031l.092-.092.123-.185v0Zm3.451,3.02a1.51,1.51,0,0,0,.015.662,1.235,1.235,0,0,0,.2.385,3.8,3.8,0,0,0,.277-.539q.123-.292.277-.6c.02-.061.056-.169.108-.323s.1-.318.138-.493a1.606,1.606,0,0,0,.046-.478c-.011-.143-.057-.226-.139-.247q-.308-.061-.57.339A3.024,3.024,0,0,0,372.124,238.3Z" transform="translate(-324.552 -227.376)"/><path d="M409.576,243.447c-.165-.042-.319-.082-.463-.123a2.286,2.286,0,0,0-.385-.092,2,2,0,0,1-.293-.062h-.277a.335.335,0,0,1-.154-.123.5.5,0,0,1-.123-.092l-.061-.062-.062-.062-.062-.062-.108-.108a.675.675,0,0,1-.108-.169.793.793,0,0,1-.185-.4,1.521,1.521,0,0,1-.154-.493,1.481,1.481,0,0,0-.015-.2,1.549,1.549,0,0,1-.015-.231,2.514,2.514,0,0,1,.015-.293c.01-.092.026-.189.046-.293l.123-.554a2.761,2.761,0,0,1,.155-.493q.153-.432.308-.786t.246-.539l.154-.231a1.407,1.407,0,0,0,.092-.2.9.9,0,0,1,.077-.139,1.125,1.125,0,0,0,.077-.108V237.5h.031l-.031-.031v.031a.089.089,0,0,0-.031.062l-.062.062a.089.089,0,0,0-.031.061,1.244,1.244,0,0,0-.185.309,1.384,1.384,0,0,1-.123.246,1.873,1.873,0,0,0-.139.262q-.077.17-.139.293l-.154.308a2.127,2.127,0,0,1-.154.431q-.031.123-.093.308a.281.281,0,0,0-.031.077.274.274,0,0,1-.031.077.217.217,0,0,1-.015.092.212.212,0,0,0-.015.093.34.34,0,0,0-.031.154.178.178,0,0,0-.031.123.347.347,0,0,0-.031.154.9.9,0,0,1-.031.216v.431a.339.339,0,0,0,.031.154,1.057,1.057,0,0,0,.015.185c.01.062.026.134.046.216a1.885,1.885,0,0,0,.123.37,1.241,1.241,0,0,1,.108.2c.031.072.067.149.108.231a1.089,1.089,0,0,0,.308.309.332.332,0,0,0,.154.123.055.055,0,0,0,.062.062l.061.062a2.8,2.8,0,0,1-.585-.154,1.368,1.368,0,0,1-.585-.416,1.946,1.946,0,0,1-.37-.832,3.178,3.178,0,0,1,.092-1.417,11.439,11.439,0,0,1,.8-2.111,25.083,25.083,0,0,1,1.725-2.958,22.87,22.87,0,0,0-1.849,1.88q-.771.894-1.618,2.049a15.579,15.579,0,0,0-1.494,2.511,3.053,3.053,0,0,0-.2.431,2.467,2.467,0,0,0-.169.555q-.031.4-.247.277c-.041-.021-.128,0-.262.077a.458.458,0,0,1-.416.015,1.246,1.246,0,0,0-.432-.139,1.64,1.64,0,0,1-.462-.139,1.582,1.582,0,0,1-.462-.663,2.484,2.484,0,0,1-.108-1.186,7.408,7.408,0,0,1,.493-1.818,17.759,17.759,0,0,1,1.34-2.619c.042-.062.083-.128.123-.2s.083-.149.123-.231a2.056,2.056,0,0,0,.262-.4,2.069,2.069,0,0,1,.231-.37q.524-.8.986-1.525t.586-.878a.087.087,0,0,1,.062-.031.581.581,0,0,1,.308.062.285.285,0,0,0,.169.015.281.281,0,0,1,.2.046,5.763,5.763,0,0,0-.493.739q-.154.185-.139.2c.01.011-.005.036-.046.077q-.031.123.277-.37.185-.277.169-.262a2.334,2.334,0,0,1,.139-.2.387.387,0,0,1,.092-.185c.02,0,.031.005.031.015s.01.015.031.015a.777.777,0,0,0,.185.185,1.928,1.928,0,0,1,.185.154q.061.062.154.169a.312.312,0,0,1,.093.17q-.555,1.109-.94,1.956t-.817,1.864a18.774,18.774,0,0,0-.708,1.941l.339-.8a23.5,23.5,0,0,1,1.664-2.126,20.652,20.652,0,0,1,1.772-1.8,11.835,11.835,0,0,1,2.08-1.525,1.239,1.239,0,0,1,.154-.185q.154-.154.216-.154a.691.691,0,0,1,.308.062.424.424,0,0,0,.216.015.212.212,0,0,1,.216.077.776.776,0,0,0,.185.185,1.969,1.969,0,0,1,.185.154q.062.062.154.169a.31.31,0,0,1,.092.17,6.641,6.641,0,0,1-.293.6q-.293.571-.694,1.433t-.832,1.895a19.969,19.969,0,0,0-.709,1.957,8.273,8.273,0,0,0-.339,1.633q-.062.709.308.894a.56.56,0,0,0,.6-.046,2.78,2.78,0,0,0,.678-.647,10.81,10.81,0,0,0,.724-1.047q.37-.6.709-1.248.8-1.51,1.664-3.574h.154a.326.326,0,0,1,.185.031.085.085,0,0,0,.123.015c.041-.031.072-.025.093.015,0,.021.025.021.077,0a.934.934,0,0,1,.154-.046.638.638,0,0,1,.108-.015c.02,0,.02.021,0,.062s-.1.267-.246.678-.339.914-.585,1.51-.534,1.233-.863,1.91a14.945,14.945,0,0,1-1.079,1.88,6.98,6.98,0,0,1-1.217,1.4A1.594,1.594,0,0,1,409.576,243.447Zm-5.392-7.456q.153-.278.308-.539c.1-.174.195-.324.277-.447q.246-.431.447-.755t.323-.508a.926.926,0,0,0,.169-.246.631.631,0,0,1,.108-.185.909.909,0,0,1,.077-.17,1.17,1.17,0,0,0,.077-.108A.027.027,0,0,1,406,233v-.031a.028.028,0,0,0-.031.031.088.088,0,0,0-.031.062.091.091,0,0,1-.031.062l-.062.061a2.262,2.262,0,0,0-.216.323c-.062.113-.113.2-.154.262s-.1.149-.169.262-.129.2-.17.262a3.039,3.039,0,0,0-.169.308,3.808,3.808,0,0,1-.231.4q-.123.185-.185.293t-.185.293c-.062.1-.113.19-.154.262l-.185.323a3.03,3.03,0,0,0-.154.293,1.8,1.8,0,0,1-.123.231,2.571,2.571,0,0,1-.17.339q-.108.185-.2.37c-.061.123-.133.262-.216.416a4.144,4.144,0,0,0-.185.385q-.061.155-.139.354t-.139.354a.088.088,0,0,1-.031.062.027.027,0,0,0,.031-.031l.031-.062a1.31,1.31,0,0,1,.062-.216l.062-.123a.088.088,0,0,0,.031-.062.09.09,0,0,1,.031-.061,1.812,1.812,0,0,0,.169-.355,1.407,1.407,0,0,1,.169-.323,1.749,1.749,0,0,1,.092-.216l.092-.185a1.114,1.114,0,0,1,.062-.108.909.909,0,0,0,.062-.108c.021-.041.042-.082.062-.123l.062-.123c.062-.1.133-.236.216-.4S404.08,236.155,404.184,235.991Zm-1.14,2.866-.062.092a.027.027,0,0,0-.031.031v.062l-.031.031v.062a.18.18,0,0,0-.031.123.027.027,0,0,0-.031.031.21.21,0,0,1-.015.093.137.137,0,0,0-.016.062H402.8l.031.031v-.062a.087.087,0,0,0,.031-.062.091.091,0,0,1,.031-.062v-.061a.177.177,0,0,0,.062-.123.039.039,0,0,0,0-.062l.061-.123v-.061Zm.647-1.387-.031.031a.77.77,0,0,0-.092.154.48.48,0,0,0-.062.185.028.028,0,0,0-.031.031l-.093.185a.545.545,0,0,0-.061.154.179.179,0,0,0-.062.123l.031-.031c0-.02.005-.031.015-.031s.016-.01.016-.031v-.031c0-.02.005-.031.015-.031s.016-.01.016-.031a.09.09,0,0,1,.031-.062c.021-.02.031-.035.031-.046s.011-.026.031-.046c0-.021.005-.031.015-.031s.016-.01.016-.031l.031-.031a2.159,2.159,0,0,1,.123-.216.4.4,0,0,1,.046-.108c.011-.01.015-.036.015-.077Zm.462-.77a.031.031,0,1,0-.062,0,2,2,0,0,0-.123.216.8.8,0,0,0-.046.108.707.707,0,0,1-.077.139.529.529,0,0,0-.062.154q0,.031.092-.123a.278.278,0,0,0,.077-.123,1,1,0,0,1,.077-.185l.062-.123Zm.185-.37.077-.154a1.4,1.4,0,0,1,.077-.123c.041-.062.077-.113.108-.154a1.3,1.3,0,0,0,.108-.185c.041-.062.108-.174.2-.339s.169-.3.231-.4.118-.2.17-.293a.912.912,0,0,1,.138-.2c.041-.041.062-.072.062-.092a.234.234,0,0,1,.031-.092l.062-.123c0-.02-.005-.031-.016-.031s-.015.01-.015.031a.089.089,0,0,0-.031.062c-.082.123-.134.205-.154.246a.91.91,0,0,0-.077.092.91.91,0,0,1-.077.093l-.154.308a.305.305,0,0,0-.077.108.307.307,0,0,1-.077.108.789.789,0,0,0-.046.108.734.734,0,0,1-.077.139.168.168,0,0,0-.062.108.25.25,0,0,1-.031.108.7.7,0,0,0-.154.277.586.586,0,0,0-.108.154l-.077.154a.484.484,0,0,0-.092.123l-.062.123c-.021.041-.015.041.015,0S404.3,236.392,404.338,236.33Zm3.759,2.311h-.031a.09.09,0,0,1-.031.062,2.355,2.355,0,0,1-.093.247.265.265,0,0,0-.092.185,2.4,2.4,0,0,0-.123.308.125.125,0,0,1-.015.077.062.062,0,0,0-.016.046l-.062.123a.246.246,0,0,0-.031.108.249.249,0,0,1-.031.108.481.481,0,0,0-.031.139.248.248,0,0,1-.031.108v.123a.344.344,0,0,0-.031.154,1,1,0,0,0-.062.308.305.305,0,0,0-.031.139v.139c.02.042.031.042.031,0a.834.834,0,0,1,.031-.185c.02-.082.025-.128.015-.139s-.005-.056.015-.139a.522.522,0,0,0,.031-.154.836.836,0,0,1,.031-.185.565.565,0,0,0,.046-.154.776.776,0,0,1,.077-.216c.021-.062.041-.128.062-.2s.041-.139.062-.2c.041-.1.077-.2.108-.293a.515.515,0,0,1,.108-.2.941.941,0,0,1,.062-.185A.278.278,0,0,0,408.1,238.641Zm-.585,3.235c.021.021.021.015,0-.015a.251.251,0,0,1-.031-.139.141.141,0,0,0-.015-.062.131.131,0,0,1-.015-.062v-.092a.066.066,0,0,0-.015-.046.06.06,0,0,1-.016-.046v-.185a.027.027,0,0,0-.031-.031v.277c0,.02,0,.031.015.031s.015.01.015.031v.123l.031.062.031.092Zm.493.832c.02.021.031.021.031,0l-.031-.031a.089.089,0,0,1-.062-.031.055.055,0,0,0-.062-.062.091.091,0,0,0-.031-.062c0-.02-.021-.051-.062-.092a.087.087,0,0,1-.031-.062q-.031-.03-.031-.046c0-.01-.01-.026-.031-.046,0-.021-.021-.051-.062-.093,0-.02-.005-.031-.015-.031s-.015-.01-.015-.031v-.031a.088.088,0,0,1-.031-.062c-.021-.02-.031-.02-.031,0v.031l.062.123a.669.669,0,0,0,.092.154v.031c.041.041.062.072.062.092l.062.062.061.062a.027.027,0,0,0,.031.031l.062.062A.027.027,0,0,0,408,242.708Zm.154-4.221q-.031.155.246-.37l.123-.246a.245.245,0,0,0,.047-.062l.077-.154.185-.277a.027.027,0,0,0,.031-.031l.031-.031h-.031v.031a5.043,5.043,0,0,0-.555.863c-.1.123-.144.185-.123.185A.124.124,0,0,1,408.158,238.487Zm.246,4.53h.031a.088.088,0,0,0,.062.031c.02.021.036.031.046.031s.026.01.046.031a.038.038,0,0,1,.062,0l.123.062a.088.088,0,0,0,.062.031H408.8a.134.134,0,0,1,.062.016.136.136,0,0,0,.062.015.027.027,0,0,0,.031.031.14.14,0,0,1-.062-.015.206.206,0,0,0-.092-.015.027.027,0,0,0-.031-.031.063.063,0,0,1-.046-.015.063.063,0,0,0-.046-.016c-.021-.021-.036-.031-.046-.031s-.026-.011-.046-.031h-.062a.027.027,0,0,1-.031-.031l-.062-.031A.027.027,0,0,1,408.4,243.016Zm.586-3.7a.087.087,0,0,1-.062-.031h-.062v.031h.031l-.031.031a.3.3,0,0,0-.062.216.48.48,0,0,0-.062.077.5.5,0,0,1-.062.077v.139a.312.312,0,0,1-.031.139.126.126,0,0,1-.031.092.357.357,0,0,0-.062.093.679.679,0,0,0-.031.216q-.031.062-.015.077a.066.066,0,0,1,.015.046l.031.062v.4a.125.125,0,0,1-.031.092v.062a.248.248,0,0,1,.031.108.1.1,0,0,0,.031.077v.031c0,.021.01.021.031,0h.031l.031-.031h-.031a.139.139,0,0,0-.015-.061c-.011-.021-.005-.051.015-.093.02-.062.025-.1.015-.108s-.015-.046-.015-.108a.178.178,0,0,0,.015-.123.278.278,0,0,1,.015-.154.7.7,0,0,1,.015-.139.859.859,0,0,0,.016-.17c.041-.164.071-.277.092-.339a1.206,1.206,0,0,0,.077-.262.551.551,0,0,1,.046-.169c.041-.041.051-.067.031-.077s-.02-.036,0-.077v-.093l.031.031a.027.027,0,0,1,.031-.031Z" transform="translate(-351.034 -227.225)"/></g></g></svg>