<svg xmlns="http://www.w3.org/2000/svg" width="156.163" height="70.495" viewBox="0 0 156.163 70.495"><defs><style>.a{fill:#3e3e3e;}</style></defs><g transform="translate(-12 -145.853)"><g transform="translate(67.093 145.853)"><path class="a" d="M255.059,232.6l.035.035.341-.341C255.037,232.687,254.468,231.984,255.059,232.6Z" transform="translate(-232.198 -204.63)"/><path class="a" d="M229.986,168.383,207.44,146.012c-.006,0-.013,0-.019-.009a.53.53,0,0,1,.02.741l-.372-.369-.376.376a.53.53,0,0,1,.727-.749l0,0a.532.532,0,0,0-.734,0l-22.371,22.371a.538.538,0,0,0,0,.752l13.318,13.4a.538.538,0,0,0,.752,0l8.672-8.672-.035-.035c-.59-.612-.021.092.376-.306l-.341.341.864.855,3.335,3.3,4.571,4.528a.535.535,0,0,0,.752,0l13.407-13.4A.539.539,0,0,0,229.986,168.383Zm-31.968-5.555,9.053-9.138,9.138,9.138Z" transform="translate(-184.161 -145.853)"/><path class="a" d="M254.367,146.253a.532.532,0,0,0,0,.624l.376-.376.372.369a.489.489,0,1,0-.745-.617Z" transform="translate(-231.831 -145.978)"/></g><g transform="translate(12 189.422)"><path class="a" d="M37.132,302.367l-7.6-13.336L22.16,302.367l-5.118-19.858-5.042.7,7.913,26.061h4.28l5.353-10.878,5.35,10.878h4.28l7.949-26.373H42.057Z" transform="translate(-12 -282.347)"/><path class="a" d="M137.8,283.732,127.52,310.105h5.042l7.252-19.47,7.234,19.47h5.384l-10.368-26.373Z" transform="translate(-90.553 -283.179)"/><path class="a" d="M224.889,283.732h-5.008v26.373h16.638v-3.923H224.882Z" transform="translate(-153.357 -283.179)"/><path class="a" d="M292.621,299.979h8.255v-3.892h-8.255v-8.408h3.849l2.284-3.956H287.62V310.1h17.647v-3.919H292.621Z" transform="translate(-199.42 -283.172)"/><path class="a" d="M377.351,295.953a7.165,7.165,0,0,0,1.223-4.149,6.929,6.929,0,0,0-2.926-6.029,12.681,12.681,0,0,0-7.506-2.076h-8.255v26.373h5V287.887h3.1q5.274,0,5.274,4.149a3.32,3.32,0,0,1-1.415,2.969,5.6,5.6,0,0,1-2.232.829v4.231l5.586,10.007h5.35l-6.476-11.313A8.323,8.323,0,0,0,377.351,295.953Z" transform="translate(-248.561 -283.149)"/><path class="a" d="M446.224,282.553l-6.4,11.007L433.71,282l-4.965,1.434,8.61,15.2v10.276H442.4V298.828l9.151-16.287Z" transform="translate(-295.384 -282.003)"/></g></g></svg>