<svg xmlns="http://www.w3.org/2000/svg" width="163.051" height="58.683" viewBox="0 0 163.051 58.683"><defs><style>.a{fill:#3e3e3e;}</style></defs><g transform="translate(-12.502 -12.527)"><path class="a" d="M202.122,100.077c1.813-.366,3.887-.294,5.385-1.185a55.224,55.224,0,0,0,10.024-7.079c5.078-4.839,9.78-10.084,14.437-15.337,1.39-1.568,2.13-3.718,3.118-5.627,1.019-1.967,2.814-1.155,4.244-1.005.452.047.862,1.558,1.09,2.449.537,2.1.874,4.254,1.434,6.348,1.5,5.582.438,10.569-3.59,14.736-2.114,2.188-4.532,4.083-6.928,6.211a8.33,8.33,0,0,0,6.775-1.166c2.987-1.911,5.88-3.978,8.739-6.077,2.537-1.863,5.292-2.473,8.162-1.25a7.388,7.388,0,0,1,3.025,2.825c.306.481-.33,1.752-.836,2.448-.181.249-1.435.09-1.872-.274-3.466-2.881-6.895-2.024-10.128.944a66.039,66.039,0,0,1-10.281,8.017c-8.274,5-16.4,1.076-18.109-8.68a65.405,65.405,0,0,1-5.388,4.572c-2.98,2.037-5.957,4.252-9.258,5.612-5.779,2.38-12.861-1.733-14.3-7.841-.089-.377-.21-.747-.364-1.289-1.993,1.945-3.747,3.894-5.75,5.542a28.961,28.961,0,0,1-6,4c-3.367,1.57-6.361.308-8.072-3.069a20.867,20.867,0,0,1-1.346-3.611c-.332-1.142-.492-2.334-.874-4.23-2.429,2.576-4.377,4.914-6.609,6.942-2.885,2.621-6.1,4.749-10.162,5.241-4.4.534-8.017-1.626-9.387-5.337-1.953-5.294-1.8-10.613,1.206-15.342,4.154-6.531,9.744-11.566,17.438-13.8a2.813,2.813,0,0,1,.45-.155c2.29-.239,4.837-.942,6.456,1.252,1.542,2.091,1.1,4.625-.3,6.579a24.742,24.742,0,0,1-5.578,5.918,89.278,89.278,0,0,1-10.3,5.813c-1.461.759-3,1.17-2.544,3.357.445,2.129,1.295,3.95,3.643,4.253a7.223,7.223,0,0,0,4.236-.405c3.883-2.254,7.574-4.84,11.322-7.324a1.378,1.378,0,0,0,.507-.8c.975-4.553,3.6-8.226,6.5-11.68,1.995-2.376,4.253-4.583,7.548-5.165,3.2-.565,4.736,1.082,3.331,3.946A46.382,46.382,0,0,1,178.4,86.8c-1.455,1.918-3.331,3.514-4.9,5.356-1.3,1.524-1.764,3.385-.6,5.136a3.854,3.854,0,0,0,5.127,1.51c3.3-1.768,6.73-3.584,9.416-6.11,4.729-4.449,9.017-9.38,13.324-14.254,1.5-1.7,2.383-3.922,3.786-5.721.922-1.183,2.124-2.544,3.458-2.924,2.409-.687,2.887.138,3.174,2.694a51.9,51.9,0,0,0,1.551,7.531c1.25,4.685-.117,8.737-3.042,12.29a56.709,56.709,0,0,1-5.573,5.349c-.685.631-1.471,1.152-2.211,1.724Zm30.942-19.054c-3.545,3.445-6.994,6.792-10.435,10.148a7.28,7.28,0,0,0-.61.684l6.163,5.745C233.927,94.987,235.483,89.971,233.064,81.024ZM198.726,97.56c5.864-2.169,7.166-7.485,5.03-15.746L192.99,92.206ZM146.5,91.114c5.443-2.4,9.731-5.373,12.2-10.408a4.874,4.874,0,0,0,.121-1.772c-.589,0-1.277-.2-1.751.03A19.068,19.068,0,0,0,146.5,91.114Z" transform="translate(-82.565 -37.512)"/><path class="a" d="M22.763,40.249c4.239-1.624,8.376-3.631,12.743-4.733a23.783,23.783,0,0,1,9.368-.182c7.5,1.213,11.415,6.859,10.4,14.577C53.664,62.076,39.312,75.5,23.24,69.9c-6.894-2.4-10.982-8.128-10.727-15a7.656,7.656,0,0,1,.74-2.118c.743.381,1.793.574,2.165,1.18a12.461,12.461,0,0,1,1.736,4.175c1.312,7.339,10.177,11.239,16.208,8.906,6.315-2.443,10.891-6.717,12.09-13.64,1.65-9.522-6.907-13.511-13.673-12.753a17.915,17.915,0,0,0-10.937,5.669c-1.2,1.22-2.456,3.085-4.465,2.163-2.1-.963-1.725-3.145-1.645-5.085.192-4.632,2.146-8.514,4.973-12.049,6.91-8.64,15.212-15.409,26.133-18.2,4.2-1.073,8.746-1.123,11.76,2.843a7.035,7.035,0,0,1,.964,5.1c-.375,1.857-2.347,2.457-4.286,2.4-.889-.027-1.779.006-2.669,0C40.3,23.363,31.836,28.855,24.787,37.067A24.266,24.266,0,0,0,22.763,40.249Z" transform="translate(0 0)"/><path class="a" d="M275.01,50.821c-.024,3.085-3.124,6.7-5.786,6.747a3.246,3.246,0,0,1-3.39-3.287c-.037-2.963,3.4-6.866,6.049-6.862C273.909,47.422,275.026,48.638,275.01,50.821Z" transform="translate(-166.645 -22.952)"/></g></svg>