<svg xmlns="http://www.w3.org/2000/svg" width="155.105" height="83.35" viewBox="0 0 155.105 83.35"><defs><style>.a,.b{fill:#3e3e3e;}.b{stroke:#3e3e3e;}</style></defs><g transform="translate(-11 -8.28)"><path class="a" d="M54,32.575c5.234-4.288,10.381-8.681,15.587-13,2.76-2.292,5.4-4.724,8.288-6.866,1.927-1.432,3.983-2.408,6.491-1.871a14.832,14.832,0,0,1,3,1.407c.586.268,1.288.734,1.778-.044.476-.756-.066-1.259-.641-1.764-3.207-2.817-7.931-2.212-11.107.1-3.109,2.264-6.154,4.622-9.15,7.033-5.438,4.377-11.153,8.453-15.562,13.978a3.114,3.114,0,0,1-.566.53,1.386,1.386,0,0,1-2.36-.979,5.906,5.906,0,0,1,.12-2.1,75.375,75.375,0,0,1,2.975-8.71,1.638,1.638,0,0,1,.949-1.015c1.063-.428,2.133-.85,3.154-1.367,2.229-1.128,4.349-2.4,5.4-4.856a2.269,2.269,0,0,0-1.2-3.218c-1.774-.8-3.341-.067-4.8.844a12.445,12.445,0,0,0-4.883,6.555,1.782,1.782,0,0,1-1.74,1.384c-2.582.151-5.155.454-7.738.6-1.679.092-3.427.345-4.882-.909-.425-.366-.948-.782-1.431-.164-.409.523-.121,1.069.293,1.49a4.476,4.476,0,0,0,3.508,1.4c2.916-.15,5.826-.4,8.739-.6,1.393-.1,1.451.011.861,1.255a47.536,47.536,0,0,0-3.548,9.06,1.481,1.481,0,0,1-1.243,1.234c-.832.176-1.661.38-2.477.621a12.454,12.454,0,0,0-5.442,2.613,2.453,2.453,0,0,0,.993,4.275,12.736,12.736,0,0,0,3.859.24c1.35.022,1.58.361,1.295,1.693a25.3,25.3,0,0,1-4.5,9.431,46.217,46.217,0,0,1-9.837,10.18,20.182,20.182,0,0,1-9.213,4.107c-2.819.416-4.23-1.263-4.069-3.946.285-4.768,5.281-9.094,10.24-8.083a1.237,1.237,0,0,0,1.58-1.593,1.945,1.945,0,0,0-1.6-1.651,6.467,6.467,0,0,0-4.55.423,19.647,19.647,0,0,0-8.37,8.32c-.937,1.918-1.638,4.029-.9,6.109,1.09,3.056,3.638,4.363,7.076,4.067a18.114,18.114,0,0,0,8.633-3.529A53.381,53.381,0,0,0,43.7,47.864a27.846,27.846,0,0,0,3.671-8.873,3.434,3.434,0,0,1,2.223-2.71c.762-.375,1.229-.223,1.49.654.876,2.943,1.823,5.864,2.693,8.809a67.51,67.51,0,0,0,4.466,11.681,23.748,23.748,0,0,0,4.27,6.047,11.371,11.371,0,0,0,10.768,3.31,18.331,18.331,0,0,0,9.563-4.86c3.679-3.662,4.83-8.325,4.348-13.373-.26-2.722-1.484-4.916-4.3-5.928-1.967-.708-6,.233-6.357,3.154-.1.825-.594,1.123-1.387,1.055A9.966,9.966,0,0,0,70.353,48c-2.659,1.152-2.948,3.825-.683,5.649a18.916,18.916,0,0,0,2.5,1.647,52.713,52.713,0,0,1,5.142,3.059c2.013,1.476,1.861,3.123-.43,4.151a9.189,9.189,0,0,1-4.561.79c-5.447-.077-9.506-2.4-11.734-7.5-1.05-2.4-2.008-4.854-2.871-7.331q-2.244-6.442-4.306-12.948C53.015,34.289,52.869,33.5,54,32.575Zm1.7-17.067a9.638,9.638,0,0,1,3.868-3.2c.512-.223.846-.036.838.409a6.837,6.837,0,0,1-.467.664,15.272,15.272,0,0,1-3.8,2.608.394.394,0,0,1-.509,0C55.452,15.823,55.592,15.65,55.7,15.508ZM43.888,36.776c-.217.758-1.01.584-1.63.713-.7-.17-1.649-.013-1.822-1.051-.167-1,.522-1.457,1.345-1.759.07-.025.134-.066.205-.084.663-.172,1.471-.618,1.969-.053C44.5,35.158,44.094,36.054,43.888,36.776ZM74.634,54.4a12.007,12.007,0,0,1-1.508-1.3,1.828,1.828,0,0,1-.578-2.195,2.1,2.1,0,0,1,2.35-1.088,10.014,10.014,0,0,1,2.917,1.018c.921.44,1.171.319,1.211-.729a11.64,11.64,0,0,1,.371-3.288c.64-1.931,1.9-2.277,3.4-.9a4.91,4.91,0,0,1,1.593,4.359c.145,2.6-.884,4.681-2.053,6.713a1.171,1.171,0,0,1-1.738.54A31.143,31.143,0,0,1,74.634,54.4Z" transform="translate(0 -0.184)"/><path class="a" d="M354.258,63.08c2.314.764,4.576,1.681,6.885,2.461a18.071,18.071,0,0,0,13.323-.278c2.52-1.085,4.5-2.843,4.876-5.74.746-5.781-4.284-10.293-9.222-10.92.458.507.892,1.048,1.39,1.523a16.52,16.52,0,0,1,3.849,5.1,4.618,4.618,0,0,1-1.947,6.145c-4.012,2.176-8.16,2.494-12.2.261a22.686,22.686,0,0,0-14.14-2.619c-.617.075-1.565.573-1.842-.041-.316-.7.609-1.234,1.1-1.729,3.346-3.357,7.055-6.309,10.63-9.41,4.441-3.851,9.076-7.475,13.457-11.4,2.642-2.366,4.99-4.9,5.894-8.513,1.526-6.1.4-11.464-4.279-15.823-4.064-3.784-9.071-4.279-14.242-3.517a24.761,24.761,0,0,0-12.162,5.308,17.07,17.07,0,0,0-6.634,10.8,8.232,8.232,0,0,0,5.866,9.453,15.461,15.461,0,0,0,6.7.321,9.592,9.592,0,0,0,7.224-4.78c1.325-2.311,1.129-6.7-.462-8.669a2.329,2.329,0,0,0-4.076.418c-.414.756-.287,1.221.5,1.577a3.833,3.833,0,0,1,2.361,3.92,4.222,4.222,0,0,1-2.862,3.746,11.2,11.2,0,0,1-5.647.817c-3.045-.224-6.568-2.739-5.87-6.739a10.565,10.565,0,0,1,2.057-4.378,24.111,24.111,0,0,1,10.893-8.3c3.192-1.257,6.536-1.746,9.757.024a18.063,18.063,0,0,1,4.555,3.858c4.3,4.733,4.188,10.769-.258,15.325-2.818,2.887-5.862,5.524-8.858,8.22-4.124,3.712-8.425,7.215-12.583,10.885a94.378,94.378,0,0,0-11.316,11.25,27.733,27.733,0,0,0-3.045,4.225c-.115.215-.323.49-.107.71s.486,0,.711-.1a46.509,46.509,0,0,1,11.387-3.595A16.917,16.917,0,0,1,354.258,63.08Z" transform="translate(-218.342 0)"/><path class="a" d="M327.783,208.585c-3.866-2.7-8.061-2.815-12.257-1.124a9.145,9.145,0,0,0-3.672,14.307c3.447,4.192,10.949,5.031,15.61,1.8.428-.3,1.094-.538.585-1.272-.477-.688-.944-.285-1.411.034a10.4,10.4,0,0,1-9.112,1.362c-3.392-.962-6.407-3.938-6.127-7.584a8.969,8.969,0,0,1,.224-2.317c1.168-3.712,4.292-5.65,8-5.991a9.788,9.788,0,0,1,7.322,1.9.937.937,0,0,0,1.462-.182C328.793,208.936,328.089,208.8,327.783,208.585Z" transform="translate(-202.15 -133.999)"/><path class="a" d="M422.849,208.838c.013-.515-.084-.978-.759-.989-.655-.011-.822.4-.806.941.093,3.289.038,6.578.126,9.869.092,3.385-.962,5.759-4.491,6.359-3.824.65-7.177-.967-7.178-5.576q0-2.442,0-4.884h.045q0-2.775,0-5.549c0-.573.006-1.168-.816-1.16s-.786.624-.785,1.184c.006,3.589-.029,7.179.049,10.766a6.539,6.539,0,0,0,1.678,4.583c2.1,2.178,5.856,2.786,8.966,1.558a5.987,5.987,0,0,0,3.808-6.129,8.336,8.336,0,0,1,.01-1.993C423,214.829,422.774,211.831,422.849,208.838Z" transform="translate(-268.712 -135.018)"/><path class="a" d="M275.61,92.995a1.114,1.114,0,0,0,.977-1.167c-.008-.7-.544-.794-1.094-.809-.369-.01-.739,0-1.109,0-6.172-.095-12.332.32-18.5.48-1.516,0-3.032-.034-4.546.012a1.128,1.128,0,0,0-1.076,1.686c.29.672.9.544,1.435.551,4.177.053,8.329-.563,12.508-.461,3.585.088,7.163-.161,10.744-.229A3.44,3.44,0,0,0,275.61,92.995Z" transform="translate(-161.783 -55.965)"/><path class="b" d="M466.08,214.623a8.433,8.433,0,0,0-3.692-2.375c-.993-.368-1.743-.618-1.15-1.9a1.638,1.638,0,0,0-.168-1.07,2.525,2.525,0,0,0-2.675-1.348c-1.212.209-.779,1.179-.8,1.867-.156,4.431.318,8.863-.011,13.295,0,.7.008,1.406,0,2.109s.322.978,1.021.979a15.969,15.969,0,0,0,2.948-.42c3.385-.623,5.517-2.379,6.078-5.933A6.191,6.191,0,0,0,466.08,214.623Zm-7.763-3.428c0-.035,0-.07,0-.105q0-.567,0-1.133h0c0-.422,0-.844,0-1.265,0-.188.048-.262.263-.234a2.466,2.466,0,0,1,1.014.348,1.326,1.326,0,0,1,.722,1.276,1.424,1.424,0,0,1-.972,1.2c-.226.069-.453.137-.684.186C458.386,211.523,458.326,211.466,458.318,211.2Zm8.58,8.131a5.984,5.984,0,0,1-4.084,5.038c-.95.291-1.9.578-2.875.782-1.133.239-1.388,0-1.423-1.139,0-.147-.006-.3-.006-.443q0-2.382,0-4.764H458.5c0-1.773.014-3.545-.006-5.318-.009-.791.2-1.1,1.107-.983a10.363,10.363,0,0,1,4.262,1.463C465.749,215.175,467.136,216.836,466.9,219.326Z" transform="translate(-302.105 -135.053)"/><path class="a" d="M382.294,224.846a8.892,8.892,0,0,0-1-.045c-2.035,0-4.07.005-6.105-.008-1.509-.01-1.767-.257-1.776-1.734-.015-2.294,0-4.588,0-6.882h.009c0-2.331.008-4.663-.006-6.993,0-.558.181-1.292-.754-1.3-1.006-.011-.822.776-.813,1.364.015,1,.146,1.992.151,2.989.017,3.774,0,7.548,0,11.322,0,1.82.688,2.537,2.537,2.586,1.257.034,2.516.011,3.774.012,1.3,0,2.591,0,3.885-.007.385,0,.777-.044.778-.566A.688.688,0,0,0,382.294,224.846Z" transform="translate(-244.118 -135.04)"/></g></svg>