<svg xmlns="http://www.w3.org/2000/svg" width="139.948" height="78.36" viewBox="0 0 139.948 78.36"><defs><style>.a{fill:#353535;stroke:#000;stroke-miterlimit:10;stroke-width:0.5px;}.b{fill:#3e3e3e;}</style></defs><g transform="translate(-15.649 -76.331)"><g transform="translate(16.145 149.925)"><path class="a" d="M17.268,223.795h-.012v3.85h-.618v-4.289h.986l1.89,3.767,1.889-3.767h.987v4.289h-.618v-3.85h-.012l-1.919,3.85h-.653Z" transform="translate(-16.638 -223.242)"/><path class="a" d="M53,223.13a2.262,2.262,0,1,1-2.412,2.257A2.188,2.188,0,0,1,53,223.13Zm0,4.028a1.77,1.77,0,1,0-1.759-1.77A1.677,1.677,0,0,0,53,227.158Z" transform="translate(-33.57 -223.13)"/><path class="a" d="M82.628,223.355H84.3c1.907,0,2.555.8,2.555,2.2,0,1.319-.8,2.091-2.466,2.091H82.628Zm.618,3.8H84.41c1.414,0,1.789-.82,1.789-1.657,0-1.111-.5-1.657-1.937-1.657H83.246Z" transform="translate(-49.545 -223.242)"/><path class="a" d="M115.978,226.528h-2.631l-.553,1.116h-.689l2.2-4.289h.724l2.2,4.289h-.707Zm-.237-.487-1.07-2.163-1.075,2.163Z" transform="translate(-64.245 -223.242)"/><path class="a" d="M168.641,223.355h3.048v.487h-2.43v1.4h2.311v.487h-2.311v1.913h-.618Z" transform="translate(-92.437 -223.242)"/><path class="a" d="M197,223.355h3.209v.487h-2.59V225.2h2.424v.487h-2.424v1.473h2.662v.487H197Z" transform="translate(-106.581 -223.242)"/><path class="a" d="M228.854,224.383c-.06-.6-.672-.766-1.367-.766-.612,0-1.129.3-1.129.778,0,.232.142.47.671.558l1.6.273c.695.119,1.016.517,1.016,1.046,0,.855-.767,1.372-2.038,1.372-1.218,0-1.925-.451-2-1.4h.653c.018.576.571.908,1.384.908.891,0,1.385-.35,1.385-.82,0-1.188-3.286-.113-3.286-1.907,0-.826.7-1.3,1.871-1.3.891,0,1.836.267,1.9,1.253Z" transform="translate(-120.843 -223.13)"/><path class="a" d="M256.733,223.878h-1.818v-.523h4.254v.523h-1.818v3.766h-.618Z" transform="translate(-135.46 -223.242)"/><path class="a" d="M287,226.528h-2.632l-.552,1.116h-.689l2.2-4.289h.725l2.2,4.289h-.707Zm-.238-.487-1.069-2.163-1.075,2.163Z" transform="translate(-149.526 -223.242)"/></g><g transform="translate(69.932 94.321)"><path class="b" d="M125.967,112.76l-2.022,9.291a.768.768,0,0,0,1.115.857,55.957,55.957,0,0,1,14.82-6.726,30.555,30.555,0,0,1,8.376-1.406,26.217,26.217,0,0,1,8.243,1.769,112.219,112.219,0,0,0,16.532,4.11,114.519,114.519,0,0,0,16.931,1.591,112.113,112.113,0,0,0,16.93-.96q1.075-.143,2.147-.3a.764.764,0,0,0,.53-.933.779.779,0,0,0-.933-.53,110.938,110.938,0,0,1-16.945,1.229,111.793,111.793,0,0,1-16.937-1.341,111.9,111.9,0,0,1-16.58-3.912,38.912,38.912,0,0,0-8.33-2.168,26.181,26.181,0,0,0-8.578.911,56.909,56.909,0,0,0-15.231,6.282q-.88.523-1.741,1.077l1.115.857,2.021-9.29c.207-.952-1.255-1.359-1.463-.4Z" transform="translate(-123.928 -112.215)"/></g><g transform="translate(53.579 96.029)"><path class="b" d="M91.336,121.327a3.919,3.919,0,0,0,2.61,2.666,3.859,3.859,0,0,0,3.713-.664,4.428,4.428,0,0,0,1.5-3.464,4.24,4.24,0,0,0-1.913-3.427,4.863,4.863,0,0,0-4.406-.5.782.782,0,0,0-.53.933.764.764,0,0,0,.933.53,3.175,3.175,0,0,1,4.364,2.09,3.1,3.1,0,0,1-.616,2.365,2.965,2.965,0,0,1-.452.43,2.173,2.173,0,0,1-.547.286,3.191,3.191,0,0,1-.348.09c-.029.006-.2.027-.075.014-.053.006-.106.009-.159.012-.107.005-.214,0-.32,0a1.034,1.034,0,0,1-.277-.032,2.8,2.8,0,0,1-1.248-.552,2.071,2.071,0,0,1-.769-1.178.759.759,0,0,0-1.463.4Z" transform="translate(-91.309 -115.622)"/></g><g transform="translate(15.649 76.331)"><path class="b" d="M61.192,76.367c-5.2,1.962-10.722,4.1-14.5,8.363-3.965,4.482-4.89,10.445-5.416,16.2-.262,2.871-.433,5.759-.916,8.6a42.656,42.656,0,0,1-2.094,7.758,44.429,44.429,0,0,1-8.089,13.56,43.025,43.025,0,0,1-12.4,9.88q-.872.459-1.766.874a.765.765,0,0,0-.272,1.038.776.776,0,0,0,1.038.272,43.675,43.675,0,0,0,12.981-9.362,46.188,46.188,0,0,0,8.909-13.264,44.628,44.628,0,0,0,2.61-7.686,58.308,58.308,0,0,0,1.227-8.381c.494-5.581.711-11.605,3.8-16.482,3-4.732,8.3-7.2,13.344-9.169.643-.251,1.289-.5,1.935-.74a.78.78,0,0,0,.53-.933.765.765,0,0,0-.933-.53Z" transform="translate(-15.649 -76.331)"/></g><path class="b" d="M173.947,97.579a.809.809,0,1,1,.809-.809A.81.81,0,0,1,173.947,97.579Z" transform="translate(-78.535 -9.79)"/></g></svg>