<svg xmlns="http://www.w3.org/2000/svg" width="173.381" height="76.735" viewBox="0 0 173.381 76.735"><defs><style>.a{fill:#3e3e3e;}</style></defs><g transform="translate(-13.143 -5.021)"><g transform="translate(13.143 5.021)"><g transform="translate(5.472 2.255)"><path class="a" d="M28.255,33.732v2.52l24.376-25H50.054Z" transform="translate(-28.255 -11.249)"/></g><g transform="translate(6.168 24.995)"><path class="a" d="M30.179,75.489l1.453-1.434L54.186,97.708l-2.8,0Z" transform="translate(-30.179 -74.055)"/></g><g transform="translate(0 2.255)"><rect class="a" width="1.824" height="46.393"/></g><g transform="translate(3.648 2.255)"><rect class="a" width="1.84" height="46.393"/></g><g transform="translate(81.436 2.255)"><rect class="a" width="1.824" height="46.393"/></g><g transform="translate(85.084 2.255)"><rect class="a" width="1.84" height="46.393"/></g><g transform="translate(8.688 22.55)"><path class="a" d="M37.139,68.727,38.5,67.3,63.166,93.4l-2.656,0Z" transform="translate(-37.139 -67.301)"/></g><g transform="translate(51.66 3.747)"><path class="a" d="M155.821,17.133l1.133-1.763,18.338,44.9h-1.944Z" transform="translate(-155.821 -15.37)"/></g><g transform="translate(35.93 8.799)"><path class="a" d="M130.434,31.666l-.991-2.343L112.376,69.172h2.262Z" transform="translate(-112.376 -29.323)"/></g><g transform="translate(53.821)"><path class="a" d="M161.791,7.143l1.227-2.122,19.967,48.648h-2.06Z" transform="translate(-161.791 -5.021)"/></g><g transform="translate(45.188 29.613)"><rect class="a" width="16.985" height="1.824"/></g><g transform="translate(86.924 47.27)"><rect class="a" width="16.791" height="1.384" transform="translate(0)"/></g><g transform="translate(0.769 2.255)"><rect class="a" width="3.934" height="0.461"/></g><g transform="translate(1.428 48.187)"><rect class="a" width="2.615" height="0.461"/></g><g transform="translate(82.296 47.27)"><rect class="a" width="3.708" height="1.381" transform="translate(0)"/></g><g transform="translate(110.166 2.255)"><rect class="a" width="1.824" height="46.393" transform="translate(0)"/></g><g transform="translate(113.814 2.255)"><rect class="a" width="1.84" height="46.393"/></g><g transform="translate(139.86 2.255)"><rect class="a" width="1.824" height="46.393"/></g><g transform="translate(143.508 2.255)"><rect class="a" width="1.84" height="46.393"/></g><g transform="translate(115.654 47.27)"><rect class="a" width="16.791" height="1.384"/></g><g transform="translate(111.633 47.27)"><rect class="a" width="2.493" height="1.381"/></g><g transform="translate(82.969 2.255)"><rect class="a" width="2.422" height="0.461"/></g><g transform="translate(111.318 2.255)"><rect class="a" width="3.167" height="0.461"/></g><g transform="translate(141.692 48.187)"><rect class="a" width="1.824" height="0.461"/></g><g transform="translate(141.692 2.255)"><rect class="a" width="1.824" height="0.461"/></g><g transform="translate(29.589 48.187)"><path class="a" d="M97.49,138.569H95.36l-.495-.461h2.124Z" transform="translate(-94.865 -138.108)"/></g><g transform="translate(70.851 48.187)"><path class="a" d="M211.057,138.569h-2.023l-.209-.461h2.022Z" transform="translate(-208.825 -138.108)"/></g><g transform="translate(52.69 1.94)"><path class="a" d="M160.117,10.959l-1.235,1.921-.215-.538,1.237-1.965Z" transform="translate(-158.667 -10.378)"/></g></g><g transform="translate(141.471 70.483)"><path class="a" d="M372.627,185.818v.49h-4.522v4.326h4.229v.49h-4.229v5.837h-.538V186.634a1.146,1.146,0,0,1,.126-.677q.127-.138.666-.139Z" transform="translate(-367.567 -185.818)"/><path class="a" d="M390.4,202.037a3.565,3.565,0,0,1-3.208,1.828,3.515,3.515,0,0,1-2.743-1.217,3.646,3.646,0,0,1-.939-2.5,3.683,3.683,0,0,1,3.7-3.714,3.627,3.627,0,0,1,2.424.889,3.469,3.469,0,0,1,1.192,2.033,5.162,5.162,0,0,1,.065.584q.025.363.025.845v2.947H390.4Zm-3.155-5.11a3.226,3.226,0,0,0-2.125,5.649,3.156,3.156,0,0,0,4.446-.245,3.014,3.014,0,0,0,.834-2.122,3.132,3.132,0,0,0-1.014-2.408,3.381,3.381,0,0,0-.988-.649A2.926,2.926,0,0,0,387.249,196.927Z" transform="translate(-377.74 -192.593)"/><path class="a" d="M412.4,197.311a3.822,3.822,0,0,0-1.437-.384,1.605,1.605,0,0,0-1.086.4,1.224,1.224,0,0,0-.457.959,1.2,1.2,0,0,0,.282.816,2.53,2.53,0,0,0,.967.6,4.956,4.956,0,0,1,1.5.808,1.664,1.664,0,0,1,.514,1.273,2.019,2.019,0,0,1-.674,1.551,2.218,2.218,0,0,1-1.536.531,3.53,3.53,0,0,1-1.569-.424v-.555a4.416,4.416,0,0,0,1.681.49,1.591,1.591,0,0,0,1.227-.571,1.477,1.477,0,0,0,.357-.979,1.339,1.339,0,0,0-.637-1.159q-.138-.09-1.281-.6a2.984,2.984,0,0,1-.931-.612,1.623,1.623,0,0,1-.416-1.159,1.68,1.68,0,0,1,.833-1.485,2.416,2.416,0,0,1,1.331-.375,3.476,3.476,0,0,1,1.33.318Z" transform="translate(-393.938 -192.593)"/><path class="a" d="M425.453,185.818v4.931a2.7,2.7,0,0,1,2.139-1.085,2.564,2.564,0,0,1,1.69.62,2.425,2.425,0,0,1,.719,1,4.554,4.554,0,0,1,.211,1.547v4.131H429.7v-4.155a3.657,3.657,0,0,0-.244-1.453,1.934,1.934,0,0,0-.764-.878,2.058,2.058,0,0,0-1.107-.323,1.9,1.9,0,0,0-1.542.71,2.835,2.835,0,0,0-.589,1.87v4.228h-.514V185.818Z" transform="translate(-404.166 -185.818)"/><path class="a" d="M445.923,189.674a.406.406,0,0,1,.3.118.417.417,0,0,1,.118.306.4.4,0,0,1-.408.408.42.42,0,0,1-.3-.118.387.387,0,0,1-.121-.29.407.407,0,0,1,.126-.3A.4.4,0,0,1,445.923,189.674Zm.262,2.612v7.134h-.515v-7.134Z" transform="translate(-417.287 -188.278)"/><path class="a" d="M456,196.438a3.683,3.683,0,0,1,3.7,3.747,3.526,3.526,0,0,1-1.257,2.767,3.7,3.7,0,0,1-2.5.915,3.56,3.56,0,0,1-1.7-.441A3.621,3.621,0,0,1,452.779,202a3.684,3.684,0,0,1-.481-1.845,3.565,3.565,0,0,1,1.265-2.8,3.748,3.748,0,0,1,1.119-.681A3.62,3.62,0,0,1,456,196.438Zm0,.489a3.036,3.036,0,0,0-2.36,1.086,3.11,3.11,0,0,0-.808,2.139,3.142,3.142,0,0,0,1.054,2.392,2.966,2.966,0,0,0,2.065.832,3.219,3.219,0,0,0,3.216-3.2,3.206,3.206,0,0,0-1.052-2.416,3.156,3.156,0,0,0-.969-.625A3.041,3.041,0,0,0,456,196.927Z" transform="translate(-421.619 -192.593)"/><path class="a" d="M482.71,203.735H482.2V199.76a5.905,5.905,0,0,0-.065-1.061,2.014,2.014,0,0,0-.252-.7,1.987,1.987,0,0,0-.743-.78,2.027,2.027,0,0,0-1.062-.29,1.912,1.912,0,0,0-1.763,1.012,2.617,2.617,0,0,0-.273.739,5.483,5.483,0,0,0-.085,1.09v3.967h-.515V199.67a3.959,3.959,0,0,1,.4-1.984,2.427,2.427,0,0,1,.938-.894,2.632,2.632,0,0,1,1.314-.355,2.573,2.573,0,0,1,1.633.571,2.322,2.322,0,0,1,.767,1.045,5.411,5.411,0,0,1,.22,1.755Z" transform="translate(-437.656 -192.593)"/></g></g></svg>