<svg xmlns="http://www.w3.org/2000/svg" width="266.576" height="40.672" viewBox="0 0 266.576 40.672"><defs><style>.a{fill:#3e3e3e;}</style></defs><g transform="translate(-8.395 -8.138)"><g transform="translate(8.395 8.138)"><path class="a" d="M12.456,9.507c-1.4-.168-2.633-.312-3.868-.482-.064-.009-.1-.242-.193-.5.171-.121.371-.386.568-.383,6.722.1,13.472-.109,20.158.446,5.78.481,8.636,4.069,8.8,9.653.194,6.513-2.63,10.651-8.184,12.032A39.1,39.1,0,0,0,24.9,31.614a5.56,5.56,0,0,0-3.836,4.875,4.422,4.422,0,0,0,.895-.572c1.471-1.881,3.118-2.331,4.616-1.24a4.31,4.31,0,0,1,.708,5.536,4.017,4.017,0,0,1-6.616-.1,5.873,5.873,0,0,1,.5-7.209,10.249,10.249,0,0,1,3.86-2.779c3.9-1.4,5.666-4.249,5.947-8.1a30.389,30.389,0,0,0-.284-6.895c-.545-3.441-2.654-5.3-6.107-5.627-1.782-.168-3.593-.03-5.549-.03-.04.874-.1,1.627-.1,2.379-.007,11.152.042,22.3-.049,33.455-.017,1.981.449,2.872,2.539,2.6a9.266,9.266,0,0,1,2.232.25l-.058.648H8.493L8.4,48.2l4.061-.553Z" transform="translate(-8.395 -8.138)"/><path class="a" d="M67.474,26.353,64.2,26.12l-.031-.628,7.719-.713c0,.912-.012,1.728,0,2.544.094,5.537.123,11.076.333,16.608.07,1.859.315,3.935,2.671,4.483,2.061.479,4.131-.681,5.142-3.115a18.709,18.709,0,0,0,1.459-5.649c.285-3.767.227-7.561.294-11.344.011-.613-.06-1.229-.1-1.945l-3.145-.239L78.5,25.5l7.651-.728v23.11l3.2.574-.034.5H81.832V44.888c-.714,1.075-1.083,1.711-1.53,2.287A7.3,7.3,0,0,1,72.478,50c-2.951-.643-4.369-2.792-4.587-5.585-.3-3.834-.315-7.692-.407-11.541C67.433,30.775,67.474,28.675,67.474,26.353Z" transform="translate(-33.4 -15.596)"/><path class="a" d="M158.33,44.711c-2.734,4.635-6.171,6.032-10.621,4.468a6.215,6.215,0,0,1-4.432-5.774c-.153-3.041,1.011-5.262,3.807-6.359a29.419,29.419,0,0,1,5.883-1.37c1.438-.241,2.922-.211,5.014-.34a51.054,51.054,0,0,0-1.2-7.557c-.75-2.42-3.31-3.2-6.6-2.558-2.657.514-3.936,1.913-4.128,4.5a4.159,4.159,0,0,1-.2.968c-.026.081-.241.1-.37.148a4.106,4.106,0,0,1,1.568-5.39c3.437-2.312,7.2-2.136,10.856-.724,3.2,1.235,3.913,4.228,4.073,7.248.215,4.055.19,8.122.285,12.184.023.964.115,1.928.2,3.25,2.845-1.236,1.923-4.111,3.1-5.891,1.611,2.66-1.068,8.039-3.957,8.182a2.575,2.575,0,0,1-2.8-2.286C158.593,46.6,158.505,45.759,158.33,44.711Zm-.376-8.507c-2.769.564-5.013.744-7.037,1.507-2.424.914-3.377,3.825-2.67,6.828.533,2.264,1.8,3.391,3.865,3.451,2.514.074,4.441-1.41,5.08-4.378A70.072,70.072,0,0,0,157.955,36.2Z" transform="translate(-68.86 -15.104)"/><path class="a" d="M118.487,47.557l3.224.4-.043.549h-10.7l-.078-.5,2.969-.492V25.967l-3.132-.345-.006-.59,7.7-.676v4.434a31.322,31.322,0,0,1,3.637-4.149,4.317,4.317,0,0,1,5.591.407,4.646,4.646,0,0,1,.548,5.47c-1.255,1.972-3.978,2.145-5.068.264a2.889,2.889,0,0,1,.524-3.83c1.039-.966,2.272-.612,3.734.937.052-2.405-1.982-3.817-4.161-2.633a6.259,6.259,0,0,0-2.782,2.943,29.333,29.333,0,0,0-1.878,7.69C118.259,39.707,118.487,43.569,118.487,47.557Z" transform="translate(-54.27 -15.159)"/></g><g transform="translate(111.965 8.162)"><path class="a" d="M206.262,28.274c2.671-.543,5.545-.381,7.3-1.7,1.6-1.208,1.974-4.027,3.044-6.493V36.851c-1.065-2.382-1.5-5.24-3.158-6.542-1.7-1.335-4.593-1.146-7.2-1.672V47.479c3.986.069,7.975.311,11.865-.9a5.935,5.935,0,0,0,4.028-4.871c.424-2.022.591-4.1.879-6.148.074-.526.174-1.048.261-1.572l.526.071V48.4H196.246l-.068-.611,3.9-.442V11.3l-3.949-.509.1-.679h26.38V22.317l-.557.081a17.809,17.809,0,0,1-.295-1.937c-.33-7.429-2.1-9.18-9.566-9.357-1.927-.046-3.856-.007-5.931-.007Z" transform="translate(-196.132 -9.046)"/><path class="a" d="M360.656,31.075c1.638-2.292,3.4-4.011,6.139-4.532,4.257-.808,7.631,1.611,8.011,6.235.372,4.54.289,9.119.394,13.681.025,1.095,0,2.19,0,3.4l2.878.356-.031.494H367.836l-.072-.42,2.923-.477c0-.751,0-1.556,0-2.36-.031-4.706.009-9.413-.125-14.116-.09-3.145-1.31-4.953-3.164-5.218-2.232-.319-4.345,1.166-5.376,4a14.576,14.576,0,0,0-1.037,4.415c-.136,4.406-.049,8.819-.049,13.358l2.638.32-.032.513h-10.2l-.1-.365,2.825-.561V28.654l-3.046-.391.045-.588,7.595-.732Z" transform="translate(-266.467 -16.344)"/><path class="a" d="M469.943,49c2.536-1.6,1.9-4.212,2.9-6.132,1.64,2.628-.976,7.968-3.809,8.158a2.5,2.5,0,0,1-2.811-2.181c-.207-.838-.295-1.705-.444-2.6-3.081,4.646-6.424,5.95-10.785,4.191a6.006,6.006,0,0,1-4.095-5.687c-.118-2.776.92-5.021,3.517-6a38.778,38.778,0,0,1,7.007-1.611,24.455,24.455,0,0,1,3.856-.034,56.39,56.39,0,0,0-.562-6.322c-.629-3.129-2.56-4.251-6.225-3.976-3.049.228-4.535,1.716-4.844,4.813a4.433,4.433,0,0,1-.354.967,3.741,3.741,0,0,1,1.071-5.226c3.3-2.47,6.989-2.356,10.667-1.078,3.231,1.122,4.115,3.986,4.3,6.97.255,4.138.179,8.3.28,12.446C469.639,46.68,469.807,47.665,469.943,49Zm-4.592-10.885c-1.767.123-3.061.147-4.337.314-4.211.549-6.237,3.614-5.147,7.731.414,1.565,1.239,3.065,2.928,3.065a8.177,8.177,0,0,0,4.277-1.316,4.911,4.911,0,0,0,1.6-3.015C465.063,42.818,465.117,40.676,465.351,38.118Z" transform="translate(-310.347 -15.894)"/><path class="a" d="M335.093,42.582c.334,3.631-2.966,7.656-6.7,8.3-5.1.883-9.224-1.478-10.911-6.386a17.912,17.912,0,0,1,.205-12.78,10.4,10.4,0,0,1,14.76-4.994,5.883,5.883,0,0,1,3.065,5.7,5.353,5.353,0,0,1-3.636,5.286,24.379,24.379,0,0,1-5.234,1.085,44.45,44.45,0,0,1-4.867.038c-1.209,3.67.317,8.477,3.067,9.9,2.227,1.15,4.612,1.143,6.378-.588C332.768,46.634,333.76,44.554,335.093,42.582ZM321.4,37.723a32.669,32.669,0,0,0,3.6-.019c4.653-.561,6.106-2.45,5.561-7.106-.225-1.923-.924-3.509-3.058-3.911a4.118,4.118,0,0,0-4.677,2.275C321.342,31.661,321.247,34.6,321.4,37.723Z" transform="translate(-250.054 -15.879)"/><path class="a" d="M283.594,45.286c.413,2.862,2.1,4.132,5.341,4.306,4.074.218,6.588-.873,7.2-3.126.594-2.186-.046-3.812-2.279-5-2.127-1.135-4.392-2.009-6.563-3.067a6.759,6.759,0,0,1-3.954-4.28,6.525,6.525,0,0,1,3.078-7.492,10.139,10.139,0,0,1,9.37-.442c2.566,1.076,3.382,3.6,2.1,6.323a3.592,3.592,0,0,1-.532-1.01c-.057-.472.089-.964.067-1.444-.084-1.792-1.406-3-3.607-3.337-3.681-.563-6.521.548-7.293,2.852-.589,1.758.135,3.472,2.224,4.6,1.938,1.048,4.015,1.835,6,2.8,3.877,1.876,5.369,4.364,4.74,7.8-.642,3.5-3.341,5.868-7.417,6a19.5,19.5,0,0,1-6.478-.876,4.634,4.634,0,0,1-3.11-5.454,4.507,4.507,0,0,1,1.06-2.168,2.829,2.829,0,0,1,4.087-.068,3.074,3.074,0,0,1-.018,4.138C286.461,47.431,285.264,47.181,283.594,45.286Z" transform="translate(-234.804 -15.833)"/><path class="a" d="M264.727,32.432a3.557,3.557,0,0,1-.359-.928c-.033-.478.09-.967.069-1.447-.083-1.832-1.342-2.981-3.6-3.327-3.553-.546-6.428.528-7.192,2.687-.672,1.9.016,3.611,2.194,4.789,1.938,1.048,4.016,1.832,6,2.8,3.909,1.9,5.208,4.127,4.661,7.835-.458,3.1-2.852,5.333-6.628,5.887a11.8,11.8,0,0,1-7.68-.982c-2.529-1.406-3.577-4.523-2.234-6.716.8-1.3,2.082-2.117,3.487-1.432a3.8,3.8,0,0,1,1.882,2.541,3.083,3.083,0,0,1-1.462,2.553c-.815.323-2.026-.353-3.144-.611-.162,1.341.991,2.239,2.278,2.806a9.867,9.867,0,0,0,8.062-.015,3.889,3.889,0,0,0,.714-6.787,25.6,25.6,0,0,0-4.023-2.1c-1.24-.606-2.534-1.106-3.75-1.755-2.684-1.433-4.188-3.6-3.759-6.753a6.583,6.583,0,0,1,5.086-5.662,10.324,10.324,0,0,1,7.683.448C265.571,27.512,266.388,30.37,264.727,32.432Z" transform="translate(-220 -15.85)"/><path class="a" d="M415.831,42.58c.919,3.336-2.211,7.569-5.67,8.3a8.918,8.918,0,0,1-10.208-4.918,17.563,17.563,0,0,1-.091-15.254c2.149-4.725,8.555-6.7,13.135-4.3a5.721,5.721,0,0,1,2.847,6.527c-.456,1.655-2.158,2.982-3.558,2.393a3.869,3.869,0,0,1-2.181-2.342,3.3,3.3,0,0,1,1.367-2.818c.794-.383,2.109.311,3.5.6A10.663,10.663,0,0,0,413.4,28.11c-2.5-2.4-7.181-1.664-8.687,1.458a13.249,13.249,0,0,0-1.417,5.547,56.5,56.5,0,0,0,.9,10.234,4.949,4.949,0,0,0,5.091,4.1c2.5.073,4.121-1.387,5.169-3.517C414.988,44.848,415.377,43.7,415.831,42.58Z" transform="translate(-286.708 -15.893)"/><path class="a" d="M434.895,28.188l-3.011-.425,0-.6,7.689-.711V49.485l2.955.223-.024.572H432.223l-.086-.437,2.757-.4Z" transform="translate(-301.825 -16.371)"/><path class="a" d="M442.06,11.164a2.87,2.87,0,1,1-5.733.085,2.871,2.871,0,1,1,5.733-.085Z" transform="translate(-303.817 -8.181)"/><path class="a" d="M336.414,18.32c-4.671-3.11-9.338-3.092-14,.012l-.083-.64c2.086-1.569,4.125-3.209,6.3-4.65a2.374,2.374,0,0,1,2.1.255c1.961,1.362,3.8,2.891,5.692,4.358Z" transform="translate(-252.71 -10.293)"/></g></g></svg>