<svg xmlns="http://www.w3.org/2000/svg" width="209.855" height="46.586" viewBox="0 0 209.855 46.586"><defs><style>.a{fill:#3e3e3e;}</style></defs><g transform="translate(-9.01 -4)"><path class="a" d="M101.34,27.31c0,4.024-.054,8.048.037,12.07a7.155,7.155,0,0,0,.831,3.085,2.956,2.956,0,0,0,1.826,1.288c2.263.467,3.225,1.62,2.95,3.882-.393,3.23-2.586,3.473-5.22,2.326a8.488,8.488,0,0,1-4.743-5.95,20.668,20.668,0,0,1-.6-4.733c-.088-3.305-.027-6.615-.033-9.922,0-1.11-.144-1.109-1.192-.737a16.048,16.048,0,0,1-3.336.754c-1.119.141-1.753-.627-2.127-1.571a4.027,4.027,0,0,1,.059-3.474c.335-.613,1.063-1.375,1.663-1.42,3.518-.265,4.941-3.414,4.885-6.33a8.425,8.425,0,0,0-.662-2.957,3.938,3.938,0,0,0-7.582.023,9.854,9.854,0,0,0-.622,3.37c-.062,6.069-.03,12.139-.048,18.208a12.309,12.309,0,0,1-.19,2.131,2.374,2.374,0,0,1-2.4,2.194,2.541,2.541,0,0,1-2.315-2.328,15,15,0,0,1-.077-1.94q0-9.513.01-19.026A13.844,13.844,0,0,1,85.026,7.9C88.911,2.57,95.388,2.722,99.02,8.24a14.342,14.342,0,0,1,2.313,8.125c-.013,3.648,0,7.3,0,10.945Z" transform="translate(-41.464 0)"/><path class="a" d="M397.786,21.863a19.886,19.886,0,0,1,4.748-13.749,10.927,10.927,0,0,1,17.1.114c3.983,4.717,5.116,10.264,4.541,16.249a19,19,0,0,1-4.836,11.344c-4.99,5.455-12.708,5.087-17.284-.744A20.341,20.341,0,0,1,397.786,21.863Zm21.485-.472a11.806,11.806,0,0,0-3.478-8.667,6.884,6.884,0,0,0-9.351-.2,11.61,11.61,0,0,0-3.634,8.071,12.966,12.966,0,0,0,2.8,9.739,6.824,6.824,0,0,0,10.406.425C418.456,28.271,419.3,25.194,419.272,21.391Z" transform="translate(-219.503 -0.026)"/><path class="a" d="M239.711,21.917c0-4.5-.013-9,.01-13.507a11,11,0,0,1,.258-2.327,2.413,2.413,0,0,1,2.42-1.931c1.944-.019,3.889-.027,5.832.006a10.688,10.688,0,0,1,8.06,4.027,18.783,18.783,0,0,1,4.6,11.436,22.62,22.62,0,0,1-1.736,11.488c-1.665,3.511-3.941,6.465-7.739,7.871a12.744,12.744,0,0,1-2.779.621c-2.757.356-3.4-1.653-3.347-3.412.064-1.953.692-3.3,3.211-3.363a6.3,6.3,0,0,0,4.683-2.595c2.421-2.893,3.056-6.3,2.721-9.961a12.3,12.3,0,0,0-2.2-6.166,7.455,7.455,0,0,0-6.538-3.316c-2.817.034-2.457-.343-2.461,2.429-.012,7.64,0,15.28-.027,22.92a5.651,5.651,0,0,1-.4,2.067,2.111,2.111,0,0,1-2.354,1.4,2.26,2.26,0,0,1-1.945-1.853,10.732,10.732,0,0,1-.251-2.433C239.7,30.854,239.712,26.386,239.711,21.917Z" transform="translate(-130.251 -0.077)"/><path class="a" d="M298.928,18.376c.866,0,1.637,0,2.408,0,1.671,0,3.341,0,5.011.018a2.6,2.6,0,0,1,2.73,2.57,7.327,7.327,0,0,1-.252,2.5,2.337,2.337,0,0,1-2.5,1.685c-2.215-.04-4.432,0-6.648-.014-.581,0-1,.137-.785.8.964,2.992,2.531,5.515,5.618,6.716a8.808,8.808,0,0,0,2.2.41,2.216,2.216,0,0,1,2.147,1.739,7.082,7.082,0,0,1,.093,3.005,2.309,2.309,0,0,1-2.532,1.909c-4.354-.075-7.35-2.388-9.633-5.8-3.032-4.537-3.841-9.586-3.222-14.939a18.516,18.516,0,0,1,5.758-11.959,10,10,0,0,1,7.228-2.834,3.027,3.027,0,0,1,.908.111c1.239.433,1.846,1.97,1.63,4.05a2.651,2.651,0,0,1-2.315,2.446A8.9,8.9,0,0,0,298.928,18.376Z" transform="translate(-160.55 -0.102)"/><path class="a" d="M178.506,25.271c.947,3.347,2.469,5.985,5.641,7.308a8.09,8.09,0,0,0,1.985.435,3.156,3.156,0,0,1,2.815,3.922c-.521,2.891-1.875,3.221-4.984,2.51-4.356-1-7.1-4.085-8.737-7.957-3.239-7.665-3.017-15.22,1.882-22.234A10.886,10.886,0,0,1,185.78,4.18c1.881-.084,2.689.428,3.011,2.278a6.874,6.874,0,0,1-.238,2.885,2.083,2.083,0,0,1-2.029,1.456c-4.112.3-6.233,2.935-7.589,6.46-.335.872-.163,1.1.775,1.106q2.967.019,5.934.012c2.17,0,3.251.941,3.325,3.124.062,1.83-.649,3.819-3.313,3.662-1.971-.117-3.955-.024-5.933-.012C179.366,25.151,179.008,25.219,178.506,25.271Z" transform="translate(-92.625 -0.096)"/><path class="a" d="M136.884,25.429c.452-1.695.91-3.388,1.355-5.084q1.422-5.422,2.833-10.846c.31-1.183.62-2.366.96-3.54a2.145,2.145,0,0,1,1.985-1.769,2.554,2.554,0,0,1,2.4,1.579c.745,1.445.162,2.813-.175,4.173-1.078,4.355-2.215,8.7-3.336,13.039q-1.91,7.4-3.837,14.8a6.18,6.18,0,0,1-.4.939,2.041,2.041,0,0,1-1.9,1.459,1.95,1.95,0,0,1-1.872-1.492c-.515-1.472-.92-2.985-1.318-4.5q-1.9-7.2-3.748-14.411Q128.346,14.01,126.9,8.223c-.433-1.74.677-3.8,2.1-4.005s2.358.65,2.82,2.465c1.24,4.871,2.515,9.734,3.769,14.6.354,1.375.683,2.757,1.024,4.136Z" transform="translate(-66.507 -0.105)"/><path class="a" d="M9.01,21.3A19.745,19.745,0,0,1,14.125,7.846a10.618,10.618,0,0,1,7.707-3.67c1.579-.038,2.262.372,2.769,1.869a3.89,3.89,0,0,1-.515,3.785,2.529,2.529,0,0,1-1.6.919c-4.327.3-6.612,3.029-7.785,6.763a13.852,13.852,0,0,0,.765,10.727c1.377,2.7,3.391,4.554,6.605,4.8a2.57,2.57,0,0,1,2.654,2.373c.25,1.449.2,2.938-1.15,3.89-1.163.82-2.524.47-3.754.155-4.6-1.176-7.222-4.523-9.072-8.6A22.285,22.285,0,0,1,9.01,21.3Z" transform="translate(0 -0.098)"/><path class="a" d="M364.481,21.472c0-2.828-.089-5.66.025-8.484a10.073,10.073,0,0,1,3.147-7.2,5.334,5.334,0,0,1,4.266-1.57,2.426,2.426,0,0,1,.88.216c1.053.543,1.648,2.182,1.412,3.795a2.671,2.671,0,0,1-2.164,2.494c-1.822.439-2.507,1.25-2.516,3.158-.026,5.419.034,10.838-.044,16.255a10.36,10.36,0,0,1-3.35,8.043,5.422,5.422,0,0,1-3.49,1.5,2.5,2.5,0,0,1-2.8-2.121,3.5,3.5,0,0,1,2.763-4.65,2.607,2.607,0,0,0,1.823-2.64c.021-2.931.007-5.861.007-8.792Z" transform="translate(-197.987 -0.111)"/><path class="a" d="M463.338,19.017c0-3.648-.017-7.3.013-10.943a7.754,7.754,0,0,1,.307-2.415,2.174,2.174,0,0,1,2.524-1.452,2.522,2.522,0,0,1,1.981,2.079,13.554,13.554,0,0,1,.1,1.938c.008,6.716,0,13.432.025,20.148a8.47,8.47,0,0,0,.357,2.3,2.82,2.82,0,0,0,2.915,2.23c.273.011.545.007.818.01,1.744.017,2.8.814,2.971,2.565a6.928,6.928,0,0,1-.415,2.872,2.067,2.067,0,0,1-2.017,1.309c-5.207.206-9.084-3.134-9.392-8.482-.233-4.042-.046-8.108-.046-12.163Z" transform="translate(-256.511 -0.1)"/><path class="a" d="M49.971,18.964c0-3.749-.016-7.5.014-11.248a6.006,6.006,0,0,1,.33-2.093,2.145,2.145,0,0,1,2.54-1.409A2.4,2.4,0,0,1,54.74,6.238,23.93,23.93,0,0,1,54.9,9.091c.013,6.374,0,12.749.017,19.123a10.273,10.273,0,0,0,.212,2.024,2.973,2.973,0,0,0,3.3,2.67c1.227-.005,2.448,0,3.094,1.287a4.035,4.035,0,0,1-.077,4.273,2.981,2.981,0,0,1-1.881,1.143c-5.664.674-8.321-3.376-9.1-6.9a29.849,29.849,0,0,1-.481-5.566c-.075-2.725-.02-5.453-.02-8.18Z" transform="translate(-23.114 -0.099)"/></g></svg>