<svg xmlns="http://www.w3.org/2000/svg" width="245.167" height="35.284" viewBox="0 0 245.167 35.284"><defs><style>.a{fill:#3e3e3e;}</style></defs><g transform="translate(-732.481 0.162)"><g transform="translate(732.481 -0.162)"><path class="a" d="M733.71,1.5h-1.18V.711h8.452V1.5H739.8c-1.08,0-1.326.344-1.326,1.721V32.41c0,.636.2,1.817,1.13,1.817h1.376v.836h-8.5v-.836h1.472c.934,0,1.033-1.181,1.033-1.817V3.22C734.986,3.024,735.084,1.5,733.71,1.5Z" transform="translate(-732.481 -0.271)"/><path class="a" d="M759.223,1.452h-2.065V.616h2.9c2.308,0,3.047,1.18,4.863,4.029l17.64,27.569V1.452H780.6V.664h4.913v.788h-1.867V35.016h-3.489l-19.8-31.059V34.18h1.818v.836h-5.013V34.18h2.065Z" transform="translate(-744.723 -0.224)"/><path class="a" d="M821.859,1.452h-2.065V.616h2.9c2.308,0,3.047,1.18,4.863,4.029L845.2,32.215V1.452h-1.965V.664h4.913v.788H846.28V35.016h-3.489l-19.8-31.059V34.18h1.818v.836h-5.013V34.18h2.065Z" transform="translate(-775.795 -0.224)"/><path class="a" d="M882.918,20.673V14.087c0-4.814,2.7-14.249,13.169-14.249,10.515,0,12.924,9.435,12.973,14.2v6.635c0,4.817-2.459,14.449-12.973,14.449C885.621,35.122,882.918,25.491,882.918,20.673Zm13.169,13.612c8.156,0,9.484-8.795,9.434-13.612V14.087c0-4.814-1.424-13.365-9.434-13.365-7.91,0-9.482,8.551-9.482,13.365v6.586C886.6,25.439,888.177,34.285,896.087,34.285Z" transform="translate(-807.11 0.162)"/><path class="a" d="M947.536,21.9c-.05,7.863,3.979,12.384,9.09,12.384,7.96,0,8.156-6.094,8.746-10.86a1.973,1.973,0,0,1,1.964-1.572c1.082,0,1.623,1.128,1.524,2.161-.442,5.014-3.981,11.107-12.235,11.107-9.583,0-13.365-9.191-13.415-17.2-.05-6.83,2.31-17.986,13.415-17.986,5.257,0,8.254,1.524,10.268,5.258V.277h1.572V9.32c0,.688-.048,1.817-1.572,1.817-.982,0-1.377-.44-1.522-1.572-.443-4.078-2.065-8.8-8.746-8.8-6.88,0-9.141,6.29-9.09,12.336C947.486,16.935,947.486,17.967,947.536,21.9Z" transform="translate(-837.02 0.115)"/><path class="a" d="M1008.134,17.078h7.616c.394,0,1.427-.048,1.72-3.633h.836v8.4h-.836c-.294-2.409-.344-3.737-1.72-3.737h-7.616V34.18h10.861c2.015,0,2.9-.981,2.9-4.666a1.789,1.789,0,0,1,2.161-1.524l-.342,6.978-21.671.048V34.18h2.6V1.4h-2.6V.616h20.983l.294,7.222a1.793,1.793,0,0,1-2.162-1.572c0-3.881-.884-4.862-2.9-4.862h-10.122Z" transform="translate(-866.204 -0.224)"/><path class="a" d="M1055.814,1.452h-2.062V.616h2.9c2.308,0,3.047,1.18,4.863,4.029l17.64,27.569V1.452h-1.965V.664h4.913v.788h-1.866V35.016h-3.489l-19.8-31.059V34.18h1.818v.836h-5.011V34.18h2.063Z" transform="translate(-891.857 -0.224)"/><path class="a" d="M1120.807,21.9c-.05,7.863,3.979,12.384,9.09,12.384,7.96,0,8.156-6.094,8.746-10.86a1.973,1.973,0,0,1,1.964-1.572c1.082,0,1.623,1.128,1.524,2.161-.442,5.014-3.981,11.107-12.235,11.107-9.583,0-13.365-9.191-13.415-17.2-.048-6.83,2.308-17.986,13.415-17.986,5.257,0,8.254,1.524,10.268,5.258V.277h1.572V9.32c0,.688-.048,1.817-1.572,1.817-.982,0-1.376-.44-1.522-1.572-.442-4.078-2.065-8.8-8.746-8.8-6.88,0-9.14,6.29-9.09,12.336C1120.758,16.935,1120.758,17.967,1120.807,21.9Z" transform="translate(-922.976 0.115)"/><path class="a" d="M1181.407,17.078h7.616c.394,0,1.427-.048,1.72-3.633h.836v8.4h-.836c-.294-2.409-.344-3.737-1.72-3.737h-7.616V34.18h10.86c2.015,0,2.9-.981,2.9-4.666a1.79,1.79,0,0,1,2.162-1.524l-.344,6.978-21.669.048V34.18h2.6V1.4h-2.6V.616H1196.3l.294,7.222a1.793,1.793,0,0,1-2.162-1.572c0-3.881-.884-4.862-2.9-4.862h-10.122Z" transform="translate(-952.162 -0.224)"/></g></g></svg>