<svg xmlns="http://www.w3.org/2000/svg" width="189.613" height="43.231" viewBox="0 0 189.613 43.231"><defs><style>.a{fill:#3e3e3e;}</style></defs><g transform="translate(-8 -3.824)"><path class="a" d="M324.206,31.662c.289-.8.582-1.547.834-2.31,1.906-5.768,7.816-10.158,14.229-9.2a7.816,7.816,0,0,1,6.153,4.006c1.126,2.02,2.3,3.98,2.474,6.359.13,1.761-.728,2.784-2.462,2.77-3.386-.027-6.773-.1-10.159-.138a5.173,5.173,0,0,0-1.71.135,2.286,2.286,0,0,0-1.287.95,5.067,5.067,0,0,0,.416,5.606,5.523,5.523,0,0,0,6.1,1.622,6.02,6.02,0,0,0,3.344-2.574,3.649,3.649,0,0,1,2.613-1.918,2,2,0,0,1,2.332,2.594,9.057,9.057,0,0,1-2.967,4.252,11.6,11.6,0,0,1-17.22-1.5,15.912,15.912,0,0,1-2.572-6.116c-.037-.153-.046-.314-.088-.465-.013-.049-.091-.081-.311-.261-.124.55-.267,1.006-.326,1.472-.721,5.7-4.4,9.579-10.4,10-3.651.254-7-.918-10.366-2.007A20.018,20.018,0,0,1,300.1,43.78a1.423,1.423,0,0,1-.78-2.038c.712-2.139,1.936-4.135,1.97-6.464.043-3.028.193-6.073-.056-9.081a61.257,61.257,0,0,0-1.43-7.789,6.6,6.6,0,0,0-2.181-3.528,14.118,14.118,0,0,1-1.471-1.5,2.593,2.593,0,0,1,.122-3.789,34.163,34.163,0,0,1,5.34-3.833c1.927-1.074,4.262.333,4.75,2.828a56.91,56.91,0,0,1,.71,6.459c.107,1.368.022,2.75.092,4.122.061,1.188.6,1.493,1.725,1.122a15.067,15.067,0,0,1,6.873-.927,7.537,7.537,0,0,1,6.428,5.18c.791,2.236,1.192,4.609,1.772,6.92C323.975,31.509,324.053,31.539,324.206,31.662ZM307.677,32.94c.352,2.176.545,4.15,1.015,6.054a4.732,4.732,0,0,0,4.514,3.389,4.3,4.3,0,0,0,4.086-2.754,16.731,16.731,0,0,0-.6-12.753,3.914,3.914,0,0,0-4.224-2.483c-1.9.208-3.436,1.072-3.915,2.987C308.082,29.245,307.938,31.192,307.677,32.94ZM337,29.328v.083c1.021,0,2.043.022,3.062-.014a1.129,1.129,0,0,0,.8-.312c1.168-1.663-.006-4.816-1.978-5.4a4.9,4.9,0,0,0-6.034,4.093c-.11,1.137.248,1.542,1.377,1.548C335.148,29.332,336.073,29.328,337,29.328Z" transform="translate(-174.802 -0.955)"/><path class="a" d="M20.4,31.46c0,2.267-.035,4.534.013,6.8a3.035,3.035,0,0,0,2.072,3.127c1.763.59,1.717,2.085.323,3.348a4.778,4.778,0,0,1-2.092,1.088,17.034,17.034,0,0,1-7.223-.163,1.747,1.747,0,0,1-1.585-2.3c.226-1.238.738-2.422,1.083-3.641a32.776,32.776,0,0,0,1.419-10.953c-.192-3.071-.713-6.125-1.164-9.175-.156-1.058-.559-2.077-.813-3.122a6.944,6.944,0,0,0-2.927-3.853C8.082,11.53,7.619,10.119,8.326,8.684a5.876,5.876,0,0,1,1.693-1.912A30.239,30.239,0,0,1,13.6,4.377c2.13-1.21,4-.382,4.922,1.951a22.294,22.294,0,0,1,1.09,6.683c.11,1.463.11,2.934.192,4.4.07,1.272.523,1.6,1.736,1.23,1.129-.347,2.229-.786,3.35-1.158,4.609-1.529,8.992.486,9.936,5.832a98.58,98.58,0,0,1,1.258,10.742,12.5,12.5,0,0,0,2.87,6.951c.039.051.09.091.129.142,1.714,2.261,1.061,3.992-1.766,4.373a23.326,23.326,0,0,1-8.095-.082c-2.3-.5-3.127-2.091-1.723-3.984,3.268-4.406,2.891-9.217,1.766-14.1a6.133,6.133,0,0,0-3.016-4.126c-2.646-1.44-4.526.166-5.393,2.556a11.55,11.55,0,0,0-.555,2.806c-.092.948-.02,1.913-.02,2.871Z" transform="translate(0 0)"/><path class="a" d="M112.326,41.63c.178,2.227.313,4.459.546,6.68a13.5,13.5,0,0,0,2.548,6.622,5.129,5.129,0,0,1,1,2.8c-.006,3.326-3.005,5.015-5.9,3.372a14.62,14.62,0,0,1-2.577-2.077,1.245,1.245,0,0,0-1.639-.151,16.153,16.153,0,0,1-3.275,1.517,9.154,9.154,0,0,1-3.475.164,10.535,10.535,0,0,1-8.121-5.292,8.667,8.667,0,0,1-.977-5.923,10.686,10.686,0,0,1,5.044-7.644,7.967,7.967,0,0,1,6.855-1.059c2.64.832,3.417.127,3.4-2.7-.019-2.412-.961-4.064-2.708-4.75a2.836,2.836,0,0,0-3.7,1.285c-.357.637-.588,1.344-.886,2.014a3.261,3.261,0,0,1-4.963,1.684,3.6,3.6,0,0,1-1.307-5.264,9.735,9.735,0,0,1,7.781-4.43,17.867,17.867,0,0,1,8.59,1.551,5.753,5.753,0,0,1,3.434,4.443c.325,2.362.432,4.754.634,7.133Zm-10.764,3.3c-.668.317-1.64.461-2.011,1.012-1.1,1.63-2.116,3.375-1.98,5.472a2.332,2.332,0,0,0,2.645,2.389,4.941,4.941,0,0,0,2.052-.664,8.78,8.78,0,0,0,3.824-5.278c.277-.879.055-1.509-.718-1.8C104.19,45.619,102.947,45.333,101.562,44.933Z" transform="translate(-50.058 -14.988)"/><path class="a" d="M257.789,42.451c0,1.342-.01,2.685,0,4.027a15.1,15.1,0,0,0,2.95,9.325,4.8,4.8,0,0,1,.018,4.579,3.519,3.519,0,0,1-4.228,1.39,13.219,13.219,0,0,1-3.242-1.948c-1.133-.874-1.579-.986-2.783-.189A7.247,7.247,0,0,1,246.15,61.1a10.984,10.984,0,0,1-9.18-5.029c-2.242-3.353-1.21-8.915,1.761-12.021a10.272,10.272,0,0,1,4.117-2.856,10.564,10.564,0,0,1,3.375-.343,12.956,12.956,0,0,1,2.44.474c1.331.281,1.909-.062,2.224-1.394a6.33,6.33,0,0,0-.553-4.9,3.065,3.065,0,0,0-5.358-.208,12.353,12.353,0,0,0-1.046,2.038c-.849,2.016-2.438,2.828-4.161,2.082-2.348-1.017-3.259-2.87-2.149-4.9a9.126,9.126,0,0,1,6.588-4.936,17.177,17.177,0,0,1,10.172,1.53c2.186,1,2.986,2.935,3.138,5.114.155,2.224.034,4.467.034,6.7Zm-10.843,2.981a2.642,2.642,0,0,0-2.429,1.542c-.129.29-.367.536-.464.832a16.445,16.445,0,0,0-1.157,3.888c-.13,2.072,1.443,3.089,3.394,2.372a7.788,7.788,0,0,0,2.032-1.2,10.673,10.673,0,0,0,3.015-4.568,1.329,1.329,0,0,0-.805-1.944C249.372,45.943,248.144,45.73,246.945,45.432Z" transform="translate(-138.532 -15.242)"/><path class="a" d="M164.3,63.983h-3.164a1.533,1.533,0,0,1-1.637-1.067,2.088,2.088,0,0,1,.5-1.6,9.013,9.013,0,0,0,2.228-5.466,28.043,28.043,0,0,0-1.4-12.272,4.23,4.23,0,0,0-2.706-2.758,1.937,1.937,0,0,1-.7-3.51,30.175,30.175,0,0,1,4.595-3.076c1.853-1,2.845-.572,3.876,1.294.69,1.249.742,1.313,1.883.471,3.129-2.306,6.377-2.229,9.626-.437a10.6,10.6,0,0,1,4.369,4.833c2.252,4.666,2.945,9.682,3.307,14.775.1,1.462.292,2.919.429,4.379a3.993,3.993,0,0,0,2.233,3.032c.591.371,1.475.648,1.269,1.591-.218,1-1.167,1.064-1.936,1.06-2.329-.014-4.664-.067-6.985-.244-1.317-.1-1.9-1.173-2.183-2.747-1.036-5.714-1-11.51-1.461-17.267a8.131,8.131,0,0,0-1.509-4.277c-2.107-2.856-5.15-1.949-6.5.59a9.623,9.623,0,0,0-1.182,4.379,36.174,36.174,0,0,0,1.41,11.455,28.943,28.943,0,0,0,1.772,3.708c.894,1.77.351,2.821-1.636,3.01-1.494.142-3,.2-4.493.3Z" transform="translate(-90.36 -18.179)"/><g transform="translate(173.778 18.973)"><path class="a" d="M440.651,55.755a5.175,5.175,0,0,1,1.711-.135c3.386.038,6.772.111,10.159.138,1.734.014,2.592-1.01,2.462-2.77-.176-2.38-1.348-4.34-2.473-6.36a7.817,7.817,0,0,0-6.153-4.006c-6.413-.954-12.323,3.435-14.229,9.2a21.154,21.154,0,0,0-.706,2.232,13.408,13.408,0,0,0-.192,3.646c.039.282.143.814.18.967a15.913,15.913,0,0,0,2.572,6.116,11.6,11.6,0,0,0,17.22,1.5,9.059,9.059,0,0,0,2.967-4.252,2,2,0,0,0-2.333-2.593,3.647,3.647,0,0,0-2.612,1.918,6.023,6.023,0,0,1-3.344,2.574,5.523,5.523,0,0,1-6.1-1.622,5.067,5.067,0,0,1-.416-5.606A2.289,2.289,0,0,1,440.651,55.755Zm-.718-5.5a4.9,4.9,0,0,1,6.034-4.093c1.973.582,3.146,3.734,1.979,5.4a1.129,1.129,0,0,1-.8.312c-1.02.036-2.042.014-3.063.014V51.8c-.925,0-1.849,0-2.774,0C440.18,51.8,439.822,51.391,439.933,50.254Z" transform="translate(-431.16 -42.492)"/></g></g></svg>