<svg xmlns="http://www.w3.org/2000/svg" width="118.717" height="107.722" viewBox="0 0 118.717 107.722"><defs><style>.a{fill:#3e3e3e;}</style></defs><g transform="translate(-6.814 -7.337)"><g transform="translate(6.814 7.337)"><path class="a" d="M14.608,119.508a6.212,6.212,0,0,0,1.229.227,7.4,7.4,0,0,1,5.847,5.038,7.128,7.128,0,0,1-1.731,7.679,7.238,7.238,0,0,1-7.743,1.98,7.274,7.274,0,0,1-5.27-6c-.568-3.228.816-5.7,3.275-7.633a13.277,13.277,0,0,1,18.52,1.674,12.261,12.261,0,0,1,3.184,8.246,33.385,33.385,0,0,1-.086,3.648c-.022.2-.044.415.173.527.233.121.425-.026.616-.135a19.281,19.281,0,0,1,6.61-2.3,22.531,22.531,0,0,1,18.341,4.622,28.268,28.268,0,0,1,2.3,2c.655.645.653.635,1.31.012a23.978,23.978,0,0,1,9.661-5.9c7.986-2.354,15.266-.981,21.684,4.437.319.269.494.295.821.009a21.991,21.991,0,0,1,12.142-5.189,22.287,22.287,0,0,1,15,3.543c1.782,1.134,2.138,3.013.824,4.355a2.643,2.643,0,1,1-3.433-3.991c.228-.165.481-.3.787-.485a10.9,10.9,0,0,0-2.515-1.241,21.552,21.552,0,0,0-7.9-1.52,5.941,5.941,0,0,0-6.11,4.26,16.3,16.3,0,0,0-.892,4.611c-.475,7.1-.265,14.2-.227,21.3a32.048,32.048,0,0,0,.842,8.692,7.327,7.327,0,0,0,2.111,3.692,5.842,5.842,0,0,0,4.065,1.369,24.348,24.348,0,0,0,8.026-1.267,11.535,11.535,0,0,0,2.593-1.219c-.021-.174-.1-.211-.192-.2-3.337.327-5.586-1.363-7.179-4.046a7.2,7.2,0,0,1,1.659-9.2,7.5,7.5,0,0,1,9.652-.2,7.34,7.34,0,0,1,2.918,6.245,8.1,8.1,0,0,1-2.4,5.121,17.05,17.05,0,0,1-7.989,4.527,22.4,22.4,0,0,1-15.6-.643,22.831,22.831,0,0,1-14.2-17.976,33.134,33.134,0,0,1-.274-4.831c-.1-3.56.018-7.126-.173-10.684a14.168,14.168,0,0,0-2.132-7.236,5.4,5.4,0,0,0-4.809-2.582,22.566,22.566,0,0,0-16.131,6.827c-.731.73-.717.743-.091,1.579a22.085,22.085,0,0,1,4.481,11.813c.064.863.1,1.722.1,2.584q0,10.492,0,20.984c0,.987,0,.989-1,.989q-6.607,0-13.215,0c-.912,0-.928-.016-.928-.93,0-8.677.05-17.354-.021-26.031A49.672,49.672,0,0,0,49.946,139a10.8,10.8,0,0,0-1.774-3.9,5.565,5.565,0,0,0-4.4-2.248,20.606,20.606,0,0,0-10.251,2.294,2.853,2.853,0,0,0-1.744,2.845q.026,19.092.01,38.184a6.2,6.2,0,0,0,0,.664c.068.622-.223.8-.813.794-3.807-.018-7.615-.009-11.422-.009-.731,0-1.462-.024-2.191.007-.555.023-.751-.208-.732-.744.026-.729.007-1.461.007-2.191q0-16.336-.008-32.672c0-1.043,0-1.035.987-1.26A22.919,22.919,0,0,0,30.64,132.6a1.454,1.454,0,0,0,.346-.9,11.688,11.688,0,0,0-3.23-8.919,12.219,12.219,0,0,0-12.612-3.528,3.622,3.622,0,0,0-.439.152C14.671,119.416,14.649,119.462,14.608,119.508Z" transform="translate(-6.814 -90.836)"/><path class="a" d="M215.336,9.886a7.709,7.709,0,0,0,5-1.343,10.583,10.583,0,0,1,6.174-1.169,12.15,12.15,0,0,1,8.1,3.648,6.838,6.838,0,0,1,2.032,3.875,6.381,6.381,0,0,1-1.124,4.655c-.436.638-.929,1.24-1.422,1.836a4.427,4.427,0,0,0-1.059,2.923,21.01,21.01,0,0,1-.374,5.872c-1.432,4.945-4.5,8.313-9.47,9.79a13.647,13.647,0,0,1-16.215-7.314,13.4,13.4,0,0,1-1.3-5.651c0-.221-.02-.444,0-.664a10.938,10.938,0,0,0-1.332-6.388,6.351,6.351,0,0,1,2.924-8.473A16.736,16.736,0,0,1,215.336,9.886Zm-8.728,17.021a10.847,10.847,0,0,0,.708,4.187,12.677,12.677,0,0,0,14.816,8.244,8.21,8.21,0,0,0,4.306-1.91,1.872,1.872,0,0,0,.439-2.4,10.933,10.933,0,0,0-2.313-3.372,18.423,18.423,0,0,0-8.24-4.479,33.517,33.517,0,0,1-5.1-1.665c-.919-.435-1.844-.861-2.787-1.239a1.245,1.245,0,0,0-1.825,1.212C206.592,25.922,206.608,26.365,206.608,26.907Zm4.65-6.523h.007c0-.753-.016-1.505,0-2.257a2.618,2.618,0,0,1,1.328-2.307,4.9,4.9,0,0,1,1.962-.772,14.3,14.3,0,0,1,5.2.195.9.9,0,0,1,.792.976c-.005.841-.008,1.682.015,2.523a1.575,1.575,0,0,0,2.017,1.584,8.735,8.735,0,0,0,3.145-1.374,2.657,2.657,0,0,0,.842-3.783,4.058,4.058,0,0,0-.711-.955,9.757,9.757,0,0,0-3.231-2.047,20.938,20.938,0,0,0-7.578-1.468,15.815,15.815,0,0,0-6.737,1.227,5.6,5.6,0,0,0-3.665,4.454,7.374,7.374,0,0,0,4.972,7.4,1.145,1.145,0,0,0,1.629-1.209C211.27,21.845,211.258,21.114,211.258,20.384Zm16.486-.956h.012c0,1.039-.03,2.08.009,3.117a1.019,1.019,0,0,0,1.571.954,16.856,16.856,0,0,0,4.717-3.386A5.859,5.859,0,0,0,235.3,13.5a8.343,8.343,0,0,0-2.782-3.145,12.531,12.531,0,0,0-7.187-2.175,10.7,10.7,0,0,0-3.451.582,1.205,1.205,0,0,0-.969,1.133c-.012.6.417.888.931,1.068.125.044.251.086.375.134a13.967,13.967,0,0,1,3.512,1.84,4.746,4.746,0,0,1,2.022,4.041C227.73,17.791,227.744,18.61,227.744,19.428Zm4.488,6.9c0-.354.023-.709,0-1.061a1.225,1.225,0,0,0-1.735-1.208,3.094,3.094,0,0,0-.842.377c-.96.632-1.916,1.271-2.849,1.941a6.269,6.269,0,0,0-1.91,2.086,2.119,2.119,0,0,0,.3,2.577,14.059,14.059,0,0,1,2.38,3.332,1.09,1.09,0,0,0,1.822.344,4.239,4.239,0,0,0,1.039-1.279A13.737,13.737,0,0,0,232.232,26.33Zm-12.6-8.222h0c0-.266,0-.531,0-.8-.008-1.014-.177-1.275-1.163-1.446a10.355,10.355,0,0,0-3.563,0,4.722,4.722,0,0,0-2.011.82,1.529,1.529,0,0,0,0,2.609,8.419,8.419,0,0,0,4.718,1.341c1.517.014,2.009-.548,2.017-2.064C219.632,18.418,219.631,18.263,219.631,18.108Z" transform="translate(-155.619 -7.337)"/></g><g transform="translate(8.799 104.206)"><path class="a" d="M20.684,405.6a3.086,3.086,0,0,1,.65.057,4.211,4.211,0,0,1,.459.127q.2.071.6.254a5.065,5.065,0,0,1,1.441.975l-.282.353-.3-.212a5.909,5.909,0,0,0-1.413-.721,5.114,5.114,0,0,0-1.54-.254,3.35,3.35,0,0,0-2.677,1.2,5.047,5.047,0,0,0-1.024,3.376,5.183,5.183,0,0,0,1.017,3.411,3.381,3.381,0,0,0,2.741,1.222h.367q.268-.042.4-.057t.332-.05a3.207,3.207,0,0,0,.48-.134,4.038,4.038,0,0,0,1.328-.678l.24-.2.353.325a4.578,4.578,0,0,1-1.632.989,6.567,6.567,0,0,1-2.352.4,4.726,4.726,0,0,1-3.517-1.441,5.119,5.119,0,0,1-1.413-3.744,4.872,4.872,0,0,1,1.525-3.842A6.116,6.116,0,0,1,20.684,405.6Z" transform="translate(-14.949 -405.263)"/><path class="a" d="M96.21,410.548a5.348,5.348,0,0,1-.932,3.126,4.759,4.759,0,0,1-2.444,1.853,6.791,6.791,0,0,1-2.02.326,4.83,4.83,0,0,1-3.051-1,5.116,5.116,0,0,1-1.78-2.737l-.155-.721-.042-.792a5.3,5.3,0,0,1,1.455-3.84,4.856,4.856,0,0,1,3.645-1.506,6.291,6.291,0,0,1,1.921.311,4.565,4.565,0,0,1,2.458,1.839A5.4,5.4,0,0,1,96.21,410.548Zm-8.914.064.042.652c.01.113.021.222.035.326a2.57,2.57,0,0,0,.078.354,4.717,4.717,0,0,0,1.3,2.508,3.1,3.1,0,0,0,2.176.864,3.2,3.2,0,0,0,2.528-1.232,5.392,5.392,0,0,0,1.1-3.571,5.462,5.462,0,0,0-1.1-3.57,3.213,3.213,0,0,0-5.071.014A5.653,5.653,0,0,0,87.3,410.612Z" transform="translate(-68.495 -405)"/><path class="a" d="M166.161,407.493v8.688h-.452V406.01l1.335,0,3.636,7.822,3.511-7.826h1.236v10.171H174v-8.687l-3.7,8.867Z" transform="translate(-128.911 -405.569)"/><path class="a" d="M244.222,411.1v5.085h-1.427V406.01h3.227a3.238,3.238,0,0,1,1.818.466,2.519,2.519,0,0,1,1,1.328,2.364,2.364,0,0,1,.113.749v.4a.881.881,0,0,1-.1.353,2.315,2.315,0,0,1-.989,1.321,3.326,3.326,0,0,1-1.837.473Zm0-4.633v4.209h1.547a1.731,1.731,0,0,0,1.33-.572,2.494,2.494,0,0,0,.007-3.058,1.716,1.716,0,0,0-1.337-.579Z" transform="translate(-187.181 -405.569)"/><path class="a" d="M298.4,411.791l-1.344,3.024h-.5l4.718-10.612,4.732,10.612-1.441-.006-1.376-3.017Zm2.386-5.366-2.2,4.914h4.361Z" transform="translate(-227.822 -404.202)"/><path class="a" d="M367.544,407.748v8.433h-.438V406.01l.729,0,6.023,7.507V406.01h.452v10.351Z" transform="translate(-281.149 -405.569)"/><path class="a" d="M431.91,416.171v-5.156L428.916,406l1.628,0,2.587,4.525,2.7-4.527.542,0-3.037,5.057v5.114Z" transform="translate(-327.873 -405.559)"/></g></g></svg>