<svg xmlns="http://www.w3.org/2000/svg" width="198" height="59.446" viewBox="0 0 198 59.446"><defs><style>.a{fill:#3e3e3e;}</style></defs><g transform="translate(-8.903 -5.115)"><g transform="translate(8.903 5.115)"><path class="a" d="M22.019,25.276H21.06c0-2.741-1.982-4.524-4.891-4.524-2.506,0-4.092,1.52-4.092,3.5,0,4.825,11,5.62,11,12.72,0,4.029-3.1,6.572-7.6,6.572-3.437,0-3.961-.991-6.574-.991V37.169h.959a5.2,5.2,0,0,0,5.415,5.054c2.417,0,4.923-1.389,4.923-4.03,0-5.452-10.7-5.219-10.7-12.751,0-3.269,2.408-6.013,7.131-6.013,2.179,0,3.768.694,5.685.694Z" transform="translate(-8.903 -13.551)"/><path class="a" d="M85.568,25.975h-.795c-.426-2.412-2.212-4.295-6.009-4.295a8.762,8.762,0,0,0-2.052.232v9.282H79.06a2.625,2.625,0,0,0,2.974-2.509l.229-1.321h.832s-.1,2.441-.1,4.192c0,1.849.1,3.668.1,3.668h-.832l-.131-.762c-.2-1.221-.954-1.98-2.773-1.98H76.713V40.41c0,1.42,1.061,2.146,2.543,2.146,4.166,0,5.718-2.642,6.64-5.087l.795.1-1.02,6.111s-7.467-.1-10.609-.1c-2.376,0-4.522.1-4.522.1v-.956l.86-.166c1.417-.266,2.146-1.323,2.146-3.236v-15.5c0-1.517-.561-1.948-1.917-2.144l-1.09-.166v-.958s3.105.1,4.657.1c5.448,0,10.371-.1,10.371-.1Z" transform="translate(-45.23 -14.216)"/><path class="a" d="M146.09,20.556c8.786,0,12.616,4.924,12.616,11.035,0,6.673-4.489,12.088-13.177,12.088-1.884,0-2.482-.1-5.054-.1-2.314,0-4.526.1-4.526.1v-.956l.86-.166c1.421-.266,2.146-1.323,2.146-3.236v-15.5c0-1.517-.561-1.948-1.917-2.144l-1.09-.166v-.958s2.544.1,4.657.1C142.788,20.657,144.009,20.556,146.09,20.556ZM142.125,40.41c0,1.42,1.057,2.146,2.543,2.146,5.616,0,10.568-1.485,10.568-9.976,0-5.945-3.9-10.9-10.6-10.9a13.187,13.187,0,0,0-2.511.232Z" transform="translate(-83.78 -14.216)"/><path class="a" d="M227.273,21.514v-.958s2.244.1,3.965.1c1.815,0,3.965-.1,3.965-.1v.958l-.659.166a2.991,2.991,0,0,0-2.347,3.234V35.949c0,5.45-2.581,8.258-8.524,8.258-5.751,0-8.557-2.74-8.557-8.258V23.825c0-1.517-.561-1.948-1.917-2.144l-1.09-.166v-.958s2.081.1,4.661.1c2.74,0,4.686-.1,4.686-.1v.958l-.823.166a2.946,2.946,0,0,0-2.347,3.234V36.052c0,4.028,1.355,6.572,6.111,6.572,4.624,0,6.046-2.939,6.046-6.572V23.825c0-1.517-.561-1.978-1.917-2.144Z" transform="translate(-128.668 -14.216)"/><path class="a" d="M309.137,25.641h-.959c-.6-2.939-3.24-4.925-7.528-4.925-5.12,0-8.5,4.5-8.5,10.308,0,7.367,4.6,11.2,9.781,11.2,3.764,0,6.046-2.113,6.673-5.022l.958.07-.594,5.018c-2.347,0-4.428,1.253-8.029,1.253-6.64,0-12.255-3.334-12.255-11.528,0-6.54,4.493-12.585,12.587-12.585,2.974,0,5.714.893,7.861.893Z" transform="translate(-173.802 -13.551)"/><path class="a" d="M369.932,10.927l7.73,20.48a2.921,2.921,0,0,0,2.314,2.048l1.126.166v.956s-1.954-.131-4.5-.131c-3.1,0-4.825.131-4.825.131v-.956l.864-.166c1.286-.229,1.684-.659,1.684-1.485a5.423,5.423,0,0,0-.43-1.686l-1.585-4.358h-7.467l-1.716,5.151a3.446,3.446,0,0,0-.2,1.054c0,.8.393,1.124,1.815,1.323l1.257.166v.956s-2.113-.1-4.657-.1c-1.95,0-3.24.1-3.24.1v-.956l.86-.166c1.421-.266,2.015-1.288,2.642-3.007l7.037-19.323ZM372.148,6.8a2.268,2.268,0,0,0,2.277-1.683l.5.528c-.3,1.849-1.352,3.138-3.334,3.138-1.95,0-2.679-1.585-4.428-1.585a2.268,2.268,0,0,0-2.277,1.684l-.5-.528c.3-1.782,1.389-3.138,3.207-3.138C369.6,5.213,370.4,6.8,372.148,6.8Zm-6.873,17.771h6.541l-3.236-9.317Z" transform="translate(-214.716 -5.115)"/><path class="a" d="M432.542,32.014c0-6.54,4.457-12.585,12.78-12.585,6.21,0,11.264,4.3,11.264,11.53,0,6.54-4.461,12.583-12.784,12.583C437.593,43.542,432.542,39.25,432.542,32.014Zm3.465-.991c0,7.17,4.4,11.233,9.184,11.233,5.218,0,7.926-4.493,7.926-10.306,0-7.168-4.391-11.235-9.245-11.235C438.715,20.715,436.007,25.211,436.007,31.023Z" transform="translate(-258.586 -13.551)"/></g><g transform="translate(67.776 48.922)"><path class="a" d="M158.856,112.533c5.7,0,8.18,3.191,8.18,7.152,0,4.33-2.912,7.842-8.544,7.842-1.225,0-1.606-.063-3.277-.063-1.5,0-2.937.063-2.937.063v-.618l.557-.106c.922-.172,1.393-.86,1.393-2.1V114.653c0-.985-.365-1.263-1.241-1.392l-.708-.107v-.62s1.651.062,3.023.062C156.71,112.595,157.5,112.533,158.856,112.533ZM156.284,125.4c0,.924.684,1.4,1.651,1.4,3.641,0,6.852-.967,6.852-6.472,0-3.855-2.527-7.07-6.878-7.07a8.365,8.365,0,0,0-1.626.149Z" transform="translate(-152.278 -112.232)"/><path class="a" d="M208.405,121.892l1.626,2.679c.967,1.567,1.95,2.636,4.03,2.636v.448a5.8,5.8,0,0,1-1.63.215,4.389,4.389,0,0,1-4.289-2.55l-1.688-3.193a2.167,2.167,0,0,0-1.909-1.454,2.054,2.054,0,0,0-.79.147V125.4c0,.989.385,1.268,1.241,1.4l.77.106v.618s-1.844-.063-3.085-.063c-1.327,0-2.933.063-2.933.063v-.618l.557-.106c.922-.172,1.389-.86,1.389-2.1V114.653c0-.985-.365-1.263-1.241-1.392l-.7-.107v-.62s1.778.062,3.019.062c.967,0,1.737-.062,2.7-.062,2.724,0,4.969,1.477,4.969,4.09,0,2.656-2.523,3.6-3.318,3.772A4.277,4.277,0,0,1,208.405,121.892Zm-4.649-8.483v6.834a2.526,2.526,0,0,1,1.478-.428,3.038,3.038,0,0,1,1.135.193c.856-.236,1.839-1.583,1.839-3.342a3.09,3.09,0,0,0-3.338-3.406A4.113,4.113,0,0,0,203.756,113.41Z" transform="translate(-180.257 -112.232)"/><path class="a" d="M253.12,116.045h-.512c-.283-1.565-1.438-2.785-3.9-2.785a5.622,5.622,0,0,0-1.332.149v6.021H248.9a1.706,1.706,0,0,0,1.93-1.629l.147-.86h.536s-.065,1.589-.065,2.722c0,1.2.065,2.38.065,2.38h-.536l-.086-.494c-.127-.792-.618-1.284-1.8-1.284h-1.716V125.4c0,.924.688,1.4,1.651,1.4,2.7,0,3.707-1.716,4.3-3.3l.516.066-.664,3.963s-4.845-.063-6.881-.063c-1.54,0-2.933.063-2.933.063v-.618l.561-.106c.918-.172,1.389-.86,1.389-2.1V114.653c0-.985-.365-1.263-1.241-1.392l-.709-.107v-.62s2.016.062,3.023.062c3.535,0,6.726-.062,6.726-.062Z" transform="translate(-205.966 -112.232)"/><path class="a" d="M292.934,115.593h-.619a2.891,2.891,0,0,0-3.17-2.935,2.371,2.371,0,0,0-2.658,2.272c0,3.125,7.135,3.639,7.135,8.245,0,2.611-2.015,4.264-4.927,4.264-2.228,0-2.573-.641-4.264-.641v-3.5h.618a3.377,3.377,0,0,0,3.515,3.279c1.564,0,3.191-.9,3.191-2.614,0-3.533-6.939-3.383-6.939-8.27,0-2.12,1.565-3.9,4.628-3.9,1.413,0,2.442.448,3.682.448Z" transform="translate(-230.165 -111.8)"/><path class="a" d="M331.332,115.593h-.622a2.888,2.888,0,0,0-3.17-2.935,2.37,2.37,0,0,0-2.654,2.272c0,3.125,7.131,3.639,7.131,8.245,0,2.611-2.011,4.264-4.923,4.264-2.228,0-2.573-.641-4.268-.641v-3.5h.622a3.376,3.376,0,0,0,3.514,3.279c1.565,0,3.191-.9,3.191-2.614,0-3.533-6.939-3.383-6.939-8.27,0-2.12,1.565-3.9,4.624-3.9,1.413,0,2.445.448,3.687.448Z" transform="translate(-252.794 -111.8)"/></g><g transform="translate(164.882 57.643)"><rect class="a" width="23.29" height="0.971"/></g><path class="a" d="M317.759,77.586a.8.8,0,0,0-.324.669c0,1.012,1.7,1.075,1.7,2.472,0,.951-1.38,1.729-2.617,1.729-.951,0-1.827-.492-1.827-1.184a.8.8,0,0,1,.807-.766.77.77,0,0,1,.348.078.866.866,0,0,0-.2.549c0,.324.266.627,1.032.627.635,0,.913-.283.913-.708,0-.729-1.6-1.036-1.6-2.228a1.639,1.639,0,0,1,.868-1.257Z" transform="translate(-180.227 -42.7)"/><g transform="translate(23.203 57.643)"><rect class="a" width="25.232" height="0.971"/></g></g></svg>