<svg xmlns="http://www.w3.org/2000/svg" width="92" height="105.35" viewBox="0 0 92 105.35"><defs><style>.a{fill:#3e3e3e;}</style></defs><g transform="translate(-12.402 -8.851)"><path class="a" d="M317.772,509.64a.965.965,0,0,1,1.089-.9.36.36,0,0,1,.206.1c.152.176.053,1.03-.148,1.12a1.834,1.834,0,0,1-.816.233C317.981,510.189,317.882,509.837,317.772,509.64Z" transform="translate(-246.249 -403.103)"/><path class="a" d="M97.125,41.643c-1.728.24-3.3.432-4.868.684s-3.1.527-4.637.853-3.091.706-4.624,1.11q-2.27.6-4.514,1.3c-1.514.471-3.028.951-4.51,1.513A34.6,34.6,0,0,0,69.655,48.7l.065.215c.162-.023.327-.033.486-.071,2.1-.512,4.184-1.1,6.3-1.526,2.842-.567,5.7-1.075,8.567-1.48a137.665,137.665,0,0,1,15.483-1.272A3.275,3.275,0,0,1,102.4,45c2.487,1.445,5.026,2.8,7.5,4.273a30.669,30.669,0,0,1,5.715,4.242,10.14,10.14,0,0,1,3.011,5.312,11.074,11.074,0,0,1-.07,4.652,9.933,9.933,0,0,1-3.122,5.291,10.246,10.246,0,0,1-4.577,2.44,12.376,12.376,0,0,1-4.89.148A13.133,13.133,0,0,1,99.7,68.508a22.444,22.444,0,0,1-6.5-8.892,31.526,31.526,0,0,1-1.35-4.141,35.541,35.541,0,0,1-.827-3.891,32.171,32.171,0,0,1-.259-3.3c-.02-.4-.15-.555-.548-.542-.635.021-1.272.029-1.907.007-.421-.015-.561.138-.578.563-.124,3.158-.273,6.316-.412,9.474q-.184,4.175-.366,8.35c-.092,2.116-.169,4.233-.282,6.348-.023.435.092.589.529.57.618-.027,1.239-.022,1.858,0,.341.013.438-.11.471-.443a8.6,8.6,0,0,1,.591-2.84,2.169,2.169,0,0,1,3.057-1.06c1.79.989,3.58,1.979,5.354,3a20.861,20.861,0,0,0,5.891,2.38,16.761,16.761,0,0,0,13.206-2.263A19.868,19.868,0,0,0,125.22,63a17.943,17.943,0,0,0,1.369-8.332,14.649,14.649,0,0,0-2.818-7.958,6.623,6.623,0,0,1-.361-.647c.528.07.96.111,1.384.188q2.036.369,4.067.761c1.195.233,2.391.461,3.576.733,1.31.3,2.609.65,3.912.978.5.126,1,.257,1.505.38.333.082.451.267.45.627-.013,4.646-.008,9.292-.009,13.938q0,8.46,0,16.921c0,.382-.063.537-.5.42q-1.948-.526-3.912-.988c-1.136-.269-2.281-.5-3.423-.748-.872-.186-1.744-.376-2.62-.542q-1.483-.28-2.974-.517-1.659-.264-3.324-.49c-1.482-.2-2.965-.4-4.452-.571-.937-.106-1.884-.126-2.822-.228a124.867,124.867,0,0,0-15.042-.4c-1.935.023-3.869.227-5.8.377-1.735.135-3.471.28-5.2.473-1.339.15-2.668.383-4,.578-1.059.155-2.122.292-3.178.465-.912.149-1.819.33-2.725.513-1.208.244-2.415.492-3.617.761-1.091.244-2.176.514-3.263.779-.662.161-1.317.347-1.981.5-.451.1-.56-.008-.56-.505q0-10.979,0-21.959,0-20.613,0-41.227c0-.685.032-1.37,0-2.053a.558.558,0,0,1,.448-.641c1.19-.389,2.37-.811,3.568-1.176,1.612-.492,3.232-.963,4.859-1.4,1.044-.282,2.107-.5,3.163-.734,1.182-.267,2.364-.533,3.549-.785.474-.1.953-.179,1.433-.244q1.757-.241,3.516-.459c1.172-.146,2.343-.319,3.52-.408,2.333-.177,4.669-.332,7.006-.442,1.609-.076,3.223-.088,4.834-.076,1.384.01,2.769.068,4.15.156,1.669.107,3.337.236,5,.414q2.42.259,4.826.641c1.982.317,3.957.676,5.927,1.062,1.11.217,2.2.528,3.3.791,1.556.371,3.124.7,4.666,1.117s3.093.917,4.625,1.419c.995.326.984.357.984,1.416q0,14.818,0,29.637c0,.566-.044.575-.586.422-1.683-.475-3.369-.941-5.061-1.385-1.333-.349-2.67-.683-4.015-.981-1.235-.273-2.481-.5-3.724-.726-1.054-.195-2.11-.38-3.168-.547a21.234,21.234,0,0,0-2.222-.277,3.307,3.307,0,0,1-1.786-.693,93.57,93.57,0,0,0-10.548-6.277,49.151,49.151,0,0,1-7.154-4.428,12.971,12.971,0,0,1-4.208-4.86,5.988,5.988,0,0,1-.419-3.522,10.084,10.084,0,0,1,5.815-7.589,9.474,9.474,0,0,1,5.375-.886c3.948.4,6.772,2.614,9.1,5.616a24.591,24.591,0,0,1,4.3,8.7c.5,1.845.865,3.729,1.259,5.6.093.442.239.655.726.625.633-.039,1.271-.019,1.906,0,.37.011.527-.128.541-.507q.2-5.52.422-11.04c.11-2.621.252-5.241.372-7.862.039-.846.041-1.695.081-2.541.016-.329-.078-.487-.429-.48-.652.013-1.3.009-1.956,0-.4,0-.556.168-.6.583a18.435,18.435,0,0,1-.406,2.489,1.928,1.928,0,0,1-2.8,1.3q-2.79-1.492-5.524-3.09a19.549,19.549,0,0,0-5.285-2.208,14.819,14.819,0,0,0-5-.318c-4.831.5-8.448,3.039-11.42,6.689a16.563,16.563,0,0,0-3.151,6.01,14.335,14.335,0,0,0-.482,6.511,13.393,13.393,0,0,0,2.15,5.083,26.539,26.539,0,0,0,6.11,6.2C96.682,41.255,96.845,41.405,97.125,41.643Z" transform="translate(-45.561)"/><g transform="translate(12.402 86.462)"><path class="a" d="M157.435,421.574v-1.143c0-2.771.008-5.543,0-8.314,0-.381.121-.53.5-.52.684.019,1.37.027,2.054.005.385-.012.519.124.511.508-.021,1.01-.014,2.021-.014,3.032,0,3.668,0,7.336.008,11a1.664,1.664,0,0,1-.741,1.636c-.852.5-2.754.395-3.379-.814-.5-.967-.979-1.945-1.458-2.923-.863-1.763-1.715-3.532-2.584-5.292a7.687,7.687,0,0,0-.552-.818c-.019.2-.045.35-.045.5q0,4.279,0,8.558c0,.742,0,.75-.766.751-.62,0-1.239,0-1.858,0-.67,0-.695-.021-.694-.679,0-4.092,0-8.183.017-12.275a5.31,5.31,0,0,1,.217-1.722,2.236,2.236,0,0,1,2.107-1.556,2.3,2.3,0,0,1,2.247,1.362c.86,1.7,1.667,3.422,2.5,5.136q.8,1.647,1.6,3.293a2.184,2.184,0,0,0,.209.3Z" transform="translate(-122.085 -411.16)"/><path class="a" d="M78.185,420.2q0-2.47,0-4.94a5.457,5.457,0,0,1,1.933-4.166,5.771,5.771,0,0,1,9.325,3.071,4.871,4.871,0,0,1,.1,1.166q.015,5.16.01,10.319c0,.644-.025.664-.655.66-.6,0-1.208-.031-1.809,0-.465.025-.59-.169-.586-.6.015-1.94-.006-3.88.021-5.819.006-.468-.155-.587-.59-.578-1.108.025-2.217.012-3.326.013-.659,0-.679-.02-.68-.7,0-.636.011-1.272,0-1.907-.007-.375.153-.53.525-.526,1.174.01,2.348-.008,3.521.012.442.008.582-.167.53-.585a3.351,3.351,0,0,0-1.094-2.419,2.333,2.333,0,0,0-2.445-.272,2.287,2.287,0,0,0-1.528,1.926c-.409,3.132-.132,6.281-.218,9.421-.014.505-.008,1.011.005,1.516.01.366-.12.534-.514.521-.668-.022-1.337-.018-2,0-.408.014-.536-.15-.533-.549.015-1.858.007-3.717.007-5.575Z" transform="translate(-65.439 -409.725)"/><path class="a" d="M422.757,419.916c0-2.493.009-4.987-.008-7.48,0-.445.14-.61.587-.607,1.434.008,2.868-.043,4.3-.015a7.806,7.806,0,0,1,7.373,5.59,7.238,7.238,0,0,1,.159,3.427,8.978,8.978,0,0,1-1.7,4.071,6.419,6.419,0,0,1-4.9,2.89c-.454.017-.908.061-1.361.1-.3.023-.451-.094-.446-.418.01-.7-.02-1.4.015-2.1a.582.582,0,0,1,.346-.421,4.139,4.139,0,0,1,1.065-.1,3.032,3.032,0,0,0,2.525-1.344,5.932,5.932,0,0,0,1.235-4.776,4.228,4.228,0,0,0-4.341-3.939c-.293-.015-.586-.036-.879-.043-.623-.015-.719.077-.72.686q0,3.887,0,7.773c0,1.336,0,2.673,0,4.009,0,.6-.085.661-.68.678q-1,.03-1.99.1c-.453.033-.589-.158-.587-.6.016-2.493.008-4.987.008-7.48Z" transform="translate(-343.299 -411.402)"/><path class="a" d="M233.889,418.113c1.393,1.177,1.369,2.8,1.42,4.373.038,1.171-.036,2.345-.052,3.518,0,.322-.128.476-.468.47-.749-.015-1.5-.02-2.249-.006-.412.008-.53-.175-.525-.565.02-1.515.034-3.029.012-4.544a1.313,1.313,0,0,0-1.417-1.407c-.65-.032-1.3-.049-1.952-.037-.33.006-.488-.091-.485-.433q.011-1.124,0-2.249c0-.368.176-.444.52-.458a10.009,10.009,0,0,0,2.254-.219c.791-.22,1.1-1.136.915-2.181a1.647,1.647,0,0,0-1.505-1.238,2.906,2.906,0,0,0-1.969.382,2.133,2.133,0,0,0-.9,1.941c.008,3.406,0,6.812.008,10.218,0,.767-.016.786-.8.781-.635,0-1.271-.016-1.906,0-.371.009-.537-.129-.533-.511.038-3.714-.066-7.437.151-11.14a5.138,5.138,0,0,1,4.7-4.841,5.33,5.33,0,0,1,5.066,2.011,4.8,4.8,0,0,1-.138,5.919C234,417.944,233.97,418,233.889,418.113Z" transform="translate(-183.246 -409.88)"/><path class="a" d="M361.152,421.267c-.961,0-1.923-.012-2.884,0-.534.009-.611.15-.392.631a5.56,5.56,0,0,0,2.712,2.949,3.624,3.624,0,0,0,1.262.3c.73.044,1.465-.01,2.2,0a.875.875,0,0,1,.943.9c.026.553.012,1.108.017,1.661,0,.294-.105.459-.432.446-1.3-.053-2.612,0-3.9-.169a6.883,6.883,0,0,1-3.367-1.657,7.632,7.632,0,0,1-2.875-4.573,8.3,8.3,0,0,1-.037-2.813,9.226,9.226,0,0,1,.921-2.8,7.8,7.8,0,0,1,4.1-3.454,12.623,12.623,0,0,1,5.237-.689.491.491,0,0,1,.333.343,17.743,17.743,0,0,1,.017,1.807c-.02.514-.453.827-1.058.865a12.974,12.974,0,0,0-2.459.225,5.268,5.268,0,0,0-3.525,2.559c-.235.439-.2.494.294.495,1.662,0,3.324,0,4.986,0a3.35,3.35,0,0,1,.874.057,1.584,1.584,0,0,1,.685.4,2.682,2.682,0,0,1,.042,2.144,1.567,1.567,0,0,1-.908.349c-.926.045-1.857.016-2.785.016Z" transform="translate(-288.105 -411.556)"/><path class="a" d="M293.943,418.271c.482,0,.949,0,1.417,0,1.467,0,2.934-.019,4.4-.012,1.032,0,1.3.284,1.318,1.307.027,1.556-.071,1.654-1.652,1.654-1.647,0-3.293-.005-4.94,0-.714,0-.805.127-.495.766a5.048,5.048,0,0,0,3.333,3.055,7.781,7.781,0,0,0,1.6.081c.391.009.783-.017,1.174-.008a.918.918,0,0,1,.969.937c.023.537,0,1.076.008,1.614,0,.3-.133.451-.444.439a35.961,35.961,0,0,1-3.947-.17,7.077,7.077,0,0,1-3.545-1.844,7.437,7.437,0,0,1-2.655-4.434,7.686,7.686,0,0,1,2.359-7.333,9.154,9.154,0,0,1,5.957-2.341c.6-.029,1.207-.008,1.809-.036.372-.017.487.142.471.492a8.547,8.547,0,0,0,0,1.319c.08.72-.33,1.09-1.1,1.2-.416.058-.847,0-1.27.026a5.486,5.486,0,0,0-4.764,2.995.243.243,0,0,0-.028.093A1.515,1.515,0,0,0,293.943,418.271Z" transform="translate(-236.538 -411.516)"/><path class="a" d="M16.294,427.914c-1.109,0-2.217-.011-3.325.006-.4.006-.569-.16-.567-.546q.005-.9,0-1.809c0-.433.275-.493.622-.492q2.592.008,5.184,0c.261,0,.522,0,.782,0,.479-.014.972-.111,1.111-.621.146-.537.307-1.191-.238-1.59-.819-.6-1.7-1.117-2.567-1.648-1.118-.685-2.3-1.28-3.358-2.045a3.775,3.775,0,0,1-1.326-3.025,3.7,3.7,0,0,1,3.219-4.006,14.2,14.2,0,0,1,2.518-.286c1.254-.038,2.51.032,3.765.015.455-.006.55.176.534.578-.027.651-.032,1.3,0,1.956.016.383-.139.468-.486.466-1.663-.009-3.326.009-4.988,0a1.42,1.42,0,0,0-1.182.571c-.39.489-.425,1.014.076,1.376a21.224,21.224,0,0,0,2.406,1.457,16.793,16.793,0,0,1,3.409,2.146,4.66,4.66,0,0,1,.466,6.286,3.453,3.453,0,0,1-2.774,1.2c-1.092,0-2.184,0-3.276,0Z" transform="translate(-12.402 -411.43)"/></g><path class="a" d="M333.028,521.878c.247.8.144,1.061-.682,1.32a2.853,2.853,0,0,1-3.088-.718,2.517,2.517,0,0,1-.091-2.917,2.345,2.345,0,0,1,2.506-1.011,2.225,2.225,0,0,1,1.709,1.961c.01.081.018.162.029.243.073.538.006.625-.553.631-.782.007-1.565-.015-2.347,0a1.847,1.847,0,0,0-.514.169c.108.169.178.4.331.5a2.173,2.173,0,0,0,2.189.057C332.678,522.042,332.837,521.965,333.028,521.878Zm-1.962-1.416v-.006c.277,0,.554,0,.831,0,.341,0,.41-.172.254-.435a1.115,1.115,0,0,0-1.053-.494,1.062,1.062,0,0,0-1.042.5c-.143.255-.138.443.228.44C330.545,520.461,330.805,520.463,331.066,520.463Z" transform="translate(-255.102 -410.982)"/><path class="a" d="M359.941,518.549c.014.232.039.454.038.676-.006,1.024,0,2.049-.042,3.071-.01.254-.131.651-.3.713-.226.083-.548-.1-.829-.164l.023-.117a9.128,9.128,0,0,1-1.12.409,2.244,2.244,0,0,1-2.33-1.121,2.613,2.613,0,0,1,.28-2.714,1.993,1.993,0,0,1,2.247-.8,2.247,2.247,0,0,0,1.8.019C359.758,518.5,359.835,518.536,359.941,518.549Zm-1.011,2.319a1.356,1.356,0,1,0-2.709-.063,1.372,1.372,0,0,0,1.317,1.5A1.282,1.282,0,0,0,358.93,520.868Z" transform="translate(-276.372 -410.911)"/><path class="a" d="M387.319,520.924c0-.587-.01-1.173,0-1.76a.529.529,0,0,1,.847-.446.521.521,0,0,0,.425.019,1.877,1.877,0,0,1,2.672,1.658c-.046.763-.012,1.531,0,2.3.008.364-.153.486-.5.485s-.493-.148-.486-.5c.014-.717.016-1.434,0-2.15a.966.966,0,0,0-1.114-1.05.994.994,0,0,0-1.075,1.1q-.012,1.075-.005,2.151c0,.27-.075.438-.383.438s-.394-.165-.392-.434c0-.6,0-1.206,0-1.808Z" transform="translate(-302.325 -411.018)"/><path class="a" d="M415.429,519.976a9.8,9.8,0,0,0-1.008-.308,1.255,1.255,0,0,0-.651.044c-.138.051-.327.261-.309.37a.646.646,0,0,0,.351.395c.4.178.827.283,1.228.453a1.2,1.2,0,0,1,.878,1.211,1.48,1.48,0,0,1-1.309,1.3,2.506,2.506,0,0,1-1.858-.353c-.394-.277-.444-.5-.207-1.05a3.7,3.7,0,0,1,.445.27,1.82,1.82,0,0,0,1.492.278.655.655,0,0,0,.409-.439c.027-.124-.163-.376-.313-.443-.4-.176-.829-.267-1.237-.419a1.277,1.277,0,0,1-.935-1.132,1.349,1.349,0,0,1,.887-1.18,2.356,2.356,0,0,1,1.9.043C415.558,519.174,415.623,519.467,415.429,519.976Z" transform="translate(-322.558 -411.219)"/><path class="a" d="M315.843,521.818c0,.879.042,1.76-.013,2.635a1.463,1.463,0,0,1-1.661,1.2.5.5,0,0,1-.28-.352c-.044-.266-.084-.619.3-.659.529-.055.561-.386.56-.792,0-1.319-.009-2.639.013-3.958a.786.786,0,0,1,.238-.578,2.414,2.414,0,0,1,.773-.2,4.358,4.358,0,0,1,.108.646c.014.684.005,1.368.005,2.052Z" transform="translate(-243.096 -411.478)"/><path class="a" d="M435.285,537.544c-.06-.4.145-.524.505-.521.306,0,.55.03.53.434-.019.366-.1.621-.554.615C435.376,538.068,435.239,537.9,435.285,537.544Z" transform="translate(-341.002 -425.916)"/></g></svg>