<svg xmlns="http://www.w3.org/2000/svg" width="218.047" height="46.901" viewBox="0 0 218.047 46.901"><defs><style>.a{fill:#3e3e3e;}</style></defs><g transform="translate(292.5 240.047)"><g transform="translate(-292.5 -240.047)"><path class="a" d="M-272.034-203.533l3.654-17.295a17.618,17.618,0,0,0-3.95-1.542,29.536,29.536,0,0,0-4.673-.869q-1.4,2.8-2.578,5.756t-2.029,5.83a54.263,54.263,0,0,0-1.372,5.513,25.922,25.922,0,0,0-.5,4.819,10.834,10.834,0,0,0,.435,3.276,10.931,10.931,0,0,1-1.881-.17,4.357,4.357,0,0,1-1.757-.722,4.13,4.13,0,0,1-1.3-1.543,5.927,5.927,0,0,1-.5-2.671,17.5,17.5,0,0,1,.552-4,46.834,46.834,0,0,1,1.519-4.985q.962-2.676,2.334-5.566t3.061-5.732a18.025,18.025,0,0,0-2.724.288,12.063,12.063,0,0,0-2.241.624,4.7,4.7,0,0,0-1.518.918,1.578,1.578,0,0,0-.552,1.153,1.319,1.319,0,0,1,.812.581,1.627,1.627,0,0,1,.143.625,1.56,1.56,0,0,1-.771,1.518,3.354,3.354,0,0,1-1.588.406,3.189,3.189,0,0,1-1.831-.552,2.186,2.186,0,0,1-.813-1.953,3.743,3.743,0,0,1,.813-2.339,6.413,6.413,0,0,1,2.192-1.757,12.655,12.655,0,0,1,3.276-1.108,19.88,19.88,0,0,1,4-.386c.321,0,.642.009.962.024s.656.04,1.012.073a58.542,58.542,0,0,1,3.9-5.542,37.636,37.636,0,0,1,4.239-4.551,21.13,21.13,0,0,1,4.409-3.109,9.562,9.562,0,0,1,4.409-1.153,13.5,13.5,0,0,1,1.782.141,7.1,7.1,0,0,1,1.928.528l-7.564,35.454Zm-4.141-21.293a32.561,32.561,0,0,1,4.5,1.059,21.235,21.235,0,0,1,3.589,1.445l3.178-14.981a5.009,5.009,0,0,0-2.651,1.036,16.586,16.586,0,0,0-2.867,2.675,35.936,35.936,0,0,0-2.939,3.926,54.478,54.478,0,0,0-2.813,4.843Z" transform="translate(292.524 240.071)"/><path class="a" d="M-282.517-197.65h-.529a11.249,11.249,0,0,1-1.944-.176,4.77,4.77,0,0,1-1.912-.783,4.543,4.543,0,0,1-1.421-1.681,6.313,6.313,0,0,1-.548-2.842,17.986,17.986,0,0,1,.565-4.089,47.351,47.351,0,0,1,1.531-5.026c.646-1.783,1.433-3.654,2.351-5.6.812-1.721,1.729-3.45,2.715-5.147a16.875,16.875,0,0,0-1.96.247,11.889,11.889,0,0,0-2.169.605,4.364,4.364,0,0,0-1.4.836,1.359,1.359,0,0,0-.405.634,1.4,1.4,0,0,1,.755.673,2,2,0,0,1,.174.775,1.92,1.92,0,0,1-.974,1.855,3.686,3.686,0,0,1-3.816-.166,2.549,2.549,0,0,1-.987-2.27,4.145,4.145,0,0,1,.873-2.57,6.835,6.835,0,0,1,2.318-1.864,13.1,13.1,0,0,1,3.374-1.14,20.337,20.337,0,0,1,5.059-.37l.813.053a58.888,58.888,0,0,1,3.8-5.375,38.189,38.189,0,0,1,4.283-4.6,21.646,21.646,0,0,1,4.485-3.162,9.99,9.99,0,0,1,4.584-1.218,13.966,13.966,0,0,1,1.835.15,7.474,7.474,0,0,1,2.029.561l.284.126-7.692,36.063h-6.033l3.7-17.457a17.679,17.679,0,0,0-3.617-1.372,29.152,29.152,0,0,0-4.348-.813c-.876,1.77-1.7,3.617-2.436,5.488-.775,1.949-1.461,3.9-2.029,5.8a54.419,54.419,0,0,0-1.365,5.477,25.58,25.58,0,0,0-.5,4.746,10.46,10.46,0,0,0,.405,3.158Zm2.184-26.177-.357.6c-1.113,1.872-2.136,3.792-3.041,5.684s-1.688,3.767-2.322,5.53a47.069,47.069,0,0,0-1.506,4.945,17.2,17.2,0,0,0-.543,3.909,5.565,5.565,0,0,0,.463,2.5,3.741,3.741,0,0,0,1.177,1.4,4,4,0,0,0,1.623.663,11.2,11.2,0,0,0,1.3.15,12.076,12.076,0,0,1-.308-2.878,26.406,26.406,0,0,1,.512-4.873,54.855,54.855,0,0,1,1.384-5.553c.581-1.92,1.275-3.893,2.058-5.862s1.66-3.926,2.59-5.785l.118-.236.264.029a29.947,29.947,0,0,1,4.734.878,17.869,17.869,0,0,1,4.034,1.575l.248.137-3.621,17.109h4.465l7.434-34.842a6.963,6.963,0,0,0-1.539-.381,13.237,13.237,0,0,0-1.729-.138,9.227,9.227,0,0,0-4.234,1.113,20.773,20.773,0,0,0-4.327,3.053,37.4,37.4,0,0,0-4.2,4.507,58.235,58.235,0,0,0-3.877,5.5l-.126.2-.236-.02c-.349-.03-.682-.053-1-.072a19.753,19.753,0,0,0-4.871.353,12.356,12.356,0,0,0-3.179,1.071A6.091,6.091,0,0,0-291-221.912a3.334,3.334,0,0,0-.714,2.1,1.822,1.822,0,0,0,.649,1.623,2.9,2.9,0,0,0,3.029.122,1.169,1.169,0,0,0,.568-1.182,1.2,1.2,0,0,0-.114-.474c0-.04-.117-.195-.6-.37l-.252-.093v-.268a1.96,1.96,0,0,1,.67-1.434,5.1,5.1,0,0,1,1.624-.995,12.6,12.6,0,0,1,2.31-.646,18.345,18.345,0,0,1,2.78-.3Zm12.54,2.09-.447-.239a21.118,21.118,0,0,0-3.524-1.417,32.128,32.128,0,0,0-4.465-1.048l-.52-.085.244-.471a55.231,55.231,0,0,1,2.842-4.871,36.943,36.943,0,0,1,2.972-3.966,17.087,17.087,0,0,1,2.936-2.737,5.409,5.409,0,0,1,2.841-1.1h.491Zm-7.778-3.37a32.67,32.67,0,0,1,4.035.983,23.5,23.5,0,0,1,3.2,1.242l2.963-13.97a5.22,5.22,0,0,0-1.944.905,16.314,16.314,0,0,0-2.8,2.611,36.139,36.139,0,0,0-2.907,3.884c-.876,1.352-1.734,2.822-2.554,4.364Z" transform="translate(292.5 240.047)"/></g><g transform="translate(-261.12 -237.676)"><path class="a" d="M-257.006-236.721l4.912-.673-2.456,11.416a9.239,9.239,0,0,1,2.1-1.373,5.686,5.686,0,0,1,2.436-.507,10.043,10.043,0,0,1,2.289.264,4.7,4.7,0,0,1,2.071,1.108,5.945,5.945,0,0,1,1.519,2.388,11.9,11.9,0,0,1,.58,4.092,18.344,18.344,0,0,1-.962,5.733,19.083,19.083,0,0,1-2.744,5.37,15.323,15.323,0,0,1-4.239,3.975,10.028,10.028,0,0,1-5.445,1.542,9.521,9.521,0,0,1-2.313-.264,4.633,4.633,0,0,1-1.807-.868,3.873,3.873,0,0,1-1.157-1.661,7.41,7.41,0,0,1-.405-2.651,17.864,17.864,0,0,1,.405-3.467ZM-248-219.475a8.927,8.927,0,0,0-.869-4.311,2.8,2.8,0,0,0-2.6-1.568,3.59,3.59,0,0,0-1.782.46,11.036,11.036,0,0,0-1.685,1.181l-2.842,12.671c-.065.353-.122.673-.17.962a5.172,5.172,0,0,0-.073.869q0,2.5,2.407,2.5a4.658,4.658,0,0,0,2.988-1.133,10.362,10.362,0,0,0,2.437-2.939,16.167,16.167,0,0,0,1.623-4.093,18.709,18.709,0,0,0,.569-4.6Z" transform="translate(263.021 237.845)"/><path class="a" d="M-256.93-202.969a9.925,9.925,0,0,1-2.408-.275,5,5,0,0,1-1.952-.942,4.235,4.235,0,0,1-1.271-1.823,7.8,7.8,0,0,1-.434-2.789,18.312,18.312,0,0,1,.405-3.544l5.311-24.691,5.72-.784-2.351,10.926a8.981,8.981,0,0,1,1.339-.775,7.875,7.875,0,0,1,4.969-.268,5.093,5.093,0,0,1,2.241,1.193,6.345,6.345,0,0,1,1.624,2.537,12.358,12.358,0,0,1,.6,4.231,18.835,18.835,0,0,1-.983,5.854,19.578,19.578,0,0,1-2.8,5.477,15.781,15.781,0,0,1-4.344,4.059A10.453,10.453,0,0,1-256.93-202.969Zm.268-33.375-5.2,24.16a17.586,17.586,0,0,0-.378,3.386,7.086,7.086,0,0,0,.382,2.513,3.5,3.5,0,0,0,1.039,1.5,4.218,4.218,0,0,0,1.656.812,9.193,9.193,0,0,0,2.221.256A9.7,9.7,0,0,0-251.7-205.2a15.035,15.035,0,0,0,4.133-3.878,18.8,18.8,0,0,0,2.691-5.277,18.043,18.043,0,0,0,.946-5.615,11.588,11.588,0,0,0-.552-3.958,5.57,5.57,0,0,0-1.413-2.234,4.344,4.344,0,0,0-1.9-1.019,7.138,7.138,0,0,0-4.465.216,8.849,8.849,0,0,0-2.01,1.315l-.865.739,2.583-11.993Zm1.08,30.043a2.542,2.542,0,0,1-2.8-2.253,2.513,2.513,0,0,1,.012-.638,5.667,5.667,0,0,1,.077-.93c.049-.292.106-.613.171-.97l2.874-12.813.1-.082A11.456,11.456,0,0,1-253.4-225.2a3.984,3.984,0,0,1,1.969-.507,3.175,3.175,0,0,1,2.935,1.762,9.359,9.359,0,0,1,.914,4.5,19.18,19.18,0,0,1-.588,4.693,16.56,16.56,0,0,1-1.653,4.19,10.8,10.8,0,0,1-2.525,3.045,5.053,5.053,0,0,1-3.231,1.225Zm1.019-17.178-2.813,12.541c-.061.336-.118.653-.166.941a4.83,4.83,0,0,0-.065.812c0,1.47.624,2.124,2.029,2.124a4.257,4.257,0,0,0,2.744-1.048,10.006,10.006,0,0,0,2.342-2.842,15.832,15.832,0,0,0,1.575-4,18.446,18.446,0,0,0,.565-4.506,8.651,8.651,0,0,0-.812-4.129,2.436,2.436,0,0,0-2.266-1.368,3.242,3.242,0,0,0-1.6.405,10.45,10.45,0,0,0-1.539,1.068Z" transform="translate(262.998 237.818)"/></g><g transform="translate(-240.946 -227.994)"><path class="a" d="M-223.772-228.341l-3.515,16.378a8.9,8.9,0,0,0-.239,2.168,3.728,3.728,0,0,0,.288,1.493,1.168,1.168,0,0,0,1.218.674,3.213,3.213,0,0,0,2.338-1.4,15.518,15.518,0,0,0,2.241-3.853h1.783a25.309,25.309,0,0,1-2.314,4.795,12.427,12.427,0,0,1-2.241,2.671,5.51,5.51,0,0,1-2.07,1.182,6.929,6.929,0,0,1-1.758.264,3.5,3.5,0,0,1-2.6-1.084,5.587,5.587,0,0,1-1.254-3.54,9.806,9.806,0,0,1-3.106,3.54,6.243,6.243,0,0,1-3.349,1.084,4.776,4.776,0,0,1-2.071-.458,5.21,5.21,0,0,1-1.685-1.275,5.848,5.848,0,0,1-1.133-2.029,8.339,8.339,0,0,1-.405-2.7,11.369,11.369,0,0,1,.288-2.456l3.276-15.463h4.871l-3.515,16.377a6.473,6.473,0,0,0-.195,1.591,2.95,2.95,0,0,0,.624,2.071,2.034,2.034,0,0,0,1.543.674A4.3,4.3,0,0,0-233.888-209a7.172,7.172,0,0,0,2-3.877l3.277-15.463Z" transform="translate(244.055 228.739)"/><path class="a" d="M-228.03-203.557a3.88,3.88,0,0,1-2.875-1.218,5.082,5.082,0,0,1-1.218-2.684,9.292,9.292,0,0,1-2.659,2.741,5.906,5.906,0,0,1-5.789.649,5.6,5.6,0,0,1-1.81-1.372,6.235,6.235,0,0,1-1.218-2.152,8.734,8.734,0,0,1-.431-2.818,11.881,11.881,0,0,1,.3-2.541l3.341-15.764h5.671l-3.617,16.844a6.184,6.184,0,0,0-.182,1.51,2.609,2.609,0,0,0,.523,1.81,1.622,1.622,0,0,0,1.263.552,3.956,3.956,0,0,0,2.607-1.266,6.851,6.851,0,0,0,1.884-3.679l3.341-15.767h5.651l-3.617,16.844a8.666,8.666,0,0,0-.232,2.087,3.386,3.386,0,0,0,.261,1.343c.089.207.264.442.852.442a2.889,2.889,0,0,0,2.03-1.258,15.26,15.26,0,0,0,2.179-3.76l.1-.231h2.59l-.2.519a25.8,25.8,0,0,1-2.351,4.873,12.887,12.887,0,0,1-2.314,2.756,5.91,5.91,0,0,1-2.221,1.259A7.276,7.276,0,0,1-228.03-203.557Zm-3.57-6.284.1,1.247a5.278,5.278,0,0,0,1.144,3.3,3.657,3.657,0,0,0,3.988.715,5.169,5.169,0,0,0,1.924-1.1,12.11,12.11,0,0,0,2.168-2.591,23.619,23.619,0,0,0,2.074-4.2h-.97a15.555,15.555,0,0,1-2.2,3.718A3.582,3.582,0,0,1-226-207.218a1.525,1.525,0,0,1-1.555-.909,4.132,4.132,0,0,1-.321-1.624,9.364,9.364,0,0,1,.252-2.261l3.414-15.9h-4.08l-3.211,15.159a7.587,7.587,0,0,1-2.111,4.06,4.676,4.676,0,0,1-3.129,1.473,2.387,2.387,0,0,1-1.823-.812,3.32,3.32,0,0,1-.731-2.33,6.882,6.882,0,0,1,.2-1.681l3.414-15.9h-4.08l-3.212,15.159a11.061,11.061,0,0,0-.28,2.379,7.985,7.985,0,0,0,.406,2.574,5.507,5.507,0,0,0,1.055,1.891,4.84,4.84,0,0,0,1.564,1.186,5.154,5.154,0,0,0,5.05-.605,9.485,9.485,0,0,0,2.98-3.406Z" transform="translate(244.031 228.715)"/></g><g transform="translate(-220.274 -229.54)"><path class="a" d="M-204.2-212.784a23.812,23.812,0,0,1-3.248,2.988q-1.624,1.217-3.106,2.119a6.727,6.727,0,0,1-1.372,1.783,7.72,7.72,0,0,1-1.685,1.177,7.085,7.085,0,0,1-1.831.649,8.81,8.81,0,0,1-1.758.191,8.179,8.179,0,0,1-3.155-.552,6.712,6.712,0,0,1-2.192-1.421,5.431,5.431,0,0,1-1.275-1.973,6.363,6.363,0,0,1-.405-2.217,4.893,4.893,0,0,1,.812-2.842,4.818,4.818,0,0,1,1.758-1.624,59.123,59.123,0,0,0,3.423-7.153q1.4-3.54,2.5-7.105l5.058-.962q.239,4.624.459,7.515t.385,4.722q.171,1.83.264,2.963t.1,2.335c0,.289-.009.57-.024.845a6.766,6.766,0,0,1-.073.812q.914-.528,1.783-1.108t1.587-1.108Zm-10.357.624q0-1.01-.073-1.879t-.215-2.168q-.147-1.3-.337-3.276t-.386-5.108a45.082,45.082,0,0,1-1.623,5.157q-.938,2.455-2.241,5.058a1.938,1.938,0,0,1,.483.625,2.157,2.157,0,0,1,.195.963,2.353,2.353,0,0,1-.65,1.782,1.912,1.912,0,0,1-1.323.625,1.247,1.247,0,0,1-1.157-.673,4.031,4.031,0,0,0,.771,2.626,2.877,2.877,0,0,0,2.359.938,4.339,4.339,0,0,0,3.012-1.059A4.679,4.679,0,0,0-214.553-212.16Z" transform="translate(224.619 230.197)"/><path class="a" d="M-217.177-203.463a8.579,8.579,0,0,1-3.3-.585,7.113,7.113,0,0,1-2.313-1.5,5.812,5.812,0,0,1-1.365-2.116,6.8,6.8,0,0,1-.434-2.346,5.35,5.35,0,0,1,2.655-4.766,58.461,58.461,0,0,0,3.341-7.007c.922-2.338,1.762-4.717,2.5-7.076l.068-.219,5.716-1.088.024.438c.158,3.045.313,5.57.455,7.507s.272,3.5.386,4.713.2,2.208.264,2.963.1,1.564.1,2.368c0,.295-.007.583-.024.865-.024.422,0,.04,0,.061.382-.232.755-.471,1.121-.715q.857-.573,1.575-1.1l.1-.073h3.021l-.589.641a24.158,24.158,0,0,1-3.3,3.037c-1.051.784-2.078,1.486-3.048,2.087a7.061,7.061,0,0,1-1.4,1.79,8.184,8.184,0,0,1-1.77,1.218,7.567,7.567,0,0,1-1.928.686A9.225,9.225,0,0,1-217.177-203.463Zm1.741-24.956c-.722,2.306-1.547,4.629-2.436,6.9a59.377,59.377,0,0,1-3.442,7.2l-.057.1-.105.053a4.463,4.463,0,0,0-1.624,1.514,4.556,4.556,0,0,0-.726,2.627,6.018,6.018,0,0,0,.406,2.083,5.075,5.075,0,0,0,1.189,1.835,6.355,6.355,0,0,0,2.067,1.34,7.831,7.831,0,0,0,3.008.523,8.341,8.341,0,0,0,1.681-.187,6.65,6.65,0,0,0,1.734-.617,7.4,7.4,0,0,0,1.6-1.124,6.362,6.362,0,0,0,1.294-1.681l.049-.089.085-.053a36.441,36.441,0,0,0,3.077-2.1,22.325,22.325,0,0,0,2.591-2.3h-1.007q-.689.5-1.5,1.043c-.581.405-1.189.763-1.8,1.12l-.666.406.094-.764c.033-.247.053-.507.069-.771s.024-.539.024-.812c0-.784-.033-1.559-.094-2.306s-.154-1.742-.264-2.96-.239-2.8-.406-4.726c-.138-1.846-.284-4.23-.434-7.084Zm-3.283,21.343a3.245,3.245,0,0,1-2.659-1.081,4.419,4.419,0,0,1-.857-2.87v-1.438l.715,1.255a.874.874,0,0,0,.812.479,1.542,1.542,0,0,0,1.06-.516,1.979,1.979,0,0,0,.535-1.506,1.791,1.791,0,0,0-.154-.812,1.55,1.55,0,0,0-.385-.5l-.232-.191.134-.272a52.247,52.247,0,0,0,2.225-5.021,44.934,44.934,0,0,0,1.6-5.111l.6-2.408.154,2.476c.126,2.067.255,3.78.385,5.1s.239,2.4.337,3.268.17,1.6.219,2.18.073,1.218.073,1.912a5.038,5.038,0,0,1-1.307,3.9,4.717,4.717,0,0,1-3.256,1.165Zm-2.676-3.029a3.05,3.05,0,0,0,.614,1.461,2.491,2.491,0,0,0,2.062.813,3.932,3.932,0,0,0,2.756-.963,4.346,4.346,0,0,0,1.052-3.329c0-.657-.024-1.279-.069-1.846s-.122-1.3-.215-2.156-.212-1.961-.337-3.28c-.078-.812-.158-1.762-.236-2.842-.312,1.032-.653,2.03-1.023,3-.6,1.563-1.31,3.191-2.13,4.843a2.466,2.466,0,0,1,.357.532,2.552,2.552,0,0,1,.231,1.137,2.725,2.725,0,0,1-.767,2.058,2.3,2.3,0,0,1-1.591.735,1.767,1.767,0,0,1-.7-.167Z" transform="translate(224.596 230.169)"/></g><g transform="translate(-202.696 -228.214)"><path class="a" d="M-190.362-223.607a8.044,8.044,0,0,1-3.191,6.625,16.677,16.677,0,0,1-8.806,3.106,6.058,6.058,0,0,0-.049.748v.747a5.709,5.709,0,0,0,.934,3.613,3.945,3.945,0,0,0,3.248,1.157,8.042,8.042,0,0,0,5.7-2.31,7.359,7.359,0,0,1-1.059,2.94,6.2,6.2,0,0,1-1.831,1.831,6.938,6.938,0,0,1-2.384.942,14.222,14.222,0,0,1-2.769.264,8.258,8.258,0,0,1-2.675-.435,6.249,6.249,0,0,1-2.266-1.348,6.588,6.588,0,0,1-1.591-2.383,9.335,9.335,0,0,1-.6-3.541,19.916,19.916,0,0,1,.288-3.129,25.228,25.228,0,0,1,.893-3.655,21.781,21.781,0,0,1,1.587-3.71,15.113,15.113,0,0,1,2.335-3.248,10.928,10.928,0,0,1,3.106-2.286,8.9,8.9,0,0,1,3.974-.865,8.337,8.337,0,0,1,1.928.216,4.281,4.281,0,0,1,1.624.771,3.85,3.85,0,0,1,1.157,1.518A6.025,6.025,0,0,1-190.362-223.607Zm-4.71-2.6a3.856,3.856,0,0,0-2.492.937,9.088,9.088,0,0,0-2.031,2.436,18.606,18.606,0,0,0-1.534,3.349,24.259,24.259,0,0,0-.983,3.736,11.878,11.878,0,0,0,6.422-2.842,7.178,7.178,0,0,0,2.4-5.493,3.354,3.354,0,0,0-.313-1.47q-.321-.654-1.469-.653Z" transform="translate(208.093 228.946)"/><path class="a" d="M-200.552-203.543a8.684,8.684,0,0,1-2.8-.454,6.661,6.661,0,0,1-2.4-1.43,7.013,7.013,0,0,1-1.685-2.521,9.733,9.733,0,0,1-.629-3.687,20.33,20.33,0,0,1,.291-3.191,25.627,25.627,0,0,1,.906-3.714,22.26,22.26,0,0,1,1.623-3.776,15.644,15.644,0,0,1,2.4-3.332,11.334,11.334,0,0,1,3.215-2.367,9.3,9.3,0,0,1,4.145-.906,8.762,8.762,0,0,1,2.031.228,4.707,4.707,0,0,1,1.782.84,4.274,4.274,0,0,1,1.275,1.665,6.432,6.432,0,0,1,.467,2.614,8.449,8.449,0,0,1-3.338,6.925,16.861,16.861,0,0,1-8.692,3.155v1.153a5.385,5.385,0,0,0,.849,3.374,3.619,3.619,0,0,0,2.939,1.015,7.715,7.715,0,0,0,5.441-2.208l.812-.775-.179,1.116a7.786,7.786,0,0,1-1.12,3.09,6.631,6.631,0,0,1-1.944,1.941,7.321,7.321,0,0,1-2.513.99A14.512,14.512,0,0,1-200.552-203.543Zm5.059-24.614a8.532,8.532,0,0,0-3.8.812,10.572,10.572,0,0,0-3,2.209,14.848,14.848,0,0,0-2.277,3.171,21.58,21.58,0,0,0-1.562,3.654,24.867,24.867,0,0,0-.878,3.6,19.681,19.681,0,0,0-.284,3.07,9.009,9.009,0,0,0,.572,3.4,6.26,6.26,0,0,0,1.5,2.25,5.9,5.9,0,0,0,2.127,1.267,10.451,10.451,0,0,0,5.246.154,6.536,6.536,0,0,0,2.253-.889,5.836,5.836,0,0,0,1.718-1.721,6.1,6.1,0,0,0,.763-1.705,8.335,8.335,0,0,1-5.086,1.676,4.315,4.315,0,0,1-3.537-1.3,6.094,6.094,0,0,1-1.019-3.853v-.748a6.473,6.473,0,0,1,.053-.812l.036-.3.3-.033a16.379,16.379,0,0,0,8.6-3.024,7.614,7.614,0,0,0,3.045-6.325,5.658,5.658,0,0,0-.406-2.3,3.534,3.534,0,0,0-1.039-1.373,3.958,3.958,0,0,0-1.494-.7A8.011,8.011,0,0,0-195.493-228.157Zm-7.072,12.889.093-.528a24.965,24.965,0,0,1,1-3.792,19.076,19.076,0,0,1,1.564-3.419,9.507,9.507,0,0,1,2.123-2.533,4.256,4.256,0,0,1,2.732-1.027,1.8,1.8,0,0,1,1.806.869,3.737,3.737,0,0,1,.35,1.624,7.581,7.581,0,0,1-2.518,5.772,12.318,12.318,0,0,1-6.621,2.94Zm7.515-10.531a3.46,3.46,0,0,0-2.25.853,8.79,8.79,0,0,0-1.949,2.33,18.146,18.146,0,0,0-1.5,3.28,24.06,24.06,0,0,0-.865,3.133,11.258,11.258,0,0,0,5.683-2.651,6.753,6.753,0,0,0,2.274-5.209,2.991,2.991,0,0,0-.277-1.3c-.143-.288-.507-.435-1.117-.435Z" transform="translate(208.07 228.922)"/></g><g transform="translate(-177.475 -239.994)"><path class="a" d="M-157.283-239.661l-7.226,34.2a26.781,26.781,0,0,1-1.519,4.84,13.087,13.087,0,0,1-2.383,3.759,10.126,10.126,0,0,1-3.443,2.436,11.741,11.741,0,0,1-4.7.869,10.531,10.531,0,0,1-3.491-.507,6.12,6.12,0,0,1-2.31-1.4,5.185,5.185,0,0,1-1.28-2.071,8.127,8.127,0,0,1-.385-2.529,8.6,8.6,0,0,1,.385-2.577,5.991,5.991,0,0,1,1.182-2.144,5.71,5.71,0,0,1,2.071-1.47,7.669,7.669,0,0,1,3.061-.552,7.946,7.946,0,0,1,1.133.1,3.666,3.666,0,0,1,1.218.406,2.7,2.7,0,0,1,.986.962,3.512,3.512,0,0,1,.264,2.652c-.1.336-.19.682-.288,1.035a3.492,3.492,0,0,0-1.323-1.218,3.259,3.259,0,0,0-1.519-.455,3.184,3.184,0,0,0-1.567.386,4.068,4.068,0,0,0-1.182.963,4.343,4.343,0,0,0-.747,1.3,4.016,4.016,0,0,0-.264,1.4,3.6,3.6,0,0,0,1.157,2.7,3.777,3.777,0,0,0,2.7,1.108,4.843,4.843,0,0,0,1.567-.313,6.058,6.058,0,0,0,1.783-1.035,7.506,7.506,0,0,0,1.624-1.953,9.8,9.8,0,0,0,1.133-3.106l7.417-34.976A11.367,11.367,0,0,0-169.8-233a10.483,10.483,0,0,0-2.335,6.792,6.428,6.428,0,0,0,.386,2.651,3.6,3.6,0,0,0,.771,1.108,6.366,6.366,0,0,1-3.784-.99,3.964,3.964,0,0,1-1.372-3.443,8.744,8.744,0,0,1,1.519-4.871,15.694,15.694,0,0,1,3.926-4.06,20.384,20.384,0,0,1,5.419-2.793,18.512,18.512,0,0,1,6.046-1.035Z" transform="translate(184.379 240.018)"/><path class="a" d="M-176.525-193.155a10.923,10.923,0,0,1-3.622-.529,6.524,6.524,0,0,1-2.436-1.486,5.585,5.585,0,0,1-1.368-2.221,8.5,8.5,0,0,1-.406-2.646,8.994,8.994,0,0,1,.406-2.692,6.414,6.414,0,0,1,1.258-2.282,6.121,6.121,0,0,1,2.208-1.571,8.078,8.078,0,0,1,3.211-.585,8.258,8.258,0,0,1,1.19.1,4.064,4.064,0,0,1,1.356.451,3.1,3.1,0,0,1,1.129,1.1,3.889,3.889,0,0,1,.308,2.96c-.1.337-.191.678-.288,1.031l-.232.845-.463-.742a3.131,3.131,0,0,0-1.182-1.1,2.878,2.878,0,0,0-1.335-.405,2.813,2.813,0,0,0-1.381.337,3.725,3.725,0,0,0-1.072.872,3.95,3.95,0,0,0-.682,1.186,3.681,3.681,0,0,0-.244,1.267,3.211,3.211,0,0,0,1.039,2.436,3.376,3.376,0,0,0,2.436,1,4.457,4.457,0,0,0,1.437-.291,5.7,5.7,0,0,0,1.669-.974,7.166,7.166,0,0,0,1.551-1.852,9.4,9.4,0,0,0,1.084-2.984l7.308-34.378a10.813,10.813,0,0,0-5.778,3.576,10.151,10.151,0,0,0-2.249,6.553,6.147,6.147,0,0,0,.345,2.476,3.314,3.314,0,0,0,.678.99l.772.67H-170.9a6.771,6.771,0,0,1-4.008-1.059,4.332,4.332,0,0,1-1.531-3.756,9.153,9.153,0,0,1,1.58-5.075,16.2,16.2,0,0,1,4.02-4.169,20.917,20.917,0,0,1,5.521-2.842,18.982,18.982,0,0,1,6.17-1.055h2.4l-7.307,34.666a27.389,27.389,0,0,1-1.539,4.913,13.5,13.5,0,0,1-2.436,3.864,10.557,10.557,0,0,1-3.573,2.526A12.2,12.2,0,0,1-176.525-193.155ZM-177.3-206.4a7.328,7.328,0,0,0-2.907.524,5.337,5.337,0,0,0-1.937,1.368,5.634,5.634,0,0,0-1.1,2,8.274,8.274,0,0,0-.366,2.464,7.787,7.787,0,0,0,.366,2.411,4.823,4.823,0,0,0,1.181,1.921A5.77,5.77,0,0,0-179.9-194.4a10.168,10.168,0,0,0,3.365.483,11.4,11.4,0,0,0,4.543-.836,9.734,9.734,0,0,0,3.316-2.342,12.735,12.735,0,0,0,2.314-3.655,26.447,26.447,0,0,0,1.494-4.769l7.129-33.737h-1.453a18.172,18.172,0,0,0-5.923,1.015,20.079,20.079,0,0,0-5.318,2.74,15.411,15.411,0,0,0-3.833,3.971,8.391,8.391,0,0,0-1.453,4.657,3.628,3.628,0,0,0,1.218,3.13,5.4,5.4,0,0,0,2.732.885,5.029,5.029,0,0,1-.288-.524,6.672,6.672,0,0,1-.406-2.821,10.9,10.9,0,0,1,2.436-7.032,11.8,11.8,0,0,1,6.788-3.987l.585-.134-7.543,35.559a10.209,10.209,0,0,1-1.177,3.228,7.921,7.921,0,0,1-1.725,2.05,6.489,6.489,0,0,1-1.9,1.1,5.206,5.206,0,0,1-1.692.336,4.168,4.168,0,0,1-2.964-1.218,3.986,3.986,0,0,1-1.274-2.975,4.4,4.4,0,0,1,.288-1.531,4.729,4.729,0,0,1,.812-1.414,4.5,4.5,0,0,1,1.291-1.055,3.357,3.357,0,0,1,3.45.073,3.985,3.985,0,0,1,.974.735l.089-.308a3.125,3.125,0,0,0-.219-2.339,2.282,2.282,0,0,0-.845-.812,3.32,3.32,0,0,0-1.1-.37A7.556,7.556,0,0,0-177.3-206.4Z" transform="translate(184.357 239.997)"/></g><g transform="translate(-152.461 -228.217)"><path class="a" d="M-143.123-223.6a8.044,8.044,0,0,1-3.191,6.625,16.689,16.689,0,0,1-8.8,3.106,5.673,5.673,0,0,0-.049.748v.747a5.683,5.683,0,0,0,.941,3.613,3.98,3.98,0,0,0,3.248,1.157,9.638,9.638,0,0,0,4.575-1.218,11.774,11.774,0,0,0,4.145-4.06h1.539a20.523,20.523,0,0,1-2.31,3.4,17.914,17.914,0,0,1-2.988,2.842,14.753,14.753,0,0,1-3.491,1.949,10.359,10.359,0,0,1-3.784.722,8.372,8.372,0,0,1-2.684-.435,6.292,6.292,0,0,1-2.282-1.348,6.572,6.572,0,0,1-1.624-2.383,9.246,9.246,0,0,1-.608-3.54,19.8,19.8,0,0,1,.288-3.13,25.2,25.2,0,0,1,.889-3.654,21.841,21.841,0,0,1,1.587-3.711,15.136,15.136,0,0,1,2.339-3.247,10.908,10.908,0,0,1,3.106-2.286,8.865,8.865,0,0,1,3.974-.865,8.285,8.285,0,0,1,1.928.215,4.281,4.281,0,0,1,1.624.771,3.874,3.874,0,0,1,1.157,1.519A6.006,6.006,0,0,1-143.123-223.6Zm-4.713-2.6a3.861,3.861,0,0,0-2.493.937,9.1,9.1,0,0,0-2.029,2.436,18.591,18.591,0,0,0-1.531,3.349,24.255,24.255,0,0,0-.983,3.736,11.88,11.88,0,0,0,6.419-2.842,7.182,7.182,0,0,0,2.4-5.493,3.372,3.372,0,0,0-.313-1.47Q-146.687-226.207-147.836-226.206Z" transform="translate(160.863 228.947)"/><path class="a" d="M-153.257-203.543a8.765,8.765,0,0,1-2.806-.454,6.73,6.73,0,0,1-2.436-1.43,7,7,0,0,1-1.7-2.521,9.672,9.672,0,0,1-.638-3.69,20.31,20.31,0,0,1,.3-3.191,25.635,25.635,0,0,1,.905-3.715,22.375,22.375,0,0,1,1.624-3.775,15.55,15.55,0,0,1,2.4-3.333,11.319,11.319,0,0,1,3.215-2.367,9.276,9.276,0,0,1,4.145-.905,8.743,8.743,0,0,1,2.029.227,4.719,4.719,0,0,1,1.783.84,4.272,4.272,0,0,1,1.274,1.665,6.414,6.414,0,0,1,.467,2.614,8.449,8.449,0,0,1-3.337,6.926,16.873,16.873,0,0,1-8.692,3.154v1.153a5.378,5.378,0,0,0,.852,3.374,3.656,3.656,0,0,0,2.956,1.015,9.344,9.344,0,0,0,4.4-1.156,11.442,11.442,0,0,0,4-3.922l.114-.171h2.391l-.3.565a21.056,21.056,0,0,1-2.355,3.459,18.341,18.341,0,0,1-3.053,2.9,15.141,15.141,0,0,1-3.586,2A10.744,10.744,0,0,1-153.257-203.543Zm5.01-24.614a8.532,8.532,0,0,0-3.8.812,10.572,10.572,0,0,0-3,2.209,14.884,14.884,0,0,0-2.277,3.171,21.411,21.411,0,0,0-1.562,3.654,24.875,24.875,0,0,0-.878,3.6,19.683,19.683,0,0,0-.284,3.07,8.934,8.934,0,0,0,.576,3.394,6.234,6.234,0,0,0,1.51,2.249,5.977,5.977,0,0,0,2.143,1.267,9.167,9.167,0,0,0,6.2-.284,14.335,14.335,0,0,0,3.4-1.9,17.565,17.565,0,0,0,2.923-2.781,20.456,20.456,0,0,0,1.949-2.769h-.682a12.011,12.011,0,0,1-4.165,4,10.066,10.066,0,0,1-4.758,1.251,4.347,4.347,0,0,1-3.548-1.3,6.07,6.07,0,0,1-1.027-3.857v-.748a6.275,6.275,0,0,1,.053-.812l.04-.3.3-.032a16.389,16.389,0,0,0,8.6-3.025,7.618,7.618,0,0,0,3.045-6.324,5.7,5.7,0,0,0-.406-2.3,3.53,3.53,0,0,0-1.039-1.372,3.925,3.925,0,0,0-1.494-.7,7.956,7.956,0,0,0-1.831-.174Zm-7.069,12.889.094-.528a24.719,24.719,0,0,1,1-3.792,18.894,18.894,0,0,1,1.564-3.419,9.507,9.507,0,0,1,2.123-2.533,4.254,4.254,0,0,1,2.732-1.027A1.8,1.8,0,0,1-146-225.7a3.738,3.738,0,0,1,.35,1.624,7.585,7.585,0,0,1-2.518,5.772,12.318,12.318,0,0,1-6.621,2.94ZM-147.8-225.8a3.459,3.459,0,0,0-2.249.853,8.734,8.734,0,0,0-1.949,2.33,18.151,18.151,0,0,0-1.5,3.28,24.244,24.244,0,0,0-.865,3.138,11.249,11.249,0,0,0,5.684-2.651,6.752,6.752,0,0,0,2.273-5.209,2.96,2.96,0,0,0-.275-1.3c-.154-.293-.528-.439-1.129-.439Z" transform="translate(160.841 228.925)"/></g><g transform="translate(-134.866 -228.189)"><path class="a" d="M-122.307-228.325l-3.516,16.378a8.953,8.953,0,0,0-.239,2.168,3.743,3.743,0,0,0,.288,1.493,1.17,1.17,0,0,0,1.218.674,3.213,3.213,0,0,0,2.335-1.4,15.519,15.519,0,0,0,2.241-3.853h1.783a25.374,25.374,0,0,1-2.314,4.795,12.428,12.428,0,0,1-2.241,2.671,5.514,5.514,0,0,1-2.071,1.182,6.873,6.873,0,0,1-1.757.264,3.438,3.438,0,0,1-2.627-1.108,5.885,5.885,0,0,1-1.218-3.613,10.154,10.154,0,0,1-3.061,3.345,7.247,7.247,0,0,1-4.262,1.372,6.483,6.483,0,0,1-2.266-.405,5.067,5.067,0,0,1-1.973-1.348,7.012,7.012,0,0,1-1.4-2.412,10.619,10.619,0,0,1-.532-3.589,18.665,18.665,0,0,1,.361-3.515,25.166,25.166,0,0,1,1.036-3.76,19.551,19.551,0,0,1,1.733-3.613,15.853,15.853,0,0,1,2.408-3.057,10.859,10.859,0,0,1,3.057-2.119,8.759,8.759,0,0,1,3.734-.813,5.828,5.828,0,0,1,2.359.529,2.84,2.84,0,0,1,1.587,2.029l.484-2.315Zm-13.438,20.7a3.546,3.546,0,0,0,1.591-.405,6.69,6.69,0,0,0,1.567-1.108,7.642,7.642,0,0,0,1.324-1.66,6.828,6.828,0,0,0,.812-2.071l2.31-10.937a2.948,2.948,0,0,0-.723-1.469,2.137,2.137,0,0,0-1.685-.65,5,5,0,0,0-3.515,1.445,12.675,12.675,0,0,0-2.6,3.516,18.747,18.747,0,0,0-1.587,4.432,19.208,19.208,0,0,0-.528,4.142,6.225,6.225,0,0,0,.812,3.759,2.7,2.7,0,0,0,2.221,1.015Z" transform="translate(144.322 228.919)"/><path class="a" d="M-126.57-203.545a3.816,3.816,0,0,1-2.907-1.218,5.319,5.319,0,0,1-1.218-2.764,10.8,10.8,0,0,1-2.586,2.554,7.674,7.674,0,0,1-4.466,1.441,6.906,6.906,0,0,1-2.4-.435,5.443,5.443,0,0,1-2.123-1.449,7.392,7.392,0,0,1-1.477-2.538,11.008,11.008,0,0,1-.552-3.719,19.091,19.091,0,0,1,.369-3.589,25.5,25.5,0,0,1,1.052-3.816,20.06,20.06,0,0,1,1.766-3.682,16.311,16.311,0,0,1,2.469-3.133,11.314,11.314,0,0,1,3.166-2.192,9.145,9.145,0,0,1,3.893-.813,6.269,6.269,0,0,1,2.513.561,2.953,2.953,0,0,1,1.307,1.108l.3-1.433h5.651l-3.616,16.84a8.562,8.562,0,0,0-.232,2.087,3.4,3.4,0,0,0,.26,1.343c.089.207.264.442.853.442a2.881,2.881,0,0,0,2.029-1.258,15.224,15.224,0,0,0,2.18-3.759l.1-.232h2.59l-.2.519a25.738,25.738,0,0,1-2.351,4.873,12.852,12.852,0,0,1-2.313,2.756,5.918,5.918,0,0,1-2.221,1.259A7.288,7.288,0,0,1-126.57-203.545Zm-3.569-6.394.1,1.263a5.557,5.557,0,0,0,1.124,3.381,3.624,3.624,0,0,0,4.007.735,5.136,5.136,0,0,0,1.924-1.1,12.166,12.166,0,0,0,2.169-2.59,23.733,23.733,0,0,0,2.074-4.2h-.974a15.5,15.5,0,0,1-2.2,3.718,3.581,3.581,0,0,1-2.63,1.531,1.526,1.526,0,0,1-1.555-.905,4.151,4.151,0,0,1-.321-1.624,9.415,9.415,0,0,1,.252-2.261l3.414-15.9h-4.08l-.751,3.613-.406-1.588a2.435,2.435,0,0,0-1.372-1.77,5.5,5.5,0,0,0-2.2-.5,8.411,8.411,0,0,0-3.573.759,10.588,10.588,0,0,0-2.952,2.029,15.613,15.613,0,0,0-2.351,2.984,19.224,19.224,0,0,0-1.7,3.545,24.762,24.762,0,0,0-1.019,3.7,18.356,18.356,0,0,0-.354,3.443,10.288,10.288,0,0,0,.508,3.459,6.648,6.648,0,0,0,1.319,2.282,4.71,4.71,0,0,0,1.827,1.251,6.147,6.147,0,0,0,2.132.385,6.9,6.9,0,0,0,4.059-1.3,9.8,9.8,0,0,0,2.944-3.223Zm-5.586,2.731a3.074,3.074,0,0,1-2.512-1.153,6.492,6.492,0,0,1-.906-4,19.715,19.715,0,0,1,.54-4.226,19.119,19.119,0,0,1,1.624-4.524,13.115,13.115,0,0,1,2.679-3.621,5.39,5.39,0,0,1,3.779-1.547,2.512,2.512,0,0,1,1.973.779,3.353,3.353,0,0,1,.813,1.657v.146l-2.314,10.933a7.206,7.206,0,0,1-.865,2.188,8,8,0,0,1-1.392,1.747,7.1,7.1,0,0,1-1.656,1.169,3.922,3.922,0,0,1-1.77.45Zm5.2-18.305a4.591,4.591,0,0,0-3.247,1.344,12.349,12.349,0,0,0-2.521,3.41,18.375,18.375,0,0,0-1.559,4.344,18.927,18.927,0,0,0-.52,4.06,5.953,5.953,0,0,0,.735,3.52,2.317,2.317,0,0,0,1.917.869,3.2,3.2,0,0,0,1.417-.369,6.3,6.3,0,0,0,1.473-1.048,7.282,7.282,0,0,0,1.259-1.579,6.481,6.481,0,0,0,.771-1.957l2.293-10.856a2.544,2.544,0,0,0-.617-1.218A1.763,1.763,0,0,0-130.521-225.512Z" transform="translate(144.298 228.899)"/></g><g transform="translate(-112.859 -228.241)"><path class="a" d="M-113.225-228.326l-.772,3.614a11.414,11.414,0,0,1,1.832-2.031,8.708,8.708,0,0,1,1.757-1.182,5.815,5.815,0,0,1,1.592-.528,8.714,8.714,0,0,1,1.372-.122,5.883,5.883,0,0,1,2.407.435,3.973,3.973,0,0,1,1.543,1.182,4.314,4.314,0,0,1,.812,1.733,9.774,9.774,0,0,1,.215,2.1,16.255,16.255,0,0,1-.361,3.325q-.362,1.733-.813,3.419t-.812,3.324a14.314,14.314,0,0,0-.362,3.081,4.3,4.3,0,0,0,.288,1.685,1.133,1.133,0,0,0,1.157.674q2.266,0,4.527-5.249h1.782a25.976,25.976,0,0,1-2.309,4.814,11.733,11.733,0,0,1-2.241,2.676,5.753,5.753,0,0,1-2.03,1.156,6.236,6.236,0,0,1-1.66.264,3.987,3.987,0,0,1-3.564-1.567,6.76,6.76,0,0,1-1.059-3.877,16.331,16.331,0,0,1,.362-3.325q.361-1.733.812-3.419t.812-3.247a12.77,12.77,0,0,0,.362-2.867,3.721,3.721,0,0,0-.434-1.928,1.8,1.8,0,0,0-1.685-.722q-2.985,0-5.347,5.155l-3.325,15.513h-4.815l5.108-24.087Z" transform="translate(123.635 228.971)"/><path class="a" d="M-105.25-203.542a4.359,4.359,0,0,1-3.881-1.733,7.16,7.16,0,0,1-1.124-4.093,16.7,16.7,0,0,1,.369-3.4c.239-1.153.507-2.31.813-3.439s.552-2.2.812-3.248a12.436,12.436,0,0,0,.353-2.78,3.368,3.368,0,0,0-.378-1.729c-.215-.362-.662-.536-1.359-.536-1.811,0-3.488,1.644-4.982,4.892l-3.381,15.773h-5.6l5.278-24.854h5.647l-.539,2.525a9.9,9.9,0,0,1,.881-.849,9.151,9.151,0,0,1,1.835-1.218,6.213,6.213,0,0,1,1.7-.564,6.934,6.934,0,0,1,4,.341,4.353,4.353,0,0,1,1.689,1.294,4.69,4.69,0,0,1,.865,1.888,10.176,10.176,0,0,1,.228,2.176,16.7,16.7,0,0,1-.369,3.4c-.24,1.161-.512,2.319-.813,3.439s-.552,2.225-.812,3.309a13.968,13.968,0,0,0-.353,3,3.912,3.912,0,0,0,.26,1.534c.089.207.26.442.812.442,1.316,0,2.761-1.733,4.178-5.017l.1-.232h2.59l-.2.52a26.468,26.468,0,0,1-2.346,4.871,12.142,12.142,0,0,1-2.318,2.76,6.1,6.1,0,0,1-2.165,1.218A6.573,6.573,0,0,1-105.25-203.542Zm-4.433-21.72a2.162,2.162,0,0,1,2.029.909,4.092,4.092,0,0,1,.487,2.124,13.261,13.261,0,0,1-.369,2.951q-.362,1.572-.812,3.248c-.288,1.117-.552,2.266-.792,3.4a16.106,16.106,0,0,0-.353,3.248,6.417,6.417,0,0,0,.994,3.654,3.6,3.6,0,0,0,3.248,1.4,5.862,5.862,0,0,0,1.558-.252,5.392,5.392,0,0,0,1.884-1.084,11.4,11.4,0,0,0,2.16-2.586,24.33,24.33,0,0,0,2.074-4.227h-.97c-1.559,3.532-3.122,5.25-4.778,5.25a1.5,1.5,0,0,1-1.51-.906,4.7,4.7,0,0,1-.321-1.839,14.758,14.758,0,0,1,.37-3.166c.239-1.1.511-2.217.812-3.337s.552-2.254.791-3.4a15.953,15.953,0,0,0,.353-3.247,9.365,9.365,0,0,0-.206-2.03,3.933,3.933,0,0,0-.723-1.583,3.592,3.592,0,0,0-1.4-1.065,6.183,6.183,0,0,0-3.564-.284,5.432,5.432,0,0,0-1.486.5,8.4,8.4,0,0,0-1.676,1.129,11.126,11.126,0,0,0-1.77,1.957l-1.059,1.449,1.047-4.9h-4.08l-4.945,23.319h4.035l3.285-15.29c1.624-3.523,3.541-5.33,5.688-5.33Z" transform="translate(123.608 228.947)"/></g><g transform="translate(-89.967 -229.54)"><path class="a" d="M-88.194-229.741q.239,4.624.458,7.515t.385,4.721q.168,1.83.268,2.963t.1,2.335a9.279,9.279,0,0,1-.748,3.95,7.51,7.51,0,0,1-1.9,2.577,6.873,6.873,0,0,1-2.5,1.4,8.815,8.815,0,0,1-2.554.406,8.17,8.17,0,0,1-3.154-.552,6.711,6.711,0,0,1-2.192-1.421,5.428,5.428,0,0,1-1.28-1.973,6.359,6.359,0,0,1-.405-2.217,4.867,4.867,0,0,1,.812-2.842,4.8,4.8,0,0,1,1.758-1.624,59.122,59.122,0,0,0,3.423-7.153q1.4-3.54,2.5-7.105Zm-3.853,17.582q0-1.01-.073-1.879t-.215-2.168q-.142-1.3-.337-3.276t-.406-5.108a44.867,44.867,0,0,1-1.624,5.157q-.941,2.455-2.24,5.058a1.926,1.926,0,0,1,.479.625,2.16,2.16,0,0,1,.195.963,2.353,2.353,0,0,1-.65,1.782,1.912,1.912,0,0,1-1.323.625,1.246,1.246,0,0,1-1.153-.673,4.038,4.038,0,0,0,.771,2.626,2.876,2.876,0,0,0,2.363.938,4.339,4.339,0,0,0,3.012-1.059A4.68,4.68,0,0,0-92.047-212.159Z" transform="translate(102.109 230.196)"/><path class="a" d="M-94.671-203.463a8.581,8.581,0,0,1-3.3-.585,7.129,7.129,0,0,1-2.314-1.5,5.843,5.843,0,0,1-1.364-2.111,6.776,6.776,0,0,1-.434-2.351,5.343,5.343,0,0,1,2.659-4.766,58.79,58.79,0,0,0,3.341-7.007c.921-2.342,1.762-4.722,2.493-7.076l.069-.219,5.716-1.088.02.438c.158,3.065.313,5.591.458,7.507s.272,3.5.386,4.713.2,2.208.267,2.963.1,1.564.1,2.368a9.681,9.681,0,0,1-.784,4.112,7.937,7.937,0,0,1-2,2.7A7.373,7.373,0,0,1-92-203.89,9.305,9.305,0,0,1-94.671-203.463Zm1.742-24.956c-.723,2.3-1.543,4.629-2.436,6.9a59.781,59.781,0,0,1-3.443,7.2l-.057.1-.105.053a4.445,4.445,0,0,0-1.624,1.514,4.548,4.548,0,0,0-.726,2.627,6.006,6.006,0,0,0,.386,2.083,5.074,5.074,0,0,0,1.189,1.835,6.372,6.372,0,0,0,2.067,1.34,7.851,7.851,0,0,0,3.008.523,8.5,8.5,0,0,0,2.436-.406,6.561,6.561,0,0,0,2.367-1.323,7.171,7.171,0,0,0,1.807-2.436,8.933,8.933,0,0,0,.711-3.788c0-.783-.033-1.558-.094-2.306s-.154-1.741-.264-2.959-.244-2.8-.406-4.726c-.137-1.827-.28-4.21-.434-7.085Zm-3.285,21.343a3.25,3.25,0,0,1-2.656-1.081,4.418,4.418,0,0,1-.856-2.87v-1.438l.715,1.255a.869.869,0,0,0,.812.479,1.56,1.56,0,0,0,1.06-.516,1.98,1.98,0,0,0,.532-1.506,1.792,1.792,0,0,0-.155-.812,1.525,1.525,0,0,0-.385-.5l-.232-.195.134-.272a51.2,51.2,0,0,0,2.225-5.023,45.148,45.148,0,0,0,1.6-5.111l.6-2.407.15,2.476c.126,2.066.255,3.779.385,5.095s.24,2.4.337,3.268.17,1.6.219,2.18.073,1.218.073,1.912a5.046,5.046,0,0,1-1.307,3.9,4.725,4.725,0,0,1-3.252,1.169Zm-2.676-3.029a3.05,3.05,0,0,0,.614,1.461,2.5,2.5,0,0,0,2.062.813,3.932,3.932,0,0,0,2.756-.963,4.345,4.345,0,0,0,1.052-3.329c0-.662-.024-1.283-.069-1.846s-.122-1.3-.215-2.156-.207-1.961-.337-3.28c-.082-.812-.158-1.762-.235-2.842-.313,1.035-.654,2.03-1.023,3-.6,1.567-1.316,3.194-2.132,4.843a2.559,2.559,0,0,1,.357.532,2.567,2.567,0,0,1,.231,1.137,2.729,2.729,0,0,1-.767,2.058,2.3,2.3,0,0,1-1.592.735,1.766,1.766,0,0,1-.7-.167Z" transform="translate(102.086 230.169)"/></g></g></svg>