<svg xmlns="http://www.w3.org/2000/svg" width="162" height="67.526" viewBox="0 0 162 67.526"><defs><style>.a{fill:#3e3e3e;}</style></defs><g transform="translate(-692.592 2.831)"><g transform="translate(692.592 -2.831)"><g transform="translate(0 29.291)"><path class="a" d="M715.869,93.672c-.953,3.751-1.884,7.507-2.865,11.251-1.106,4.223-2.184,8.455-3.413,12.642a4.937,4.937,0,0,1-6.9,3.172,4.711,4.711,0,0,1-2.711-3.4c-.879-3.165-1.671-6.355-2.467-9.542q-2.326-9.3-4.608-18.621a10.965,10.965,0,0,1-.31-2.384,3.7,3.7,0,0,1,2.978-3.681c2.176-.456,3.8.2,4.407,2.155.82,2.622,1.44,5.312,2.021,8,1.04,4.818,1.988,9.656,2.969,14.487a1.857,1.857,0,0,0,.3.865q.5-1.974,1-3.948c1.4-5.591,2.787-11.184,4.2-16.772.476-1.882,1.236-3.662,3.169-4.435,2.812-1.124,6.253-.483,7.32,3.251,1.306,4.571,2.421,9.2,3.6,13.8.685,2.671,1.336,5.351,2.079,8.333.191-.844.33-1.419.451-2,1.412-6.741,2.784-13.492,4.249-20.222.623-2.859,2.542-4.131,4.992-3.535a3.828,3.828,0,0,1,2.878,4.85c-1.031,4.573-2.147,9.128-3.273,13.679-1.234,4.985-2.516,9.959-3.79,14.934a11.019,11.019,0,0,1-.6,1.785,4.565,4.565,0,0,1-4.738,2.779,4.355,4.355,0,0,1-4.367-3.155c-1.384-4.833-2.657-9.7-3.933-14.561-.85-3.24-1.628-6.5-2.437-9.749Z" transform="translate(-692.592 -82.945)"/><path class="a" d="M849.926,126.179c0,3.366.038,6.733-.013,10.1a3.871,3.871,0,0,1-4.418,4.052,3.68,3.68,0,0,1-3.313-3.274,11.874,11.874,0,0,1-.115-1.78q-.012-9.047,0-18.094a13.485,13.485,0,0,1,.067-1.364,3.73,3.73,0,0,1,3.941-3.654,3.843,3.843,0,0,1,3.839,3.918C849.97,119.446,849.927,122.813,849.926,126.179Z" transform="translate(-791.021 -102.184)"/><path class="a" d="M954.123,90.786v8.22h1.17c4.21,0,8.42-.023,12.63.018a10.629,10.629,0,0,1,2.785.4,2.808,2.808,0,0,1,2.161,2.764,2.766,2.766,0,0,1-2.167,2.859,12.009,12.009,0,0,1-3.089.434c-4.454.045-8.908.019-13.531.019v1.129c0,3.3.009,6.6,0,9.893-.008,1.971-.529,3.747-2.478,4.615a5.953,5.953,0,0,1-6.1-.42,3.816,3.816,0,0,1-1.7-3.214c-.051-2.244-.041-4.489-.043-6.734q-.006-10.472,0-20.945a10.511,10.511,0,0,1,.112-1.991c.436-2.229,2.1-3.5,4.92-3.546,4.874-.084,9.751-.054,14.627-.066,2.455-.006,4.913-.045,7.367.02a11.747,11.747,0,0,1,3.095.465,2.884,2.884,0,0,1,2.084,2.85,2.928,2.928,0,0,1-2.057,2.763,7.055,7.055,0,0,1-2.246.432c-5.437.039-10.875.026-16.313.029Z" transform="translate(-857.989 -83.778)"/><path class="a" d="M1057.732,125.6c0,3.049.022,6.1,0,9.146-.034,3.874-3.055,5.993-6.718,4.721a3.844,3.844,0,0,1-2.8-3.456c-.126-1.457-.125-2.927-.128-4.391q-.016-7.642.012-15.285c.008-1.862.558-3.46,2.417-4.3a5.876,5.876,0,0,1,5.943.769,4.425,4.425,0,0,1,1.282,3.436C1057.719,119.367,1057.73,122.486,1057.732,125.6Z" transform="translate(-926.686 -101.798)"/><circle class="a" cx="3.368" cy="3.368" r="3.368" transform="translate(51.956 1.602)"/><circle class="a" cx="3.992" cy="3.992" r="3.992" transform="translate(122.191 0.355)"/></g><path class="a" d="M1083.235,5.124a30.635,30.635,0,0,1,8.414,12.26,33.193,33.193,0,0,1,2.107,11.482,2.921,2.921,0,0,1-1.583,2.676,2.47,2.47,0,0,1-2.825-.366,2.632,2.632,0,0,1-.725-1.948,28.216,28.216,0,0,0-1.916-9.968,26.582,26.582,0,0,0-19.58-16.375,28.737,28.737,0,0,0-8.569-.38,2.359,2.359,0,0,1-2.6-1.4,2.8,2.8,0,0,1,2.4-3.728,33.468,33.468,0,0,1,10.377.467,29.758,29.758,0,0,1,9.662,3.736c1.706,1.043,3.286,2.28,4.923,3.43Z" transform="translate(-931.757 2.831)"/><path class="a" d="M1074.688,26.832a23.215,23.215,0,0,1,6.591,12.46,21.369,21.369,0,0,1,.308,6.409,2.743,2.743,0,0,1-2.708,2.37,2.25,2.25,0,0,1-2.351-2.28,22.449,22.449,0,0,0-.618-6.556,18.09,18.09,0,0,0-3.388-6.713,17.623,17.623,0,0,0-12.458-6.59,34.041,34.041,0,0,0-4.4.051,2.35,2.35,0,0,1-2.3-3.265,2.646,2.646,0,0,1,2.4-1.864,39.231,39.231,0,0,1,4.753-.1,22.214,22.214,0,0,1,10.833,3.552C1072.517,25.061,1073.575,25.985,1074.688,26.832Z" transform="translate(-930.05 -12.676)"/><path class="a" d="M1065.61,52.048a14.5,14.5,0,0,1,3.708,13.061,2.737,2.737,0,0,1-1.9,2.277,2.339,2.339,0,0,1-2.638-.627,2.406,2.406,0,0,1-.529-2.142,10.4,10.4,0,0,0-.127-4.612,9.014,9.014,0,0,0-3.708-5.278A9.787,9.787,0,0,0,1053,53.276a2.348,2.348,0,0,1-2.988-2.541,2.74,2.74,0,0,1,1.946-2.392,13.765,13.765,0,0,1,5.192-.324,14.29,14.29,0,0,1,7.148,2.871C1064.737,51.225,1065.131,51.624,1065.61,52.048Z" transform="translate(-927.953 -30.585)"/></g><rect class="a" width="13.598" height="4.359" rx="2.179" transform="translate(758.488 45.038)"/></g></svg>