<svg xmlns="http://www.w3.org/2000/svg" width="219.952" height="42.486" viewBox="0 0 219.952 42.486"><defs><style>.a{fill:#3e3e3e;}</style></defs><g transform="translate(-9.848 -7.612)"><path class="a" d="M19.568,7.92a1.2,1.2,0,0,0-.308.8c0,.4,13.068,33.5,13.793,34.928a1.284,1.284,0,0,0,1.662.539c.477-.2.678-.662,7.4-17.5,3.8-9.513,6.942-17.533,6.973-17.81a.962.962,0,0,0-.293-.893l-.338-.369h-14.3c-14.085,0-14.286,0-14.593.308ZM45.89,10.152c0,.108-11.529,29.017-11.652,29.217-.077.138-11.745-28.832-11.745-29.186,0-.061,5.264-.108,11.7-.108s11.7.031,11.7.077Zm0,0" transform="translate(-5.102)"/><path class="a" d="M134.184,8.256a1.292,1.292,0,0,0,.077,1.77l.369.385h7.728l.369-.385a1.2,1.2,0,0,0,.061-1.677l-.308-.4h-4c-3.786,0-4,.016-4.295.308Zm0,0" transform="translate(-67.227 -0.182)"/><path class="a" d="M10.171,20.44c-.323.416-.323.446-.323,17.857,0,12.453.046,17.548.169,17.81a1.2,1.2,0,0,0,2,.277l.446-.462L12.434,38.28l-.046-17.656-.369-.293a1.381,1.381,0,0,0-1.847.108Zm0,0" transform="translate(0 -6.731)"/><path class="a" d="M88.554,20.435l-.385.369V55.947l.446.446a1.056,1.056,0,0,0,1.725,0l.446-.446V20.8l-.385-.369a1.3,1.3,0,0,0-1.847,0Zm0,0" transform="translate(-42.454 -6.742)"/><path class="a" d="M125.556,20.158a1.306,1.306,0,0,0-.4.477c-.693,1.4-13.793,34.543-13.793,34.927a1.592,1.592,0,0,0,.292.832l.293.37,13.992.046c7.682.015,14.131,0,14.332-.046a1.273,1.273,0,0,0,.954-1.108c0-.555-13.67-34.82-14.054-35.267a1.677,1.677,0,0,0-1.616-.231Zm6.588,19.288c3.156,7.912,5.772,14.516,5.819,14.654.061.261-.569.277-11.652.277-9.1,0-11.715-.046-11.715-.185,0-.354,11.622-29.355,11.715-29.247.061.061,2.678,6.589,5.834,14.5Zm0,0" transform="translate(-55.027 -6.742)"/><path class="a" d="M192.147,20.344l-.369.293-.046,17.656L191.7,55.934l.446.462a1.513,1.513,0,0,0,.77.446,1.6,1.6,0,0,0,1.2-.6c.062-.139.154-7.22.2-15.733l.077-15.485,12.392,15.532c6.819,8.559,12.592,15.717,12.838,15.932a1.18,1.18,0,0,0,1.755-.2l.338-.385v-35.1l-.385-.369a1.359,1.359,0,0,0-1.786-.093l-.369.293L219.1,36.2l-.077,15.563L206.478,36.045c-6.9-8.635-12.653-15.778-12.807-15.855a1.548,1.548,0,0,0-1.525.154Zm0,0" transform="translate(-98.575 -6.744)"/><path class="a" d="M269.313,20.358a1.293,1.293,0,0,0,.077,1.77l.369.385h27.586l.369-.385a1.2,1.2,0,0,0,.031-1.74l-.354-.338H283.506c-13.685,0-13.885,0-14.193.308Zm0,0" transform="translate(-140.474 -6.742)"/><path class="a" d="M350.668,20.347c-.308.308-.308.508-.308,12.422,0,13.224,0,13.147.893,15.27a14.337,14.337,0,0,0,7.557,7.4c9.005,3.864,19.581-1.138,21.2-10.006.154-.908.2-3.694.215-12.869,0-11.622,0-11.73-.323-12.13a1.381,1.381,0,0,0-1.847-.108l-.369.293-.077,12.3c-.093,13.67-.016,12.777-1.17,14.994a12.388,12.388,0,0,1-7.527,5.849c-6.019,1.647-12.438-.97-14.932-6.1-1.17-2.37-1.154-2.216-1.154-15.363V20.7l-.354-.323a1.4,1.4,0,0,0-1.8-.031Zm0,0" transform="translate(-184.577 -6.731)"/><path class="a" d="M438.848,20.311c-.308.277-13.993,34.3-14.147,35.174-.046.324.046.539.4.893l.462.462h28.231l.462-.462c.354-.354.446-.569.4-.893-.154-.893-13.839-34.9-14.147-35.174a1.451,1.451,0,0,0-1.662,0Zm6.757,19.257c3.217,8.066,5.849,14.7,5.849,14.731,0,.046-5.311.077-11.792.077-11.16,0-11.791-.016-11.7-.277.739-1.939,11.684-29.278,11.73-29.247.031.031,2.678,6.65,5.911,14.716Zm0,0" transform="translate(-224.868 -6.742)"/><path class="a" d="M298.307,31.184l-.385.369V46.561c0,10.668.046,15.117.169,15.379a1.2,1.2,0,0,0,2,.277l.446-.446V46.808c0-15.886.016-15.64-.693-15.916a1.461,1.461,0,0,0-1.539.292Zm0,0" transform="translate(-156.152 -12.565)"/></g></svg>