<svg xmlns="http://www.w3.org/2000/svg" width="173.797" height="41.533" viewBox="0 0 173.797 41.533"><defs><style>.a{fill:#3e3e3e;}</style></defs><g transform="translate(-7.177 -6.472)"><path class="a" d="M28.452,11.087v-2.5H7.177V48.553H28.452v-2.5H9.68V29.712H28.452v-2.5H9.68V11.087Z" transform="translate(0 -1.356)"/><path class="a" d="M106.4,8.584h2.659L122.2,42.556,135.579,8.584h2.581L122.282,49.361Z" transform="translate(-63.717 -1.356)"/><rect class="a" width="2.659" height="39.916" transform="translate(89.539 7.228)"/><g transform="translate(107.45 6.472)"><path class="a" d="M312.4,29.685v-.008h0L303.252,6.472l-1.425,3.652-7.633,19.553h0l-6.819,17.467h2.581c.136-.306,2.881-7.363,5.944-15.252h14.584l6.065,15.252h2.738Zm-15.644-.008c2.407-6.2,4.878-12.572,6.342-16.348l6.5,16.348Z" transform="translate(-287.374 -6.472)"/></g><path class="a" d="M443.842,8.688h-2.659v34.7L419.162,8.584l-.165.1h-2.452V48.5h2.5V13.085l22.135,34.989V48.5h.27l0,.006.009-.006h2.377Z" transform="translate(-262.869 -1.356)"/></g></svg>