<svg xmlns="http://www.w3.org/2000/svg" width="185.142" height="63.203" viewBox="0 0 185.142 63.203"><defs><style>.a{fill:#3e3e3e;}</style></defs><g transform="translate(-18.645 -10.021)"><g transform="translate(76.411 64.715)"><path class="a" d="M166.162,158.35v-3.881a2.49,2.49,0,0,0-.214-1.228.842.842,0,0,0-.772-.339,1.037,1.037,0,0,0-.906.5,2.508,2.508,0,0,0-.334,1.4v3.548h-.891v-4.815q0-1.07-.029-1.307h.845c0,.019.007.069.01.153s.008.178.012.285.011.31.018.608h.015a2.09,2.09,0,0,1,.663-.905,1.575,1.575,0,0,1,.911-.254,1.538,1.538,0,0,1,.969.277,1.5,1.5,0,0,1,.495.882h.015a2.083,2.083,0,0,1,.675-.888,1.651,1.651,0,0,1,.958-.271,1.376,1.376,0,0,1,1.188.5,2.84,2.84,0,0,1,.371,1.652v4.079h-.887v-3.881a2.481,2.481,0,0,0-.214-1.228.84.84,0,0,0-.772-.339,1.033,1.033,0,0,0-.913.495,2.547,2.547,0,0,0-.327,1.406v3.548Z" transform="translate(-163.015 -149.954)"/><path class="a" d="M188.434,155.283a3.821,3.821,0,0,1-.622,2.393,2.167,2.167,0,0,1-1.807.786,2.073,2.073,0,0,1-1.783-.817,3.938,3.938,0,0,1-.6-2.362q0-3.169,2.415-3.168a2.128,2.128,0,0,1,1.817.772A3.989,3.989,0,0,1,188.434,155.283Zm-.941,0a3.853,3.853,0,0,0-.331-1.842,1.18,1.18,0,0,0-1.113-.575,1.226,1.226,0,0,0-1.138.585,3.677,3.677,0,0,0-.351,1.831,3.764,3.764,0,0,0,.347,1.819,1.162,1.162,0,0,0,1.087.609,1.231,1.231,0,0,0,1.153-.589A3.751,3.751,0,0,0,187.494,155.283Z" transform="translate(-175.375 -149.954)"/><path class="a" d="M201.452,154.125a1.743,1.743,0,0,1-.66.843,1.9,1.9,0,0,1-1.018.254,1.636,1.636,0,0,1-1.5-.781,4.6,4.6,0,0,1-.48-2.365q0-3.2,1.981-3.2a1.9,1.9,0,0,1,1.02.254,1.76,1.76,0,0,1,.657.809h.01l-.01-.684v-2.54h.9v7.135q0,.956.029,1.262h-.856q-.014-.091-.032-.419c-.012-.218-.017-.407-.017-.565Zm-2.718-2.082a4.13,4.13,0,0,0,.3,1.839,1.02,1.02,0,0,0,.971.555,1.177,1.177,0,0,0,1.1-.6,3.873,3.873,0,0,0,.344-1.861,3.546,3.546,0,0,0-.344-1.783,1.184,1.184,0,0,0-1.095-.566,1.026,1.026,0,0,0-.979.569A4.184,4.184,0,0,0,198.734,152.043Z" transform="translate(-183.877 -146.713)"/><path class="a" d="M213.606,158.463a1.5,1.5,0,0,1-1.219-.486,2.015,2.015,0,0,1-.409-1.336,1.889,1.889,0,0,1,.551-1.46,2.678,2.678,0,0,1,1.775-.543l1.21-.022v-.335a1.633,1.633,0,0,0-.279-1.069,1.1,1.1,0,0,0-.876-.323,1.342,1.342,0,0,0-.876.233,1.074,1.074,0,0,0-.329.741l-.936-.1q.229-1.652,2.161-1.652a2.036,2.036,0,0,1,1.528.529,2.112,2.112,0,0,1,.514,1.53v2.636a1.7,1.7,0,0,0,.1.682.4.4,0,0,0,.4.229,1.293,1.293,0,0,0,.294-.04v.633a2.687,2.687,0,0,1-.692.091.854.854,0,0,1-.724-.3,1.671,1.671,0,0,1-.257-.931h-.03a2.379,2.379,0,0,1-.8.993A2.017,2.017,0,0,1,213.606,158.463Zm.2-.764a1.549,1.549,0,0,0,.877-.254,1.76,1.76,0,0,0,.605-.7,2.02,2.02,0,0,0,.222-.913v-.5l-.98.022a2.749,2.749,0,0,0-.959.147,1.038,1.038,0,0,0-.5.419,1.4,1.4,0,0,0-.174.741,1.131,1.131,0,0,0,.237.769A.843.843,0,0,0,213.81,157.7Z" transform="translate(-192.387 -149.954)"/><path class="a" d="M234.164,149.745v5.381h-.9v-5.381h-.756V149h.756v-.69a1.809,1.809,0,0,1,.324-1.205,1.252,1.252,0,0,1,.991-.368,2.53,2.53,0,0,1,.633.068v.775a2.051,2.051,0,0,0-.4-.045.594.594,0,0,0-.5.2,1.219,1.219,0,0,0-.154.719V149h1.051v.741Z" transform="translate(-204.704 -146.729)"/><path class="a" d="M241.253,155.5a2.911,2.911,0,0,0,.383,1.624,1.265,1.265,0,0,0,1.121.571,1.508,1.508,0,0,0,.933-.266,1.312,1.312,0,0,0,.475-.673l.787.255a2.067,2.067,0,0,1-2.2,1.448,2.159,2.159,0,0,1-1.82-.809,3.892,3.892,0,0,1-.625-2.4,3.742,3.742,0,0,1,.625-2.325,2.122,2.122,0,0,1,1.785-.809q2.376,0,2.375,3.253v.136Zm2.917-.781a2.565,2.565,0,0,0-.433-1.412,1.369,1.369,0,0,0-2.063.051,2.32,2.32,0,0,0-.411,1.361Z" transform="translate(-209.384 -149.954)"/><path class="a" d="M258.242,158.35v-3.881a2.485,2.485,0,0,0-.214-1.228.84.84,0,0,0-.772-.339,1.037,1.037,0,0,0-.906.5,2.508,2.508,0,0,0-.334,1.4v3.548h-.891v-4.815q0-1.07-.03-1.307h.846c0,.019.007.069.01.153s.008.178.012.285.011.31.018.608H256a2.089,2.089,0,0,1,.662-.905,1.577,1.577,0,0,1,.911-.254,1.538,1.538,0,0,1,.969.277,1.5,1.5,0,0,1,.495.882h.015a2.083,2.083,0,0,1,.675-.888,1.651,1.651,0,0,1,.958-.271,1.377,1.377,0,0,1,1.188.5,2.84,2.84,0,0,1,.371,1.652v4.079h-.887v-3.881a2.481,2.481,0,0,0-.214-1.228.84.84,0,0,0-.772-.339,1.033,1.033,0,0,0-.913.495,2.547,2.547,0,0,0-.327,1.406v3.548Z" transform="translate(-218.252 -149.954)"/><path class="a" d="M276.654,155.5a2.911,2.911,0,0,0,.383,1.624,1.266,1.266,0,0,0,1.121.571,1.508,1.508,0,0,0,.933-.266,1.309,1.309,0,0,0,.475-.673l.787.255a2.067,2.067,0,0,1-2.2,1.448,2.158,2.158,0,0,1-1.82-.809,3.892,3.892,0,0,1-.625-2.4,3.742,3.742,0,0,1,.625-2.325,2.121,2.121,0,0,1,1.785-.809q2.375,0,2.374,3.253v.136Zm2.917-.781a2.565,2.565,0,0,0-.433-1.412,1.369,1.369,0,0,0-2.063.051,2.319,2.319,0,0,0-.411,1.361Z" transform="translate(-230.62 -149.954)"/><path class="a" d="M293.927,158.35v-3.881a3.289,3.289,0,0,0-.1-.939.836.836,0,0,0-.334-.481,1.254,1.254,0,0,0-.673-.147,1.2,1.2,0,0,0-1.02.5,2.307,2.307,0,0,0-.373,1.4v3.548h-.9v-4.815q0-1.07-.029-1.307h.845c0,.019.007.069.01.153s.008.178.013.285.011.31.017.608h.015a2.163,2.163,0,0,1,.714-.9,1.823,1.823,0,0,1,1.009-.262,1.58,1.58,0,0,1,1.3.5,2.619,2.619,0,0,1,.411,1.655v4.079Z" transform="translate(-239.488 -149.954)"/><path class="a" d="M304.682,147.686v-.973h.9v.973Zm0,7.424v-6.122h.9v6.122Z" transform="translate(-247.998 -146.713)"/><path class="a" d="M313.763,158.35v-3.881a3.289,3.289,0,0,0-.1-.939.836.836,0,0,0-.334-.481,1.254,1.254,0,0,0-.673-.147,1.2,1.2,0,0,0-1.02.5,2.307,2.307,0,0,0-.373,1.4v3.548h-.9v-4.815q0-1.07-.029-1.307h.845c0,.019.007.069.01.153s.008.178.012.285.011.31.018.608h.015a2.163,2.163,0,0,1,.714-.9,1.823,1.823,0,0,1,1.009-.262,1.58,1.58,0,0,1,1.3.5,2.619,2.619,0,0,1,.411,1.655v4.079Z" transform="translate(-251.387 -149.954)"/><path class="a" d="M325.523,158.463a1.5,1.5,0,0,1-1.22-.486,2.017,2.017,0,0,1-.408-1.336,1.889,1.889,0,0,1,.551-1.46,2.676,2.676,0,0,1,1.775-.543l1.209-.022v-.335a1.633,1.633,0,0,0-.279-1.069,1.1,1.1,0,0,0-.876-.323,1.342,1.342,0,0,0-.876.233,1.074,1.074,0,0,0-.329.741l-.936-.1q.229-1.652,2.161-1.652a2.036,2.036,0,0,1,1.528.529,2.112,2.112,0,0,1,.513,1.53v2.636a1.7,1.7,0,0,0,.1.682.4.4,0,0,0,.4.229,1.287,1.287,0,0,0,.293-.04v.633a2.682,2.682,0,0,1-.691.091.855.855,0,0,1-.725-.3,1.675,1.675,0,0,1-.257-.931h-.03a2.375,2.375,0,0,1-.8.993A2.017,2.017,0,0,1,325.523,158.463Zm.2-.764a1.55,1.55,0,0,0,.877-.254,1.756,1.756,0,0,0,.6-.7,2.019,2.019,0,0,0,.222-.913v-.5l-.98.022a2.749,2.749,0,0,0-.958.147,1.038,1.038,0,0,0-.5.419,1.4,1.4,0,0,0-.174.741,1.133,1.133,0,0,0,.236.769A.844.844,0,0,0,325.727,157.7Z" transform="translate(-259.523 -149.954)"/></g><g transform="translate(18.645 10.021)"><g transform="translate(0)"><path class="a" d="M32.5,11.935l.142,3.748-3.937.728V37.174a11.833,11.833,0,0,0,2.135,7.442,6.985,6.985,0,0,0,5.835,2.75,7.121,7.121,0,0,0,5.907-2.75,11.694,11.694,0,0,0,2.183-7.442V16.411l-3.938-.728.1-3.748H53.753l.1,3.748-4.436.728V37.067c0,4.557-1.186,8.143-3.535,10.759s-5.693,3.91-10.035,3.91q-6.013,0-9.37-3.722c-2.229-2.481-3.344-6.04-3.368-10.651V16.385l-4.459-.729.142-3.748Z" transform="translate(-18.645 -11.153)"/><path class="a" d="M122.194,11.908l11.718,29.554,11.22-29.554h8.943l.1,3.748-4.389.729,2.3,30.2,4.958.728-.119,3.748H142.642l-.1-3.748,3.891-.728-1.59-21.356L134.79,51.061h-2.538L121.72,25.148,120.06,46.585l3.89.728-.142,3.748H110.926l-.142-3.748,4.6-.728,2.253-30.2-4.436-.729.1-3.748Z" transform="translate(-73.917 -11.153)"/><path class="a" d="M277.365,10.021a14.056,14.056,0,0,1,6.594,1.618,16.815,16.815,0,0,1,5.314,4.314A20.868,20.868,0,0,1,292.76,22.4a24.629,24.629,0,0,1-.024,15.748,20.827,20.827,0,0,1-3.558,6.471,17.164,17.164,0,0,1-5.337,4.315,13.938,13.938,0,0,1-6.548,1.618q-1.316,0-5.551-.323T261.78,49.9l-.1-3.748,4.413-.728v-30.2l-4.413-.729.1-3.748q5.693,0,9.963-.324c2.847-.216,4.7-.323,5.527-.323Zm-.1,4.449a24.8,24.8,0,0,0-5.527.728V45.4a28.267,28.267,0,0,0,5.551.728c3.06,0,5.575-1.456,7.52-4.395a19.832,19.832,0,0,0,2.918-11.163,24.32,24.32,0,0,0-1.305-8.225,13.69,13.69,0,0,0-3.7-5.8,7.947,7.947,0,0,0-5.408-2.1Z" transform="translate(-164.439 -10.021)"/><path class="a" d="M364,11.908l.142,3.748-4.7.729v30.2l4.7.728L364,51.061H349.3l-.1-3.748,4.65-.728v-30.2l-4.65-.729.1-3.748Z" transform="translate(-216.937 -11.153)"/><path class="a" d="M422.2,46.585l4.673.728-.095,3.748H412.186l-.094-3.748,4.033-.728-2.42-6.9H402.531l-2.419,6.9,3.582.728-.142,3.748H390.67l-.142-3.748,4.673-.728,12.241-34.677H410ZM404.192,35.1h7.9l-3.985-11.919Z" transform="translate(-241.728 -11.153)"/></g></g></g></svg>