<svg xmlns="http://www.w3.org/2000/svg" width="129.459" height="82.706" viewBox="0 0 129.459 82.706"><defs><style>.a,.b{fill:#3e3e3e;fill-rule:evenodd;}.a{stroke:#3e3e3e;stroke-miterlimit:22.926;stroke-width:0.216px;}</style></defs><g transform="translate(-6.568 -10.555)"><path class="a" d="M169.811,213.531a27.688,27.688,0,0,0-5.442,5.406q-2.176,2.922-2.182,4.92c0,.21.084.312.252.312.509,0,1.474-1.031,2.877-3.1s2.9-4.585,4.5-7.534Zm4.285-8.954a13.126,13.126,0,0,0,1.157-4,1.45,1.45,0,0,1,.282-.9.764.764,0,0,1,.6-.366c.4,0,.594.342.594,1.019q0,3.444-4.25,11.2,2.814-1.4,6.168-2.931t6.6-2.967c2.164-.965,3.662-1.63,4.477-2a.859.859,0,0,1,.282-.108c.12,0,.174.084.174.246,0,.12-.078.21-.246.282-.839.4-2.409,1.085-4.7,2.056s-4.585,1.99-6.881,3.051-4.393,2.116-6.287,3.146a72.181,72.181,0,0,1-5.55,8.691q-2.841,3.776-4,3.776c-.492,0-.737-.306-.737-.911q0-5.412,8.643-11.418,1.51-2.8,2.949-6.005a7.879,7.879,0,0,1-6.113,2.985,3.71,3.71,0,0,1-3.057-1.259,5.242,5.242,0,0,1-1.013-3.374,12.717,12.717,0,0,1,1.067-4.813,20.96,20.96,0,0,1,2.829-4.861,14.894,14.894,0,0,1,4.405-3.794,10.808,10.808,0,0,1,5.46-1.528q2.392,0,2.391,2.212a4.567,4.567,0,0,1-.389,1.546c-.258.653-.569.983-.947.983a.655.655,0,0,1-.665-.665,4.724,4.724,0,0,1,.366-.9,3.376,3.376,0,0,0,.371-1.384c0-.725-.431-1.091-1.3-1.091a9.437,9.437,0,0,0-4.057.917,10.726,10.726,0,0,0-3.351,2.421,18.059,18.059,0,0,0-2.457,3.351,16.46,16.46,0,0,0-1.582,3.74,13.342,13.342,0,0,0-.527,3.584,4.692,4.692,0,0,0,.965,3.093,3.6,3.6,0,0,0,2.931,1.156,4.579,4.579,0,0,0,2.673-1.121,12.192,12.192,0,0,0,2.739-3.057Zm20.54,7.762q-8.775,5.718-8.781,11.519c0,.605.252.911.743.911q1.223,0,4.5-4.094a65.017,65.017,0,0,0,5.9-8.792q3.686-2,10.273-4.885t6.725-2.949c.162-.072.245-.162.245-.282,0-.162-.06-.246-.174-.246a1.045,1.045,0,0,0-.246.108l-6.761,3q-6.06,2.679-9.68,4.477a38.585,38.585,0,0,0,1.69-3.512,8.4,8.4,0,0,1,.42-.917c.234-.467.432-.9.6-1.295a2.841,2.841,0,0,0,.246-.809c0-.564-.354-.845-1.055-.845-.144,0-.27.258-.389.773-.114.563-.743,1.181-1.876,1.864a5.96,5.96,0,0,1-2.865,1.019c-.371,0-.557-.228-.557-.671a6.5,6.5,0,0,1,.4-1.822,9.107,9.107,0,0,0,.4-1.409c0-.564-.42-.839-1.265-.839a8.557,8.557,0,0,0-3.4.983c-.162.066-.246.162-.246.276,0,.144.06.216.174.216a.537.537,0,0,0,.246-.072,3.179,3.179,0,0,0,.426-.192c.258-.132.5-.246.719-.354a6.72,6.72,0,0,1,.791-.3,2.771,2.771,0,0,1,.767-.138c.306,0,.461.234.461.7a5.748,5.748,0,0,1-.473,1.81,5.7,5.7,0,0,0-.48,1.666c0,.491.438.737,1.3.737a7.431,7.431,0,0,0,2.391-.473,8.555,8.555,0,0,0,2.385-1.247c-.282.635-.443.995-.492,1.091q-1.51,3.083-2.319,4.531l-.737.456Zm.18.527a26.967,26.967,0,0,0-6.042,5.67q-2.463,3.173-2.457,5.322c0,.21.066.312.21.312.563,0,1.66-1.139,3.3-3.423a89.694,89.694,0,0,0,4.987-7.881Zm36.6-9.452a1.3,1.3,0,0,1,1.211.791,5.069,5.069,0,0,1,.509,1.756,3.412,3.412,0,0,0,.7,1.756,2.1,2.1,0,0,0,1.792.791,13.988,13.988,0,0,0,3.842-.683,34.39,34.39,0,0,0,4.058-1.456q1.753-.773,3.7-1.708c1.3-.617,2.044-.965,2.23-1.031a1.177,1.177,0,0,1,.246-.108c.12,0,.18.084.18.246,0,.12-.084.21-.246.282q-9.485,4.738-13.767,4.741a6.737,6.737,0,0,1-2.266-.336,2.934,2.934,0,0,1-1.336-.839,5.337,5.337,0,0,1-1.019-2.212,2.265,2.265,0,0,0-.3-.845.662.662,0,0,0-.594-.336,4.749,4.749,0,0,0-2.685.917,15.836,15.836,0,0,0-2.284,1.822c-.623.611-1.037.917-1.247.917s-.354-.162-.426-.473a3.973,3.973,0,0,1-.066-1.055,2,2,0,0,0-.21-1.055.877.877,0,0,0-.845-.473,3.844,3.844,0,0,0-1.846.527,7.643,7.643,0,0,0-1.612,1.139c-.438.414-.827.791-1.181,1.145s-.557.527-.629.527c-.821,0-1.229-.354-1.229-1.055a5.738,5.738,0,0,1,.6-1.966,6.232,6.232,0,0,0,.594-1.792c0-.21-.138-.317-.42-.317a2.978,2.978,0,0,0-.755.138c-.318.1-.605.2-.863.3s-.521.222-.791.354-.426.2-.474.228a.537.537,0,0,1-.245.072c-.114,0-.174-.072-.174-.216,0-.114.084-.21.246-.276a10.775,10.775,0,0,1,3.686-1.019c.8,0,1.2.234,1.2.7a5.9,5.9,0,0,1-.318.791c-.21.479-.425,1.013-.635,1.594a4.347,4.347,0,0,0-.312,1.265c0,.21.078.318.246.318a4.905,4.905,0,0,0,.947-.863,12.845,12.845,0,0,1,2.23-1.738,5.3,5.3,0,0,1,2.859-.875,1.134,1.134,0,0,1,1.181.647,3.252,3.252,0,0,1,.246,1.3c-.012.432.06.653.228.653a3.59,3.59,0,0,0,1.055-.737,13.367,13.367,0,0,1,2.247-1.5A5.612,5.612,0,0,1,231.413,203.413Z" transform="translate(-113.966 -131.615)"/><path class="b" d="M38.433,11.955a1.218,1.218,0,0,1-1.356,1.4H9.279V36.848H31.235a1.218,1.218,0,0,1,1.355,1.4,1.218,1.218,0,0,1-1.355,1.4H9.279V64.406a1.2,1.2,0,0,1-1.356,1.355,1.2,1.2,0,0,1-1.355-1.355V11.91a1.2,1.2,0,0,1,1.355-1.355H37.077a1.218,1.218,0,0,1,1.356,1.4Zm10.074,1.461c0,1.822-.964,2.741-2.891,2.741s-2.891-.919-2.891-2.741a2.77,2.77,0,0,1,.858-2.018,2.872,2.872,0,0,1,4.066,0,2.769,2.769,0,0,1,.858,2.018ZM46.971,29.439V64.406a1.355,1.355,0,0,1-2.71,0V29.439a1.355,1.355,0,1,1,2.71,0ZM92.524,11.955a1.223,1.223,0,0,1-1.37,1.4H75v51.05a1.355,1.355,0,0,1-2.711,0V13.356H56.127a1.223,1.223,0,0,1-1.37-1.4,1.218,1.218,0,0,1,1.356-1.4H91.169a1.218,1.218,0,0,1,1.355,1.4Zm31.865,37.888a15.939,15.939,0,0,1-15.948,15.917,15.689,15.689,0,0,1-8-2.153,15.947,15.947,0,0,1-5.858-5.813,1.591,1.591,0,0,1-.2-.738c0-.888.482-1.325,1.446-1.325a1.429,1.429,0,0,1,1.129.693c.256.406.678,1.024,1.28,1.852a13.291,13.291,0,0,0,23.432-8.508,13.291,13.291,0,0,0-13.222-13.207,12.527,12.527,0,0,1-9.246-3.825,12.512,12.512,0,0,1-3.825-9.171A12.507,12.507,0,0,1,99.2,14.38a12.541,12.541,0,0,1,9.216-3.825,12.284,12.284,0,0,1,11.234,6.46,1.374,1.374,0,0,1,.226.753c0,.874-.482,1.325-1.446,1.325-.331,0-.918-.5-1.777-1.461a13.914,13.914,0,0,0-2.967-2.771,9.336,9.336,0,0,0-5.286-1.506,9.927,9.927,0,0,0-7.288,3.027A9.952,9.952,0,0,0,98.1,23.641a10.308,10.308,0,0,0,10.33,10.285,15.991,15.991,0,0,1,15.963,15.917Z" transform="translate(0)"/></g></svg>