<svg xmlns="http://www.w3.org/2000/svg" width="238.564" height="93.801" viewBox="0 0 238.564 93.801"><defs><style>.a{fill:#3e3e3e;}</style></defs><g transform="translate(-311 -4009)"><g transform="translate(311 4009)"><path class="a" d="M49.908,112.337a58.681,58.681,0,0,1,6.271.041,6.688,6.688,0,0,1,6.155,5.656,12.522,12.522,0,0,1-.188,6.485,7.284,7.284,0,0,1-7.375,5.289c-1.356.015-2.713-.029-4.068.017-.626.021-.811-.157-.808-.794.024-5.337.014-10.673.014-16.01Zm2.3,1.632v13.987c.952,0,1.852.063,2.74-.012a5.261,5.261,0,0,0,5.063-4.281,10.858,10.858,0,0,0-.067-5.7,4.815,4.815,0,0,0-3.85-3.7A33.326,33.326,0,0,0,52.207,113.969Z" transform="translate(-28.269 -62.796)"/><g transform="translate(0 0)"><path class="a" d="M393.617,119.994c-.02,3.027-.515,5.319-2.117,7.256a7.129,7.129,0,0,1-11.484-.913,11.59,11.59,0,0,1-1.413-6.761,10.125,10.125,0,0,1,1.148-4.337,6.758,6.758,0,0,1,6.631-3.739,6.859,6.859,0,0,1,6.331,4.348A9.8,9.8,0,0,1,393.617,119.994Zm-2.345.538a8.453,8.453,0,0,0-1.486-5.264,4.667,4.667,0,0,0-7.212-.235,7.311,7.311,0,0,0-1.626,4.276,9.833,9.833,0,0,0,1.1,6.083,4.619,4.619,0,0,0,8.158-.186A9.044,9.044,0,0,0,391.271,120.532Z" transform="translate(-196.544 -62.4)"/><path class="a" d="M315.537,120.535a10.075,10.075,0,0,1-1.9,6.415,7.086,7.086,0,0,1-11.474-.3c-2.291-3.23-2.223-9.253.141-12.422a7.223,7.223,0,0,1,11.676.368A10.427,10.427,0,0,1,315.537,120.535Zm-2.177-.042a27.808,27.808,0,0,0-.729-3.5,4.682,4.682,0,0,0-4.188-3.537,4.358,4.358,0,0,0-4.587,2.507,9.918,9.918,0,0,0,.094,9.323,4.316,4.316,0,0,0,4.373,2.429,4.494,4.494,0,0,0,3.837-2.575A11.343,11.343,0,0,0,313.36,120.493Z" transform="translate(-156.566 -62.373)"/><path class="a" d="M437.349,129.744c-.806,0-1.521.036-2.227-.024-.191-.016-.408-.294-.527-.5-1.2-2.082-2.4-4.166-3.562-6.272a1.07,1.07,0,0,0-1.133-.652c-.78.044-1.564.011-2.411.011v7.436c-.706,0-1.351.013-2-.013-.1,0-.233-.174-.268-.292a1.872,1.872,0,0,1-.02-.522c0-5.315.013-10.63-.016-15.944,0-.679.189-.845.846-.827,1.9.051,3.806,0,5.707.047a6,6,0,0,1,3.294.962c1.651,1.12,2,2.788,1.84,4.623a4.519,4.519,0,0,1-2.929,3.944c-.989.429-.983.412-.429,1.354q1.795,3.052,3.569,6.116C437.171,129.331,437.229,129.487,437.349,129.744Zm-9.85-15.811v6.5c1.329,0,2.618.037,3.9-.019a4.394,4.394,0,0,0,1.511-.4c1.313-.57,1.819-1.6,1.733-3.35a2.441,2.441,0,0,0-1.936-2.425A19.326,19.326,0,0,0,427.5,113.933Z" transform="translate(-220.409 -62.732)"/><path class="a" d="M91.732,112.172c.659,0,1.224.012,1.788,0,.347-.01.463.143.458.47-.011.678,0,1.356,0,2.034.009,2.953-.012,5.905.042,8.857a4.954,4.954,0,0,0,1.306,3.545,4,4,0,0,0,6.28-1.094,8.091,8.091,0,0,0,.611-3.458c.012-3.149,0-6.3,0-9.448,0-.9,0-.9.934-.9h1.184c.018.272.047.5.046.731-.015,3.52.006,7.041-.068,10.56a6.8,6.8,0,0,1-2.119,5.255,6.407,6.407,0,0,1-5.251,1.276c-3.211-.364-4.8-2.571-5.032-5.474-.235-2.956-.142-5.939-.182-8.91C91.719,114.5,91.732,113.384,91.732,112.172Z" transform="translate(-49.686 -62.745)"/><path class="a" d="M210.7,127.811h6.069c.241,0,.481,0,.722,0,1.536.024,1.313-.224,1.355,1.366.013.481-.181.584-.618.58-2.12-.018-4.241-.008-6.362-.008-.984,0-1.968-.01-2.952.005-.347,0-.523-.083-.522-.471q.013-8.4.012-16.792a1.667,1.667,0,0,1,.064-.3c.219-.011.43-.032.643-.032,2.908,0,5.816.015,8.723-.015.582-.006.756.156.734.735-.051,1.336.11,1.119-1.111,1.125-2.228.011-4.457,0-6.746,0v5.521h1.016c1.662,0,3.323.01,4.985-.006.413,0,.607.114.576.558s-.006.865-.006,1.368H210.7Z" transform="translate(-109.417 -62.735)"/><path class="a" d="M275.16,113.669l-1.111,1.345a2.263,2.263,0,0,1-.353-.237,5,5,0,0,0-8.245,2.266,10.246,10.246,0,0,0,.288,7.727,5,5,0,0,0,8.058,1.579c.172-.164.353-.32.611-.552l1.2,1.35a6.606,6.606,0,0,1-3.777,2.381,7.414,7.414,0,0,1-9-6.2,11.654,11.654,0,0,1,1.013-8.081,7.31,7.31,0,0,1,8.274-3.553A6.431,6.431,0,0,1,275.16,113.669Z" transform="translate(-137.14 -62.378)"/><path class="a" d="M179.423,113.637l-1.157,1.38a2.869,2.869,0,0,1-.355-.26A5,5,0,0,0,169.7,117a10.2,10.2,0,0,0,.284,7.786,5,5,0,0,0,8.066,1.542c.17-.164.352-.315.591-.527a14.874,14.874,0,0,1,1,1.134.574.574,0,0,1-.085.537,6.555,6.555,0,0,1-4.473,2.2,7.373,7.373,0,0,1-7.984-6.245,11.512,11.512,0,0,1,1-8.207,7.287,7.287,0,0,1,8.282-3.525A6.479,6.479,0,0,1,179.423,113.637Z" transform="translate(-88.105 -62.374)"/><path class="a" d="M135.571,129.8v-17.55h2.18v15.612h.789c2.076,0,4.152.016,6.228-.01.547-.006.723.173.706.715-.046,1.47.152,1.223-1.2,1.23-2.644.013-5.288,0-7.932,0Z" transform="translate(-72.133 -62.789)"/><path class="a" d="M349.4,127.8h6.4c1.364,0,1.569.241,1.29,1.595a.566.566,0,0,1-.427.328c-3.016.02-6.032.009-9.049.02-.482,0-.444-.3-.444-.611q0-3.312,0-6.623c0-3.213.014-6.426-.013-9.639,0-.575.147-.79.733-.73.473.049.956.01,1.508.01Z" transform="translate(-180.462 -62.729)"/><g transform="translate(99.748)"><path class="a" d="M260.291,40.233l-3.57,9.312L249.445,43.7Z" transform="translate(-230.182 -25.917)"/><path class="a" d="M224.921,40.462l10.618,3.349L228.258,49.7c-1.158-3.077-2.3-6.1-3.435-9.127Z" transform="translate(-217.576 -26.034)"/><path class="a" d="M239.777,60l-7.164-5.629,7.164-5.8Z" transform="translate(-221.564 -30.186)"/><path class="a" d="M248.9,59.988V48.525l7.152,5.816Z" transform="translate(-229.905 -30.162)"/><path class="a" d="M256.1,26.5l4.434,6.018-10.6,3.4-.063-.082Z" transform="translate(-230.402 -18.885)"/><path class="a" d="M235.163,35.986l-10.479-3.4,4.356-5.912,6.2,9.2Z" transform="translate(-217.505 -18.975)"/><path class="a" d="M275.732,37.994c-.387-.922-.737-1.763-1.093-2.6-.225-.531-.452-1.061-.69-1.587a2.39,2.39,0,0,1-.141-1.687c.456-1.589.924-3.174,1.39-4.76.031-.107.08-.209.144-.376l4.7,4.266Z" transform="translate(-242.607 -19.132)"/><path class="a" d="M214.561,27.408c.355,1.2.695,2.322,1.019,3.45a14.241,14.241,0,0,1,.506,1.991,2.611,2.611,0,0,1-.206,1.239c-.5,1.271-1.048,2.521-1.58,3.779-.028.066-.067.128-.126.239-.128-.164-.245-.29-.336-.433q-1.752-2.786-3.5-5.577c-.3-.488-.279-.693.144-1.079q1.767-1.608,3.544-3.205C214.179,27.679,214.347,27.57,214.561,27.408Z" transform="translate(-210.058 -19.351)"/><path class="a" d="M227.036,61.526l3.576,7.991-.08.086-7.616-4.315Z" transform="translate(-216.599 -36.818)"/><path class="a" d="M261.211,61.625l4.022,3.7-7.456,4.256-.083-.07Z" transform="translate(-234.405 -36.869)"/><path class="a" d="M248.742,35.452V35.09q0-2.84,0-5.679c0-.661.1-.807.717-1.01q2.408-.786,4.82-1.561c.089-.029.184-.041.388-.084l-5.813,8.727Z" transform="translate(-229.821 -19.016)"/><path class="a" d="M241.119,35.337l-5.583-8.446c.224.05.33.066.431.1q2.381.75,4.759,1.505c.5.16.583.294.583.82,0,1.316.01,2.633-.006,3.949-.008.683-.065,1.365-.1,2.048Z" transform="translate(-223.061 -19.086)"/><path class="a" d="M267.2,11.716l2.316,6.363h-5.809Z" transform="translate(-237.484 -11.317)"/><path class="a" d="M222.9,11.775l3.53,6.416h-5.76Z" transform="translate(-215.451 -11.347)"/><path class="a" d="M224.905,56.485l-4.056,3.693-1.318-7.529Z" transform="translate(-214.866 -32.274)"/><path class="a" d="M265.783,56.5l5.334-3.831-1.355,7.411Z" transform="translate(-238.546 -32.282)"/><path class="a" d="M236.892,70.615l-3.485-7.7.085-.072,6.56,5.207Z" transform="translate(-221.971 -37.492)"/><path class="a" d="M255.824,63.008l-3.438,7.621-3.148-2.507,6.523-5.161Z" transform="translate(-230.076 -37.552)"/><path class="a" d="M266.292,49.432l3.139-8.285a3.816,3.816,0,0,1,.229.4q.766,1.859,1.52,3.721c.2.506.154.651-.3.98q-2.1,1.526-4.2,3.049c-.1.071-.2.134-.305.2Z" transform="translate(-238.807 -26.385)"/><path class="a" d="M221.532,41.116l3.231,8.4-.068.049c-.323-.231-.647-.459-.967-.693q-1.809-1.316-3.616-2.636c-.446-.327-.487-.473-.277-.988C220.383,43.9,220.938,42.563,221.532,41.116Z" transform="translate(-214.96 -26.369)"/><path class="a" d="M269.842,26.418l-1.6,5.521-4.067-5.521Z" transform="translate(-237.722 -18.844)"/><path class="a" d="M222.219,31.723l-1.479-5.317,5.541-.225Z" transform="translate(-215.485 -18.723)"/><path class="a" d="M249.782,23.136c-.023-.1-.041-.132-.032-.148a24.2,24.2,0,0,1,2.291-4.133c.318-.378.709-.694,1.108-1.08l2.366,3.524Z" transform="translate(-230.337 -14.419)"/><path class="a" d="M240.476,23.236,234.828,21.4,237.086,18a4.361,4.361,0,0,1,1.554,1.555c.507.864.947,1.767,1.417,2.653.162.306.328.611.493.916Z" transform="translate(-222.698 -14.536)"/><path class="a" d="M260.167,17.762l-2.279-3.474,5.466-2.561.07.069Z" transform="translate(-234.504 -11.322)"/><path class="a" d="M226.814,11.754l5.59,2.507-2.159,3.563Z" transform="translate(-218.595 -11.336)"/><path class="a" d="M218.943,12.075l-2.164,6.2-2.524-2.2,4.627-4.041Z" transform="translate(-212.165 -11.482)"/><path class="a" d="M277.335,16.48l-2.59,2-2.1-5.872.078-.071Z" transform="translate(-242.057 -11.736)"/><path class="a" d="M211.536,21.25l2.486,2.277-4.049,3.762Z" transform="translate(-209.973 -16.198)"/><path class="a" d="M277.656,23.719l2.562-1.972,1.63,5.582-.088.073Z" transform="translate(-244.625 -16.452)"/><path class="a" d="M212.9,52.473c.783-.154,1.484-.279,2.177-.435.243-.055.3.021.343.241.29,1.611.592,3.22.889,4.83a9.583,9.583,0,0,1,.19,1.484Z" transform="translate(-211.474 -31.952)"/><path class="a" d="M279.584,52.551l-3.48,5.84-.076-.023c.085-.523.165-1.046.258-1.568.243-1.366.491-2.731.736-4.1.086-.481.288-.621.756-.524Z" transform="translate(-243.791 -32.019)"/><path class="a" d="M278.883,44.889,282.3,39.5l.1.037c-.082.468-.163.937-.248,1.4-.243,1.316-.49,2.631-.731,3.948-.088.483-.082.491-.56.4C280.224,45.166,279.58,45.03,278.883,44.889Z" transform="translate(-245.253 -25.543)"/><path class="a" d="M213.749,45.078l-2.44.49-.991-5.643.078-.044Z" transform="translate(-210.15 -25.737)"/><path class="a" d="M225.982,72.528l6.24,3.571c-.617.325-1.169.636-1.744.9-.1.046-.333-.077-.441-.185-1.178-1.182-2.342-2.38-3.514-3.567-.208-.211-.44-.4-.661-.6Z" transform="translate(-218.108 -42.451)"/><path class="a" d="M240.484,85.845l-4.441-4,1.938-1.044,2.577,4.984Z" transform="translate(-223.32 -46.689)"/><path class="a" d="M257.575,76.4l5.724-3.249.059.061c-.089.109-.17.226-.267.327-1.113,1.153-2.232,2.3-3.342,3.458a.642.642,0,0,1-.9.126C258.457,76.888,258.053,76.673,257.575,76.4Z" transform="translate(-234.344 -42.771)"/><path class="a" d="M255.446,81.984,251.134,85.9l-.071-.052c.251-.484.5-.968.752-1.451.537-1.033,1.081-2.062,1.609-3.1.122-.239.226-.317.483-.163C254.388,81.423,254.889,81.679,255.446,81.984Z" transform="translate(-231.01 -46.817)"/><path class="a" d="M244.361,78.823,241.55,77.35l2.811-2.274Z" transform="translate(-226.14 -43.755)"/><path class="a" d="M251.728,77.359l-2.75,1.472V75.113Z" transform="translate(-229.943 -43.774)"/><path class="a" d="M228.65,10.9c1.375,0,2.75-.005,4.124.01.111,0,.3.127.317.218.1.649.164,1.3.248,2.031l-4.687-2.2Z" transform="translate(-219.535 -10.898)"/><path class="a" d="M238.812,11.8l3.888,3.131c-.576.154-1.075.3-1.583.41a.556.556,0,0,1-.395-.156c-.452-.4-.889-.809-1.327-1.221a.544.544,0,0,1-.173-.237C239.085,13.124,238.962,12.516,238.812,11.8Z" transform="translate(-224.738 -11.36)"/><path class="a" d="M242.244,81.729c.763.426,1.529.846,2.285,1.285a.421.421,0,0,1,.157.315c.012,1.027.007,2.054-.082,3.116l-2.455-4.627Z" transform="translate(-226.446 -47.162)"/><path class="a" d="M251.4,81.943l-2.416,4.59c-.057-.091-.092-.12-.092-.15,0-.991-.01-1.983.013-2.974a.548.548,0,0,1,.26-.375c.677-.382,1.369-.737,2.057-1.1C251.244,81.922,251.286,81.937,251.4,81.943Z" transform="translate(-229.895 -47.265)"/><path class="a" d="M253.176,12.364a3.667,3.667,0,0,1-1.732,3.193.4.4,0,0,1-.277.08c-.491-.128-.976-.277-1.55-.445Z" transform="translate(-230.27 -11.649)"/><path class="a" d="M262.15,11.238,257.8,13.256c.173-.675.308-1.261.483-1.835a.45.45,0,0,1,.346-.222c1.17-.017,2.341-.01,3.511-.01Z" transform="translate(-234.458 -11.047)"/><path class="a" d="M248.932,19.464l1.6.512-1.6,3.152Z" transform="translate(-229.919 -15.284)"/><path class="a" d="M245.581,22.973l-1.5-2.948,1.5-.513Z" transform="translate(-227.437 -15.308)"/></g><g transform="translate(0 15.953)"><path class="a" d="M244.147,121.435H5.583V43.588H90.336V46.1H8.095v72.825H241.636V46.1H166.3V43.588h77.847Z" transform="translate(-5.583 -43.588)"/></g></g></g></g></svg>