<svg xmlns="http://www.w3.org/2000/svg" xmlns:xlink="http://www.w3.org/1999/xlink" width="129.898" height="63.227" viewBox="0 0 129.898 63.227"><defs><style>.a{fill:#3e3e3e;}.b{clip-path:url(#a);}.c{clip-path:url(#b);}</style><clipPath id="a"><path class="a" d="M107.133,51.333V48.508l26.15-33H109.391V9.885H142.7v2.356L116.071,45.549H142.7v5.784Zm-30.288,0V33.26L58.926,9.885h7.319l13.8,18.475L93.272,9.885h7.17L82.728,33.1V51.333Zm-63.346,0V9.885H41.953q3.967,0,5.711,1.9c1.163,1.259,1.744,3.307,1.744,6.118V22.75a7.454,7.454,0,0,1-1.413,4.967,6.967,6.967,0,0,1-4.457,2.089,6.563,6.563,0,0,1,4.526,2.477,9.121,9.121,0,0,1,1.55,5.623v5.288c0,2.758-.809,4.793-2.416,6.132s-4.058,2.008-7.353,2.008ZM43.389,23.219V19.042a4.072,4.072,0,0,0-.752-2.825,3.967,3.967,0,0,0-2.861-.79H19.382V26.914H39.775a3.833,3.833,0,0,0,2.827-.83A4.11,4.11,0,0,0,43.389,23.219Zm.274,17.511V37.276a6.569,6.569,0,0,0-.844-3.9A3.675,3.675,0,0,0,39.775,32.3H19.382V45.63H39.775a3.678,3.678,0,0,0,3.055-1.058A6.471,6.471,0,0,0,43.662,40.73Z" transform="translate(-13.5 -9.885)"/></clipPath><clipPath id="b"><path class="a" d="M131.423,197.948V181.983h2.171l5.446,9.653,5.315-9.653h2.152v15.965h-2.484v-9.865c0-.191.007-.433.026-.722s.045-.619.071-.985q-.218.619-.38,1.021c-.112.268-.209.485-.295.655l-4.342,7.977h-.533l-4.353-8c-.16-.3-.3-.588-.41-.856a7.617,7.617,0,0,1-.28-.779c.023.335.041.634.052.907s.015.531.015.784v9.865ZM112.87,181.983v12.963h7.654V181.983h2.686v12.2a5.281,5.281,0,0,1-.593,2.976,2.691,2.691,0,0,1-2.279.794h-7.292a2.677,2.677,0,0,1-2.264-.794,5.242,5.242,0,0,1-.6-2.976v-12.2Zm-13.6,15.965V181.983h2.686v15.965Zm-23.066,0V181.983h2.171l5.446,9.653,5.315-9.653h2.152v15.965H88.8v-9.865c0-.191.007-.433.026-.722s.045-.619.071-.985q-.218.619-.38,1.021c-.112.268-.209.485-.295.655l-4.342,7.977h-.533l-4.353-8c-.16-.3-.3-.588-.411-.856a7.684,7.684,0,0,1-.28-.779c.023.335.041.634.052.907s.015.531.015.784v9.865Zm-19.194,0V181.983H68.826v2.723H59.7v3.558h5.326v2.723H59.7v3.96h9.243v3Zm-20.269,0V181.983H46.61a2.469,2.469,0,0,1,2,.732,3.6,3.6,0,0,1,.619,2.357v3.754a3.615,3.615,0,0,1-.619,2.351,2.471,2.471,0,0,1-2,.737H45.1l5.337,6.033H46.584l-4.655-6.033H39.382v6.033Zm8.679-13.211H39.382v4.455H45.42a1.278,1.278,0,0,0,.955-.278,1.489,1.489,0,0,0,.257-.995v-1.923a1.461,1.461,0,0,0-.257-.98A1.278,1.278,0,0,0,45.42,184.737ZM17.785,197.948V181.983h9.869a2.47,2.47,0,0,1,2,.732,3.6,3.6,0,0,1,.619,2.357v3.568A3.623,3.623,0,0,1,29.653,191a2.47,2.47,0,0,1-2,.732H20.426v6.219Zm8.679-13.211H20.426v4.239h6.038a1.278,1.278,0,0,0,.955-.278,1.481,1.481,0,0,0,.257-1v-1.707a1.461,1.461,0,0,0-.257-.98A1.278,1.278,0,0,0,26.464,184.737Z" transform="translate(-17.785 -181.983)"/></clipPath></defs><g transform="translate(-13.5 -9.885)"><g transform="translate(13.5 9.885)"><g class="b" transform="translate(0)"><rect class="a" width="129.199" height="41.448" transform="translate(0 0)"/></g></g><g transform="translate(14.677 57.148)"><g class="c"><rect class="a" width="128.721" height="15.965" transform="translate(0 0)"/></g></g></g></svg>