<svg xmlns="http://www.w3.org/2000/svg" width="197.475" height="83.648" viewBox="0 0 197.475 83.648"><defs><style>.a{fill:#3e3e3e;}</style></defs><g transform="translate(-5.774 -4.548)"><g transform="translate(5.774 4.548)"><path class="a" d="M23.747,11.44A17.993,17.993,0,0,0,5.774,29.413V60.926h6.381V48.233H35.34V60.926h6.379V29.413A17.993,17.993,0,0,0,23.747,11.44ZM12.155,41.853V29.413a11.593,11.593,0,1,1,23.185,0V41.853Z" transform="translate(-5.774 -8.654)"/><path class="a" d="M135.5,30.959a14.3,14.3,0,0,0-4.237-2.494c-.279-.1-.558-.2-.841-.308l-.88-.236a14.485,14.485,0,0,0-1.967-.356c-.191-.03-.3-.03-.426-.04l-.378-.022-.381-.022-.192-.013-.181,0h-.03l-.061,0-.12,0a14.483,14.483,0,0,0-1.953.148,14.742,14.742,0,0,0-3.9,1.088,15.579,15.579,0,0,0-3.571,2.191,14.995,14.995,0,0,0-4.754,7.147,15.382,15.382,0,0,0-.489,2.247l-.083.6c-.031.222-.023.313-.035.475l-.047.872c-.008.334,0,.113,0,.2l0,.035,0,.07.006.137.012.277.03.551a8.388,8.388,0,0,0,.127,1.1,15.633,15.633,0,0,0,.476,2.158,15.015,15.015,0,0,0,4.752,7.146,15.6,15.6,0,0,0,3.573,2.19,15.135,15.135,0,0,0,1.932.684l.981.244c.33.077.719.12,1.075.172a14.153,14.153,0,0,0,1.755.134l.352.01.24-.012.479-.027c.317-.023.633-.023.945-.072a15.188,15.188,0,0,0,6.581-2.462c.427-.294.828-.6,1.207-.922v3.267h6.381V4.548H135.5Zm-.639,12.559c-.018.1-.041.215-.063.336s-.033.245-.068.4-.089.339-.14.524a8.465,8.465,0,0,1-1.136,2.488,8.85,8.85,0,0,1-2.509,2.5,9.132,9.132,0,0,1-3.92,1.377c-.183.03-.372.016-.56.03l-.285.012-.106.005-.067,0a8.446,8.446,0,0,1-1.348-.128c-.165-.038-.3-.041-.489-.09l-.57-.156a9.607,9.607,0,0,1-1.118-.42,9.191,9.191,0,0,1-2.052-1.316,9.86,9.86,0,0,1-1.656-1.869,9.573,9.573,0,0,1-1.065-2.289,9,9,0,0,1-.26-1.244,3.631,3.631,0,0,1-.069-.635l-.015-.321-.008-.16,0-.081,0-.04v-.005l.035-.745a3.593,3.593,0,0,1,.028-.4l.049-.256a9.136,9.136,0,0,1,.248-1.156,9.55,9.55,0,0,1,1.065-2.289,9.9,9.9,0,0,1,1.656-1.869,9.322,9.322,0,0,1,2.052-1.314,8.541,8.541,0,0,1,2.262-.678,8.648,8.648,0,0,1,1.15-.113l.073-.005.035,0h0l.075,0,.383.015.379.015a1.821,1.821,0,0,1,.324.026c.311.073.568.056.943.172l.523.125c.167.059.334.119.5.176a9.31,9.31,0,0,1,1.816.894,8.819,8.819,0,0,1,2.509,2.5,8.5,8.5,0,0,1,1.136,2.49,5.865,5.865,0,0,1,.218.995,4.481,4.481,0,0,1,.09.748c.018.317.03.517.034.591-.006.129-.018.367-.038.725A4.125,4.125,0,0,1,134.862,43.518Z" transform="translate(-68.441 -4.548)"/><rect class="a" width="6.379" height="28.718" transform="translate(81.607 23.851)"/><path class="a" d="M243.8,64.859v6.38h15.346L238.983,93h32.553v-6.38H253.592L273.76,64.859Z" transform="translate(-144.7 -40.476)"/><path class="a" d="M334.463,64.859v6.38h15.346L329.641,93h32.553v-6.38H344.252L364.42,64.859Z" transform="translate(-198.706 -40.476)"/><path class="a" d="M442.3,61.942v2.782c-.381-.319-.78-.63-1.208-.921a15.155,15.155,0,0,0-3.032-1.573c-.277-.1-.558-.2-.841-.308l-.878-.236a14.52,14.52,0,0,0-1.967-.356c-.193-.03-.3-.03-.427-.04l-.379-.022-.381-.022L433,61.231l-.183,0h-.029l-.061,0-.12,0a14.516,14.516,0,0,0-1.955.148,14.7,14.7,0,0,0-3.9,1.088,15.63,15.63,0,0,0-3.573,2.191,15.017,15.017,0,0,0-4.752,7.147,15.06,15.06,0,0,0-.488,2.247l-.084.6c-.032.222-.024.313-.036.475l-.047.872c-.008.334,0,.113,0,.2v.035l0,.07.006.137.014.277.029.551a8.675,8.675,0,0,0,.126,1.1,15.636,15.636,0,0,0,.478,2.158,15.022,15.022,0,0,0,4.752,7.146,15.6,15.6,0,0,0,3.573,2.19,15,15,0,0,0,1.932.684l.982.244c.33.077.718.12,1.073.172a14.141,14.141,0,0,0,1.755.134l.352.01.241-.012.48-.027c.316-.023.634-.023.945-.072a15.175,15.175,0,0,0,6.579-2.462c.43-.294.829-.6,1.21-.922v3.267h6.379V61.942Zm-.64,15.341c-.018.1-.041.215-.063.336s-.032.245-.067.4-.092.339-.141.524a8.561,8.561,0,0,1-1.136,2.488,8.831,8.831,0,0,1-2.51,2.5,9.135,9.135,0,0,1-3.918,1.377c-.186.03-.375.016-.562.03l-.285.012-.106.005-.067,0a8.467,8.467,0,0,1-1.348-.128c-.163-.038-.3-.041-.489-.09l-.568-.156a9.551,9.551,0,0,1-1.118-.42,9.168,9.168,0,0,1-2.055-1.316,9.764,9.764,0,0,1-1.653-1.869,9.489,9.489,0,0,1-1.067-2.289,9.251,9.251,0,0,1-.261-1.244,3.887,3.887,0,0,1-.069-.635l-.012-.321-.01-.16,0-.081,0-.04V76.2l.035-.74a3.67,3.67,0,0,1,.026-.4l.049-.256a8.383,8.383,0,0,1,1.316-3.445,9.8,9.8,0,0,1,1.653-1.869,9.3,9.3,0,0,1,2.055-1.314,8.495,8.495,0,0,1,2.262-.678,8.628,8.628,0,0,1,1.151-.113l.071-.005.036,0h0l.076,0,.381.015.378.015a1.8,1.8,0,0,1,.324.026c.314.073.57.056.945.172l.521.125c.167.059.334.119.5.176a9.258,9.258,0,0,1,1.816.894,8.8,8.8,0,0,1,2.51,2.5,8.593,8.593,0,0,1,1.136,2.49,5.845,5.845,0,0,1,.216.995,4.437,4.437,0,0,1,.09.748c.018.317.03.515.037.591-.006.129-.021.367-.039.725C441.68,76.978,441.682,77.175,441.659,77.283Z" transform="translate(-251.203 -38.313)"/><path class="a" d="M213.492,23.493a4.275,4.275,0,1,1-4.276-4.275A4.276,4.276,0,0,1,213.492,23.493Z" transform="translate(-124.422 -13.287)"/></g><g transform="translate(63.773 63.218)"><path class="a" d="M158.4,172.4a4.929,4.929,0,0,0-3.742-1.721,4.088,4.088,0,0,0-1.723.368,4.446,4.446,0,0,0-1.4,1,4.644,4.644,0,0,0-1.263,3.179,4.746,4.746,0,0,0,1.24,3.2,4.3,4.3,0,0,0,1.4,1.022,4.1,4.1,0,0,0,1.721.366,4.779,4.779,0,0,0,2.147-.5,5.268,5.268,0,0,0,1.756-1.4v1.4a5.835,5.835,0,0,1-3.858,1.47,5.492,5.492,0,0,1-2.169-.425,5.245,5.245,0,0,1-1.733-1.182,5.314,5.314,0,0,1-1.137-1.779,5.87,5.87,0,0,1-.4-2.17,5.578,5.578,0,0,1,.413-2.135,5.393,5.393,0,0,1,5.05-3.375,5.518,5.518,0,0,1,3.7,1.308Z" transform="translate(-149.235 -161.609)"/><path class="a" d="M182.749,168.608h-1.033V149.667h1.033Z" transform="translate(-168.584 -149.667)"/><path class="a" d="M200.981,170.128a5.408,5.408,0,0,1,2.985,2.938,5.816,5.816,0,0,1,0,4.362,5.412,5.412,0,0,1-2.985,2.939,5.738,5.738,0,0,1-2.169.413,5.332,5.332,0,0,1-2.135-.437,5.621,5.621,0,0,1-1.768-1.194,5.463,5.463,0,0,1-1.182-1.767,5.378,5.378,0,0,1-.424-2.112,5.515,5.515,0,0,1,.424-2.146,5.44,5.44,0,0,1,1.182-1.78,5.635,5.635,0,0,1,1.768-1.194,5.331,5.331,0,0,1,2.135-.436A5.715,5.715,0,0,1,200.981,170.128Zm-3.971.918a4.326,4.326,0,0,0-1.412,1.01,4.719,4.719,0,0,0-.93,1.48,4.66,4.66,0,0,0-.333,1.734,4.653,4.653,0,0,0,1.263,3.18,4.437,4.437,0,0,0,1.412,1,4.175,4.175,0,0,0,1.733.366,4.663,4.663,0,0,0,3.283-1.308,4.226,4.226,0,0,0,.987-1.458,4.618,4.618,0,0,0,.344-1.779,4.763,4.763,0,0,0-.344-1.813,4.282,4.282,0,0,0-.975-1.47,4.517,4.517,0,0,0-1.481-.964,4.8,4.8,0,0,0-1.814-.344A4.157,4.157,0,0,0,197.01,171.046Z" transform="translate(-175.486 -161.609)"/><path class="a" d="M229.35,175.306h-1.033v-9.643h-1.171V164.7h1.171v-3.788h1.033V164.7h1.86v.964h-1.86Z" transform="translate(-195.648 -156.365)"/><path class="a" d="M245.5,149.667v9.987h.046a3.376,3.376,0,0,1,1.286-1.39,3.562,3.562,0,0,1,1.86-.493,3.073,3.073,0,0,1,2.72,1.113,5.855,5.855,0,0,1,.77,3.318v6.406h-1.033V162.2a10.56,10.56,0,0,0-.08-1.412,2.983,2.983,0,0,0-.344-1.056,1.835,1.835,0,0,0-.77-.735,2.94,2.94,0,0,0-1.354-.264,2.882,2.882,0,0,0-1.573.4,2.564,2.564,0,0,0-.953,1.068,5.207,5.207,0,0,0-.448,1.458,10.942,10.942,0,0,0-.127,1.71v5.235h-1.033V149.667Z" transform="translate(-205.965 -149.667)"/><path class="a" d="M276.683,159.484a.944.944,0,1,1-.666-.275A.909.909,0,0,1,276.683,159.484Zm-.161,14.808h-1.033V163.685h1.033Z" transform="translate(-224.2 -155.351)"/><path class="a" d="M292.29,171.6h.046a3.376,3.376,0,0,1,1.286-1.39,3.562,3.562,0,0,1,1.86-.493,3.073,3.073,0,0,1,2.72,1.113,5.855,5.855,0,0,1,.77,3.318v6.406h-1.033v-6.406a10.546,10.546,0,0,0-.081-1.412,2.99,2.99,0,0,0-.344-1.056,1.835,1.835,0,0,0-.77-.735,2.94,2.94,0,0,0-1.354-.264,2.882,2.882,0,0,0-1.573.4,2.568,2.568,0,0,0-.953,1.068,5.222,5.222,0,0,0-.448,1.458,10.944,10.944,0,0,0-.127,1.71v5.235h-1.033V169.943h1.033Z" transform="translate(-233.839 -161.609)"/><path class="a" d="M329.884,180.045a14.683,14.683,0,0,1-.183,2.548,4.74,4.74,0,0,1-.872,1.951,4.9,4.9,0,0,1-1.837,1.515,5.45,5.45,0,0,1-2.388.528,5.541,5.541,0,0,1-3.639-1.217,4.407,4.407,0,0,1-1.6-3.329H320.4a3.492,3.492,0,0,0,1.275,2.594,4.282,4.282,0,0,0,2.835.988,4.838,4.838,0,0,0,1.952-.39,3.341,3.341,0,0,0,1.447-1.194,4.618,4.618,0,0,0,.758-1.791,12.038,12.038,0,0,0,.184-2.228v-1.308h-.047a5.165,5.165,0,0,1-1.824,1.5,5.063,5.063,0,0,1-2.308.563,4.941,4.941,0,0,1-2.078-.437,4.858,4.858,0,0,1-1.641-1.217,5.543,5.543,0,0,1-1.057-1.791,6.151,6.151,0,0,1-.366-2.113,5.858,5.858,0,0,1,.39-2.135,5.372,5.372,0,0,1,1.1-1.768,5.084,5.084,0,0,1,1.677-1.182,5.178,5.178,0,0,1,2.112-.424,4.761,4.761,0,0,1,3.995,2.066h.047v-1.837h1.032Zm-6.865-9a4,4,0,0,0-1.308,1.01,4.681,4.681,0,0,0-.849,1.458,4.8,4.8,0,0,0-.3,1.664,5.388,5.388,0,0,0,.287,1.756,4.505,4.505,0,0,0,.85,1.492,4.03,4.03,0,0,0,1.332,1.022,3.921,3.921,0,0,0,1.71.366,3.725,3.725,0,0,0,3.065-1.377,5.2,5.2,0,0,0,1.113-3.375,4.407,4.407,0,0,0-1.17-3.134,4.019,4.019,0,0,0-3.077-1.251A3.737,3.737,0,0,0,323.019,171.046Z" transform="translate(-250.587 -161.609)"/></g></g></svg>