<svg xmlns="http://www.w3.org/2000/svg" width="233.466" height="44.133" viewBox="0 0 233.466 44.133"><defs><style>.a,.b{fill:#3e3e3e;}.b{font-size:9px;font-family:Verdana;}</style></defs><g transform="translate(-694 1.827)"><g transform="translate(748.399 7.431)"><path class="a" d="M806.374,17.3h4.715V32.016L826.714,17.3h6.071L815.5,33.534l18.526,18.59h-6.206L811.089,35.348V52.124h-4.715Z" transform="translate(-806.374 -17.298)"/></g><g transform="translate(780.767 7.431)"><path class="a" d="M886.534,17.3h5.336l13.281,34.826h-4.9l-3.176-8.933h-15.7l-3.176,8.933h-4.969Zm2.662,4.64L882.8,39.275h12.806Z" transform="translate(-873.237 -17.298)"/></g><g transform="translate(817.402 7.431)"><path class="a" d="M965.43,35.791a7.007,7.007,0,0,1,2.954,2.2,22.472,22.472,0,0,1,2.879,4.618l4.779,9.516h-5.061l-4.456-8.933a12.506,12.506,0,0,0-3.343-4.645,7.566,7.566,0,0,0-4.424-1.14h-5.131V52.124h-4.714V17.3h10.639q5.971,0,8.912,2.5t2.938,7.524a9.221,9.221,0,0,1-1.529,5.46A7.873,7.873,0,0,1,965.43,35.791Zm-11.8-14.621V33.534h5.925a7.486,7.486,0,0,0,5.147-1.571,5.959,5.959,0,0,0,1.734-4.64,5.864,5.864,0,0,0-1.734-4.6,7.537,7.537,0,0,0-5.147-1.55Z" transform="translate(-948.914 -17.298)"/></g><g transform="translate(849.251 7.481)"><path class="a" d="M1014.705,17.4h9.678q10.127,0,14.858,4.208t4.742,13.167q0,9.009-4.758,13.227t-14.842,4.224h-9.678Zm4.71,3.873V48.358h5.692q7.2,0,10.559-3.267t3.349-10.316q0-7-3.349-10.251t-10.559-3.251Z" transform="translate(-1014.705 -17.4)"/></g><g transform="translate(883.25 7.431)"><path class="a" d="M1084.938,17.3h4.72V52.124h-4.72Z" transform="translate(-1084.938 -17.298)"/></g><g transform="translate(694 7.431)"><path class="a" d="M694,17.3h4.711V32.019L714.344,17.3h6.064L703.124,33.527l18.522,18.6h-6.207L698.711,35.348V52.124H694Z" transform="translate(-694 -17.298)"/></g><g transform="translate(716.038 7.431)"><g transform="translate(0)"><path class="a" d="M767.166,52.124h-4.711V35.348L745.728,52.124h-6.2l18.523-18.6L740.762,17.3h6.064l15.628,14.721V17.3h4.711Z" transform="translate(-739.525 -17.298)"/></g></g><g transform="translate(709.566 14.329)"><path class="a" d="M744.708,40.825,735.434,50.1l-9.279-9.273,9.279-9.279Z" transform="translate(-726.155 -31.546)"/></g><g transform="translate(703.421 7.445)"><path class="a" d="M713.461,17.351v4.394l4.709-4.42Z" transform="translate(-713.461 -17.325)"/></g><g transform="translate(729.443 7.465)"><g transform="translate(0)"><path class="a" d="M772.023,17.368h-4.808l4.808,4.529Z" transform="translate(-767.215 -17.368)"/></g></g><g transform="translate(892.691 7.481)"><path class="a" d="M1104.44,17.4h21.988v3.959h-17.28v10.3h16.558v3.959h-16.558v12.6h17.7v3.958H1104.44Z" transform="translate(-1104.44 -17.4)"/></g><g transform="translate(894.964 -1.827)"><g transform="translate(1.769 0.777)"><path class="a" d="M1117.749,1.5l2.2-1.721,2.209,1.721,4.954,3.935h-3.26l-3.9-2.632-3.9,2.632h-3.265Z" transform="translate(-1112.79 0.221)"/></g><g transform="translate(0 0)"><path class="a" d="M1127,5.223h-5.221l-3.71-2.509-3.71,2.509h-5.221l8.931-7.05,2.59,2.016Zm-4.841-1.233h1.308l-5.4-4.257-1.828,1.426-3.571,2.83h1.313l4.085-2.761Z" transform="translate(-1109.135 1.827)"/></g></g><text class="b" transform="translate(918.466 39.553)"><tspan x="0" y="0">®</tspan></text></g></svg>