<svg xmlns="http://www.w3.org/2000/svg" width="205.866" height="27.89" viewBox="0 0 205.866 27.89"><defs><style>.a{fill:#3e3e3e;}</style></defs><g transform="translate(292.933 240.444)"><path class="a" d="M-278.878-216.012a6.628,6.628,0,0,1-2.643,2.552,7.969,7.969,0,0,1-3.82.9A9.293,9.293,0,0,1-289.7-213.6a8.844,8.844,0,0,1-3.234-2.773l.349-.345a8.553,8.553,0,0,0,3.008,2.56,8.142,8.142,0,0,0,3.8.963,5.673,5.673,0,0,0,4.252-1.677,6,6,0,0,0,1.632-4.378,5.831,5.831,0,0,0-.793-3.17,7.188,7.188,0,0,0-1.981-2.093,28,28,0,0,0-3.17-1.838,27.4,27.4,0,0,1-3.206-1.866,7.237,7.237,0,0,1-2.012-2.152,6.8,6.8,0,0,1,.97-7.814,6.341,6.341,0,0,1,4.569-1.7,8.15,8.15,0,0,1,3.567.793,8.785,8.785,0,0,1,2.9,2.223l-.281.277a7.889,7.889,0,0,0-2.6-1.906,7.271,7.271,0,0,0-3.1-.729,4.649,4.649,0,0,0-3.495,1.4,5.014,5.014,0,0,0-1.359,3.641,5.1,5.1,0,0,0,.753,2.81,6.457,6.457,0,0,0,1.874,1.926q1.117.748,2.976,1.735a31.343,31.343,0,0,1,3.364,1.981,7.6,7.6,0,0,1,2.136,2.315,6.732,6.732,0,0,1,.879,3.566A7.5,7.5,0,0,1-278.878-216.012Z"/><path class="a" d="M-260.028-213.48v.575h-12.283v-26.632h12v.574h-10.113v11.694h8.587v.554h-8.587v13.255Z"/><path class="a" d="M-239.458-212.9l-8.524-12.649-8.67,12.649h-.792l9.066-13.255-9.035-13.393h2.271l8.191,12.145,8.686-12.145h.792l-9.114,12.716,9.364,13.928Z"/><path class="a" d="M-223.66-224.84V-212.9H-225.6v-11.868l-9.633-14.78h2.27l9,13.932,8.587-13.932h.792Z"/><path class="a" d="M-193.874-214.165a11.426,11.426,0,0,1-4.755,1.077,10.919,10.919,0,0,1-10.27-6.518,18.2,18.2,0,0,1,0-14.313,10.9,10.9,0,0,1,10.27-6.514,11.862,11.862,0,0,1,4.6.935,9.731,9.731,0,0,1,3.622,2.5l-.246.328a9.441,9.441,0,0,0-3.043-1.981,9.133,9.133,0,0,0-3.531-.761,7.1,7.1,0,0,0-4.569,1.585,10.125,10.125,0,0,0-3.055,4.442,18.64,18.64,0,0,0-1.085,6.63,18.4,18.4,0,0,0,1.1,6.629,10.172,10.172,0,0,0,3.087,4.442,7.152,7.152,0,0,0,4.585,1.585,8.5,8.5,0,0,0,3.677-.9,9.924,9.924,0,0,0,3.2-2.378l.258.4A10.763,10.763,0,0,1-193.874-214.165Z"/><path class="a" d="M-165.585-219.618A11.411,11.411,0,0,1-169.9-214.8a13.018,13.018,0,0,1-12.87,0,11.42,11.42,0,0,1-4.32-4.815,17.461,17.461,0,0,1,0-14.312,11.4,11.4,0,0,1,4.327-4.815,13.012,13.012,0,0,1,12.859,0,11.4,11.4,0,0,1,4.319,4.815,17.437,17.437,0,0,1,0,14.312Zm-17.621-.305a10.522,10.522,0,0,0,2.773,4.624,6.018,6.018,0,0,0,8.262,0,10.572,10.572,0,0,0,2.75-4.624,24.7,24.7,0,0,0,0-13.706,10.581,10.581,0,0,0-2.75-4.625,6.031,6.031,0,0,0-8.269,0,10.591,10.591,0,0,0-2.75,4.625,24.663,24.663,0,0,0,0,13.706Z"/><path class="a" d="M-137.74-219.618a11.406,11.406,0,0,1-4.32,4.815,13.018,13.018,0,0,1-12.87,0,11.411,11.411,0,0,1-4.319-4.815,17.461,17.461,0,0,1,0-14.312,11.38,11.38,0,0,1,4.327-4.815,13.01,13.01,0,0,1,12.858,0,11.4,11.4,0,0,1,4.32,4.815,17.437,17.437,0,0,1,0,14.312Zm-17.622-.305a10.534,10.534,0,0,0,2.774,4.624,6.018,6.018,0,0,0,8.262,0,10.572,10.572,0,0,0,2.75-4.624,24.7,24.7,0,0,0,0-13.706,10.591,10.591,0,0,0-2.75-4.625,6.032,6.032,0,0,0-8.27,0,10.591,10.591,0,0,0-2.75,4.625,24.681,24.681,0,0,0,0,13.706Z"/><path class="a" d="M-131.543-240.092h4.125v26.652h-4.125ZM-112.8-213.44h-4.815l-9.2-14.039,11.678-12.617h.793l-9.2,9.942Z"/><path class="a" d="M-110.054-213.44v-26.652h4.125v26.652Z"/><path class="a" d="M-87.067-214.015v.575H-99.922v-26.652h12.641v.574h-8.512v11.7h7.077v.555h-7.077v13.254Z"/></g></svg>