<svg xmlns="http://www.w3.org/2000/svg" width="231.574" height="49.099" viewBox="0 0 231.574 49.099"><defs><style>.a{fill:#3e3e3e;fill-rule:evenodd;}</style></defs><g transform="translate(-6.523 -5.878)"><g transform="translate(137.767 42.448)"><path class="a" d="M297.361,92.969a.643.643,0,0,0,.066.311.128.128,0,0,1,.018.144,2.28,2.28,0,0,1-.365.635,1.8,1.8,0,0,1-.545.455,1.66,1.66,0,0,1-.646.2,1.432,1.432,0,0,1-.728-.132,1.142,1.142,0,0,1-.5-.455,2.962,2.962,0,0,1-.325-.754,5.762,5.762,0,0,1-.184-.922q-.06-.491-.078-.963t-.006-.88c.008-.272.016-.495.024-.671q-.969.072-1.778.185t-1.622.222a12.844,12.844,0,0,1-.958,1.089,11.68,11.68,0,0,1-1.185,1.053,9.622,9.622,0,0,1-1.723,1.083,4.076,4.076,0,0,1-1.8.437,3.134,3.134,0,0,1-.957-.138,2.476,2.476,0,0,1-.754-.383,2.049,2.049,0,0,1-.526-.586,2,2,0,0,1-.263-.736,2.459,2.459,0,0,1,.144-1.245,3.778,3.778,0,0,1,.862-1.3,4.432,4.432,0,0,1,.706-.574,3.356,3.356,0,0,1,.838-.4,2.775,2.775,0,0,1,.964-.162,1.426,1.426,0,0,1,.689.185.9.9,0,0,1,.395.425,1.123,1.123,0,0,1,.084.593,1.716,1.716,0,0,1-.245.712,2.613,2.613,0,0,1-.5.581c-.1.088-.185.167-.269.239a.891.891,0,0,1-.228.15.176.176,0,0,1-.173-.006.392.392,0,0,1-.12-.227.3.3,0,0,1-.024-.192.294.294,0,0,1,.114-.1q.09-.054.228-.144a1.561,1.561,0,0,0,.317-.305,1.126,1.126,0,0,0,.263-.455.591.591,0,0,0-.084-.467.777.777,0,0,0-.682-.347,1.574,1.574,0,0,0-.79.185,2.423,2.423,0,0,0-.838.748,2.655,2.655,0,0,0-.443.838,2.363,2.363,0,0,0-.137.8,1.665,1.665,0,0,0,.161.706,1.515,1.515,0,0,0,.455.551,1.854,1.854,0,0,0,.742.323,2.223,2.223,0,0,0,1.2-.1,6.568,6.568,0,0,0,1.269-.611,7.921,7.921,0,0,0,.724-.5q.353-.276.664-.563t.569-.574a6.228,6.228,0,0,0,.437-.539q-.383.036-.586.06t-.329.036a.9.9,0,0,1-.209,0,1.4,1.4,0,0,1-.2-.048.6.6,0,0,1,.119-.526,1.313,1.313,0,0,1,.263-.03c.167-.012.353-.024.556-.036s.389-.022.557-.029l.263-.012q.9-1.221,1.706-2.442t1.634-2.478q.419-.646.8-1.173a4.279,4.279,0,0,1,.652-.754.55.55,0,0,1,.331-.143,1.265,1.265,0,0,0,.144-.012l.2-.024a.754.754,0,0,1,.191,0,.132.132,0,0,1,.108.06,1.507,1.507,0,0,1,.018.538q-.03.431-.09,1.041-.048.515-.114,1.1t-.137,1.155q-.1.8-.156,1.466t-.084.952l.287-.036.634-.036c-.056.1-.112.2-.167.323a1.264,1.264,0,0,1-.215.323.552.552,0,0,1-.233.162,2.294,2.294,0,0,1-.377.078c-.008.1-.02.3-.036.575s-.024.6-.024.957.028.736.06,1.108a3.9,3.9,0,0,0,.192.963,1.088,1.088,0,0,0,.311.491.447.447,0,0,0,.491.024,1.564,1.564,0,0,0,.443-.347,5.092,5.092,0,0,0,.539-.706Zm-3.244-3.651q.1-1.268.255-2.478t.289-2.466q-.284.431-.535.8t-.525.814q-.383.611-.766,1.2l-.766,1.173q-.239.359-.473.706t-.485.706q.862-.108,1.6-.2a13.705,13.705,0,0,0,1.4-.252Zm12.412.527c0-.008.028-.018.084-.03a.617.617,0,0,1,.174-.012.237.237,0,0,1,.149.06c.04.036.044.094.012.173a8.126,8.126,0,0,1-.7,1.311,7.63,7.63,0,0,1-.987,1.2,4.476,4.476,0,0,1-.772.628,3,3,0,0,1-.76.353,2,2,0,0,1-.885.06,1.511,1.511,0,0,1-.736-.341,1.83,1.83,0,0,1-.5-.736,3.178,3.178,0,0,1-.2-1.113,4.315,4.315,0,0,1,.185-1.4,3.741,3.741,0,0,1,.557-1.161,2.154,2.154,0,0,1,1.592-.982,1.145,1.145,0,0,1,.874.251.772.772,0,0,1,.3.515,1.1,1.1,0,0,1,0,.323,1.192,1.192,0,0,1-.12.383,2.25,2.25,0,0,1-.149.251,2.49,2.49,0,0,1-.222.275,2.574,2.574,0,0,1-.222.2q-.113.09-.233.174a5.635,5.635,0,0,1-.67.371,2.642,2.642,0,0,1-.389.167c-.084.024-.158.048-.222.072a3.485,3.485,0,0,0-.018.467,4.008,4.008,0,0,0,.042.5,2.457,2.457,0,0,0,.114.467,1.047,1.047,0,0,0,.209.365.672.672,0,0,0,.347.257.873.873,0,0,0,.407.012,1.366,1.366,0,0,0,.443-.18,2.634,2.634,0,0,0,.443-.341,5.9,5.9,0,0,0,.73-.772q.347-.437.622-.856.179-.275.311-.515a3.339,3.339,0,0,0,.192-.395Zm-3.567-.108q-.072.156-.132.3a1.29,1.29,0,0,0-.084.288,2.7,2.7,0,0,0,.886-.431,3.329,3.329,0,0,0,.5-.491q.275-.372.191-.6a.18.18,0,0,0-.119-.132.364.364,0,0,0-.252.024,1.564,1.564,0,0,0-.227.114,1.509,1.509,0,0,0-.2.149,2.136,2.136,0,0,0-.563.778Zm8.247-.371q-.24.18-.581.389t-.712.431l-.73.437q-.359.215-.646.407l-.192-.216c-.064-.072-.127-.151-.191-.239q-.192-.2-.377-.443a4.232,4.232,0,0,1-.329-.491,1.877,1.877,0,0,1-.3-.838,1.966,1.966,0,0,1-.006-.263.713.713,0,0,1,.06-.263.421.421,0,0,1,.156-.185.348.348,0,0,1,.269-.029.457.457,0,0,0,.263-.15.571.571,0,0,0,.084-.389,2.312,2.312,0,0,0-.927-.144,1.435,1.435,0,0,0-.664.215A1.189,1.189,0,0,0,306,88a1.541,1.541,0,0,0-.191.519,1.541,1.541,0,0,0,.167,1.075,6.015,6.015,0,0,0,.341.515c.124.168.253.329.389.489q.215.275.443.551c.152.184.3.367.431.548q-.287.2-.688.527a7.542,7.542,0,0,0-.754.7,4.119,4.119,0,0,0-.581.778,1.14,1.14,0,0,0-.168.758.885.885,0,0,0,.186.461.985.985,0,0,0,.365.279,1.281,1.281,0,0,0,.485.11,2.658,2.658,0,0,0,.556-.036,2.825,2.825,0,0,0,.982-.365,2.909,2.909,0,0,0,.754-.652,2.639,2.639,0,0,0,.449-.9,2.184,2.184,0,0,0,.03-1.029,2.16,2.16,0,0,0-.359-.8l.281-.185.479-.318.563-.377.544-.365q.251-.168.419-.293a1.15,1.15,0,0,0,.191-.161.233.233,0,0,0,.078-.126.179.179,0,0,0-.018-.1.463.463,0,0,0-.072-.1,1.111,1.111,0,0,1-.1-.126Zm-3.7,4.74a1.981,1.981,0,0,0,.467-.485,1.091,1.091,0,0,0,.192-.629,2.193,2.193,0,0,0-.066-.413,1.189,1.189,0,0,0-.222-.425l-.551.491a7.772,7.772,0,0,0-.79.826,2.262,2.262,0,0,0-.335.515.5.5,0,0,0-.048.323.227.227,0,0,0,.174.168.788.788,0,0,0,.335,0,1.952,1.952,0,0,0,.419-.132,2.394,2.394,0,0,0,.425-.24Zm8.068-4.74a1.108,1.108,0,0,0,.1.126.481.481,0,0,1,.072.1.179.179,0,0,1,.018.1.233.233,0,0,1-.078.126,1.15,1.15,0,0,1-.191.161q-.168.126-.419.293l-.545.365q-.293.2-.563.377t-.478.318l-.282.185a2.138,2.138,0,0,1,.329,1.831,2.638,2.638,0,0,1-.448.9,2.909,2.909,0,0,1-.754.652,2.825,2.825,0,0,1-.982.365,2.658,2.658,0,0,1-.556.036,1.279,1.279,0,0,1-.485-.11.981.981,0,0,1-.365-.279.885.885,0,0,1-.186-.461,1.14,1.14,0,0,1,.168-.758,4.121,4.121,0,0,1,.581-.778,7.534,7.534,0,0,1,.754-.7q.4-.323.689-.527c-.136-.181-.28-.365-.431-.548s-.3-.367-.443-.551c-.135-.16-.265-.321-.389-.489a6.023,6.023,0,0,1-.341-.515,1.538,1.538,0,0,1-.168-1.075,1.542,1.542,0,0,1,.192-.519,1.184,1.184,0,0,1,.383-.4,1.434,1.434,0,0,1,.664-.215,2.312,2.312,0,0,1,.927.144.571.571,0,0,1-.084.389.457.457,0,0,1-.263.15.348.348,0,0,0-.269.029.421.421,0,0,0-.155.185.7.7,0,0,0-.06.263,1.893,1.893,0,0,0,.006.263,1.871,1.871,0,0,0,.3.838,4.232,4.232,0,0,0,.329.491q.185.239.377.443c.064.088.128.167.192.239l.192.216q.287-.192.646-.407l.73-.437q.372-.221.712-.431t.581-.389Zm-3.7,4.74a2.4,2.4,0,0,1-.425.24,1.961,1.961,0,0,1-.419.132.79.79,0,0,1-.335,0,.228.228,0,0,1-.174-.168.507.507,0,0,1,.048-.323,2.244,2.244,0,0,1,.335-.515,7.724,7.724,0,0,1,.79-.826l.551-.491a1.188,1.188,0,0,1,.221.425,2.158,2.158,0,0,1,.066.413,1.091,1.091,0,0,1-.192.629,1.991,1.991,0,0,1-.467.485Zm8.08-4.261a3.066,3.066,0,0,1-.215.443q-.156.275-.371.611t-.5.694a5.93,5.93,0,0,1-.568.634,2.872,2.872,0,0,1-.5.4,1.883,1.883,0,0,1-.5.227.882.882,0,0,1-.455.012.65.65,0,0,1-.359-.233,1.041,1.041,0,0,1-.21-.365,2.528,2.528,0,0,1-.114-.467,4.193,4.193,0,0,1-.042-.5,3.487,3.487,0,0,1,.018-.467q.1-.036.222-.072a2.662,2.662,0,0,0,.389-.167,5.708,5.708,0,0,0,.67-.371,2.63,2.63,0,0,0,.455-.383,1.865,1.865,0,0,0,.221-.263,2.19,2.19,0,0,0,.15-.251,1.192,1.192,0,0,0,.12-.383,1.1,1.1,0,0,0,0-.323.774.774,0,0,0-.3-.515,1.146,1.146,0,0,0-.874-.251,2.155,2.155,0,0,0-1.592.982A3.751,3.751,0,0,0,315.058,90a4.3,4.3,0,0,0-.185,1.4,3.6,3.6,0,0,0,.167,1.023,2.041,2.041,0,0,0,.5.832,1.451,1.451,0,0,0,.682.377,1.778,1.778,0,0,0,.808-.006,2.993,2.993,0,0,0,.862-.353,3.806,3.806,0,0,0,.832-.676,6.193,6.193,0,0,0,.6-.706q.281-.383.508-.73.215-.324.371-.617t.252-.509q.048-.119-.024-.161a.39.39,0,0,0-.179-.048.836.836,0,0,0-.2.012c-.064.012-.1.014-.1.006Zm-4.417-3.088q-.228-.12-.2-.227a.425.425,0,0,1,.066-.144c.036-.056.086-.136.149-.239l.27-.365q.138-.185.269-.353a7.11,7.11,0,0,1,.491-.634,1.933,1.933,0,0,1,.533-.5.315.315,0,0,1,.365.084c.08.072.179.172.3.3l.371.407.33.4c.107.131.2.245.269.341s.141.16.185.215.078.1.1.137a.769.769,0,0,1,.06.108l.06.137a.218.218,0,0,1-.072.216.213.213,0,0,1-.228.036h-.006s-.014-.008-.03-.024a1.059,1.059,0,0,1-.072-.083q-.048-.06-.155-.18l-.539-.611q-.1-.12-.185-.221a2,2,0,0,1-.162-.21l-.251-.263a.948.948,0,0,1-.084-.1c-.024-.032-.052-.068-.084-.108a.6.6,0,0,0-.114.126q-.054.078-.15.2c-.064.08-.123.16-.179.239s-.116.164-.18.252a8.977,8.977,0,0,0-.61.85,2,2,0,0,0-.144.252.2.2,0,0,1-.083.107q-.06.024-.288-.144Zm.886,2.98a2.122,2.122,0,0,1,.563-.778,1.479,1.479,0,0,1,.2-.149,1.56,1.56,0,0,1,.227-.114.363.363,0,0,1,.251-.024.18.18,0,0,1,.12.132q.084.228-.192.6a3.307,3.307,0,0,1-.5.491,2.7,2.7,0,0,1-.885.431,1.29,1.29,0,0,1,.084-.288q.06-.143.132-.3Zm10.652.97a3.8,3.8,0,0,0,.186-.425,2.006,2.006,0,0,0,.09-.329c0,.008.026,0,.078-.012a1.076,1.076,0,0,1,.168-.036.272.272,0,0,1,.161.024c.048.024.064.08.048.167q-.1.264-.209.569t-.258.628q-.168.372-.365.736a5.768,5.768,0,0,1-.437.689,3.578,3.578,0,0,1-.664.658,1.923,1.923,0,0,1-.82.359,1.283,1.283,0,0,1-.844-.144,1.43,1.43,0,0,1-.593-.9,5.479,5.479,0,0,1-.168-1.544q0-.3.018-.586t.024-.521a2.473,2.473,0,0,0-.012-.371c-.012-.092-.042-.14-.09-.144s-.119.048-.215.156a4.4,4.4,0,0,0-.383.545c-.04.064-.084.14-.132.227s-.116.214-.2.377-.2.383-.335.659-.307.628-.515,1.059a1.552,1.552,0,0,1-.281.425.88.88,0,0,1-1.167.012,1.467,1.467,0,0,1-.359-.772c-.016-.1-.032-.219-.048-.371s-.03-.321-.042-.508-.018-.383-.018-.587.008-.4.024-.6a4.642,4.642,0,0,1,.114-.652,1.4,1.4,0,0,1,.233-.508.665.665,0,0,1,.443-.288,1.193,1.193,0,0,1,.694.156.417.417,0,0,1,.2.179.273.273,0,0,1-.042.287,2.058,2.058,0,0,0-.2.659,7.923,7.923,0,0,0-.1.945q-.024.455-.018.754c0,.2.038.3.1.3q.143-.251.311-.6t.371-.748q.215-.431.473-.85a3.756,3.756,0,0,1,.562-.719,1.878,1.878,0,0,1,.659-.43,1.16,1.16,0,0,1,.772,0,.719.719,0,0,1,.479.43,2.3,2.3,0,0,1,.156.742q0,.084-.018.317t-.042.539c-.016.2-.028.419-.036.646s-.008.445,0,.652a1.519,1.519,0,0,0,.185.838.316.316,0,0,0,.395.1,1.5,1.5,0,0,0,.5-.389,5.083,5.083,0,0,0,.485-.616,5.841,5.841,0,0,0,.377-.581q.173-.305.3-.593Zm5.793-.885q-.143.239-.341.61t-.341.634a8.572,8.572,0,0,1-.545.8,4.537,4.537,0,0,1-.641.682,3,3,0,0,1-.8.5,1.5,1.5,0,0,1-.664.12,1.014,1.014,0,0,1-.533-.2,1.4,1.4,0,0,1-.389-.461,2.348,2.348,0,0,1-.293-.922,4.191,4.191,0,0,1,.018-1.113,4.682,4.682,0,0,1,.234-.892,2.676,2.676,0,0,1,.449-.784,1.756,1.756,0,0,1,.521-.443q.257-.132.389-.024a.349.349,0,0,1,.114.258,1.511,1.511,0,0,1-.078.521c-.032.111-.062.223-.09.335a1.053,1.053,0,0,0-.036.3.321.321,0,0,0,.078.21.333.333,0,0,0,.251.078.608.608,0,0,0,.407-.263,3.005,3.005,0,0,0,.18-.419,1.534,1.534,0,0,0,.072-.742,1.256,1.256,0,0,0-.252-.574,1.3,1.3,0,0,0-.778-.437,1.879,1.879,0,0,0-1.077.126,2.044,2.044,0,0,0-.82.563,3.029,3.029,0,0,0-.545.885,5.557,5.557,0,0,0-.27.892,4.182,4.182,0,0,0-.09.975,4.326,4.326,0,0,0,.275,1.412,2.792,2.792,0,0,0,.706,1.077,1.953,1.953,0,0,0,1.041.521,2.085,2.085,0,0,0,1.041-.138,3.273,3.273,0,0,0,.8-.478,6.1,6.1,0,0,0,.736-.7,7.594,7.594,0,0,0,.64-.826q.293-.437.521-.856a6.99,6.99,0,0,0,.305-.641q.126-.305.2-.545a.107.107,0,0,0-.066-.1.567.567,0,0,0-.245-.036c-.024,0-.052.028-.084.084Zm.383-1.449a.53.53,0,0,1-.263-.419,1.427,1.427,0,0,1,.06-.6,1.609,1.609,0,0,1,.222-.5.688.688,0,0,1,.317-.282.266.266,0,0,1,.305.1,1.31,1.31,0,0,1,.233.407,3.492,3.492,0,0,1,.1.341,1.1,1.1,0,0,1,.012.365,1.249,1.249,0,0,1-.1.4.415.415,0,0,1-.245.227,1.274,1.274,0,0,1-.275.072.53.53,0,0,1-.359-.108Zm4.333.97c.144.048.242.082.293.1s.046.1-.018.233a5.573,5.573,0,0,1-.982,1.616,6.182,6.182,0,0,1-.772.778,4.317,4.317,0,0,1-.892.586,3.5,3.5,0,0,1-.706.239,1.967,1.967,0,0,1-.712.036A1.189,1.189,0,0,1,332.779,92a3.534,3.534,0,0,1-.132-.778,6.033,6.033,0,0,1,0-.754,4.721,4.721,0,0,1,.114-.682,1.428,1.428,0,0,1,.2-.479.5.5,0,0,1,.215-.156.864.864,0,0,1,.305-.066.776.776,0,0,1,.3.048.346.346,0,0,1,.2.185.912.912,0,0,1,.012.449q-.048.281-.072.641a3.808,3.808,0,0,0,.018,1.047,1.078,1.078,0,0,0,.245.556.606.606,0,0,0,.6.15,2.119,2.119,0,0,0,.736-.377,5.2,5.2,0,0,0,.646-.574q.323-.335.6-.682.311-.382.52-.7A5.134,5.134,0,0,0,337.59,89.343Z" transform="translate(-282.504 -82.777)"/><path class="a" d="M405.371,90.306a2.137,2.137,0,0,1,.263.089c.064.028.064.114,0,.258a5.294,5.294,0,0,1-.227.491,5.537,5.537,0,0,1-.3.5c-.048.079-.106.169-.174.269s-.14.2-.215.3-.148.2-.215.287-.126.165-.174.222A5.024,5.024,0,0,1,403.18,93.8a2.025,2.025,0,0,1-1.108.383,1.024,1.024,0,0,1-.844-.467,2.657,2.657,0,0,1-.347-1.5,4.486,4.486,0,0,1,.006-.515q.018-.275.054-.574l-.365.521q-.2.281-.437.568a8.208,8.208,0,0,1-.593.647,3.272,3.272,0,0,1-.676.515,1.04,1.04,0,0,1-.569.162,1.164,1.164,0,0,1-.64-.257,1.46,1.46,0,0,1-.509-.658,2.494,2.494,0,0,1-.174-.862,2.867,2.867,0,0,1,.132-.922,2.91,2.91,0,0,1,.419-.85,2.589,2.589,0,0,1,.55-.515,1.672,1.672,0,0,1,.719-.275,1.957,1.957,0,0,1,1.047.1,2.751,2.751,0,0,1,1.083.808,1.977,1.977,0,0,0,.263-.329.529.529,0,0,1,.161-.185.438.438,0,0,1,.245-.06,3.574,3.574,0,0,1,.515.06.8.8,0,0,1,.21.425,1.943,1.943,0,0,1,.018.509c-.016.159-.038.321-.066.485s-.05.317-.066.461q-.024.311-.036.569a2.862,2.862,0,0,0,.012.461q.048.922.478.862a1.148,1.148,0,0,0,.6-.353,8.491,8.491,0,0,0,.8-.88q.263-.335.5-.682l.419-.586c.088-.136.165-.252.234-.348s.117-.164.15-.2Zm-4.98.538c.04-.056.084-.116.132-.179s.08-.1.1-.12c-.064-.072-.121-.136-.174-.192a2.058,2.058,0,0,0-.161-.156,1.509,1.509,0,0,0-.622-.335.748.748,0,0,0-.593.126,1.564,1.564,0,0,0-.437.5,2.562,2.562,0,0,0-.311.91,2.108,2.108,0,0,0-.006.688.524.524,0,0,0,.233.4.4.4,0,0,0,.353.006,1.532,1.532,0,0,0,.5-.365c.072-.072.146-.151.222-.239s.157-.187.245-.3q.143-.192.281-.383t.245-.359Zm17.057-.526c.008-.016.042-.024.1-.024a.387.387,0,0,1,.174.042.272.272,0,0,1,.126.132.283.283,0,0,1-.042.245l-.168.335q-.1.192-.263.491-.2.347-.431.73t-.478.754q-.264.383-.539.718a6.851,6.851,0,0,1-.551.6,3.245,3.245,0,0,1-.526.395,1.243,1.243,0,0,1-.515.18.949.949,0,0,1-.5-.09,1.2,1.2,0,0,1-.461-.425,2.726,2.726,0,0,1-.239-.4,4.209,4.209,0,0,1-.192-.443q-.06-.192-.108-.371t-.1-.335l-.06-.263c-.056.056-.12.122-.191.2s-.16.162-.263.257q-.2.192-.4.365t-.293.245a2.712,2.712,0,0,1-.353.257,1.67,1.67,0,0,1-.377.174,1.227,1.227,0,0,1-.551.042,1.04,1.04,0,0,1-.539-.281,2.118,2.118,0,0,1-.551-1.089,3.624,3.624,0,0,1-.054-.915,4.32,4.32,0,0,1,.162-.94,3.183,3.183,0,0,1,.371-.832,2.266,2.266,0,0,1,.563-.616,1.435,1.435,0,0,1,.982-.263,1.763,1.763,0,0,1,.641.185,3.579,3.579,0,0,1,.712.485c.016-.207.036-.428.06-.664s.052-.477.084-.724q.072-.539.192-1.233a7.849,7.849,0,0,1,.359-1.352,3.782,3.782,0,0,1,.515-1.023,2.92,2.92,0,0,1,.671-.676,2.078,2.078,0,0,1,.724-.335,1.339,1.339,0,0,1,.688.012,1.251,1.251,0,0,1,.688.563,2.163,2.163,0,0,1,.257,1.185,3.158,3.158,0,0,1-.072.652,6.36,6.36,0,0,1-.192.7q-.108.312-.251.629t-.312.628a9.976,9.976,0,0,1-.5.892q-.293.473-.629.952-.143.215-.317.461t-.329.449q-.156.2-.269.341a.946.946,0,0,1-.138.15,9.944,9.944,0,0,0,.144,1.449,2.29,2.29,0,0,0,.215.664.674.674,0,0,0,.3.305.486.486,0,0,0,.359.006,1.293,1.293,0,0,0,.395-.234,3.24,3.24,0,0,0,.4-.389,6.434,6.434,0,0,0,.407-.521q.2-.287.4-.6t.389-.634q.228-.383.365-.641t.305-.556Zm-3.651-.275q-.012.275-.012.377v.233q.335-.407.754-1.006.252-.371.5-.79.168-.287.33-.586t.293-.611q.12-.263.215-.521a4.358,4.358,0,0,0,.156-.508,4.168,4.168,0,0,0,.149-.982,2.2,2.2,0,0,0-.09-.718.813.813,0,0,0-.371-.491.491.491,0,0,0-.526.084,1.45,1.45,0,0,0-.461.5,3.837,3.837,0,0,0-.329.73,6.067,6.067,0,0,0-.287,1.053q-.1.539-.156.922-.06.455-.089.886t-.054.826c-.008.112-.014.218-.018.318s-.006.193-.006.281Zm-2.227,2.849a3.485,3.485,0,0,0,.563-.449q.263-.257.467-.473-.036-.394-.054-.682c-.012-.191-.022-.347-.03-.467a1.321,1.321,0,0,1,0-.359.614.614,0,0,0-.275-.252,1.269,1.269,0,0,0-.754-.2.834.834,0,0,0-.491.251,1.394,1.394,0,0,0-.263.341,3.661,3.661,0,0,0-.216.449,3.039,3.039,0,0,0-.1.323q-.036.156-.06.323a2.549,2.549,0,0,0,.012.682q.059.275.089.437a.356.356,0,0,0,.162.245.461.461,0,0,0,.437.084,2.058,2.058,0,0,0,.509-.252Zm10.641-2.5a3.357,3.357,0,0,1-.192.395q-.132.24-.311.515-.275.419-.622.856a5.892,5.892,0,0,1-.73.772,2.655,2.655,0,0,1-.443.341,1.362,1.362,0,0,1-.443.18.873.873,0,0,1-.407-.012.672.672,0,0,1-.347-.257,1.047,1.047,0,0,1-.209-.365,2.49,2.49,0,0,1-.114-.467,4,4,0,0,1-.042-.5,3.48,3.48,0,0,1,.018-.467q.1-.036.222-.072a2.642,2.642,0,0,0,.389-.167,5.632,5.632,0,0,0,.67-.371q.12-.083.233-.174a2.5,2.5,0,0,0,.222-.2,2.429,2.429,0,0,0,.222-.275,2.256,2.256,0,0,0,.149-.251,1.18,1.18,0,0,0,.12-.383,1.071,1.071,0,0,0,0-.323.773.773,0,0,0-.3-.515,1.147,1.147,0,0,0-.874-.251,2.155,2.155,0,0,0-1.592.982,3.73,3.73,0,0,0-.556,1.161,4.316,4.316,0,0,0-.186,1.4,3.177,3.177,0,0,0,.2,1.113,1.835,1.835,0,0,0,.5.736,1.511,1.511,0,0,0,.736.341,2,2,0,0,0,.885-.06,3,3,0,0,0,.76-.353,4.476,4.476,0,0,0,.772-.628,7.63,7.63,0,0,0,.987-1.2,8.123,8.123,0,0,0,.7-1.311c.032-.079.028-.137-.012-.173a.236.236,0,0,0-.149-.06.617.617,0,0,0-.174.012c-.056.012-.084.022-.084.03Zm-3.567-.108a2.137,2.137,0,0,1,.563-.778,1.51,1.51,0,0,1,.2-.149,1.56,1.56,0,0,1,.227-.114.364.364,0,0,1,.252-.024.182.182,0,0,1,.12.132q.083.228-.192.6a3.327,3.327,0,0,1-.5.491,2.7,2.7,0,0,1-.886.431,1.315,1.315,0,0,1,.084-.288c.04-.1.084-.2.132-.3Zm12.448-.371a1.167,1.167,0,0,0,.1.126.5.5,0,0,1,.072.1.183.183,0,0,1,.018.1.239.239,0,0,1-.078.126,1.188,1.188,0,0,1-.192.161q-.168.126-.419.293l-.545.365q-.293.2-.563.377L429,91.88l-.281.185a2.138,2.138,0,0,1,.329,1.831,2.639,2.639,0,0,1-.449.9,2.906,2.906,0,0,1-.754.652,2.825,2.825,0,0,1-.982.365,2.66,2.66,0,0,1-.557.036,1.278,1.278,0,0,1-.485-.11.983.983,0,0,1-.365-.279.889.889,0,0,1-.185-.461,1.134,1.134,0,0,1,.168-.758,4.1,4.1,0,0,1,.58-.778,7.593,7.593,0,0,1,.754-.7q.4-.323.688-.527c-.136-.181-.279-.365-.431-.548s-.3-.367-.443-.551c-.136-.16-.265-.321-.389-.489a6.03,6.03,0,0,1-.341-.515,1.541,1.541,0,0,1-.167-1.075,1.541,1.541,0,0,1,.192-.519,1.187,1.187,0,0,1,.383-.4,1.436,1.436,0,0,1,.664-.215,2.312,2.312,0,0,1,.927.144.571.571,0,0,1-.083.389.459.459,0,0,1-.263.15.348.348,0,0,0-.269.029.425.425,0,0,0-.156.185.722.722,0,0,0-.06.263,1.819,1.819,0,0,0,.305,1.1,4.178,4.178,0,0,0,.33.491c.123.159.249.307.377.443.064.088.128.167.192.239l.192.216q.287-.192.646-.407l.73-.437q.371-.221.712-.431t.581-.389Zm-3.7,4.74a1.989,1.989,0,0,0,.466-.485,1.091,1.091,0,0,0,.192-.629,2.124,2.124,0,0,0-.066-.413,1.19,1.19,0,0,0-.222-.425l-.551.491a7.816,7.816,0,0,0-.79.826,2.255,2.255,0,0,0-.335.515.5.5,0,0,0-.048.323.227.227,0,0,0,.174.168.79.79,0,0,0,.335,0,1.949,1.949,0,0,0,.419-.132,2.384,2.384,0,0,0,.425-.24Zm8.127-4.261a3.407,3.407,0,0,1-.191.395q-.132.24-.311.515-.275.419-.622.856a5.862,5.862,0,0,1-.73.772,2.654,2.654,0,0,1-.443.341,1.364,1.364,0,0,1-.443.18.871.871,0,0,1-.407-.012.675.675,0,0,1-.348-.257,1.047,1.047,0,0,1-.209-.365,2.492,2.492,0,0,1-.114-.467,4.092,4.092,0,0,1-.042-.5,3.4,3.4,0,0,1,.018-.467q.1-.036.221-.072a2.643,2.643,0,0,0,.389-.167,5.676,5.676,0,0,0,.671-.371q.119-.083.233-.174a2.564,2.564,0,0,0,.221-.2,2.436,2.436,0,0,0,.222-.275,2.114,2.114,0,0,0,.149-.251,1.169,1.169,0,0,0,.12-.383,1.071,1.071,0,0,0,0-.323.774.774,0,0,0-.3-.515,1.146,1.146,0,0,0-.874-.251,2.155,2.155,0,0,0-1.592.982,3.74,3.74,0,0,0-.556,1.161,4.3,4.3,0,0,0-.185,1.4,3.167,3.167,0,0,0,.2,1.113,1.834,1.834,0,0,0,.5.736,1.515,1.515,0,0,0,.736.341,2,2,0,0,0,.885-.06,3,3,0,0,0,.76-.353,4.492,4.492,0,0,0,.772-.628,7.607,7.607,0,0,0,.987-1.2,8.088,8.088,0,0,0,.7-1.311c.032-.079.028-.137-.012-.173a.238.238,0,0,0-.15-.06.618.618,0,0,0-.174.012c-.056.012-.084.022-.084.03Zm-3.567-.108a2.128,2.128,0,0,1,.562-.778,1.509,1.509,0,0,1,.2-.149,1.593,1.593,0,0,1,.228-.114.363.363,0,0,1,.251-.024.182.182,0,0,1,.12.132q.083.228-.192.6a3.305,3.305,0,0,1-.5.491,2.7,2.7,0,0,1-.886.431,1.317,1.317,0,0,1,.084-.288c.039-.1.084-.2.132-.3Zm8.929.192a2.162,2.162,0,0,1,.293.078q.161.053.114.185a6.016,6.016,0,0,1-.682,1.293A8.279,8.279,0,0,1,440,92.8a6.721,6.721,0,0,1-.706.689,4.255,4.255,0,0,1-.8.545,2,2,0,0,1-.79.233.985.985,0,0,1-.862-.359,1.342,1.342,0,0,1-.317-.8,3.6,3.6,0,0,1,.054-.988,5.058,5.058,0,0,1,.185-.712,3.748,3.748,0,0,1,.245-.569q-.167,0-.365.012c-.132.008-.265.012-.4.012q-.18,0-.359-.018a1.458,1.458,0,0,1-.347-.078.981.981,0,0,1-.526-.443,1.112,1.112,0,0,1-.167-.455,1.5,1.5,0,0,1,.012-.5,1.435,1.435,0,0,1,.185-.491,1.125,1.125,0,0,1,.365-.371.924.924,0,0,1,.622-.137,1.105,1.105,0,0,1,.557.215.641.641,0,0,1,.257.413c.024.16-.068.311-.275.455l-.252.2a1.109,1.109,0,0,0-.174.191.128.128,0,0,0-.006.168q.06.083.287.089t.5.006q.215-.012.455-.012a3.562,3.562,0,0,1,.431.024.467.467,0,0,1,.311.162.64.64,0,0,1,.12.311,1.476,1.476,0,0,1-.012.413q-.036.227-.1.455c-.016.056-.036.132-.06.227s-.049.2-.078.323-.052.241-.072.365a2.294,2.294,0,0,0-.03.365.66.66,0,0,0,.1.467.3.3,0,0,0,.293.084,1.24,1.24,0,0,0,.407-.18,3.7,3.7,0,0,0,.437-.323q.209-.18.383-.353c.116-.116.2-.2.245-.257a5.2,5.2,0,0,0,.6-.808Q440.621,90.952,440.884,90.473Z" transform="translate(-342.54 -83.321)"/></g><path class="a" d="M173.8,42.267a3.4,3.4,0,0,0-1.485.482,12.588,12.588,0,0,1-2.2,1.516c-3.538,1.769-7.8,2.262-11.705,2.262-3.269,0-9.025-.4-9.485-4.667a7.635,7.635,0,0,1,2.765-6.427A14.143,14.143,0,0,1,157.52,32.1a16.286,16.286,0,0,1,4.455-.524,10.658,10.658,0,0,1,4.342.7l.056.029q.683.367,1.372.725a1.8,1.8,0,0,0,.839.219,1.774,1.774,0,0,0,1.266-.47,1.294,1.294,0,0,0,.465-1.005,1.1,1.1,0,0,0-.764-1.06,16.029,16.029,0,0,0-6.789-1.345,23.212,23.212,0,0,0-11.427,2.763c-3.4,1.888-6.2,4.584-6.2,8.7A6.363,6.363,0,0,0,148.786,47a20.239,20.239,0,0,0,9.307,1.941A31.073,31.073,0,0,0,173.248,45.4c2.086-1.149,3.188-3.492.548-3.13Zm6.4,5.448c-4.556-2.277-3.94-7.851-.921-11.221a17.89,17.89,0,0,1,5.673-4.2l.8-.383-.058-.865a.766.766,0,0,1,.1-.068A24.98,24.98,0,0,1,190.39,29a28.494,28.494,0,0,1,8.622-1.459c3.039,0,6.349.485,8.911,2.237a5.157,5.157,0,0,1,2.38,3.572c.321,2.114-.787,4.248-1.974,5.914-2.912,4.086-7.28,6.689-11.92,8.394a24.991,24.991,0,0,1-8.674,1.546,17.021,17.021,0,0,1-7.543-1.488Zm13.256-15.827c-.039.008-.08.014-.106.018a22.4,22.4,0,0,0-3.866.895,17.614,17.614,0,0,0-5.437,2.891c-1.793,1.416-3.271,3.288-3.33,5.663-.1,3.854,3.008,5.193,6.4,5.329a22.594,22.594,0,0,0,10.515-2.113,17.6,17.6,0,0,0,8.083-7.085,6.472,6.472,0,0,0,1.017-3.178,4.244,4.244,0,0,0-1.094-2.731c-1.682-2-4.51-2.461-6.983-2.461a11.008,11.008,0,0,0-4.581.9l-1.237.563.608,1.216a.447.447,0,0,1,.014.088Zm27.194,3.888c-.9-.01-1.848-.381-1.848-1.468a1.715,1.715,0,0,1,.864-1.434c1.951-1.424,4.98-1.66,7.317-1.66a12.774,12.774,0,0,1,4.371.567,14.374,14.374,0,0,0,2.971.954,1.466,1.466,0,0,0,1.337-.644l.1-.129a.449.449,0,0,0,.135-.329.671.671,0,0,0-.263-.509c-1.6-1.487-4.485-1.747-6.556-1.747a35.994,35.994,0,0,0-7.082.813c-2.957.6-6.395,1.774-8.288,4.279a1.613,1.613,0,0,0-.364.993c0,.918.519,1.312,1.355,1.587a16.009,16.009,0,0,0,4.322.668c1.594,0,3.176-.013,4.77,0a61.14,61.14,0,0,1,6.754.377,15.406,15.406,0,0,1,3.189.765c1.2.451,2.82,1.209,3.077,2.587.386,1.8-1.07,2.951-2.52,3.583-3.731,1.7-8.142,2.035-12.19,1.865a17.778,17.778,0,0,1-6-1.258,4.921,4.921,0,0,1-3.307-3.384c-.1-.517-.2-1.037-.3-1.556a.15.15,0,0,0-.026-.043.168.168,0,0,0-.054-.006,2.513,2.513,0,0,0-1.852.532l-.072.053-.078.044c-.418.232-.714.5-.691,1,.116,2.526,1.529,4.037,3.81,4.986A28.291,28.291,0,0,0,224.3,49.1a32.783,32.783,0,0,0,10.542-1.767,9.092,9.092,0,0,0,5.731-4.6,2.059,2.059,0,0,0,.2-.87,3.936,3.936,0,0,0-1.1-2.3c-3.1-3.623-11.072-3.833-15.39-3.737-1.212.027-2.424.012-3.635-.052Zm49.885-3.914a2.743,2.743,0,0,0-1.122-.176A113.571,113.571,0,0,0,257.3,31.9l-1.062.078-.35,2.629a74.98,74.98,0,0,0-.694,9.128,7.239,7.239,0,0,0,.382,2.369,2.014,2.014,0,0,1-2.158,2.839c-1.164-.054-1.2-1.059-1.163-2.044q.241-6.734.628-13.461l.083-1.479-1.479.1c-.923.061-1.849.1-2.773.157l-4.265.259a2.654,2.654,0,0,0-1.179.271,6.233,6.233,0,0,1-2.828.314c-.687-.076-1.029-.311-1.166-1a2.78,2.78,0,0,1,0-1.073c.048-.253.292-.277.522-.31l.367-.052a60.1,60.1,0,0,1,6.98-.512c2.407-.056,4.834-.113,7.236-.264,4.369-.273,8.757-.365,13.135-.365a22.219,22.219,0,0,1,3.417.255,2,2,0,0,1,1.041.5,3.237,3.237,0,0,0,.239,1.242,1.213,1.213,0,0,1-.2.234,1.1,1.1,0,0,1-.688.336c-.27-.049-.538-.113-.8-.188Zm6.8-2.336-.058-.049,2.952-.4a55.919,55.919,0,0,1,11.224-.376c1.731.115,6.238.3,7.089,2.186l.028.062.021.065c.337,1.018-.43,1.829-1.144,2.418a14.447,14.447,0,0,1-5.316,2.457A71.734,71.734,0,0,1,280.9,38.024l-1.563.167.431-5.815a2.355,2.355,0,0,0-.1-.883.707.707,0,0,0-.109-.11l-2.12-1.763-.925,2.162a1.681,1.681,0,0,0-.1.327v.784q0,.892,0,1.749c.031.871.052,1.732.052,2.6v1.21l-1.206.1a1.711,1.711,0,0,0-1.252.639,1.511,1.511,0,0,0-.388,1.225c.067.469,1.108.625,1.446.671l1.2.159-.06,1.205c-.093,1.875-.169,3.751-.208,5.6a5.274,5.274,0,0,0,.121,1.216c.107.447.2.689.719.672a5.708,5.708,0,0,0,1.957-.815.748.748,0,0,0,.4-.712,5.9,5.9,0,0,0-.167-1.759l-.043-.164V41.7l14.19,2.65A45.744,45.744,0,0,1,299,45.912a1.878,1.878,0,0,0,.587.092,1.829,1.829,0,0,0,1.145-.412.773.773,0,0,0,.377-.638c0-.881-1.748-1.264-2.364-1.391l-16.839-3.484,6.192-1.286c3.753-.779,11.838-2.745,13.534-6.777a2.049,2.049,0,0,0,.159-.8c0-1.465-1.41-2.276-2.6-2.777a22.7,22.7,0,0,0-8.181-1.577c-1.865-.048-3.746-.053-5.61.051a104.543,104.543,0,0,0-12.328,1.45,3.579,3.579,0,0,0-1.9,1.42,3.539,3.539,0,0,1,.185.809,3.747,3.747,0,0,0,.548.047,1.777,1.777,0,0,0,.5-.078c.829-.243,1.805-.409,2.655-.579l2.275-.455Zm32.1.525c-.164-.158-.673-.117-.849-.1l-1.192.1-.623.117-.347.155c-.274.117-.265.831-.256,1.051A77.045,77.045,0,0,1,306,40.71c-.16,1.951-.258,3.913-.258,5.871a5.209,5.209,0,0,0,.12,1.209c.108.438.2.7.668.681a2.522,2.522,0,0,0,1.214-.339l.761-.457a.751.751,0,0,0,.438-.638,15.5,15.5,0,0,0-.124-1.679,18.213,18.213,0,0,1-.139-1.925V43.39l.633-9.543.21-2.937A2.352,2.352,0,0,0,309.429,30.05Z" transform="translate(-72.696 -10.987)"/><path class="a" d="M271.643,8.459c.062-.219-.214-.649-.313-.8l-.649-1-.4-.494-.3-.233c-.233-.186-.857.158-1.047.27-3.177,1.863-6.749,4.246-9.94,5.953a5.232,5.232,0,0,0-1.01.676c-.335.3-.523.5-.285.91a1.854,1.854,0,0,0,.771.75l.185.111a.752.752,0,0,0,.769.086c3.145-1.683,5.418-3,8.813-4.541l2.688-1.2A2.344,2.344,0,0,0,271.643,8.459Z" transform="translate(-131.673)"/><path class="a" d="M45.476,21.224c6.975-2.164,13.23-1.977,13.974.418S55.141,27.732,48.167,29.9s-13.23,1.977-13.973-.417S38.5,23.388,45.476,21.224Z" transform="translate(-14.474 -7.257)"/><path class="a" d="M65.272,48.953c-.425-2.717-1.036-6.324-4.055-7.316a8.39,8.39,0,0,0-5.5.557c-5.027,1.927-10.249,3.716-15.265,6.086-7.159,3.382-14.128,6.446-21.363,9.737h0a.326.326,0,1,0,.282.579c5.134-2.344,10.348-4.416,15.557-6.23,9.831-3.422,17.947-4.193,25.962,3.97,1.267,1.459,2.206,3.094,3.473,4.553C65.535,61.917,65.442,50.042,65.272,48.953Z" transform="translate(-6.465 -18.62)"/><path class="a" d="M6.623,38.922c.425,2.717,1.036,6.324,4.055,7.315a8.393,8.393,0,0,0,5.5-.557c5.027-1.927,10.249-3.716,15.265-6.086,7.159-3.382,14.128-6.447,21.363-9.737h0a.326.326,0,1,0-.281-.579c-5.135,2.344-10.348,4.417-15.557,6.23-9.831,3.421-17.947,4.193-25.962-3.97C9.743,30.079,8.8,28.443,7.538,26.985,6.36,25.957,6.453,37.832,6.623,38.922Z" transform="translate(0 -11.036)"/><path class="a" d="M485.383,21.623c1.342-.652,2.546-.6,2.689.126s-.829,1.834-2.171,2.486-2.546.6-2.689-.126S484.041,22.275,485.383,21.623Z" transform="translate(-249.99 -8.019)"/></g></svg>