<svg xmlns="http://www.w3.org/2000/svg" xmlns:xlink="http://www.w3.org/1999/xlink" width="146.583" height="111.243" viewBox="0 0 146.583 111.243"><defs><style>.a{fill:none;}.b{fill:#8b8b8b;}.c{clip-path:url(#a);}.d{fill:#4e4e4e;}.e{fill:#fff;}.f{fill:#292929;}</style><clipPath id="a"><rect class="a" width="146.583" height="29.317"/></clipPath></defs><g transform="translate(-20.5 -6.83)"><g transform="translate(45.623 6.83)"><path class="b" d="M101.828,6.83l4.6,12.27,4.622-12.27h2.659v14.6h-1.84V9.284h-.041l-4.56,12.148h-1.656L101.051,9.284h-.041V21.432H99.169V6.83Z" transform="translate(-99.169 -6.83)"/><path class="b" d="M152.455,22.041a4.933,4.933,0,0,1,.982-1.759,4.621,4.621,0,0,1,1.615-1.176,5.919,5.919,0,0,1,4.428,0,4.648,4.648,0,0,1,1.605,1.176,4.938,4.938,0,0,1,.982,1.759,7.044,7.044,0,0,1,.327,2.178,6.944,6.944,0,0,1-.327,2.168,4.942,4.942,0,0,1-.982,1.748A4.528,4.528,0,0,1,159.48,29.3a6.058,6.058,0,0,1-4.428,0,4.5,4.5,0,0,1-1.615-1.166,4.937,4.937,0,0,1-.982-1.748,6.944,6.944,0,0,1-.327-2.168A7.044,7.044,0,0,1,152.455,22.041Zm1.769,3.886a3.571,3.571,0,0,0,.705,1.247,3.055,3.055,0,0,0,1.053.767,3.207,3.207,0,0,0,2.556,0,3.06,3.06,0,0,0,1.054-.767,3.587,3.587,0,0,0,.706-1.247,5.836,5.836,0,0,0,0-3.415,3.7,3.7,0,0,0-.706-1.258,3.012,3.012,0,0,0-1.054-.777,3.207,3.207,0,0,0-2.556,0,3.008,3.008,0,0,0-1.053.777,3.685,3.685,0,0,0-.705,1.258,5.835,5.835,0,0,0,0,3.415Z" transform="translate(-135.215 -14.894)"/><path class="b" d="M197.168,21.432V20h-.041a2.556,2.556,0,0,1-1.35,1.268,5.153,5.153,0,0,1-2.024.388,4.771,4.771,0,0,1-2.137-.45A4.395,4.395,0,0,1,190.1,20a5.263,5.263,0,0,1-.91-1.759,7.228,7.228,0,0,1-.306-2.127,7.457,7.457,0,0,1,.3-2.127,5.008,5.008,0,0,1,.9-1.749,4.344,4.344,0,0,1,1.513-1.186,4.811,4.811,0,0,1,2.116-.44,5.172,5.172,0,0,1,.88.082,4.463,4.463,0,0,1,.941.276,4.026,4.026,0,0,1,.89.511,2.807,2.807,0,0,1,.705.787h.041V6.83h1.739v14.6Zm-6.247-3.753a3.881,3.881,0,0,0,.593,1.258,2.9,2.9,0,0,0,1.023.879,3.1,3.1,0,0,0,1.462.327,2.871,2.871,0,0,0,2.5-1.258,3.8,3.8,0,0,0,.562-1.278,6.188,6.188,0,0,0-.01-2.955,3.725,3.725,0,0,0-.583-1.278,2.978,2.978,0,0,0-1.033-.889,3.221,3.221,0,0,0-1.534-.338,2.989,2.989,0,0,0-1.493.347,2.777,2.777,0,0,0-.982.92,4.013,4.013,0,0,0-.532,1.309,6.947,6.947,0,0,0-.164,1.513A5.4,5.4,0,0,0,190.921,17.679Z" transform="translate(-160.235 -6.83)"/><path class="b" d="M236.8,29.451a2.432,2.432,0,0,1-1.248.269,1.5,1.5,0,0,1-1.073-.378,1.645,1.645,0,0,1-.4-1.237,4.159,4.159,0,0,1-1.667,1.237,5.76,5.76,0,0,1-3.415.215,3.149,3.149,0,0,1-1.115-.511,2.446,2.446,0,0,1-.747-.91,3.062,3.062,0,0,1-.276-1.36,3.106,3.106,0,0,1,.307-1.472,2.676,2.676,0,0,1,.808-.931,3.7,3.7,0,0,1,1.145-.542q.644-.184,1.319-.307.716-.143,1.36-.215a7.539,7.539,0,0,0,1.135-.2,1.891,1.891,0,0,0,.777-.388A.95.95,0,0,0,234,21.97a1.74,1.74,0,0,0-.214-.92,1.478,1.478,0,0,0-.552-.532,2.245,2.245,0,0,0-.757-.245,5.717,5.717,0,0,0-.828-.061,3.679,3.679,0,0,0-1.841.419,1.78,1.78,0,0,0-.8,1.585h-1.738a3.752,3.752,0,0,1,.409-1.657,3.1,3.1,0,0,1,.982-1.094,4.128,4.128,0,0,1,1.4-.6,7.4,7.4,0,0,1,1.687-.184,9.92,9.92,0,0,1,1.421.1,3.721,3.721,0,0,1,1.278.418,2.447,2.447,0,0,1,.92.888,2.835,2.835,0,0,1,.347,1.489V27a4.034,4.034,0,0,0,.072.9q.071.286.481.286a1.72,1.72,0,0,0,.532-.1Zm-2.822-5.436a2.162,2.162,0,0,1-.859.358q-.532.113-1.115.184t-1.176.164a4.315,4.315,0,0,0-1.063.3A1.934,1.934,0,0,0,229,25.6a1.631,1.631,0,0,0-.3,1.033,1.412,1.412,0,0,0,.174.726,1.447,1.447,0,0,0,.45.481,1.884,1.884,0,0,0,.644.266,3.569,3.569,0,0,0,.777.082,4.109,4.109,0,0,0,1.473-.235,3.091,3.091,0,0,0,1-.593,2.344,2.344,0,0,0,.573-.777,1.971,1.971,0,0,0,.184-.788Z" transform="translate(-186.081 -14.894)"/><path class="b" d="M262.93,27.133a1.849,1.849,0,0,0,.644.634,2.9,2.9,0,0,0,.9.338,5.138,5.138,0,0,0,1.033.1,6.376,6.376,0,0,0,.859-.061,3.159,3.159,0,0,0,.828-.225,1.551,1.551,0,0,0,.624-.481,1.281,1.281,0,0,0,.245-.808,1.158,1.158,0,0,0-.511-1.023,4.354,4.354,0,0,0-1.278-.562q-.767-.215-1.667-.389a8.593,8.593,0,0,1-1.666-.491,3.447,3.447,0,0,1-1.278-.889,2.309,2.309,0,0,1-.511-1.6,2.535,2.535,0,0,1,.358-1.37,2.931,2.931,0,0,1,.92-.931,4.243,4.243,0,0,1,1.268-.532,5.858,5.858,0,0,1,1.4-.174,8.346,8.346,0,0,1,1.656.153,3.843,3.843,0,0,1,1.34.532,2.757,2.757,0,0,1,.931,1.023,3.883,3.883,0,0,1,.409,1.605h-1.739a1.668,1.668,0,0,0-.838-1.391,2.618,2.618,0,0,0-.767-.3,3.949,3.949,0,0,0-.849-.092,5.183,5.183,0,0,0-.788.061,2.637,2.637,0,0,0-.726.215,1.458,1.458,0,0,0-.532.409,1.031,1.031,0,0,0-.2.665.977.977,0,0,0,.317.747,2.526,2.526,0,0,0,.808.491,7.038,7.038,0,0,0,1.1.327q.613.133,1.227.276a13.2,13.2,0,0,1,1.278.347,4.177,4.177,0,0,1,1.1.542,2.65,2.65,0,0,1,.777.849,2.494,2.494,0,0,1,.3,1.268,2.947,2.947,0,0,1-.4,1.6,3.116,3.116,0,0,1-1.043,1.022,4.355,4.355,0,0,1-1.452.542,8.591,8.591,0,0,1-1.605.153,7.436,7.436,0,0,1-1.677-.184,4.106,4.106,0,0,1-1.411-.6,3.072,3.072,0,0,1-.982-1.1,3.83,3.83,0,0,1-.409-1.667h1.739A1.958,1.958,0,0,0,262.93,27.133Z" transform="translate(-209.268 -14.894)"/><g transform="translate(63.638 11.8)"><circle class="b" cx="1.319" cy="1.319" r="1.319" transform="translate(0 0)"/></g></g><g transform="translate(20.5 26.854)"><g transform="translate(0)"><path class="b" d="M13.294,0H127.018a13.294,13.294,0,0,1,13.294,13.294V31.882a13.294,13.294,0,0,1-13.294,13.294H13.294A13.294,13.294,0,0,1,0,31.882V13.294A13.294,13.294,0,0,1,13.294,0Z" transform="translate(1.795)"/><g transform="translate(0 22.588)"><g class="c"><path class="d" d="M13.132,0H127.181a13.132,13.132,0,0,1,13.132,13.132V32.045a13.132,13.132,0,0,1-13.132,13.132H13.132A13.132,13.132,0,0,1,0,32.045V13.132A13.132,13.132,0,0,1,13.132,0Z" transform="translate(1.795 -22.588)"/></g></g></g><g transform="translate(27.452 10.684)"><path class="e" d="M119.943,112.3c-.115-.856-.687-3.456-3.292-3.456-2.949,0-3.893,3.291-3.893,6.451s.944,6.451,3.893,6.451c2.118,0,2.948-1.711,3.32-3.917h6.183c0,4.74-3.349,9.775-9.332,9.775-6.613,0-10.362-5.364-10.362-12.309,0-7.405,4.065-12.309,10.362-12.309,5.61.033,8.7,3.423,9.246,9.314Z" transform="translate(-106.461 -102.987)"/><path class="e" d="M176.371,104.739h6.3v17.476h9.045v6.023H176.371Z" transform="translate(-154.045 -104.179)"/><path class="e" d="M232.837,104.739h6.3v23.5h-6.3Z" transform="translate(-192.478 -104.179)"/><path class="e" d="M274.282,112.3c-.115-.856-.687-3.456-3.292-3.456-2.949,0-3.893,3.291-3.893,6.451s.944,6.451,3.893,6.451c2.118,0,2.948-1.711,3.32-3.917h6.183c0,4.74-3.349,9.775-9.332,9.775-6.613,0-10.362-5.364-10.362-12.309,0-7.405,4.065-12.309,10.362-12.309,5.61.033,8.7,3.423,9.246,9.314Z" transform="translate(-211.511 -102.987)"/><path class="e" d="M331.248,104.739h6.3v8.1h.057l5.61-8.1h7.757l-7.414,9.182,8.616,14.316H344.33l-5.038-9.149-1.746,2.205v6.944h-6.3Z" transform="translate(-259.462 -104.179)"/></g><path class="f" d="M291.8,236.893l7.479-8.376L313.04,241.68l4.637-4.637L304.4,223.768l9.274-9.274-47.6-26.063Z" transform="translate(-187.649 -150.461)"/></g></g></svg>