<svg xmlns="http://www.w3.org/2000/svg" width="223.608" height="73.591" viewBox="0 0 223.608 73.591"><defs><style>.a{fill:#2f2f2f;}.b{fill:none;}</style></defs><g transform="translate(-4.351 -2.156)"><path class="a" d="M12.335,50.494V43.16a11.224,11.224,0,0,0,10.07-3.9,10.988,10.988,0,0,0,2.7-7.123h-.573a10.613,10.613,0,0,1-4.661,8.622,10.465,10.465,0,0,1-7.524,1.785V21.366A10.733,10.733,0,0,1,24.525,31.883h.517c.306-5.463-4.86-12.016-12.693-11.119V13.428l22,17.937Z" transform="translate(-4.35 -6.142)"/><path class="a" d="M12.335,43.16a11.224,11.224,0,0,0,10.07-3.9,10.988,10.988,0,0,0,2.7-7.123h-.573a10.613,10.613,0,0,1-4.661,8.622,10.464,10.464,0,0,1-7.524,1.785V21.366A10.733,10.733,0,0,1,24.525,31.883h.517c.306-5.463-4.86-12.016-12.693-11.119V13.428l22,17.937L12.335,50.494Zm28.678,1a11.569,11.569,0,0,1-6.81,5.267,18.252,18.252,0,0,1-5.471.937c-5.093.089-10.186.1-15.279.143a2.986,2.986,0,0,1-.324-.044c.128-.135.2-.224.284-.3,1.72-1.49,3.439-2.983,5.17-4.46a.926.926,0,0,1,.554-.2c2.375-.012,4.75.015,7.124-.01a16.365,16.365,0,0,0,5.73-.88,4.639,4.639,0,0,0,3.271-3.666,5.567,5.567,0,0,0-3.255-6.4c-.088-.041-.175-.088-.309-.156.605-.522,1.189-1.025,1.771-1.528s1.168-1.011,1.784-1.544l-2.264-1.874-2.271-1.878a1.581,1.581,0,0,1,.118-.106,4.489,4.489,0,0,0,1.83-4.367,4.1,4.1,0,0,0-2.687-3.576,11.522,11.522,0,0,0-4.311-.88c-1.77-.058-3.543-.052-5.314-.056a1.3,1.3,0,0,1-.9-.318c-1.8-1.507-3.619-3-5.431-4.494-.066-.054-.127-.113-.231-.205.132-.014.222-.032.311-.032,3.507,0,7.014-.023,10.52.011A25.915,25.915,0,0,1,32.868,14.8a10.519,10.519,0,0,1,5.016,3.236A8.332,8.332,0,0,1,39.489,25.6a6.757,6.757,0,0,1-3.008,3.924c-.573.389-1.193.71-1.814,1.074.49.15.974.277,1.444.445a8.741,8.741,0,0,1,4.9,13.118Zm8.42,7.527a3.936,3.936,0,1,1,3.93-3.926A3.953,3.953,0,0,1,49.433,51.691Z" transform="translate(-4.35 -6.142)"/><path class="a" d="M12.349,13.428v7.336c7.833-.9,13,5.656,12.693,11.119h-.517A10.733,10.733,0,0,0,12.346,21.366V42.543a10.464,10.464,0,0,0,7.524-1.785,10.613,10.613,0,0,0,4.661-8.622H25.1a10.988,10.988,0,0,1-2.7,7.123,11.224,11.224,0,0,1-10.07,3.9v7.335L34.346,31.365Z" transform="translate(-4.35 -6.142)"/><path class="a" d="M53.162,2.156H5.606A1.6,1.6,0,0,0,4.351,3.264v44.97a1.553,1.553,0,0,0,1.715,1.122q23.327-.02,46.654-.01c.135,0,.271,0,.406,0a1.3,1.3,0,0,0,1.222-1,2.861,2.861,0,0,0,.058-.658q0-21.888,0-43.776C54.408,2.827,54.176,2.5,53.162,2.156Zm-.584,44.565c0,.767-.141.91-.894.91H7.084c-.755,0-.894-.142-.894-.909V4.817c0-.779.12-.9.893-.9h44.6c.774,0,.895.122.895.9Z"/><path class="a" d="M305.506,52.313h.454L295.019,35.966l9.921-9.633h-.453c-1.624,0-3.249.007-4.873-.006a.808.808,0,0,0-.64.273q-4.879,4.962-9.77,9.913c-.1.1-.2.194-.374.355V16.457h-4.385V52.286h4.392v-.463q0-4.744.006-9.488a.7.7,0,0,1,.146-.46c.963-.951,1.943-1.884,2.943-2.847.091.137.174.256.253.377q4.055,6.275,8.1,12.554a.689.689,0,0,0,.68.361C302.478,52.3,303.992,52.313,305.506,52.313Z" transform="translate(-152.613 -7.792)"/><path class="a" d="M171.841,63.148a13.055,13.055,0,0,0,10.064-.308,10.57,10.57,0,0,0,6.209-7.281,22.458,22.458,0,0,0,.622-5.524,18.045,18.045,0,0,0-.42-4.023,11.274,11.274,0,0,0-6.575-8.192,12.588,12.588,0,0,0-7.375-.834c-4.335.729-7.508,3.038-8.992,7.254a18.5,18.5,0,0,0-.061,12.137A10.357,10.357,0,0,0,171.841,63.148Zm-2.48-16.755a10.2,10.2,0,0,1,.422-1.286,7.249,7.249,0,0,1,11.164-3.189,8.1,8.1,0,0,1,2.959,5.118,16.219,16.219,0,0,1-.473,8.34,6.938,6.938,0,0,1-5.148,4.773,7.23,7.23,0,0,1-8.72-5.067q-.094-.286-.17-.574c-.095-.354-.17-.71-.232-1.068-.011-.065-.022-.129-.032-.193a19.791,19.791,0,0,1-.22-2.858A16.933,16.933,0,0,1,169.361,46.393Z" transform="translate(-87.161 -18.865)"/><path class="a" d="M230.782,61.6a11.675,11.675,0,0,0,10.952,1.809c3.9-1.178,6.093-4.047,7.013-7.948.077-.33.129-.666.2-1.028l-4.3-.563c-.091.448-.16.847-.256,1.24a6.853,6.853,0,0,1-2.077,3.742,6.783,6.783,0,0,1-10.754-3.315,18.25,18.25,0,0,1-.325-9.049,7.369,7.369,0,0,1,2.19-4.176,6.789,6.789,0,0,1,6.718-1.6,5.667,5.667,0,0,1,3.884,4.149c.089.276.168.554.253.837l4.232-.654a.707.707,0,0,0,.007-.127c-.045-.2-.088-.409-.14-.611a9.152,9.152,0,0,0-5.879-6.781,12.436,12.436,0,0,0-6.873-.459,10.285,10.285,0,0,0-8.3,7.07,20.168,20.168,0,0,0-.519,10.881A10.794,10.794,0,0,0,230.782,61.6Z" transform="translate(-120.929 -18.867)"/><path class="a" d="M224.52,118.576a6.5,6.5,0,0,0-.84-.105c-.969-.1-.836-.233-1.317.7a.623.623,0,0,1-.737.411,1.006,1.006,0,0,0-1.131.494.6.6,0,0,1-.614.3,1.979,1.979,0,0,0-1.481.406c-.289.258-.434.2-.609-.164-.24-.5-.449-1.012-.714-1.5a4.444,4.444,0,0,0-.676-.955,1.242,1.242,0,0,0-1.49-.3,7,7,0,0,0-2.146,1.475,3.4,3.4,0,0,1-.533.374,4.562,4.562,0,0,1,.032-.657,9.943,9.943,0,0,0,.3-1.43.91.91,0,0,0-1.31-.935,3.892,3.892,0,0,0-.8.372c-.532.331-1.066.665-1.562,1.046a11.123,11.123,0,0,1-3.688,1.776.4.4,0,0,0-.254.212.583.583,0,0,1-.542.472,4.031,4.031,0,0,1-.9.039.724.724,0,0,0-.762.329c-.152.254-.333.209-.527.094a.45.45,0,0,1-.218-.629,7.749,7.749,0,0,1,.885-1.387,1.715,1.715,0,0,0,.474-1.393.962.962,0,0,0-.578-.936,4.3,4.3,0,0,1-1.42-1.091c-.224-.228-.443-.463-.684-.673a1.276,1.276,0,0,0-1.983.056,4.648,4.648,0,0,1-.787.589,8.538,8.538,0,0,0-3.206,3.085.387.387,0,0,1-.246.185,1.381,1.381,0,0,0-.94.531,1.715,1.715,0,0,1-1.383.615,10.708,10.708,0,0,0-1.671.261,1.029,1.029,0,0,0-.365.155,5.619,5.619,0,0,1-4.254.69c-.3-.053-.322-.219-.259-.451a1.266,1.266,0,0,1,.722-.794q.886-.452,1.785-.879a2,2,0,0,0,1.228-2.207,1.6,1.6,0,0,0-1.195-1.468,1.424,1.424,0,0,0-1.537.541c-.094.1-.17.212-.267.3a1.934,1.934,0,0,1-.413.353,3.121,3.121,0,0,0-1.385,1.432,1.239,1.239,0,0,1-1.434.6c.712-.817.894-1.211.8-1.767a2.171,2.171,0,0,0-.181.128c-.193.167-.36.437-.577.486a4.188,4.188,0,0,0-1.628.9,1.043,1.043,0,0,1-.478.249,2.9,2.9,0,0,0-1.543.627.847.847,0,0,1-.325.168,2.006,2.006,0,0,1-.419.005,1.264,1.264,0,0,1,.019-.371c.278-.76.59-1.508.848-2.274a11.123,11.123,0,0,0,.367-1.5c.081-.436-.1-.832-.421-.878a1.68,1.68,0,0,0-1.457.308,9.4,9.4,0,0,1-2.317,1.961c-.022.009-.056.027-.057.044a2.537,2.537,0,0,0-.015.675.659.659,0,0,0,.5.035,2.753,2.753,0,0,0,.664-.52.868.868,0,0,1,.979-.23,1.383,1.383,0,0,1-.027.259q-.578,1.9-1.165,3.789a1.118,1.118,0,0,1-.191.355.672.672,0,0,1-.28.222,15.449,15.449,0,0,0-2.467,1.186c-1.1.615-2.016,1.469-3.083,2.117-.676.411-1.2,1.059-1.863,1.5a32.37,32.37,0,0,0-5.211,4.56,1.071,1.071,0,0,0-.264.347c-.28.81-.589,1.615-.794,2.445a2.4,2.4,0,0,0,.055,1.619c.571,1.273,3.232,1.611,4.108.522.4-.5.876-.928,1.318-1.389a3.667,3.667,0,0,0,.4-.421,7.358,7.358,0,0,1,1.828-1.958.555.555,0,0,0,.114-.093c.391-.471.766-.957,1.173-1.414,1.407-1.581,2.464-3.43,3.858-5.02.176-.2.372-.385.548-.586a2.22,2.22,0,0,0,.473-.6,18.881,18.881,0,0,1,1.481-2.619.532.532,0,0,1,.478-.333,1.893,1.893,0,0,0,1.826-.8c.01-.018.04-.026.063-.036l1.527-.645a3.83,3.83,0,0,0,.333.856,9.716,9.716,0,0,0,.872.989,3.832,3.832,0,0,0,2.436,1.342c1.2.119,2.4.132,3.6.174a3.957,3.957,0,0,0,2.185-.641,6.511,6.511,0,0,1,1.531-.619,2.309,2.309,0,0,0,1.5-.794.316.316,0,0,1,.086-.068c.33-.23.382-.2.584.137.237.4.51.774.761,1.163a1.774,1.774,0,0,0,1.994.638,1.4,1.4,0,0,0,.945-.588.557.557,0,0,1,.979-.035,2.6,2.6,0,0,0,3.784.169,1.158,1.158,0,0,1,.5-.28c.281-.064.579-.046.866-.091a10.45,10.45,0,0,0,1.15-.236,4.155,4.155,0,0,0,.88-.347c.72-.394,1.416-.832,2.14-1.218a2.931,2.931,0,0,1,.873-.274c.54-.094.765.148.6.664a4.153,4.153,0,0,0-.332,1.673c.013.132-.02.222.1.295a2.133,2.133,0,0,0,1.954-.2c.431-.42.806-.9,1.246-1.307a11.541,11.541,0,0,1,1.344-1.067.472.472,0,0,1,.734.239,3.872,3.872,0,0,1,.3.864,2.043,2.043,0,0,0,2.349,1.6c.958-.209,1.906-.47,2.844-.754a.649.649,0,0,0,.327-.5.47.47,0,0,1,.344-.48,11.615,11.615,0,0,1,2.55-1.11.744.744,0,0,0,.639-.927A.4.4,0,0,0,224.52,118.576Zm-37.682-1.52c.147-.186.557-.163.878-.242.053.968-.138,1.166-1.4,1.459A4.988,4.988,0,0,1,186.838,117.056Zm-12,7.195c-.688.823-1.307,1.7-1.956,2.56-.137.182-.274.364-.418.54q-1.031,1.265-2.065,2.527c-.038.047-.052.115-.093.157-1.245,1.278-2.21,2.836-3.8,3.771a.513.513,0,0,0-.175.185,1.5,1.5,0,0,1-1.432.731.613.613,0,0,1-.468-.242,4.012,4.012,0,0,1-.319-2.581.894.894,0,0,1,.2-.348,10.206,10.206,0,0,1,1.924-2.113c1.127-.85,2.163-1.821,3.234-2.744.444-.383.877-.779,1.314-1.169.018-.016.033-.044.053-.05,1.028-.259,1.6-1.353,2.707-1.477.122-.014.243-.15.342-.252a2.247,2.247,0,0,1,1.229-.753A1.111,1.111,0,0,1,174.843,124.251Zm26.374-5.728a4.51,4.51,0,0,0-.68.724,3.406,3.406,0,0,1-2.83,1.382c-.074,0-.147.005-.221.013-.3.03-.6.164-.835-.169a1.2,1.2,0,0,1-.252-1.2,3.387,3.387,0,0,1,.669-1.08,24.4,24.4,0,0,1,2.012-1.725.807.807,0,0,1,.625-.043,15.34,15.34,0,0,1,1.448.527c.406.165.266.558.323.861A.655.655,0,0,1,201.217,118.523Z" transform="translate(-86.111 -61.083)"/><path class="a" d="M145.247,38.136c-.522-.272-1.046-.548-1.591-.768a6.667,6.667,0,0,0-3.361-.483,4.952,4.952,0,0,0-3.476,2.146c-.511.7-.976,1.441-1.519,2.249v-3.82h-3.914V63.4h4.368v-.447q0-6.589,0-13.179a15.991,15.991,0,0,1,.8-5.264,4.3,4.3,0,0,1,3.362-3.033,5.464,5.464,0,0,1,3.633.656c.126.066.253.129.4.206.492-1.321.976-2.607,1.441-3.9A.35.35,0,0,0,145.247,38.136Z" transform="translate(-69.217 -18.896)"/><g transform="translate(147.996 47.601)"><path class="b" d="M328.7,142.192a32.711,32.711,0,0,0-2.714,3.735c-.33.575-.7,1.131-.987,1.726a11.612,11.612,0,0,0-.476,1.415c.771-.12,1.316-.31,1.613-.924.1-.2.263-.357.371-.549.427-.756.642-1.648,1.421-2.181.082-.056.064-.241.134-.334.24-.315.5-.614.751-.923a1.676,1.676,0,0,0,.341-.469,4.256,4.256,0,0,1,.8-1.8,1.68,1.68,0,0,0,.155-.249A1.86,1.86,0,0,0,328.7,142.192Z" transform="translate(-322.447 -123.603)"/><path class="a" d="M346.583,112.423c-.123-.763-.247-1.526-.365-2.29A1.28,1.28,0,0,0,345.187,109a1.9,1.9,0,0,0-1.576.342c-.91.624-1.777,1.312-2.656,1.981a1.543,1.543,0,0,0-.659.941c-.05.256-.2.386-.519.381-1.4-.025-2.805-.011-4.209-.011h-.422a2,2,0,0,1,.189-.517,17.288,17.288,0,0,1,1.142-1.385c.583-.612,1.267-1.135,1.8-1.783,1.54-1.866,3.027-3.776,4.533-5.671a1.81,1.81,0,0,0,.441-1.271,2.2,2.2,0,0,0-1.618.716c-.758.754-1.467,1.557-2.2,2.335-.927.98-1.823,1.993-2.8,2.921-1.111,1.054-2.2,2.12-3.223,3.262a.631.631,0,0,1-1.04.071.915.915,0,0,1-.243-.274,1.05,1.05,0,0,0-1.227-.613c-.061.005-.133-.025-.182,0-.178.085-.407.144-.51.289a11.027,11.027,0,0,0-.641,1.108c-.328.6-.316.7.112,1.233a1.476,1.476,0,0,1,.029,2.158c-.383.5-.788.977-1.187,1.461a.5.5,0,0,1-.192.166c-1.011.35-1.6,1.254-2.422,1.851a15.653,15.653,0,0,0-1.389,1.263.371.371,0,0,0-.086.118,10.943,10.943,0,0,1-2.094,2.835,6.245,6.245,0,0,0-1.415,2.139,3.619,3.619,0,0,1-.734,1.251.757.757,0,0,0-.189.419c-.03.639-.054,1.28-.034,1.919a2.029,2.029,0,0,0,.676,1.351c.285.292.6.116.9.121.086,0,.172-.011.258-.011a2.113,2.113,0,0,0,2.165-1.5,1.82,1.82,0,0,1,.086-.2c.033-.064.061-.151.116-.182a2.186,2.186,0,0,0,.965-1.162,2.18,2.18,0,0,1,.39-.486c.147-.181.291-.365.441-.544a12.965,12.965,0,0,1,.922-1.08.951.951,0,0,0,.341-.655,1.494,1.494,0,0,1,.639-1.227.88.88,0,0,0,.419-.83,2.232,2.232,0,0,1,.765-1.864,8,8,0,0,0,.638-.764,3.168,3.168,0,0,0,.843-1.881,5.849,5.849,0,0,1,.1-.767.847.847,0,0,1,.2-.407q.976-.982,1.979-1.936a.61.61,0,0,1,.378-.166c.541,0,1.081.033,1.622.054a17.505,17.505,0,0,0,3.571-.044c.506-.084,1.02-.123,1.532-.161a.358.358,0,0,1,.278.154,4.05,4.05,0,0,0,1.624,1.516.575.575,0,0,0,.375.052,5.084,5.084,0,0,0,2.372-1.354c.6-.544,1.184-1.111,1.789-1.654A.591.591,0,0,0,346.583,112.423Zm-19.111,7.872a4.255,4.255,0,0,0-.8,1.8,1.677,1.677,0,0,1-.341.469c-.249.309-.511.607-.751.923-.071.093-.052.278-.134.334-.779.533-.994,1.424-1.421,2.181-.109.192-.276.352-.371.549-.3.614-.842.8-1.613.924a11.612,11.612,0,0,1,.476-1.415c.289-.595.656-1.152.987-1.726a32.712,32.712,0,0,1,2.714-3.735,1.86,1.86,0,0,1,1.414-.548A1.683,1.683,0,0,1,327.472,120.295Zm16.411-6.887a2.875,2.875,0,0,1-.563.345c-.21.081-.495.2-.661.117-.285-.136-.564-.38-.46-.67.05-.465.064-.81.127-1.146a.976.976,0,0,1,1.659-.548,1.052,1.052,0,0,1,.076.08C344.869,112.446,344.841,112.744,343.883,113.408Z" transform="translate(-319.958 -102.005)"/></g><path class="a" d="M480.172,123.908a4.746,4.746,0,0,0-.755-.154,1.271,1.271,0,0,1-.989-.514,1.019,1.019,0,0,0-1-.541c-.107.018-.282-.149-.368-.271-.4-.56-.746-1.155-1.166-1.7a.524.524,0,0,0-.888-.034c-.282.286-.5.634-.756.947a2.277,2.277,0,0,1-.312.286,4.2,4.2,0,0,0-.684.58.576.576,0,0,1-.58.28,1.828,1.828,0,0,0-1.282.331,2.5,2.5,0,0,1-.872.376c-.481.094-.845,0-.58-.633.2-.487.431-.964.633-1.451.121-.292.211-.6.336-.957a2.944,2.944,0,0,0-.331-.395c-.109-.093-.27-.123-.386-.21-.29-.22-.511-.134-.723.117a9.481,9.481,0,0,0-1.683,2.917.538.538,0,0,0,.007.281,7.111,7.111,0,0,1,.2.852.742.742,0,0,0,.639.747c1.4.225,2.836.609,4.077-.513.085-.077.227-.086.331-.147a3.849,3.849,0,0,0,.765-.488c.614-.6.93-.639,1.6-.119a3.9,3.9,0,0,0,.653.479c.392.189.813.318,1.219.481.343.138.685.28,1.02.437.153.072.295.275.429.264a1.9,1.9,0,0,0,1.626-.692C480.533,124.193,480.491,124.01,480.172,123.908Z" transform="translate(-252.5 -64.06)"/><path class="a" d="M429.865,118.8c-.12-.652-.234-1.305-.337-1.96a1.285,1.285,0,0,0-1.056-1.155,1.764,1.764,0,0,0-1.442.288c-.914.618-1.791,1.293-2.674,1.955a1.594,1.594,0,0,0-.55.535c-.2.482-.553.473-.965.432a3.1,3.1,0,0,0-2.14.465,4,4,0,0,1-.771.431c-.33.129-.684.2-1.028.3l-.089-.13a3.306,3.306,0,0,1,.433-.743c.538-.536,1.117-1.03,1.68-1.54.1-.09.238-.161.29-.273.219-.467.419-.942.611-1.421.1-.256.013-.451-.274-.477a2.909,2.909,0,0,0-2.332.413c-1.209.965-2.511,1.816-3.786,2.7a3.5,3.5,0,0,1-1.015.512c-.467.13-.907-.053-.8-.67a2.718,2.718,0,0,1,.779-1.477c.552-.558,1.156-1.065,1.733-1.6a5.053,5.053,0,0,0,.344-.391c-.212-.179-.365-.322-.532-.446a.837.837,0,0,0-1.152-.043,10.1,10.1,0,0,0-1.561,1.334,11.514,11.514,0,0,0-1.895,3.148,1.331,1.331,0,0,0,.99,1.929,2.681,2.681,0,0,0,1.835-.175c.511-.238,1.019-.485,1.533-.718a5.208,5.208,0,0,1,.556-.171c-.122.225-.158.375-.254.45-.246.193-.518.354-.781.525-.283.184-.285.269.042.488-.192.1-.353.21-.527.283a29.666,29.666,0,0,0-7.62,4.654,8.2,8.2,0,0,0-1.859,2.132,1.876,1.876,0,0,1-.4.469,6.067,6.067,0,0,0-1.8,1.917,7.111,7.111,0,0,1-1.51,2.07,5.674,5.674,0,0,0-.918,1.28.969.969,0,0,0,.163,1.2,1.179,1.179,0,0,0,1.248.48,7.689,7.689,0,0,0,4.246-3.073,1.374,1.374,0,0,1,.542-.472,2.677,2.677,0,0,0,1.576-1.584,1.307,1.307,0,0,1,.43-.575,24.238,24.238,0,0,0,3.268-2.957c.026-.025.042-.061.069-.086.256-.241.521-.473.77-.722a6.142,6.142,0,0,0,1.179-1.246,7.357,7.357,0,0,1,2.85-2.893.377.377,0,0,0,.061-.042,1.474,1.474,0,0,1,.984-.343c.79-.044,1.587-.059,2.367-.18a7.169,7.169,0,0,0,2.832-.725.845.845,0,0,1,.166-.053,3.675,3.675,0,0,0,1.563,1.714.831.831,0,0,0,.791.1,5.8,5.8,0,0,0,2.151-1.322c.555-.506,1.078-1.048,1.657-1.524A.933.933,0,0,0,429.865,118.8ZM410.033,127.3c-1.361,1.243-2.672,2.542-3.976,3.845a16.157,16.157,0,0,0-1.2,1.448,1.94,1.94,0,0,1-1.358.644c-.07.01-.151-.055-.216-.08,0-.051-.014-.081,0-.1a16.885,16.885,0,0,1,4.035-4.983c1.127-.89,2.27-1.76,3.412-2.631a1.991,1.991,0,0,1,.44-.191l.077.114A6.99,6.99,0,0,1,410.033,127.3Zm17.158-7.2a2.641,2.641,0,0,1-.531.328c-.222.085-.513.214-.693.137-.31-.133-.569-.406-.458-.707.047-.45.066-.781.12-1.107s.167-.675.539-.766a1.284,1.284,0,0,1,1.172.265c.009.008.016.018.025.027C428.177,119.142,428.151,119.433,427.191,120.1Z" transform="translate(-215.84 -61.096)"/><path class="a" d="M390.242,119.953a1.17,1.17,0,0,0-.022-1.415c-.173.1-.323.18-.469.268-.506.3-1,.634-1.519.908a5.311,5.311,0,0,1-1.161.451c-.468.118-.679-.069-.666-.548s.059-.956.112-1.432a.957.957,0,0,1,.175-.33,3.294,3.294,0,0,0,.564-.966,2.879,2.879,0,0,0-.9-2.647.77.77,0,0,0-.44-.238,1.481,1.481,0,0,0-1.5.567.929.929,0,0,1-.284.219c-.285.19-.588.357-.857.567-.54.421-.845,1.055-1.465,1.442a15.973,15.973,0,0,0-1.76,1.592.712.712,0,0,0-.235.849,1,1,0,0,0,.629.472c.588.134,1-.367,1.277-.7a12.871,12.871,0,0,1,1.832-2,1.229,1.229,0,0,0,.386-.452.462.462,0,0,1,.578-.324.467.467,0,0,1,.362.565,4.532,4.532,0,0,1-.345.8,1.271,1.271,0,0,0-.171.429c-.015.935-.023,1.871,0,2.805a1.283,1.283,0,0,0,1.064,1.268,3.635,3.635,0,0,0,2.055-.175A4.732,4.732,0,0,0,390.242,119.953Z" transform="translate(-204.547 -60.939)"/><path class="a" d="M305.671,118.639h-.162a2.129,2.129,0,0,0-1.469.3,1.584,1.584,0,0,1-.6.218,7.832,7.832,0,0,0-2.748.763.642.642,0,0,0-.051.933,1.324,1.324,0,0,0,2.1-.553,1.248,1.248,0,0,1,.112-.271c.084-.11.179-.249.3-.287a2.083,2.083,0,0,1,1.545.044,1.369,1.369,0,0,1,.484.473c.126.181.1.357-.157.455a3.928,3.928,0,0,0-.687.351,3.2,3.2,0,0,1-1.205.5,1.285,1.285,0,0,0-1.092,1.107,2.789,2.789,0,0,0,.441,2.109.372.372,0,0,0,.488.176c.526-.165,1.049-.351,1.586-.469a1.6,1.6,0,0,0,1.155-1.026,5.814,5.814,0,0,1,.529-.832,5.619,5.619,0,0,0,.371-.491,3.867,3.867,0,0,0,.4-2.288C306.9,118.928,306.57,118.646,305.671,118.639Z" transform="translate(-161.338 -63.455)"/><path class="a" d="M37.061,31.169c-.47-.168-.954-.295-1.444-.445.621-.365,1.241-.685,1.814-1.074a6.757,6.757,0,0,0,3.008-3.924,8.332,8.332,0,0,0-1.606-7.572,10.519,10.519,0,0,0-5.016-3.236,25.915,25.915,0,0,0-8.243-1.247c-3.506-.034-7.013-.011-10.52-.011-.089,0-.178.018-.311.032.1.092.166.151.231.205,1.812,1.5,3.628,2.987,5.431,4.494a1.3,1.3,0,0,0,.9.318c1.771,0,3.544,0,5.314.056a11.522,11.522,0,0,1,4.311.88,4.1,4.1,0,0,1,2.687,3.576,4.489,4.489,0,0,1-1.83,4.367,1.581,1.581,0,0,0-.118.106l2.271,1.878L36.2,31.447c-.616.533-1.2,1.039-1.784,1.544S33.253,34,32.648,34.519c.135.068.221.114.309.156a5.567,5.567,0,0,1,3.255,6.4,4.639,4.639,0,0,1-3.271,3.666,16.365,16.365,0,0,1-5.73.88c-2.374.025-4.749,0-7.124.01a.926.926,0,0,0-.554.2c-1.731,1.478-3.449,2.97-5.17,4.46-.085.074-.157.163-.284.3a2.986,2.986,0,0,0,.324.044c5.093-.041,10.187-.054,15.279-.143a18.252,18.252,0,0,0,5.471-.937,11.569,11.569,0,0,0,6.81-5.267,8.741,8.741,0,0,0-4.9-13.118Z" transform="translate(-5.3 -6.264)"/><path class="a" d="M89.1,80.2a3.936,3.936,0,1,0,3.947,3.945A3.95,3.95,0,0,0,89.1,80.2Z" transform="translate(-44.037 -42.525)"/></g></svg>