<svg xmlns="http://www.w3.org/2000/svg" width="186.558" height="71.841" viewBox="0 0 186.558 71.841"><defs><style>.a{fill:#3e3e3e;}</style></defs><g transform="translate(-228.344 -402.768)"><path class="a" d="M228.344,403.2h9.08q.36,0,1.166,2.416l7.163,18.074h.083v-.166q-.75-2.195-7.83-19.908h.082q.556.225,2.083,4.665.486.986,5.832,14.744h.083l7.663-19.825h8.579c.083,0,.195.11.333.333v.5a.148.148,0,0,1-.166.168h-.916a3.211,3.211,0,0,0-3.332,2.414,6.344,6.344,0,0,0-.334,2.165v16.411a4.637,4.637,0,0,0,1.334,3.749v-.085a4.777,4.777,0,0,1-1-3.33v-16.41q0-3.565,2.415-4.413a4.576,4.576,0,0,1,1.166-.168h.917c.083,0,.166-.083.25-.249v-.251l-.084-.416a1.037,1.037,0,0,1,.584.834v.5l-.417.085h-.668q-3.664,0-3.664,4.914v15.66q.167,3.748,1.333,3.749a3.756,3.756,0,0,0,1.582.248h.666c.083,0,.195.111.333.335v.667l-.582.083H249.084c-.426,0-.676-.112-.749-.334v-.75h1.083q3.746,0,3.747-4.83V410.2h-.084q-7.83,20.519-8.246,21.238a.618.618,0,0,1-.25.086,1.292,1.292,0,0,1-1-.668l.417.083h.251q.249,0,1.332-3.247,7.579-19.227,7.58-19.743v-.833h-.084q0,.183-8.995,23.491a.6.6,0,0,0-.25.083q-.737,0-1.333-2.333-2.5-6.051-7.58-19.324h-.084v15.161q0,4.426,2,5.079a10.417,10.417,0,0,0,1.832.416c0,.055.057.086.167.086v.747a.149.149,0,0,1-.167.168h-8.746q-.43,0-1.415-.083a.608.608,0,0,0-.166-.334v-.668h.416q2.75,0,3.915-3a7.468,7.468,0,0,0,.417-2.748V408.868q-.139-3.418-1-3.415a6.1,6.1,0,0,0-2.834-.5l-.5-.5v-.083a7.89,7.89,0,0,0,2.249.248,4.654,4.654,0,0,1,1.166.667V405.2a3.33,3.33,0,0,0-2.5-1h-.749a1.285,1.285,0,0,1-.583-.251Zm10.744,26.821h.084a1.191,1.191,0,0,1,.583,1.084.444.444,0,0,1-.5.417h-9.412a1.148,1.148,0,0,1-1-.5v-.086h10.328v-.748Zm-8.746-.249v.166h.168c.084,0,.194-.111.333-.335a1,1,0,0,1-.5.169m.667.166h.166a36.665,36.665,0,0,0,2.749-2.749v-.085h-.082q-.168.069-2.833,2.834m.5-25.989v.083h.166c.083,0,.194-.11.333-.333h-.25c-.083,0-.167.085-.25.25m2.5,23.573-2.333,2.416h.25a28.353,28.353,0,0,0,2.249-2.249.147.147,0,0,0-.166-.168m-2.083-23.239.168.083.582-.668h-.166c-.084,0-.278.2-.584.584m.417.249c.018.113.074.168.167.168l.916-1h-.25q-.111,0-.833.833m.083,25.406h.167a17.04,17.04,0,0,0,1.832-1.833v-.085h-.083a18.3,18.3,0,0,0-1.916,1.917m.25-24.99v.168a10.017,10.017,0,0,0,1.416-1.418h-.167a8.99,8.99,0,0,0-1.249,1.25m.083,22.741h.084q0-.11.916-.916a.657.657,0,0,1-.082-.251,2.534,2.534,0,0,0-.917,1.167m.166-22.325v.168h.084a16.8,16.8,0,0,0,1.832-1.834h-.25a14.1,14.1,0,0,0-1.666,1.666m.168.585.166.083,2.249-2.333h-.166a25.389,25.389,0,0,0-2.249,2.251m1.5,22.405-1.5,1.584h.249a10.03,10.03,0,0,0,1.417-1.416.148.148,0,0,0-.168-.168m-1.332-1.915h.083l.167-.251v-.165c-.092,0-.177.138-.25.416m.584-20.574a.659.659,0,0,1,.249.083l2.166-2.251h-.25a23.88,23.88,0,0,0-2.165,2.167m0,24.073h.166a5.452,5.452,0,0,0,1.083-1.084v-.083h-.084a7.035,7.035,0,0,0-1.165,1.167m.166-22.99v16.992q0,3.318,1.665,4.665v-.083q-1.331-1.264-1.332-4.248V407.784l-.25-.833Zm.25-.75.166.086,2.5-2.584h-.166a34.855,34.855,0,0,0-2.5,2.5m.25.417v.251l2.831-2.751a.633.633,0,0,1-.083-.248q-.125.028-2.748,2.748m0,23.324h.25c.073,0,.323-.252.749-.75v-.083h-.166q-.112,0-.833.833m.166-22.739v.083h.084a37.157,37.157,0,0,0,2.748-2.75v-.083h-.082q-.127.026-2.75,2.749m.166.417a.622.622,0,0,1,.084.248l2.832-2.748a.653.653,0,0,1-.083-.251Zm.251.582v.083h.083a36.89,36.89,0,0,0,2.749-2.748v-.083h-.084q-.124.029-2.748,2.748m.166.5c.018.11.075.168.166.168l2.665-2.75v-.166h-.082q-.124.028-2.749,2.748m0,21.241h.166c.075,0,.241-.166.5-.5v-.082h-.084c-.083,0-.277.193-.583.583m2.915-23.489-2.665,2.747v.168q.167-.069,2.832-2.833Zm-2.5,3.249v.083h.084a37.147,37.147,0,0,0,2.749-2.75v-.083h-.084q-.124.028-2.749,2.75m.251.5v.166a37.288,37.288,0,0,0,2.748-2.747v-.168q-.123.028-2.748,2.75m0,19.741h.249c.084,0,.167-.083.251-.252v-.083h-.166c-.084,0-.195.111-.333.335m2.832-21.992-2.666,2.75v.166q.168-.07,2.833-2.831Zm-2.5,3.333.166.083,2.665-2.747v-.166q-.166.069-2.831,2.831m.25.417v.168a37.486,37.486,0,0,0,2.748-2.75v-.165q-.124.027-2.748,2.747m2.832-2.249-2.666,2.748v.168h.084a36.9,36.9,0,0,0,2.748-2.75.147.147,0,0,0-.166-.166m-2.582,20.325-.084.166h.25a.147.147,0,0,0-.166-.166m.084-16.993.167.083,2.665-2.748v-.167q-.166.069-2.832,2.832m2.915-2.333-2.665,2.75v.248q.166-.068,2.831-2.83a.148.148,0,0,0-.166-.168m-2.5,3.333v.083h.083a36.907,36.907,0,0,0,2.749-2.747v-.168q-.165.068-2.832,2.833m.168.417a.622.622,0,0,1,.082.251l2.832-2.75a.639.639,0,0,1-.083-.249Zm.249.582v.085h.083a36.976,36.976,0,0,0,2.749-2.75v-.083h-.083q-.126.027-2.749,2.747m.166.5c.018.113.075.168.167.168l2.665-2.749v-.251q-.167.069-2.832,2.831m2.916-2.248-2.667,2.75v.165q.168-.069,2.833-2.83Zm-2.5,3.249c.019.111.075.166.167.166l2.666-2.748v-.166H241q-.125.024-2.75,2.747m.251.5v.169a37.521,37.521,0,0,0,2.748-2.75v-.166q-.124.028-2.748,2.747m2.832-2.248-2.666,2.748v.168h.084a37.038,37.038,0,0,0,2.749-2.75.147.147,0,0,0-.167-.166m-2.5,3.333.167.083,2.665-2.749v-.166q-.166.069-2.832,2.833m2.915-2.334-2.666,2.75v.249q.167-.07,2.832-2.831a.147.147,0,0,0-.166-.168m-2.5,3.331v.083h.084a37.023,37.023,0,0,0,2.748-2.747v-.168q-.166.07-2.832,2.832m.167.418a.628.628,0,0,1,.083.251l2.833-2.751a.619.619,0,0,1-.084-.247Zm.25.582v.168q.166-.069,2.832-2.832v-.083h-.083q-.123.028-2.748,2.747m.167.5q.027.166.166.166l2.665-2.75v-.249q-.165.069-2.831,2.833m2.915-2.25-2.666,2.75v.166q.166-.069,2.832-2.833Zm-2.5,3.249v.166h.083a36.856,36.856,0,0,0,2.75-2.748v-.168H243q-.125.028-2.749,2.75m.167.582.166.083,2.666-2.747v-.166q-.168.069-2.832,2.83m2.914-2.331-2.665,2.747v.168h.084a37.525,37.525,0,0,0,2.749-2.75.147.147,0,0,0-.167-.166m-2.5,3.332.166.083,2.665-2.75v-.166q-.167.069-2.831,2.833m2.914-2.333A37.645,37.645,0,0,1,241,423.361a.628.628,0,0,1,.084.249q.166-.069,2.832-2.831a.147.147,0,0,0-.167-.167m-2.5,3.332v.083h.084a37.3,37.3,0,0,0,2.749-2.747v-.168q-.168.07-2.833,2.833m.167.417a.617.617,0,0,1,.084.249l2.831-2.748a.644.644,0,0,1-.083-.251Zm.25.582v.168q.168-.069,2.832-2.833v-.083h-.084q-.124.028-2.748,2.747m.167.5c.018.114.073.168.166.168l2.665-2.75v-.248q-.166.07-2.831,2.83m2.915-2.248-2.666,2.748v.168q.168-.07,2.832-2.833Zm-2.5,3.249v.166h.084a37.307,37.307,0,0,0,2.748-2.748v-.167H245q-.125.027-2.749,2.75m.166.582.168.083,2.748-2.83v-.083h-.083q-.166.067-2.833,2.831m.25.417v.168q2.832-2.641,2.832-3-.165.069-2.832,2.833M245,425.776l-2.165,2.248v.085h.083q2.165-2,2.165-2.333Zm-.417,1.084L243,428.526l.166.083a7.169,7.169,0,0,0,1.5-1.749Zm-.5,1.249-.833.916v.083h.082q.834-.667.834-1Zm-.417,1.082-.251.333v.083h.084c.092,0,.176-.138.249-.416Zm19.241.833a1.081,1.081,0,0,1,.584,1v.249c0,.083-.084.165-.25.251H249.834a1.307,1.307,0,0,1-1.166-.668l.416.083h13.743a.147.147,0,0,0,.167-.166v-.166Zm-11.411-.083h.167q3.192-3.1,5.5-5.5v-.166q-3.248,3.137-5.664,5.664m.666,0h.251q2.026-1.93,4.747-4.748v-.251q-.126.014-5,5m.75,0h.166q.111,0,4.165-4.166v-.166q-.235.138-4.331,4.332m.25-2.166q.181-.07,4-4v-.251q-4,3.818-4,4.165Zm.166-22.073h.083l1.916-2h-.25q-1.749,1.557-1.749,2m.167,20.823v.166q.111,0,3.665-3.663v-.168q-.11,0-3.665,3.666m.083-20.573v.166A32.68,32.68,0,0,0,256,403.7h-.165a25.391,25.391,0,0,0-2.25,2.251m0,19.989h.083l3.5-3.581v-.248a31.791,31.791,0,0,0-3.5,3.581.615.615,0,0,1-.083.249m3.582.333-3.582,3.667h.25q.166-.056,3.5-3.5a.148.148,0,0,0-.167-.168m-3.5-18.325v.251q.1,0,4.5-4.5h-.25q-.234.141-4.248,4.248m0,.751v.168q1.362-1.264,5.165-5.166h-.167q-.123.017-5,5m0-2.166v.251q.112,0,3.083-3.084h-.25q-.168.069-2.833,2.833m0,.751v.165q.112,0,3.749-3.749h-.167q-.166.059-3.582,3.583m4.748-2.75-4.748,4.832v.249q4.415-4.218,4.666-4.913a.147.147,0,0,0,.166-.168Zm-4.748,5.582v.166q3.832-3.638,3.832-4-.111,0-3.832,3.831m3.582-3-3.582,3.666v.252a33.211,33.211,0,0,0,3.582-3.666.642.642,0,0,1,.084-.251Zm-3.582,4.416v.166q.167-.056,3.5-3.5v-.166q-.166.056-3.5,3.5m0,.665v.251q.167-.055,3.5-3.5V408.7q-.166.055-3.5,3.5m0,.75v.168q.167-.059,3.5-3.5v-.166q-.166.056-3.5,3.5m0,.667v.249q.167-.056,3.5-3.5v-.249q-.166.057-3.5,3.5m0,.748v.168q.167-.055,3.5-3.5v-.168q-.166.055-3.5,3.5m0,.667v.249q.167-.055,3.5-3.5v-.249q-.166.055-3.5,3.5m0,.75v.165q.167-.055,3.5-3.5v-.165q-.166.056-3.5,3.5m0,.665v.168q.167-.056,3.5-3.5v-.168q-.166.055-3.5,3.5m0,.75v.168q.167-.059,3.5-3.5V413.7q-.166.055-3.5,3.5m0,.668v.165q.167-.056,3.5-3.5v-.168q-.166.058-3.5,3.5m0,.747v.168q.167-.056,3.5-3.5v-.165q-.166.055-3.5,3.5m0,.668v.166q.167-.057,3.5-3.5v-.165q-.166.055-3.5,3.5m0,.667v.249q.167-.056,3.5-3.5v-.251q-.166.055-3.5,3.5m0,.749v.167q.167-.059,3.5-3.5V417.2q-.166.055-3.5,3.5m0,.667v.249q.167-.056,3.5-3.5v-.249q-.166.055-3.5,3.5m0,.75v.166q.167-.055,3.5-3.5v-.168q-.166.055-3.5,3.5m0,.665v.251q.167-.056,3.5-3.5v-.251q-.166.054-3.5,3.5m0,.75v.166q.167-.056,3.5-3.5v-.166q-.166.056-3.5,3.5m0,.667v.249q.167-.056,3.5-3.5v-.25q-.166.054-3.5,3.5m0,.748v.168q.167-.058,3.5-3.5v-.166q-.166.055-3.5,3.5m.167-20.49h.083l.667-.751h-.167c-.389.3-.583.548-.583.751m.5,25.489h.167q.124-.028,2.915-2.916v-.166q-.111,0-3.082,3.082m.667,0h.249a30.757,30.757,0,0,0,2.332-2.332v-.251A33.027,33.027,0,0,0,255,429.941m.749,0h.167a18.218,18.218,0,0,0,1.915-1.917v-.083h-.083a19.806,19.806,0,0,0-2,2m2.165-1.584-1.5,1.584h.25a10.157,10.157,0,0,0,1.415-1.416.148.148,0,0,0-.167-.168m.334.417-1.083,1.167h.167a5.4,5.4,0,0,0,1.082-1.084Zm.334.334-.751.833h.25q.111,0,.667-.668a.147.147,0,0,0-.166-.165m0-24.656h.082l.916-.751h-.25q-.11,0-.748.751m0,25.489h.166q.111,0,.416-.417v-.083h-.082c-.074,0-.241.166-.5.5m.666,0h.25a.147.147,0,0,0,.166-.166l-.166-.086c-.084,0-.168.086-.25.252" transform="translate(0 -0.292)"/><path class="a" d="M340.053,402.985H354.9c.083,0,.193.135.329.409l-.084.166v.41h-1.97q-2.789,0-3.446,3.118a13.7,13.7,0,0,0-.163,2.3v12.393q0,4.526,2.214,6.237v-.083q-1.886-1.584-1.887-5.744V409.631q0-5.333,3.447-5.332h1.97a.146.146,0,0,0,.164-.166v-.41l-.083-.409a1.286,1.286,0,0,1,.656,1.148v.083c0,.081-.083.164-.246.247h-1.723a3.167,3.167,0,0,0-3.282,2.3q-.41.669-.41,4.43V421.2q0,4.908,1.066,6.153,1.34,2.217,4.677,2.217h.739a7.818,7.818,0,0,0,5.909-2.543,10.958,10.958,0,0,0,1.887-6.729.674.674,0,0,1-.084-.329.632.632,0,0,1,.084-.246l-.084-.409.084-.329-.084-.41a.633.633,0,0,1,.084-.247l-.084-.409.084-.329-.084-.41a.616.616,0,0,1,.084-.245l-.084-.409.084-.329a2.463,2.463,0,0,1-.084-.33l.084-.326-.084-.412.084-.327a2.482,2.482,0,0,1-.084-.329l.084-.327-.084-.412a.626.626,0,0,1,.084-.246l-.084-.41.084-.329-.084-.409a.633.633,0,0,1,.084-.247l-.084-.409.084-.33-.084-.409c0-.111.028-.163.084-.163q0-5.034-2.462-5.744-2.461-.317-2.461-.658l-.082-.163a4.946,4.946,0,0,1,3.609,1.231v-.082a4.508,4.508,0,0,0-3.609-1.394h-.083c-.082,0-.191-.109-.328-.33v-.656h10.338c.083,0,.193.11.329.329v.492c0,.109-.493.247-1.477.41q-3.037,1.311-3.036,6.646v10.423q0,6.5-4.6,8.37a12.818,12.818,0,0,1-4.842.9h-.983a11.4,11.4,0,0,1-8.041-2.872.073.073,0,0,1-.083.083,8.938,8.938,0,0,1-1.969-5.171q-.083,0-.083-1.066V408.236q0-2.734-1.311-3.2a4.56,4.56,0,0,0-1.4-.246h-.739a1.113,1.113,0,0,1-.9-.575v-.083a.977.977,0,0,0,.493.166h.9a3.333,3.333,0,0,1,2.051.739v-.082a3.459,3.459,0,0,0-2.462-.985h-.82a.555.555,0,0,1-.574-.33Zm2.953.656.164.083.165-.246h-.165c-.109.018-.164.075-.164.164m.411.247.164.083c.073,0,.236-.164.493-.493h-.246c-.073,0-.21.136-.411.41m.411.329.163.083.739-.822h-.164q-.108,0-.737.739m.328.329.163.081a6.038,6.038,0,0,0,1.15-1.149h-.246a5.318,5.318,0,0,0-1.067,1.068m.328.41v.082h.082a12.293,12.293,0,0,0,1.559-1.561h-.163a11.22,11.22,0,0,0-1.477,1.479m.246.409v.163h.082a20.935,20.935,0,0,0,2.052-2.05h-.247a17.92,17.92,0,0,0-1.887,1.888m.164.575.164.08,2.461-2.543h-.164a34.684,34.684,0,0,0-2.461,2.463m.164.409a.63.63,0,0,1,.082.247q.109,0,3.119-3.119h-.247Zm.164.656v.166q.109,0,3.693-3.694h-.164q-.164.055-3.529,3.528m.082.575v.247q.138-.042,4.35-4.35h-.246q-.109,0-4.1,4.1m0,1.395v.163q3.16-3.047,5.663-5.661H350.8q-2.571,2.462-5.5,5.5m0-.656v.163q1.369-1.256,5.006-5.006h-.164q-2.16,2.065-4.842,4.843m3.941-2.626-3.941,4.021v.163q4.022-3.855,4.021-4.184Zm-.247.9L345.3,410.37v.165q3.775-3.587,3.775-3.939Zm-3.693,4.512v.164q.109,0,3.611-3.608V407.5q-.109,0-3.611,3.611m0,.656v.166q.109,0,3.611-3.61v-.164q-.109,0-3.611,3.608m0,.659v.246q.166-.055,3.529-3.53v-.246q-.163.056-3.529,3.531m0,.738v.163q.166-.054,3.529-3.527v-.166q-.163.055-3.529,3.53m0,.656v.246q.166-.055,3.529-3.527v-.247q-.163.056-3.529,3.529m0,.739v.163q.166-.055,3.529-3.528v-.163q-.163.051-3.529,3.527m0,.656v.246q.166-.055,3.529-3.528v-.246q-.163.054-3.529,3.527m0,.739v.163q.166-.055,3.529-3.528v-.163q-.163.055-3.529,3.527m0,.656v.247q.166-.056,3.529-3.529v-.246q-.163.056-3.529,3.528m0,.739v.163q.166-.052,3.529-3.528v-.163q-.163.054-3.529,3.528m0,.658v.246q.166-.055,3.529-3.53v-.246q-.163.055-3.529,3.53m0,.737v.165q.166-.055,3.529-3.53v-.163q-.163.055-3.529,3.528m0,.658v.246q.166-.056,3.529-3.53v-.247q-.163.056-3.529,3.531m0,.738v.163q.166-.056,3.529-3.528v-.166q-.163.056-3.529,3.531m0,.656v.246q.166-.056,3.529-3.53v-.247q-.163.056-3.529,3.531m0,.739v.163q.166-.055,3.529-3.528V418q-.163.052-3.529,3.528m0,.656v.246q.166-.055,3.529-3.528v-.246q-.163.055-3.529,3.528m.083.656v.166q.164-.055,3.446-3.447V419.4q-.163.055-3.446,3.444m.082.575v.246q.164-.054,3.364-3.364v-.246q-.163.054-3.364,3.364m.082.656v.083h.083q.109,0,3.2-3.2v-.163q-.136.028-3.283,3.282m.165.492v.163h.082q.111,0,3.036-3.035v-.246q-.108,0-3.118,3.118m.164.576.163.08,2.872-2.952v-.083h-.082q-.108,0-2.953,2.955m.245.409v.164h.083a36.746,36.746,0,0,0,2.708-2.706v-.247q-.164.067-2.791,2.789m2.708-2.05-2.461,2.543v.082h.081q.1,0,2.544-2.545Zm-2.216,2.953c.018.11.074.163.164.163l2.3-2.377v-.166H349a32.373,32.373,0,0,0-2.38,2.38m.329.412v.081h.082a23.811,23.811,0,0,0,2.133-2.134v-.163a25.231,25.231,0,0,0-2.214,2.217m.328.327c.018.111.072.163.164.163l1.886-1.967v-.246a21.223,21.223,0,0,0-2.051,2.05m22.894-23.8q.369,0,.574.822v.41a4.8,4.8,0,0,1-1.64.492,5.245,5.245,0,0,0-2.545,3.282,21.75,21.75,0,0,0-.328,4.186v9.93q0,6.058-4.841,8.123a15.486,15.486,0,0,1-4.349.739h-1.395a11.379,11.379,0,0,1-8.289-3.118v-.083a12.076,12.076,0,0,0,8.206,2.708h.656q9.519,0,9.519-9.354V411.108q0-4.894,2.626-6.4a11.1,11.1,0,0,1,1.887-.493v-.41Zm-20.76,22.32L347.6,427.6h.165a16.513,16.513,0,0,0,1.805-1.8Zm-1.395,2.133v.083h.163a12.152,12.152,0,0,0,1.559-1.56v-.163h-.082a13.7,13.7,0,0,0-1.641,1.641m.41.33.164.083,1.395-1.478v-.166a12.366,12.366,0,0,0-1.559,1.561m.41.247.164.082,1.313-1.231a.644.644,0,0,1-.082-.246,9.946,9.946,0,0,0-1.395,1.395m.492.246.164.083,1.067-1.15v-.081h-.082a6.925,6.925,0,0,0-1.15,1.148m1.395-.822-.9.986v.083h.082a5.092,5.092,0,0,0,.985-.985Zm-.41,1.232h.164q.11,0,.738-.739v-.081h-.082c-.073,0-.346.274-.821.819m1.149-.573-.656.736h.164c.072,0,.292-.218.654-.656Zm-.082.9h.162c.073,0,.238-.166.493-.492v-.083h-.082c-.082,0-.274.191-.574.575m.574.081v.083h.082c.073,0,.21-.136.411-.41v-.083h-.082c-.074,0-.21.137-.41.409m.493.166h.246c.082,0,.163-.083.246-.247v-.083h-.164c-.082,0-.191.111-.328.33m.655.083h.165a.146.146,0,0,0,.164-.166h-.164c-.109.018-.165.073-.165.166m8.7-26.1.163.083.164-.246h-.164c-.109.018-.163.075-.163.164m.41.247a.61.61,0,0,1,.246.083,3.09,3.09,0,0,0,.411-.493h-.247c-.073,0-.209.136-.41.41m.492.246.165.083.656-.739h-.164q-.11,0-.657.656m.329.329.163.083a5.279,5.279,0,0,0,1.067-1.068h-.246a5.058,5.058,0,0,0-.984.985m.41.329v.081h.082a9.925,9.925,0,0,0,1.4-1.4h-.164a8.744,8.744,0,0,0-1.313,1.315m.246.409.164.08a16.387,16.387,0,0,0,1.805-1.8h-.246a14.952,14.952,0,0,0-1.724,1.724m.328.409v.083h.083a28.033,28.033,0,0,0,2.215-2.216h-.165a23.852,23.852,0,0,0-2.133,2.134m.246.41v.166h.082a37.184,37.184,0,0,0,2.708-2.709H366.8a33.362,33.362,0,0,0-2.544,2.543m.164.576.163.083a42.2,42.2,0,0,1,3.119-3.2h-.164q-.109,0-3.118,3.119m.9-.33-.656.739v.246a1.7,1.7,0,0,0,.739-.985Zm-.574,1.4.164.08.082-.163v-.163c-.082,0-.165.08-.247.247" transform="translate(-74.974 -0.146)"/><path class="a" d="M437.158,403.2H454.4q7.4,0,9,3.831a6.312,6.312,0,0,1,.917,3.333,5.852,5.852,0,0,1-4,5.746,15.435,15.435,0,0,1-3.582,1q4.859,9.119,6.5,11.494a2.388,2.388,0,0,0,.417.334v-.085q-.888-.791-4.082-6.913l-2.415-4.332v-.083a9.441,9.441,0,0,1,2.415-.668q5.083-1.567,5.081-6.328a7.239,7.239,0,0,0-1.749-4.5v-.083a6.89,6.89,0,0,1,2.249,5.082v.331q0,4.694-5.914,6.247c-1,.166-1.5.306-1.5.417v.083q5.08,9.5,6.164,10.912a3.736,3.736,0,0,0,2.5.582h.417a.564.564,0,0,1,.333.583v.416l-.416.085H459.4a1.041,1.041,0,0,1-1-.749l-6.58-11.746h-4.249c-.11.019-.166.076-.166.168v7.495q0,3.749,2.333,3.749h1.082c.084,0,.194.111.333.335v.664l-.417.085h-12.91l-.166-.085v.085c-.333-.112-.5-.223-.5-.334v-.75h.416q4.08,0,4.08-4.581V408.452q0-2.709-1.166-3.084a6.427,6.427,0,0,0-2.5-.416l-.416-.5a4.711,4.711,0,0,1,3.081.749h.083a3.221,3.221,0,0,0-2.5-1h-.749c-.083,0-.195-.113-.332-.334ZM451.4,430.024a1.082,1.082,0,0,1,.584,1v.249c0,.083-.085.165-.25.251H438.656a1.305,1.305,0,0,1-1.166-.668l.416.083h13.411a.147.147,0,0,0,.166-.166v-.333ZM439.822,403.7v.165h.084a.146.146,0,0,0,.165-.165Zm0,26.237h.167q2.75-2.638,5.83-5.832v-.165q-4.358,4.236-5.164,5.247a2.859,2.859,0,0,0-.833.75m.417-25.906v.083h.167c.073,0,.213-.137.416-.414h-.25q-.125,0-.333.331m.25,25.906h.25q1.388-1.278,5.08-5.082v-.251q-.123.028-5.33,5.332m.166-25.572.167.083.666-.748h-.167c-.073,0-.3.221-.666.665m.334.251a.628.628,0,0,1,.082.248,6.187,6.187,0,0,0,1.165-1.164h-.249Zm.248,25.321h.168q.139-.042,4.414-4.414v-.168q-1.167,1.07-4.581,4.582m.083-24.822v.082h.084a11.335,11.335,0,0,0,1.5-1.5h-.166a9.982,9.982,0,0,0-1.417,1.415m.25.417v.166h.084a19.706,19.706,0,0,0,2-2h-.25a16.7,16.7,0,0,0-1.833,1.832m.167.582.167.083,2.415-2.5h-.167a32.343,32.343,0,0,0-2.415,2.414m0,21.407h.084l4-4.081v-.251q-4.081,3.9-4.081,4.248Zm.167-20.991a.637.637,0,0,1,.083.251q.111,0,3.081-3.082h-.248Zm0,23.407h.249q.11,0,3.749-3.75v-.249q-.181.07-4,4m.166-22.739v.166q.111,0,3.666-3.664h-.167q-.168.055-3.5,3.5m0,19.073v.168q.111,0,3.748-3.748v-.166q-.11,0-3.748,3.747m.084-18.49v.251q.11,0,3.665-3.666v-.252q-.11,0-3.665,3.667m0,.75v.166q.11,0,3.665-3.664v-.168q-.11,0-3.665,3.667m0,.665v.168q.11,0,3.665-3.665v-.166q-.11,0-3.665,3.664m0,.75v.167q.11,0,3.665-3.665v-.166q-.11,0-3.665,3.664m0,.667v.165q.11,0,3.665-3.663v-.168q-.11,0-3.665,3.666m0,.748v.168q.11,0,3.665-3.666V407.7q-.11,0-3.665,3.663m0,.667v.166q.11,0,3.665-3.663v-.169q-.11,0-3.665,3.666m0,.665v.251q.11,0,3.665-3.666v-.249q-.11,0-3.665,3.664m0,.75v.168q.11,0,3.665-3.665v-.166q-.11,0-3.665,3.663m0,.668v.248q.11,0,3.665-3.664v-.251q-.11,0-3.665,3.667m0,.75v.166q.11,0,3.665-3.666V411.2q-.11,0-3.665,3.665m0,.665v.251q.11,0,3.665-3.666v-.248q-.11,0-3.665,3.664m0,.75v.166q.11,0,3.665-3.664v-.168q-.11,0-3.665,3.666m0,.667v.249q.11,0,3.665-3.664v-.251q-.11,0-3.665,3.666m0,.748v.169q.11,0,3.665-3.666v-.166q-.11,0-3.665,3.663m0,.668v.248q.11,0,3.665-3.664V414.7q-.11,0-3.665,3.666m0,.75v.166q.11,0,3.665-3.667v-.165q-.11,0-3.665,3.666m0,.665v.251q.11,0,3.665-3.665v-.251q-.11,0-3.665,3.666m0,.75v.166q3.831-3.636,3.832-4-.112,0-3.832,3.832m0,.665v.251q.11,0,3.665-3.666v-.249q-.11,0-3.665,3.664m0,.75v.168q.11,0,3.665-3.666v-.166q-.11,0-3.665,3.664m0,.667v.248q.11,0,3.665-3.663v-.251q-.11,0-3.665,3.666m0,.748v.168q.11,0,3.665-3.666V419.7q-.11,0-3.665,3.664m0,.667v.252q.11,0,3.665-3.666v-.249q-.11,0-3.665,3.663m0,.75v.166q.11,0,3.665-3.664v-.168q-.11,0-3.665,3.666m0,.665v.252q.11,0,3.665-3.666v-.249q-.11,0-3.665,3.663m.5,4.5h.167q.11,0,3.166-3.167v-.166q-.141.028-3.333,3.333m.667,0h.249q.1,0,2.583-2.582v-.251q-.168.069-2.832,2.834m2.915-2.249-2.166,2.249h.167a24.279,24.279,0,0,0,2.166-2.166Zm-1.5,2.249h.251l1.665-1.584a.638.638,0,0,1-.084-.249,16.982,16.982,0,0,0-1.832,1.833m2-1.333-1.251,1.333h.167a8.946,8.946,0,0,0,1.249-1.25Zm.333.334-.916,1h.166a4.422,4.422,0,0,0,.917-.917Zm-.5-24.739v12.16h.168a.146.146,0,0,0,.166-.166V404.535h6.665a5.8,5.8,0,0,1,4.08,1.417v-.085a5.885,5.885,0,0,0-4.414-1.664Zm0,13.161v7.995a4.49,4.49,0,0,0,1.334,3.583v-.085a4.54,4.54,0,0,1-1-3.164v-8h4.581c-.084-.22-.166-.331-.249-.331Zm.333,12.577h.167q.123,0,.583-.583h-.167c-.083,0-.277.193-.583.583m.5-24.74v11.162h4.082q5.735,0,6.746-2.831a10.42,10.42,0,0,0,.583-1.917h-.083l.083-.166q0-.458.084-1.583,0-3.6-2.416-4.414a8.919,8.919,0,0,0-2.832-.417h-6.081c-.11.019-.166.074-.166.165m.166,24.74h.168c.084,0,.193-.111.333-.335H447.9q-.124,0-.334.335m4.249-12.745c.018.111.073.168.167.168l.416-.5h-.251c-.082,0-.194.113-.333.334m.251.5.166.083.917-1h-.084c-.148,0-.481.307-1,.917m.249.417c.018.11.074.167.166.167l1.417-1.5h-.25a9.071,9.071,0,0,0-1.333,1.334m.251.5.166.085,2-2.082h-.083a10.825,10.825,0,0,0-2.083,2m.25.333a.641.641,0,0,1,.082.251q.168-.069,2.832-2.833h-.082a16.519,16.519,0,0,0-2.832,2.581m4.248-3.332a42.485,42.485,0,0,0-4,3.916l.167.085,3.915-4Zm-1.083,1.584a35.005,35.005,0,0,1-2.666,2.665.651.651,0,0,1,.084.251,37.438,37.438,0,0,0,2.747-2.748.147.147,0,0,0-.166-.168m-2.333,3.167v.166a37.069,37.069,0,0,0,2.749-2.75V417.7h-.084q-.124.028-2.665,2.668m2.832-2.25-2.666,2.75.168.083a34.981,34.981,0,0,0,2.665-2.665.147.147,0,0,0-.166-.167m-2.333,3.166v.166A37.318,37.318,0,0,0,456.9,418.7v-.085h-.083q-.126.028-2.666,2.667m2.832-2.25-2.582,2.667v.166a37.21,37.21,0,0,0,2.749-2.747Zm-2.332,3.166v.083h.083a35.146,35.146,0,0,0,2.666-2.665v-.085h-.084q-.127.026-2.665,2.667m2.832-2.251-2.582,2.667v.165a37.124,37.124,0,0,0,2.749-2.748Zm-2.332,3.167v.083h.083a34.509,34.509,0,0,0,2.666-2.665v-.083h-.084q-.124.027-2.665,2.665m.166-19.406v.083a.648.648,0,0,1,.25.083l.084-.165Zm2.665,17.158-2.581,2.665v.083h.083a35.049,35.049,0,0,0,2.665-2.665Zm.25.416-2.581,2.665v.165h.082a34.409,34.409,0,0,0,2.666-2.664.147.147,0,0,0-.167-.166M455.9,403.952v.083h.083c.083,0,.166-.083.25-.248h-.167q-.166.028-.166.165m2.582,17.826-2.582,2.666v.082h.083a35.211,35.211,0,0,0,2.664-2.665Zm.249.417-2.583,2.665c.018.11.075.166.167.166l2.583-2.666a.147.147,0,0,0-.167-.165M456.315,404.2l.167.083c.073,0,.239-.168.5-.5h-.25c-.073,0-.213.138-.416.416m2.666,18.491-2.582,2.665v.082h.083a35.2,35.2,0,0,0,2.665-2.665Zm.25.416-2.582,2.665c.018.11.073.167.167.167l2.582-2.667a.148.148,0,0,0-.167-.166m-2.415-18.658.166.083.583-.666H457.4c-.084,0-.279.194-.583.583m.083,21.822.167.083,2.582-2.664v-.083h-.084q-.125.027-2.665,2.665m.084-9.994h.083q.361,0,3.164-3,.14-.027,3.332-3.332V409.7q-3.191,3.083-6.58,6.581m2.748,7.746q0,.1-2.582,2.582a.642.642,0,0,1,.082.251,34.473,34.473,0,0,0,2.667-2.665.148.148,0,0,0-.167-.168m-2.5-19.323c.021.11.075.165.168.165l.749-.833-.167-.083c-.073,0-.323.251-.75.751m.168,22.487.166.085,2.582-2.667v-.083h-.083q-.125.028-2.665,2.665m.249-22.154v.083h.083a5.138,5.138,0,0,0,1-1h-.166q-.111,0-.916.918m2.581,19.906q0,.1-2.581,2.583a.643.643,0,0,1,.083.251,35.094,35.094,0,0,0,2.666-2.665.149.149,0,0,0-.168-.168M459.063,404.2l-1.165,1.25.165.083a8.869,8.869,0,0,0,1.252-1.25.652.652,0,0,1-.252-.083M457.98,416.03h.083a73.135,73.135,0,0,0,5.5-5.412v-.168q-2.61,2.5-5.581,5.581m0,11.995v.167a34.785,34.785,0,0,0,2.665-2.665v-.085h-.083a33.889,33.889,0,0,0-2.582,2.583m2.749-2.166-2.582,2.668.166.083q.1,0,2.583-2.582a.149.149,0,0,0-.167-.168m-2.5-19.991.167.085,1.416-1.5h-.166a10.1,10.1,0,0,0-1.417,1.415m0,8.664h.083l5.165-5.249v-.166q-5.232,5.068-5.248,5.415m.251-8.331a.659.659,0,0,1,.083.252,15.409,15.409,0,0,0,1.749-1.749l-.167-.083Zm0,22.742v.166a35.472,35.472,0,0,0,2.665-2.665v-.085h-.084a34.139,34.139,0,0,0-2.581,2.585m.249-22.157.167.083,1.832-1.917v-.083h-.084a18.418,18.418,0,0,0-1.915,1.918m0,22.573v.165h.083q.1,0,2.582-2.581v-.168h-.084a34.171,34.171,0,0,0-2.581,2.584M458.9,413.2h.083l4.414-4.5v-.166h-.084q-4.413,4.232-4.413,4.579Zm0,2.582q.457,0,2.83-2.582a15.342,15.342,0,0,0,1.75-1.749v-.25q-1.167,1.07-4.581,4.581m2.082-10.662-2,2.083v.249a27.991,27.991,0,0,0,2.248-2.249.634.634,0,0,1-.249-.082m-2,24.739.166.083,2.5-2.582v-.083h-.084a32.5,32.5,0,0,0-2.582,2.582m8.33.165h.083a1.126,1.126,0,0,1,.583.915v.334c0,.083-.084.165-.249.251h-7.581a1.192,1.192,0,0,1-1.083-.585v-.083l.167.083h8.08a.146.146,0,0,0,.166-.166v-.251a.99.99,0,0,0-.166-.5M461.4,405.453q-2.221,2.289-2.249,2.332v.165a32.608,32.608,0,0,0,2.416-2.414Zm-2.249,6.745h.084l4-4.08v-.083h-.083q-4,3.829-4,4.163m2.581-6.413-2.5,2.581v.252a35.057,35.057,0,0,0,2.666-2.665.148.148,0,0,0-.168-.168m-2.413,3.249v.166q.123-.028,2.914-2.914V406.2h-.084q-.165.07-2.829,2.833m0,2.083v.248l3.747-3.663a.656.656,0,0,1-.084-.251q-.11,0-3.663,3.666m3.081-4.582-3,3.082v.251q.111,0,3.164-3.164a.148.148,0,0,0-.166-.168m-3,3.832v.168q.166-.058,3.416-3.415v-.085h-.084q-.14.028-3.331,3.333m.166,19.575h.25l2.166-2.083a.636.636,0,0,1-.083-.249,30.069,30.069,0,0,0-2.333,2.332m3.582-17.743-3.082,3.166q.347,0,3.082-2.916a.65.65,0,0,1,.083-.251Zm-2.832,17.743h.167a15.24,15.24,0,0,0,1.749-1.75v-.083h-.084a16.74,16.74,0,0,0-1.831,1.833m.667,0h.249l1.333-1.25a.629.629,0,0,1-.084-.251,11.533,11.533,0,0,0-1.5,1.5m1.749-1.084-1,1.084h.168a5.265,5.265,0,0,0,1-1Zm.333.334-.666.75h.249q.125,0,.583-.583a.147.147,0,0,0-.166-.168m.083.75h.166c.084,0,.195-.111.333-.335v-.083h-.083c-.073,0-.212.139-.416.417m.833-.252-.166.252h.249a.149.149,0,0,0,.168-.168.613.613,0,0,1-.251-.083" transform="translate(-140.146 -0.292)"/><path class="a" d="M548.119,402.8q.383,0,2.05,5.083.493,1.123,7.135,19.271a5.01,5.01,0,0,0,1.312,1.722v-.081q-.589,0-3.034-6.806l-6.805-18.7q.506,0,1.8,4.181.165.272,7.545,20.336.763,1.557,1.721,1.557h1.065c.082,0,.192.11.328.33v.655l-.41.081H549.513c-.655,0-.983-.108-.983-.327v-.739h1.558q2.378,0,2.378-1.557v-.083a19.494,19.494,0,0,0-1.476-4.921h-8.2q-.353,0-1.148,3.116c0,.53-.026.8-.082.821q.26,2.624,1.722,2.624c.383.037.574.145.574.33v.655l-.409.081h-7.873c-.392,0-.639-.135-.737-.41v-.656q3.92,0,6.887-10l5.9-16.565ZM544.1,429.774a1.02,1.02,0,0,1,.574.819V431c0,.08-.083.163-.246.247h-8.119a1.208,1.208,0,0,1-1.065-.576v-.082l.164.082h8.609a.145.145,0,0,0,.165-.163v-.329Zm-7.954-.246v.165h.082c.082,0,.165-.083.247-.247a.641.641,0,0,1-.328.081m.573.165h.246q.111,0,3.117-3.117v-.245q-.165.051-3.363,3.362m3.363-2.707-2.625,2.707h.164a34.363,34.363,0,0,0,2.623-2.626Zm-1.968,2.707h.245a21.155,21.155,0,0,0,2.05-2.051v-.163h-.082a24.369,24.369,0,0,0-2.213,2.214m2.378-1.724-1.64,1.724h.164a13.935,13.935,0,0,0,1.64-1.64Zm-1.23-1.312h.082l.655-.739v-.163a2.267,2.267,0,0,0-.737.9m1.476,1.721-1.23,1.314h.246a6.088,6.088,0,0,0,1.147-1.149.145.145,0,0,0-.163-.166m.328.412-.821.9h.164q.11,0,.819-.822Zm-.328-2.706a3.6,3.6,0,0,0,1.311,2.787v-.081a3.335,3.335,0,0,1-.983-2.542,11.581,11.581,0,0,1,1.065-3.935h8.611v-.166a.144.144,0,0,0-.163-.163h-8.691q-.3,0-1.067,3.2a6.333,6.333,0,0,0-.082.9m.163,3.609h.247c.073,0,.237-.165.491-.493l-.163-.083q-.122,0-.575.576m.738,0h.164c.083,0,.165-.083.246-.247h-.162c-.083,0-.165.081-.248.247m4.429-20.01q0,.246-3.937,11.318h.493l3.69-10.742v-.083c0-.283-.082-.446-.246-.492m.574,1.558q0,.138-3.363,9.759h6.971q-3.445-9.555-3.445-9.759Zm2.05-5.413a17.06,17.06,0,0,0-2.625,2.872q.164-.069,2.788-2.789Zm-2.3,1.887a27.922,27.922,0,0,0,2.214-2.214v-.246q-2.212,2.01-2.214,2.46m0,1.148v.164h.082q.1,0,2.543-2.543v-.164h-.082a32.836,32.836,0,0,0-2.542,2.543m.247.493v.163q.1,0,2.542-2.543v-.163a32.076,32.076,0,0,0-2.542,2.543m.163-2.789a13.682,13.682,0,0,0,1.641-1.641v-.164q-1.64,1.451-1.641,1.8m0,3.279v.246l2.625-2.54a.65.65,0,0,1-.082-.246,32.2,32.2,0,0,0-2.543,2.54m.164.575v.081h.082q.1,0,2.543-2.541v-.083h-.083a32.719,32.719,0,0,0-2.542,2.543m1.148-6.151q-.971.969-.983,1.312h.082l1.066-1.149a.145.145,0,0,0-.164-.163m-.983,6.644c.016.109.072.164.163.164l2.46-2.543v-.163h-.082a31.785,31.785,0,0,0-2.542,2.542m.245.49v.166q.1,0,2.543-2.542v-.164a32.677,32.677,0,0,0-2.543,2.541m.574-7.626a1.648,1.648,0,0,0-.409.655h.082l.492-.572Zm2.05,5.578-2.459,2.54v.246a34.995,34.995,0,0,0,2.623-2.624.144.144,0,0,0-.164-.163m-2.3,3.116v.08h.082q.095,0,2.542-2.541v-.083h-.082a32.1,32.1,0,0,0-2.542,2.543m.164.49c.019.111.072.166.164.166l2.46-2.543v-.247q-.124.028-2.625,2.624m2.706-2.048-2.46,2.541v.163A34.557,34.557,0,0,0,550.743,411Zm.163.49-2.459,2.543v.247a34.285,34.285,0,0,0,2.623-2.624.146.146,0,0,0-.164-.166m-2.3,3.119v.081h.082q.1,0,2.541-2.544V411.9q-.122.028-2.623,2.626m.163.49c.018.111.074.166.165.166a31.9,31.9,0,0,1,2.541-2.543.633.633,0,0,1-.082-.246q-.123.027-2.625,2.623m2.706-2.05-2.46,2.543v.163a34.8,34.8,0,0,0,2.623-2.624Zm10.168,16.811a1.113,1.113,0,0,1,.574.9V431c0,.08-.082.163-.247.247H550a1.168,1.168,0,0,1-1.065-.576v-.082l.164.082h12.3a.144.144,0,0,0,.163-.163v-.163ZM549.021,416v.247a34.248,34.248,0,0,0,2.623-2.626v-.163h-.082A32.468,32.468,0,0,0,549.021,416m.164.573v.083h.082q.1,0,2.543-2.542v-.164q-.123.029-2.624,2.623m.164.493c.017.11.073.163.163.163a33,33,0,0,1,2.542-2.541.644.644,0,0,1-.082-.246q-.123.028-2.624,2.624m.246.492v.163a34.008,34.008,0,0,0,2.624-2.624v-.083h-.082a32.179,32.179,0,0,0-2.542,2.543m.164.493v.244a34.1,34.1,0,0,0,2.624-2.623v-.163H552.3a32.55,32.55,0,0,0-2.541,2.543m.164.573v.083H550q.1,0,2.542-2.543V416q-.122.028-2.623,2.624m2.705-2.131-2.541,2.624c.017.108.072.163.164.163l2.542-2.624a.145.145,0,0,0-.164-.163m-2.3,3.116v.163a34.3,34.3,0,0,0,2.624-2.623v-.082h-.083a32.306,32.306,0,0,0-2.541,2.542m.164.49v.166h.082q.094,0,2.542-2.543v-.246Q553,417.5,550.5,420.1m2.7-2.047-2.542,2.623v.163a36.388,36.388,0,0,0,2.707-2.706Zm.165.492-2.707,2.786h.164a36.356,36.356,0,0,0,2.705-2.706Zm-2.3,3.116v.081h.083q.1,0,2.542-2.54v-.166q-.122.028-2.625,2.625m.165.49v.083h.082q.1,0,2.542-2.543v-.164q-.123.028-2.623,2.624m2.705-2.051-2.461,2.544v.163a34.044,34.044,0,0,0,2.625-2.624Zm-2.3,3.036v.163a33.763,33.763,0,0,0,2.626-2.624v-.083h-.082a32.882,32.882,0,0,0-2.544,2.543m.165.493v.163h.082a35.766,35.766,0,0,0,2.542-2.543v-.164h-.082a32.256,32.256,0,0,0-2.542,2.544m.164.573.164.082,2.461-2.543v-.164q-.125.029-2.625,2.624m4.018,1.477-3.936,4.018h.164q.179-.07,3.937-3.937Zm-1.311-3.609a35.922,35.922,0,0,1-2.542,2.541.635.635,0,0,1,.082.246,33.985,33.985,0,0,0,2.625-2.623.146.146,0,0,0-.165-.164m-2.3,3.116v.163a34.391,34.391,0,0,0,2.624-2.622v-.083h-.082a32.266,32.266,0,0,0-2.542,2.542m.163.493v.163h.082q.1,0,2.543-2.542v-.247q-.124.027-2.625,2.626m2.707-2.05-2.542,2.623v.083h.082a34.4,34.4,0,0,0,2.625-2.626Zm-2.542,6.068h.246q.162-.056,3.361-3.362v-.166h-.082q-.165.055-3.526,3.528m2.707-5.579-2.544,2.626v.246a36.233,36.233,0,0,0,2.707-2.706.146.146,0,0,0-.163-.166m-2.544,4.264,3.116-3.033a.639.639,0,0,1-.082-.246q-3.035,2.846-3.034,3.2Zm.083-.983v.163q.162-.069,2.788-2.786v-.166q-.164.069-2.788,2.789m.492,2.3h.165q.122-.028,2.869-2.872v-.163q-.109,0-3.034,3.036m.656,0h.247a32.1,32.1,0,0,0,2.378-2.38v-.164h-.083a32.961,32.961,0,0,0-2.542,2.544m.739,0h.163a19.809,19.809,0,0,0,1.968-1.969v-.081h-.083a21.311,21.311,0,0,0-2.049,2.051m.656,0h.246a11.061,11.061,0,0,0,1.474-1.477v-.163h-.082a13.525,13.525,0,0,0-1.639,1.64m1.886-1.231-1.148,1.231h.164a6.209,6.209,0,0,0,1.148-1.149Zm.328.328-.82.9h.246q.109,0,.738-.739a.144.144,0,0,0-.164-.164m-.082.9h.164c.071,0,.236-.165.491-.493h-.162c-.074,0-.239.163-.493.493m.656,0h.246a.146.146,0,0,0,.164-.165v-.081h-.164c-.082,0-.164.081-.246.247" transform="translate(-205.704 -0.019)"/><path class="a" d="M622.888,403.2h8.746a16.217,16.217,0,0,1,2.332,2.915q12.662,16.241,12.661,16.41h.084v-.168q-12.26-15.758-14.327-18.573h.083q.363.359,7.08,9.078,6.636,8.633,7.165,9.246l.083-.5-.083-.417a.638.638,0,0,1,.083-.249l-.083-.416.083-.333-.083-.417a.652.652,0,0,1,.083-.25l-.083-.414a2.439,2.439,0,0,0,.083-.334l-.083-.416a.652.652,0,0,1,.083-.251l-.083-.417a.637.637,0,0,1,.083-.248l-.083-.5a.634.634,0,0,1,.083-.248l-.083-.417a.648.648,0,0,1,.083-.251l-.083-.5a.634.634,0,0,1,.083-.248l-.083-.417a.649.649,0,0,1,.083-.251l-.083-.416a2.354,2.354,0,0,0,.083-.334l-.083-.417a.64.64,0,0,1,.083-.248l-.083-.417.083-.333-.083-.416a.653.653,0,0,1,.083-.25l-.083-.5a.073.073,0,0,1,.083-.083l-.083-.417v-.416a5.928,5.928,0,0,0-1.583-4.582,5.619,5.619,0,0,0-2.667-.833l-.416-.5a6.041,6.041,0,0,1,2.748.832c0,.083.083.168.25.251v-.083a4.263,4.263,0,0,0-3.165-1.25l-.25-.334V403.2h10.746c.082,0,.166.083.25.25v.582a.148.148,0,0,1-.168.168h-.249q-3.818,0-4.5,5.581a17.087,17.087,0,0,0-.084,1.749v19.241a.146.146,0,0,1-.166.166q-.75,0-1.416-1.25L629.3,408.284h-.083v16.16q.292,4.745,1.916,4.747,0,.224,2.75.5a.633.633,0,0,1,.249.5v.416l-.417.085h-9.661q-.432,0-1.416-.085a.608.608,0,0,0-.168-.331v-.584a5.571,5.571,0,0,0,3.665-1.415,6.373,6.373,0,0,0,1.333-4.5V408.284q0-2.581-1.583-3a10.191,10.191,0,0,0-2.081-.333l-.5-.5v-.083a4.665,4.665,0,0,0,1.748.251,5.212,5.212,0,0,1,1.418.747v-.083a4.6,4.6,0,0,0-3.415-1.167l-.168-.248ZM634.3,430.024h.082a1.127,1.127,0,0,1,.583.915v.334c0,.083-.083.165-.249.251H623.97a1.142,1.142,0,0,1-1-.5v-.083H634.3a.147.147,0,0,0,.167-.166v-.251a.993.993,0,0,0-.167-.5m-8.329-1q-1.027.708-1.083.917h.25q.111,0,.917-.917Zm-.5-25.073h.166c.084,0,.167-.083.25-.25h-.165c-.084,0-.166.085-.251.25m.166,25.989h.167q.1,0,2.583-2.582v-.083H628.3q-.124.027-2.665,2.665m.334-25.824v.086h.166c.074,0,.24-.168.5-.5h-.25c-.073,0-.213.14-.416.416m2.5,23.575-2.167,2.249h.251a21.707,21.707,0,0,0,2.082-2.083.147.147,0,0,0-.166-.166m-2.083-23.24.167.083.749-.833h-.167q-.109,0-.749.751m.333.333.167.083a6.166,6.166,0,0,0,1.167-1.166H627.8a5.38,5.38,0,0,0-1.083,1.083m0,23.572h.084a10.092,10.092,0,0,1,1.415-1.415.632.632,0,0,1-.083-.251,5.9,5.9,0,0,0-1.417,1.666m.333-23.156.167.083,1.5-1.583h-.167a11.338,11.338,0,0,0-1.5,1.5m0,24.74h.167a13.758,13.758,0,0,0,1.666-1.667v-.083H628.8a15.221,15.221,0,0,0-1.75,1.75m.251-24.405a.636.636,0,0,1,.083.249,21.328,21.328,0,0,0,2.083-2.083h-.251Zm.249.582.167.083,2.416-2.5h-.166a32.793,32.793,0,0,0-2.417,2.416m0,20.656h.085a2.235,2.235,0,0,1,.334-.414v-.169c-.168.047-.306.242-.419.583m1.5,1.751-1.333,1.416h.252a9.18,9.18,0,0,0,1.248-1.25.147.147,0,0,0-.166-.166m-.916-22.325a.637.637,0,0,1,.25.083l2.5-2.582h-.249a34.387,34.387,0,0,0-2.5,2.5m.166.833v13.828q0,6.19,1.167,7.162c0,.085.194.278.583.584v-.083q-1.416-.876-1.417-6.665V407.784l.084-.417c-.14,0-.222-.111-.25-.334Zm.168,22.907h.166a5.189,5.189,0,0,0,1-1h-.166a5.026,5.026,0,0,0-1,1m.166-23.489v.082h.084a37.224,37.224,0,0,0,2.748-2.747V403.7h-.082q-.126.028-2.75,2.75m3-2.417-2.749,2.833.167.083A37.053,37.053,0,0,0,631.8,404.2a.147.147,0,0,0-.166-.168m-2.5,25.906h.251q.109,0,.666-.668l-.166-.083q-.113,0-.75.75m2.832-25.489-2.749,2.833.168.083,2.748-2.833Zm-2.416,3.166v.083h.083a36.789,36.789,0,0,0,2.749-2.75v-.083H632.3q-.124.028-2.748,2.751m.334.416v.083h.083a37.221,37.221,0,0,0,2.748-2.75v-.083h-.084q-.124.028-2.747,2.75m.415,21.406-.415.5h.166q.11,0,.416-.417Zm-.166-20.989.166.083,2.666-2.75v-.166q-.168.069-2.833,2.833m.333.417.167.083L633.3,406.2v-.083h-.084q-.125.028-2.749,2.75m.082,21.073h.25a.148.148,0,0,0,.167-.166v-.086H630.8c-.082,0-.165.086-.25.252m2.917-23.489L630.8,409.2v.083h.084a37.4,37.4,0,0,0,2.749-2.748Zm-2.415,3.164.165.083a36.824,36.824,0,0,0,2.749-2.748l-.166-.083q-.125.028-2.748,2.747m.334.417.165.083,2.665-2.748v-.083h-.082q-.124.027-2.748,2.747m3-2.414-2.665,2.747c.019.11.074.165.167.165l2.665-2.747a.147.147,0,0,0-.168-.165m.334.416-2.665,2.747v.083h.083a36.63,36.63,0,0,0,2.749-2.748Zm-2.417,3.082a.6.6,0,0,1,.084.248q.168-.07,2.832-2.83l-.167-.083Zm.334.5.168.083,2.664-2.747v-.083h-.083q-.123.027-2.749,2.748m3-2.416-2.665,2.75v.165h.083a37.175,37.175,0,0,0,2.749-2.747.147.147,0,0,0-.167-.168m-2.331,3.167v.165a37.57,37.57,0,0,0,2.747-2.747v-.168q-.124.028-2.747,2.75m.248.416c.018.111.075.166.167.166l2.666-2.748v-.168H636.3q-.124.028-2.749,2.75m3-2.333-2.664,2.75v.083h.082a37.062,37.062,0,0,0,2.75-2.75Zm-2.415,3.167.166.083a37.163,37.163,0,0,0,2.749-2.75l-.166-.083q-.124.027-2.749,2.75m.333.417.166.083,2.666-2.75v-.083h-.082q-.126.027-2.749,2.75m3-2.416-2.664,2.747c.016.113.071.168.164.168l2.665-2.749a.147.147,0,0,0-.166-.166m.332.416-2.664,2.747v.085h.082a37.621,37.621,0,0,0,2.75-2.75Zm-2.415,3.165.167.085a37.455,37.455,0,0,0,2.749-2.75l-.167-.083q-.126.028-2.749,2.748m.333.415.167.086,2.666-2.75v-.083h-.084q-.124.028-2.749,2.747m3-2.413-2.666,2.747c.019.111.074.166.167.166l2.665-2.748a.146.146,0,0,0-.166-.165m.333.416-2.665,2.748v.083h.083a37.134,37.134,0,0,0,2.749-2.748Zm-2.416,3.163.168.083a34.969,34.969,0,0,0,2.665-2.664v-.166h-.083q-.127.028-2.75,2.747m3-2.33-2.666,2.748.166.083,2.666-2.748ZM637.3,417.53c.019.111.074.166.167.166q.025-.124,2.666-2.665a.621.621,0,0,1-.084-.251q-.127.028-2.749,2.75m.333.417v.166a36.86,36.86,0,0,0,2.748-2.748v-.082H640.3q-.126.027-2.666,2.665m2.917-2.334a35.186,35.186,0,0,1-2.666,2.668.65.65,0,0,1,.083.249,37.764,37.764,0,0,0,2.748-2.748.148.148,0,0,0-.165-.169m.333.417-2.666,2.75.167.082,2.664-2.749Zm-2.332,3.084v.166h.083a37.234,37.234,0,0,0,2.749-2.75l-.168-.083q-.124.027-2.664,2.667m.332.414v.167a36.463,36.463,0,0,0,2.748-2.75v-.083h-.082q-.125.028-2.666,2.666m2.915-2.332-2.665,2.747c.018.113.074.168.166.168l2.667-2.75a.147.147,0,0,0-.168-.165m.334.416-2.665,2.747v.086h.082a36.9,36.9,0,0,0,2.75-2.75Zm-2.416,3.165.167.085a34.935,34.935,0,0,0,2.666-2.667v-.165h-.085q-.123.028-2.748,2.748m.334.416.166.085,2.666-2.75v-.083H642.8q-.126.027-2.749,2.747m.332.334v.083h.084a34.829,34.829,0,0,0,2.665-2.665v-.165q-.125.028-2.75,2.748m.334.417v.083h.083a35.262,35.262,0,0,0,2.666-2.665v-.083h-.084q-.123.027-2.665,2.665m2.916-2.331-2.666,2.747.166.083,2.665-2.748Zm.334.416-2.665,2.748.166.083,2.666-2.747Zm-2.334,3.082v.083h.085a35.252,35.252,0,0,0,2.665-2.665v-.083h-.083q-.126.027-2.667,2.665m2.917-2.333-2.666,2.75.167.083a35.108,35.108,0,0,0,2.666-2.665.148.148,0,0,0-.167-.167m.332.416-2.665,2.75.166.083,2.665-2.747Zm-2.331,3.084c.017.11.074.166.166.166l2.666-2.749-.167-.085q-.124.027-2.665,2.667m.333.417v.082h.083a34.666,34.666,0,0,0,2.666-2.665v-.085h-.083q-.127.027-2.666,2.668m2.916-2.334a35.072,35.072,0,0,1-2.666,2.666.634.634,0,0,1,.084.25,37.243,37.243,0,0,0,2.749-2.748.148.148,0,0,0-.166-.168m.333.417-2.665,2.75.166.083,2.665-2.75Zm-2.333,3.081v.168h.084q.165-.069,2.832-2.833l-.168-.083q-.124.028-2.749,2.747m.084-21.989v.083h.167c.083,0,.165-.083.249-.25h-.249c-.112.018-.167.076-.167.168m.25,22.405v.168a37.316,37.316,0,0,0,2.748-2.75v-.166q-.125.028-2.748,2.747m.166-22.071h.165c.076,0,.241-.168.5-.5h-.167c-.074,0-.239.168-.5.5m.083,22.488c.019.111.074.168.167.168l2.332-2.416v-.252a34.667,34.667,0,0,0-2.5,2.5m.334-22.239.166.083q.112,0,.833-.833h-.251q-.11,0-.748.751m0,22.655v.083h.082a21.275,21.275,0,0,0,2.083-2.08v-.168a24,24,0,0,0-2.165,2.165m.249.417.167.082a15.4,15.4,0,0,0,1.749-1.749v-.248a18.151,18.151,0,0,0-1.916,1.915m.167-22.74.166.083,1.083-1.166h-.166a5.365,5.365,0,0,0-1.083,1.083m.166,23.156.166.083,1.417-1.5v-.165a12.611,12.611,0,0,0-1.583,1.581m.166-22.905a.639.639,0,0,1,.085.249,12.515,12.515,0,0,0,1.582-1.583h-.25Zm.168,23.238c.018.111.074.166.167.166l1.082-1.164v-.251a8.846,8.846,0,0,0-1.249,1.249m.167-22.738v.083h.082a18.416,18.416,0,0,0,1.916-1.917h-.167a16.908,16.908,0,0,0-1.831,1.834m.166,23.155v.083h.083q.111,0,.833-.833v-.166c-.073,0-.38.306-.916.916m.083-22.824a.629.629,0,0,1,.084.251,33.078,33.078,0,0,0,2.416-2.416h-.252Zm.167,23.241.166.083c.075,0,.24-.166.5-.5v-.251c-.073,0-.3.223-.666.668m.083-22.656.166.082,2.749-2.833h-.167q-.124.028-2.749,2.75m.249.416v.165h.084a25.945,25.945,0,0,0,2.415-2.5,3.081,3.081,0,0,0,.916-.833h-.249q-.11,0-3.166,3.167m0,22.655.168.083.166-.248v-.168c-.084,0-.195.11-.334.333m1.083-23.072-.915,1,.166.083q.833-.846.833-1.081Zm-.749,1.5v.168h.083a.566.566,0,0,0,.333-.584c-.074,0-.212.141-.416.416m6-4.414a1.308,1.308,0,0,1,.666,1.167c-.083.221-.167.333-.25.333h-.25q-4.579,0-4.581,7.995v18.576a.147.147,0,0,1-.168.166h-.165a1.127,1.127,0,0,1-.917-.582h.084l.417.083a.638.638,0,0,1,.249-.083V411.782q0-7.329,5-7.33v-.5Z" transform="translate(-264.52 -0.292)"/><path class="a" d="M727.9,402.768a12.858,12.858,0,0,1,7.9,2.662,3.918,3.918,0,0,0,.886.645l-.08.161a13.408,13.408,0,0,1,3.386,5.078,13.778,13.778,0,0,1,1.049,5.081v.725a13.863,13.863,0,0,1-5.241,10.8,12.3,12.3,0,0,1-7.417,2.5,12.7,12.7,0,0,1-8.709-3.627.072.072,0,0,1-.081.081,16.316,16.316,0,0,1-3.869-7.742,9,9,0,0,1-.243-1.371h.08l-.08-.161v-1.369a14.321,14.321,0,0,1,3.144-8.789q4-4.676,9.272-4.678m-11.932,12.9v.244q1.384-1.278,5.079-5.081v-.241q-1.384,1.277-5.079,5.078m0,.727v.161q1.344-1.236,4.917-4.917v-.162q-1.342,1.236-4.917,4.918m0,.644v.241q2.123-2.03,4.756-4.757v-.242q-2.123,2.03-4.756,4.757m0,.725.16.08,4.516-4.595v-.161q-2.124,2.03-4.677,4.676m.08-2.821v.161q2.9-2.807,5.241-5.24v-.16q-2.9,2.806-5.241,5.24m0,3.388v.161h.08q1.131-1.037,4.436-4.434v-.242q-1.2,1.1-4.516,4.516m5.563-9.677q-5.416,5.471-5.484,5.564v.161q5.565-5.389,5.564-5.726Zm-5.484,10.321.162.081,4.193-4.274v-.161q-.1,0-4.355,4.354m5.968-11.53-5.806,5.885v.163q5.886-5.712,5.886-6.048Zm-5.806,12.013v.241q.228-.134,4.193-4.192v-.242q-.228.135-4.193,4.193m6.692-13.545q-6.45,6.477-6.451,6.612l-.08.161h.08q6.531-6.517,6.531-6.773Zm-6.531,14.109v.163q.108,0,4.031-4.031v-.161q-.108,0-4.031,4.029m.08.486a.6.6,0,0,1,.081.241q.175-.069,3.871-3.87v-.242Zm.163.644.16.081,3.628-3.709v-.161q-.108,0-3.789,3.79m.16-9.594q3.519-3.4,7.74-7.742h-.08q-.216,0-7.579,7.5a.615.615,0,0,0-.081.244m.081,10v.242q.106,0,3.547-3.547v-.241q-.108,0-3.547,3.546m3.467-2.821-3.307,3.385.161.083,3.307-3.387Zm-3.066-8.3h.083l6.127-6.209q-.351,0-5,4.837-1.156.993-1.21,1.372m0,12.1v.161h.083q.106,0,3.144-3.146V419.3q-.135.029-3.227,3.227m.242.483v.161q.108,0,3.065-3.063v-.162q-.109,0-3.065,3.065m.243.4v.161h.081q.12-.027,2.821-2.821v-.241q-.107,0-2.9,2.9m.241.484v.08h.082a35.884,35.884,0,0,0,2.659-2.66v-.161q-.159.066-2.741,2.741m4.032-18.947a18.493,18.493,0,0,0-3.951,4.03h.08l3.951-4.03ZM718.3,424.3c.018.109.072.164.161.164l2.5-2.581v-.161h-.08q-.121.027-2.58,2.579m.323.405v.08h.08a31.468,31.468,0,0,0,2.339-2.34v-.159a33.516,33.516,0,0,0-2.419,2.419m.242.4.161.081a27.453,27.453,0,0,0,2.177-2.177v-.242a30.938,30.938,0,0,0-2.339,2.338m.323.4.161.08,2.016-2.1v-.081h-.081a22.754,22.754,0,0,0-2.1,2.1m.322.322.161.081a17.917,17.917,0,0,0,1.854-1.856v-.161h-.08a18.959,18.959,0,0,0-1.935,1.935m.4.322v.081h.08a14.71,14.71,0,0,0,1.692-1.694v-.159a16.363,16.363,0,0,0-1.772,1.772m17.657-19.107a14.745,14.745,0,0,1,3.467,5.482,15.344,15.344,0,0,1,.806,4.515v1.049a13.828,13.828,0,0,1-4.838,10.319,12.2,12.2,0,0,1-7.9,2.824,12.426,12.426,0,0,1-9.111-4.032h.081a12.5,12.5,0,0,0,8.707,3.547q6.585,0,10.642-6.368a13.71,13.71,0,0,0,1.936-7.016v-.483a14.821,14.821,0,0,0-3.789-9.755Zm-15.8,17.819-1.531,1.613c.017.106.071.159.162.159l1.532-1.611a.142.142,0,0,0-.162-.161m-1.208,2.016.16.08,1.372-1.452v-.161a12.088,12.088,0,0,0-1.532,1.533m.4.241c.019.108.073.161.163.161l1.209-1.291v-.16h-.08a8.557,8.557,0,0,0-1.292,1.29m.163-10.4q0,7.956,3.627,11.449v-.081q-3.307-3.452-3.305-11.127,0-7.163,3.226-11.127a5.757,5.757,0,0,1,4.193-1.774h.161a5.268,5.268,0,0,1,3.387,1.613v-.081a5.58,5.58,0,0,0-3.79-1.854h-.082q-5.306,0-7.014,8.3a34.508,34.508,0,0,0-.4,4.677m.242,10.724v.08h.08a6.071,6.071,0,0,0,1.129-1.129v-.161a8.517,8.517,0,0,0-1.209,1.211m.4.241c.018.108.072.162.162.162a4.949,4.949,0,0,1,.967-.966.628.628,0,0,1-.08-.244,5.209,5.209,0,0,0-1.049,1.049m.242-11.207v1.935q0,6.5,3.226,10.077a4.445,4.445,0,0,0,2.822.969q6.113,0,7.338-10.482a.072.072,0,0,0-.081-.08l.081-.4V417.6a.071.071,0,0,1,.08-.08.071.071,0,0,0-.08-.081l.08-.564q0-9.1-3.951-11.691a4.513,4.513,0,0,0-2.258-.647q-5.094,0-6.853,7.983a21.857,21.857,0,0,0-.4,3.951m.162,11.53.161.081.807-.886v-.081h-.082c-.071,0-.367.294-.886.886m1.129-.564-.725.8.161.081c.072,0,.313-.241.726-.725a.142.142,0,0,0-.162-.16m.323.4-.565.644.163.081.564-.644Zm.322.322-.483.564h.161q.106,0,.484-.484Zm.081.727.162.081.241-.324v-.081h-.08c-.082,0-.189.108-.323.325m.484.161v.081h.08c.081,0,.161-.081.242-.242v-.081h-.082c-.08,0-.161.081-.241.242m.484-25.077q.591-.3.645-.483-.31,0-.645.483m.08,25.158v.161h.08a.142.142,0,0,0,.161-.161Zm5.644-25.56c.019.108.073.162.162.162h.081v-.162Zm1.292,24.913a6.681,6.681,0,0,0-.968.889q.322,0,1.047-.889ZM731.2,403.9v.08h.08c.08,0,.161-.08.242-.241h-.161c-.107.017-.16.071-.16.161m.4.242c.017.108.071.161.161.161l.243-.323v-.08h-.161c-.082,0-.162.08-.243.242m.4.322v.08h.079c.071,0,.206-.133.4-.4v-.081h-.08c-.072,0-.207.133-.4.4m7.335,17.174-7.335,7.419q.455,0,3.708-3.468,3.709-3.493,3.708-3.951Zm-6.531-17.415-.483.563c.018.108.071.163.162.163l.564-.646a.615.615,0,0,1-.243-.08m.485.241-.645.727.16.081.646-.728Zm-.565,23.384h.08q6.936-6.959,6.936-7.1v-.081q-6.815,6.652-7.016,7.176m.243-22.334c.017.106.072.161.161.161l.805-.888-.161-.078c-.071,0-.34.267-.806.805m5.725,17.5-5.484,5.562q.335-.014,5.484-5.32a.612.612,0,0,1,.08-.242Zm-4.517-18.061-.886.967v.081h.08a4.984,4.984,0,0,0,.968-.967Zm-.645,1.369c.017.108.071.161.161.161l1.048-1.128v-.08h-.161a5.135,5.135,0,0,0-1.048,1.046m1.451-.805-1.209,1.288.161.08,1.211-1.288Zm-.967,1.613a.61.61,0,0,1,.081.241,11.207,11.207,0,0,0,1.451-1.452l-.16-.08Zm.081,18.705h.08q5.792-5.817,5.806-5.968V419.7q-5.806,5.63-5.806,5.968Zm1.612-19.674-1.451,1.533.161.081,1.451-1.533Zm-1.209,1.935v.161h.08a14.586,14.586,0,0,0,1.694-1.694l-.162-.081a13.558,13.558,0,0,0-1.612,1.613m.161.564v.08h.08a15.938,15.938,0,0,0,1.774-1.774V406.8a17.627,17.627,0,0,0-1.854,1.855m0,15.883h.08l5.4-5.481V418.9a71.114,71.114,0,0,0-5.4,5.483Zm.161-15.48a.624.624,0,0,1,.08.244,20.362,20.362,0,0,0,2.016-2.016l-.161-.08Zm2.9,15.563-2.823,2.9h.081a14.924,14.924,0,0,0,2.823-2.9Zm-2.742-1.049h.082l5.159-5.239v-.242a65.663,65.663,0,0,0-5.159,5.239.627.627,0,0,1-.082.242m.082-13.948v.161a23.449,23.449,0,0,0,2.1-2.1v-.162a23.252,23.252,0,0,0-2.1,2.1m.08.484a.636.636,0,0,1,.079.241,29.071,29.071,0,0,0,2.259-2.257v-.161h-.082Zm2.5-1.774-2.338,2.418v.081h.081a33.751,33.751,0,0,0,2.418-2.419Zm-2.338,14.03v.162q1.317-1.227,5-5v-.161q-1.317,1.222-5,5m.161-11.128v.244a33.537,33.537,0,0,0,2.579-2.582v-.161h-.08a32.036,32.036,0,0,0-2.5,2.5m0,10.241v.242q.094,0,4.837-4.838v-.242q-.12.014-4.837,4.838m.08-9.594v.161q.161-.069,2.741-2.74v-.163q-.161.069-2.741,2.743m.081.564v.161h.081l2.9-2.821a.611.611,0,0,1-.081-.241q-.11,0-2.9,2.9m0,8.225v.161q2.123-2.029,4.676-4.675v-.161q-2.123,2.03-4.676,4.676m.081-7.58v.08h.081q.105,0,2.983-2.982v-.161q-.107,0-3.064,3.063m0,6.772v.244q1.96-1.87,4.6-4.6v-.242q-1.96,1.872-4.6,4.6m.081-6.209v.244q.134-.027,3.225-3.226v-.161h-.08q-.109,0-3.144,3.144m0,5.483v.161q1.129-1.034,4.434-4.434V414.7q-1.129,1.035-4.434,4.434m3.306-8.143-3.225,3.307v.161q.162-.056,3.386-3.387Zm-3.225,3.951v.242q.107,0,3.547-3.546V411.4q-.106,0-3.547,3.546m0,2.741v.161q.227-.131,4.192-4.193v-.078h-.08q-.229.135-4.112,4.11m0,.727v.161q.134-.042,4.273-4.274v-.161q-.135.038-4.273,4.273m.08-2.82v.158q.107,0,3.63-3.627v-.161q-.109,0-3.63,3.63m0,.644v.161q.107,0,3.791-3.79v-.161q-.109,0-3.791,3.791m0,.725v.161q.107,0,3.951-3.952v-.161q-.107,0-3.951,3.952" transform="translate(-326.943)"/><path class="a" d="M492.244,507.8H479.2v.256l-.32,1.734.114.055a3.927,3.927,0,0,1,3.027-1.712h.46l8.736.125L489.9,521.452l-1.086,6.567c-1.361,8.455-8.185,14.62-16.447,14.62-7.491,0-11.765-4.943-11.765-9.426,0-3.053,1.969-5.894,6.3-6.818l-.156-.317c-4.637.929-6.785,4.077-6.785,7.506,0,4.929,4.434,10.369,12.293,10.369a19.4,19.4,0,0,0,19.131-16.163l4-21.644-.113-.057a3.935,3.935,0,0,1-3.027,1.714" transform="translate(-155.452 -69.344)"/><path class="a" d="M585.338,523.551a4.871,4.871,0,0,1-4.853-4.567c6.11-.115,11.536-2.456,11.536-5.769,0-2.016-2.705-3.654-5.825-3.654a9,9,0,0,0-8.967,9.023c0,3.311,3.467,6,7.6,6,3,0,5.382-1.754,7.824-3.882l-.172-.173c-2.174,1.814-4.417,3.026-7.14,3.026m-4.91-5.2c0-4.8,1.942-7.995,5.139-7.995a3.214,3.214,0,0,1,3.255,3.083c0,2.914-3.369,5.082-8.394,5.2Z" transform="translate(-234.155 -71.674)"/><path class="a" d="M647.061,520.937c-1.028,0-1.427-.972-1.427-3.2a25.024,25.024,0,0,1,.114-2.741l2.113-8.85-.172-.057c-.455,1.256-.857,1.942-3.6,1.942a12.305,12.305,0,0,1-1.743-.242,16.421,16.421,0,0,0-2.54-.33,8.1,8.1,0,0,0-8.4,8.395c0,3.54,2.4,6.4,5.653,6.4,2.971,0,5.94-2.456,7.025-5.6.171,3.882,1.028,5.369,2.456,5.369,1.543,0,3.713-1.77,5.882-3.655l-.228-.173c-1.827,1.542-3.883,2.742-5.14,2.742m-4.282-5.882c-.515,3.427-2.8,6.454-5.082,6.454-2.342,0-3.256-2.169-3.256-4.912,0-4.969,2.455-8.28,5.255-8.28a20.814,20.814,0,0,1,2.241.161,15.606,15.606,0,0,0,1.584.124Z" transform="translate(-270.522 -69.344)"/><path class="a" d="M721.88,511.025c-1.518-.548-2.785-1.01-2.785-1.8,0-1.109,1.433-1.716,2.835-1.716,1.188,0,2.789,1.19,3.611,1.829l.137.044L727,506l-.184-.093a1.918,1.918,0,0,1-1.964,1.464,5.851,5.851,0,0,1-1.163-.214,7.766,7.766,0,0,0-1.718-.29c-2.5,0-4.558.877-4.558,2.794,0,2.209,2.45,3.156,4.585,3.954,1.643.615,3.962,1.846,3.962,4.2,0,2.079-2.286,3.767-5.1,3.767-3.187,0-5.788-1.75-5.788-3.91a2.842,2.842,0,0,1,2.954-2.764,2.654,2.654,0,0,1,2.615,2.692,3.192,3.192,0,0,1-.312,1.438,1.327,1.327,0,0,0,1.326-1.326,3.425,3.425,0,0,0-3.564-3.261,3.281,3.281,0,0,0-3.277,4.368c-1.979,1.418-3.511,2.221-4.712,2.221-.588,0-.82-.3-.82-.9a21.239,21.239,0,0,1,1.334-5.267,17.59,17.59,0,0,0,.97-4.115c0-2.341-1.712-3.94-4.284-3.94-3.13,0-5.89,3.323-7.595,7.9l.229-8.3-.115-.055a2.793,2.793,0,0,1-2.512,1.94h-2.856v.288l2.8.112v6.225c-.858,5.026-1.143,6.225-1.542,7.2l3.084-.227c.009-.166.151-1.439.336-2.891,1.218-6.06,4.3-11.044,7.944-11.044,1,0,1.442,1.366,1.442,2.79a6.793,6.793,0,0,1-.128,1.321l-.571,2.855a25.236,25.236,0,0,0-.586,4.48c0,1.852.6,2.715,2.128,2.715s3.03-1.111,5.544-3.054h0c.776,1.825,3.111,3.153,5.868,3.153,3.843,0,6.962-2.175,6.962-4.855,0-3.864-3.621-5.547-5.852-6.35" transform="translate(-312.83 -69.225)"/></g></svg>