<svg xmlns="http://www.w3.org/2000/svg" width="249.495" height="25" viewBox="0 0 249.495 25"><defs><style>.a{fill:#3e3e3e;}</style></defs><g transform="translate(-197 -4361)"><g transform="translate(197 4361)"><path class="a" d="M15.841,4.686q0-1.544-1.826-1.545T12.191,4.686v16.4q0,3.827-5.6,3.828H4.467a1.475,1.475,0,1,0,.018,2.95H6.59q9.269,0,9.27-7l-.019-.023Z" transform="translate(-3 -3.064)"/><path class="a" d="M40.947,24.909H25.319q-5.973,0-5.972-3.129v-4.6h21.6q1.266.032,1.265-1.476t-1.265-1.508h-21.6V9.35q0-2.47,4.631-3.012c.553-.066,1.143-.108,1.764-.13H40.4q1.264,0,1.265-1.4Q41.667,3.3,40.4,3.3H25.528A14.289,14.289,0,0,0,18.12,4.821a5.01,5.01,0,0,0-2.46,4.548V21.958q0,5.9,9.517,5.9h15.77q1.34,0,1.334-1.476T40.947,24.909Z" transform="translate(0.291 -3.032)"/><path class="a" d="M72.231,25.456,58.078,4.383A2.7,2.7,0,0,0,57.04,3.4a2.767,2.767,0,0,0-2.563,0,2.942,2.942,0,0,0-1.074.985L39.321,25.492a1.916,1.916,0,0,0-.248.934,1.479,1.479,0,0,0,.561,1.177,1.956,1.956,0,0,0,1.3.466,1.586,1.586,0,0,0,.7-.19,1.814,1.814,0,0,0,.667-.58l4.076-6.069H65.2l.006-.028,4.037,6.008a2.112,2.112,0,0,0,.72.578,1.778,1.778,0,0,0,.756.2A2.038,2.038,0,0,0,72,27.561a1.4,1.4,0,0,0,.546-1.158,2.327,2.327,0,0,0-.05-.439A1.114,1.114,0,0,0,72.231,25.456ZM48.306,18.248,55.821,6.517l7.344,11.731Z" transform="translate(6.382 -3.079)"/><path class="a" d="M95.695,3.159q-1.894,0-1.9,1.546V22.971l-21.473-19a2.172,2.172,0,0,0-.878-.546,3.186,3.186,0,0,0-.984-.159,2.506,2.506,0,0,0-1.546.528,1.967,1.967,0,0,0-.7,1.685v21.04q.006,1.544,1.793,1.545T71.8,26.515V7.967L93.473,27.355a2.22,2.22,0,0,0,.84.546,2.67,2.67,0,0,0,.877.159,2.248,2.248,0,0,0,1.545-.6,2.336,2.336,0,0,0,.668-1.826h.014V4.705Q97.417,3.159,95.695,3.159Z" transform="translate(13.96 -3.059)"/><path class="a" d="M172.556,4.668q0-1.512-1.755-1.512-1.932,0-1.932,1.512V26.515q-.043,1.512,1.825,1.512t1.867-1.512h-.005Z" transform="translate(40.139 -3.06)"/><path class="a" d="M172.4,9.623q0-6.321-10.185-6.321h-17.7a1.119,1.119,0,0,0-.3,0,1.055,1.055,0,0,0-.9,1.192V26.479q0,1.546,1.9,1.546,1.792,0,1.793-1.546V17.871l21.249,9.943a1.5,1.5,0,0,0,.7.21,1.425,1.425,0,0,0,1.158-.561,1.9,1.9,0,0,0,.466-1.227,1.387,1.387,0,0,0-.228-.756,1.5,1.5,0,0,0-.756-.58l-15.489-6.778h8.958q9.335,0,9.336-5.867H172.4ZM168.789,12.6q0,2.6-5.373,2.6h-16.4V6.21h15.769q6.009,0,6.008,3.2Z" transform="translate(33.491 -3.025)"/><path class="a" d="M120.836,3.3H103.256q-8.4-.006-8.4,5.793v2.46q0,5.164,9.588,5.164h7.408q6.009,0,6.008,3.2v2.106q0,2.881-5.023,2.881H96.029q-1.372-.066-1.372,1.443t1.372,1.507h16.3q9.169,0,9.168-5.653l.01.005V19.565q0-5.727-10.154-5.727h-7.515q-5.341,0-5.341-2.634V9.337q0-3.126,4.2-3.128h18.14a1.184,1.184,0,0,0,.34,0,1.227,1.227,0,0,0,1.032-1.4Q122.2,3.3,120.836,3.3Z" transform="translate(20.838 -3.024)"/><path class="a" d="M207.856,25.961a1.1,1.1,0,0,0-.262-.509L193.44,4.379a2.7,2.7,0,0,0-1.037-.985,2.774,2.774,0,0,0-2.563,0,2.959,2.959,0,0,0-1.069.985l-14.084,21.11a1.893,1.893,0,0,0-.247.932A1.48,1.48,0,0,0,175,27.6a1.966,1.966,0,0,0,1.3.467,1.61,1.61,0,0,0,.706-.192,1.836,1.836,0,0,0,.667-.58l4.076-6.069h18.826l-.009-.028,4.037,6.008a2.082,2.082,0,0,0,.72.578,1.76,1.76,0,0,0,.756.2,2.037,2.037,0,0,0,1.284-.425,1.4,1.4,0,0,0,.546-1.158A2.328,2.328,0,0,0,207.856,25.961Zm-24.182-7.717L191.19,6.512l7.342,11.731Z" transform="translate(41.588 -3.08)"/><path class="a" d="M144.719,24.89h-15.63q-5.971,0-5.97-3.128v-4.6h21.6q1.265.032,1.265-1.476t-1.265-1.508h-21.6V9.35q0-2.47,4.631-3.012.83-.1,1.764-.13h14.657q1.266,0,1.265-1.4,0-1.512-1.265-1.512H129.3a14.3,14.3,0,0,0-7.413,1.526,5.011,5.011,0,0,0-2.46,4.548V21.939q0,5.9,9.517,5.9h15.77q1.334,0,1.334-1.476T144.719,24.89Z" transform="translate(27.28 -3.032)"/></g></g></svg>