<svg xmlns="http://www.w3.org/2000/svg" width="188.628" height="75.181" viewBox="0 0 188.628 75.181"><defs><style>.a{fill:#3e3e3e;}</style></defs><g transform="translate(-825.44 40.005)"><g transform="translate(825.44 -40.005)"><g transform="translate(0 0)"><g transform="translate(108.919 10.142)"><path class="a" d="M1295.134,22.213c-.682.45-1.241.884-1.857,1.215-1.225.662-2.479,1.274-3.731,1.883-.261.126-.619.083-.847.245-4.826,3.4-9.268,1.93-13.769-1.062a8.53,8.53,0,0,1-7.361,3.2,30.893,30.893,0,0,1-5.147-1.208,8.6,8.6,0,0,0-3.032-.477,18.6,18.6,0,0,1-11.492-.827c-2.7-1.324-4.131-3.4-3.664-5.541a6.68,6.68,0,0,1,6.329-4.965c1.946.043,3.075,1.844,2.337,4.1A10.227,10.227,0,0,1,1251.006,22c-.913,1.1-.536,1.814.477,2.277a11.278,11.278,0,0,0,7.414.523,1.353,1.353,0,0,0,.583-1.182,15.487,15.487,0,0,1-.212-9.053c.281-1.655-.132-2.257-1.913-2.194-3.548.126-7.1.093-10.651-.03a4.163,4.163,0,0,1-2.251-1.122,1.685,1.685,0,0,1,.294-1.509c.8-.348,1.953-.788,2.6-.464,3.727,1.854,7.689,1.1,11.552,1.2.606.016,1.519-.91,1.81-1.605,1.145-2.708,2.092-5.5,3.131-8.252.308-.814.483-1.913,1.787-1.473,1.175.394.993,1.324.725,2.234-.6,2.016-1.228,4.022-1.811,6.041-.232.8-.374,1.622-.629,2.754,2.545,0,4.862.023,7.183,0,4.012-.05,4.005-.066,5.349-3.813.711-1.986,1.469-3.939,2.194-5.912.3-.808.526-1.731,1.7-1.36,1.119.354,1.159,1.122.818,2.158-.712,2.171-1.324,4.379-1.926,6.58-.189.682-.272,1.4-.45,2.357,1.883,0,3.6-.04,5.3,0,10.837.291,21.674.543,32.5.957a34.6,34.6,0,0,1,6.319,1.274c.4.093.728.5.953,1.125-1.271-.1-2.545-.149-3.81-.3a263.582,263.582,0,0,0-32.464-1.2c-2.7,0-5.412.139-8.109.331-.593.043-1.562.54-1.655.977a13.8,13.8,0,0,0,.281,9.692,6.067,6.067,0,0,0,9.47,1.211c.377-.311,0-1.731-.265-2.559-.129-.4-.827-.609-1.324-.957.228-1.506,1.052-2.049,2.512-1.589a3.251,3.251,0,0,1,1.109.576,4.15,4.15,0,0,0,5.627.563c2.181-1.377,3.876-.295,4.376,2.317.278,1.463.967,1.8,2.267,1.238a10.421,10.421,0,0,1,2.032-.735c.3-.06.688.285,1.036.444a8.4,8.4,0,0,1-.662.9c-.106.109-.331.083-.513.142-3.641,1.228-4.518,2.138-4.508,5.978a71.125,71.125,0,0,1-3.115,21.316,17.789,17.789,0,0,1-6.544,10.685,8.57,8.57,0,0,1-8.3.745,6.829,6.829,0,0,1-3.31-6.418,29.753,29.753,0,0,1,4.862-15.8,37.369,37.369,0,0,1,10.125-11.346C1295.6,27.691,1296.137,26.036,1295.134,22.213Zm.662,7.944a21.134,21.134,0,0,0-1.87,1.39,56.05,56.05,0,0,0-9.963,12.5,19.056,19.056,0,0,0-1.781,16.811c.662,1.715,1.791,2.152,3.177,1.052A24.691,24.691,0,0,0,1289,58.494a29.325,29.325,0,0,0,5.782-13.6,58.681,58.681,0,0,0,1.01-14.719Zm-21.422-18.294c-3.535.165-6.653.331-9.771.444-1.069.04-1.678.4-1.738,1.562-.1,1.913-.394,3.826-.394,5.736a6.054,6.054,0,0,0,9.539,5.419c1.46-.857,2.664-1.867,1.93-4.058a12.4,12.4,0,0,1-.146-4.432c.076-1.446.351-2.9.576-4.654Zm-24.03,4.991-.678-.576c-.523.331-1.3.543-1.523,1.016a3.094,3.094,0,0,0,.907,3.892Z" transform="translate(-1244.146 1.017)"/></g><g transform="translate(0 3.657)"><path class="a" d="M893.814-15.675a8.25,8.25,0,0,1,.579,3.078,13,13,0,0,1-2.932,7.821A28.439,28.439,0,0,1,875.6,4.764a4.091,4.091,0,0,1,.311,1.582,9.929,9.929,0,0,1-4.8,7.341,19.924,19.924,0,0,1-9.2,4.3,3.743,3.743,0,0,1-3.022-.44,1.655,1.655,0,0,1-.533-1.274,4.218,4.218,0,0,1,.533-1.847,4.634,4.634,0,0,1,2.443-2.463,1.112,1.112,0,0,1,.49-.132q.711,0,.711.615l-.4,1.1v.308a1.389,1.389,0,0,0,1.066.44,10.107,10.107,0,0,0,4.266-1.1,15.888,15.888,0,0,0,3.512-2.155,8.747,8.747,0,0,0,.755-.748,2.059,2.059,0,0,0,.4-.967,3.538,3.538,0,0,0-1.778-3.386,75.78,75.78,0,0,1-12.174,1.188,30.6,30.6,0,0,0-.043,4.928q0,.265.132,1.274a13.122,13.122,0,0,1,.089,1.324,3.049,3.049,0,0,1-.556,1.936q-1.069.88-1.629.791L856,17.12V15.886a24.377,24.377,0,0,0-.2-2.6,24.457,24.457,0,0,1-.2-2.6,7.748,7.748,0,0,1,.2-1.8q.05-.573.2-1.715A36.954,36.954,0,0,1,846.276,5.9q-2.317-.662-2.317-1.893a2.814,2.814,0,0,1,.354-1.231,8.484,8.484,0,0,1,5.3-3.475,26.58,26.58,0,0,1,7.282-1.1q.4-3.343.755-5.938.844-.748,1.2-.748a.523.523,0,0,1,.444.265,41.7,41.7,0,0,1-.179,6.511,43.775,43.775,0,0,1,4.8.662A26.937,26.937,0,0,1,873.2,2.123a36.921,36.921,0,0,0,12.042-4.085A9.268,9.268,0,0,0,890.7-9.823a9.769,9.769,0,0,0-5.422-8.08,31.9,31.9,0,0,0-15.226-4.17q-2.045-.132-4.177-.132a86.535,86.535,0,0,0-22.617,3.161,39.324,39.324,0,0,0-9.821,3.816A15.421,15.421,0,0,0,831-13.517q-.222.222-.576.636t-.533.636a4.326,4.326,0,0,0-.711,2.5,2.031,2.031,0,0,0,.662,1.536.579.579,0,0,1,.222.483,3.271,3.271,0,0,1-1.132,1.986,3.081,3.081,0,0,1-2.022,1.185q-1.466,0-1.466-2.678a7.074,7.074,0,0,1,.132-1.4,13.979,13.979,0,0,1,5.822-7.9,43.362,43.362,0,0,1,15.729-6.673,94.118,94.118,0,0,1,22.352-2.721,39.542,39.542,0,0,1,17.063,3.34A14,14,0,0,1,893.814-15.675ZM856.487,1.891a20.042,20.042,0,0,0-2.267-.043,33.815,33.815,0,0,0-4.177.526,60.064,60.064,0,0,0,6.309.834ZM863.73,3.3l-.09-.043q-1.655-.4-4.995-1.056l-.119,1.188q2.449.086,5.2-.08Z" transform="translate(-825.44 25.948)"/></g><g transform="translate(65.62 5.552)"><path class="a" d="M1093.593-14.35a27.718,27.718,0,0,1-3.776,10.986,37.076,37.076,0,0,1-7.98,10,7.142,7.142,0,0,0,4.4,4.859,6.949,6.949,0,0,0,2.8.47,19.383,19.383,0,0,0,2.615-.205q.437-.06.437.5a.49.49,0,0,1-.437.53,17.828,17.828,0,0,1-3.277.354,11.469,11.469,0,0,1-2.039-.176,1.7,1.7,0,0,0-.993-.331,2.6,2.6,0,0,1-.966-.205,7.5,7.5,0,0,1-2.648-1.37,7.792,7.792,0,0,1-1.95-2.165,19.048,19.048,0,0,1-1.82-6.805V1.431a1.506,1.506,0,0,1-.255-.854,3.537,3.537,0,0,1,.219-.957,3.57,3.57,0,0,0,.218-1.016v-.384a21.75,21.75,0,0,1,9.821-16.55,4.483,4.483,0,0,1,1.7-.331,5.882,5.882,0,0,1,2.936.824A3.972,3.972,0,0,1,1093.593-14.35Zm-2.542-.884q-.109-.619-.255-1.268a1.525,1.525,0,0,0-.728-.993,2.233,2.233,0,0,0-.993-.06A14.5,14.5,0,0,0,1083.5-10.1a31.833,31.833,0,0,0-2.7,13.961q.331.662.765.619a31.564,31.564,0,0,0,3.426-3.535A31.444,31.444,0,0,0,1091.051-15.234Z" transform="translate(-1077.696 18.66)"/></g><g transform="translate(76.592 27.256)"><path class="a" d="M1141.674,71.2a19.828,19.828,0,0,1-6.087,1.582,5.95,5.95,0,0,0-8.354-.354,7.156,7.156,0,0,1-4.687-1.628,5.646,5.646,0,0,1-2.317-3.916c-.238-.146-.354-.291-.354-.44q0-.573,1.424-1.1a8.823,8.823,0,0,1,2.8-.573q.89.354.891,1.986v1.231q0,1.715,1.155,1.8a4.151,4.151,0,0,0,3.178-1.655q1.711-1.781,2.909-1.562a5.085,5.085,0,0,1,.844,2.509,2.317,2.317,0,0,0,1.556,2.069,10.372,10.372,0,0,0,1.377.089,13.324,13.324,0,0,0,5.3-1.145Z" transform="translate(-1119.875 -64.771)"/></g><g transform="translate(93.406)"><path class="a" d="M1197.9.143a5.563,5.563,0,0,1-1.377,2.089,5.862,5.862,0,0,1-2.089,1.43l-2.532.308a6.564,6.564,0,0,1-4.267-2.86,3.336,3.336,0,0,0-.49-1.254,6.007,6.007,0,0,1-.533-1.079,29.613,29.613,0,0,1-.712-6.819q0-2.463.354-6.732.354-2.552,1.023-7.613-.046-.089-.4-.089a3.77,3.77,0,0,1-1.423.4q-1.066,0-.933-1.271a2.941,2.941,0,0,0,.49-1.052,4.132,4.132,0,0,1,.4-1.009,16.524,16.524,0,0,0,1.288-3.2,14.683,14.683,0,0,1,1.288-3.115q.993-2.5,3.022-7.507a1.783,1.783,0,0,1,1.066-.745q1.109-.132,1.245.549a6.989,6.989,0,0,1,.132,1.324,19.363,19.363,0,0,1-.265,2.648,19.436,19.436,0,0,0-.268,2.724,2.98,2.98,0,0,0-.268,1.473,2.979,2.979,0,0,1-.265,1.473q-.579,2.77-1.245,8.351a17.583,17.583,0,0,1-.662,3.254,8.87,8.87,0,0,0-.354,3.34,27.275,27.275,0,0,0-.49,5.537q0-.748.043,5.627l.993,2.814a3.286,3.286,0,0,0,2.135,1.986,4.9,4.9,0,0,0,1.986-.089,4.225,4.225,0,0,0,1.424-2.069,2.675,2.675,0,0,0-.622-2.244,4.436,4.436,0,0,0-1.556-.7q-1.023-.4-1.023-1.056a1.78,1.78,0,0,1,.132-.616q.311-.662.662-1.324a1.439,1.439,0,0,1,.993-.791A11.25,11.25,0,0,1,1196.4-8a1.727,1.727,0,0,1,1.324.526,6.981,6.981,0,0,1,.887,3.7A11.055,11.055,0,0,1,1197.9.143Z" transform="translate(-1184.508 40.005)"/></g></g><g transform="translate(52.453 47.552)"><g transform="translate(0 0.619)"><path class="a" d="M1027.88,148.2l-.351,1.387h-.45l1.145-4.409h.526l1.152,4.409h-.467l-.361-1.387Zm1.106-.444-.331-1.271c-.076-.288-.126-.549-.176-.8h0c-.05.261-.106.53-.169.8l-.331,1.278Z" transform="translate(-1027.079 -145.175)"/></g><g transform="translate(11.946 0.377)"><path class="a" d="M1073,144.247h.434v3.919h1.44v.477H1073Z" transform="translate(-1073 -144.247)"/></g><g transform="translate(23.286 0.377)"><path class="a" d="M1116.6,144.247h.433v3.919h1.44v.477h-1.877Z" transform="translate(-1116.593 -144.247)"/></g><g transform="translate(44.006 0.3)"><path class="a" d="M1196.365,147.742a1.287,1.287,0,0,0,.781.288.681.681,0,0,0,.708-.655.673.673,0,0,0,0-.1.892.892,0,0,0-.636-.877,1.324,1.324,0,0,1-.89-1.251,1.1,1.1,0,0,1,1-1.194c.031,0,.063,0,.094,0a1.247,1.247,0,0,1,.745.215l-.119.464a1.109,1.109,0,0,0-.639-.209.616.616,0,0,0-.637.594.639.639,0,0,0,0,.068c0,.414.205.616.662.851a1.324,1.324,0,0,1,.861,1.3,1.155,1.155,0,0,1-1.037,1.263,1.178,1.178,0,0,1-.145,0,1.432,1.432,0,0,1-.861-.281Z" transform="translate(-1196.246 -143.951)"/></g><g transform="translate(55.164 0.377)"><path class="a" d="M1239.575,144.247v4.409h-.437v-4.409Z" transform="translate(-1239.138 -144.247)"/></g><g transform="translate(65.51)"><path class="a" d="M1278.913,147.218l1.87-3.882v-.023h-1.711V142.8h2.277v.377l-1.86,3.869v.02h1.887v.516h-2.463Z" transform="translate(-1278.913 -142.796)"/></g><g transform="translate(76.609 0.003)"><path class="a" d="M1323.339,145.351h-1.324v1.724h1.46v.516h-1.9v-4.783h1.821v.516h-1.387v1.513h1.324Z" transform="translate(-1321.578 -142.809)"/></g><g transform="translate(87.886 0.161)"><path class="a" d="M1365.044,147.529a1.235,1.235,0,0,0,.781.311c.447,0,.705-.331.705-.818a.993.993,0,0,0-.635-.95,1.419,1.419,0,0,1-.891-1.357,1.158,1.158,0,0,1,1.009-1.29l.083-.007a1.181,1.181,0,0,1,.745.235l-.119.5a1.054,1.054,0,0,0-.639-.228.662.662,0,0,0-.638.686c0,.011,0,.022,0,.033,0,.447.205.662.662.923a1.44,1.44,0,0,1,.86,1.4c0,.738-.384,1.377-1.181,1.377a1.363,1.363,0,0,1-.861-.3Z" transform="translate(-1364.928 -143.417)"/></g></g></g></g></svg>