<svg xmlns="http://www.w3.org/2000/svg" width="179.834" height="44.961" viewBox="0 0 179.834 44.961"><defs><style>.a{fill:#3e3e3e;}</style></defs><g transform="translate(-1077 -4221)"><path class="a" d="M92.359,488.288s2.582-9.211,3.226-13.816l.647-4.605s.276-13.357,0-16.487a14.108,14.108,0,0,0-2.109-6.15c-.447-.727-1.485-2.42-2.385-2s.59,1.8.59,1.8a12.571,12.571,0,0,1,2.314,6.427c.171,3.659-.034,15.922-.034,15.922s-1.416,9.225-2.593,13.263l-1.379,4.286s-.587,1.485,0,1.761A1.291,1.291,0,0,0,92.359,488.288Z" transform="translate(996.902 3775.839)"/><path class="a" d="M92.915,456.088a.834.834,0,0,1-.861-.829c0-.826,1.208-1,2.072-.792a2.527,2.527,0,0,1,1.864,2.764c-.276,1.485-1.864,2.277-4.11,2.109s-5.113-2.348-5.113-4.457c0-3.007,3.836-6.7,8.877-7.187,2.177-.171,10.744-.553,12.987.345s6.806,2.836,6.669,7.911c.034,1.624-2.052,7.715-7.78,10.488,0,0,6.122,1.947,6.156,6.957s-3.785,8.863-14.118,8.695l-.6-.681.416-1.382.208.345,6.113-.205s6.389-1.106,6.358-6.426-6.737-6.908-10.3-6.079c-.379-1.935.105-1.59.105-1.59s10.707-.758,11.468-9.772c0,0,.228-5.175-6.01-6.911l-11.263-.068s-5.976.1-7.356,5.355c-.14,1.8,1.864,3.212,3.833,3.109,0,0,1.8.1,1.935-.969S92.915,456.088,92.915,456.088Z" transform="translate(990.232 3780.104)"/><path class="a" d="M112.949,463.623c1.074-2.625,2-8.912-1.9-11.5a6.444,6.444,0,0,0-7.843,0,10.5,10.5,0,0,0-4.078,8.011s.094,2.95,4.526,3.594c2.348.692,4.976-2.072,5.113-4.42s-2.038-4.7-4.594-2.9-1.83,3.662-.587,4.386,2.417-.9,2.28-1.553-1.106-.727-1.28-.413-.034-.8.556-.8,1.345-.242,1.813,1.174-1.813,2.83-3.092,2.9-3.73-1.624-2.833-3.8,2.97-6.047,6.079-6.013,5.495,2.485,5.181,6.181a23.708,23.708,0,0,1-3.625,9.775c-1.037-.274-5.8-1.208-8.738,1.556a4.045,4.045,0,0,0,.621,6.6,18.5,18.5,0,0,0,7.455.1s-.137,2.075,1.18,2.075.239-1.351,0-2.075a29.644,29.644,0,0,1-.174-4.383S111.88,466.248,112.949,463.623Zm-5.178,9.972c-.066,1.656-2.149,2.391-2.149,2.391H102.7c-2.288,0-2.457-2.653-2.457-2.653.1-2.246,3.229-3.585,3.229-3.585h4.3S107.839,471.934,107.771,473.6Z" transform="translate(1011.96 3786.214)"/><path class="a" d="M114.024,445.751h1.656s-.308,12.457-.653,15.566-2.8,14.668-2.938,16.259-2.177,9.541,3.7,9.784c2.519.1,4.249-2.548,4.352-4.654s-.519-3.759-2.553-3.622c0,0-1.451.074-1.59,1.074s.9,1.143,1.59,1.143a.976.976,0,0,1,.653,1.659c-.69.692-3.277.314-3.731-1.308a3.375,3.375,0,0,1,3.246-4.355c2.938-.1,4.01,3.488,3.976,4.557s-.242,5.805-5.11,7.116a18.514,18.514,0,0,1-2.836,0,5.781,5.781,0,0,1-3.594-5.007c-.1-3.112,1.8-14.68,2.662-18.2.852-3.477.829-6.241.966-10.559S114.024,445.751,114.024,445.751Z" transform="translate(1033.548 3776.93)"/><path class="a" d="M108.982,445.751h1.656s-.311,12.457-.653,15.566-2.8,14.668-2.938,16.259-2.177,9.541,3.7,9.784c2.519.1,4.249-2.548,4.352-4.654s-.519-3.759-2.554-3.622c0,0-1.453.074-1.59,1.074s.895,1.143,1.59,1.143a.976.976,0,0,1,.653,1.659c-.69.692-3.28.314-3.731-1.308a3.372,3.372,0,0,1,3.246-4.355c2.938-.1,4.01,3.488,3.976,4.557s-.242,5.805-5.113,7.116a18.508,18.508,0,0,1-2.836,0,5.779,5.779,0,0,1-3.591-5.007c-.1-3.112,1.8-14.68,2.662-18.2.849-3.477.829-6.241.966-10.559S108.982,445.751,108.982,445.751Z" transform="translate(1024.221 3776.93)"/><path class="a" d="M123.9,459.807s-1.419.034-1.419.829,1.419,1.14,2.385.273,2.662-2.519.792-4.383-5.483,1.029-5.7,3.246c-.251,2.6,1.106,4.591,6.563,4.523s7.016-4.078,7.016-6.216a7.658,7.658,0,0,0-7.5-6.7c-5.01-.068-10.71,7.014-10.812,11.4s1.656,10.673,6.529,13.679,10.744-1.416,10.986-4.075-.966-5.771-4.56-5.631-3.8,4.605-3.041,5.942c.53.929,3.7,1.867,4.836-.658s-2.006-2.8-2.038-.861c0,.655-1.072,1.208-1.245-.071a2.183,2.183,0,0,1,2.351-2.485c1.519.137,3.9,3.178.068,6.253s-9.6-1.419-10.607-4.594-3.491-9.712,2.109-14.3,8.6-2.693,10.225-.761,1.9,6.492-3.836,7.358-5.976-1.972-5.631-3.007a3.094,3.094,0,0,1,2.764-1.83C125.245,457.735,124.949,459.545,123.9,459.807Z" transform="translate(1042.877 3787.337)"/><path class="a" d="M124.46,452.3l-.983.983a63.33,63.33,0,0,1,2.6,7.746,111.084,111.084,0,0,1,1.357,16.489h1.243s-.208-9.071-.519-13.526,1.656-10.975,7.082-11.012,2.42,8.159-.8,8.222-3.314-3.725-1.243-4.1,1.556,1.918.9,2.16-.208,1.753.9,1.234,2.9-4.563-.9-4.976a3.435,3.435,0,0,0-2.764,5.971c2.249,2.038,7.806,1.485,8.327-4.386s-5.252-6.874-7.185-5.492-5.113,4.8-5.6,6.7C126.532,458.141,124.876,452.51,124.46,452.3Z" transform="translate(1058.14 3786.757)"/><path class="a" d="M131.313,451.59h1.659s.758,6.954.829,10.892-.45,14.067-.45,14.067h-1.485s.621-10.408.519-14S131.313,451.59,131.313,451.59Z" transform="translate(1072.635 3787.731)"/><path class="a" d="M135.192,450.86h1.656s.761,7.512.832,11.793.1,15.247.1,15.247H136.3s.068-11.268-.037-15.173S135.192,450.86,135.192,450.86Z" transform="translate(1079.811 3786.381)"/><path class="a" d="M134.208,452.987s1.707-.031,1.7.621a1.531,1.531,0,0,1-2.08,1.037,2.772,2.772,0,0,1-1.519-2.762c.239-1.28,3.591-2.9,4.939.553s-3.836,4.871-5.6,3.42-3.061-7.6,2.907-8.119c0,0,3.414-.345,4.312,2.454,0,0,.023.678-1.083.7s-.886-1.636-2.682-1.53-4.563.621-3.349,3.625,3.232,2.231,4.152,1.382C137.411,452.984,134.014,451.078,134.208,452.987Z" transform="translate(1070.532 3780.58)"/><path class="a" d="M135.856,460.574s5.529-6.663,7.911-7.185,7.253-.276,8.635,5.768-.311,12.54-3.109,15.13-6.21.037-4.916-2.417c0,0,.6-1.416,1.6-.727s-.45,1.7-.761,1.556-.693,1.137.655,1.311,2.764-2.14,2.075-3.491-3.7-1.864-4.771-.239-.69,6.147,2.42,6.771,7.669-2.348,8.914-10.12-1.727-12.645-4.32-14.406-7.324-2.693-14.369,5.563Z" transform="translate(1080.976 3787.26)"/><path class="a" d="M158.916,463.623c1.069-2.625,2-8.912-1.9-11.5a6.438,6.438,0,0,0-7.84,0,10.493,10.493,0,0,0-4.075,8.011s.231,2.907,4.523,3.594c2.351.692,4.976-2.072,5.113-4.42s-2.038-4.7-4.594-2.9-1.832,3.662-.587,4.386,2.42-.9,2.28-1.553-1.106-.727-1.277-.413-.034-.8.553-.8,1.345-.242,1.81,1.174-1.81,2.83-3.089,2.9-3.73-1.624-2.833-3.8,2.972-6.047,6.079-6.013,5.495,2.485,5.181,6.181a23.746,23.746,0,0,1-3.625,9.775c-1.037-.274-5.805-1.208-8.741,1.556a4.047,4.047,0,0,0,.621,6.6,18.512,18.512,0,0,0,7.458.1s-.134,2.075,1.177,2.075.245-1.351,0-2.075a29.578,29.578,0,0,1-.171-4.383S157.845,466.248,158.916,463.623Zm-5.178,9.972c-.068,1.656-2.155,2.391-2.155,2.391h-2.927c-2.286,0-2.454-2.653-2.454-2.653.1-2.246,3.229-3.585,3.229-3.585h4.306S153.8,471.934,153.738,473.6Z" transform="translate(1096.986 3786.214)"/></g></svg>