<svg xmlns="http://www.w3.org/2000/svg" width="200" height="58.64" viewBox="0 0 200 58.64"><defs><style>.a{fill:#3e3e3e;}</style></defs><g transform="translate(-2 -2.18)"><path class="a" d="M61.709,6.8l.8-4.615C51.333,7.7,42.389,2.19,37.98,3.9L36.794,8.2c7.392-1.316,11.441,1.8,20.655-.021C52.476,27.243,46.4,39.121,39.621,46.293c-7.164,7.572-15.13,9.9-23.447,9.9-6.047,0-10.217-2.277-12.193-5.649a5.722,5.722,0,0,1-1.036-3.09,13.189,13.189,0,0,1,2.5-5.931c4.908-7.124,16.418-13.8,35.913-15.009l-.011-4.607C21.758,23.125,10.158,29.881,5.187,37.1a17.7,17.7,0,0,0-3.066,8.3c-.386,3.854.156,7.119,1.564,9.522,2.064,3.522,6.341,5.9,12.489,5.9,8.368,0,16.393-2.354,23.634-10.009,6.98-7.378,14.242-23,19.448-43.14Z"/><path class="a" d="M47.965,45.407h69.143l0,8.017h68.487l3.722-9.823H49.118Q48.544,44.537,47.965,45.407Zm131.3,4.456h0v-.1l.1-.026.486-.13.168-.044h0v.62h2.066v-.819h-1.835a1.358,1.358,0,0,1-.4-.051.548.548,0,0,1-.142-.088.58.58,0,0,1-.141-.087.723.723,0,0,1-.141-.316,2.028,2.028,0,0,1-.042-.444v-.314a2.028,2.028,0,0,1,.042-.444.719.719,0,0,1,.141-.315.587.587,0,0,1,.283-.176,1.358,1.358,0,0,1,.4-.051h1.67a1.373,1.373,0,0,1,.392.05.607.607,0,0,1,.283.17h0a20.471,20.471,0,0,1,.149.3,1.63,1.63,0,0,1,.045.408v.171l-.093.031-.447.147-.175.057v-.572h-1.951v.739h1.842a1.289,1.289,0,0,1,.31.04c.024.005.058,0,.08.01.046.014.069.046.107.065a.607.607,0,0,1,.175.107h0a.722.722,0,0,1,.144.314,2.041,2.041,0,0,1,.042.446v.405a2.114,2.114,0,0,1-.041.447.741.741,0,0,1-.141.316h0a.588.588,0,0,1-.282.173,1.337,1.337,0,0,1-.394.051h-1.83a1.409,1.409,0,0,1-.185-.024,1.453,1.453,0,0,1-.213-.027c-.034-.011-.05-.035-.079-.049a.6.6,0,0,1-.206-.126h0a.732.732,0,0,1-.144-.315,2.045,2.045,0,0,1-.042-.447Zm-4.048-2.029V47.21h0v-.134h3.66v.134h0v.624h-1.438v2.981h0v.134h-.79v-.134h0V47.835h-1.432Zm-3.889,2.982v-3.74h2.66a1.123,1.123,0,0,1,.345.048.607.607,0,0,1,.26.16c.014.015.019.041.032.058a.653.653,0,0,1,.115.212,1.258,1.258,0,0,1,.045.354v.807h0c0,.009,0,.015,0,.024a1.289,1.289,0,0,1-.041.328h0a.642.642,0,0,1-.147.269.607.607,0,0,1-.26.16,1.123,1.123,0,0,1-.345.048h-.134l1.2,1.177.233.229h-1.163l-.04-.045-1.234-1.361h-.73v1.272h0v.134h-.792Zm-5.222-2.753a2.012,2.012,0,0,1,.042-.443.73.73,0,0,1,.143-.316h0a.592.592,0,0,1,.285-.176,1.363,1.363,0,0,1,.4-.051h2.167a1.344,1.344,0,0,1,.4.051,186.01,186.01,0,0,1,.283.175.72.72,0,0,1,.143.315,2.041,2.041,0,0,1,.042.446v1.9a2.022,2.022,0,0,1-.04.428l0,.02a.719.719,0,0,1-.143.316h0a.6.6,0,0,1-.283.172,1.337,1.337,0,0,1-.394.051H166.98a1.36,1.36,0,0,1-.4-.052.584.584,0,0,1-.285-.176h0a.741.741,0,0,1-.143-.316,2.028,2.028,0,0,1-.042-.444Zm-4.426,2.887v-.134h0V47.21h0v-.134h2.659a1.123,1.123,0,0,1,.345.048.6.6,0,0,1,.261.16.657.657,0,0,1,.147.27,1.257,1.257,0,0,1,.045.354v.806a1.243,1.243,0,0,1-.045.352h0a.666.666,0,0,1-.147.269.6.6,0,0,1-.261.16,1.123,1.123,0,0,1-.345.048h-1.867v1.272h0v.134h-.792Zm-5.483,0v-.134h0V47.21h0v-.134h.633l.039.061,1.408,2.169,1.31-2.165.04-.065h.689V50.95h-.748v-.134h0V48.454l-1.113,1.864-.039.066h-.282l-.039-.063-1.186-1.859V50.95H156.2Zm-2.15-.134v-3.74h.793V50.95h-.793Zm-8.218-1.044v-.288a1.544,1.544,0,0,1,.024-.284.84.84,0,0,1,.074-.233,60.041,60.041,0,0,0,.157-.208c.032-.032.079-.065.118-.1s.079-.071.13-.108h0l.616-.45c-.018-.023-.036-.045-.052-.068a1.154,1.154,0,0,1-.111-.184.962.962,0,0,1-.064-.192v-.01a1.038,1.038,0,0,1-.02-.194V47.21a1.358,1.358,0,0,1,.057-.416.689.689,0,0,1,.185-.3h0a.768.768,0,0,1,.33-.168,1.8,1.8,0,0,1,.457-.051h.722a1.842,1.842,0,0,1,.471.053.717.717,0,0,1,.33.18.742.742,0,0,1,.173.329,1.892,1.892,0,0,1,.026.23,1.921,1.921,0,0,1,.025.231v.341l-.058.013-.048.01-.508.108-.161.034h0v-.723h-1.194v.451l1.716,1.622.8-.87.1-.107.1.108.327.359.082.09-.082.089-.776.846.834.783.291.272.163.154.082.077h-1.185l-.038-.037-.689-.65-.339.379h0a1.265,1.265,0,0,1-.156.144.8.8,0,0,1-.163.1h0a.792.792,0,0,1-.2.049,1.885,1.885,0,0,1-.252.016h-1.256a1.631,1.631,0,0,1-.48-.062.7.7,0,0,1-.334-.207.872.872,0,0,1-.168-.373,2.431,2.431,0,0,1-.051-.536Zm-6.935.091v-.1l.1-.026.485-.13.168-.044h0v.62h2.067v-.819h-1.835a1.36,1.36,0,0,1-.4-.051.543.543,0,0,1-.141-.088.568.568,0,0,1-.142-.087.735.735,0,0,1-.141-.316,2.028,2.028,0,0,1-.042-.444v-.314a2.028,2.028,0,0,1,.042-.444.731.731,0,0,1,.141-.315.587.587,0,0,1,.283-.176,1.36,1.36,0,0,1,.4-.051h1.669a1.368,1.368,0,0,1,.392.05.607.607,0,0,1,.283.17h0a20.681,20.681,0,0,1,.149.3h0a1.63,1.63,0,0,1,.045.408v.171l-.092.031-.448.147-.174.057h0v-.572h-1.951v.739H141.6a1.311,1.311,0,0,1,.39.05.6.6,0,0,1,.282.172h0a.722.722,0,0,1,.144.314,2.041,2.041,0,0,1,.042.446v.405a2.114,2.114,0,0,1-.041.447.73.73,0,0,1-.141.316h0a.588.588,0,0,1-.282.173,1.332,1.332,0,0,1-.394.051h-1.83c-.042,0-.069-.012-.108-.014a1.431,1.431,0,0,1-.29-.037c-.038-.012-.056-.039-.088-.055a.569.569,0,0,1-.2-.12h0a.732.732,0,0,1-.144-.315,2.045,2.045,0,0,1-.042-.447Zm-4.954,1.087v-.134h0V47.21h0v-.134h.518l.04.041,2.345,2.411q.042.043.087.1c0-.041,0-.085,0-.135,0-.1,0-.2,0-.3V47.21h0v-.134h.748v.134h0v3.606h0v.134h-.483l-.04-.042L134.744,48.4l-.01-.009-.01-.01,0,0-.031-.032,0-.006,0,.111c0,.09,0,.17,0,.239v2.125h0v.134h-.748Zm-5.1,0,.091-.191,1.71-3.606.037-.077h.728l.036.076,1.741,3.606.093.192H132.4l-.035-.079L132,50.063h-1.949l-.364.808-.036.079h-.813Zm-3.6,0v-.134h0V47.21h0v-.134h3.286v.134h0v.484h0v.134h-2.494v.736h1.524V48.7h0v.611h-1.524v.878h2.517v.763h-3.309Zm-4.3-1.707v-.1l.1-.025.516-.125.165-.041v.17h0v1.064h1.413V47.21h0v-.134h.79v.134h0v2.752a2.041,2.041,0,0,1-.042.446.719.719,0,0,1-.143.316h0a.6.6,0,0,1-.284.175,1.43,1.43,0,0,1-.252.032,1.272,1.272,0,0,1-.145.019H121.8a1.354,1.354,0,0,1-.263-.034,1.323,1.323,0,0,1-.134-.017.555.555,0,0,1-.155-.095.575.575,0,0,1-.128-.078h0a.729.729,0,0,1-.141-.316,2.045,2.045,0,0,1-.042-.447Z"/><path class="a" d="M121.8,50.95a1.354,1.354,0,0,1-.263-.034,1.354,1.354,0,0,0,.263.034h1.257a1.272,1.272,0,0,0,.145-.019,1.272,1.272,0,0,1-.145.019Z"/><path class="a" d="M121.122,50.726h0a.575.575,0,0,0,.128.078.575.575,0,0,1-.128-.078Z"/><path class="a" d="M123.74,50.724h0Z"/><path class="a" d="M182.827,49.962a2.114,2.114,0,0,1-.041.447,2.114,2.114,0,0,0,.041-.447v-.405a2.041,2.041,0,0,0-.042-.446,2.041,2.041,0,0,1,.042.446Z"/><path class="a" d="M182.465,48.689c-.038-.019-.061-.051-.107-.065-.022-.007-.056-.005-.08-.01.024.005.058,0,.08.01A.564.564,0,0,1,182.465,48.689Z"/><rect class="a" width="1.951" transform="translate(180.126 47.834)"/><path class="a" d="M179.714,49.223a.548.548,0,0,0,.142.088,1.358,1.358,0,0,0,.4.051h0a1.36,1.36,0,0,1-.4-.051A.548.548,0,0,1,179.714,49.223Z"/><path class="a" d="M182.792,48a1.63,1.63,0,0,0-.045-.408.69.69,0,0,0-.074-.149.69.69,0,0,1,.074.149A1.63,1.63,0,0,1,182.792,48Z"/><path class="a" d="M180.022,49.561l-.167.045.167-.045Z"/><path class="a" d="M180.253,47.076a1.358,1.358,0,0,0-.4.051,1.36,1.36,0,0,1,.4-.051Z"/><path class="a" d="M182.644,50.726h0a.741.741,0,0,0,.141-.316.73.73,0,0,1-.141.316Z"/><path class="a" d="M179.455,50.724h0a.6.6,0,0,0,.206.126.6.6,0,0,1-.206-.126Z"/><path class="a" d="M180.138,50.95a1.409,1.409,0,0,1-.185-.024,1.409,1.409,0,0,0,.185.024h1.83a1.337,1.337,0,0,0,.394-.051,1.337,1.337,0,0,1-.394.051Z"/><path class="a" d="M177.443,47.834h0Z"/><path class="a" d="M176.653,47.835h0Z"/><path class="a" d="M176.787,50.95h0Z"/><path class="a" d="M173.787,47.81h0a.4.4,0,0,1,.122.015A.4.4,0,0,0,173.787,47.81Z"/><path class="a" d="M173.978,47.907a.156.156,0,0,0-.026-.059.156.156,0,0,1,.026.059Z"/><path class="a" d="M173.978,48.717a.608.608,0,0,0,.014-.143.608.608,0,0,1-.014.143Z"/><path class="a" d="M174.629,47.342c-.013-.017-.018-.043-.032-.058a.607.607,0,0,0-.26-.16.607.607,0,0,1,.26.16C174.611,47.3,174.616,47.325,174.629,47.342Z"/><path class="a" d="M173.913,48.8a.461.461,0,0,1-.126.014h0A.456.456,0,0,0,173.913,48.8Z"/><path class="a" d="M174.187,50.95h-.059l-.04-.044.04.044h.059Z"/><path class="a" d="M173.858,49.544h.134a1.123,1.123,0,0,0,.345-.048,1.123,1.123,0,0,1-.345.048Z"/><path class="a" d="M174.745,49.067a1.289,1.289,0,0,0,.041-.328,1.249,1.249,0,0,1-.042.328Z"/><path class="a" d="M171.465,50.95h0Z"/><path class="a" d="M172.124,49.544h.73l1.234,1.361-1.234-1.361Z"/><path class="a" d="M173.992,47.076h0a1.123,1.123,0,0,1,.345.048A1.123,1.123,0,0,0,173.992,47.076Z"/><path class="a" d="M173.913,48.8h0a.1.1,0,0,0,.041-.02h0a.123.123,0,0,0,.024-.056h0a.608.608,0,0,0,.014-.143v-.525a.611.611,0,0,0-.014-.142h0a.156.156,0,0,0-.026-.059h0a.09.09,0,0,0-.043-.023.4.4,0,0,0-.122-.015h-1.663v1h1.663A.461.461,0,0,0,173.913,48.8Z"/><path class="a" d="M166.295,50.722a.735.735,0,0,1-.143-.316,2.028,2.028,0,0,1-.042-.444,2.028,2.028,0,0,0,.042.444A.741.741,0,0,0,166.295,50.722Z"/><rect class="a" width="2.327" transform="translate(166.9 47.834)"/><path class="a" d="M166.98,50.95a1.36,1.36,0,0,1-.4-.052,1.36,1.36,0,0,0,.4.052h2.167a1.337,1.337,0,0,0,.394-.051,1.337,1.337,0,0,1-.394.051Z"/><path class="a" d="M169.7,47.224a.613.613,0,0,0-.157-.1,1.344,1.344,0,0,0-.4-.051,1.344,1.344,0,0,1,.4.051A.587.587,0,0,1,169.7,47.224Z"/><path class="a" d="M169.825,50.726h0a.719.719,0,0,0,.143-.316l0-.02,0,.02A.719.719,0,0,1,169.825,50.726Z"/><rect class="a" width="2.327" height="2.346" transform="translate(166.9 47.835)"/><path class="a" d="M164.3,48.766h0Z"/><path class="a" d="M164.343,48.558a.6.6,0,0,1-.014.146.6.6,0,0,0,.014-.146v-.5a.6.6,0,0,0-.014-.146.6.6,0,0,1,.014.146Z"/><path class="a" d="M164.261,48.789c-.01,0-.028,0-.041,0,.013,0,.031,0,.041,0h0c.01,0,.013-.008.02-.011s-.01.008-.02.011Z"/><path class="a" d="M162.342,50.95h0Z"/><path class="a" d="M162.476,49.544h1.867a1.123,1.123,0,0,0,.345-.048,1.123,1.123,0,0,1-.345.048Z"/><path class="a" d="M165.1,47.554a.657.657,0,0,0-.147-.27.6.6,0,0,0-.261-.16.6.6,0,0,1,.261.16A.664.664,0,0,1,165.1,47.554Z"/><path class="a" d="M164.22,48.793c.013,0,.031,0,.041,0h0c.01,0,.013-.008.02-.011a.145.145,0,0,0,.022-.012h0a.145.145,0,0,0,.027-.061.6.6,0,0,0,.014-.146v-.5a.6.6,0,0,0-.014-.146.16.16,0,0,0-.026-.061.1.1,0,0,0-.042-.024h0a.439.439,0,0,0-.122-.014h-1.663V48.8h1.663A.365.365,0,0,0,164.22,48.793Z"/><path class="a" d="M158.138,50.384h0l-.04-.062Z"/><path class="a" d="M156.913,48.462l1.186,1.86-1.186-1.86Z"/><path class="a" d="M160.32,50.816v.134h0V47.076h0v3.74Z"/><path class="a" d="M156.779,50.95h0Z"/><path class="a" d="M159.631,47.076l-.039.065-1.311,2.165,1.311-2.166Z"/><path class="a" d="M154.71,50.95h-.659V47.076h0V50.95h.659Z"/><path class="a" d="M146.866,50.95a1.631,1.631,0,0,1-.48-.062,1.631,1.631,0,0,0,.48.062h1.256a1.885,1.885,0,0,0,.252-.016,1.885,1.885,0,0,1-.252.016Z"/><path class="a" d="M146.206,48.661c-.039.033-.086.066-.118.1a.806.806,0,0,0-.1.138.861.861,0,0,1,.1-.138C146.12,48.727,146.167,48.694,146.206,48.661Z"/><path class="a" d="M146.952,48.1l-.616.451h0Z"/><path class="a" d="M148.9,50.642l.34-.378h0Z"/><path class="a" d="M148.867,47.765l.508-.108.048-.01-.048.01Z"/><path class="a" d="M151.065,50.873l-.164-.154-.29-.272.29.272Z"/><path class="a" d="M149.228,49.149h0l-1.716-1.621h0Z"/><path class="a" d="M150.015,50.95h0Z"/><path class="a" d="M146.7,47.21a1.358,1.358,0,0,1,.057-.416,1.358,1.358,0,0,0-.057.416v.245a1.038,1.038,0,0,0,.02.194,1.038,1.038,0,0,1-.02-.194Z"/><path class="a" d="M149.43,46.832a1.892,1.892,0,0,1,.026.23,1.892,1.892,0,0,0-.026-.23.742.742,0,0,0-.173-.329.717.717,0,0,0-.33-.18.708.708,0,0,1,.329.18A.733.733,0,0,1,149.43,46.832Z"/><path class="a" d="M147.734,46.27a1.8,1.8,0,0,0-.457.051,1.8,1.8,0,0,1,.457-.051Z"/><path class="a" d="M148.706,47.8l.161-.034-.161.034Z"/><path class="a" d="M148.676,49.729l-1.191-1.095-.844.688v.8h1.666Z"/><path class="a" d="M139.651,50.181h0v-.62h0v.62Z"/><path class="a" d="M138.9,49.962v-.2l.1-.026-.1.026v.2a2.045,2.045,0,0,0,.042.447A2.045,2.045,0,0,1,138.9,49.962Z"/><path class="a" d="M141.707,47.834h0v.572h0v-.572Z"/><path class="a" d="M139.344,49.223a.543.543,0,0,0,.141.088,1.36,1.36,0,0,0,.4.051,1.36,1.36,0,0,1-.4-.051A.543.543,0,0,1,139.344,49.223Z"/><path class="a" d="M142.376,47.593a1.63,1.63,0,0,1,.045.408,1.63,1.63,0,0,0-.045-.408h0a.691.691,0,0,0-.074-.149.691.691,0,0,1,.074.149Z"/><path class="a" d="M142.414,49.111a.722.722,0,0,0-.144-.314h0A.722.722,0,0,1,142.414,49.111Z"/><path class="a" d="M139.767,50.95c-.042,0-.069-.012-.108-.014.039,0,.066.014.108.014h1.83a1.332,1.332,0,0,0,.394-.051,1.337,1.337,0,0,1-.394.051Z"/><path class="a" d="M139.084,50.724h0a.569.569,0,0,0,.2.12.57.57,0,0,1-.2-.12Z"/><path class="a" d="M142.273,50.726h0a.73.73,0,0,0,.141-.316.73.73,0,0,1-.141.316Z"/><path class="a" d="M137.247,50.95h-.056l-.04-.041.04.041h.056Z"/><path class="a" d="M134.722,48.379l0,0,.01.009-.01-.009Z"/><path class="a" d="M134.558,50.95h0Z"/><path class="a" d="M136.926,49.188c0,.1,0,.2,0,.3,0,.05,0,.094,0,.135,0-.041,0-.085,0-.135C136.927,49.387,136.926,49.286,136.926,49.188Z"/><path class="a" d="M129.567,50.95h.086l.036-.079-.036.079h-.086Z"/><path class="a" d="M132.488,50.95H132.4l-.036-.079.036.079h.086Z"/><path class="a" d="M131.029,47.943h0l.637,1.392Z"/><path class="a" d="M131.029,47.943l-.635,1.392h1.272Z"/><path class="a" d="M128.418,50.95h.134v-.762h0v.762h-.134Z"/><path class="a" d="M126.034,47.828h0Z"/><path class="a" d="M65.537,17.923a.623.623,0,0,1,.443.228.669.669,0,0,1,.071.6,44.25,44.25,0,0,1-1.61,4.546L61.576,30.54Q59.288,36.3,58.964,37a4.434,4.434,0,0,1-.457.831.884.884,0,0,1-.277.227,8.621,8.621,0,0,1-1.63.472l-.194.149-.307.859.09.117q3.249-.1,5.721-.1l7.147.066q.956,0,3.547.05l.211-.149,2.319-5.538-.083-.128h-.959l-.161.128q-.571,1.04-.732,1.4a7.91,7.91,0,0,1-1.019,1.74,2.04,2.04,0,0,1-.922.483,11.569,11.569,0,0,1-2.126.26q-1.544.1-3.587.1h-2.7q.353-1.14,1.367-3.653l2.32-5.815q.764-.033,1.337-.033,3,.083,6.01.144l.226-.144.74-1.43-.057-.194q-1.706.083-3.167.083-.939,0-4.466-.083c.575-1.464,1.027-2.572,1.346-3.332l2.136-5.066a19.553,19.553,0,0,1,3-.194,22.478,22.478,0,0,1,2.382.133,7.839,7.839,0,0,1,1.665.288c.275.111.444.222.489.344a1.235,1.235,0,0,1-.032.665c-.055.249-.241,1.009-.555,2.273l.1.133h.848l.173-.133c.253-.738.545-1.525.889-2.373.64-1.58,1-2.5,1.085-2.76l-.123-.194q-9.114.115-9.9.116-4.365,0-6.925-.116l-.173.133-.332.892.088.128C64.605,17.851,65.348,17.9,65.537,17.923Z"/><path class="a" d="M201.885,16.637c-1.771.067-2.826.1-3.176.1q-.632,0-3.4-.1h-.859l-.174.133-.343.793.094.177c.561.045,1.041.078,1.431.095a1.894,1.894,0,0,1,.929.232c.23.139.3.405.216.8q-.335,1.5-6.167,15.959L185.821,21.9l-1.785-5.261-4.61.067c-.64.011-1.422-.011-2.341-.067l-.24.133-.278.826.062.144a10.743,10.743,0,0,1,2.568.394,3.392,3.392,0,0,1,.943,1.491l-4.1,10.1c-.5,1.209-1.06,2.545-1.681,3.991l-1.389,3.155a3.658,3.658,0,0,1-.707,1.208,1.954,1.954,0,0,1-.53.338,9.158,9.158,0,0,1-1.873.172l-.157.133-.25.826.071.127c1.587-.083,2.606-.127,3.05-.127.3,0,1.495.033,3.581.1h.859l.155-.1.311-.826-.064-.133c-.567-.044-1.021-.072-1.372-.089a2.37,2.37,0,0,1-.932-.221c-.276-.128-.362-.416-.263-.86q.444-1.995,6.158-15.864l6.254,18.253h2.854q1.314-3.7,2.4-6.319l4.8-11.513a20.768,20.768,0,0,1,1.77-3.67,1.518,1.518,0,0,1,.687-.471,14.315,14.315,0,0,1,1.768-.1l.21-.144.25-.826Z"/><path class="a" d="M165.911,38.561c-1.3-.011-2.042-.139-2.236-.388a2.8,2.8,0,0,1-.175-1.708l.116-1.962.225-3.282.339-4.384.433-5.36.412-4.84h-3.171q-.84,1.157-2.53,3.2l-3.863,4.728-6.355,7.91-2.615,3.232c-.973,1.208-1.551,1.912-1.72,2.1a2.673,2.673,0,0,1-.485.432,1.28,1.28,0,0,1-.423.183c-.134.028-.627.078-1.483.139l-.2.133-.3.842.079.144c2.313-.083,3.631-.127,3.942-.127q.814,0,2.357.066c.772.045,1.162.061,1.173.061l.189-.127.3-.843-.083-.149a7.236,7.236,0,0,1-2.345-.25.457.457,0,0,1-.234-.493,3.452,3.452,0,0,1,.374-.76q.324-.556,1.86-2.627t2.859-3.731h2.921l2.493-.016q.449,0,1.925.016-.487,5.7-.741,6.841a1.1,1.1,0,0,1-.61.776,5.507,5.507,0,0,1-2.072.244l-.194.149-.311.826.1.144q3.7-.125,4.773-.127,1.231,0,4.872.127l.2-.144.277-.826Zm-6.06-9.335q-.395.016-5.447.017c-.106,0-.42-.006-.933-.017l7.066-8.786Z"/><path class="a" d="M128.8,38.528q-.615.033-.76.049l-.177.15-.28.809.081.133q2.463-.115,5.126-.116c2.306,0,4.082.039,5.318.116l.183-.149.274-.81-.081-.133-1.674-.077a1.9,1.9,0,0,1-.971-.244.657.657,0,0,1-.175-.732q.148-.664,1.2-3.442l4.872-12.328a29.831,29.831,0,0,1,1.419-3.166,1.526,1.526,0,0,1,.4-.454,1.389,1.389,0,0,1,.482-.227,18.306,18.306,0,0,1,2.109-.133l.172-.128.343-.892-.065-.133c-2.728.077-4.488.116-5.292.116-1.945,0-3.649-.039-5.1-.116l-.183.149-.322.876.082.128,1.478.083a3.867,3.867,0,0,1,.977.144.521.521,0,0,1,.287.277.894.894,0,0,1,0,.471q-.235,1.056-2.17,5.943l-3.431,8.641q-1.483,3.75-1.809,4.269a2.065,2.065,0,0,1-.638.7A4.648,4.648,0,0,1,128.8,38.528Z"/><path class="a" d="M106.664,35.462c-2.009,1.957-3.132,3.016-3.37,3.165l-.36.893.092.16c1.8-.083,3.476-.127,5.051-.127h5.992q2.985,0,3.679.033l2.606.094c.583.023.979.034,1.2.034.36,0,.689-.011,1-.034l.206-.127c.8-1.99,1.672-3.953,2.606-5.881l-.138-.178h-.892l-.2.166c-.333.627-.592,1.092-.764,1.392s-.354.593-.538.87-.351.532-.52.771-.33.46-.5.665a36.789,36.789,0,0,1-7.582.571l-4.682-.033L124.1,23.461q2.954-2.927,6.079-5.8l.343-.893-.115-.133q-5.61.1-7.494.1-5.555,0-10.625-.133l-.244.227q-.327,1.056-2.1,5.427l.1.128h.893l.229-.161a22.436,22.436,0,0,1,1.207-2.256,6.347,6.347,0,0,1,.734-1.059,3.959,3.959,0,0,1,1.1-.216c.639-.083,1.323-.144,2.054-.189s1.911-.066,3.546-.066h4.19L111.968,30.312Z"/><path class="a" d="M82,35.462c-2.009,1.957-3.132,3.016-3.37,3.165l-.36.893.092.16c1.8-.083,3.476-.127,5.051-.127H89.4q2.985,0,3.679.033l2.606.094c.583.023.979.034,1.2.034.36,0,.69-.011,1-.034l.206-.127c.8-1.99,1.672-3.953,2.606-5.881l-.138-.178h-.892l-.2.166c-.334.627-.592,1.092-.764,1.392s-.354.593-.538.87-.351.532-.521.771-.329.46-.5.665a36.789,36.789,0,0,1-7.582.571L84.882,37.9,99.431,23.461q2.954-2.927,6.079-5.8l.343-.893-.115-.133q-5.61.1-7.494.1-5.555,0-10.625-.133l-.244.227q-.327,1.056-2.1,5.427l.1.128h.893l.23-.161a22.446,22.446,0,0,1,1.206-2.256,6.347,6.347,0,0,1,.734-1.059,3.959,3.959,0,0,1,1.1-.216c.639-.083,1.324-.144,2.054-.189s1.91-.066,3.546-.066h4.19L87.3,30.312Z"/><path class="a" d="M136.934,49.624q-.045-.052-.087-.1.042.043.087.1Z"/><path class="a" d="M136.847,49.528,134.5,47.117l-.04-.041.04.041Z"/><path class="a" d="M179.661,50.85c.029.014.045.038.079.049a1.453,1.453,0,0,0,.213.027,1.353,1.353,0,0,1-.214-.028C179.706,50.888,179.69,50.863,179.661,50.85Z"/><path class="a" d="M181.968,48.574a1.341,1.341,0,0,1,.31.04,1.289,1.289,0,0,0-.31-.04h0Z"/><path class="a" d="M121.25,50.8a.555.555,0,0,0,.155.095,1.323,1.323,0,0,0,.134.017,1.323,1.323,0,0,1-.134-.017A.555.555,0,0,1,121.25,50.8Z"/><path class="a" d="M174.789,47.908a1.258,1.258,0,0,0-.045-.354.653.653,0,0,0-.115-.212.653.653,0,0,1,.115.212A1.258,1.258,0,0,1,174.789,47.908Z"/><path class="a" d="M123.2,50.931a1.43,1.43,0,0,0,.252-.032.6.6,0,0,0,.284-.175.593.593,0,0,1-.284.174A1.339,1.339,0,0,1,123.2,50.931Z"/><path class="a" d="M166.295,50.722h0a.584.584,0,0,0,.285.176.584.584,0,0,1-.285-.176Z"/><path class="a" d="M171.332,50.816v-3.74h0V50.95h0Z"/><path class="a" d="M120.98,50.409a.729.729,0,0,0,.141.316h0A.729.729,0,0,1,120.98,50.409Z"/><path class="a" d="M182.641,48.8a.733.733,0,0,1,.144.314.722.722,0,0,0-.144-.314h0a.607.607,0,0,0-.175-.107.607.607,0,0,1,.175.107Z"/><path class="a" d="M134.734,48.391l.01.009,2.408,2.508L134.744,48.4Z"/><path class="a" d="M121.722,48.947l-.165.04-.516.126.516-.126Z"/><path class="a" d="M182.673,47.444a.685.685,0,0,0-.075-.148h0A.685.685,0,0,1,182.673,47.444Z"/><path class="a" d="M130.641,47.153l-1.71,3.606-.09.191.09-.19Z"/><path class="a" d="M179.573,47.3a.719.719,0,0,0-.141.315,2.028,2.028,0,0,0-.042.444,2.028,2.028,0,0,1,.042-.444A.719.719,0,0,1,179.573,47.3Z"/><path class="a" d="M174.789,48.715h0c0,.009,0,.015,0,.024C174.786,48.73,174.789,48.724,174.789,48.715Z"/><path class="a" d="M174.6,49.336a.607.607,0,0,1-.26.16.607.607,0,0,0,.26-.16.642.642,0,0,0,.147-.269h0A.653.653,0,0,1,174.6,49.336Z"/><path class="a" d="M123.74,50.724a.719.719,0,0,0,.143-.316.719.719,0,0,1-.143.316Z"/><path class="a" d="M179.432,48.82a2.028,2.028,0,0,1-.042-.444,2.028,2.028,0,0,0,.042.444.723.723,0,0,0,.141.316.58.58,0,0,0,.141.087.553.553,0,0,1-.141-.088A.714.714,0,0,1,179.432,48.82Z"/><path class="a" d="M175.058,50.721l.233.229-.233-.229-1.2-1.177h0Z"/><path class="a" d="M129.689,50.871l.364-.807h0Z"/><path class="a" d="M133.276,50.95l-.092-.192-1.741-3.606,1.741,3.606Z"/><path class="a" d="M180.022,50.181h0v-.62h0v.62Z"/><path class="a" d="M141.707,48.407l.175-.057-.175.057Z"/><path class="a" d="M151.147,50.95l-.082-.077.082.077Z"/><path class="a" d="M148.575,50.884h0a.8.8,0,0,0,.163-.1,1.265,1.265,0,0,0,.156-.144,1.265,1.265,0,0,1-.156.144A.8.8,0,0,1,148.575,50.884Z"/><path class="a" d="M141.6,48.574a1.344,1.344,0,0,1,.39.05.6.6,0,0,1,.282.172h0a.6.6,0,0,0-.282-.172,1.311,1.311,0,0,0-.39-.05h0Z"/><path class="a" d="M150.03,48.28l.1-.107-.1.107-.8.869h0Z"/><path class="a" d="M150.611,50.447l-.834-.782.775-.846-.776.846Z"/><rect class="a" width="1.194" transform="translate(147.512 47.076)"/><path class="a" d="M169.541,50.9a.6.6,0,0,0,.283-.172h0A.6.6,0,0,1,169.541,50.9Z"/><path class="a" d="M146.336,48.553c-.051.037-.087.072-.13.108.043-.036.079-.071.13-.108Z"/><path class="a" d="M156.912,50.816v.134h0V48.462h0Z"/><path class="a" d="M154.844,50.816v.134h0V47.076h0v3.74Z"/><path class="a" d="M149.235,50.263h0l.688.65.039.037-.039-.037Z"/><path class="a" d="M139.281,50.844c.032.016.05.043.088.055a1.431,1.431,0,0,0,.29.037,1.36,1.36,0,0,1-.29-.038C139.331,50.887,139.313,50.86,139.281,50.844Z"/><path class="a" d="M139.651,49.561l-.167.045.167-.045Z"/><path class="a" d="M139.084,50.724h0a.732.732,0,0,1-.144-.315A.732.732,0,0,0,139.084,50.724Z"/><path class="a" d="M142.456,49.962a2.114,2.114,0,0,1-.041.447,2.114,2.114,0,0,0,.041-.447v-.405a2.041,2.041,0,0,0-.042-.446,2.041,2.041,0,0,1,.042.446Z"/><path class="a" d="M145.984,48.9a.806.806,0,0,0-.053.07.84.84,0,0,0-.074.233.84.84,0,0,1,.074-.233A.806.806,0,0,1,145.984,48.9Z"/><path class="a" d="M146.336,48.553h0Z"/><path class="a" d="M146.725,47.659v0a.962.962,0,0,0,.064.192,1.154,1.154,0,0,0,.111.184,1.076,1.076,0,0,1-.11-.184A.905.905,0,0,1,146.725,47.659Z"/><path class="a" d="M149.481,47.526v.108l-.058.013.058-.013v-.341a1.921,1.921,0,0,0-.025-.231,1.921,1.921,0,0,1,.025.231Z"/><path class="a" d="M145.833,49.772h0a2.431,2.431,0,0,0,.051.536A2.431,2.431,0,0,1,145.833,49.772Z"/><path class="a" d="M158.281,49.306l-1.407-2.169-.04-.061.04.061Z"/><path class="a" d="M165.1,49.066a1.243,1.243,0,0,0,.045-.352,1.243,1.243,0,0,1-.045.352Z"/><path class="a" d="M166.581,47.127a.592.592,0,0,0-.285.176h0A.592.592,0,0,1,166.581,47.127Z"/><path class="a" d="M164.688,49.5a.6.6,0,0,0,.261-.16.666.666,0,0,0,.147-.269.666.666,0,0,1-.147.269A.6.6,0,0,1,164.688,49.5Z"/><path class="a" d="M139.061,48.82a2.028,2.028,0,0,1-.042-.444,2.028,2.028,0,0,0,.042.444.735.735,0,0,0,.141.316.568.568,0,0,0,.142.087.542.542,0,0,1-.142-.088A.725.725,0,0,1,139.061,48.82Z"/><path class="a" d="M142.3,47.444a.685.685,0,0,0-.075-.148h0A.685.685,0,0,1,142.3,47.444Z"/><path class="a" d="M134.686,48.341l0,.005,0-.005Z"/><path class="a" d="M169.968,47.617a.72.72,0,0,0-.143-.315.609.609,0,0,0-.126-.078.609.609,0,0,1,.126.078A.72.72,0,0,1,169.968,47.617Z"/><path class="a" d="M170.01,49.962a2.091,2.091,0,0,1-.04.428,2.022,2.022,0,0,0,.04-.428v-1.9a2.041,2.041,0,0,0-.042-.446,2.041,2.041,0,0,1,.042.446Z"/><path class="a" d="M139.2,47.3a.731.731,0,0,0-.141.315,2.028,2.028,0,0,0-.042.444,2.028,2.028,0,0,1,.042-.444A.731.731,0,0,1,139.2,47.3Z"/><path class="a" d="M121.121,50.725h0a.575.575,0,0,0,.128.078.555.555,0,0,0,.155.095,1.323,1.323,0,0,0,.134.017,1.354,1.354,0,0,0,.263.034h1.257a1.272,1.272,0,0,0,.145-.019,1.339,1.339,0,0,0,.252-.033.593.593,0,0,0,.284-.174h0a.719.719,0,0,0,.143-.316,2.041,2.041,0,0,0,.042-.446V47.21h0v-.134h-.79v.134h0v2.971h-1.413V49.117h0v-.17l-.165.041-.516.125-.1.025v.824a2.045,2.045,0,0,0,.042.447A.729.729,0,0,0,121.121,50.725Z"/><path class="a" d="M179.455,50.724h0a.6.6,0,0,0,.206.126c.029.013.045.038.078.048a1.353,1.353,0,0,0,.214.028,1.409,1.409,0,0,0,.185.024h1.83a1.337,1.337,0,0,0,.394-.051.588.588,0,0,0,.282-.173h0a.73.73,0,0,0,.141-.316,2.114,2.114,0,0,0,.041-.447v-.405a2.041,2.041,0,0,0-.042-.446.733.733,0,0,0-.144-.314h0a.607.607,0,0,0-.175-.107.564.564,0,0,0-.107-.065c-.022-.007-.056-.005-.08-.01a1.341,1.341,0,0,0-.31-.04h-1.842v-.739h1.951v.572l.175-.057.447-.147.093-.031V48a1.63,1.63,0,0,0-.045-.408,20.471,20.471,0,0,0-.149-.3h0a.607.607,0,0,0-.283-.17,1.373,1.373,0,0,0-.392-.05h-1.669a1.36,1.36,0,0,0-.4.051.587.587,0,0,0-.283.176.719.719,0,0,0-.141.315,2.028,2.028,0,0,0-.042.444v.314a2.028,2.028,0,0,0,.042.444.714.714,0,0,0,.141.315,53.012,53.012,0,0,0,.283.176,1.36,1.36,0,0,0,.4.051h1.834v.819h-2.066v-.62l-.168.044-.486.13-.1.026v.1h0v.1a2.045,2.045,0,0,0,.042.447A.732.732,0,0,0,179.455,50.724Z"/><path class="a" d="M176.653,47.834h0v2.981h0v.134h.79v-.134h0V47.835h1.438V47.21h0v-.134h-3.66v.134h0v.625h1.432Z"/><path class="a" d="M171.332,50.816v.134h.792v-.134h0V49.544h.73l1.234,1.361.04.045h1.163l-.233-.229-1.2-1.177h.134a1.123,1.123,0,0,0,.345-.048.607.607,0,0,0,.26-.16.653.653,0,0,0,.147-.269h0a1.249,1.249,0,0,0,.042-.328c0-.009,0-.015,0-.024v-.807a1.258,1.258,0,0,0-.045-.354.653.653,0,0,0-.115-.212c-.013-.017-.018-.043-.032-.058a.607.607,0,0,0-.26-.16,1.123,1.123,0,0,0-.345-.048h-2.66v3.74Zm.792-2.006v-1h1.663a.4.4,0,0,1,.122.015.09.09,0,0,1,.043.023h0a.156.156,0,0,1,.026.059h0a.611.611,0,0,1,.014.142v.525a.608.608,0,0,1-.014.143h0a.123.123,0,0,1-.024.056h0a.1.1,0,0,1-.041.02h0a.456.456,0,0,1-.126.014Z"/><path class="a" d="M173.954,48.775h0a.123.123,0,0,0,.024-.056.123.123,0,0,1-.024.056Z"/><path class="a" d="M173.992,48.049a.611.611,0,0,0-.014-.142h0A.611.611,0,0,1,173.992,48.049Z"/><path class="a" d="M166.295,50.722h0a.584.584,0,0,0,.285.176,1.36,1.36,0,0,0,.4.052h2.167a1.337,1.337,0,0,0,.394-.051.6.6,0,0,0,.283-.172h0a.719.719,0,0,0,.143-.316l0-.02a2.091,2.091,0,0,0,.04-.428v-1.9a2.041,2.041,0,0,0-.042-.446.72.72,0,0,0-.143-.315.609.609,0,0,0-.126-.078.587.587,0,0,0-.157-.1,1.344,1.344,0,0,0-.4-.051H166.98a1.363,1.363,0,0,0-.4.051.592.592,0,0,0-.285.176h0a.73.73,0,0,0-.143.316,2.012,2.012,0,0,0-.042.443v1.9a2.028,2.028,0,0,0,.042.444A.735.735,0,0,0,166.295,50.722Zm.6-2.887h2.327v2.346H166.9Z"/><path class="a" d="M162.342,50.95h.134v-.134h0V49.544h1.867a1.123,1.123,0,0,0,.345-.048.6.6,0,0,0,.261-.16.666.666,0,0,0,.147-.269h0a1.243,1.243,0,0,0,.045-.352v-.806a1.257,1.257,0,0,0-.045-.354.664.664,0,0,0-.147-.27.6.6,0,0,0-.261-.16,1.123,1.123,0,0,0-.345-.048h-2.659v.134h0v3.606h0v.134h.658Zm.134-2.147V47.81h1.663a.439.439,0,0,1,.122.014h0a.1.1,0,0,1,.042.024.16.16,0,0,1,.026.061.6.6,0,0,1,.014.146v.5a.6.6,0,0,1-.014.146.145.145,0,0,1-.027.061h0a.145.145,0,0,1-.022.012c-.007,0-.01.008-.02.011h0c-.01,0-.028,0-.041,0a.365.365,0,0,1-.081.01Z"/><path class="a" d="M164.281,48.778a.145.145,0,0,0,.022-.012h0A.145.145,0,0,1,164.281,48.778Z"/><path class="a" d="M164.22,48.793a.365.365,0,0,1-.081.01h0A.365.365,0,0,0,164.22,48.793Z"/><path class="a" d="M164.3,48.765a.145.145,0,0,0,.027-.061.145.145,0,0,1-.027.061Z"/><path class="a" d="M156.779,50.95h.134V48.461h0l1.186,1.86.04.062h.281l.039-.065,1.113-1.864v2.362h0v.134h.748V47.076h-.689l-.039.065-1.311,2.166-1.407-2.169-.04-.061H156.2v.134h0v3.606h0v.134h.578Z"/><path class="a" d="M154.051,50.816v.134h.792V47.076h-.792v3.74Z"/><path class="a" d="M146.052,50.681a.7.7,0,0,0,.334.207,1.631,1.631,0,0,0,.48.062h1.256a1.885,1.885,0,0,0,.252-.016.792.792,0,0,0,.2-.049h0a.8.8,0,0,0,.163-.1,1.265,1.265,0,0,0,.156-.144h0l.339-.379h0l.689.65.038.037h1.185l-.082-.077-.163-.154-.291-.272-.834-.782.776-.847.082-.089-.082-.09-.327-.359-.1-.108-.1.108-.8.869h0l-1.716-1.621h0v-.451h1.194V47.8l.161-.034.508-.108.048-.01.058-.013v-.341a1.921,1.921,0,0,0-.025-.231,1.892,1.892,0,0,0-.026-.23.733.733,0,0,0-.174-.329.708.708,0,0,0-.329-.18,1.842,1.842,0,0,0-.471-.053h-.722a1.8,1.8,0,0,0-.457.051.768.768,0,0,0-.33.168h0a.689.689,0,0,0-.185.3,1.358,1.358,0,0,0-.057.416v.245a1.038,1.038,0,0,0,.02.194v.01a.905.905,0,0,0,.065.192,1.076,1.076,0,0,0,.11.184c.016.023.034.045.052.068l-.616.45h0c-.051.037-.087.072-.13.108s-.086.066-.118.1a.861.861,0,0,0-.1.138.806.806,0,0,0-.053.07.84.84,0,0,0-.074.233,1.544,1.544,0,0,0-.024.284v.288a2.431,2.431,0,0,0,.051.536A.872.872,0,0,0,146.052,50.681Zm.59-.563v-.8h0l.844-.688,1.19,1.1-.368.389Z"/><path class="a" d="M148.676,49.729l-.369.39h0Z"/><path class="a" d="M146.642,49.322h0l.844-.688Z"/><path class="a" d="M138.9,49.863v.1a2.045,2.045,0,0,0,.042.447.732.732,0,0,0,.144.315h0a.57.57,0,0,0,.2.12c.032.016.05.043.088.054a1.36,1.36,0,0,0,.29.038c.039,0,.066.014.108.014h1.83a1.337,1.337,0,0,0,.394-.051.588.588,0,0,0,.282-.173h0a.73.73,0,0,0,.141-.316,2.114,2.114,0,0,0,.041-.447v-.405a2.041,2.041,0,0,0-.042-.446.722.722,0,0,0-.144-.314h0a.6.6,0,0,0-.282-.172,1.344,1.344,0,0,0-.39-.05h-1.842v-.739h1.952v.573l.174-.057.448-.147.092-.031V48a1.63,1.63,0,0,0-.045-.408h0a20.681,20.681,0,0,0-.149-.3h0a.607.607,0,0,0-.283-.17,1.368,1.368,0,0,0-.392-.05h-1.669a1.36,1.36,0,0,0-.4.051.587.587,0,0,0-.283.176.731.731,0,0,0-.141.315,2.028,2.028,0,0,0-.042.444v.314a2.028,2.028,0,0,0,.042.444.725.725,0,0,0,.141.315,53.012,53.012,0,0,1,.283.176,1.36,1.36,0,0,0,.4.051h1.835v.819h-2.067v-.62l-.168.044-.485.13-.1.026Z"/><path class="a" d="M134.558,50.95h.134v-.134h0V48.691c0-.069,0-.149,0-.239l0-.111h0l0,.006.031.032,0,0,.01.01.01.009,2.407,2.508.04.042h.483v-.134h0V47.21h0v-.134h-.748v.134h0v1.978c0,.1,0,.2,0,.3,0,.05,0,.094,0,.135h0q-.045-.052-.087-.1L134.5,47.117l-.04-.041h-.518v.134h0v3.606h0v.134h.614Z"/><path class="a" d="M129.567,50.95h.086l.036-.079.364-.808H132l.365.808.035.079h.874l-.093-.192-1.741-3.606-.036-.076h-.728l-.037.077-1.71,3.606-.091.191h.727Zm1.462-3.007h0l.637,1.392h-1.272Z"/><path class="a" d="M131.029,47.943l-.635,1.392.635-1.392Z"/><path class="a" d="M128.418,50.95h.134v-.762h-2.517v-.879h1.524V48.7h0v-.134h-1.524v-.737h2.494v-.134h0V47.21h0v-.134h-3.286v.134h0v3.606h0v.134h3.176Z"/></g></svg>