<svg xmlns="http://www.w3.org/2000/svg" width="221.951" height="36.425" viewBox="0 0 221.951 36.425"><defs><style>.a{fill:#3e3e3e;}</style></defs><g transform="translate(-7.177 -5)"><path class="a" d="M12.751,34.95l13.2-.051-.006-.709a8.173,8.173,0,0,0-1.611-5.437,5.9,5.9,0,0,0-4.725-1.82,6.517,6.517,0,0,0-5.2,1.989q-1.7,1.973-1.656,6.028Zm13.332,7.027,5.321-.021a8.672,8.672,0,0,1-3.1,7.115c-2.033,1.647-4.965,2.481-8.767,2.5q-6.271.022-9.292-3.264T7.178,38.1q-.062-7.338,2.892-10.754t9.37-3.437c4.037-.016,7.037.935,9.022,2.854s2.992,4.855,3.024,8.8c0,.622.007,1.1,0,1.416s-.026.6-.05.86l-18.662.094.013,1.158q.036,4.92,1.751,7.167c1.129,1.5,2.934,2.242,5.387,2.233a6.087,6.087,0,0,0,4.524-1.711,6.27,6.27,0,0,0,1.633-4.623v-.178Zm19.76,8.781L35.128,24.6l5.944-.024L48.836,45.1l7.786-20.585,5.669-.024L51.717,50.737l-5.874.021ZM83.911,36.48q-1.267.964-5.651,2.043c-.251.061-.425.109-.539.138-2.518.6-4.147,1.277-4.9,2.025A4.347,4.347,0,0,0,71.7,43.993,3.737,3.737,0,0,0,73,47.011a5.5,5.5,0,0,0,3.626,1.059,7.9,7.9,0,0,0,5.363-1.753,5.775,5.775,0,0,0,1.968-4.646l-.045-5.19Zm8.729,14.148c-.707.082-1.3.136-1.809.175s-.97.061-1.4.063a5.975,5.975,0,0,1-3.624-.966,3.551,3.551,0,0,1-1.44-2.77,8,8,0,0,1-3.582,3.083,13.492,13.492,0,0,1-5.6,1.092,10.139,10.139,0,0,1-6.573-1.886,6.574,6.574,0,0,1-2.4-5.368,6.261,6.261,0,0,1,2.135-5.174q2.165-1.779,9.369-3.449l.106-.021q5.92-1.366,5.908-3.174l-.021-2.4a2.5,2.5,0,0,0-1.381-2.351,9.772,9.772,0,0,0-4.383-.721A7.351,7.351,0,0,0,73.643,27.8a3.573,3.573,0,0,0-1.387,3.138V31.4l-5.09.019q.067-4.01,2.785-5.86t8.624-1.878q5.529-.018,8.1,1.663a6.034,6.034,0,0,1,2.587,5.353l.129,15.326a1.817,1.817,0,0,0,.557,1.464,2.749,2.749,0,0,0,1.752.438,5.745,5.745,0,0,0,.739-.076.434.434,0,0,0,.135-.021l.063,2.806Z" transform="translate(0 -10.143)"/><path class="a" d="M247.831,27.361q.049,5.685,1.856,8.105c1.21,1.611,3.15,2.414,5.86,2.4,2.509-.01,4.333-.863,5.449-2.562s1.668-4.451,1.636-8.274c-.031-3.418-.65-5.929-1.875-7.538a6.494,6.494,0,0,0-5.593-2.4c-2.674.01-4.579.779-5.695,2.3s-1.668,4.176-1.638,7.969Zm-4.923,13.313-.3-35.06,5.406-.018.1,11.566a5.258,5.258,0,0,1,3.022-2.408,14.505,14.505,0,0,1,5.381-.95q5.668-.018,8.842,3.34,3.158,3.359,3.214,9.5.062,7.073-3.03,10.775c-2.052,2.472-5.1,3.709-9.094,3.727A13.213,13.213,0,0,1,251,40.116a5.69,5.69,0,0,1-3.085-2.761l.027,3.3-5.037.018Z" transform="translate(-127.855 -0.324)"/><path class="a" d="M317.555,34.048l13.2-.052-.006-.706a8.218,8.218,0,0,0-1.611-5.441,5.907,5.907,0,0,0-4.729-1.817,6.511,6.511,0,0,0-5.2,1.989c-1.132,1.316-1.677,3.326-1.654,6.026Zm13.328,7.03,5.325-.021a8.68,8.68,0,0,1-3.1,7.115c-2.039,1.648-4.968,2.481-8.767,2.495q-6.276.023-9.292-3.267t-3.069-10.2q-.062-7.337,2.892-10.754T324.244,23q6.05-.023,9.022,2.857t3.022,8.8c.006.622.012,1.095,0,1.412s-.027.606-.048.863l-18.662.093.009,1.159q.044,4.921,1.755,7.163c1.129,1.5,2.932,2.244,5.387,2.236a6.084,6.084,0,0,0,4.524-1.711,6.261,6.261,0,0,0,1.629-4.626v-.175Z" transform="translate(-165.527 -9.778)"/><path class="a" d="M452.793,35.335q-1.271.963-5.65,2.042c-.254.061-.425.109-.539.142-2.518.6-4.15,1.276-4.9,2.022a4.366,4.366,0,0,0-1.126,3.31,3.739,3.739,0,0,0,1.306,3.014,5.493,5.493,0,0,0,3.624,1.059,7.891,7.891,0,0,0,5.366-1.753,5.787,5.787,0,0,0,1.967-4.646l-.045-5.19Zm8.726,14.149c-.7.081-1.3.135-1.808.178s-.968.057-1.393.06a5.971,5.971,0,0,1-3.623-.966,3.538,3.538,0,0,1-1.444-2.77,7.971,7.971,0,0,1-3.581,3.083,13.552,13.552,0,0,1-5.6,1.1,10.117,10.117,0,0,1-6.574-1.889,6.578,6.578,0,0,1-2.4-5.368,6.256,6.256,0,0,1,2.132-5.176q2.164-1.778,9.373-3.449l.1-.021q5.915-1.363,5.905-3.172l-.021-2.408a2.5,2.5,0,0,0-1.378-2.35,9.819,9.819,0,0,0-4.383-.722,7.323,7.323,0,0,0-4.312,1.045,3.571,3.571,0,0,0-1.389,3.135l0,.459-5.093.021q.071-4.014,2.784-5.862t8.624-1.874q5.535-.023,8.1,1.66a6.038,6.038,0,0,1,2.59,5.354l.132,15.325a1.792,1.792,0,0,0,.551,1.463,2.745,2.745,0,0,0,1.756.438,6.339,6.339,0,0,0,.737-.073.44.44,0,0,0,.138-.024l.059,2.807Z" transform="translate(-232.391 -9.522)"/><path class="a" d="M372.6,40.184l12.122-.044q-2.322-1.79-4.645-3.568l-.251-29.508c-.006-1.022.116-1.141-1.608-1.738-2.183-.74-3.332-.1-4.959.7-2.6,1.258-2.98,1.414-.527,2.63,1.192.59,2.557,1.318,2.779,1.983.4,1.217.222,25.923.222,25.923-1.048.913-2.1,1.566-3.141,2.48-.413.318-.689.663.009,1.147Z" transform="translate(-197.627)"/><path class="a" d="M401.95,40.051,414.072,40q-2.322-1.773-4.644-3.552l-.248-29.4c-.009-1.02.117-1.14-1.611-1.728-2.181-.74-3.333-.1-4.959.69-2.6,1.253-2.98,1.409-.527,2.62,1.194.591,2.557,1.313,2.778,1.975.407,1.215.222,25.829.222,25.829-1.048.907-2.1,1.558-3.141,2.465-.413.319-.689.659.009,1.146Z" transform="translate(-213.564 0)"/></g></svg>