<svg xmlns="http://www.w3.org/2000/svg" width="211.919" height="46.29" viewBox="0 0 211.919 46.29"><defs><style>.a{fill:#3e3e3e;}</style></defs><g transform="translate(-3 -1.434)"><path class="a" d="M161.419,1.746c-1.03.59-1.157,1.649-.652,5.633.717,5.541,1.368,5.76,2.335.809.809-4.111.77-5.7-.092-6.288-.809-.593-.84-.593-1.587-.155Z" transform="translate(38.832 0)"/><path class="a" d="M11.166,17.2a11.236,11.236,0,0,1-5.479,1.9,15.878,15.878,0,0,0-2.458.5c-.656.385.153.747,1.679.747,2.74,0,2.552-.747,2.552,11.117V41.984l-1.808.282c-1.025.188-1.741.435-1.68.621a47.849,47.849,0,0,0,12.3-.062c.061-.251-.343-.385-1.4-.385a3.631,3.631,0,0,1-1.9-.385,48.358,48.358,0,0,1-.385-10.215c0-9.248.03-9.868.623-10.835a4.692,4.692,0,0,1,4.266-2.243,3.139,3.139,0,0,1,3.518,2.646,151.143,151.143,0,0,1-.061,20.646,3.636,3.636,0,0,1-1.9.385c-1.06,0-1.465.123-1.4.385.127.312,1.679.435,6.1.5,5.167.061,5.976,0,5.976-.405,0-.343-.343-.466-1.368-.466a2.7,2.7,0,0,1-1.712-.435,50.857,50.857,0,0,1-.28-10.369c.092-9.841.092-9.934.809-10.835A4.82,4.82,0,0,1,33.6,19.535c1.244,1.245,1.4,2.585,1.4,12.827,0,10.866.189,10.087-2.4,10.087-.967,0-1.341.123-1.245.385A47.579,47.579,0,0,0,43.63,42.9c.061-.216-.5-.385-1.5-.5a3.658,3.658,0,0,1-1.869-.593,95.356,95.356,0,0,1-.28-9.934c0-9.806-.155-11.208-1.306-12.857a8.589,8.589,0,0,0-11.768.28c-.995,1.157-1.244,1.277-1.244.621a4.283,4.283,0,0,0-1.214-1.541,8.76,8.76,0,0,0-11.147.77l-1.03.994V18.557c0-1.837-.251-2.18-1.121-1.371Z" transform="translate(0 3.772)"/><path class="a" d="M51.141,17.031A7.794,7.794,0,0,0,45.411,21.2a5.782,5.782,0,0,0-.155,4.266,3.057,3.057,0,0,0,4.794.686,2.8,2.8,0,0,0-.344-3.579,2.961,2.961,0,0,0-1.244-.656c-1.091,0,.031-2.519,1.541-3.426a6.275,6.275,0,0,1,5.233-.092c1.541.906,1.961,2.274,2.084,6.662l.123,3.892-2.458.529c-6.258,1.371-10.056,4.7-10.056,8.9a4.933,4.933,0,0,0,1.869,4.2,7.117,7.117,0,0,0,9.745-1.371L57.6,39.946l.188.932a4.554,4.554,0,0,0,.932,1.745c1.434,1.712,5.853,1.306,8.312-.717.747-.654.994-1.028.809-1.463-.189-.529-.251-.529-.906.061-1.618,1.495-3.3,1.776-4.076.656-.435-.593-.5-2.023-.5-9.309,0-9.868-.184-11.491-1.618-12.951a11.7,11.7,0,0,0-9.59-1.869Zm5.7,21.794A4.109,4.109,0,0,1,53.1,41.067a2.6,2.6,0,0,1-2.46-1.156,3.133,3.133,0,0,1-1.06-2.8,6.484,6.484,0,0,1,.56-2.74,9.022,9.022,0,0,1,5.136-3.7l1.926-.593.093,3.892c.061,3.271,0,4.049-.466,4.858Z" transform="translate(10.337 3.765)"/><path class="a" d="M77.453,17.439a13.874,13.874,0,0,1-5.7,1.649,3.671,3.671,0,0,0-1.542.28c-.77.5,0,.964,1.618.964a6.338,6.338,0,0,1,2.023.251,48.919,48.919,0,0,1,.313,10.994l-.093,10.708-1.714.153c-.932.092-1.68.282-1.618.466a49.515,49.515,0,0,0,12.14-.092c.062-.251-.28-.385-1.183-.385-2.646,0-2.488.59-2.488-10.15,0-10.9.03-11.082,2.462-12.612a4.751,4.751,0,0,1,6.659.889c.044.056.086.113.126.171.5.871.562,2.147.654,11.021L89.235,41.8l-.839.313a7.546,7.546,0,0,1-2.054.312c-.871,0-1.214.123-1.156.385.127.312,1.714.435,6.257.5,5.325.061,6.134,0,6.134-.405,0-.343-.312-.466-1.121-.466a5.106,5.106,0,0,1-1.712-.312c-.562-.313-.593-.748-.593-9.494,0-11.021-.122-11.895-2.145-13.872a5.062,5.062,0,0,0-3.206-1.8,9.745,9.745,0,0,0-8.562,2.428l-1.028.932V18.853c0-2.147-.251-2.311-1.773-1.4Z" transform="translate(16.499 3.781)"/><path class="a" d="M108.136,16.928c-4.624.81-7.706,5.106-6.164,8.5a3.115,3.115,0,0,0,4.255,1.151,3.242,3.242,0,0,0,.446-.31,2.788,2.788,0,0,0-.247-3.707,2.985,2.985,0,0,0-1.245-.654c-1.244,0,.313-2.924,1.9-3.61a6.518,6.518,0,0,1,4.859.092c1.541.905,1.961,2.274,2.084,6.662l.123,3.892-2.489.529a12.762,12.762,0,0,0-9.713,6.723,6.45,6.45,0,0,0,.4,5.044,6.227,6.227,0,0,0,6.936,2.46,5.484,5.484,0,0,0,3.468-2.023c.932-.932,1.649-1.465,1.649-1.214a3.9,3.9,0,0,0,1.869,2.77,7.844,7.844,0,0,0,7.472-1.368c.747-.625.994-1.028.839-1.4-.184-.5-.343-.466-1.336.435a2.594,2.594,0,0,1-2.243.871c-1.869-.155-1.927-.527-1.927-10.273,0-9.632-.216-11.3-1.587-12.673a12.555,12.555,0,0,0-9.341-1.9Zm5.946,17.251c0,3.468-.062,3.922-.717,4.889a4.474,4.474,0,0,1-4.078,2.023c-3.24-.625-4.049-5.576-1.336-8.219a12.632,12.632,0,0,1,5.448-2.554c.687,0,.687.061.687,3.853Z" transform="translate(24.306 3.764)"/><path class="a" d="M137.863,16.92a11.434,11.434,0,0,0-6.166,3.271,14.44,14.44,0,0,0,3.333,22.915,12.189,12.189,0,0,0,8.408,0c2.739-1.213,5.976-5.324,4.2-5.324-.312,0-.967.59-1.465,1.279a6.546,6.546,0,0,1-5.263,2.986,6.013,6.013,0,0,1-6.446-3.922,26.622,26.622,0,0,1-1.214-13.487,8.772,8.772,0,0,1,4.42-6.446,8.2,8.2,0,0,1,5.416.247c1.245.77,1.465,1.495.871,3.144-.654,1.837-.59,2.4.343,3.333.686.686,1,.77,2.243.62,1.745-.184,2.243-.77,2.243-2.7,0-2.8-2.678-5.137-6.816-5.915a8.317,8.317,0,0,0-4.111,0Z" transform="translate(30.691 3.756)"/><path class="a" d="M161.076,16.91a8.441,8.441,0,0,0-4.92,2.7,5.084,5.084,0,0,0-1.588,4.015,3.082,3.082,0,0,0,2.789,3.351,2.839,2.839,0,0,0,.325.012c1.679,0,2.489-.839,2.489-2.585a2.174,2.174,0,0,0-1.773-2.311c-1.434-.221-.219-3.022,1.618-3.8a8.228,8.228,0,0,1,2.617-.435,3.178,3.178,0,0,1,2.646.936c1.338,1.183,1.741,2.862,1.741,7.1v3.022l-2.77.686c-6.258,1.463-9.683,4.624-9.683,8.781a4.944,4.944,0,0,0,1.869,4.2,7.126,7.126,0,0,0,9.715-1.338L167.179,40l.312,1.156a3.777,3.777,0,0,0,3.853,2.554c2.771,0,6.632-2.023,6.166-3.236-.184-.5-.343-.436-1.367.385-1.434,1.183-2.928,1.31-3.641.282-.436-.593-.5-2.023-.5-9.5a100.5,100.5,0,0,0-.343-10.307,5.285,5.285,0,0,0-3.61-3.923,17.426,17.426,0,0,0-6.975-.5Zm5.418,21.89a4.154,4.154,0,0,1-3.707,2.243,2.73,2.73,0,0,1-2.366-.994c-.874-.871-1-1.245-1.121-2.959a4.231,4.231,0,0,1,.532-2.928,9.058,9.058,0,0,1,4.981-3.468l2.054-.686.092,3.922c.061,3.272,0,4.05-.466,4.859Z" transform="translate(37.371 3.781)"/></g></svg>