<svg xmlns="http://www.w3.org/2000/svg" width="192.518" height="38.218" viewBox="0 0 192.518 38.218"><defs><style>.a{fill:#3e3e3e;}</style></defs><g transform="translate(0 0)"><path class="a" d="M388,27.966l4-26.528h8.167V38.8h-5.551V12.007L390.566,38.8h-5.551L380.638,12.38V38.8h-5.124V1.438h8.166Z" transform="translate(-375.514 -1.011)"/><path class="a" d="M465.037,38.8h-5.925L458.1,32.023h-7.206L449.878,38.8h-5.391l5.978-37.364h8.594Zm-13.4-11.849H457.3l-2.829-18.9Z" transform="translate(-417.107 -1.011)"/><path class="a" d="M508.258,11.74V38.8h-5.284V1.438h7.366L516.372,23.8V1.438H521.6V38.8h-6.031Z" transform="translate(-452.377 -1.011)"/><path class="a" d="M568.6,17.337h8.22V29.186c0,5.978-2.989,9.394-8.754,9.394s-8.754-3.416-8.754-9.394V9.757c0-5.978,2.989-9.394,8.754-9.394s8.754,3.416,8.754,9.394v3.629h-5.551v-4c0-2.669-1.174-3.683-3.042-3.683s-3.042,1.014-3.042,3.683V29.56c0,2.669,1.174,3.629,3.042,3.629s3.042-.961,3.042-3.629V22.674H568.6Z" transform="translate(-486.349 -0.363)"/><path class="a" d="M611.746,9.757c0-5.978,3.149-9.394,8.914-9.394s8.914,3.416,8.914,9.394V29.186c0,5.978-3.149,9.394-8.914,9.394s-8.914-3.416-8.914-9.394Zm5.872,19.8c0,2.669,1.174,3.683,3.042,3.683s3.042-1.014,3.042-3.683V9.384c0-2.669-1.174-3.683-3.042-3.683s-3.042,1.014-3.042,3.683Z" transform="translate(-517.97 -0.363)"/><path class="a" d="M672.721.363c5.712,0,8.647,3.416,8.647,9.394V11.2h-5.551V9.384c0-2.669-1.067-3.683-2.936-3.683s-2.936,1.014-2.936,3.683c0,7.686,11.476,9.127,11.476,19.8,0,5.978-2.989,9.394-8.754,9.394s-8.754-3.416-8.754-9.394V26.624h5.551V29.56c0,2.669,1.174,3.629,3.042,3.629s3.042-.961,3.042-3.629c0-7.686-11.475-9.127-11.475-19.8C664.074,3.779,667.01.363,672.721.363Z" transform="translate(-549.429 -0.363)"/><path class="a" d="M712.451,1.438H730.6V6.776H724.46V38.8h-5.871V6.776h-6.138Z" transform="translate(-578.698 -1.011)"/><path class="a" d="M776.429,38.8H770.5l-1.014-6.779h-7.206L761.27,38.8h-5.391l5.978-37.364h8.594Zm-13.4-11.849h5.658l-2.829-18.9Z" transform="translate(-604.887 -1.011)"/><path class="a" d="M826.778,38.8c-.32-.961-.534-1.548-.534-4.59V28.34c0-3.469-1.174-4.751-3.843-4.751h-2.028V38.8H814.5V1.438h8.86c6.085,0,8.7,2.829,8.7,8.594v2.936c0,3.843-1.227,6.352-3.843,7.58,2.936,1.227,3.9,4.056,3.9,7.953v5.765a11,11,0,0,0,.64,4.537ZM820.372,6.776V18.252h2.3c2.189,0,3.523-.961,3.523-3.95V10.619c0-2.669-.908-3.843-2.989-3.843Z" transform="translate(-640.238 -1.011)"/></g></svg>