<svg xmlns="http://www.w3.org/2000/svg" width="194.922" height="52.891" viewBox="0 0 194.922 52.891"><defs><style>.a{fill:#3e3e3e;}</style></defs><g transform="translate(-2.5 -2.343)"><g transform="translate(2.5 16.577)"><path class="a" d="M33.4,72.24a9.318,9.318,0,0,1-4.762,3.578,19.135,19.135,0,0,1-7.059,1.33,18.244,18.244,0,0,1-9.549-2.637,19.43,19.43,0,0,1-6.962-7.088A18.877,18.877,0,0,1,2.5,57.844,19.743,19.743,0,0,1,4.821,48.7a19.279,19.279,0,0,1,6.648-7.354,17.675,17.675,0,0,1,9.96-2.855,19.713,19.713,0,0,1,6.213.858,12.607,12.607,0,0,1,3.965,2.007,5.91,5.91,0,0,1,1.716,1.9l-.58,4.013-.749-.436a5.552,5.552,0,0,0-1.438-3,11.945,11.945,0,0,0-4.061-3.215,12.912,12.912,0,0,0-6.008-1.354A12.09,12.09,0,0,0,12.835,41.9,18.173,18.173,0,0,0,7.54,48.67a18.853,18.853,0,0,0-1.922,7.976,24.784,24.784,0,0,0,1.063,7.3,17.023,17.023,0,0,0,3.457,6.234,16.355,16.355,0,0,0,6.394,4.369,19.729,19.729,0,0,0,7.289,1.61h.314a14.561,14.561,0,0,0,5-1.451,7.775,7.775,0,0,0,3.046-2.224l.072-.217a.47.47,0,0,0-.278-.121.6.6,0,0,1-.363-.242,1.954,1.954,0,0,1-.3-.508,1.33,1.33,0,0,1-.048-.314v-.218a1.05,1.05,0,0,1,.281-.519,1.174,1.174,0,0,1,.476-.29,1.385,1.385,0,0,1,.611-.036,1.092,1.092,0,0,1,.513.29,1.022,1.022,0,0,1,.318.387l.146.435A2.68,2.68,0,0,1,33.4,72.24Z" transform="translate(-2.5 -38.492)"/><path class="a" d="M85.194,41.132h11.29a12.825,12.825,0,0,1,6.128,1.331,9.117,9.117,0,0,1,3.735,3.559,10.076,10.076,0,0,1,.943,2.239,8.83,8.83,0,0,1,.314,2.384,6.207,6.207,0,0,1-1.438,3.825,9.491,9.491,0,0,1-3.711,2.881,13.05,13.05,0,0,1-5.367,1.017h-.363l11.507,17.624a3.392,3.392,0,0,0,3.046,1.62v.605l-1.21.024-1.477.072q-1.623,0-3.559-2.315l-3.772-5.511q-2.488-3.725-7.681-12.118H90.174V75.291l.072.895a1.789,1.789,0,0,0,.314.87l.218.193a5.034,5.034,0,0,0,.894.242l1.185.121v.629H85.339v-.629a3.193,3.193,0,0,0,1.789-.435,1.424,1.424,0,0,0,.435-1.014l.1-1.184V44.563a3.6,3.6,0,0,0-.048-.628q-.049-.265-.073-.435a2.3,2.3,0,0,0-.556-1.16,1.465,1.465,0,0,0-.8-.362l-.991-.242Zm6.189,1.257a1.407,1.407,0,0,0-1.112,1.11l-.1,1.279V57.16h6.382a8.7,8.7,0,0,0,5.911-1.883,5.932,5.932,0,0,0,2.163-4.658,9.909,9.909,0,0,0-1.813-5.961q-1.813-2.51-6.334-2.51-1.305,0-2.865.012A8.348,8.348,0,0,0,91.383,42.389Z" transform="translate(-52.631 -40.092)"/><path class="a" d="M162.566,41.132v.58l-.991.218a2.118,2.118,0,0,0-.919.423,1.96,1.96,0,0,0-.459,1.124l-.1,1.281V75.291l.072.895a1.791,1.791,0,0,0,.326.882,1.586,1.586,0,0,0,.955.471l1.112.1v.628h-7.3v-.628a3.2,3.2,0,0,0,1.789-.435,1.427,1.427,0,0,0,.435-1.016l.1-1.184V44.541a3.6,3.6,0,0,0-.048-.628q-.049-.265-.073-.435a2.305,2.305,0,0,0-.556-1.16,1.459,1.459,0,0,0-.8-.362l-.991-.242v-.58Z" transform="translate(-95.021 -40.092)"/><path class="a" d="M177.712,73.4V72.41a1.02,1.02,0,0,1,.314-.46l.072-.072a.812.812,0,0,1,.435-.241,1.379,1.379,0,0,1,.616.036,1.21,1.21,0,0,1,.471.3,2.277,2.277,0,0,1,.266.484v.58a.726.726,0,0,1-.29.508.4.4,0,0,0-.121.169l.072.121.121.121.774.58a9.561,9.561,0,0,0,5.9,1.741q9.767,0,9.767-8.418a8.033,8.033,0,0,0-1.934-5.165q-1.934-2.383-6.829-4.282t-6.9-4.028a7.455,7.455,0,0,1-2.007-5.322,17.647,17.647,0,0,1,.5-4.523,7.532,7.532,0,0,1,1.777-3.217q2.611-2.83,7.954-2.831a11.333,11.333,0,0,1,3.844,1.2,9.093,9.093,0,0,1,2.466,1.995,4.585,4.585,0,0,1,.725,1.088,2.659,2.659,0,0,1,.242,1.112,2.381,2.381,0,0,1-.194,1.088l-.024.048a.535.535,0,0,1-.169.387,1.07,1.07,0,0,1-.459.362l-.072.048-.508.073a1.482,1.482,0,0,1-.58-.23,1.2,1.2,0,0,1-.363-.447,2.428,2.428,0,0,1-.048-.556,1.408,1.408,0,0,1,.194-.544,1.055,1.055,0,0,1,.435-.374.149.149,0,0,0,.169-.121v-.145l-.435-.725a3.629,3.629,0,0,0-.411-.6,5.107,5.107,0,0,0-1.354-1.257A9.786,9.786,0,0,0,186.9,39.7a6.413,6.413,0,0,0-5.077,1.972q-1.741,1.972-1.741,5.89a5.789,5.789,0,0,0,1.632,4.318q1.632,1.609,6.878,3.5T196,60.191a11.018,11.018,0,0,1,2.164,6.725,9.739,9.739,0,0,1-2.92,7.547q-2.92,2.685-8.081,2.685a16.425,16.425,0,0,1-6.712-1.016,5.223,5.223,0,0,1-2.641-2.514Z" transform="translate(-108.717 -38.492)"/><path class="a" d="M235.86,44.541a3.6,3.6,0,0,0-.048-.628q-.048-.265-.1-.689a1.664,1.664,0,0,0-.508-.906,1.345,1.345,0,0,0-.8-.362l-1.015-.242v-.58h24.055l1.425,6.382-.994-.29-.872-2.128a8.887,8.887,0,0,0-.9-1.692,3.918,3.918,0,0,0-3.053-1.257H240.773q-1.624,0-1.963.532a1.225,1.225,0,0,0-.327.46,1.956,1.956,0,0,0-.109.725v13.3h11.507a1.862,1.862,0,0,0,1.765-.725,5.745,5.745,0,0,0,.556-2.974h.943v8.51h-.87a5.919,5.919,0,0,0-.7-3.046,1.811,1.811,0,0,0-1.692-.725H238.374V75.074c0,.1.032.4.095.895a1.732,1.732,0,0,0,.5,1.112,2.718,2.718,0,0,0,.853.387l.972.218v.58h-7.4v-.58l.991-.218a1.463,1.463,0,0,0,.8-.387,2.287,2.287,0,0,0,.556-1.136l.121-1.088Z" transform="translate(-142.472 -40.092)"/><path class="a" d="M289.1,56.888,284.476,71.3l-.46,1.716a8.2,8.2,0,0,0-.291,2.006,1.147,1.147,0,0,0,.145.725q.435.58,2.1.58v.628h-6.721v-.628a3.567,3.567,0,0,0,2.176-.58,6.028,6.028,0,0,0,1.185-2.1l.822-2.345,9.936-31.113,1.958-1.215,11.553,33.368.775,1.853a3.653,3.653,0,0,0,.96,1.553,4.419,4.419,0,0,0,1.224.485l1.008.1v.628h-8.2v-.628a2.83,2.83,0,0,0,2.031-.581,1.447,1.447,0,0,0,.145-.654,6.256,6.256,0,0,0-.351-1.864l-.549-1.646-4.876-14.692Zm.281-1.04h9.307l-4.714-14.3Z" transform="translate(-170.273 -38.781)"/><path class="a" d="M370.621,42.148q-1.741,0-1.91.387a2.2,2.2,0,0,0-.484,1.257l-.072,1.4V57.16h11.531a1.959,1.959,0,0,0,1.777-.762,5.934,5.934,0,0,0,.5-2.937h.992v8.51h-.919a6.19,6.19,0,0,0-.653-3.046,1.811,1.811,0,0,0-1.692-.725H368.155V75.823a1.492,1.492,0,0,0,.278.955,1.409,1.409,0,0,0,1,.423l1.162.072h11.206a8.024,8.024,0,0,0,1.053-.072,11.1,11.1,0,0,0,1.222-.242,6.375,6.375,0,0,0,1.84-.725,4.968,4.968,0,0,0,1.21-1.583,13.812,13.812,0,0,0,.847-1.753l.92-.217-1.644,5.584H363.32v-.628a3.2,3.2,0,0,0,1.789-.435,1.427,1.427,0,0,0,.435-1.016l.1-1.184V44.541a3.6,3.6,0,0,0-.048-.628q-.049-.265-.073-.435a2.305,2.305,0,0,0-.556-1.16,1.462,1.462,0,0,0-.8-.362l-.991-.242v-.58h24.078l1.426,6.382-.991-.29-.87-2.128a8.942,8.942,0,0,0-.894-1.692,3.906,3.906,0,0,0-3.046-1.257Z" transform="translate(-221.148 -40.092)"/><path class="a" d="M434.645,44.541a3.6,3.6,0,0,0-.048-.628q-.049-.265-.1-.689a1.663,1.663,0,0,0-.508-.906,1.345,1.345,0,0,0-.8-.362l-1.016-.242v-.58h7.712v.58a2.859,2.859,0,0,0-2.152.6,3.337,3.337,0,0,0-.459,1.354l-.121,1.523V75.436l.072.483.024.29a1.366,1.366,0,0,0,.242.484,1.609,1.609,0,0,0,.969.484l1.115.1H450.8a7.145,7.145,0,0,0,4.12-1.04,4.764,4.764,0,0,0,1.114-1.427L457.1,72.97l.8-.29-1.644,5.584H432.179v-.58l.193-.048.822-.194a1.724,1.724,0,0,0,.773-.362,2.286,2.286,0,0,0,.556-1.136l.121-1.088Z" transform="translate(-262.979 -40.092)"/></g><g transform="translate(62.439 2.342)"><path class="a" d="M167.516,23.132l.528,1.757,2.2-2.1V22.78l-1.757-.528Z" transform="translate(-162.474 -14.412)"/><path class="a" d="M167.771,10.124l1.757-.528-2.11-3.527-1.077,1.4Z" transform="translate(-161.762 -4.601)"/><path class="a" d="M166.346,3.81l-1.773-1.467v.093l.7,2.777Z" transform="translate(-160.691 -2.342)"/><path class="a" d="M169.972,17.871l1.757.528V15.026l-1.757.528Z" transform="translate(-163.964 -10.031)"/><path class="a" d="M157.438,23.132l-.528,1.757-2.2-2.1V22.78l1.757-.528Z" transform="translate(-154.713 -14.412)"/><path class="a" d="M156.47,10.124,154.713,9.6l2.11-3.527,1.077,1.4Z" transform="translate(-154.713 -4.601)"/><path class="a" d="M160.143,14.7h2.317l.967-.881V11.5L162,8.849l-.7-.507-.7.507-1.43,2.654v2.317Z" transform="translate(-157.418 -5.979)"/><path class="a" d="M160.072,3.81l1.773-1.467v.093l-.7,2.777Z" transform="translate(-157.962 -2.342)"/><path class="a" d="M156.47,17.871l-1.757.528V15.026l1.757.528Z" transform="translate(-154.713 -10.031)"/><path class="a" d="M163.5,4.848l.7.507-.7-2.777-.7,2.777Z" transform="translate(-159.619 -2.485)"/><path class="a" d="M161.977,26.245h1.687l-.528-1.757h-2.317l-.528,1.757Z" transform="translate(-158.094 -15.767)"/></g></g></svg>