<svg xmlns="http://www.w3.org/2000/svg" width="119.516" height="38.962" viewBox="0 0 119.516 38.962"><defs><style>.a{fill:#3e3e3e;}</style></defs><path class="a" d="M270.623,10h21.824v3.486H274.961v13.3h1.348c4.087,0,8.175.034,12.262-.013,1-.011,1.3.306,1.258,1.289-.115,2.446.522,2.351-2.325,2.354q-5.568.005-11.136-.005h-1.41V45.513h1.382c5.172,0,10.344.03,15.515-.024,1.078-.012,1.553.243,1.418,1.378a18.354,18.354,0,0,0-.014,2.077H270.623Z" transform="translate(-205.782 -10)"/><path class="a" d="M404.968,45.662h16.509c1.79,0,1.79,0,1.784,1.843,0,.495,0,.99,0,1.584H400.634V10.2h21.82V13.63h-17.48v13.3h1.332c4.087,0,8.175.032,12.262-.012.984-.011,1.316.279,1.269,1.278-.115,2.475.506,2.357-2.316,2.362q-5.568.009-11.136,0h-1.417Z" transform="translate(-303.747 -10.149)"/><path class="a" d="M11.852,30.479V45.6H30.071v3.486H7.562V10.178H29.4V13.6H11.9V26.869H26.651v3.611Z" transform="translate(-7.562 -10.134)"/><path class="a" d="M147.034,13.659H128.113V10.251h24.3a4.589,4.589,0,0,1-.838,3.882q-9.632,15.055-19.2,30.151c-.24.377-.463.764-.82,1.355h20.974v3.512h-26.3a4.018,4.018,0,0,1,.5-3.288q9.928-15.531,19.791-31.1A11.639,11.639,0,0,0,147.034,13.659Z" transform="translate(-96.864 -10.189)"/></svg>