<svg xmlns="http://www.w3.org/2000/svg" width="171.182" height="29.848" viewBox="0 0 171.182 29.848"><defs><style>.a{fill:#3e3e3e;}</style></defs><path class="a" d="M-240.764,132.452v1.07h-3.788v26.925h3.788v1.071h-12.886v-1.071h4.488V134.222L-259.5,161.971h-.535l-10.128-27.748v26.225h4.529v1.071h-9.551v-1.071h3.829V133.522h-3.829v-1.07h9.263l7.986,22.52,8.152-22.52Z" transform="translate(275.182 -132.123)"/><path class="a" d="M-223.611,160.447v1.071H-235.8v-1.071h3.789V133.522H-235.8v-1.07h12.187v1.07H-227.4v26.925Z" transform="translate(272.767 -132.123)"/><path class="a" d="M-212.531,160.327h6.217q3.952,0,5.764-2.421a15.19,15.19,0,0,0,2.305-7.02h1.153v10.632h-23.837v-1.071h3.788V133.522h-3.788v-1.07h12.186v1.07h-3.788Z" transform="translate(271.855 -132.123)"/><path class="a" d="M-167.334,161.5h-13.174v-1.071h4.281l-2.471-9.057h-6.587L-188,160.426h4.323V161.5h-9.181v-1.071h3.458l8.81-28.325h.823l8.728,28.325h3.706Zm-14.492-21.573-3.129,10.374h6.01Z" transform="translate(270.134 -132.101)"/><path class="a" d="M-155.076,160.327h6.216q3.954,0,5.764-2.421a15.19,15.19,0,0,0,2.305-7.02h1.153v10.632h-23.837v-1.071h3.788V133.522h-3.788v-1.07h12.186v1.07h-3.788Z" transform="translate(268.332 -132.123)"/><path class="a" d="M-109.879,161.5h-13.174v-1.071h4.281l-2.471-9.057h-6.587l-2.717,9.057h4.323V161.5H-135.4v-1.071h3.458l8.81-28.325h.823l8.728,28.325h3.706Zm-14.492-21.573L-127.5,150.3h6.01Z" transform="translate(266.611 -132.101)"/><path class="a" d="M-93.614,160.447v1.071H-105.8v-1.071h3.788V133.522H-105.8v-1.07h12.186v1.07H-97.4v26.925Z" transform="translate(264.796 -132.123)"/></svg>