<svg xmlns="http://www.w3.org/2000/svg" width="178.302" height="69.891" viewBox="0 0 178.302 69.891"><defs><style>.a{fill:#3e3e3e;}</style></defs><g transform="translate(0 0)"><path class="a" d="M10.545,133.565c2.02,1.642,3.913,3.364,5.987,4.832a56.277,56.277,0,0,0,22.623,9.11,91.343,91.343,0,0,0,31.166-.021,79.3,79.3,0,0,0,14.523-3.467c.256-.092.5-.21.76-.319a31,31,0,0,1-1.062-3.334c-.754-3.749-.232-7.251,2.6-10.035A5.951,5.951,0,0,1,94,129.123a5.577,5.577,0,0,1,3.747,5.223,6.941,6.941,0,0,1-2.076,4.963,19.788,19.788,0,0,1-6.335,4.391c-.273.131-.547.257-1.052.494.872.824,1.572,1.608,2.391,2.234a14.348,14.348,0,0,0,8.186,2.811,31.382,31.382,0,0,0,13.553-2.666c5.605-2.277,10.6-5.642,15.763-8.72,3.847-2.294,7.749-4.527,11.774-6.484,6.461-3.142,13.066-2.99,19.64-.186q1.117.476,2.238.944c.043.018.111-.024.245-.058-.551-2.114-1.293-4.308,1.2-5.784,1.445-.856,2.607-.586,5.247,1.219.469-.55.915-1.14,1.429-1.661a3.627,3.627,0,0,1,4.136-.822,3.192,3.192,0,0,1,2.141,3.008c.058.77.01,1.548.01,2.471,2.6-.022,4.469,1.1,4.84,3.709.355,2.494-1.588,3.483-3.6,4.311,1,2.17,1.709,4.282-.644,5.98-2.216,1.6-4.041.67-5.766-1.12l-.64,1.026a3.491,3.491,0,0,1-4.446,1.746,3.708,3.708,0,0,1-2.643-4.118c.133-1.023-.146-1.295-1.11-1.5a4.323,4.323,0,0,1-3.667-3.621,3.539,3.539,0,0,1,2.36-3.662,2.881,2.881,0,0,0,1.035-.715c-1.694-.557-3.371-1.176-5.086-1.66-6.691-1.888-12.925-.536-18.744,2.952-5.289,3.17-10.471,6.519-15.7,9.79-5.48,3.427-11.2,6.293-17.656,7.361-4.679.774-9.264.591-13.541-1.785a13.115,13.115,0,0,1-4.273-3.708.883.883,0,0,0-1.182-.353c-7.988,2.771-16.277,3.928-24.663,4.495a80.875,80.875,0,0,1-24.6-1.942,55.163,55.163,0,0,1-22.125-10.459c-1.184-.956-2.257-2.051-3.373-3.091A5.046,5.046,0,0,1,10.545,133.565Zm155.115,5.388c-.045.352-.081.6-.108.841a2.249,2.249,0,0,0,1.262,2.561,2.388,2.388,0,0,0,3.063-.512c.578-.669.994-.777,1.769-.29a2.339,2.339,0,0,0,3-.335,2.471,2.471,0,0,0,.684-3.039c-.091-.225-.186-.449-.3-.723.428-.256.837-.471,1.214-.732a2.248,2.248,0,0,0,1.005-2.259,2.279,2.279,0,0,0-1.509-1.962,4.005,4.005,0,0,0-.987-.27c-.519-.069-.627-.308-.59-.822a2.5,2.5,0,0,0-1.587-2.772c-1.1-.45-1.89-.261-2.854.9-.591.71-1.048.855-1.82.26a2.062,2.062,0,0,0-2.518-.264,2.258,2.258,0,0,0-1.114,2.484,1.937,1.937,0,0,1-.89,2.417,1.175,1.175,0,0,0-.255.271,2.466,2.466,0,0,0,1.435,4.094C164.894,138.865,165.231,138.894,165.66,138.952Zm-79.634-.942a26.72,26.72,0,0,0,.6,2.86c.675,2.235.717,2.222,2.821,1.191.084-.041.169-.08.251-.126,2.2-1.256,4.427-2.526,5.684-4.838a6.278,6.278,0,0,0,.758-2.913,4.1,4.1,0,0,0-3.177-3.722,4.748,4.748,0,0,0-5.291,1.829A9.828,9.828,0,0,0,86.027,138.01Z" transform="translate(-10.545 -81.498)"/><path class="a" d="M281.138,37.129c-.8.081-1.325.091-1.832.191q-10.954,2.168-21.9,4.357c-.183.036-.37.055-.551.1-.53.131-1.048,0-1.068-.551a1.259,1.259,0,0,1,.726-.949c1.763-.514,3.549-.96,5.342-1.359q9.85-2.194,19.711-4.336c1.454-.316,2,.16,1.969,1.615a15.511,15.511,0,0,1-2.222,7.638c-3.364,5.737-7.66,10.617-13.558,13.85a19.156,19.156,0,0,1-14.183,2.05,14.067,14.067,0,0,1-11.007-12.853,27.966,27.966,0,0,1,3.148-15.361A36.808,36.808,0,0,1,262,14.811a24,24,0,0,1,17.035-2.325c.394.095.783.209,1.171.323a2.614,2.614,0,0,1,2.142,2.308,3.231,3.231,0,0,1-1.553,3.189,2.081,2.081,0,0,1-2.39.025c-3.548-2.381-7.362-2.28-11.115-.874-10.892,4.08-18.221,11.554-21.163,22.983a16.926,16.926,0,0,0-.213,7.426,11.188,11.188,0,0,0,9.791,9.2,17.18,17.18,0,0,0,12.922-3.134,33.053,33.053,0,0,0,11.5-13.364A26.976,26.976,0,0,0,281.138,37.129Z" transform="translate(-156.108 -10.643)"/><path class="a" d="M27.812,58.477a19.864,19.864,0,0,1-10.146-2.461c-4.589-2.615-6.676-6.741-6.914-11.874a24.378,24.378,0,0,1,4.041-14.071c3.739-6.087,9.055-10.552,14.968-14.384A46.8,46.8,0,0,1,41.732,9.641a19.456,19.456,0,0,1,13.018.236,2.144,2.144,0,0,1,1.547,2.01A1.814,1.814,0,0,1,54.121,13.9c-.984-.141-1.947-.434-2.932-.575A20.448,20.448,0,0,0,39.71,15.178,58.878,58.878,0,0,0,22.081,26.944c-3.938,3.932-6.813,8.5-7.733,14.1a14.017,14.017,0,0,0,.6,7.369A10.332,10.332,0,0,0,22.016,54.7c4.862,1.515,9.73,1.132,14.57-.162,4.9-1.311,9.437-3.553,14.045-5.606.768-.342,1.528-.713,2.321-.985a2.54,2.54,0,0,1,.995.093c-.141.3-.2.723-.436.885-5.6,3.858-11.5,7.14-18.2,8.655-2.447.553-4.973.756-7.463,1.118Z" transform="translate(-10.66 -8.638)"/><path class="a" d="M154.984,71.091c.559-1.868,1.11-3.738,1.681-5.6a7.624,7.624,0,0,1,.655-1.74,1.31,1.31,0,0,1,1-.561,1.075,1.075,0,0,1,.708.786,17.835,17.835,0,0,1-.168,4.269c-2.016,8.619-6,16.114-13.208,21.515A23.873,23.873,0,0,1,126.5,94.368c-.853-.15-1.58-.434-1.789-1.378a1.745,1.745,0,0,1,1.88-2.232,29.491,29.491,0,0,0,9.352-.9,24.026,24.026,0,0,0,12.45-8.174c1.643-2.019,2.992-4.277,4.459-6.437a7.645,7.645,0,0,0,.5-.988,17.09,17.09,0,0,1-7.081-9.555,3.547,3.547,0,0,1-.087-.458,1.241,1.241,0,0,1,.844-1.485c.685-.249,1.15.061,1.546.675,1.212,1.878,2.42,3.765,3.752,5.557a17.386,17.386,0,0,0,2.284,2.161Z" transform="translate(-82.175 -42.556)"/><path class="a" d="M121.92,69.886a11.78,11.78,0,0,1-1.4,5.142,3.861,3.861,0,0,1-4.575,2.009,6.866,6.866,0,0,1-5.135-6.458,3.912,3.912,0,0,1,.163-1.1c.072-.224.3-.4.463-.593a2.229,2.229,0,0,1,.359.588,6.069,6.069,0,0,0,3.321,4.578c1.53.7,2.453.281,2.831-1.328.121-.515.239-1.032.312-1.555a3.041,3.041,0,0,0-3.782-3.583c-.612.111-1.211.29-1.822.4a2.2,2.2,0,0,1-2.6-2.955,3.526,3.526,0,0,1,2.745-2.406C116.91,61.63,121.857,65.45,121.92,69.886Z" transform="translate(-72.922 -42.425)"/><path class="a" d="M385.742,63.079a5.421,5.421,0,0,0,5.367,5.751c.373,0,.747-.027,1.121-.039a1.841,1.841,0,0,1,1.959,1.279,1.953,1.953,0,0,1-.635,2.279,3.521,3.521,0,0,1-3.315.8c-2.288-.581-3.792-2.173-5.125-3.987a7.92,7.92,0,0,1-1.409-6.467c.266-1.375.433-2.776.79-4.127.518-1.964,1.774-2.688,3.754-2.209a8.482,8.482,0,0,1,5.2,3.713,2.322,2.322,0,0,1,.222,2.563,2.123,2.123,0,0,1-2.2.933c-1.678-.11-3.352-.289-5.028-.438C386.208,63.107,385.973,63.095,385.742,63.079Zm2.633-1.58c.5-.022,1.218-.015,1.924-.1.772-.089.974-.549.451-1.133a7.721,7.721,0,0,0-1.573-1.284c-1.884-1.217-2.989-.7-3.4,1.515-.146.792.087,1.094.9,1.009C387.169,61.457,387.669,61.5,388.375,61.5Z" transform="translate(-244.666 -38.501)"/><path class="a" d="M419.275,58.35c-1.064,2.667.065,5.051,2.685,5.764.78.212,1.582.341,2.368.531a1.83,1.83,0,0,1,1.471,2.229,1.675,1.675,0,0,1-2.012,1.6,23.041,23.041,0,0,1-4.751-1.223,5.461,5.461,0,0,1-3.511-5.732,20.674,20.674,0,0,1,1.07-5.453c1.127-3.182,3.672-3.951,6.572-2.219a5.913,5.913,0,0,1,2.742,3.187c.589,1.735-.165,2.751-1.974,2.515a29.323,29.323,0,0,1-3.437-.837C420.084,58.6,419.677,58.469,419.275,58.35Zm5.2-.385a3.437,3.437,0,0,0-3.038-2.819c-1.017.005-1.735.729-1.971,2.061Z" transform="translate(-264.738 -36.446)"/><path class="a" d="M357.582,55.132a34.376,34.376,0,0,1,2.893-2.126,3.524,3.524,0,0,1,3.656.091c.3.169.647.8.545,1a1.339,1.339,0,0,1-1.046.658c-1.746-.2-2.795.73-3.726,2.006a3.072,3.072,0,0,0-.409,3.665,37.048,37.048,0,0,1,2.181,5.053A17.4,17.4,0,0,1,362.517,69a1.787,1.787,0,0,1-1.564,2.162c-.929.191-1.545-.147-1.926-1.318-.849-2.6-1.633-5.226-2.4-7.853-.569-1.941-1.154-3.883-1.572-5.858a8.7,8.7,0,0,1,.038-2.857,1.172,1.172,0,0,1,1.32-1.165c.78.1.915.693.931,1.386A12.754,12.754,0,0,0,357.582,55.132Z" transform="translate(-226.724 -35.921)"/><path class="a" d="M146.186,67.243a7.842,7.842,0,0,1,3.767-3.618c2.216-1.007,3.66-.686,4.968,1.344,1.11,1.724,2.058,3.551,3.1,5.322.314.535.717,1.018,1.029,1.554a2.133,2.133,0,1,1-3.745,2.03c-.545-1.219-.907-2.519-1.434-3.747a20.461,20.461,0,0,0-1.6-3.152c-.814-1.244-1.964-1.3-3.1-.325a4.122,4.122,0,0,0-1.368,3.872c.026.216.071.43.109.644.131.732.1,1.427-.768,1.652a1.294,1.294,0,0,1-1.647-.987,22.009,22.009,0,0,1-1.649-7.342,1.822,1.822,0,0,1,.2-.975c.318-.488.908-.262,1.136.441C145.511,64.96,145.8,65.972,146.186,67.243Z" transform="translate(-94.218 -42.806)"/><path class="a" d="M450.131,67.228a8.19,8.19,0,0,1,4.316-3.771c1.949-.684,3.128-.383,4.284,1.31.787,1.152,1.413,2.414,2.136,3.613.674,1.118,1.385,2.214,2.073,3.325a2.166,2.166,0,1,1-3.851,1.821c-.672-1.709-1.316-3.429-2.009-5.129a6.357,6.357,0,0,0-.794-1.369,1.929,1.929,0,0,0-3.184-.317,4.256,4.256,0,0,0-1.3,4.082c.031.215.093.426.122.642.087.651-.058,1.2-.76,1.41a1.164,1.164,0,0,1-1.582-.767q-.868-2.8-1.584-5.654a7.3,7.3,0,0,1-.154-2.135c.017-.326.341-.636.525-.953.274.236.684.421.8.718C449.52,65.009,449.768,66.006,450.131,67.228Z" transform="translate(-285.022 -42.833)"/><path class="a" d="M432.59,152.39a3.1,3.1,0,0,1-2.93-3.044,2.945,2.945,0,0,1,2.932-2.892,2.971,2.971,0,1,1,0,5.936Z" transform="translate(-273.62 -95.144)"/></g></svg>