<svg xmlns="http://www.w3.org/2000/svg" width="108.606" height="100.688" viewBox="0 0 108.606 100.688"><defs><style>.a,.b{fill:#3e3e3e;}.b{fill-rule:evenodd;}</style></defs><path class="a" d="M98.135,214.174a.914.914,0,0,0,.581-.264.776.776,0,0,0,.237-.58.819.819,0,0,0-.237-.581.776.776,0,0,0-.581-.238v-.132a1,1,0,0,1,.686.29.875.875,0,0,1,.264.66.934.934,0,0,1-.264.686,1.142,1.142,0,0,1-.686.29v-.132Zm0-.739a.283.283,0,0,1,.158.053q.079.04.079.237v.079l.026.026v.026h.158v-.211a.24.24,0,0,0-.079-.185.242.242,0,0,0-.158-.106,1.153,1.153,0,0,0,.132-.026.24.24,0,0,0,.106-.211.244.244,0,0,0-.158-.264.666.666,0,0,0-.264-.053v.132c.079,0,.132.026.185.026a.223.223,0,0,1,.053.158.145.145,0,0,1-.105.158.2.2,0,0,1-.132.026Zm0-.924a.776.776,0,0,0-.581.238.819.819,0,0,0-.237.581.776.776,0,0,0,.237.58.8.8,0,0,0,.581.264h0v.132h0a.958.958,0,0,1-.686-.29.935.935,0,0,1-.264-.686.876.876,0,0,1,.264-.66.958.958,0,0,1,.686-.29h0v.132Zm0,.29h-.4v1.056h.185v-.422h.211V213.3h-.211v-.369h.211Z" transform="translate(-77.97 -165.163)"/><path class="a" d="M403.14,223.944a3.24,3.24,0,0,0-.9-1.135,2.67,2.67,0,0,0-1.821-.66,1.635,1.635,0,0,0-1.161.449,1.451,1.451,0,0,0-.449,1.082c0,.765.9,1.5,2.666,2.164.343.106.634.211.844.264a7.205,7.205,0,0,1,3.062,2.085,5.373,5.373,0,0,1,.95,3.246,6.188,6.188,0,0,1-1.821,4.539,6.348,6.348,0,0,1-4.619,1.821,6.839,6.839,0,0,1-3.114-.713,6.469,6.469,0,0,1-2.349-1.979l3.3-2.191c.211.185.422.369.633.528a2.88,2.88,0,0,0,1.663.528,2.07,2.07,0,0,0,1.5-.581,1.792,1.792,0,0,0,.633-1.4,1.884,1.884,0,0,0-.5-1.293,6.84,6.84,0,0,0-2.243-1.109,9.076,9.076,0,0,1-3.721-2.112,4.74,4.74,0,0,1-1.082-3.167,5.483,5.483,0,0,1,1.768-4.038,5.715,5.715,0,0,1,4.17-1.689,5.84,5.84,0,0,1,3.246.95,6.521,6.521,0,0,1,2.27,2.507Z" transform="translate(-306.964 -169.945)"/><rect class="a" width="4.566" height="18.844" transform="translate(50.305 48.853)"/><path class="a" d="M272.017,220.713a6.846,6.846,0,0,1,2.375-1.927,6.154,6.154,0,0,1,2.877-.66,4.666,4.666,0,0,1,3.985,1.768,8.958,8.958,0,0,1,1.293,5.358v12.061l-4.566.027V226.229a4.548,4.548,0,0,0-.633-2.613,1.973,1.973,0,0,0-1.768-.924,2.426,2.426,0,0,0-2.085,1.029,4.975,4.975,0,0,0-.739,2.982v10.61l-4.566.027V226.229a4.779,4.779,0,0,0-.607-2.613,1.959,1.959,0,0,0-1.742-.924,2.426,2.426,0,0,0-2.085,1.029,4.975,4.975,0,0,0-.739,2.982v10.61l-4.566.027V218.416h4.566V220.4a7.407,7.407,0,0,1,2.217-1.663,4.9,4.9,0,0,1,2.3-.607,5.415,5.415,0,0,1,2.692.633A4.787,4.787,0,0,1,272.017,220.713Z" transform="translate(-202.207 -169.59)"/><rect class="a" width="4.566" height="18.844" transform="translate(81.66 48.853)"/><path class="a" d="M455.433,198.581h3.616v4.381h-3.616v5.806c0,1.716.237,2.85.739,3.431a3.827,3.827,0,0,0,2.877.845v4.487h-.369c-2.9,0-4.909-.58-6.07-1.715-1.161-1.108-1.742-3.088-1.742-5.965v-12.88l4.566-4.592Z" transform="translate(-350.442 -149.755)"/><g transform="translate(0 0)"><g transform="translate(0.186)"><path class="b" d="M53.252,56.613l10.9-10.927.95.95,2.4-2.4-3.352-3.352-15.7,15.73,15.7,15.7,15.73-15.7-5.067-5.067-2.4,2.4,2.666,2.666-10.927,10.9L54.7,58.065v.026l-.528-.528H54.2Z" transform="translate(-40.61 -33.044)"/><path class="b" d="M14.31,30.313,37.852,6.744l7.284,7.284L42.6,16.562l-4.751-4.724L19.378,30.313,37.852,48.788,56.327,30.313l-6.413-6.44,2.534-2.534,8.974,8.973L37.852,53.855Z" transform="translate(-14.31 -6.744)"/><path class="b" d="M120.839,56.613l10.9-10.927,10.927,10.927-10.927,10.9-.9-.9-2.4,2.4,3.3,3.3,15.73-15.7-15.73-15.73-15.7,15.73,5.041,5.041,2.4-2.4Z" transform="translate(-92.678 -33.044)"/><path class="b" d="M81.9,30.313,105.439,6.744l23.542,23.569L105.439,53.855l-7.205-7.232,2.534-2.534,4.671,4.7,18.475-18.475L105.439,11.838,86.965,30.313l6.44,6.44-2.534,2.534Z" transform="translate(-66.379 -6.744)"/></g><path class="a" d="M195.89,198.581h3.616v4.381H195.89v5.806c0,1.716.238,2.85.765,3.431a3.719,3.719,0,0,0,2.851.845v4.487h-.37c-2.9,0-4.909-.58-6.07-1.715-1.135-1.108-1.742-3.088-1.742-5.965v-12.88l4.566-4.592Z" transform="translate(-150.493 -149.755)"/><path class="a" d="M24.032,192.522a13.452,13.452,0,0,1,4.487.053,11.612,11.612,0,0,1,4.012,1.584,14.611,14.611,0,0,1,1.4,1l-2.982,3.009c-.053-.053-.106-.079-.158-.132a7.846,7.846,0,0,0-6.123-1.478,7.878,7.878,0,0,0-5.358,3.3A8.766,8.766,0,0,0,21.155,211.6a7.743,7.743,0,0,0,6.123,1.478,7.729,7.729,0,0,0,5.358-3.3,8.279,8.279,0,0,0,1.4-6.229,8.744,8.744,0,0,0-.818-2.587l3.114-3.141a.361.361,0,0,0,.079.106,12.657,12.657,0,0,1,1.9,4.936,12.931,12.931,0,0,1-.132,4.619,12.419,12.419,0,0,1-5.384,7.865,13.233,13.233,0,0,1-4.883,1.795,12.8,12.8,0,0,1-4.487-.079,10.893,10.893,0,0,1-3.985-1.584,13.239,13.239,0,0,1-3.88-3.774,12.381,12.381,0,0,1-1.9-4.962,11.9,11.9,0,0,1,.317-5.278,12.81,12.81,0,0,1,2.507-4.777,11.524,11.524,0,0,1,3.3-2.745A13.46,13.46,0,0,1,24.032,192.522Z" transform="translate(-13.5 -149.74)"/></g><path class="a" d="M126.958,262.654v-3.8a3.124,3.124,0,0,0,2.085-.712,2.42,2.42,0,0,0,.792-1.821,2.355,2.355,0,0,0-.818-1.821,2.945,2.945,0,0,0-2.058-.739v-3.59a4.315,4.315,0,0,1,1.214.317,4.523,4.523,0,0,1,1.663,1.214v-1.663a2.133,2.133,0,0,0-.712-1.821,4.16,4.16,0,0,0-2.164-.475V243.73c.29,0,.58-.026.845-.026,2.349,0,3.985.422,4.962,1.293.95.845,1.452,2.56,1.452,5.147v12.668l-4.2.026v-2.032a5.21,5.21,0,0,1-1.847,1.478,6.468,6.468,0,0,1-1.214.369ZM160.107,248.9a3.625,3.625,0,0,0-.924-1.135,2.733,2.733,0,0,0-1.821-.633,1.532,1.532,0,0,0-1.161.449,1.436,1.436,0,0,0-.448,1.056c0,.765.9,1.5,2.666,2.164.343.106.633.211.845.29a6.8,6.8,0,0,1,3.061,2.059,5.384,5.384,0,0,1,.977,3.246,6.126,6.126,0,0,1-1.847,4.539,6.2,6.2,0,0,1-4.619,1.821,6.842,6.842,0,0,1-3.114-.712,6.471,6.471,0,0,1-2.349-1.98l3.325-2.19a3.8,3.8,0,0,0,.607.528,2.934,2.934,0,0,0,1.689.554,2.031,2.031,0,0,0,1.478-.607,1.777,1.777,0,0,0,.633-1.372,1.69,1.69,0,0,0-.5-1.293,6.1,6.1,0,0,0-2.243-1.108,9.079,9.079,0,0,1-3.721-2.138,4.717,4.717,0,0,1-1.082-3.141,5.4,5.4,0,0,1,1.768-4.038,5.782,5.782,0,0,1,4.17-1.715,5.864,5.864,0,0,1,3.246.977,6.522,6.522,0,0,1,2.27,2.507l-2.9,1.874Zm-9.765,2.19v11.8H145.8V252.07a4.5,4.5,0,0,0-.713-2.718,2.366,2.366,0,0,0-2.006-.924,2.69,2.69,0,0,0-2.27,1.056,4.936,4.936,0,0,0-.792,3.061v10.346h-4.54V243.757h4.54v2.533a6.982,6.982,0,0,1,2.27-1.715,6.605,6.605,0,0,1,2.771-.581,4.631,4.631,0,0,1,3.959,1.742A9.053,9.053,0,0,1,150.341,251.094Zm-23.384-7.363v4.012a2.292,2.292,0,0,0-.422-.026,12.088,12.088,0,0,0-2.19.185,20.609,20.609,0,0,0-2.19.581l1.082-4.381c.977-.132,1.821-.238,2.587-.29.4-.053.765-.053,1.135-.079Zm0,6.44v3.59h0a2.946,2.946,0,0,0-2.059.739,2.446,2.446,0,0,0-.818,1.821,2.519,2.519,0,0,0,.792,1.821,3.077,3.077,0,0,0,2.085.712h0v3.8a6.43,6.43,0,0,1-1.267.132,5.793,5.793,0,0,1-4.328-1.795,6.187,6.187,0,0,1-1.293-2.032v-5.041a5.69,5.69,0,0,1,1.293-2.032,6.165,6.165,0,0,1,4.566-1.795,6.761,6.761,0,0,1,1.029.079Zm-6.889-.818v-1c.158.238.29.475.422.713Zm-10.082-30.246a8.544,8.544,0,0,1,4.17,2.481,10,10,0,0,1-.132,13.618,8.833,8.833,0,0,1-4.038,2.481v-4.909a5.138,5.138,0,0,0,.686-.634,5.342,5.342,0,0,0,1.478-3.827,5.431,5.431,0,0,0-1.478-3.827,4.916,4.916,0,0,0-.686-.607v-4.777Zm10.082,29.243v1l-10.082,6.519v-3.88l5.2-3.537a4.878,4.878,0,0,0-1.4-.765,4.937,4.937,0,0,0-1.557-.264,4.85,4.85,0,0,0-2.244.528v-3.985a9.708,9.708,0,0,1,2.349-.264,8.3,8.3,0,0,1,4.592,1.4,10.569,10.569,0,0,1,3.141,3.246Zm0,5.569a7.391,7.391,0,0,0-.422,2.587,6.661,6.661,0,0,0,.422,2.455v-5.041Zm-10.082,8.551v-4.46c.079.026.132.079.211.106a4.637,4.637,0,0,0,2.138.475,6.316,6.316,0,0,0,2.771-.686,8.151,8.151,0,0,0,2.586-1.927l1.584,3.774a9.481,9.481,0,0,1-3.246,2.217,9.659,9.659,0,0,1-3.853.766A8.456,8.456,0,0,1,109.987,262.469Zm-7.917-26.577c0,8.393-.053,16.654-.053,25.073,0,3.484-.449,5.885-1.32,7.2a6.992,6.992,0,0,1-4.777,2.639v-5.147a2.175,2.175,0,0,0,1.241-1.267A10,10,0,0,0,97.5,261.2v-33.1l3.589-6.017.977-1.029v.027a7.053,7.053,0,0,1,2.454-1.689,8.78,8.78,0,0,1,3.167-.581,9.268,9.268,0,0,1,2.3.29v4.777a4.675,4.675,0,0,0-2.9-.95,4.853,4.853,0,0,0-3.616,1.557,5.361,5.361,0,0,0-1.478,3.827,5.233,5.233,0,0,0,1.478,3.827,4.784,4.784,0,0,0,3.616,1.583,4.675,4.675,0,0,0,2.9-.95v4.909a10.162,10.162,0,0,1-2.56.343,7.983,7.983,0,0,1-2.956-.528,6.757,6.757,0,0,1-2.4-1.61Zm7.917,8.076a8.646,8.646,0,0,0-4.17,2.428,9.1,9.1,0,0,0-2.639,6.651,9.742,9.742,0,0,0,2.613,6.889,8.53,8.53,0,0,0,4.2,2.534v-4.46a4.47,4.47,0,0,1-1.346-1.293l1.346-.844v-3.88l-2.613,1.742c-.026-.264-.053-.475-.079-.713a5.127,5.127,0,0,1-.053-.633,4.865,4.865,0,0,1,1.452-3.51,5.519,5.519,0,0,1,1.293-.924Z" transform="translate(-76.995 -170.122)"/></svg>