<svg xmlns="http://www.w3.org/2000/svg" width="133.808" height="37.7" viewBox="0 0 133.808 37.7"><defs><style>.a{fill:#3e3e3e;}</style></defs><path class="a" d="M37.718,20.23V46.25H35.612L13.253,16.068v18.6c0,6.868,1,8.322,5.765,8.523v2.356H4.73V43.192c4.813-.2,5.815-1.655,5.815-8.523V13.361c-.9-1.253-2.055-1.654-4.613-1.654H4.679V9.351H15.007l20,26.621V20.23c0-6.869-1-8.322-5.765-8.523V9.351H43.533v2.356C38.72,11.908,37.718,13.361,37.718,20.23Z" transform="translate(-4.679 -8.599)"/><path class="a" d="M147.956,44.734c-9.777,0-17.246-8.121-17.246-18.8,0-10.227,7.018-18.9,17.446-18.9,9.626,0,17.046,8.221,17.046,18.85C165.2,36.613,157.782,44.734,147.956,44.734Zm.15-35.344c-7.119,0-10.779,5.063-10.779,16.394,0,11.53,3.66,16.594,10.629,16.594,6.918,0,10.628-5.064,10.628-16.494C158.584,14.353,154.724,9.39,148.106,9.39Z" transform="translate(-89.8 -7.034)"/><path class="a" d="M249.788,45.547V43.192h1c4.06,0,4.511-.251,4.511-2.357V14.064c0-2.106-.451-2.356-4.511-2.356h-1V9.351h16.6v2.356h-1c-4.011,0-4.462.25-4.462,2.356V40.835c0,2.106.451,2.357,4.462,2.357h1v2.356Z" transform="translate(-170.226 -8.599)"/><path class="a" d="M339.023,46.3c-3.91,0-5.866-2.3-6.417-7.971l-.25-2.557c-.6-5.966-3.159-7.771-7.621-7.771h-2.908V40.835c0,2.106.451,2.357,4.513,2.357h.9v2.356H310.8V43.192h.9c4.06,0,4.511-.251,4.511-2.357V14.064c0-2.106-.451-2.356-4.511-2.356h-.9V9.351h17.346c8.423,0,13.236,3.258,13.236,8.974,0,5.064-3.46,7.972-10.679,8.974,3.96,1,5.815,3.108,6.969,7.721l.8,3.158c.853,3.46,1.253,4.312,2.507,4.312,1.354,0,1.955-1.5,2.156-4.964h2.106C345.089,43.541,343.134,46.3,339.023,46.3ZM327.994,11.707h-2.708c-3.209,0-3.46.15-3.46,1.654V25.644h5.515c5.014,0,7.872-1.954,7.872-7.269C335.213,13.813,332.957,11.707,327.994,11.707Z" transform="translate(-211.432 -8.599)"/></svg>