<svg xmlns="http://www.w3.org/2000/svg" width="188.571" height="71.853" viewBox="0 0 188.571 71.853"><defs><style>.a{fill:#3e3e3e;}</style></defs><g transform="translate(0 0)"><g transform="translate(0 11.811)"><path class="a" d="M3.384,37.244V21.587A10.892,10.892,0,0,1,5.909,13.97a8.849,8.849,0,0,1,6.89-2.778,8.741,8.741,0,0,1,4.669,1.242,10.218,10.218,0,0,1,3.452,3.729,10.689,10.689,0,0,1,3.519-3.743,8.691,8.691,0,0,1,4.612-1.232,8.934,8.934,0,0,1,6.914,2.778,10.827,10.827,0,0,1,2.551,7.617v15.66H36.3V20.9a7.811,7.811,0,0,0-2-5.567,7.327,7.327,0,0,0-10.327,0A7.837,7.837,0,0,0,21.988,20.9V37.244H19.821V20.9a7.848,7.848,0,0,0-1.984-5.567,7.3,7.3,0,0,0-10.288,0,7.805,7.805,0,0,0-2,5.567V37.244Z" transform="translate(-2.906 -10.724)"/><path class="a" d="M39.086,37.8H35.947V20.991a7.4,7.4,0,0,0-1.873-5.25,6.869,6.869,0,0,0-9.657,0,7.426,7.426,0,0,0-1.859,5.254V37.8h-3.09V20.995a7.426,7.426,0,0,0-1.859-5.254,6.836,6.836,0,0,0-9.628,0,7.4,7.4,0,0,0-1.873,5.25V37.8H3.016V21.68a11.386,11.386,0,0,1,2.646-7.926,9.324,9.324,0,0,1,7.231-2.927A9.221,9.221,0,0,1,17.8,12.14a10.337,10.337,0,0,1,3.217,3.25,10.744,10.744,0,0,1,3.271-3.264,9.169,9.169,0,0,1,4.868-1.3,9.412,9.412,0,0,1,7.256,2.927,11.316,11.316,0,0,1,2.674,7.93Zm-2.22-.919h1.3V21.68a10.438,10.438,0,0,0-2.431-7.305,8.512,8.512,0,0,0-6.577-2.629,8.277,8.277,0,0,0-4.389,1.164A10.306,10.306,0,0,0,21.408,16.5l-.4.67-.39-.678a9.818,9.818,0,0,0-3.292-3.565,8.323,8.323,0,0,0-4.428-1.174,8.444,8.444,0,0,0-6.55,2.625,10.5,10.5,0,0,0-2.4,7.309V36.875H5.187V20.989a8.288,8.288,0,0,1,2.128-5.882A7.756,7.756,0,0,1,18.284,15.1l.005.006A8.31,8.31,0,0,1,20.4,20.989V36.875h1.25V20.989a8.316,8.316,0,0,1,2.107-5.882,7.786,7.786,0,0,1,11,0,8.288,8.288,0,0,1,2.128,5.882Z" transform="translate(-3 -10.817)"/></g><g transform="translate(41.366 3.547)"><path class="a" d="M36.263,6.177a1.536,1.536,0,0,1,1.511-1.561h.05a1.635,1.635,0,0,1,1.164.451,1.468,1.468,0,0,1,.475,1.11,1.56,1.56,0,0,1-.475,1.139,1.58,1.58,0,0,1-1.164.475,1.481,1.481,0,0,1-1.1-.475A1.572,1.572,0,0,1,36.263,6.177Zm.475,32.771V13.372H38.96V38.949Z" transform="translate(-35.813 -4.148)"/><path class="a" d="M39.513,39.492h-3.14V13h3.14Zm-2.221-.919h1.3V13.915h-1.3Zm.625-30.238A1.925,1.925,0,0,1,36.5,7.72a2.021,2.021,0,0,1-.592-1.457,2,2,0,0,1,1.976-2.019h.045a2.078,2.078,0,0,1,1.48.575,1.916,1.916,0,0,1,.621,1.444,2,2,0,0,1-.61,1.461,2.039,2.039,0,0,1-1.5.611Zm0-3.176a1.063,1.063,0,0,0-.788.316,1.048,1.048,0,0,0-.316.784,1.119,1.119,0,0,0,.334.816,1.011,1.011,0,0,0,.766.337,1.126,1.126,0,0,0,.837-.355,1.1,1.1,0,0,0,.355-.812,1,1,0,0,0-.333-.778,1.178,1.178,0,0,0-.855-.308Z" transform="translate(-35.905 -4.244)"/></g><g transform="translate(50.706 11.82)"><path class="a" d="M45.882,37.241H43.714V22.772a12.127,12.127,0,0,1,2.839-8.45,10.7,10.7,0,0,1,15.127,0h0a12.139,12.139,0,0,1,2.839,8.45V37.241H62.35V22.085a9.059,9.059,0,0,0-2.288-6.429,8.4,8.4,0,0,0-11.874,0A9.054,9.054,0,0,0,45.9,22.085Z" transform="translate(-43.241 -10.73)"/><path class="a" d="M65.056,37.8H61.968V22.185A8.655,8.655,0,0,0,59.8,16.073a7.937,7.937,0,0,0-11.2,0,8.655,8.655,0,0,0-2.164,6.112V37.8H43.35V22.87A12.63,12.63,0,0,1,46.3,14.11a11.154,11.154,0,0,1,15.775-.038l.038.038a12.63,12.63,0,0,1,2.948,8.76Zm-2.169-.919h1.25V22.87a11.753,11.753,0,0,0-2.71-8.142,10.239,10.239,0,0,0-14.447,0,11.747,11.747,0,0,0-2.71,8.142v14h1.248V22.178a9.546,9.546,0,0,1,2.409-6.741,8.869,8.869,0,0,1,12.544-.005l.005.005a9.54,9.54,0,0,1,2.412,6.741Z" transform="translate(-43.334 -10.824)"/></g><g transform="translate(76.379 11.816)"><path class="a" d="M89.959,24.79a13.745,13.745,0,0,1-3.941,9.31,12.143,12.143,0,0,1-8.941,3.622,12.669,12.669,0,0,1-4.932-.979,12.449,12.449,0,0,1-4.165-2.856,13.1,13.1,0,0,1-2.856-4.325A13.484,13.484,0,0,1,67.98,15.016a12.711,12.711,0,0,1,4.2-2.855,13.019,13.019,0,0,1,5.052-.979A12.121,12.121,0,0,1,83.466,12.8a13.289,13.289,0,0,1,4.669,4.786l-17.824,11.9-1.032-1.721L85.1,17.184a9.871,9.871,0,0,0-3.466-3.016,9.581,9.581,0,0,0-4.443-1.032,10.09,10.09,0,0,0-7.6,3.267,11.837,11.837,0,0,0-.025,15.964,9.969,9.969,0,0,0,7.525,3.253,9.8,9.8,0,0,0,7.3-3,11.912,11.912,0,0,0,3.252-7.841Z" transform="translate(-63.663 -10.729)"/><path class="a" d="M77.171,38.276a13.2,13.2,0,0,1-5.109-1.015A12.962,12.962,0,0,1,67.745,34.3a13.586,13.586,0,0,1-2.952-4.473A13.923,13.923,0,0,1,67.745,14.8a13.225,13.225,0,0,1,4.36-2.963,13.557,13.557,0,0,1,5.23-1.015,12.652,12.652,0,0,1,6.46,1.675,13.852,13.852,0,0,1,4.832,4.946l.226.376L70.263,30.236l-1.5-2.508L84.533,17.177a9.309,9.309,0,0,0-3.012-2.484,9.192,9.192,0,0,0-4.233-.979,9.687,9.687,0,0,0-7.269,3.127,11.376,11.376,0,0,0-.025,15.326,9.58,9.58,0,0,0,7.191,3.111,9.394,9.394,0,0,0,6.972-2.863,11.516,11.516,0,0,0,3.121-7.55l.029-.429h3.242l-.028.485a14.261,14.261,0,0,1-4.077,9.612A12.64,12.64,0,0,1,77.171,38.276Zm.16-26.527a12.641,12.641,0,0,0-4.875.943A12.34,12.34,0,0,0,68.4,15.449a13.126,13.126,0,0,0-2.757,14.038A12.691,12.691,0,0,0,68.4,33.663a12.041,12.041,0,0,0,4.015,2.757,12.292,12.292,0,0,0,4.755.944,11.758,11.758,0,0,0,8.614-3.489,13.23,13.23,0,0,0,3.775-8.515H88.141a12.266,12.266,0,0,1-3.349,7.7,10.292,10.292,0,0,1-7.628,3.14A10.46,10.46,0,0,1,69.3,32.8a12.3,12.3,0,0,1,.029-16.593A10.576,10.576,0,0,1,77.27,12.8a10.086,10.086,0,0,1,4.655,1.065,10.385,10.385,0,0,1,3.626,3.153l.284.387-15.853,10.6.558.93L87.594,17.553A12.709,12.709,0,0,0,83.337,13.3a11.738,11.738,0,0,0-6.007-1.55Z" transform="translate(-63.756 -10.821)"/></g><g transform="translate(107.37 12.195)"><path class="a" d="M88.769,37.165V11.589h2.167v5a10.51,10.51,0,0,1,3.8-3.822,10.234,10.234,0,0,1,5.144-1.284c.177,0,.38.009.607.028s.528.054.9.107v2.128h-.16q-1.246-.106-1.668-.106a7.829,7.829,0,0,0-6.186,2.8,10.531,10.531,0,0,0-2.434,7.167V37.165Z" transform="translate(-88.315 -11.031)"/><path class="a" d="M91.494,37.723H88.408v-26.5h3.086V15.2A10.467,10.467,0,0,1,94.6,12.466a10.74,10.74,0,0,1,5.372-1.341,5.224,5.224,0,0,1,.642.029c.241.028.553.057.929.109l.393.057v3h-.617c-.851-.07-1.4-.107-1.667-.107a7.335,7.335,0,0,0-5.843,2.648,10.141,10.141,0,0,0-2.321,6.864ZM89.327,36.8h1.248V23.722a11.03,11.03,0,0,1,2.547-7.467,8.312,8.312,0,0,1,6.536-2.963c.255,0,.709.025,1.365.079V12.117q-.273-.036-.475-.049c-.216,0-.409-.025-.571-.025a9.829,9.829,0,0,0-4.918,1.224,10.121,10.121,0,0,0-3.629,3.661l-.851,1.419V12.156h-1.25Z" transform="translate(-88.408 -11.123)"/></g><g transform="translate(121.529 11.809)"><path class="a" d="M123.521,37.242V25.764a13.75,13.75,0,0,0-2.871-9.163,9.544,9.544,0,0,0-7.684-3.4,10.012,10.012,0,0,0-7.564,3.193,12.174,12.174,0,0,0-.039,16.054,10.012,10.012,0,0,0,7.6,3.176,10.634,10.634,0,0,0,4.732-1.065,13.393,13.393,0,0,0,4.1-3.213v2.909a13.125,13.125,0,0,1-4.112,2.6,12.93,12.93,0,0,1-4.722.859,13.269,13.269,0,0,1-5.159-.989,11.839,11.839,0,0,1-4.151-2.9,13.3,13.3,0,0,1-2.7-4.3,13.87,13.87,0,0,1-.927-5.066,13.129,13.129,0,0,1,3.637-9.522,12.248,12.248,0,0,1,9.188-3.758,12.613,12.613,0,0,1,6.347,1.639,13.236,13.236,0,0,1,4.761,4.708,11.349,11.349,0,0,1,1.349,3.548,24.028,24.028,0,0,1,.422,4.829V37.242Z" transform="translate(-99.579 -10.72)"/><path class="a" d="M113.057,38.277a13.765,13.765,0,0,1-5.321-1.03,12.318,12.318,0,0,1-4.311-3.008,13.806,13.806,0,0,1-2.79-4.445,14.462,14.462,0,0,1-.958-5.23,13.633,13.633,0,0,1,3.765-9.841,12.75,12.75,0,0,1,9.522-3.9,13.147,13.147,0,0,1,6.575,1.7,13.738,13.738,0,0,1,4.924,4.868,11.855,11.855,0,0,1,1.419,3.7,24.466,24.466,0,0,1,.432,4.92V37.791h-3.14V25.878a13.368,13.368,0,0,0-2.759-8.87,9.151,9.151,0,0,0-7.334-3.236,9.616,9.616,0,0,0-7.23,3.059,11.708,11.708,0,0,0-.039,15.423,9.615,9.615,0,0,0,7.269,3.03,10.226,10.226,0,0,0,4.531-1.026,12.979,12.979,0,0,0,3.96-3.1l.8-.905V34.57l-.15.138a13.626,13.626,0,0,1-4.257,2.693A13.451,13.451,0,0,1,113.057,38.277ZM112.95,11.75a11.859,11.859,0,0,0-8.869,3.616,12.734,12.734,0,0,0-3.509,9.2,13.49,13.49,0,0,0,.894,4.9,12.893,12.893,0,0,0,2.6,4.151,11.428,11.428,0,0,0,3.991,2.785,12.868,12.868,0,0,0,4.967.958,12.515,12.515,0,0,0,4.556-.827,12.645,12.645,0,0,0,3.817-2.38V32.6a13.237,13.237,0,0,1-3.437,2.483,11.144,11.144,0,0,1-4.936,1.118,10.5,10.5,0,0,1-7.936-3.316,12.634,12.634,0,0,1,.039-16.675,10.5,10.5,0,0,1,7.9-3.343,10.03,10.03,0,0,1,8.036,3.548,14.244,14.244,0,0,1,2.981,9.462v11h1.3V26.019a23.609,23.609,0,0,0-.415-4.732,10.9,10.9,0,0,0-1.292-3.413,12.813,12.813,0,0,0-4.594-4.545,12.228,12.228,0,0,0-6.1-1.583Z" transform="translate(-99.671 -10.815)"/></g><g transform="translate(153.892)"><path class="a" d="M125.778,39.662V1.789H128V39.662Z" transform="translate(-125.32 -1.328)"/><path class="a" d="M128.554,40.217h-3.14V1.422h3.14Zm-2.221-.919h1.3V2.341h-1.3Z" transform="translate(-125.414 -1.422)"/></g><g transform="translate(161.357 11.816)"><path class="a" d="M157.556,24.79a13.752,13.752,0,0,1-3.942,9.31,12.143,12.143,0,0,1-8.941,3.622,12.663,12.663,0,0,1-4.934-.979,12.437,12.437,0,0,1-4.165-2.856,13.1,13.1,0,0,1-2.856-4.325,13.482,13.482,0,0,1,2.856-14.546,12.7,12.7,0,0,1,4.2-2.855,13.014,13.014,0,0,1,5.052-.979,12.121,12.121,0,0,1,6.229,1.614,13.3,13.3,0,0,1,4.669,4.786L137.9,29.484l-1.033-1.721,15.817-10.579a9.875,9.875,0,0,0-3.467-3.016,9.572,9.572,0,0,0-4.441-1.032,10.093,10.093,0,0,0-7.6,3.267,11.838,11.838,0,0,0-.025,15.964,9.969,9.969,0,0,0,7.525,3.253,9.794,9.794,0,0,0,7.3-3,11.919,11.919,0,0,0,3.253-7.841Z" transform="translate(-131.259 -10.729)"/><path class="a" d="M144.767,38.276a13.193,13.193,0,0,1-5.109-1.015A12.967,12.967,0,0,1,135.34,34.3a13.593,13.593,0,0,1-2.952-4.473A13.927,13.927,0,0,1,135.34,14.8a13.243,13.243,0,0,1,4.361-2.963,13.556,13.556,0,0,1,5.228-1.015,12.633,12.633,0,0,1,6.46,1.675,13.842,13.842,0,0,1,4.832,4.946l.224.376L137.855,30.236l-1.5-2.508,15.775-10.551a9.323,9.323,0,0,0-3.012-2.484,9.2,9.2,0,0,0-4.233-.979,9.694,9.694,0,0,0-7.274,3.123,11.377,11.377,0,0,0-.024,15.326,9.573,9.573,0,0,0,7.191,3.111,9.4,9.4,0,0,0,6.972-2.863,11.514,11.514,0,0,0,3.121-7.55l.029-.429h3.242l-.028.487a14.251,14.251,0,0,1-4.073,9.611A12.647,12.647,0,0,1,144.767,38.276Zm.158-26.527a12.63,12.63,0,0,0-4.874.943A12.345,12.345,0,0,0,136,15.449a13.128,13.128,0,0,0-2.757,14.038A12.711,12.711,0,0,0,136,33.663a12.059,12.059,0,0,0,4.017,2.757,12.292,12.292,0,0,0,4.755.944,11.758,11.758,0,0,0,8.614-3.489,13.23,13.23,0,0,0,3.77-8.515h-1.418a12.263,12.263,0,0,1-3.349,7.7,10.289,10.289,0,0,1-7.628,3.14,10.453,10.453,0,0,1-7.858-3.4,12.3,12.3,0,0,1,.028-16.593,10.582,10.582,0,0,1,7.936-3.409,10.083,10.083,0,0,1,4.651,1.065,10.374,10.374,0,0,1,3.626,3.153l.284.387-15.851,10.6.557.93,17.054-11.388a12.73,12.73,0,0,0-4.276-4.258,11.721,11.721,0,0,0-5.981-1.55Z" transform="translate(-131.352 -10.821)"/></g><g transform="translate(140.685 43.755)"><g transform="translate(0 6.561)"><path class="a" d="M116.389,62.568h-1.211V49.893a12.947,12.947,0,0,1,.241-2.679,6.638,6.638,0,0,1,.742-1.972,7.33,7.33,0,0,1,2.64-2.611,7,7,0,0,1,3.523-.908,6.781,6.781,0,0,1,5.084,2.082,7.291,7.291,0,0,1,2.019,5.283,7.789,7.789,0,0,1-.514,2.839,7.354,7.354,0,0,1-1.483,2.37,6.549,6.549,0,0,1-2.3,1.608,7.379,7.379,0,0,1-2.859.549,7.166,7.166,0,0,1-2.619-.475,7.271,7.271,0,0,1-2.282-1.444V52.919a7.366,7.366,0,0,0,2.282,1.774,5.9,5.9,0,0,0,2.619.6,5.58,5.58,0,0,0,4.225-1.774,6.742,6.742,0,0,0-.021-8.9,5.576,5.576,0,0,0-4.2-1.774,5.327,5.327,0,0,0-4.279,1.883,7.579,7.579,0,0,0-1.607,5.085Z" transform="translate(-114.84 -41.376)"/><path class="a" d="M116.8,62.983H114.91V49.963a13.274,13.274,0,0,1,.249-2.749,6.981,6.981,0,0,1,.781-2.076,7.724,7.724,0,0,1,2.767-2.736,7.38,7.38,0,0,1,3.693-.954,7.141,7.141,0,0,1,5.321,2.189,7.646,7.646,0,0,1,2.128,5.52,8.124,8.124,0,0,1-.536,2.949,7.721,7.721,0,0,1-1.55,2.483,6.952,6.952,0,0,1-2.424,1.69,7.758,7.758,0,0,1-2.995.578,7.368,7.368,0,0,1-5.133-2.013l-.111-.1V52.068l.6.678a7.079,7.079,0,0,0,2.175,1.7,5.605,5.605,0,0,0,2.483.561,5.2,5.2,0,0,0,3.978-1.653,6.385,6.385,0,0,0-.021-8.429,5.2,5.2,0,0,0-3.956-1.668,4.967,4.967,0,0,0-4.015,1.774,7.285,7.285,0,0,0-1.526,4.861Zm-1.2-.688h.514V49.878a7.946,7.946,0,0,1,1.688-5.321,5.673,5.673,0,0,1,4.542-2.008,5.934,5.934,0,0,1,4.452,1.883,7.078,7.078,0,0,1,.021,9.381,5.939,5.939,0,0,1-4.477,1.869,6.289,6.289,0,0,1-2.771-.627,7.272,7.272,0,0,1-1.774-1.246v.615a6.655,6.655,0,0,0,4.555,1.731,7.044,7.044,0,0,0,2.728-.525,6.25,6.25,0,0,0,2.186-1.522,7.041,7.041,0,0,0,1.419-2.259,7.479,7.479,0,0,0,.489-2.7,6.979,6.979,0,0,0-1.92-5.041,6.473,6.473,0,0,0-4.835-1.98,6.679,6.679,0,0,0-3.353.866,7.043,7.043,0,0,0-2.519,2.483,6.3,6.3,0,0,0-.709,1.867,12.481,12.481,0,0,0-.234,2.6Z" transform="translate(-114.909 -41.446)"/></g><g transform="translate(17.184)"><path class="a" d="M128.852,57.51V36.5h1.231V57.51Z" transform="translate(-128.508 -36.157)"/><path class="a" d="M130.5,57.929h-1.923v-21.7H130.5Zm-1.236-.689h.543V36.918h-.543Z" transform="translate(-128.578 -36.227)"/></g><g transform="translate(22.099 6.801)"><path class="a" d="M143.074,41.928H144.3v8.024a6.742,6.742,0,0,1-1.571,4.694,5.949,5.949,0,0,1-8.394,0,6.742,6.742,0,0,1-1.571-4.694V41.928h1.2V50.35a5.032,5.032,0,0,0,1.271,3.548,4.611,4.611,0,0,0,6.522.045l.045-.045a5.043,5.043,0,0,0,1.262-3.548Z" transform="translate(-132.418 -41.562)"/><path class="a" d="M138.61,56.787a5.746,5.746,0,0,1-4.453-1.845,7.089,7.089,0,0,1-1.661-4.928V41.645h1.895v8.766a4.724,4.724,0,0,0,1.178,3.325,4.275,4.275,0,0,0,6.046.013l.014-.013A4.728,4.728,0,0,0,142.8,50.4V41.637h1.923v8.408a7.089,7.089,0,0,1-1.661,4.928A5.743,5.743,0,0,1,138.61,56.787Zm-5.422-14.455v7.713a6.429,6.429,0,0,0,1.48,4.464,5.611,5.611,0,0,0,7.88,0,6.429,6.429,0,0,0,1.48-4.464v-7.7h-.543v8.078a5.4,5.4,0,0,1-1.351,3.8,4.966,4.966,0,0,1-7.024.047l-.048-.047a5.383,5.383,0,0,1-1.361-3.793V42.346Z" transform="translate(-132.488 -41.637)"/></g><g transform="translate(36.419 6.805)"><path class="a" d="M144.153,54.944H150.3a4.3,4.3,0,0,0,2.508-.631,2.019,2.019,0,0,0,.894-1.746,2.3,2.3,0,0,0-.769-1.774,5.989,5.989,0,0,0-2.484-1.16l-2.742-.762a5.844,5.844,0,0,1-2.671-1.388,3.077,3.077,0,0,1-.866-2.239,2.878,2.878,0,0,1,1.16-2.458,5.5,5.5,0,0,1,3.318-.859h5.222V43.07h-5.676a3.241,3.241,0,0,0-2.076.571,2,2,0,0,0-.71,1.657,1.873,1.873,0,0,0,.689,1.465,5.752,5.752,0,0,0,2.185,1.03l2.86.8a6.171,6.171,0,0,1,2.837,1.5,3.27,3.27,0,0,1,.962,2.377,3.056,3.056,0,0,1-1.355,2.743,7.7,7.7,0,0,1-4.175.894h-5.255Z" transform="translate(-143.809 -41.569)"/><path class="a" d="M149.478,56.537h-5.6V54.656h6.493a3.993,3.993,0,0,0,2.309-.567,1.68,1.68,0,0,0,.749-1.466,1.955,1.955,0,0,0-.66-1.521,5.678,5.678,0,0,0-2.328-1.065l-2.746-.763a6.188,6.188,0,0,1-2.837-1.48,3.413,3.413,0,0,1-.965-2.483,3.216,3.216,0,0,1,1.3-2.736,5.864,5.864,0,0,1,3.522-.927h5.57v1.834h-6.032a2.945,2.945,0,0,0-1.858.5,1.663,1.663,0,0,0-.582,1.39,1.531,1.531,0,0,0,.571,1.206,5.453,5.453,0,0,0,2.054.955l2.86.8a6.528,6.528,0,0,1,2.977,1.587,3.625,3.625,0,0,1,1.064,2.617,3.4,3.4,0,0,1-1.511,3.033A7.946,7.946,0,0,1,149.478,56.537Zm-4.907-.689h4.907a7.445,7.445,0,0,0,3.984-.837,2.715,2.715,0,0,0,1.2-2.454,2.924,2.924,0,0,0-.862-2.13,5.869,5.869,0,0,0-2.671-1.419l-2.864-.808a6.024,6.024,0,0,1-2.319-1.1,2.213,2.213,0,0,1-.81-1.727,2.349,2.349,0,0,1,.841-1.927,3.6,3.6,0,0,1,2.292-.649h5.321v-.454h-4.878a5.2,5.2,0,0,0-3.111.791,2.525,2.525,0,0,0-1.018,2.182,2.714,2.714,0,0,0,.767,2,5.53,5.53,0,0,0,2.514,1.295l2.743.763a6.242,6.242,0,0,1,2.611,1.238,2.645,2.645,0,0,1,.884,2.029,2.359,2.359,0,0,1-1.043,2.03,4.65,4.65,0,0,1-2.707.709h-5.8Z" transform="translate(-143.879 -41.64)"/></g></g></g></svg>