<svg xmlns="http://www.w3.org/2000/svg" xmlns:xlink="http://www.w3.org/1999/xlink" width="50.727" height="44.41" viewBox="0 0 50.727 44.41"><defs><style>.a{fill:none;}.b{clip-path:url(#a);}.c{fill:#fff;}</style><clipPath id="a"><rect class="a" width="50.727" height="44.41"/></clipPath></defs><g class="b"><g transform="translate(0)"><path class="c" d="M25.411,124.152a1.676,1.676,0,0,0-1.661,1.689v2.892L.864,141.843a1.7,1.7,0,0,0-.758,1.906,1.656,1.656,0,0,0,1.608,1.243H49.107a1.671,1.671,0,0,0,1.608-1.243,1.722,1.722,0,0,0-.758-1.906L27.085,128.666V127.26a5.4,5.4,0,0,0,3.761-5.217,5.59,5.59,0,0,0-5.422-5.744,5.535,5.535,0,0,0-5.316,4.609,1.692,1.692,0,0,0,1.316,1.987,1.667,1.667,0,0,0,1.954-1.338,2.181,2.181,0,0,1,2.033-1.865,1.925,1.925,0,0,1,2.06,2.014A2.282,2.282,0,0,1,25.411,124.152ZM10.233,140.924l15.177-9.068,15.177,9.068Z" transform="translate(-0.046 -100.582)"/><path class="c" d="M130.325,66.217a1.672,1.672,0,0,1-1.236-.554c-.027-.041-3.429-3.771-7.469-3.771-4.014,0-7.735,3.784-7.775,3.811a1.63,1.63,0,0,1-2.352.027,1.7,1.7,0,0,1-.027-2.392c.186-.2,4.7-4.838,10.167-4.838,5.542,0,9.768,4.69,9.954,4.892a1.688,1.688,0,0,1-1.263,2.825Z" transform="translate(-96.243 -50.594)"/><path class="c" d="M71.084,10.028a1.664,1.664,0,0,1-1.13-.446,1.711,1.711,0,0,1-.106-2.392C70.114,6.893,76.427,0,85.557,0h0c8.359,0,14.832,6.879,15.111,7.163a1.709,1.709,0,0,1-.066,2.392,1.642,1.642,0,0,1-2.352-.068C98.2,9.433,92.468,3.379,85.57,3.379c-7.682,0-13.2,6.028-13.25,6.082A1.659,1.659,0,0,1,71.084,10.028Z" transform="translate(-60.193)"/></g></g></svg>