<svg xmlns="http://www.w3.org/2000/svg" width="64.435" height="43.29" viewBox="0 0 64.435 43.29"><defs><style>.a{fill:#60269e;stroke:#60269e;}</style></defs><g transform="translate(0.5 -84.833)"><g transform="translate(0 85.333)"><path class="a" d="M56.827,85.333H6.608A6.617,6.617,0,0,0,0,91.941v29.074a6.617,6.617,0,0,0,6.608,6.608H56.827a6.617,6.617,0,0,0,6.608-6.608V91.941A6.617,6.617,0,0,0,56.827,85.333Zm3.965,35.682a3.969,3.969,0,0,1-3.965,3.965H6.608a3.969,3.969,0,0,1-3.965-3.965V91.941a3.969,3.969,0,0,1,3.965-3.965H56.827a3.969,3.969,0,0,1,3.965,3.965v29.074Z" transform="translate(0 -85.333)"/></g><g transform="translate(0 93.262)"><path class="a" d="M62.113,149.333H1.322A1.322,1.322,0,0,0,0,150.655v7.929a1.322,1.322,0,0,0,1.322,1.322H62.113a1.322,1.322,0,0,0,1.322-1.322v-7.929A1.322,1.322,0,0,0,62.113,149.333Zm-1.321,7.929H2.643v-5.286H60.791v5.286Z" transform="translate(0 -149.333)"/></g><g transform="translate(7.929 111.764)"><path class="a" d="M81.18,298.667H65.322a1.322,1.322,0,1,0,0,2.643H81.18a1.322,1.322,0,1,0,0-2.643Z" transform="translate(-64 -298.667)"/></g><g transform="translate(7.929 117.05)"><path class="a" d="M81.18,341.333H65.322a1.322,1.322,0,0,0,0,2.643H81.18a1.322,1.322,0,1,0,0-2.643Z" transform="translate(-64 -341.333)"/></g><g transform="translate(44.933 109.121)"><path class="a" d="M369.275,277.333h-2.643a3.969,3.969,0,0,0-3.965,3.965v2.643a3.969,3.969,0,0,0,3.965,3.965h2.643a3.969,3.969,0,0,0,3.965-3.965V281.3A3.97,3.97,0,0,0,369.275,277.333Zm1.322,6.608a1.322,1.322,0,0,1-1.322,1.322h-2.643a1.322,1.322,0,0,1-1.322-1.322V281.3a1.322,1.322,0,0,1,1.322-1.322h2.643A1.322,1.322,0,0,1,370.6,281.3Z" transform="translate(-362.667 -277.333)"/></g></g></svg>