<svg xmlns="http://www.w3.org/2000/svg" width="46.194" height="62.585" viewBox="0 0 46.194 62.585"><defs><style>.a{fill:#60269e;stroke:#60269e;}</style></defs><g transform="translate(-57.988 0.579)"><g transform="translate(58.488)"><path class="a" d="M315.889,32.594l-3.914,2.535-.357,2.023,3.914-2.535Z" transform="translate(-276.373 -28.056)"/><path class="a" d="M310.3,62.381l-3.912,2.534-.412,2.328,3.914-2.535Z" transform="translate(-271.517 -53.695)"/><path class="a" d="M321.111.593,317.749,0l-.873,4.949,3.913-2.534Z" transform="translate(-280.898)"/><path class="a" d="M169.006,155.936a2.113,2.113,0,0,0,0,4.226c.054,0,.106-.013.158-.016.51,3.755-3.43,7.188-7.162,7.391-4.2.227-5.946-3.844-6.294-7.435a2.123,2.123,0,1,0-1.841-.447c.309,4.941,3.125,10.41,8.919,9.625,4.85-.657,9.185-5.331,8.009-10.117a2.091,2.091,0,0,0,.324-1.114A2.114,2.114,0,0,0,169.006,155.936Z" transform="translate(-139.938 -134.224)"/><path class="a" d="M103.59,73.445c-1.554-6.116-6.151-27.109-.082-40.462.006-.013.007-.027.013-.04a1.341,1.341,0,0,0,.074-.239c0-.02.011-.04.015-.059a1.437,1.437,0,0,0,.017-.307c0-.019-.007-.038-.008-.056a1.3,1.3,0,0,0-.049-.246c-.008-.029-.019-.057-.03-.085a1.363,1.363,0,0,0-.1-.207c-.009-.016-.014-.036-.025-.054s-.016-.016-.021-.027-.018-.033-.029-.048L99,25.747a1.336,1.336,0,0,0-.605-.448,4.39,4.39,0,0,1-.254,3.832l1.442,1.939H93.494l2.6-1.685.393-2.226-3.913,2.535-.244,1.376h-4.1l2-3.16.456-.741L87.6,25.2l-7.439-4.717-2.24,3.532,2.173,7.055H78.97L74.417,16.29l-11.93,3.675L64.1,25.2h-1.25a1.353,1.353,0,0,0-1.205.736L58.633,31.8c-.013.026-.019.053-.031.08a1.016,1.016,0,0,0-.041.105,1.226,1.226,0,0,0-.05.2c-.006.031-.013.061-.016.093a1.382,1.382,0,0,0,0,.263c0,.012,0,.023,0,.035a1.412,1.412,0,0,0,.069.29.217.217,0,0,1,.005.024c6.412,17.445,1.9,35.566.362,40.7a1.457,1.457,0,0,0,.162,1.4,1.354,1.354,0,0,0,1.081.538h.018a1.237,1.237,0,0,0,.835-.308h40.555a1.268,1.268,0,0,0,.775.241,1.355,1.355,0,0,0,1.07-.523A1.539,1.539,0,0,0,103.59,73.445ZM63.677,27.908h1.257l.973,3.16H62.055Zm-1.63,44.6c1.789-6.771,4.893-22.806-.306-38.733h38.515c-4.841,13.066-1.439,31.278.317,38.733Z" transform="translate(-58.488 -14.022)"/></g></g></svg>