<svg xmlns="http://www.w3.org/2000/svg" width="88" height="54.138" viewBox="0 0 88 54.138"><defs><style>.a{fill:#60269e;}.b{fill:#b4b000;fill-rule:evenodd;}</style></defs><g transform="translate(-100.492 -302.769)"><g transform="translate(100.492 335.048)"><g transform="translate(0 1.476)"><path class="a" d="M100.492,454.459h4.691l5.05,13.6,5.05-13.6h4.581l-7.809,19.454H108.3Z" transform="translate(-100.492 -454.459)"/><path class="a" d="M210.719,454.459h14.542v3.78H214.913v3.918h9.106v3.78h-9.106v4.056H225.4v3.78h-14.68Z" transform="translate(-186.165 -454.459)"/><path class="a" d="M382.55,458.377h-5.877v-3.918h16v3.918H386.8v15.4H382.55Z" transform="translate(-315.187 -454.459)"/><path class="a" d="M476.313,454.459h4.249v19.316h-4.249Z" transform="translate(-392.562 -454.459)"/></g><path class="a" d="M293.378,463a13.854,13.854,0,0,0,2.99,1.882,7.99,7.99,0,0,0,3.354.7,4.084,4.084,0,0,0,2.262-.531,1.672,1.672,0,0,0,.8-1.472v-.061a1.842,1.842,0,0,0-.167-.8,1.7,1.7,0,0,0-.639-.653,6.751,6.751,0,0,0-1.309-.607q-.838-.3-2.176-.637a26.479,26.479,0,0,1-2.923-.88,8.22,8.22,0,0,1-2.222-1.2,4.846,4.846,0,0,1-1.416-1.776,6.167,6.167,0,0,1-.5-2.641v-.061a6.161,6.161,0,0,1,.543-2.626,5.981,5.981,0,0,1,1.523-2.019,6.851,6.851,0,0,1,2.342-1.305,9.411,9.411,0,0,1,3-.455,12.715,12.715,0,0,1,4.3.7,12.471,12.471,0,0,1,3.6,2m-2.429,3.522a15.424,15.424,0,0,0-2.793-1.533,7.138,7.138,0,0,0-2.732-.562,3.307,3.307,0,0,0-2.049.531,1.614,1.614,0,0,0-.683,1.321v.061a1.915,1.915,0,0,0,.2.9,1.791,1.791,0,0,0,.716.683,6.73,6.73,0,0,0,1.415.577q.9.273,2.268.638a21.811,21.811,0,0,1,2.876.956,8.04,8.04,0,0,1,2.131,1.275,4.862,4.862,0,0,1,1.309,1.746,5.926,5.926,0,0,1,.442,2.4v.061a6.577,6.577,0,0,1-.573,2.808,5.764,5.764,0,0,1-1.6,2.064,7.192,7.192,0,0,1-2.448,1.275,10.638,10.638,0,0,1-3.152.44,14.075,14.075,0,0,1-4.766-.835,12.606,12.606,0,0,1-4.25-2.565" transform="translate(-248.267 -447.852)"/></g><g transform="translate(130.754 302.769)"><path class="b" d="M263.523,354.643l-12.587-7.327v-1.18a2.713,2.713,0,1,0-3.457-2.6.766.766,0,1,0,1.533,0,1.158,1.158,0,1,1,1.158,1.169.77.77,0,0,0-.766.774v1.841l-12.587,7.327a.774.774,0,0,0,.389,1.443h25.927a.774.774,0,0,0,.389-1.443Zm-5.562-.627H241.867l8.3-4.833,8.3,4.833Z" transform="translate(-236.432 -332.314)"/><path class="b" d="M274.61,323.338a1.114,1.114,0,0,0,1.575,1.577,4.778,4.778,0,0,1,6.755,0,1.115,1.115,0,0,0,1.577-1.577A7.009,7.009,0,0,0,274.61,323.338Z" transform="translate(-265.826 -317.15)"/><path class="b" d="M263.088,307.608a8.917,8.917,0,0,1,12.608,0,1.115,1.115,0,1,0,1.577-1.577,11.146,11.146,0,0,0-15.759,0,1.113,1.113,0,0,0,1.575,1.575Z" transform="translate(-255.655 -302.769)"/></g></g></svg>