<svg xmlns="http://www.w3.org/2000/svg" width="55.219" height="35.262" viewBox="0 0 55.219 35.262"><defs><style>.a{fill:#555;stroke:#4f328b;stroke-width:2px;}</style></defs><g transform="translate(1 1)"><path class="a" d="M51.119,122.255l-23.4-12.363v-1.561l.031-.008c3.687-.913,6.162-3.209,6.162-6.162A6.162,6.162,0,0,0,27.748,96a6.069,6.069,0,0,0-6.144,5.381.856.856,0,0,0-.013.145c0,.006,0,.011,0,.018a1.109,1.109,0,0,0,2.219,0h.006a3.455,3.455,0,0,1,.965-2.076,4.109,4.109,0,0,1,2.969-1.251,3.948,3.948,0,0,1,3.943,3.944,3.111,3.111,0,0,1-1.031,2.262,7.469,7.469,0,0,1-3.445,1.747s-1.684.52-1.713.53v.386h0v2.806L2.1,122.255A3.7,3.7,0,0,0,0,125.51a3.984,3.984,0,0,0,4.182,3.752H49.038a3.983,3.983,0,0,0,4.18-3.752A3.7,3.7,0,0,0,51.119,122.255Zm-2.081,4.788H4.182a1.814,1.814,0,0,1-1.964-1.533,1.5,1.5,0,0,1,.9-1.286l.01,0,.01-.006,23.47-12.4,23.475,12.4.01.006.01,0a1.5,1.5,0,0,1,.9,1.286A1.814,1.814,0,0,1,49.038,127.043Z" transform="translate(0 -96)"/></g></svg>