<svg xmlns="http://www.w3.org/2000/svg" width="74.817" height="33.311" viewBox="0 0 74.817 33.311"><defs><style>.a{fill:#60269e;stroke:#4f328b;stroke-width:1.5px;}</style></defs><path class="a" d="M87.447,183.128A4.558,4.558,0,0,0,92,178.578a4.442,4.442,0,0,0-.259-1.286c5.822-4.694,16.109-12.97,20.8-16.584a4.106,4.106,0,0,0,4.762.259c3.014,2.563,8.141,6.922,11.779,10.018a4.2,4.2,0,0,0-.154.778,4.56,4.56,0,0,0,9.12,0,4.439,4.439,0,0,0-.254-1.262l11.779-10.637a4.444,4.444,0,0,0,2.083.566,4.593,4.593,0,1,0-4.21-2.856c-3.293,2.971-8.371,7.56-11.539,10.421a4.418,4.418,0,0,0-2.414-.792,4.463,4.463,0,0,0-2.794,1.046l-11.338-9.639a4.426,4.426,0,0,0,.312-1.56,4.555,4.555,0,1,0-9.111,0,4.456,4.456,0,0,0,.317,1.565L89.972,174.881a4.452,4.452,0,0,0-2.52-.864,4.556,4.556,0,0,0,0,9.111Z" transform="translate(-82.147 -150.568)"/></svg>