<svg xmlns="http://www.w3.org/2000/svg" width="83" height="76" viewBox="0 0 83 76"><defs><style>.a{fill:#55cd6c;}.b{fill:#fff;}</style></defs><g transform="translate(-1283 -4915)"><rect class="a" width="83" height="76" transform="translate(1283 4915)"/><g transform="translate(1283.015 4912.375)"><path class="b" d="M156.863,124.469a22.786,22.786,0,0,0-19.309,34.894l.542.862-2.3,8.4,8.623-2.261.832.493a22.746,22.746,0,0,0,11.6,3.175h.009a22.784,22.784,0,0,0,.01-45.567Zm13.4,32.566c-.571,1.6-3.307,3.059-4.623,3.256a9.4,9.4,0,0,1-4.314-.271,39.552,39.552,0,0,1-3.905-1.442c-6.87-2.966-11.357-9.881-11.7-10.338s-2.8-3.713-2.8-7.083a7.677,7.677,0,0,1,2.4-5.712,2.518,2.518,0,0,1,1.827-.857c.456,0,.913,0,1.312.024.421.021.985-.16,1.541,1.175.571,1.371,1.941,4.741,2.112,5.083a1.263,1.263,0,0,1,.057,1.2,19.52,19.52,0,0,1-1.712,2.342c-.3.377-.7.712-.3,1.4a20.644,20.644,0,0,0,3.81,4.743,18.722,18.722,0,0,0,5.508,3.4c.684.342,1.084.285,1.484-.171s1.712-2,2.168-2.685.913-.571,1.541-.342,4,1.885,4.68,2.227,1.141.514,1.312.8A5.711,5.711,0,0,1,170.264,157.035Zm0,0" transform="translate(-115.086 -106.844)"/></g></g></svg>