<svg xmlns="http://www.w3.org/2000/svg" xmlns:xlink="http://www.w3.org/1999/xlink" width="23.913" height="23.913" viewBox="0 0 23.913 23.913"><defs><style>.a{fill:none;}.b{clip-path:url(#a);}.c{fill:#fbfbfb;}</style><clipPath id="a"><rect class="a" width="23.913" height="23.913"/></clipPath></defs><g class="b"><path class="c" d="M16.789,0H7.124A7.132,7.132,0,0,0,0,7.124v9.665a7.132,7.132,0,0,0,7.124,7.124h9.665a7.132,7.132,0,0,0,7.124-7.124V7.124A7.132,7.132,0,0,0,16.789,0Zm4.718,16.789a4.718,4.718,0,0,1-4.718,4.718H7.124a4.718,4.718,0,0,1-4.718-4.718V7.124A4.718,4.718,0,0,1,7.124,2.406h9.665a4.718,4.718,0,0,1,4.718,4.718v9.665Z" transform="translate(0 0)"/><path class="c" d="M139.185,133a6.185,6.185,0,1,0,6.185,6.185A6.192,6.192,0,0,0,139.185,133Zm0,9.964a3.779,3.779,0,1,1,3.779-3.779A3.779,3.779,0,0,1,139.185,142.964Z" transform="translate(-127.228 -127.228)"/><circle class="c" cx="1.482" cy="1.482" r="1.482" transform="translate(16.671 4.336)"/></g></svg>